<?xml version="1.0" encoding="utf-8" standalone="no"?>
<!DOCTYPE svg PUBLIC "-//W3C//DTD SVG 1.1//EN"
  "http://www.w3.org/Graphics/SVG/1.1/DTD/svg11.dtd">
<svg xmlns:xlink="http://www.w3.org/1999/xlink" width="605.88pt" height="187.230125pt" viewBox="0 0 605.88 187.230125" xmlns="http://www.w3.org/2000/svg" version="1.1">
 <metadata>
  <rdf:RDF xmlns:dc="http://purl.org/dc/elements/1.1/" xmlns:cc="http://creativecommons.org/ns#" xmlns:rdf="http://www.w3.org/1999/02/22-rdf-syntax-ns#">
   <cc:Work>
    <dc:type rdf:resource="http://purl.org/dc/dcmitype/StillImage"/>
    <dc:date>2026-05-15T02:33:27.101595</dc:date>
    <dc:format>image/svg+xml</dc:format>
    <dc:creator>
     <cc:Agent>
      <dc:title>Matplotlib v3.10.8, https://matplotlib.org/</dc:title>
     </cc:Agent>
    </dc:creator>
   </cc:Work>
  </rdf:RDF>
 </metadata>
 <defs>
  <style type="text/css">*{stroke-linejoin: round; stroke-linecap: butt}</style>
 </defs>
 <g id="figure_1">
  <g id="patch_1">
   <path d="M 0 187.230125 
L 605.88 187.230125 
L 605.88 0 
L 0 0 
z
" style="fill: #ffffff"/>
  </g>
  <g id="axes_1">
   <g id="text_1">
    <g id="patch_2">
     <path d="M 41.205316 101.361019 
L 162.468284 101.361019 
Q 168.518284 101.361019 168.518284 95.311019 
L 168.518284 72.175613 
Q 168.518284 66.125613 162.468284 66.125613 
L 41.205316 66.125613 
Q 35.155316 66.125613 35.155316 72.175613 
L 35.155316 95.311019 
Q 35.155316 101.361019 41.205316 101.361019 
z
" style="fill: #ffffff; stroke: #cfd8e3; stroke-width: 1.1; stroke-linejoin: miter"/>
    </g>
    <!-- 1. Convergencia de -->
    <g style="fill: #17202a" transform="translate(42.225394 80.619832) scale(0.11 -0.11)">
     <defs>
      <path id="DejaVuSans-Bold-31" d="M 750 831 
L 1813 831 
L 1813 3847 
L 722 3622 
L 722 4441 
L 1806 4666 
L 2950 4666 
L 2950 831 
L 4013 831 
L 4013 0 
L 750 0 
L 750 831 
z
" transform="scale(0.015625)"/>
      <path id="DejaVuSans-Bold-2e" d="M 653 1209 
L 1778 1209 
L 1778 0 
L 653 0 
L 653 1209 
z
" transform="scale(0.015625)"/>
      <path id="DejaVuSans-Bold-20" transform="scale(0.015625)"/>
      <path id="DejaVuSans-Bold-43" d="M 4288 256 
Q 3956 84 3597 -3 
Q 3238 -91 2847 -91 
Q 1681 -91 1000 561 
Q 319 1213 319 2328 
Q 319 3447 1000 4098 
Q 1681 4750 2847 4750 
Q 3238 4750 3597 4662 
Q 3956 4575 4288 4403 
L 4288 3438 
Q 3953 3666 3628 3772 
Q 3303 3878 2944 3878 
Q 2300 3878 1931 3465 
Q 1563 3053 1563 2328 
Q 1563 1606 1931 1193 
Q 2300 781 2944 781 
Q 3303 781 3628 887 
Q 3953 994 4288 1222 
L 4288 256 
z
" transform="scale(0.015625)"/>
      <path id="DejaVuSans-Bold-6f" d="M 2203 2784 
Q 1831 2784 1636 2517 
Q 1441 2250 1441 1747 
Q 1441 1244 1636 976 
Q 1831 709 2203 709 
Q 2569 709 2762 976 
Q 2956 1244 2956 1747 
Q 2956 2250 2762 2517 
Q 2569 2784 2203 2784 
z
M 2203 3584 
Q 3106 3584 3614 3096 
Q 4122 2609 4122 1747 
Q 4122 884 3614 396 
Q 3106 -91 2203 -91 
Q 1297 -91 786 396 
Q 275 884 275 1747 
Q 275 2609 786 3096 
Q 1297 3584 2203 3584 
z
" transform="scale(0.015625)"/>
      <path id="DejaVuSans-Bold-6e" d="M 4056 2131 
L 4056 0 
L 2931 0 
L 2931 347 
L 2931 1631 
Q 2931 2084 2911 2256 
Q 2891 2428 2841 2509 
Q 2775 2619 2662 2680 
Q 2550 2741 2406 2741 
Q 2056 2741 1856 2470 
Q 1656 2200 1656 1722 
L 1656 0 
L 538 0 
L 538 3500 
L 1656 3500 
L 1656 2988 
Q 1909 3294 2193 3439 
Q 2478 3584 2822 3584 
Q 3428 3584 3742 3212 
Q 4056 2841 4056 2131 
z
" transform="scale(0.015625)"/>
      <path id="DejaVuSans-Bold-76" d="M 97 3500 
L 1216 3500 
L 2088 1081 
L 2956 3500 
L 4078 3500 
L 2700 0 
L 1472 0 
L 97 3500 
z
" transform="scale(0.015625)"/>
      <path id="DejaVuSans-Bold-65" d="M 4031 1759 
L 4031 1441 
L 1416 1441 
Q 1456 1047 1700 850 
Q 1944 653 2381 653 
Q 2734 653 3104 758 
Q 3475 863 3866 1075 
L 3866 213 
Q 3469 63 3072 -14 
Q 2675 -91 2278 -91 
Q 1328 -91 801 392 
Q 275 875 275 1747 
Q 275 2603 792 3093 
Q 1309 3584 2216 3584 
Q 3041 3584 3536 3087 
Q 4031 2591 4031 1759 
z
M 2881 2131 
Q 2881 2450 2695 2645 
Q 2509 2841 2209 2841 
Q 1884 2841 1681 2658 
Q 1478 2475 1428 2131 
L 2881 2131 
z
" transform="scale(0.015625)"/>
      <path id="DejaVuSans-Bold-72" d="M 3138 2547 
Q 2991 2616 2845 2648 
Q 2700 2681 2553 2681 
Q 2122 2681 1889 2404 
Q 1656 2128 1656 1613 
L 1656 0 
L 538 0 
L 538 3500 
L 1656 3500 
L 1656 2925 
Q 1872 3269 2151 3426 
Q 2431 3584 2822 3584 
Q 2878 3584 2943 3579 
Q 3009 3575 3134 3559 
L 3138 2547 
z
" transform="scale(0.015625)"/>
      <path id="DejaVuSans-Bold-67" d="M 2919 594 
Q 2688 288 2409 144 
Q 2131 0 1766 0 
Q 1125 0 706 504 
Q 288 1009 288 1791 
Q 288 2575 706 3076 
Q 1125 3578 1766 3578 
Q 2131 3578 2409 3434 
Q 2688 3291 2919 2981 
L 2919 3500 
L 4044 3500 
L 4044 353 
Q 4044 -491 3511 -936 
Q 2978 -1381 1966 -1381 
Q 1638 -1381 1331 -1331 
Q 1025 -1281 716 -1178 
L 716 -306 
Q 1009 -475 1290 -558 
Q 1572 -641 1856 -641 
Q 2406 -641 2662 -400 
Q 2919 -159 2919 353 
L 2919 594 
z
M 2181 2772 
Q 1834 2772 1640 2515 
Q 1447 2259 1447 1791 
Q 1447 1309 1634 1061 
Q 1822 813 2181 813 
Q 2531 813 2725 1069 
Q 2919 1325 2919 1791 
Q 2919 2259 2725 2515 
Q 2531 2772 2181 2772 
z
" transform="scale(0.015625)"/>
      <path id="DejaVuSans-Bold-63" d="M 3366 3391 
L 3366 2478 
Q 3138 2634 2908 2709 
Q 2678 2784 2431 2784 
Q 1963 2784 1702 2511 
Q 1441 2238 1441 1747 
Q 1441 1256 1702 982 
Q 1963 709 2431 709 
Q 2694 709 2930 787 
Q 3166 866 3366 1019 
L 3366 103 
Q 3103 6 2833 -42 
Q 2563 -91 2291 -91 
Q 1344 -91 809 395 
Q 275 881 275 1747 
Q 275 2613 809 3098 
Q 1344 3584 2291 3584 
Q 2566 3584 2833 3536 
Q 3100 3488 3366 3391 
z
" transform="scale(0.015625)"/>
      <path id="DejaVuSans-Bold-69" d="M 538 3500 
L 1656 3500 
L 1656 0 
L 538 0 
L 538 3500 
z
M 538 4863 
L 1656 4863 
L 1656 3950 
L 538 3950 
L 538 4863 
z
" transform="scale(0.015625)"/>
      <path id="DejaVuSans-Bold-61" d="M 2106 1575 
Q 1756 1575 1579 1456 
Q 1403 1338 1403 1106 
Q 1403 894 1545 773 
Q 1688 653 1941 653 
Q 2256 653 2472 879 
Q 2688 1106 2688 1447 
L 2688 1575 
L 2106 1575 
z
M 3816 1997 
L 3816 0 
L 2688 0 
L 2688 519 
Q 2463 200 2181 54 
Q 1900 -91 1497 -91 
Q 953 -91 614 226 
Q 275 544 275 1050 
Q 275 1666 698 1953 
Q 1122 2241 2028 2241 
L 2688 2241 
L 2688 2328 
Q 2688 2594 2478 2717 
Q 2269 2841 1825 2841 
Q 1466 2841 1156 2769 
Q 847 2697 581 2553 
L 581 3406 
Q 941 3494 1303 3539 
Q 1666 3584 2028 3584 
Q 2975 3584 3395 3211 
Q 3816 2838 3816 1997 
z
" transform="scale(0.015625)"/>
      <path id="DejaVuSans-Bold-64" d="M 2919 2988 
L 2919 4863 
L 4044 4863 
L 4044 0 
L 2919 0 
L 2919 506 
Q 2688 197 2409 53 
Q 2131 -91 1766 -91 
Q 1119 -91 703 423 
Q 288 938 288 1747 
Q 288 2556 703 3070 
Q 1119 3584 1766 3584 
Q 2128 3584 2408 3439 
Q 2688 3294 2919 2988 
z
M 2181 722 
Q 2541 722 2730 984 
Q 2919 1247 2919 1747 
Q 2919 2247 2730 2509 
Q 2541 2772 2181 2772 
Q 1825 2772 1636 2509 
Q 1447 2247 1447 1747 
Q 1447 1247 1636 984 
Q 1825 722 2181 722 
z
" transform="scale(0.015625)"/>
     </defs>
     <use xlink:href="#DejaVuSans-Bold-31"/>
     <use xlink:href="#DejaVuSans-Bold-2e" transform="translate(69.580078 0)"/>
     <use xlink:href="#DejaVuSans-Bold-20" transform="translate(107.568359 0)"/>
     <use xlink:href="#DejaVuSans-Bold-43" transform="translate(142.382812 0)"/>
     <use xlink:href="#DejaVuSans-Bold-6f" transform="translate(215.771484 0)"/>
     <use xlink:href="#DejaVuSans-Bold-6e" transform="translate(284.472656 0)"/>
     <use xlink:href="#DejaVuSans-Bold-76" transform="translate(355.664062 0)"/>
     <use xlink:href="#DejaVuSans-Bold-65" transform="translate(420.849609 0)"/>
     <use xlink:href="#DejaVuSans-Bold-72" transform="translate(488.671875 0)"/>
     <use xlink:href="#DejaVuSans-Bold-67" transform="translate(537.988281 0)"/>
     <use xlink:href="#DejaVuSans-Bold-65" transform="translate(609.570312 0)"/>
     <use xlink:href="#DejaVuSans-Bold-6e" transform="translate(677.392578 0)"/>
     <use xlink:href="#DejaVuSans-Bold-63" transform="translate(748.583984 0)"/>
     <use xlink:href="#DejaVuSans-Bold-69" transform="translate(807.861328 0)"/>
     <use xlink:href="#DejaVuSans-Bold-61" transform="translate(842.138672 0)"/>
     <use xlink:href="#DejaVuSans-Bold-20" transform="translate(909.619141 0)"/>
     <use xlink:href="#DejaVuSans-Bold-64" transform="translate(944.433594 0)"/>
     <use xlink:href="#DejaVuSans-Bold-65" transform="translate(1016.015625 0)"/>
    </g>
    <!-- variables continuas -->
    <g style="fill: #17202a" transform="translate(41.205316 93.023363) scale(0.11 -0.11)">
     <defs>
      <path id="DejaVuSans-Bold-62" d="M 2400 722 
Q 2759 722 2948 984 
Q 3138 1247 3138 1747 
Q 3138 2247 2948 2509 
Q 2759 2772 2400 2772 
Q 2041 2772 1848 2508 
Q 1656 2244 1656 1747 
Q 1656 1250 1848 986 
Q 2041 722 2400 722 
z
M 1656 2988 
Q 1888 3294 2169 3439 
Q 2450 3584 2816 3584 
Q 3463 3584 3878 3070 
Q 4294 2556 4294 1747 
Q 4294 938 3878 423 
Q 3463 -91 2816 -91 
Q 2450 -91 2169 54 
Q 1888 200 1656 506 
L 1656 0 
L 538 0 
L 538 4863 
L 1656 4863 
L 1656 2988 
z
" transform="scale(0.015625)"/>
      <path id="DejaVuSans-Bold-6c" d="M 538 4863 
L 1656 4863 
L 1656 0 
L 538 0 
L 538 4863 
z
" transform="scale(0.015625)"/>
      <path id="DejaVuSans-Bold-73" d="M 3272 3391 
L 3272 2541 
Q 2913 2691 2578 2766 
Q 2244 2841 1947 2841 
Q 1628 2841 1473 2761 
Q 1319 2681 1319 2516 
Q 1319 2381 1436 2309 
Q 1553 2238 1856 2203 
L 2053 2175 
Q 2913 2066 3209 1816 
Q 3506 1566 3506 1031 
Q 3506 472 3093 190 
Q 2681 -91 1863 -91 
Q 1516 -91 1145 -36 
Q 775 19 384 128 
L 384 978 
Q 719 816 1070 734 
Q 1422 653 1784 653 
Q 2113 653 2278 743 
Q 2444 834 2444 1013 
Q 2444 1163 2330 1236 
Q 2216 1309 1875 1350 
L 1678 1375 
Q 931 1469 631 1722 
Q 331 1975 331 2491 
Q 331 3047 712 3315 
Q 1094 3584 1881 3584 
Q 2191 3584 2531 3537 
Q 2872 3491 3272 3391 
z
" transform="scale(0.015625)"/>
      <path id="DejaVuSans-Bold-74" d="M 1759 4494 
L 1759 3500 
L 2913 3500 
L 2913 2700 
L 1759 2700 
L 1759 1216 
Q 1759 972 1856 886 
Q 1953 800 2241 800 
L 2816 800 
L 2816 0 
L 1856 0 
Q 1194 0 917 276 
Q 641 553 641 1216 
L 641 2700 
L 84 2700 
L 84 3500 
L 641 3500 
L 641 4494 
L 1759 4494 
z
" transform="scale(0.015625)"/>
      <path id="DejaVuSans-Bold-75" d="M 500 1363 
L 500 3500 
L 1625 3500 
L 1625 3150 
Q 1625 2866 1622 2436 
Q 1619 2006 1619 1863 
Q 1619 1441 1641 1255 
Q 1663 1069 1716 984 
Q 1784 875 1895 815 
Q 2006 756 2150 756 
Q 2500 756 2700 1025 
Q 2900 1294 2900 1772 
L 2900 3500 
L 4019 3500 
L 4019 0 
L 2900 0 
L 2900 506 
Q 2647 200 2364 54 
Q 2081 -91 1741 -91 
Q 1134 -91 817 281 
Q 500 653 500 1363 
z
" transform="scale(0.015625)"/>
     </defs>
     <use xlink:href="#DejaVuSans-Bold-76"/>
     <use xlink:href="#DejaVuSans-Bold-61" transform="translate(65.185547 0)"/>
     <use xlink:href="#DejaVuSans-Bold-72" transform="translate(132.666016 0)"/>
     <use xlink:href="#DejaVuSans-Bold-69" transform="translate(181.982422 0)"/>
     <use xlink:href="#DejaVuSans-Bold-61" transform="translate(216.259766 0)"/>
     <use xlink:href="#DejaVuSans-Bold-62" transform="translate(283.740234 0)"/>
     <use xlink:href="#DejaVuSans-Bold-6c" transform="translate(355.322266 0)"/>
     <use xlink:href="#DejaVuSans-Bold-65" transform="translate(389.599609 0)"/>
     <use xlink:href="#DejaVuSans-Bold-73" transform="translate(457.421875 0)"/>
     <use xlink:href="#DejaVuSans-Bold-20" transform="translate(516.943359 0)"/>
     <use xlink:href="#DejaVuSans-Bold-63" transform="translate(551.757812 0)"/>
     <use xlink:href="#DejaVuSans-Bold-6f" transform="translate(611.035156 0)"/>
     <use xlink:href="#DejaVuSans-Bold-6e" transform="translate(679.736328 0)"/>
     <use xlink:href="#DejaVuSans-Bold-74" transform="translate(750.927734 0)"/>
     <use xlink:href="#DejaVuSans-Bold-69" transform="translate(798.730469 0)"/>
     <use xlink:href="#DejaVuSans-Bold-6e" transform="translate(833.007812 0)"/>
     <use xlink:href="#DejaVuSans-Bold-75" transform="translate(904.199219 0)"/>
     <use xlink:href="#DejaVuSans-Bold-61" transform="translate(975.390625 0)"/>
     <use xlink:href="#DejaVuSans-Bold-73" transform="translate(1042.871094 0)"/>
    </g>
   </g>
   <g id="text_2">
    <!-- desplazamiento, velocidad, -->
    <g style="fill: #687385" transform="translate(43.613792 141.709163) scale(0.085 -0.085)">
     <defs>
      <path id="DejaVuSans-64" d="M 2906 2969 
L 2906 4863 
L 3481 4863 
L 3481 0 
L 2906 0 
L 2906 525 
Q 2725 213 2448 61 
Q 2172 -91 1784 -91 
Q 1150 -91 751 415 
Q 353 922 353 1747 
Q 353 2572 751 3078 
Q 1150 3584 1784 3584 
Q 2172 3584 2448 3432 
Q 2725 3281 2906 2969 
z
M 947 1747 
Q 947 1113 1208 752 
Q 1469 391 1925 391 
Q 2381 391 2643 752 
Q 2906 1113 2906 1747 
Q 2906 2381 2643 2742 
Q 2381 3103 1925 3103 
Q 1469 3103 1208 2742 
Q 947 2381 947 1747 
z
" transform="scale(0.015625)"/>
      <path id="DejaVuSans-65" d="M 3597 1894 
L 3597 1613 
L 953 1613 
Q 991 1019 1311 708 
Q 1631 397 2203 397 
Q 2534 397 2845 478 
Q 3156 559 3463 722 
L 3463 178 
Q 3153 47 2828 -22 
Q 2503 -91 2169 -91 
Q 1331 -91 842 396 
Q 353 884 353 1716 
Q 353 2575 817 3079 
Q 1281 3584 2069 3584 
Q 2775 3584 3186 3129 
Q 3597 2675 3597 1894 
z
M 3022 2063 
Q 3016 2534 2758 2815 
Q 2500 3097 2075 3097 
Q 1594 3097 1305 2825 
Q 1016 2553 972 2059 
L 3022 2063 
z
" transform="scale(0.015625)"/>
      <path id="DejaVuSans-73" d="M 2834 3397 
L 2834 2853 
Q 2591 2978 2328 3040 
Q 2066 3103 1784 3103 
Q 1356 3103 1142 2972 
Q 928 2841 928 2578 
Q 928 2378 1081 2264 
Q 1234 2150 1697 2047 
L 1894 2003 
Q 2506 1872 2764 1633 
Q 3022 1394 3022 966 
Q 3022 478 2636 193 
Q 2250 -91 1575 -91 
Q 1294 -91 989 -36 
Q 684 19 347 128 
L 347 722 
Q 666 556 975 473 
Q 1284 391 1588 391 
Q 1994 391 2212 530 
Q 2431 669 2431 922 
Q 2431 1156 2273 1281 
Q 2116 1406 1581 1522 
L 1381 1569 
Q 847 1681 609 1914 
Q 372 2147 372 2553 
Q 372 3047 722 3315 
Q 1072 3584 1716 3584 
Q 2034 3584 2315 3537 
Q 2597 3491 2834 3397 
z
" transform="scale(0.015625)"/>
      <path id="DejaVuSans-70" d="M 1159 525 
L 1159 -1331 
L 581 -1331 
L 581 3500 
L 1159 3500 
L 1159 2969 
Q 1341 3281 1617 3432 
Q 1894 3584 2278 3584 
Q 2916 3584 3314 3078 
Q 3713 2572 3713 1747 
Q 3713 922 3314 415 
Q 2916 -91 2278 -91 
Q 1894 -91 1617 61 
Q 1341 213 1159 525 
z
M 3116 1747 
Q 3116 2381 2855 2742 
Q 2594 3103 2138 3103 
Q 1681 3103 1420 2742 
Q 1159 2381 1159 1747 
Q 1159 1113 1420 752 
Q 1681 391 2138 391 
Q 2594 391 2855 752 
Q 3116 1113 3116 1747 
z
" transform="scale(0.015625)"/>
      <path id="DejaVuSans-6c" d="M 603 4863 
L 1178 4863 
L 1178 0 
L 603 0 
L 603 4863 
z
" transform="scale(0.015625)"/>
      <path id="DejaVuSans-61" d="M 2194 1759 
Q 1497 1759 1228 1600 
Q 959 1441 959 1056 
Q 959 750 1161 570 
Q 1363 391 1709 391 
Q 2188 391 2477 730 
Q 2766 1069 2766 1631 
L 2766 1759 
L 2194 1759 
z
M 3341 1997 
L 3341 0 
L 2766 0 
L 2766 531 
Q 2569 213 2275 61 
Q 1981 -91 1556 -91 
Q 1019 -91 701 211 
Q 384 513 384 1019 
Q 384 1609 779 1909 
Q 1175 2209 1959 2209 
L 2766 2209 
L 2766 2266 
Q 2766 2663 2505 2880 
Q 2244 3097 1772 3097 
Q 1472 3097 1187 3025 
Q 903 2953 641 2809 
L 641 3341 
Q 956 3463 1253 3523 
Q 1550 3584 1831 3584 
Q 2591 3584 2966 3190 
Q 3341 2797 3341 1997 
z
" transform="scale(0.015625)"/>
      <path id="DejaVuSans-7a" d="M 353 3500 
L 3084 3500 
L 3084 2975 
L 922 459 
L 3084 459 
L 3084 0 
L 275 0 
L 275 525 
L 2438 3041 
L 353 3041 
L 353 3500 
z
" transform="scale(0.015625)"/>
      <path id="DejaVuSans-6d" d="M 3328 2828 
Q 3544 3216 3844 3400 
Q 4144 3584 4550 3584 
Q 5097 3584 5394 3201 
Q 5691 2819 5691 2113 
L 5691 0 
L 5113 0 
L 5113 2094 
Q 5113 2597 4934 2840 
Q 4756 3084 4391 3084 
Q 3944 3084 3684 2787 
Q 3425 2491 3425 1978 
L 3425 0 
L 2847 0 
L 2847 2094 
Q 2847 2600 2669 2842 
Q 2491 3084 2119 3084 
Q 1678 3084 1418 2786 
Q 1159 2488 1159 1978 
L 1159 0 
L 581 0 
L 581 3500 
L 1159 3500 
L 1159 2956 
Q 1356 3278 1631 3431 
Q 1906 3584 2284 3584 
Q 2666 3584 2933 3390 
Q 3200 3197 3328 2828 
z
" transform="scale(0.015625)"/>
      <path id="DejaVuSans-69" d="M 603 3500 
L 1178 3500 
L 1178 0 
L 603 0 
L 603 3500 
z
M 603 4863 
L 1178 4863 
L 1178 4134 
L 603 4134 
L 603 4863 
z
" transform="scale(0.015625)"/>
      <path id="DejaVuSans-6e" d="M 3513 2113 
L 3513 0 
L 2938 0 
L 2938 2094 
Q 2938 2591 2744 2837 
Q 2550 3084 2163 3084 
Q 1697 3084 1428 2787 
Q 1159 2491 1159 1978 
L 1159 0 
L 581 0 
L 581 3500 
L 1159 3500 
L 1159 2956 
Q 1366 3272 1645 3428 
Q 1925 3584 2291 3584 
Q 2894 3584 3203 3211 
Q 3513 2838 3513 2113 
z
" transform="scale(0.015625)"/>
      <path id="DejaVuSans-74" d="M 1172 4494 
L 1172 3500 
L 2356 3500 
L 2356 3053 
L 1172 3053 
L 1172 1153 
Q 1172 725 1289 603 
Q 1406 481 1766 481 
L 2356 481 
L 2356 0 
L 1766 0 
Q 1100 0 847 248 
Q 594 497 594 1153 
L 594 3053 
L 172 3053 
L 172 3500 
L 594 3500 
L 594 4494 
L 1172 4494 
z
" transform="scale(0.015625)"/>
      <path id="DejaVuSans-6f" d="M 1959 3097 
Q 1497 3097 1228 2736 
Q 959 2375 959 1747 
Q 959 1119 1226 758 
Q 1494 397 1959 397 
Q 2419 397 2687 759 
Q 2956 1122 2956 1747 
Q 2956 2369 2687 2733 
Q 2419 3097 1959 3097 
z
M 1959 3584 
Q 2709 3584 3137 3096 
Q 3566 2609 3566 1747 
Q 3566 888 3137 398 
Q 2709 -91 1959 -91 
Q 1206 -91 779 398 
Q 353 888 353 1747 
Q 353 2609 779 3096 
Q 1206 3584 1959 3584 
z
" transform="scale(0.015625)"/>
      <path id="DejaVuSans-2c" d="M 750 794 
L 1409 794 
L 1409 256 
L 897 -744 
L 494 -744 
L 750 256 
L 750 794 
z
" transform="scale(0.015625)"/>
      <path id="DejaVuSans-20" transform="scale(0.015625)"/>
      <path id="DejaVuSans-76" d="M 191 3500 
L 800 3500 
L 1894 563 
L 2988 3500 
L 3597 3500 
L 2284 0 
L 1503 0 
L 191 3500 
z
" transform="scale(0.015625)"/>
      <path id="DejaVuSans-63" d="M 3122 3366 
L 3122 2828 
Q 2878 2963 2633 3030 
Q 2388 3097 2138 3097 
Q 1578 3097 1268 2742 
Q 959 2388 959 1747 
Q 959 1106 1268 751 
Q 1578 397 2138 397 
Q 2388 397 2633 464 
Q 2878 531 3122 666 
L 3122 134 
Q 2881 22 2623 -34 
Q 2366 -91 2075 -91 
Q 1284 -91 818 406 
Q 353 903 353 1747 
Q 353 2603 823 3093 
Q 1294 3584 2113 3584 
Q 2378 3584 2631 3529 
Q 2884 3475 3122 3366 
z
" transform="scale(0.015625)"/>
     </defs>
     <use xlink:href="#DejaVuSans-64"/>
     <use xlink:href="#DejaVuSans-65" transform="translate(63.476562 0)"/>
     <use xlink:href="#DejaVuSans-73" transform="translate(125 0)"/>
     <use xlink:href="#DejaVuSans-70" transform="translate(177.099609 0)"/>
     <use xlink:href="#DejaVuSans-6c" transform="translate(240.576172 0)"/>
     <use xlink:href="#DejaVuSans-61" transform="translate(268.359375 0)"/>
     <use xlink:href="#DejaVuSans-7a" transform="translate(329.638672 0)"/>
     <use xlink:href="#DejaVuSans-61" transform="translate(382.128906 0)"/>
     <use xlink:href="#DejaVuSans-6d" transform="translate(443.408203 0)"/>
     <use xlink:href="#DejaVuSans-69" transform="translate(540.820312 0)"/>
     <use xlink:href="#DejaVuSans-65" transform="translate(568.603516 0)"/>
     <use xlink:href="#DejaVuSans-6e" transform="translate(630.126953 0)"/>
     <use xlink:href="#DejaVuSans-74" transform="translate(693.505859 0)"/>
     <use xlink:href="#DejaVuSans-6f" transform="translate(732.714844 0)"/>
     <use xlink:href="#DejaVuSans-2c" transform="translate(793.896484 0)"/>
     <use xlink:href="#DejaVuSans-20" transform="translate(825.683594 0)"/>
     <use xlink:href="#DejaVuSans-76" transform="translate(857.470703 0)"/>
     <use xlink:href="#DejaVuSans-65" transform="translate(916.650391 0)"/>
     <use xlink:href="#DejaVuSans-6c" transform="translate(978.173828 0)"/>
     <use xlink:href="#DejaVuSans-6f" transform="translate(1005.957031 0)"/>
     <use xlink:href="#DejaVuSans-63" transform="translate(1067.138672 0)"/>
     <use xlink:href="#DejaVuSans-69" transform="translate(1122.119141 0)"/>
     <use xlink:href="#DejaVuSans-64" transform="translate(1149.902344 0)"/>
     <use xlink:href="#DejaVuSans-61" transform="translate(1213.378906 0)"/>
     <use xlink:href="#DejaVuSans-64" transform="translate(1274.658203 0)"/>
     <use xlink:href="#DejaVuSans-2c" transform="translate(1338.134766 0)"/>
    </g>
    <!-- altura de agua, rotación -->
    <g style="fill: #687385" transform="translate(50.690042 151.635304) scale(0.085 -0.085)">
     <defs>
      <path id="DejaVuSans-75" d="M 544 1381 
L 544 3500 
L 1119 3500 
L 1119 1403 
Q 1119 906 1312 657 
Q 1506 409 1894 409 
Q 2359 409 2629 706 
Q 2900 1003 2900 1516 
L 2900 3500 
L 3475 3500 
L 3475 0 
L 2900 0 
L 2900 538 
Q 2691 219 2414 64 
Q 2138 -91 1772 -91 
Q 1169 -91 856 284 
Q 544 659 544 1381 
z
M 1991 3584 
L 1991 3584 
z
" transform="scale(0.015625)"/>
      <path id="DejaVuSans-72" d="M 2631 2963 
Q 2534 3019 2420 3045 
Q 2306 3072 2169 3072 
Q 1681 3072 1420 2755 
Q 1159 2438 1159 1844 
L 1159 0 
L 581 0 
L 581 3500 
L 1159 3500 
L 1159 2956 
Q 1341 3275 1631 3429 
Q 1922 3584 2338 3584 
Q 2397 3584 2469 3576 
Q 2541 3569 2628 3553 
L 2631 2963 
z
" transform="scale(0.015625)"/>
      <path id="DejaVuSans-67" d="M 2906 1791 
Q 2906 2416 2648 2759 
Q 2391 3103 1925 3103 
Q 1463 3103 1205 2759 
Q 947 2416 947 1791 
Q 947 1169 1205 825 
Q 1463 481 1925 481 
Q 2391 481 2648 825 
Q 2906 1169 2906 1791 
z
M 3481 434 
Q 3481 -459 3084 -895 
Q 2688 -1331 1869 -1331 
Q 1566 -1331 1297 -1286 
Q 1028 -1241 775 -1147 
L 775 -588 
Q 1028 -725 1275 -790 
Q 1522 -856 1778 -856 
Q 2344 -856 2625 -561 
Q 2906 -266 2906 331 
L 2906 616 
Q 2728 306 2450 153 
Q 2172 0 1784 0 
Q 1141 0 747 490 
Q 353 981 353 1791 
Q 353 2603 747 3093 
Q 1141 3584 1784 3584 
Q 2172 3584 2450 3431 
Q 2728 3278 2906 2969 
L 2906 3500 
L 3481 3500 
L 3481 434 
z
" transform="scale(0.015625)"/>
      <path id="DejaVuSans-f3" d="M 1959 3097 
Q 1497 3097 1228 2736 
Q 959 2375 959 1747 
Q 959 1119 1226 758 
Q 1494 397 1959 397 
Q 2419 397 2687 759 
Q 2956 1122 2956 1747 
Q 2956 2369 2687 2733 
Q 2419 3097 1959 3097 
z
M 1959 3584 
Q 2709 3584 3137 3096 
Q 3566 2609 3566 1747 
Q 3566 888 3137 398 
Q 2709 -91 1959 -91 
Q 1206 -91 779 398 
Q 353 888 353 1747 
Q 353 2609 779 3096 
Q 1206 3584 1959 3584 
z
M 2394 5119 
L 3016 5119 
L 1998 3944 
L 1519 3944 
L 2394 5119 
z
" transform="scale(0.015625)"/>
     </defs>
     <use xlink:href="#DejaVuSans-61"/>
     <use xlink:href="#DejaVuSans-6c" transform="translate(61.279297 0)"/>
     <use xlink:href="#DejaVuSans-74" transform="translate(89.0625 0)"/>
     <use xlink:href="#DejaVuSans-75" transform="translate(128.271484 0)"/>
     <use xlink:href="#DejaVuSans-72" transform="translate(191.650391 0)"/>
     <use xlink:href="#DejaVuSans-61" transform="translate(232.763672 0)"/>
     <use xlink:href="#DejaVuSans-20" transform="translate(294.042969 0)"/>
     <use xlink:href="#DejaVuSans-64" transform="translate(325.830078 0)"/>
     <use xlink:href="#DejaVuSans-65" transform="translate(389.306641 0)"/>
     <use xlink:href="#DejaVuSans-20" transform="translate(450.830078 0)"/>
     <use xlink:href="#DejaVuSans-61" transform="translate(482.617188 0)"/>
     <use xlink:href="#DejaVuSans-67" transform="translate(543.896484 0)"/>
     <use xlink:href="#DejaVuSans-75" transform="translate(607.373047 0)"/>
     <use xlink:href="#DejaVuSans-61" transform="translate(670.751953 0)"/>
     <use xlink:href="#DejaVuSans-2c" transform="translate(732.03125 0)"/>
     <use xlink:href="#DejaVuSans-20" transform="translate(763.818359 0)"/>
     <use xlink:href="#DejaVuSans-72" transform="translate(795.605469 0)"/>
     <use xlink:href="#DejaVuSans-6f" transform="translate(834.46875 0)"/>
     <use xlink:href="#DejaVuSans-74" transform="translate(895.650391 0)"/>
     <use xlink:href="#DejaVuSans-61" transform="translate(934.859375 0)"/>
     <use xlink:href="#DejaVuSans-63" transform="translate(996.138672 0)"/>
     <use xlink:href="#DejaVuSans-69" transform="translate(1051.119141 0)"/>
     <use xlink:href="#DejaVuSans-f3" transform="translate(1078.902344 0)"/>
     <use xlink:href="#DejaVuSans-6e" transform="translate(1140.083984 0)"/>
    </g>
   </g>
   <g id="text_3">
    <g id="patch_3">
     <path d="M 256.119531 101.318051 
L 349.760469 101.318051 
Q 355.810469 101.318051 355.810469 95.268051 
L 355.810469 72.304519 
Q 355.810469 66.254519 349.760469 66.254519 
L 256.119531 66.254519 
Q 250.069531 66.254519 250.069531 72.304519 
L 250.069531 95.268051 
Q 250.069531 101.318051 256.119531 101.318051 
z
" style="fill: #ffffff; stroke: #cfd8e3; stroke-width: 1.1; stroke-linejoin: miter"/>
    </g>
    <!-- 2. Selección de -->
    <g style="fill: #17202a" transform="translate(256.119531 80.662801) scale(0.11 -0.11)">
     <defs>
      <path id="DejaVuSans-Bold-32" d="M 1844 884 
L 3897 884 
L 3897 0 
L 506 0 
L 506 884 
L 2209 2388 
Q 2438 2594 2547 2791 
Q 2656 2988 2656 3200 
Q 2656 3528 2436 3728 
Q 2216 3928 1850 3928 
Q 1569 3928 1234 3808 
Q 900 3688 519 3450 
L 519 4475 
Q 925 4609 1322 4679 
Q 1719 4750 2100 4750 
Q 2938 4750 3402 4381 
Q 3866 4013 3866 3353 
Q 3866 2972 3669 2642 
Q 3472 2313 2841 1759 
L 1844 884 
z
" transform="scale(0.015625)"/>
      <path id="DejaVuSans-Bold-53" d="M 3834 4519 
L 3834 3531 
Q 3450 3703 3084 3790 
Q 2719 3878 2394 3878 
Q 1963 3878 1756 3759 
Q 1550 3641 1550 3391 
Q 1550 3203 1689 3098 
Q 1828 2994 2194 2919 
L 2706 2816 
Q 3484 2659 3812 2340 
Q 4141 2022 4141 1434 
Q 4141 663 3683 286 
Q 3225 -91 2284 -91 
Q 1841 -91 1394 -6 
Q 947 78 500 244 
L 500 1259 
Q 947 1022 1364 901 
Q 1781 781 2169 781 
Q 2563 781 2772 912 
Q 2981 1044 2981 1288 
Q 2981 1506 2839 1625 
Q 2697 1744 2272 1838 
L 1806 1941 
Q 1106 2091 782 2419 
Q 459 2747 459 3303 
Q 459 4000 909 4375 
Q 1359 4750 2203 4750 
Q 2588 4750 2994 4692 
Q 3400 4634 3834 4519 
z
" transform="scale(0.015625)"/>
      <path id="DejaVuSans-Bold-f3" d="M 2203 2784 
Q 1831 2784 1636 2517 
Q 1441 2250 1441 1747 
Q 1441 1244 1636 976 
Q 1831 709 2203 709 
Q 2569 709 2762 976 
Q 2956 1244 2956 1747 
Q 2956 2250 2762 2517 
Q 2569 2784 2203 2784 
z
M 2203 3584 
Q 3106 3584 3614 3096 
Q 4122 2609 4122 1747 
Q 4122 884 3614 396 
Q 3106 -91 2203 -91 
Q 1297 -91 786 396 
Q 275 884 275 1747 
Q 275 2609 786 3096 
Q 1297 3584 2203 3584 
z
M 2694 5119 
L 3578 5119 
L 2425 3944 
L 1813 3944 
L 2694 5119 
z
" transform="scale(0.015625)"/>
     </defs>
     <use xlink:href="#DejaVuSans-Bold-32"/>
     <use xlink:href="#DejaVuSans-Bold-2e" transform="translate(69.580078 0)"/>
     <use xlink:href="#DejaVuSans-Bold-20" transform="translate(107.568359 0)"/>
     <use xlink:href="#DejaVuSans-Bold-53" transform="translate(142.382812 0)"/>
     <use xlink:href="#DejaVuSans-Bold-65" transform="translate(214.404297 0)"/>
     <use xlink:href="#DejaVuSans-Bold-6c" transform="translate(282.226562 0)"/>
     <use xlink:href="#DejaVuSans-Bold-65" transform="translate(316.503906 0)"/>
     <use xlink:href="#DejaVuSans-Bold-63" transform="translate(384.326172 0)"/>
     <use xlink:href="#DejaVuSans-Bold-63" transform="translate(443.603516 0)"/>
     <use xlink:href="#DejaVuSans-Bold-69" transform="translate(502.880859 0)"/>
     <use xlink:href="#DejaVuSans-Bold-f3" transform="translate(537.158203 0)"/>
     <use xlink:href="#DejaVuSans-Bold-6e" transform="translate(605.859375 0)"/>
     <use xlink:href="#DejaVuSans-Bold-20" transform="translate(677.050781 0)"/>
     <use xlink:href="#DejaVuSans-Bold-64" transform="translate(711.865234 0)"/>
     <use xlink:href="#DejaVuSans-Bold-65" transform="translate(783.447266 0)"/>
    </g>
    <!-- resolución SPH -->
    <g style="fill: #17202a" transform="translate(256.294844 92.980394) scale(0.11 -0.11)">
     <defs>
      <path id="DejaVuSans-Bold-50" d="M 588 4666 
L 2584 4666 
Q 3475 4666 3951 4270 
Q 4428 3875 4428 3144 
Q 4428 2409 3951 2014 
Q 3475 1619 2584 1619 
L 1791 1619 
L 1791 0 
L 588 0 
L 588 4666 
z
M 1791 3794 
L 1791 2491 
L 2456 2491 
Q 2806 2491 2997 2661 
Q 3188 2831 3188 3144 
Q 3188 3456 2997 3625 
Q 2806 3794 2456 3794 
L 1791 3794 
z
" transform="scale(0.015625)"/>
      <path id="DejaVuSans-Bold-48" d="M 588 4666 
L 1791 4666 
L 1791 2888 
L 3566 2888 
L 3566 4666 
L 4769 4666 
L 4769 0 
L 3566 0 
L 3566 1978 
L 1791 1978 
L 1791 0 
L 588 0 
L 588 4666 
z
" transform="scale(0.015625)"/>
     </defs>
     <use xlink:href="#DejaVuSans-Bold-72"/>
     <use xlink:href="#DejaVuSans-Bold-65" transform="translate(49.316406 0)"/>
     <use xlink:href="#DejaVuSans-Bold-73" transform="translate(117.138672 0)"/>
     <use xlink:href="#DejaVuSans-Bold-6f" transform="translate(176.660156 0)"/>
     <use xlink:href="#DejaVuSans-Bold-6c" transform="translate(245.361328 0)"/>
     <use xlink:href="#DejaVuSans-Bold-75" transform="translate(279.638672 0)"/>
     <use xlink:href="#DejaVuSans-Bold-63" transform="translate(350.830078 0)"/>
     <use xlink:href="#DejaVuSans-Bold-69" transform="translate(410.107422 0)"/>
     <use xlink:href="#DejaVuSans-Bold-f3" transform="translate(444.384766 0)"/>
     <use xlink:href="#DejaVuSans-Bold-6e" transform="translate(513.085938 0)"/>
     <use xlink:href="#DejaVuSans-Bold-20" transform="translate(584.277344 0)"/>
     <use xlink:href="#DejaVuSans-Bold-53" transform="translate(619.091797 0)"/>
     <use xlink:href="#DejaVuSans-Bold-50" transform="translate(691.113281 0)"/>
     <use xlink:href="#DejaVuSans-Bold-48" transform="translate(764.404297 0)"/>
    </g>
   </g>
   <g id="text_4">
    <!-- balance entre similitud de -->
    <g style="fill: #687385" transform="translate(247.466211 141.913163) scale(0.085 -0.085)">
     <defs>
      <path id="DejaVuSans-62" d="M 3116 1747 
Q 3116 2381 2855 2742 
Q 2594 3103 2138 3103 
Q 1681 3103 1420 2742 
Q 1159 2381 1159 1747 
Q 1159 1113 1420 752 
Q 1681 391 2138 391 
Q 2594 391 2855 752 
Q 3116 1113 3116 1747 
z
M 1159 2969 
Q 1341 3281 1617 3432 
Q 1894 3584 2278 3584 
Q 2916 3584 3314 3078 
Q 3713 2572 3713 1747 
Q 3713 922 3314 415 
Q 2916 -91 2278 -91 
Q 1894 -91 1617 61 
Q 1341 213 1159 525 
L 1159 0 
L 581 0 
L 581 4863 
L 1159 4863 
L 1159 2969 
z
" transform="scale(0.015625)"/>
     </defs>
     <use xlink:href="#DejaVuSans-62"/>
     <use xlink:href="#DejaVuSans-61" transform="translate(63.476562 0)"/>
     <use xlink:href="#DejaVuSans-6c" transform="translate(124.755859 0)"/>
     <use xlink:href="#DejaVuSans-61" transform="translate(152.539062 0)"/>
     <use xlink:href="#DejaVuSans-6e" transform="translate(213.818359 0)"/>
     <use xlink:href="#DejaVuSans-63" transform="translate(277.197266 0)"/>
     <use xlink:href="#DejaVuSans-65" transform="translate(332.177734 0)"/>
     <use xlink:href="#DejaVuSans-20" transform="translate(393.701172 0)"/>
     <use xlink:href="#DejaVuSans-65" transform="translate(425.488281 0)"/>
     <use xlink:href="#DejaVuSans-6e" transform="translate(487.011719 0)"/>
     <use xlink:href="#DejaVuSans-74" transform="translate(550.390625 0)"/>
     <use xlink:href="#DejaVuSans-72" transform="translate(589.599609 0)"/>
     <use xlink:href="#DejaVuSans-65" transform="translate(628.462891 0)"/>
     <use xlink:href="#DejaVuSans-20" transform="translate(689.986328 0)"/>
     <use xlink:href="#DejaVuSans-73" transform="translate(721.773438 0)"/>
     <use xlink:href="#DejaVuSans-69" transform="translate(773.873047 0)"/>
     <use xlink:href="#DejaVuSans-6d" transform="translate(801.65625 0)"/>
     <use xlink:href="#DejaVuSans-69" transform="translate(899.068359 0)"/>
     <use xlink:href="#DejaVuSans-6c" transform="translate(926.851562 0)"/>
     <use xlink:href="#DejaVuSans-69" transform="translate(954.634766 0)"/>
     <use xlink:href="#DejaVuSans-74" transform="translate(982.417969 0)"/>
     <use xlink:href="#DejaVuSans-75" transform="translate(1021.626953 0)"/>
     <use xlink:href="#DejaVuSans-64" transform="translate(1085.005859 0)"/>
     <use xlink:href="#DejaVuSans-20" transform="translate(1148.482422 0)"/>
     <use xlink:href="#DejaVuSans-64" transform="translate(1180.269531 0)"/>
     <use xlink:href="#DejaVuSans-65" transform="translate(1243.746094 0)"/>
    </g>
    <!-- respuesta y costo -->
    <g style="fill: #687385" transform="translate(265.333477 151.431304) scale(0.085 -0.085)">
     <defs>
      <path id="DejaVuSans-79" d="M 2059 -325 
Q 1816 -950 1584 -1140 
Q 1353 -1331 966 -1331 
L 506 -1331 
L 506 -850 
L 844 -850 
Q 1081 -850 1212 -737 
Q 1344 -625 1503 -206 
L 1606 56 
L 191 3500 
L 800 3500 
L 1894 763 
L 2988 3500 
L 3597 3500 
L 2059 -325 
z
" transform="scale(0.015625)"/>
     </defs>
     <use xlink:href="#DejaVuSans-72"/>
     <use xlink:href="#DejaVuSans-65" transform="translate(38.863281 0)"/>
     <use xlink:href="#DejaVuSans-73" transform="translate(100.386719 0)"/>
     <use xlink:href="#DejaVuSans-70" transform="translate(152.486328 0)"/>
     <use xlink:href="#DejaVuSans-75" transform="translate(215.962891 0)"/>
     <use xlink:href="#DejaVuSans-65" transform="translate(279.341797 0)"/>
     <use xlink:href="#DejaVuSans-73" transform="translate(340.865234 0)"/>
     <use xlink:href="#DejaVuSans-74" transform="translate(392.964844 0)"/>
     <use xlink:href="#DejaVuSans-61" transform="translate(432.173828 0)"/>
     <use xlink:href="#DejaVuSans-20" transform="translate(493.453125 0)"/>
     <use xlink:href="#DejaVuSans-79" transform="translate(525.240234 0)"/>
     <use xlink:href="#DejaVuSans-20" transform="translate(584.419922 0)"/>
     <use xlink:href="#DejaVuSans-63" transform="translate(616.207031 0)"/>
     <use xlink:href="#DejaVuSans-6f" transform="translate(671.1875 0)"/>
     <use xlink:href="#DejaVuSans-73" transform="translate(732.369141 0)"/>
     <use xlink:href="#DejaVuSans-74" transform="translate(784.46875 0)"/>
     <use xlink:href="#DejaVuSans-6f" transform="translate(823.677734 0)"/>
    </g>
   </g>
   <g id="text_5">
    <g id="patch_4">
     <path d="M 431.885778 101.538051 
L 576.200622 101.538051 
Q 582.250622 101.538051 582.250622 95.488051 
L 582.250622 72.084519 
Q 582.250622 66.034519 576.200622 66.034519 
L 431.885778 66.034519 
Q 425.835778 66.034519 425.835778 72.084519 
L 425.835778 95.488051 
Q 425.835778 101.538051 431.885778 101.538051 
z
" style="fill: #ffffff; stroke: #cfd8e3; stroke-width: 1.1; stroke-linejoin: miter"/>
    </g>
    <!-- 3. Aplicación posterior: -->
    <g style="fill: #17202a" transform="translate(431.885778 80.882801) scale(0.11 -0.11)">
     <defs>
      <path id="DejaVuSans-Bold-33" d="M 2981 2516 
Q 3453 2394 3698 2092 
Q 3944 1791 3944 1325 
Q 3944 631 3412 270 
Q 2881 -91 1863 -91 
Q 1503 -91 1142 -33 
Q 781 25 428 141 
L 428 1069 
Q 766 900 1098 814 
Q 1431 728 1753 728 
Q 2231 728 2486 893 
Q 2741 1059 2741 1369 
Q 2741 1688 2480 1852 
Q 2219 2016 1709 2016 
L 1228 2016 
L 1228 2791 
L 1734 2791 
Q 2188 2791 2409 2933 
Q 2631 3075 2631 3366 
Q 2631 3634 2415 3781 
Q 2200 3928 1806 3928 
Q 1516 3928 1219 3862 
Q 922 3797 628 3669 
L 628 4550 
Q 984 4650 1334 4700 
Q 1684 4750 2022 4750 
Q 2931 4750 3382 4451 
Q 3834 4153 3834 3553 
Q 3834 3144 3618 2883 
Q 3403 2622 2981 2516 
z
" transform="scale(0.015625)"/>
      <path id="DejaVuSans-Bold-41" d="M 3419 850 
L 1538 850 
L 1241 0 
L 31 0 
L 1759 4666 
L 3194 4666 
L 4922 0 
L 3713 0 
L 3419 850 
z
M 1838 1716 
L 3116 1716 
L 2478 3572 
L 1838 1716 
z
" transform="scale(0.015625)"/>
      <path id="DejaVuSans-Bold-70" d="M 1656 506 
L 1656 -1331 
L 538 -1331 
L 538 3500 
L 1656 3500 
L 1656 2988 
Q 1888 3294 2169 3439 
Q 2450 3584 2816 3584 
Q 3463 3584 3878 3070 
Q 4294 2556 4294 1747 
Q 4294 938 3878 423 
Q 3463 -91 2816 -91 
Q 2450 -91 2169 54 
Q 1888 200 1656 506 
z
M 2400 2772 
Q 2041 2772 1848 2508 
Q 1656 2244 1656 1747 
Q 1656 1250 1848 986 
Q 2041 722 2400 722 
Q 2759 722 2948 984 
Q 3138 1247 3138 1747 
Q 3138 2247 2948 2509 
Q 2759 2772 2400 2772 
z
" transform="scale(0.015625)"/>
      <path id="DejaVuSans-Bold-3a" d="M 716 3500 
L 1844 3500 
L 1844 2291 
L 716 2291 
L 716 3500 
z
M 716 1209 
L 1844 1209 
L 1844 0 
L 716 0 
L 716 1209 
z
" transform="scale(0.015625)"/>
     </defs>
     <use xlink:href="#DejaVuSans-Bold-33"/>
     <use xlink:href="#DejaVuSans-Bold-2e" transform="translate(69.580078 0)"/>
     <use xlink:href="#DejaVuSans-Bold-20" transform="translate(107.568359 0)"/>
     <use xlink:href="#DejaVuSans-Bold-41" transform="translate(142.382812 0)"/>
     <use xlink:href="#DejaVuSans-Bold-70" transform="translate(219.775391 0)"/>
     <use xlink:href="#DejaVuSans-Bold-6c" transform="translate(291.357422 0)"/>
     <use xlink:href="#DejaVuSans-Bold-69" transform="translate(325.634766 0)"/>
     <use xlink:href="#DejaVuSans-Bold-63" transform="translate(359.912109 0)"/>
     <use xlink:href="#DejaVuSans-Bold-61" transform="translate(419.189453 0)"/>
     <use xlink:href="#DejaVuSans-Bold-63" transform="translate(486.669922 0)"/>
     <use xlink:href="#DejaVuSans-Bold-69" transform="translate(545.947266 0)"/>
     <use xlink:href="#DejaVuSans-Bold-f3" transform="translate(580.224609 0)"/>
     <use xlink:href="#DejaVuSans-Bold-6e" transform="translate(648.925781 0)"/>
     <use xlink:href="#DejaVuSans-Bold-20" transform="translate(720.117188 0)"/>
     <use xlink:href="#DejaVuSans-Bold-70" transform="translate(754.931641 0)"/>
     <use xlink:href="#DejaVuSans-Bold-6f" transform="translate(826.513672 0)"/>
     <use xlink:href="#DejaVuSans-Bold-73" transform="translate(895.214844 0)"/>
     <use xlink:href="#DejaVuSans-Bold-74" transform="translate(954.736328 0)"/>
     <use xlink:href="#DejaVuSans-Bold-65" transform="translate(1002.539062 0)"/>
     <use xlink:href="#DejaVuSans-Bold-72" transform="translate(1070.361328 0)"/>
     <use xlink:href="#DejaVuSans-Bold-69" transform="translate(1119.677734 0)"/>
     <use xlink:href="#DejaVuSans-Bold-6f" transform="translate(1153.955078 0)"/>
     <use xlink:href="#DejaVuSans-Bold-72" transform="translate(1222.65625 0)"/>
     <use xlink:href="#DejaVuSans-Bold-3a" transform="translate(1271.972656 0)"/>
    </g>
    <!-- estabilidad -->
    <g style="fill: #17202a" transform="translate(469.520388 93.200394) scale(0.11 -0.11)">
     <use xlink:href="#DejaVuSans-Bold-65"/>
     <use xlink:href="#DejaVuSans-Bold-73" transform="translate(67.822266 0)"/>
     <use xlink:href="#DejaVuSans-Bold-74" transform="translate(127.34375 0)"/>
     <use xlink:href="#DejaVuSans-Bold-61" transform="translate(175.146484 0)"/>
     <use xlink:href="#DejaVuSans-Bold-62" transform="translate(242.626953 0)"/>
     <use xlink:href="#DejaVuSans-Bold-69" transform="translate(314.208984 0)"/>
     <use xlink:href="#DejaVuSans-Bold-6c" transform="translate(348.486328 0)"/>
     <use xlink:href="#DejaVuSans-Bold-69" transform="translate(382.763672 0)"/>
     <use xlink:href="#DejaVuSans-Bold-64" transform="translate(417.041016 0)"/>
     <use xlink:href="#DejaVuSans-Bold-61" transform="translate(488.623047 0)"/>
     <use xlink:href="#DejaVuSans-Bold-64" transform="translate(556.103516 0)"/>
    </g>
   </g>
   <g id="text_6">
    <!-- frontera estable/fallo -->
    <g style="fill: #687385" transform="translate(459.530427 141.913163) scale(0.085 -0.085)">
     <defs>
      <path id="DejaVuSans-66" d="M 2375 4863 
L 2375 4384 
L 1825 4384 
Q 1516 4384 1395 4259 
Q 1275 4134 1275 3809 
L 1275 3500 
L 2222 3500 
L 2222 3053 
L 1275 3053 
L 1275 0 
L 697 0 
L 697 3053 
L 147 3053 
L 147 3500 
L 697 3500 
L 697 3744 
Q 697 4328 969 4595 
Q 1241 4863 1831 4863 
L 2375 4863 
z
" transform="scale(0.015625)"/>
      <path id="DejaVuSans-2f" d="M 1625 4666 
L 2156 4666 
L 531 -594 
L 0 -594 
L 1625 4666 
z
" transform="scale(0.015625)"/>
     </defs>
     <use xlink:href="#DejaVuSans-66"/>
     <use xlink:href="#DejaVuSans-72" transform="translate(35.205078 0)"/>
     <use xlink:href="#DejaVuSans-6f" transform="translate(74.068359 0)"/>
     <use xlink:href="#DejaVuSans-6e" transform="translate(135.25 0)"/>
     <use xlink:href="#DejaVuSans-74" transform="translate(198.628906 0)"/>
     <use xlink:href="#DejaVuSans-65" transform="translate(237.837891 0)"/>
     <use xlink:href="#DejaVuSans-72" transform="translate(299.361328 0)"/>
     <use xlink:href="#DejaVuSans-61" transform="translate(340.474609 0)"/>
     <use xlink:href="#DejaVuSans-20" transform="translate(401.753906 0)"/>
     <use xlink:href="#DejaVuSans-65" transform="translate(433.541016 0)"/>
     <use xlink:href="#DejaVuSans-73" transform="translate(495.064453 0)"/>
     <use xlink:href="#DejaVuSans-74" transform="translate(547.164062 0)"/>
     <use xlink:href="#DejaVuSans-61" transform="translate(586.373047 0)"/>
     <use xlink:href="#DejaVuSans-62" transform="translate(647.652344 0)"/>
     <use xlink:href="#DejaVuSans-6c" transform="translate(711.128906 0)"/>
     <use xlink:href="#DejaVuSans-65" transform="translate(738.912109 0)"/>
     <use xlink:href="#DejaVuSans-2f" transform="translate(800.435547 0)"/>
     <use xlink:href="#DejaVuSans-66" transform="translate(834.126953 0)"/>
     <use xlink:href="#DejaVuSans-61" transform="translate(869.332031 0)"/>
     <use xlink:href="#DejaVuSans-6c" transform="translate(930.611328 0)"/>
     <use xlink:href="#DejaVuSans-6c" transform="translate(958.394531 0)"/>
     <use xlink:href="#DejaVuSans-6f" transform="translate(986.177734 0)"/>
    </g>
    <!-- con dp adoptado -->
    <g style="fill: #687385" transform="translate(468.144645 151.431304) scale(0.085 -0.085)">
     <use xlink:href="#DejaVuSans-63"/>
     <use xlink:href="#DejaVuSans-6f" transform="translate(54.980469 0)"/>
     <use xlink:href="#DejaVuSans-6e" transform="translate(116.162109 0)"/>
     <use xlink:href="#DejaVuSans-20" transform="translate(179.541016 0)"/>
     <use xlink:href="#DejaVuSans-64" transform="translate(211.328125 0)"/>
     <use xlink:href="#DejaVuSans-70" transform="translate(274.804688 0)"/>
     <use xlink:href="#DejaVuSans-20" transform="translate(338.28125 0)"/>
     <use xlink:href="#DejaVuSans-61" transform="translate(370.068359 0)"/>
     <use xlink:href="#DejaVuSans-64" transform="translate(431.347656 0)"/>
     <use xlink:href="#DejaVuSans-6f" transform="translate(494.824219 0)"/>
     <use xlink:href="#DejaVuSans-70" transform="translate(556.005859 0)"/>
     <use xlink:href="#DejaVuSans-74" transform="translate(619.482422 0)"/>
     <use xlink:href="#DejaVuSans-61" transform="translate(658.691406 0)"/>
     <use xlink:href="#DejaVuSans-64" transform="translate(719.970703 0)"/>
     <use xlink:href="#DejaVuSans-6f" transform="translate(783.447266 0)"/>
    </g>
   </g>
   <g id="patch_5">
    <path d="M 178.7292 83.786285 
Q 202.3884 83.786285 224.538254 83.786285 
" style="fill: none; stroke: #2b6f9f; stroke-width: 1.35; stroke-linecap: round"/>
    <path d="M 220.538254 81.786285 
L 224.538254 83.786285 
L 220.538254 85.786285 
" style="fill: none; stroke: #2b6f9f; stroke-width: 1.35; stroke-linecap: round"/>
   </g>
   <g id="patch_6">
    <path d="M 368.0028 83.786285 
Q 397.5768 83.786285 425.641454 83.786285 
" style="fill: none; stroke: #2b6f9f; stroke-width: 1.35; stroke-linecap: round"/>
    <path d="M 421.641454 81.786285 
L 425.641454 83.786285 
L 421.641454 85.786285 
" style="fill: none; stroke: #2b6f9f; stroke-width: 1.35; stroke-linecap: round"/>
   </g>
   <g id="text_7">
    <!-- Orden metodológico usado en la lectura final -->
    <g transform="translate(150.144375 16.798125) scale(0.12 -0.12)">
     <defs>
      <path id="DejaVuSans-Bold-4f" d="M 2719 3878 
Q 2169 3878 1866 3472 
Q 1563 3066 1563 2328 
Q 1563 1594 1866 1187 
Q 2169 781 2719 781 
Q 3272 781 3575 1187 
Q 3878 1594 3878 2328 
Q 3878 3066 3575 3472 
Q 3272 3878 2719 3878 
z
M 2719 4750 
Q 3844 4750 4481 4106 
Q 5119 3463 5119 2328 
Q 5119 1197 4481 553 
Q 3844 -91 2719 -91 
Q 1597 -91 958 553 
Q 319 1197 319 2328 
Q 319 3463 958 4106 
Q 1597 4750 2719 4750 
z
" transform="scale(0.015625)"/>
      <path id="DejaVuSans-Bold-6d" d="M 3781 2919 
Q 3994 3244 4286 3414 
Q 4578 3584 4928 3584 
Q 5531 3584 5847 3212 
Q 6163 2841 6163 2131 
L 6163 0 
L 5038 0 
L 5038 1825 
Q 5041 1866 5042 1909 
Q 5044 1953 5044 2034 
Q 5044 2406 4934 2573 
Q 4825 2741 4581 2741 
Q 4263 2741 4089 2478 
Q 3916 2216 3909 1719 
L 3909 0 
L 2784 0 
L 2784 1825 
Q 2784 2406 2684 2573 
Q 2584 2741 2328 2741 
Q 2006 2741 1831 2477 
Q 1656 2213 1656 1722 
L 1656 0 
L 531 0 
L 531 3500 
L 1656 3500 
L 1656 2988 
Q 1863 3284 2130 3434 
Q 2397 3584 2719 3584 
Q 3081 3584 3359 3409 
Q 3638 3234 3781 2919 
z
" transform="scale(0.015625)"/>
      <path id="DejaVuSans-Bold-66" d="M 2841 4863 
L 2841 4128 
L 2222 4128 
Q 1984 4128 1890 4042 
Q 1797 3956 1797 3744 
L 1797 3500 
L 2753 3500 
L 2753 2700 
L 1797 2700 
L 1797 0 
L 678 0 
L 678 2700 
L 122 2700 
L 122 3500 
L 678 3500 
L 678 3744 
Q 678 4316 997 4589 
Q 1316 4863 1984 4863 
L 2841 4863 
z
" transform="scale(0.015625)"/>
     </defs>
     <use xlink:href="#DejaVuSans-Bold-4f"/>
     <use xlink:href="#DejaVuSans-Bold-72" transform="translate(85.009766 0)"/>
     <use xlink:href="#DejaVuSans-Bold-64" transform="translate(134.326172 0)"/>
     <use xlink:href="#DejaVuSans-Bold-65" transform="translate(205.908203 0)"/>
     <use xlink:href="#DejaVuSans-Bold-6e" transform="translate(273.730469 0)"/>
     <use xlink:href="#DejaVuSans-Bold-20" transform="translate(344.921875 0)"/>
     <use xlink:href="#DejaVuSans-Bold-6d" transform="translate(379.736328 0)"/>
     <use xlink:href="#DejaVuSans-Bold-65" transform="translate(483.935547 0)"/>
     <use xlink:href="#DejaVuSans-Bold-74" transform="translate(551.757812 0)"/>
     <use xlink:href="#DejaVuSans-Bold-6f" transform="translate(599.560547 0)"/>
     <use xlink:href="#DejaVuSans-Bold-64" transform="translate(668.261719 0)"/>
     <use xlink:href="#DejaVuSans-Bold-6f" transform="translate(739.84375 0)"/>
     <use xlink:href="#DejaVuSans-Bold-6c" transform="translate(808.544922 0)"/>
     <use xlink:href="#DejaVuSans-Bold-f3" transform="translate(842.822266 0)"/>
     <use xlink:href="#DejaVuSans-Bold-67" transform="translate(911.523438 0)"/>
     <use xlink:href="#DejaVuSans-Bold-69" transform="translate(983.105469 0)"/>
     <use xlink:href="#DejaVuSans-Bold-63" transform="translate(1017.382812 0)"/>
     <use xlink:href="#DejaVuSans-Bold-6f" transform="translate(1076.660156 0)"/>
     <use xlink:href="#DejaVuSans-Bold-20" transform="translate(1145.361328 0)"/>
     <use xlink:href="#DejaVuSans-Bold-75" transform="translate(1180.175781 0)"/>
     <use xlink:href="#DejaVuSans-Bold-73" transform="translate(1251.367188 0)"/>
     <use xlink:href="#DejaVuSans-Bold-61" transform="translate(1310.888672 0)"/>
     <use xlink:href="#DejaVuSans-Bold-64" transform="translate(1378.369141 0)"/>
     <use xlink:href="#DejaVuSans-Bold-6f" transform="translate(1449.951172 0)"/>
     <use xlink:href="#DejaVuSans-Bold-20" transform="translate(1518.652344 0)"/>
     <use xlink:href="#DejaVuSans-Bold-65" transform="translate(1553.466797 0)"/>
     <use xlink:href="#DejaVuSans-Bold-6e" transform="translate(1621.289062 0)"/>
     <use xlink:href="#DejaVuSans-Bold-20" transform="translate(1692.480469 0)"/>
     <use xlink:href="#DejaVuSans-Bold-6c" transform="translate(1727.294922 0)"/>
     <use xlink:href="#DejaVuSans-Bold-61" transform="translate(1761.572266 0)"/>
     <use xlink:href="#DejaVuSans-Bold-20" transform="translate(1829.052734 0)"/>
     <use xlink:href="#DejaVuSans-Bold-6c" transform="translate(1863.867188 0)"/>
     <use xlink:href="#DejaVuSans-Bold-65" transform="translate(1898.144531 0)"/>
     <use xlink:href="#DejaVuSans-Bold-63" transform="translate(1965.966797 0)"/>
     <use xlink:href="#DejaVuSans-Bold-74" transform="translate(2025.244141 0)"/>
     <use xlink:href="#DejaVuSans-Bold-75" transform="translate(2073.046875 0)"/>
     <use xlink:href="#DejaVuSans-Bold-72" transform="translate(2144.238281 0)"/>
     <use xlink:href="#DejaVuSans-Bold-61" transform="translate(2193.554688 0)"/>
     <use xlink:href="#DejaVuSans-Bold-20" transform="translate(2261.035156 0)"/>
     <use xlink:href="#DejaVuSans-Bold-66" transform="translate(2295.849609 0)"/>
     <use xlink:href="#DejaVuSans-Bold-69" transform="translate(2339.355469 0)"/>
     <use xlink:href="#DejaVuSans-Bold-6e" transform="translate(2373.632812 0)"/>
     <use xlink:href="#DejaVuSans-Bold-61" transform="translate(2444.824219 0)"/>
     <use xlink:href="#DejaVuSans-Bold-6c" transform="translate(2512.304688 0)"/>
    </g>
   </g>
  </g>
 </g>
</svg>
