<?xml version="1.0" encoding="utf-8" standalone="no"?>
<!DOCTYPE svg PUBLIC "-//W3C//DTD SVG 1.1//EN"
  "http://www.w3.org/Graphics/SVG/1.1/DTD/svg11.dtd">
<svg xmlns:xlink="http://www.w3.org/1999/xlink" width="836.39952pt" height="483.59952pt" viewBox="0 0 836.39952 483.59952" xmlns="http://www.w3.org/2000/svg" version="1.1">
 <metadata>
  <rdf:RDF xmlns:dc="http://purl.org/dc/elements/1.1/" xmlns:cc="http://creativecommons.org/ns#" xmlns:rdf="http://www.w3.org/1999/02/22-rdf-syntax-ns#">
   <cc:Work>
    <dc:type rdf:resource="http://purl.org/dc/dcmitype/StillImage"/>
    <dc:date>2026-05-15T01:21:27.618142</dc:date>
    <dc:format>image/svg+xml</dc:format>
    <dc:creator>
     <cc:Agent>
      <dc:title>Matplotlib v3.10.8, https://matplotlib.org/</dc:title>
     </cc:Agent>
    </dc:creator>
   </cc:Work>
  </rdf:RDF>
 </metadata>
 <defs>
  <style type="text/css">*{stroke-linejoin: round; stroke-linecap: butt}</style>
 </defs>
 <g id="figure_1">
  <g id="patch_1">
   <path d="M 0 483.59952 
L 836.39952 483.59952 
L 836.39952 0 
L 0 0 
z
" style="fill: #ffffff"/>
  </g>
  <g id="axes_1">
   <g id="patch_2">
    <path d="M 39.632812 143.386522 
L 829.19952 143.386522 
L 829.19952 109.732859 
L 39.632812 109.732859 
z
" style="fill: #ffffff"/>
   </g>
   <g id="patch_3">
    <path d="M 46.104671 139.503407 
L 822.727662 139.503407 
L 822.727662 113.615974 
L 46.104671 113.615974 
z
" clip-path="url(#p685ce4952a)" style="fill: #f7fbff; stroke: #32465a; stroke-width: 1.2; stroke-linejoin: miter"/>
   </g>
   <g id="patch_4">
    <path d="M 46.104671 139.503407 
L 84.93582 139.503407 
L 84.93582 113.615974 
L 46.104671 113.615974 
z
" clip-path="url(#p685ce4952a)" style="fill: #9ecae1; opacity: 0.72"/>
   </g>
   <g id="patch_5">
    <path d="M 84.93582 139.503407 
L 201.429269 139.503407 
L 201.429269 113.615974 
L 84.93582 113.615974 
z
" clip-path="url(#p685ce4952a)" style="fill: #dbeafe; opacity: 0.55"/>
   </g>
   <g id="patch_6">
    <path d="M 201.429269 139.503407 
L 434.416166 139.503407 
L 434.416166 113.615974 
L 201.429269 113.615974 
z
" clip-path="url(#p685ce4952a)" style="fill: #efe5d1; opacity: 0.78"/>
   </g>
   <g id="patch_7">
    <path d="M 434.416166 139.503407 
L 822.727662 139.503407 
L 822.727662 113.615974 
L 434.416166 113.615974 
z
" clip-path="url(#p685ce4952a)" style="fill: #f4f1ea; opacity: 0.82"/>
   </g>
   <g id="patch_8">
    <path d="M 214.372985 128.760122 
C 215.128182 128.760122 215.85255 128.528271 216.386555 128.115631 
C 216.92056 127.70299 217.220603 127.143252 217.220603 126.55969 
C 217.220603 125.976129 216.92056 125.41639 216.386555 125.00375 
C 215.85255 124.59111 215.128182 124.359259 214.372985 124.359259 
C 213.617788 124.359259 212.893421 124.59111 212.359416 125.00375 
C 211.825411 125.41639 211.525368 125.976129 211.525368 126.55969 
C 211.525368 127.143252 211.825411 127.70299 212.359416 128.115631 
C 212.893421 128.528271 213.617788 128.760122 214.372985 128.760122 
z
" clip-path="url(#p685ce4952a)" style="fill: #6b5b4b; stroke: #241f1b; stroke-linejoin: miter"/>
   </g>
   <g id="patch_9">
    <path d="M 62.345859 126.55969 
Q 131.534438 126.55969 198.710556 126.55969 
" clip-path="url(#p685ce4952a)" style="fill: none; stroke: #2b6f9f; stroke-width: 1.8; stroke-linecap: round"/>
    <path d="M 193.110556 123.75969 
L 198.710556 126.55969 
L 193.110556 129.35969 
" clip-path="url(#p685ce4952a)" style="fill: none; stroke: #2b6f9f; stroke-width: 1.8; stroke-linecap: round"/>
   </g>
   <g id="matplotlib.axis_1">
    <g id="xtick_1">
     <g id="line2d_1">
      <path d="M 46.104671 143.386522 
L 46.104671 109.732859 
" clip-path="url(#p685ce4952a)" style="fill: none; stroke: #b0b0b0; stroke-opacity: 0.18; stroke-width: 0.8; stroke-linecap: square"/>
     </g>
     <g id="line2d_2">
      <defs>
       <path id="m50853c3026" d="M 0 0 
L 0 3.5 
" style="stroke: #000000; stroke-width: 0.8"/>
      </defs>
      <g>
       <use xlink:href="#m50853c3026" x="46.104671" y="143.386522" style="stroke: #000000; stroke-width: 0.8"/>
      </g>
     </g>
     <g id="text_1">
      <!-- 0 -->
      <g transform="translate(43.559671 156.465272) scale(0.08 -0.08)">
       <defs>
        <path id="DejaVuSans-30" d="M 2034 4250 
Q 1547 4250 1301 3770 
Q 1056 3291 1056 2328 
Q 1056 1369 1301 889 
Q 1547 409 2034 409 
Q 2525 409 2770 889 
Q 3016 1369 3016 2328 
Q 3016 3291 2770 3770 
Q 2525 4250 2034 4250 
z
M 2034 4750 
Q 2819 4750 3233 4129 
Q 3647 3509 3647 2328 
Q 3647 1150 3233 529 
Q 2819 -91 2034 -91 
Q 1250 -91 836 529 
Q 422 1150 422 2328 
Q 422 3509 836 4129 
Q 1250 4750 2034 4750 
z
" transform="scale(0.015625)"/>
       </defs>
       <use xlink:href="#DejaVuSans-30"/>
      </g>
     </g>
    </g>
    <g id="xtick_2">
     <g id="line2d_3">
      <path d="M 175.541836 143.386522 
L 175.541836 109.732859 
" clip-path="url(#p685ce4952a)" style="fill: none; stroke: #b0b0b0; stroke-opacity: 0.18; stroke-width: 0.8; stroke-linecap: square"/>
     </g>
     <g id="line2d_4">
      <g>
       <use xlink:href="#m50853c3026" x="175.541836" y="143.386522" style="stroke: #000000; stroke-width: 0.8"/>
      </g>
     </g>
     <g id="text_2">
      <!-- 5 -->
      <g transform="translate(172.996836 156.465272) scale(0.08 -0.08)">
       <defs>
        <path id="DejaVuSans-35" d="M 691 4666 
L 3169 4666 
L 3169 4134 
L 1269 4134 
L 1269 2991 
Q 1406 3038 1543 3061 
Q 1681 3084 1819 3084 
Q 2600 3084 3056 2656 
Q 3513 2228 3513 1497 
Q 3513 744 3044 326 
Q 2575 -91 1722 -91 
Q 1428 -91 1123 -41 
Q 819 9 494 109 
L 494 744 
Q 775 591 1075 516 
Q 1375 441 1709 441 
Q 2250 441 2565 725 
Q 2881 1009 2881 1497 
Q 2881 1984 2565 2268 
Q 2250 2553 1709 2553 
Q 1456 2553 1204 2497 
Q 953 2441 691 2322 
L 691 4666 
z
" transform="scale(0.015625)"/>
       </defs>
       <use xlink:href="#DejaVuSans-35"/>
      </g>
     </g>
    </g>
    <g id="xtick_3">
     <g id="line2d_5">
      <path d="M 304.979001 143.386522 
L 304.979001 109.732859 
" clip-path="url(#p685ce4952a)" style="fill: none; stroke: #b0b0b0; stroke-opacity: 0.18; stroke-width: 0.8; stroke-linecap: square"/>
     </g>
     <g id="line2d_6">
      <g>
       <use xlink:href="#m50853c3026" x="304.979001" y="143.386522" style="stroke: #000000; stroke-width: 0.8"/>
      </g>
     </g>
     <g id="text_3">
      <!-- 10 -->
      <g transform="translate(299.889001 156.465272) scale(0.08 -0.08)">
       <defs>
        <path id="DejaVuSans-31" d="M 794 531 
L 1825 531 
L 1825 4091 
L 703 3866 
L 703 4441 
L 1819 4666 
L 2450 4666 
L 2450 531 
L 3481 531 
L 3481 0 
L 794 0 
L 794 531 
z
" transform="scale(0.015625)"/>
       </defs>
       <use xlink:href="#DejaVuSans-31"/>
       <use xlink:href="#DejaVuSans-30" transform="translate(63.623047 0)"/>
      </g>
     </g>
    </g>
    <g id="xtick_4">
     <g id="line2d_7">
      <path d="M 434.416166 143.386522 
L 434.416166 109.732859 
" clip-path="url(#p685ce4952a)" style="fill: none; stroke: #b0b0b0; stroke-opacity: 0.18; stroke-width: 0.8; stroke-linecap: square"/>
     </g>
     <g id="line2d_8">
      <g>
       <use xlink:href="#m50853c3026" x="434.416166" y="143.386522" style="stroke: #000000; stroke-width: 0.8"/>
      </g>
     </g>
     <g id="text_4">
      <!-- 15 -->
      <g transform="translate(429.326166 156.465272) scale(0.08 -0.08)">
       <use xlink:href="#DejaVuSans-31"/>
       <use xlink:href="#DejaVuSans-35" transform="translate(63.623047 0)"/>
      </g>
     </g>
    </g>
    <g id="xtick_5">
     <g id="line2d_9">
      <path d="M 563.853331 143.386522 
L 563.853331 109.732859 
" clip-path="url(#p685ce4952a)" style="fill: none; stroke: #b0b0b0; stroke-opacity: 0.18; stroke-width: 0.8; stroke-linecap: square"/>
     </g>
     <g id="line2d_10">
      <g>
       <use xlink:href="#m50853c3026" x="563.853331" y="143.386522" style="stroke: #000000; stroke-width: 0.8"/>
      </g>
     </g>
     <g id="text_5">
      <!-- 20 -->
      <g transform="translate(558.763331 156.465272) scale(0.08 -0.08)">
       <defs>
        <path id="DejaVuSans-32" d="M 1228 531 
L 3431 531 
L 3431 0 
L 469 0 
L 469 531 
Q 828 903 1448 1529 
Q 2069 2156 2228 2338 
Q 2531 2678 2651 2914 
Q 2772 3150 2772 3378 
Q 2772 3750 2511 3984 
Q 2250 4219 1831 4219 
Q 1534 4219 1204 4116 
Q 875 4013 500 3803 
L 500 4441 
Q 881 4594 1212 4672 
Q 1544 4750 1819 4750 
Q 2544 4750 2975 4387 
Q 3406 4025 3406 3419 
Q 3406 3131 3298 2873 
Q 3191 2616 2906 2266 
Q 2828 2175 2409 1742 
Q 1991 1309 1228 531 
z
" transform="scale(0.015625)"/>
       </defs>
       <use xlink:href="#DejaVuSans-32"/>
       <use xlink:href="#DejaVuSans-30" transform="translate(63.623047 0)"/>
      </g>
     </g>
    </g>
    <g id="xtick_6">
     <g id="line2d_11">
      <path d="M 693.290497 143.386522 
L 693.290497 109.732859 
" clip-path="url(#p685ce4952a)" style="fill: none; stroke: #b0b0b0; stroke-opacity: 0.18; stroke-width: 0.8; stroke-linecap: square"/>
     </g>
     <g id="line2d_12">
      <g>
       <use xlink:href="#m50853c3026" x="693.290497" y="143.386522" style="stroke: #000000; stroke-width: 0.8"/>
      </g>
     </g>
     <g id="text_6">
      <!-- 25 -->
      <g transform="translate(688.200497 156.465272) scale(0.08 -0.08)">
       <use xlink:href="#DejaVuSans-32"/>
       <use xlink:href="#DejaVuSans-35" transform="translate(63.623047 0)"/>
      </g>
     </g>
    </g>
    <g id="xtick_7">
     <g id="line2d_13">
      <path d="M 822.727662 143.386522 
L 822.727662 109.732859 
" clip-path="url(#p685ce4952a)" style="fill: none; stroke: #b0b0b0; stroke-opacity: 0.18; stroke-width: 0.8; stroke-linecap: square"/>
     </g>
     <g id="line2d_14">
      <g>
       <use xlink:href="#m50853c3026" x="822.727662" y="143.386522" style="stroke: #000000; stroke-width: 0.8"/>
      </g>
     </g>
     <g id="text_7">
      <!-- 30 -->
      <g transform="translate(817.637662 156.465272) scale(0.08 -0.08)">
       <defs>
        <path id="DejaVuSans-33" d="M 2597 2516 
Q 3050 2419 3304 2112 
Q 3559 1806 3559 1356 
Q 3559 666 3084 287 
Q 2609 -91 1734 -91 
Q 1441 -91 1130 -33 
Q 819 25 488 141 
L 488 750 
Q 750 597 1062 519 
Q 1375 441 1716 441 
Q 2309 441 2620 675 
Q 2931 909 2931 1356 
Q 2931 1769 2642 2001 
Q 2353 2234 1838 2234 
L 1294 2234 
L 1294 2753 
L 1863 2753 
Q 2328 2753 2575 2939 
Q 2822 3125 2822 3475 
Q 2822 3834 2567 4026 
Q 2313 4219 1838 4219 
Q 1578 4219 1281 4162 
Q 984 4106 628 3988 
L 628 4550 
Q 988 4650 1302 4700 
Q 1616 4750 1894 4750 
Q 2613 4750 3031 4423 
Q 3450 4097 3450 3541 
Q 3450 3153 3228 2886 
Q 3006 2619 2597 2516 
z
" transform="scale(0.015625)"/>
       </defs>
       <use xlink:href="#DejaVuSans-33"/>
       <use xlink:href="#DejaVuSans-30" transform="translate(63.623047 0)"/>
      </g>
     </g>
    </g>
    <g id="text_8">
     <!-- x (m) -->
     <g transform="translate(422.427885 168.967616) scale(0.09 -0.09)">
      <defs>
       <path id="DejaVuSans-78" d="M 3513 3500 
L 2247 1797 
L 3578 0 
L 2900 0 
L 1881 1375 
L 863 0 
L 184 0 
L 1544 1831 
L 300 3500 
L 978 3500 
L 1906 2253 
L 2834 3500 
L 3513 3500 
z
" transform="scale(0.015625)"/>
       <path id="DejaVuSans-20" transform="scale(0.015625)"/>
       <path id="DejaVuSans-28" d="M 1984 4856 
Q 1566 4138 1362 3434 
Q 1159 2731 1159 2009 
Q 1159 1288 1364 580 
Q 1569 -128 1984 -844 
L 1484 -844 
Q 1016 -109 783 600 
Q 550 1309 550 2009 
Q 550 2706 781 3412 
Q 1013 4119 1484 4856 
L 1984 4856 
z
" transform="scale(0.015625)"/>
       <path id="DejaVuSans-6d" d="M 3328 2828 
Q 3544 3216 3844 3400 
Q 4144 3584 4550 3584 
Q 5097 3584 5394 3201 
Q 5691 2819 5691 2113 
L 5691 0 
L 5113 0 
L 5113 2094 
Q 5113 2597 4934 2840 
Q 4756 3084 4391 3084 
Q 3944 3084 3684 2787 
Q 3425 2491 3425 1978 
L 3425 0 
L 2847 0 
L 2847 2094 
Q 2847 2600 2669 2842 
Q 2491 3084 2119 3084 
Q 1678 3084 1418 2786 
Q 1159 2488 1159 1978 
L 1159 0 
L 581 0 
L 581 3500 
L 1159 3500 
L 1159 2956 
Q 1356 3278 1631 3431 
Q 1906 3584 2284 3584 
Q 2666 3584 2933 3390 
Q 3200 3197 3328 2828 
z
" transform="scale(0.015625)"/>
       <path id="DejaVuSans-29" d="M 513 4856 
L 1013 4856 
Q 1481 4119 1714 3412 
Q 1947 2706 1947 2009 
Q 1947 1309 1714 600 
Q 1481 -109 1013 -844 
L 513 -844 
Q 928 -128 1133 580 
Q 1338 1288 1338 2009 
Q 1338 2731 1133 3434 
Q 928 4138 513 4856 
z
" transform="scale(0.015625)"/>
      </defs>
      <use xlink:href="#DejaVuSans-78"/>
      <use xlink:href="#DejaVuSans-20" transform="translate(59.179688 0)"/>
      <use xlink:href="#DejaVuSans-28" transform="translate(90.966797 0)"/>
      <use xlink:href="#DejaVuSans-6d" transform="translate(129.980469 0)"/>
      <use xlink:href="#DejaVuSans-29" transform="translate(227.392578 0)"/>
     </g>
    </g>
   </g>
   <g id="matplotlib.axis_2">
    <g id="ytick_1">
     <g id="line2d_15">
      <path d="M 39.632812 139.503407 
L 829.19952 139.503407 
" clip-path="url(#p685ce4952a)" style="fill: none; stroke: #b0b0b0; stroke-opacity: 0.18; stroke-width: 0.8; stroke-linecap: square"/>
     </g>
     <g id="line2d_16">
      <defs>
       <path id="m5b48d6292f" d="M 0 0 
L -3.5 0 
" style="stroke: #000000; stroke-width: 0.8"/>
      </defs>
      <g>
       <use xlink:href="#m5b48d6292f" x="39.632812" y="139.503407" style="stroke: #000000; stroke-width: 0.8"/>
      </g>
     </g>
     <g id="text_9">
      <!-- 0.0 -->
      <g transform="translate(19.910312 142.542782) scale(0.08 -0.08)">
       <defs>
        <path id="DejaVuSans-2e" d="M 684 794 
L 1344 794 
L 1344 0 
L 684 0 
L 684 794 
z
" transform="scale(0.015625)"/>
       </defs>
       <use xlink:href="#DejaVuSans-30"/>
       <use xlink:href="#DejaVuSans-2e" transform="translate(63.623047 0)"/>
       <use xlink:href="#DejaVuSans-30" transform="translate(95.410156 0)"/>
      </g>
     </g>
    </g>
    <g id="ytick_2">
     <g id="line2d_17">
      <path d="M 39.632812 126.55969 
L 829.19952 126.55969 
" clip-path="url(#p685ce4952a)" style="fill: none; stroke: #b0b0b0; stroke-opacity: 0.18; stroke-width: 0.8; stroke-linecap: square"/>
     </g>
     <g id="line2d_18">
      <g>
       <use xlink:href="#m5b48d6292f" x="39.632812" y="126.55969" style="stroke: #000000; stroke-width: 0.8"/>
      </g>
     </g>
     <g id="text_10">
      <!-- 0.5 -->
      <g transform="translate(19.910312 129.599065) scale(0.08 -0.08)">
       <use xlink:href="#DejaVuSans-30"/>
       <use xlink:href="#DejaVuSans-2e" transform="translate(63.623047 0)"/>
       <use xlink:href="#DejaVuSans-35" transform="translate(95.410156 0)"/>
      </g>
     </g>
    </g>
    <g id="ytick_3">
     <g id="line2d_19">
      <path d="M 39.632812 113.615974 
L 829.19952 113.615974 
" clip-path="url(#p685ce4952a)" style="fill: none; stroke: #b0b0b0; stroke-opacity: 0.18; stroke-width: 0.8; stroke-linecap: square"/>
     </g>
     <g id="line2d_20">
      <g>
       <use xlink:href="#m5b48d6292f" x="39.632812" y="113.615974" style="stroke: #000000; stroke-width: 0.8"/>
      </g>
     </g>
     <g id="text_11">
      <!-- 1.0 -->
      <g transform="translate(19.910312 116.655349) scale(0.08 -0.08)">
       <use xlink:href="#DejaVuSans-31"/>
       <use xlink:href="#DejaVuSans-2e" transform="translate(63.623047 0)"/>
       <use xlink:href="#DejaVuSans-30" transform="translate(95.410156 0)"/>
      </g>
     </g>
    </g>
    <g id="text_12">
     <!-- ancho y (m) -->
     <g transform="translate(14.038594 153.667268) rotate(-90) scale(0.09 -0.09)">
      <defs>
       <path id="DejaVuSans-61" d="M 2194 1759 
Q 1497 1759 1228 1600 
Q 959 1441 959 1056 
Q 959 750 1161 570 
Q 1363 391 1709 391 
Q 2188 391 2477 730 
Q 2766 1069 2766 1631 
L 2766 1759 
L 2194 1759 
z
M 3341 1997 
L 3341 0 
L 2766 0 
L 2766 531 
Q 2569 213 2275 61 
Q 1981 -91 1556 -91 
Q 1019 -91 701 211 
Q 384 513 384 1019 
Q 384 1609 779 1909 
Q 1175 2209 1959 2209 
L 2766 2209 
L 2766 2266 
Q 2766 2663 2505 2880 
Q 2244 3097 1772 3097 
Q 1472 3097 1187 3025 
Q 903 2953 641 2809 
L 641 3341 
Q 956 3463 1253 3523 
Q 1550 3584 1831 3584 
Q 2591 3584 2966 3190 
Q 3341 2797 3341 1997 
z
" transform="scale(0.015625)"/>
       <path id="DejaVuSans-6e" d="M 3513 2113 
L 3513 0 
L 2938 0 
L 2938 2094 
Q 2938 2591 2744 2837 
Q 2550 3084 2163 3084 
Q 1697 3084 1428 2787 
Q 1159 2491 1159 1978 
L 1159 0 
L 581 0 
L 581 3500 
L 1159 3500 
L 1159 2956 
Q 1366 3272 1645 3428 
Q 1925 3584 2291 3584 
Q 2894 3584 3203 3211 
Q 3513 2838 3513 2113 
z
" transform="scale(0.015625)"/>
       <path id="DejaVuSans-63" d="M 3122 3366 
L 3122 2828 
Q 2878 2963 2633 3030 
Q 2388 3097 2138 3097 
Q 1578 3097 1268 2742 
Q 959 2388 959 1747 
Q 959 1106 1268 751 
Q 1578 397 2138 397 
Q 2388 397 2633 464 
Q 2878 531 3122 666 
L 3122 134 
Q 2881 22 2623 -34 
Q 2366 -91 2075 -91 
Q 1284 -91 818 406 
Q 353 903 353 1747 
Q 353 2603 823 3093 
Q 1294 3584 2113 3584 
Q 2378 3584 2631 3529 
Q 2884 3475 3122 3366 
z
" transform="scale(0.015625)"/>
       <path id="DejaVuSans-68" d="M 3513 2113 
L 3513 0 
L 2938 0 
L 2938 2094 
Q 2938 2591 2744 2837 
Q 2550 3084 2163 3084 
Q 1697 3084 1428 2787 
Q 1159 2491 1159 1978 
L 1159 0 
L 581 0 
L 581 4863 
L 1159 4863 
L 1159 2956 
Q 1366 3272 1645 3428 
Q 1925 3584 2291 3584 
Q 2894 3584 3203 3211 
Q 3513 2838 3513 2113 
z
" transform="scale(0.015625)"/>
       <path id="DejaVuSans-6f" d="M 1959 3097 
Q 1497 3097 1228 2736 
Q 959 2375 959 1747 
Q 959 1119 1226 758 
Q 1494 397 1959 397 
Q 2419 397 2687 759 
Q 2956 1122 2956 1747 
Q 2956 2369 2687 2733 
Q 2419 3097 1959 3097 
z
M 1959 3584 
Q 2709 3584 3137 3096 
Q 3566 2609 3566 1747 
Q 3566 888 3137 398 
Q 2709 -91 1959 -91 
Q 1206 -91 779 398 
Q 353 888 353 1747 
Q 353 2609 779 3096 
Q 1206 3584 1959 3584 
z
" transform="scale(0.015625)"/>
       <path id="DejaVuSans-79" d="M 2059 -325 
Q 1816 -950 1584 -1140 
Q 1353 -1331 966 -1331 
L 506 -1331 
L 506 -850 
L 844 -850 
Q 1081 -850 1212 -737 
Q 1344 -625 1503 -206 
L 1606 56 
L 191 3500 
L 800 3500 
L 1894 763 
L 2988 3500 
L 3597 3500 
L 2059 -325 
z
" transform="scale(0.015625)"/>
      </defs>
      <use xlink:href="#DejaVuSans-61"/>
      <use xlink:href="#DejaVuSans-6e" transform="translate(61.279297 0)"/>
      <use xlink:href="#DejaVuSans-63" transform="translate(124.658203 0)"/>
      <use xlink:href="#DejaVuSans-68" transform="translate(179.638672 0)"/>
      <use xlink:href="#DejaVuSans-6f" transform="translate(243.017578 0)"/>
      <use xlink:href="#DejaVuSans-20" transform="translate(304.199219 0)"/>
      <use xlink:href="#DejaVuSans-79" transform="translate(335.986328 0)"/>
      <use xlink:href="#DejaVuSans-20" transform="translate(395.166016 0)"/>
      <use xlink:href="#DejaVuSans-28" transform="translate(426.953125 0)"/>
      <use xlink:href="#DejaVuSans-6d" transform="translate(465.966797 0)"/>
      <use xlink:href="#DejaVuSans-29" transform="translate(563.378906 0)"/>
     </g>
    </g>
   </g>
   <g id="patch_10">
    <path d="M 39.632812 143.386522 
L 39.632812 109.732859 
" style="fill: none; stroke: #000000; stroke-width: 0.8; stroke-linejoin: miter; stroke-linecap: square"/>
   </g>
   <g id="patch_11">
    <path d="M 39.632812 143.386522 
L 829.19952 143.386522 
" style="fill: none; stroke: #000000; stroke-width: 0.8; stroke-linejoin: miter; stroke-linecap: square"/>
   </g>
   <g id="text_13">
    <!-- flujo -->
    <g style="fill: #2b6f9f" transform="translate(65.520246 123.194324) scale(0.09 -0.09)">
     <defs>
      <path id="DejaVuSans-Bold-66" d="M 2841 4863 
L 2841 4128 
L 2222 4128 
Q 1984 4128 1890 4042 
Q 1797 3956 1797 3744 
L 1797 3500 
L 2753 3500 
L 2753 2700 
L 1797 2700 
L 1797 0 
L 678 0 
L 678 2700 
L 122 2700 
L 122 3500 
L 678 3500 
L 678 3744 
Q 678 4316 997 4589 
Q 1316 4863 1984 4863 
L 2841 4863 
z
" transform="scale(0.015625)"/>
      <path id="DejaVuSans-Bold-6c" d="M 538 4863 
L 1656 4863 
L 1656 0 
L 538 0 
L 538 4863 
z
" transform="scale(0.015625)"/>
      <path id="DejaVuSans-Bold-75" d="M 500 1363 
L 500 3500 
L 1625 3500 
L 1625 3150 
Q 1625 2866 1622 2436 
Q 1619 2006 1619 1863 
Q 1619 1441 1641 1255 
Q 1663 1069 1716 984 
Q 1784 875 1895 815 
Q 2006 756 2150 756 
Q 2500 756 2700 1025 
Q 2900 1294 2900 1772 
L 2900 3500 
L 4019 3500 
L 4019 0 
L 2900 0 
L 2900 506 
Q 2647 200 2364 54 
Q 2081 -91 1741 -91 
Q 1134 -91 817 281 
Q 500 653 500 1363 
z
" transform="scale(0.015625)"/>
      <path id="DejaVuSans-Bold-6a" d="M 538 3500 
L 1656 3500 
L 1656 63 
Q 1656 -641 1318 -1011 
Q 981 -1381 341 -1381 
L -213 -1381 
L -213 -647 
L -19 -647 
Q 300 -647 419 -503 
Q 538 -359 538 63 
L 538 3500 
z
M 538 4863 
L 1656 4863 
L 1656 3950 
L 538 3950 
L 538 4863 
z
" transform="scale(0.015625)"/>
      <path id="DejaVuSans-Bold-6f" d="M 2203 2784 
Q 1831 2784 1636 2517 
Q 1441 2250 1441 1747 
Q 1441 1244 1636 976 
Q 1831 709 2203 709 
Q 2569 709 2762 976 
Q 2956 1244 2956 1747 
Q 2956 2250 2762 2517 
Q 2569 2784 2203 2784 
z
M 2203 3584 
Q 3106 3584 3614 3096 
Q 4122 2609 4122 1747 
Q 4122 884 3614 396 
Q 3106 -91 2203 -91 
Q 1297 -91 786 396 
Q 275 884 275 1747 
Q 275 2609 786 3096 
Q 1297 3584 2203 3584 
z
" transform="scale(0.015625)"/>
     </defs>
     <use xlink:href="#DejaVuSans-Bold-66"/>
     <use xlink:href="#DejaVuSans-Bold-6c" transform="translate(43.505859 0)"/>
     <use xlink:href="#DejaVuSans-Bold-75" transform="translate(77.783203 0)"/>
     <use xlink:href="#DejaVuSans-Bold-6a" transform="translate(148.974609 0)"/>
     <use xlink:href="#DejaVuSans-Bold-6f" transform="translate(183.251953 0)"/>
    </g>
   </g>
   <g id="text_14">
    <!-- reservorio -->
    <g style="fill: #245d7a" transform="translate(65.520246 136.396915) scale(0.08 -0.08)">
     <defs>
      <path id="DejaVuSans-72" d="M 2631 2963 
Q 2534 3019 2420 3045 
Q 2306 3072 2169 3072 
Q 1681 3072 1420 2755 
Q 1159 2438 1159 1844 
L 1159 0 
L 581 0 
L 581 3500 
L 1159 3500 
L 1159 2956 
Q 1341 3275 1631 3429 
Q 1922 3584 2338 3584 
Q 2397 3584 2469 3576 
Q 2541 3569 2628 3553 
L 2631 2963 
z
" transform="scale(0.015625)"/>
      <path id="DejaVuSans-65" d="M 3597 1894 
L 3597 1613 
L 953 1613 
Q 991 1019 1311 708 
Q 1631 397 2203 397 
Q 2534 397 2845 478 
Q 3156 559 3463 722 
L 3463 178 
Q 3153 47 2828 -22 
Q 2503 -91 2169 -91 
Q 1331 -91 842 396 
Q 353 884 353 1716 
Q 353 2575 817 3079 
Q 1281 3584 2069 3584 
Q 2775 3584 3186 3129 
Q 3597 2675 3597 1894 
z
M 3022 2063 
Q 3016 2534 2758 2815 
Q 2500 3097 2075 3097 
Q 1594 3097 1305 2825 
Q 1016 2553 972 2059 
L 3022 2063 
z
" transform="scale(0.015625)"/>
      <path id="DejaVuSans-73" d="M 2834 3397 
L 2834 2853 
Q 2591 2978 2328 3040 
Q 2066 3103 1784 3103 
Q 1356 3103 1142 2972 
Q 928 2841 928 2578 
Q 928 2378 1081 2264 
Q 1234 2150 1697 2047 
L 1894 2003 
Q 2506 1872 2764 1633 
Q 3022 1394 3022 966 
Q 3022 478 2636 193 
Q 2250 -91 1575 -91 
Q 1294 -91 989 -36 
Q 684 19 347 128 
L 347 722 
Q 666 556 975 473 
Q 1284 391 1588 391 
Q 1994 391 2212 530 
Q 2431 669 2431 922 
Q 2431 1156 2273 1281 
Q 2116 1406 1581 1522 
L 1381 1569 
Q 847 1681 609 1914 
Q 372 2147 372 2553 
Q 372 3047 722 3315 
Q 1072 3584 1716 3584 
Q 2034 3584 2315 3537 
Q 2597 3491 2834 3397 
z
" transform="scale(0.015625)"/>
      <path id="DejaVuSans-76" d="M 191 3500 
L 800 3500 
L 1894 563 
L 2988 3500 
L 3597 3500 
L 2284 0 
L 1503 0 
L 191 3500 
z
" transform="scale(0.015625)"/>
      <path id="DejaVuSans-69" d="M 603 3500 
L 1178 3500 
L 1178 0 
L 603 0 
L 603 3500 
z
M 603 4863 
L 1178 4863 
L 1178 4134 
L 603 4134 
L 603 4863 
z
" transform="scale(0.015625)"/>
     </defs>
     <use xlink:href="#DejaVuSans-72"/>
     <use xlink:href="#DejaVuSans-65" transform="translate(38.863281 0)"/>
     <use xlink:href="#DejaVuSans-73" transform="translate(100.386719 0)"/>
     <use xlink:href="#DejaVuSans-65" transform="translate(152.486328 0)"/>
     <use xlink:href="#DejaVuSans-72" transform="translate(214.009766 0)"/>
     <use xlink:href="#DejaVuSans-76" transform="translate(255.123047 0)"/>
     <use xlink:href="#DejaVuSans-6f" transform="translate(314.302734 0)"/>
     <use xlink:href="#DejaVuSans-72" transform="translate(375.484375 0)"/>
     <use xlink:href="#DejaVuSans-69" transform="translate(416.597656 0)"/>
     <use xlink:href="#DejaVuSans-6f" transform="translate(444.380859 0)"/>
    </g>
   </g>
   <g id="text_15">
    <!-- bloque -->
    <g style="fill: #241f1b" transform="translate(202.033607 121.899952) scale(0.08 -0.08)">
     <defs>
      <path id="DejaVuSans-62" d="M 3116 1747 
Q 3116 2381 2855 2742 
Q 2594 3103 2138 3103 
Q 1681 3103 1420 2742 
Q 1159 2381 1159 1747 
Q 1159 1113 1420 752 
Q 1681 391 2138 391 
Q 2594 391 2855 752 
Q 3116 1113 3116 1747 
z
M 1159 2969 
Q 1341 3281 1617 3432 
Q 1894 3584 2278 3584 
Q 2916 3584 3314 3078 
Q 3713 2572 3713 1747 
Q 3713 922 3314 415 
Q 2916 -91 2278 -91 
Q 1894 -91 1617 61 
Q 1341 213 1159 525 
L 1159 0 
L 581 0 
L 581 4863 
L 1159 4863 
L 1159 2969 
z
" transform="scale(0.015625)"/>
      <path id="DejaVuSans-6c" d="M 603 4863 
L 1178 4863 
L 1178 0 
L 603 0 
L 603 4863 
z
" transform="scale(0.015625)"/>
      <path id="DejaVuSans-71" d="M 947 1747 
Q 947 1113 1208 752 
Q 1469 391 1925 391 
Q 2381 391 2643 752 
Q 2906 1113 2906 1747 
Q 2906 2381 2643 2742 
Q 2381 3103 1925 3103 
Q 1469 3103 1208 2742 
Q 947 2381 947 1747 
z
M 2906 525 
Q 2725 213 2448 61 
Q 2172 -91 1784 -91 
Q 1150 -91 751 415 
Q 353 922 353 1747 
Q 353 2572 751 3078 
Q 1150 3584 1784 3584 
Q 2172 3584 2448 3432 
Q 2725 3281 2906 2969 
L 2906 3500 
L 3481 3500 
L 3481 -1331 
L 2906 -1331 
L 2906 525 
z
" transform="scale(0.015625)"/>
      <path id="DejaVuSans-75" d="M 544 1381 
L 544 3500 
L 1119 3500 
L 1119 1403 
Q 1119 906 1312 657 
Q 1506 409 1894 409 
Q 2359 409 2629 706 
Q 2900 1003 2900 1516 
L 2900 3500 
L 3475 3500 
L 3475 0 
L 2900 0 
L 2900 538 
Q 2691 219 2414 64 
Q 2138 -91 1772 -91 
Q 1169 -91 856 284 
Q 544 659 544 1381 
z
M 1991 3584 
L 1991 3584 
z
" transform="scale(0.015625)"/>
     </defs>
     <use xlink:href="#DejaVuSans-62"/>
     <use xlink:href="#DejaVuSans-6c" transform="translate(63.476562 0)"/>
     <use xlink:href="#DejaVuSans-6f" transform="translate(91.259766 0)"/>
     <use xlink:href="#DejaVuSans-71" transform="translate(152.441406 0)"/>
     <use xlink:href="#DejaVuSans-75" transform="translate(215.917969 0)"/>
     <use xlink:href="#DejaVuSans-65" transform="translate(279.296875 0)"/>
    </g>
   </g>
   <g id="text_16">
    <!-- playa 1:20 -->
    <g style="fill: #66512d" transform="translate(296.748343 137.432412) scale(0.08 -0.08)">
     <defs>
      <path id="DejaVuSans-70" d="M 1159 525 
L 1159 -1331 
L 581 -1331 
L 581 3500 
L 1159 3500 
L 1159 2969 
Q 1341 3281 1617 3432 
Q 1894 3584 2278 3584 
Q 2916 3584 3314 3078 
Q 3713 2572 3713 1747 
Q 3713 922 3314 415 
Q 2916 -91 2278 -91 
Q 1894 -91 1617 61 
Q 1341 213 1159 525 
z
M 3116 1747 
Q 3116 2381 2855 2742 
Q 2594 3103 2138 3103 
Q 1681 3103 1420 2742 
Q 1159 2381 1159 1747 
Q 1159 1113 1420 752 
Q 1681 391 2138 391 
Q 2594 391 2855 752 
Q 3116 1113 3116 1747 
z
" transform="scale(0.015625)"/>
      <path id="DejaVuSans-3a" d="M 750 794 
L 1409 794 
L 1409 0 
L 750 0 
L 750 794 
z
M 750 3309 
L 1409 3309 
L 1409 2516 
L 750 2516 
L 750 3309 
z
" transform="scale(0.015625)"/>
     </defs>
     <use xlink:href="#DejaVuSans-70"/>
     <use xlink:href="#DejaVuSans-6c" transform="translate(63.476562 0)"/>
     <use xlink:href="#DejaVuSans-61" transform="translate(91.259766 0)"/>
     <use xlink:href="#DejaVuSans-79" transform="translate(152.539062 0)"/>
     <use xlink:href="#DejaVuSans-61" transform="translate(211.71875 0)"/>
     <use xlink:href="#DejaVuSans-20" transform="translate(272.998047 0)"/>
     <use xlink:href="#DejaVuSans-31" transform="translate(304.785156 0)"/>
     <use xlink:href="#DejaVuSans-3a" transform="translate(368.408203 0)"/>
     <use xlink:href="#DejaVuSans-32" transform="translate(402.099609 0)"/>
     <use xlink:href="#DejaVuSans-30" transform="translate(465.722656 0)"/>
    </g>
   </g>
   <g id="text_17">
    <!-- zona final -->
    <g style="fill: #66512d" transform="translate(609.150664 137.432412) scale(0.08 -0.08)">
     <defs>
      <path id="DejaVuSans-7a" d="M 353 3500 
L 3084 3500 
L 3084 2975 
L 922 459 
L 3084 459 
L 3084 0 
L 275 0 
L 275 525 
L 2438 3041 
L 353 3041 
L 353 3500 
z
" transform="scale(0.015625)"/>
      <path id="DejaVuSans-66" d="M 2375 4863 
L 2375 4384 
L 1825 4384 
Q 1516 4384 1395 4259 
Q 1275 4134 1275 3809 
L 1275 3500 
L 2222 3500 
L 2222 3053 
L 1275 3053 
L 1275 0 
L 697 0 
L 697 3053 
L 147 3053 
L 147 3500 
L 697 3500 
L 697 3744 
Q 697 4328 969 4595 
Q 1241 4863 1831 4863 
L 2375 4863 
z
" transform="scale(0.015625)"/>
     </defs>
     <use xlink:href="#DejaVuSans-7a"/>
     <use xlink:href="#DejaVuSans-6f" transform="translate(52.490234 0)"/>
     <use xlink:href="#DejaVuSans-6e" transform="translate(113.671875 0)"/>
     <use xlink:href="#DejaVuSans-61" transform="translate(177.050781 0)"/>
     <use xlink:href="#DejaVuSans-20" transform="translate(238.330078 0)"/>
     <use xlink:href="#DejaVuSans-66" transform="translate(270.117188 0)"/>
     <use xlink:href="#DejaVuSans-69" transform="translate(305.322266 0)"/>
     <use xlink:href="#DejaVuSans-6e" transform="translate(333.105469 0)"/>
     <use xlink:href="#DejaVuSans-61" transform="translate(396.484375 0)"/>
     <use xlink:href="#DejaVuSans-6c" transform="translate(457.763672 0)"/>
    </g>
   </g>
   <g id="text_18">
    <!-- Planta del canal numerico -->
    <g transform="translate(362.871479 103.732859) scale(0.11 -0.11)">
     <defs>
      <path id="DejaVuSans-50" d="M 1259 4147 
L 1259 2394 
L 2053 2394 
Q 2494 2394 2734 2622 
Q 2975 2850 2975 3272 
Q 2975 3691 2734 3919 
Q 2494 4147 2053 4147 
L 1259 4147 
z
M 628 4666 
L 2053 4666 
Q 2838 4666 3239 4311 
Q 3641 3956 3641 3272 
Q 3641 2581 3239 2228 
Q 2838 1875 2053 1875 
L 1259 1875 
L 1259 0 
L 628 0 
L 628 4666 
z
" transform="scale(0.015625)"/>
      <path id="DejaVuSans-74" d="M 1172 4494 
L 1172 3500 
L 2356 3500 
L 2356 3053 
L 1172 3053 
L 1172 1153 
Q 1172 725 1289 603 
Q 1406 481 1766 481 
L 2356 481 
L 2356 0 
L 1766 0 
Q 1100 0 847 248 
Q 594 497 594 1153 
L 594 3053 
L 172 3053 
L 172 3500 
L 594 3500 
L 594 4494 
L 1172 4494 
z
" transform="scale(0.015625)"/>
      <path id="DejaVuSans-64" d="M 2906 2969 
L 2906 4863 
L 3481 4863 
L 3481 0 
L 2906 0 
L 2906 525 
Q 2725 213 2448 61 
Q 2172 -91 1784 -91 
Q 1150 -91 751 415 
Q 353 922 353 1747 
Q 353 2572 751 3078 
Q 1150 3584 1784 3584 
Q 2172 3584 2448 3432 
Q 2725 3281 2906 2969 
z
M 947 1747 
Q 947 1113 1208 752 
Q 1469 391 1925 391 
Q 2381 391 2643 752 
Q 2906 1113 2906 1747 
Q 2906 2381 2643 2742 
Q 2381 3103 1925 3103 
Q 1469 3103 1208 2742 
Q 947 2381 947 1747 
z
" transform="scale(0.015625)"/>
     </defs>
     <use xlink:href="#DejaVuSans-50"/>
     <use xlink:href="#DejaVuSans-6c" transform="translate(60.302734 0)"/>
     <use xlink:href="#DejaVuSans-61" transform="translate(88.085938 0)"/>
     <use xlink:href="#DejaVuSans-6e" transform="translate(149.365234 0)"/>
     <use xlink:href="#DejaVuSans-74" transform="translate(212.744141 0)"/>
     <use xlink:href="#DejaVuSans-61" transform="translate(251.953125 0)"/>
     <use xlink:href="#DejaVuSans-20" transform="translate(313.232422 0)"/>
     <use xlink:href="#DejaVuSans-64" transform="translate(345.019531 0)"/>
     <use xlink:href="#DejaVuSans-65" transform="translate(408.496094 0)"/>
     <use xlink:href="#DejaVuSans-6c" transform="translate(470.019531 0)"/>
     <use xlink:href="#DejaVuSans-20" transform="translate(497.802734 0)"/>
     <use xlink:href="#DejaVuSans-63" transform="translate(529.589844 0)"/>
     <use xlink:href="#DejaVuSans-61" transform="translate(584.570312 0)"/>
     <use xlink:href="#DejaVuSans-6e" transform="translate(645.849609 0)"/>
     <use xlink:href="#DejaVuSans-61" transform="translate(709.228516 0)"/>
     <use xlink:href="#DejaVuSans-6c" transform="translate(770.507812 0)"/>
     <use xlink:href="#DejaVuSans-20" transform="translate(798.291016 0)"/>
     <use xlink:href="#DejaVuSans-6e" transform="translate(830.078125 0)"/>
     <use xlink:href="#DejaVuSans-75" transform="translate(893.457031 0)"/>
     <use xlink:href="#DejaVuSans-6d" transform="translate(956.835938 0)"/>
     <use xlink:href="#DejaVuSans-65" transform="translate(1054.248047 0)"/>
     <use xlink:href="#DejaVuSans-72" transform="translate(1115.771484 0)"/>
     <use xlink:href="#DejaVuSans-69" transform="translate(1156.884766 0)"/>
     <use xlink:href="#DejaVuSans-63" transform="translate(1184.667969 0)"/>
     <use xlink:href="#DejaVuSans-6f" transform="translate(1239.648438 0)"/>
    </g>
   </g>
  </g>
  <g id="axes_2">
   <g id="patch_12">
    <path d="M 39.632812 448.946707 
L 829.19952 448.946707 
L 829.19952 247.594537 
L 39.632812 247.594537 
z
" style="fill: #ffffff"/>
   </g>
   <g id="patch_13">
    <path d="M 46.104671 432.966376 
L 201.429269 432.966376 
L 434.416166 289.143397 
L 822.727662 289.143397 
L 822.727662 458.534906 
L 46.104671 458.534906 
z
" clip-path="url(#pd67b33622d)" style="fill: #e8dcc6; stroke: #6b5b3e; stroke-width: 1.2; stroke-linejoin: miter"/>
   </g>
   <g id="patch_14">
    <path d="M 46.104671 432.966376 
L 84.93582 432.966376 
L 84.93582 369.045052 
L 46.104671 369.045052 
z
" clip-path="url(#pd67b33622d)" style="fill: #9ecae1; opacity: 0.7; stroke: #4f8bad; stroke-linejoin: miter"/>
   </g>
   <g id="patch_15">
    <path d="M 214.418232 426.560287 
C 215.378193 425.967703 216.294198 424.222128 216.964507 421.708006 
C 217.634817 419.193883 218.004704 416.116479 217.992704 413.153557 
C 217.980705 410.190635 217.587799 407.584104 216.900519 405.908023 
C 216.213239 404.231941 215.2877 403.623153 214.327739 404.215737 
C 213.367778 404.808322 212.451773 406.553897 211.781464 409.068019 
C 211.111154 411.582142 210.741267 414.659545 210.753267 417.622467 
C 210.765266 420.585389 211.158172 423.19192 211.845452 424.868002 
C 212.532731 426.544084 213.458271 427.152872 214.418232 426.560287 
z
" clip-path="url(#pd67b33622d)" style="fill: #6b5b4b; stroke: #241f1b; stroke-linejoin: miter"/>
   </g>
   <g id="patch_16">
    <path d="M 64.811517 376.115988 
Q 131.533691 400.206875 196.363007 423.614322 
" clip-path="url(#pd67b33622d)" style="fill: none; stroke: #2b6f9f; stroke-width: 1.8; stroke-linecap: round"/>
    <path d="M 192.046716 419.078947 
L 196.363007 423.614322 
L 190.144932 424.346131 
" clip-path="url(#pd67b33622d)" style="fill: none; stroke: #2b6f9f; stroke-width: 1.8; stroke-linecap: round"/>
   </g>
   <g id="matplotlib.axis_3">
    <g id="xtick_8">
     <g id="line2d_21">
      <path d="M 46.104671 448.946707 
L 46.104671 247.594537 
" clip-path="url(#pd67b33622d)" style="fill: none; stroke: #b0b0b0; stroke-opacity: 0.18; stroke-width: 0.8; stroke-linecap: square"/>
     </g>
     <g id="line2d_22">
      <g>
       <use xlink:href="#m50853c3026" x="46.104671" y="448.946707" style="stroke: #000000; stroke-width: 0.8"/>
      </g>
     </g>
     <g id="text_19">
      <!-- 0 -->
      <g transform="translate(43.559671 462.025457) scale(0.08 -0.08)">
       <use xlink:href="#DejaVuSans-30"/>
      </g>
     </g>
    </g>
    <g id="xtick_9">
     <g id="line2d_23">
      <path d="M 175.541836 448.946707 
L 175.541836 247.594537 
" clip-path="url(#pd67b33622d)" style="fill: none; stroke: #b0b0b0; stroke-opacity: 0.18; stroke-width: 0.8; stroke-linecap: square"/>
     </g>
     <g id="line2d_24">
      <g>
       <use xlink:href="#m50853c3026" x="175.541836" y="448.946707" style="stroke: #000000; stroke-width: 0.8"/>
      </g>
     </g>
     <g id="text_20">
      <!-- 5 -->
      <g transform="translate(172.996836 462.025457) scale(0.08 -0.08)">
       <use xlink:href="#DejaVuSans-35"/>
      </g>
     </g>
    </g>
    <g id="xtick_10">
     <g id="line2d_25">
      <path d="M 304.979001 448.946707 
L 304.979001 247.594537 
" clip-path="url(#pd67b33622d)" style="fill: none; stroke: #b0b0b0; stroke-opacity: 0.18; stroke-width: 0.8; stroke-linecap: square"/>
     </g>
     <g id="line2d_26">
      <g>
       <use xlink:href="#m50853c3026" x="304.979001" y="448.946707" style="stroke: #000000; stroke-width: 0.8"/>
      </g>
     </g>
     <g id="text_21">
      <!-- 10 -->
      <g transform="translate(299.889001 462.025457) scale(0.08 -0.08)">
       <use xlink:href="#DejaVuSans-31"/>
       <use xlink:href="#DejaVuSans-30" transform="translate(63.623047 0)"/>
      </g>
     </g>
    </g>
    <g id="xtick_11">
     <g id="line2d_27">
      <path d="M 434.416166 448.946707 
L 434.416166 247.594537 
" clip-path="url(#pd67b33622d)" style="fill: none; stroke: #b0b0b0; stroke-opacity: 0.18; stroke-width: 0.8; stroke-linecap: square"/>
     </g>
     <g id="line2d_28">
      <g>
       <use xlink:href="#m50853c3026" x="434.416166" y="448.946707" style="stroke: #000000; stroke-width: 0.8"/>
      </g>
     </g>
     <g id="text_22">
      <!-- 15 -->
      <g transform="translate(429.326166 462.025457) scale(0.08 -0.08)">
       <use xlink:href="#DejaVuSans-31"/>
       <use xlink:href="#DejaVuSans-35" transform="translate(63.623047 0)"/>
      </g>
     </g>
    </g>
    <g id="xtick_12">
     <g id="line2d_29">
      <path d="M 563.853331 448.946707 
L 563.853331 247.594537 
" clip-path="url(#pd67b33622d)" style="fill: none; stroke: #b0b0b0; stroke-opacity: 0.18; stroke-width: 0.8; stroke-linecap: square"/>
     </g>
     <g id="line2d_30">
      <g>
       <use xlink:href="#m50853c3026" x="563.853331" y="448.946707" style="stroke: #000000; stroke-width: 0.8"/>
      </g>
     </g>
     <g id="text_23">
      <!-- 20 -->
      <g transform="translate(558.763331 462.025457) scale(0.08 -0.08)">
       <use xlink:href="#DejaVuSans-32"/>
       <use xlink:href="#DejaVuSans-30" transform="translate(63.623047 0)"/>
      </g>
     </g>
    </g>
    <g id="xtick_13">
     <g id="line2d_31">
      <path d="M 693.290497 448.946707 
L 693.290497 247.594537 
" clip-path="url(#pd67b33622d)" style="fill: none; stroke: #b0b0b0; stroke-opacity: 0.18; stroke-width: 0.8; stroke-linecap: square"/>
     </g>
     <g id="line2d_32">
      <g>
       <use xlink:href="#m50853c3026" x="693.290497" y="448.946707" style="stroke: #000000; stroke-width: 0.8"/>
      </g>
     </g>
     <g id="text_24">
      <!-- 25 -->
      <g transform="translate(688.200497 462.025457) scale(0.08 -0.08)">
       <use xlink:href="#DejaVuSans-32"/>
       <use xlink:href="#DejaVuSans-35" transform="translate(63.623047 0)"/>
      </g>
     </g>
    </g>
    <g id="xtick_14">
     <g id="line2d_33">
      <path d="M 822.727662 448.946707 
L 822.727662 247.594537 
" clip-path="url(#pd67b33622d)" style="fill: none; stroke: #b0b0b0; stroke-opacity: 0.18; stroke-width: 0.8; stroke-linecap: square"/>
     </g>
     <g id="line2d_34">
      <g>
       <use xlink:href="#m50853c3026" x="822.727662" y="448.946707" style="stroke: #000000; stroke-width: 0.8"/>
      </g>
     </g>
     <g id="text_25">
      <!-- 30 -->
      <g transform="translate(817.637662 462.025457) scale(0.08 -0.08)">
       <use xlink:href="#DejaVuSans-33"/>
       <use xlink:href="#DejaVuSans-30" transform="translate(63.623047 0)"/>
      </g>
     </g>
    </g>
    <g id="text_26">
     <!-- x (m) -->
     <g transform="translate(422.427885 474.527801) scale(0.09 -0.09)">
      <use xlink:href="#DejaVuSans-78"/>
      <use xlink:href="#DejaVuSans-20" transform="translate(59.179688 0)"/>
      <use xlink:href="#DejaVuSans-28" transform="translate(90.966797 0)"/>
      <use xlink:href="#DejaVuSans-6d" transform="translate(129.980469 0)"/>
      <use xlink:href="#DejaVuSans-29" transform="translate(227.392578 0)"/>
     </g>
    </g>
   </g>
   <g id="matplotlib.axis_4">
    <g id="ytick_4">
     <g id="line2d_35">
      <path d="M 39.632812 432.966376 
L 829.19952 432.966376 
" clip-path="url(#pd67b33622d)" style="fill: none; stroke: #b0b0b0; stroke-opacity: 0.18; stroke-width: 0.8; stroke-linecap: square"/>
     </g>
     <g id="line2d_36">
      <g>
       <use xlink:href="#m5b48d6292f" x="39.632812" y="432.966376" style="stroke: #000000; stroke-width: 0.8"/>
      </g>
     </g>
     <g id="text_27">
      <!-- 0.0 -->
      <g transform="translate(19.910312 436.005751) scale(0.08 -0.08)">
       <use xlink:href="#DejaVuSans-30"/>
       <use xlink:href="#DejaVuSans-2e" transform="translate(63.623047 0)"/>
       <use xlink:href="#DejaVuSans-30" transform="translate(95.410156 0)"/>
      </g>
     </g>
    </g>
    <g id="ytick_5">
     <g id="line2d_37">
      <path d="M 39.632812 401.005714 
L 829.19952 401.005714 
" clip-path="url(#pd67b33622d)" style="fill: none; stroke: #b0b0b0; stroke-opacity: 0.18; stroke-width: 0.8; stroke-linecap: square"/>
     </g>
     <g id="line2d_38">
      <g>
       <use xlink:href="#m5b48d6292f" x="39.632812" y="401.005714" style="stroke: #000000; stroke-width: 0.8"/>
      </g>
     </g>
     <g id="text_28">
      <!-- 0.1 -->
      <g transform="translate(19.910312 404.045089) scale(0.08 -0.08)">
       <use xlink:href="#DejaVuSans-30"/>
       <use xlink:href="#DejaVuSans-2e" transform="translate(63.623047 0)"/>
       <use xlink:href="#DejaVuSans-31" transform="translate(95.410156 0)"/>
      </g>
     </g>
    </g>
    <g id="ytick_6">
     <g id="line2d_39">
      <path d="M 39.632812 369.045052 
L 829.19952 369.045052 
" clip-path="url(#pd67b33622d)" style="fill: none; stroke: #b0b0b0; stroke-opacity: 0.18; stroke-width: 0.8; stroke-linecap: square"/>
     </g>
     <g id="line2d_40">
      <g>
       <use xlink:href="#m5b48d6292f" x="39.632812" y="369.045052" style="stroke: #000000; stroke-width: 0.8"/>
      </g>
     </g>
     <g id="text_29">
      <!-- 0.2 -->
      <g transform="translate(19.910312 372.084427) scale(0.08 -0.08)">
       <use xlink:href="#DejaVuSans-30"/>
       <use xlink:href="#DejaVuSans-2e" transform="translate(63.623047 0)"/>
       <use xlink:href="#DejaVuSans-32" transform="translate(95.410156 0)"/>
      </g>
     </g>
    </g>
    <g id="ytick_7">
     <g id="line2d_41">
      <path d="M 39.632812 337.08439 
L 829.19952 337.08439 
" clip-path="url(#pd67b33622d)" style="fill: none; stroke: #b0b0b0; stroke-opacity: 0.18; stroke-width: 0.8; stroke-linecap: square"/>
     </g>
     <g id="line2d_42">
      <g>
       <use xlink:href="#m5b48d6292f" x="39.632812" y="337.08439" style="stroke: #000000; stroke-width: 0.8"/>
      </g>
     </g>
     <g id="text_30">
      <!-- 0.3 -->
      <g transform="translate(19.910312 340.123765) scale(0.08 -0.08)">
       <use xlink:href="#DejaVuSans-30"/>
       <use xlink:href="#DejaVuSans-2e" transform="translate(63.623047 0)"/>
       <use xlink:href="#DejaVuSans-33" transform="translate(95.410156 0)"/>
      </g>
     </g>
    </g>
    <g id="ytick_8">
     <g id="line2d_43">
      <path d="M 39.632812 305.123728 
L 829.19952 305.123728 
" clip-path="url(#pd67b33622d)" style="fill: none; stroke: #b0b0b0; stroke-opacity: 0.18; stroke-width: 0.8; stroke-linecap: square"/>
     </g>
     <g id="line2d_44">
      <g>
       <use xlink:href="#m5b48d6292f" x="39.632812" y="305.123728" style="stroke: #000000; stroke-width: 0.8"/>
      </g>
     </g>
     <g id="text_31">
      <!-- 0.4 -->
      <g transform="translate(19.910312 308.163103) scale(0.08 -0.08)">
       <defs>
        <path id="DejaVuSans-34" d="M 2419 4116 
L 825 1625 
L 2419 1625 
L 2419 4116 
z
M 2253 4666 
L 3047 4666 
L 3047 1625 
L 3713 1625 
L 3713 1100 
L 3047 1100 
L 3047 0 
L 2419 0 
L 2419 1100 
L 313 1100 
L 313 1709 
L 2253 4666 
z
" transform="scale(0.015625)"/>
       </defs>
       <use xlink:href="#DejaVuSans-30"/>
       <use xlink:href="#DejaVuSans-2e" transform="translate(63.623047 0)"/>
       <use xlink:href="#DejaVuSans-34" transform="translate(95.410156 0)"/>
      </g>
     </g>
    </g>
    <g id="ytick_9">
     <g id="line2d_45">
      <path d="M 39.632812 273.163066 
L 829.19952 273.163066 
" clip-path="url(#pd67b33622d)" style="fill: none; stroke: #b0b0b0; stroke-opacity: 0.18; stroke-width: 0.8; stroke-linecap: square"/>
     </g>
     <g id="line2d_46">
      <g>
       <use xlink:href="#m5b48d6292f" x="39.632812" y="273.163066" style="stroke: #000000; stroke-width: 0.8"/>
      </g>
     </g>
     <g id="text_32">
      <!-- 0.5 -->
      <g transform="translate(19.910312 276.202441) scale(0.08 -0.08)">
       <use xlink:href="#DejaVuSans-30"/>
       <use xlink:href="#DejaVuSans-2e" transform="translate(63.623047 0)"/>
       <use xlink:href="#DejaVuSans-35" transform="translate(95.410156 0)"/>
      </g>
     </g>
    </g>
    <g id="text_33">
     <!-- z (m) -->
     <g transform="translate(14.038594 359.957263) rotate(-90) scale(0.09 -0.09)">
      <use xlink:href="#DejaVuSans-7a"/>
      <use xlink:href="#DejaVuSans-20" transform="translate(52.490234 0)"/>
      <use xlink:href="#DejaVuSans-28" transform="translate(84.277344 0)"/>
      <use xlink:href="#DejaVuSans-6d" transform="translate(123.291016 0)"/>
      <use xlink:href="#DejaVuSans-29" transform="translate(220.703125 0)"/>
     </g>
    </g>
   </g>
   <g id="line2d_47">
    <path d="M 201.429269 432.966376 
L 434.416166 289.143397 
" clip-path="url(#pd67b33622d)" style="fill: none; stroke: #8d7442; stroke-width: 1.2; stroke-linecap: square"/>
   </g>
   <g id="patch_17">
    <path d="M 39.632812 448.946707 
L 39.632812 247.594537 
" style="fill: none; stroke: #000000; stroke-width: 0.8; stroke-linejoin: miter; stroke-linecap: square"/>
   </g>
   <g id="patch_18">
    <path d="M 39.632812 448.946707 
L 829.19952 448.946707 
" style="fill: none; stroke: #000000; stroke-width: 0.8; stroke-linejoin: miter; stroke-linecap: square"/>
   </g>
   <g id="text_34">
    <!-- pendiente 1:20 -->
    <g style="fill: #66512d" transform="translate(287.605341 337.086466) rotate(-2.862405) scale(0.08 -0.08)">
     <use xlink:href="#DejaVuSans-70"/>
     <use xlink:href="#DejaVuSans-65" transform="translate(63.476562 0)"/>
     <use xlink:href="#DejaVuSans-6e" transform="translate(125 0)"/>
     <use xlink:href="#DejaVuSans-64" transform="translate(188.378906 0)"/>
     <use xlink:href="#DejaVuSans-69" transform="translate(251.855469 0)"/>
     <use xlink:href="#DejaVuSans-65" transform="translate(279.638672 0)"/>
     <use xlink:href="#DejaVuSans-6e" transform="translate(341.162109 0)"/>
     <use xlink:href="#DejaVuSans-74" transform="translate(404.541016 0)"/>
     <use xlink:href="#DejaVuSans-65" transform="translate(443.75 0)"/>
     <use xlink:href="#DejaVuSans-20" transform="translate(505.273438 0)"/>
     <use xlink:href="#DejaVuSans-31" transform="translate(537.060547 0)"/>
     <use xlink:href="#DejaVuSans-3a" transform="translate(600.683594 0)"/>
     <use xlink:href="#DejaVuSans-32" transform="translate(634.375 0)"/>
     <use xlink:href="#DejaVuSans-30" transform="translate(697.998047 0)"/>
    </g>
   </g>
   <g id="text_35">
    <!-- bloque paralelo -->
    <g style="fill: #241f1b" transform="translate(183.250485 387.253365) scale(0.08 -0.08)">
     <use xlink:href="#DejaVuSans-62"/>
     <use xlink:href="#DejaVuSans-6c" transform="translate(63.476562 0)"/>
     <use xlink:href="#DejaVuSans-6f" transform="translate(91.259766 0)"/>
     <use xlink:href="#DejaVuSans-71" transform="translate(152.441406 0)"/>
     <use xlink:href="#DejaVuSans-75" transform="translate(215.917969 0)"/>
     <use xlink:href="#DejaVuSans-65" transform="translate(279.296875 0)"/>
     <use xlink:href="#DejaVuSans-20" transform="translate(340.820312 0)"/>
     <use xlink:href="#DejaVuSans-70" transform="translate(372.607422 0)"/>
     <use xlink:href="#DejaVuSans-61" transform="translate(436.083984 0)"/>
     <use xlink:href="#DejaVuSans-72" transform="translate(497.363281 0)"/>
     <use xlink:href="#DejaVuSans-61" transform="translate(538.476562 0)"/>
     <use xlink:href="#DejaVuSans-6c" transform="translate(599.755859 0)"/>
     <use xlink:href="#DejaVuSans-65" transform="translate(627.539062 0)"/>
     <use xlink:href="#DejaVuSans-6c" transform="translate(689.0625 0)"/>
     <use xlink:href="#DejaVuSans-6f" transform="translate(716.845703 0)"/>
    </g>
    <!-- a la playa -->
    <g style="fill: #241f1b" transform="translate(194.89611 396.211615) scale(0.08 -0.08)">
     <use xlink:href="#DejaVuSans-61"/>
     <use xlink:href="#DejaVuSans-20" transform="translate(61.279297 0)"/>
     <use xlink:href="#DejaVuSans-6c" transform="translate(93.066406 0)"/>
     <use xlink:href="#DejaVuSans-61" transform="translate(120.849609 0)"/>
     <use xlink:href="#DejaVuSans-20" transform="translate(182.128906 0)"/>
     <use xlink:href="#DejaVuSans-70" transform="translate(213.916016 0)"/>
     <use xlink:href="#DejaVuSans-6c" transform="translate(277.392578 0)"/>
     <use xlink:href="#DejaVuSans-61" transform="translate(305.175781 0)"/>
     <use xlink:href="#DejaVuSans-79" transform="translate(366.455078 0)"/>
     <use xlink:href="#DejaVuSans-61" transform="translate(425.634766 0)"/>
    </g>
   </g>
   <g id="text_36">
    <!-- H -->
    <g style="fill: #245d7a" transform="translate(61.637131 364.250953) scale(0.09 -0.09)">
     <defs>
      <path id="DejaVuSans-Bold-48" d="M 588 4666 
L 1791 4666 
L 1791 2888 
L 3566 2888 
L 3566 4666 
L 4769 4666 
L 4769 0 
L 3566 0 
L 3566 1978 
L 1791 1978 
L 1791 0 
L 588 0 
L 588 4666 
z
" transform="scale(0.015625)"/>
     </defs>
     <use xlink:href="#DejaVuSans-Bold-48"/>
    </g>
   </g>
   <g id="text_37">
    <!-- Esquema a escala en planta; elevacion con z realzado solo para lectura. -->
    <g style="fill: #687385" transform="translate(532.007603 439.228871) scale(0.08 -0.08)">
     <defs>
      <path id="DejaVuSans-45" d="M 628 4666 
L 3578 4666 
L 3578 4134 
L 1259 4134 
L 1259 2753 
L 3481 2753 
L 3481 2222 
L 1259 2222 
L 1259 531 
L 3634 531 
L 3634 0 
L 628 0 
L 628 4666 
z
" transform="scale(0.015625)"/>
      <path id="DejaVuSans-3b" d="M 750 3309 
L 1409 3309 
L 1409 2516 
L 750 2516 
L 750 3309 
z
M 750 794 
L 1409 794 
L 1409 256 
L 897 -744 
L 494 -744 
L 750 256 
L 750 794 
z
" transform="scale(0.015625)"/>
     </defs>
     <use xlink:href="#DejaVuSans-45"/>
     <use xlink:href="#DejaVuSans-73" transform="translate(63.183594 0)"/>
     <use xlink:href="#DejaVuSans-71" transform="translate(115.283203 0)"/>
     <use xlink:href="#DejaVuSans-75" transform="translate(178.759766 0)"/>
     <use xlink:href="#DejaVuSans-65" transform="translate(242.138672 0)"/>
     <use xlink:href="#DejaVuSans-6d" transform="translate(303.662109 0)"/>
     <use xlink:href="#DejaVuSans-61" transform="translate(401.074219 0)"/>
     <use xlink:href="#DejaVuSans-20" transform="translate(462.353516 0)"/>
     <use xlink:href="#DejaVuSans-61" transform="translate(494.140625 0)"/>
     <use xlink:href="#DejaVuSans-20" transform="translate(555.419922 0)"/>
     <use xlink:href="#DejaVuSans-65" transform="translate(587.207031 0)"/>
     <use xlink:href="#DejaVuSans-73" transform="translate(648.730469 0)"/>
     <use xlink:href="#DejaVuSans-63" transform="translate(700.830078 0)"/>
     <use xlink:href="#DejaVuSans-61" transform="translate(755.810547 0)"/>
     <use xlink:href="#DejaVuSans-6c" transform="translate(817.089844 0)"/>
     <use xlink:href="#DejaVuSans-61" transform="translate(844.873047 0)"/>
     <use xlink:href="#DejaVuSans-20" transform="translate(906.152344 0)"/>
     <use xlink:href="#DejaVuSans-65" transform="translate(937.939453 0)"/>
     <use xlink:href="#DejaVuSans-6e" transform="translate(999.462891 0)"/>
     <use xlink:href="#DejaVuSans-20" transform="translate(1062.841797 0)"/>
     <use xlink:href="#DejaVuSans-70" transform="translate(1094.628906 0)"/>
     <use xlink:href="#DejaVuSans-6c" transform="translate(1158.105469 0)"/>
     <use xlink:href="#DejaVuSans-61" transform="translate(1185.888672 0)"/>
     <use xlink:href="#DejaVuSans-6e" transform="translate(1247.167969 0)"/>
     <use xlink:href="#DejaVuSans-74" transform="translate(1310.546875 0)"/>
     <use xlink:href="#DejaVuSans-61" transform="translate(1349.755859 0)"/>
     <use xlink:href="#DejaVuSans-3b" transform="translate(1411.035156 0)"/>
     <use xlink:href="#DejaVuSans-20" transform="translate(1444.726562 0)"/>
     <use xlink:href="#DejaVuSans-65" transform="translate(1476.513672 0)"/>
     <use xlink:href="#DejaVuSans-6c" transform="translate(1538.037109 0)"/>
     <use xlink:href="#DejaVuSans-65" transform="translate(1565.820312 0)"/>
     <use xlink:href="#DejaVuSans-76" transform="translate(1627.34375 0)"/>
     <use xlink:href="#DejaVuSans-61" transform="translate(1686.523438 0)"/>
     <use xlink:href="#DejaVuSans-63" transform="translate(1747.802734 0)"/>
     <use xlink:href="#DejaVuSans-69" transform="translate(1802.783203 0)"/>
     <use xlink:href="#DejaVuSans-6f" transform="translate(1830.566406 0)"/>
     <use xlink:href="#DejaVuSans-6e" transform="translate(1891.748047 0)"/>
     <use xlink:href="#DejaVuSans-20" transform="translate(1955.126953 0)"/>
     <use xlink:href="#DejaVuSans-63" transform="translate(1986.914062 0)"/>
     <use xlink:href="#DejaVuSans-6f" transform="translate(2041.894531 0)"/>
     <use xlink:href="#DejaVuSans-6e" transform="translate(2103.076172 0)"/>
     <use xlink:href="#DejaVuSans-20" transform="translate(2166.455078 0)"/>
     <use xlink:href="#DejaVuSans-7a" transform="translate(2198.242188 0)"/>
     <use xlink:href="#DejaVuSans-20" transform="translate(2250.732422 0)"/>
     <use xlink:href="#DejaVuSans-72" transform="translate(2282.519531 0)"/>
     <use xlink:href="#DejaVuSans-65" transform="translate(2321.382812 0)"/>
     <use xlink:href="#DejaVuSans-61" transform="translate(2382.90625 0)"/>
     <use xlink:href="#DejaVuSans-6c" transform="translate(2444.185547 0)"/>
     <use xlink:href="#DejaVuSans-7a" transform="translate(2471.96875 0)"/>
     <use xlink:href="#DejaVuSans-61" transform="translate(2524.458984 0)"/>
     <use xlink:href="#DejaVuSans-64" transform="translate(2585.738281 0)"/>
     <use xlink:href="#DejaVuSans-6f" transform="translate(2649.214844 0)"/>
     <use xlink:href="#DejaVuSans-20" transform="translate(2710.396484 0)"/>
     <use xlink:href="#DejaVuSans-73" transform="translate(2742.183594 0)"/>
     <use xlink:href="#DejaVuSans-6f" transform="translate(2794.283203 0)"/>
     <use xlink:href="#DejaVuSans-6c" transform="translate(2855.464844 0)"/>
     <use xlink:href="#DejaVuSans-6f" transform="translate(2883.248047 0)"/>
     <use xlink:href="#DejaVuSans-20" transform="translate(2944.429688 0)"/>
     <use xlink:href="#DejaVuSans-70" transform="translate(2976.216797 0)"/>
     <use xlink:href="#DejaVuSans-61" transform="translate(3039.693359 0)"/>
     <use xlink:href="#DejaVuSans-72" transform="translate(3100.972656 0)"/>
     <use xlink:href="#DejaVuSans-61" transform="translate(3142.085938 0)"/>
     <use xlink:href="#DejaVuSans-20" transform="translate(3203.365234 0)"/>
     <use xlink:href="#DejaVuSans-6c" transform="translate(3235.152344 0)"/>
     <use xlink:href="#DejaVuSans-65" transform="translate(3262.935547 0)"/>
     <use xlink:href="#DejaVuSans-63" transform="translate(3324.458984 0)"/>
     <use xlink:href="#DejaVuSans-74" transform="translate(3379.439453 0)"/>
     <use xlink:href="#DejaVuSans-75" transform="translate(3418.648438 0)"/>
     <use xlink:href="#DejaVuSans-72" transform="translate(3482.027344 0)"/>
     <use xlink:href="#DejaVuSans-61" transform="translate(3523.140625 0)"/>
     <use xlink:href="#DejaVuSans-2e" transform="translate(3584.419922 0)"/>
    </g>
   </g>
   <g id="text_38">
    <!-- Elevacion longitudinal -->
    <g transform="translate(373.807885 241.594537) scale(0.11 -0.11)">
     <defs>
      <path id="DejaVuSans-67" d="M 2906 1791 
Q 2906 2416 2648 2759 
Q 2391 3103 1925 3103 
Q 1463 3103 1205 2759 
Q 947 2416 947 1791 
Q 947 1169 1205 825 
Q 1463 481 1925 481 
Q 2391 481 2648 825 
Q 2906 1169 2906 1791 
z
M 3481 434 
Q 3481 -459 3084 -895 
Q 2688 -1331 1869 -1331 
Q 1566 -1331 1297 -1286 
Q 1028 -1241 775 -1147 
L 775 -588 
Q 1028 -725 1275 -790 
Q 1522 -856 1778 -856 
Q 2344 -856 2625 -561 
Q 2906 -266 2906 331 
L 2906 616 
Q 2728 306 2450 153 
Q 2172 0 1784 0 
Q 1141 0 747 490 
Q 353 981 353 1791 
Q 353 2603 747 3093 
Q 1141 3584 1784 3584 
Q 2172 3584 2450 3431 
Q 2728 3278 2906 2969 
L 2906 3500 
L 3481 3500 
L 3481 434 
z
" transform="scale(0.015625)"/>
     </defs>
     <use xlink:href="#DejaVuSans-45"/>
     <use xlink:href="#DejaVuSans-6c" transform="translate(63.183594 0)"/>
     <use xlink:href="#DejaVuSans-65" transform="translate(90.966797 0)"/>
     <use xlink:href="#DejaVuSans-76" transform="translate(152.490234 0)"/>
     <use xlink:href="#DejaVuSans-61" transform="translate(211.669922 0)"/>
     <use xlink:href="#DejaVuSans-63" transform="translate(272.949219 0)"/>
     <use xlink:href="#DejaVuSans-69" transform="translate(327.929688 0)"/>
     <use xlink:href="#DejaVuSans-6f" transform="translate(355.712891 0)"/>
     <use xlink:href="#DejaVuSans-6e" transform="translate(416.894531 0)"/>
     <use xlink:href="#DejaVuSans-20" transform="translate(480.273438 0)"/>
     <use xlink:href="#DejaVuSans-6c" transform="translate(512.060547 0)"/>
     <use xlink:href="#DejaVuSans-6f" transform="translate(539.84375 0)"/>
     <use xlink:href="#DejaVuSans-6e" transform="translate(601.025391 0)"/>
     <use xlink:href="#DejaVuSans-67" transform="translate(664.404297 0)"/>
     <use xlink:href="#DejaVuSans-69" transform="translate(727.880859 0)"/>
     <use xlink:href="#DejaVuSans-74" transform="translate(755.664062 0)"/>
     <use xlink:href="#DejaVuSans-75" transform="translate(794.873047 0)"/>
     <use xlink:href="#DejaVuSans-64" transform="translate(858.251953 0)"/>
     <use xlink:href="#DejaVuSans-69" transform="translate(921.728516 0)"/>
     <use xlink:href="#DejaVuSans-6e" transform="translate(949.511719 0)"/>
     <use xlink:href="#DejaVuSans-61" transform="translate(1012.890625 0)"/>
     <use xlink:href="#DejaVuSans-6c" transform="translate(1074.169922 0)"/>
    </g>
   </g>
  </g>
  <g id="text_39">
   <!-- Setup fisico: canal, playa y bloque irregular -->
   <g transform="translate(258.017416 17.077969) scale(0.13 -0.13)">
    <defs>
     <path id="DejaVuSans-Bold-53" d="M 3834 4519 
L 3834 3531 
Q 3450 3703 3084 3790 
Q 2719 3878 2394 3878 
Q 1963 3878 1756 3759 
Q 1550 3641 1550 3391 
Q 1550 3203 1689 3098 
Q 1828 2994 2194 2919 
L 2706 2816 
Q 3484 2659 3812 2340 
Q 4141 2022 4141 1434 
Q 4141 663 3683 286 
Q 3225 -91 2284 -91 
Q 1841 -91 1394 -6 
Q 947 78 500 244 
L 500 1259 
Q 947 1022 1364 901 
Q 1781 781 2169 781 
Q 2563 781 2772 912 
Q 2981 1044 2981 1288 
Q 2981 1506 2839 1625 
Q 2697 1744 2272 1838 
L 1806 1941 
Q 1106 2091 782 2419 
Q 459 2747 459 3303 
Q 459 4000 909 4375 
Q 1359 4750 2203 4750 
Q 2588 4750 2994 4692 
Q 3400 4634 3834 4519 
z
" transform="scale(0.015625)"/>
     <path id="DejaVuSans-Bold-65" d="M 4031 1759 
L 4031 1441 
L 1416 1441 
Q 1456 1047 1700 850 
Q 1944 653 2381 653 
Q 2734 653 3104 758 
Q 3475 863 3866 1075 
L 3866 213 
Q 3469 63 3072 -14 
Q 2675 -91 2278 -91 
Q 1328 -91 801 392 
Q 275 875 275 1747 
Q 275 2603 792 3093 
Q 1309 3584 2216 3584 
Q 3041 3584 3536 3087 
Q 4031 2591 4031 1759 
z
M 2881 2131 
Q 2881 2450 2695 2645 
Q 2509 2841 2209 2841 
Q 1884 2841 1681 2658 
Q 1478 2475 1428 2131 
L 2881 2131 
z
" transform="scale(0.015625)"/>
     <path id="DejaVuSans-Bold-74" d="M 1759 4494 
L 1759 3500 
L 2913 3500 
L 2913 2700 
L 1759 2700 
L 1759 1216 
Q 1759 972 1856 886 
Q 1953 800 2241 800 
L 2816 800 
L 2816 0 
L 1856 0 
Q 1194 0 917 276 
Q 641 553 641 1216 
L 641 2700 
L 84 2700 
L 84 3500 
L 641 3500 
L 641 4494 
L 1759 4494 
z
" transform="scale(0.015625)"/>
     <path id="DejaVuSans-Bold-70" d="M 1656 506 
L 1656 -1331 
L 538 -1331 
L 538 3500 
L 1656 3500 
L 1656 2988 
Q 1888 3294 2169 3439 
Q 2450 3584 2816 3584 
Q 3463 3584 3878 3070 
Q 4294 2556 4294 1747 
Q 4294 938 3878 423 
Q 3463 -91 2816 -91 
Q 2450 -91 2169 54 
Q 1888 200 1656 506 
z
M 2400 2772 
Q 2041 2772 1848 2508 
Q 1656 2244 1656 1747 
Q 1656 1250 1848 986 
Q 2041 722 2400 722 
Q 2759 722 2948 984 
Q 3138 1247 3138 1747 
Q 3138 2247 2948 2509 
Q 2759 2772 2400 2772 
z
" transform="scale(0.015625)"/>
     <path id="DejaVuSans-Bold-20" transform="scale(0.015625)"/>
     <path id="DejaVuSans-Bold-69" d="M 538 3500 
L 1656 3500 
L 1656 0 
L 538 0 
L 538 3500 
z
M 538 4863 
L 1656 4863 
L 1656 3950 
L 538 3950 
L 538 4863 
z
" transform="scale(0.015625)"/>
     <path id="DejaVuSans-Bold-73" d="M 3272 3391 
L 3272 2541 
Q 2913 2691 2578 2766 
Q 2244 2841 1947 2841 
Q 1628 2841 1473 2761 
Q 1319 2681 1319 2516 
Q 1319 2381 1436 2309 
Q 1553 2238 1856 2203 
L 2053 2175 
Q 2913 2066 3209 1816 
Q 3506 1566 3506 1031 
Q 3506 472 3093 190 
Q 2681 -91 1863 -91 
Q 1516 -91 1145 -36 
Q 775 19 384 128 
L 384 978 
Q 719 816 1070 734 
Q 1422 653 1784 653 
Q 2113 653 2278 743 
Q 2444 834 2444 1013 
Q 2444 1163 2330 1236 
Q 2216 1309 1875 1350 
L 1678 1375 
Q 931 1469 631 1722 
Q 331 1975 331 2491 
Q 331 3047 712 3315 
Q 1094 3584 1881 3584 
Q 2191 3584 2531 3537 
Q 2872 3491 3272 3391 
z
" transform="scale(0.015625)"/>
     <path id="DejaVuSans-Bold-63" d="M 3366 3391 
L 3366 2478 
Q 3138 2634 2908 2709 
Q 2678 2784 2431 2784 
Q 1963 2784 1702 2511 
Q 1441 2238 1441 1747 
Q 1441 1256 1702 982 
Q 1963 709 2431 709 
Q 2694 709 2930 787 
Q 3166 866 3366 1019 
L 3366 103 
Q 3103 6 2833 -42 
Q 2563 -91 2291 -91 
Q 1344 -91 809 395 
Q 275 881 275 1747 
Q 275 2613 809 3098 
Q 1344 3584 2291 3584 
Q 2566 3584 2833 3536 
Q 3100 3488 3366 3391 
z
" transform="scale(0.015625)"/>
     <path id="DejaVuSans-Bold-3a" d="M 716 3500 
L 1844 3500 
L 1844 2291 
L 716 2291 
L 716 3500 
z
M 716 1209 
L 1844 1209 
L 1844 0 
L 716 0 
L 716 1209 
z
" transform="scale(0.015625)"/>
     <path id="DejaVuSans-Bold-61" d="M 2106 1575 
Q 1756 1575 1579 1456 
Q 1403 1338 1403 1106 
Q 1403 894 1545 773 
Q 1688 653 1941 653 
Q 2256 653 2472 879 
Q 2688 1106 2688 1447 
L 2688 1575 
L 2106 1575 
z
M 3816 1997 
L 3816 0 
L 2688 0 
L 2688 519 
Q 2463 200 2181 54 
Q 1900 -91 1497 -91 
Q 953 -91 614 226 
Q 275 544 275 1050 
Q 275 1666 698 1953 
Q 1122 2241 2028 2241 
L 2688 2241 
L 2688 2328 
Q 2688 2594 2478 2717 
Q 2269 2841 1825 2841 
Q 1466 2841 1156 2769 
Q 847 2697 581 2553 
L 581 3406 
Q 941 3494 1303 3539 
Q 1666 3584 2028 3584 
Q 2975 3584 3395 3211 
Q 3816 2838 3816 1997 
z
" transform="scale(0.015625)"/>
     <path id="DejaVuSans-Bold-6e" d="M 4056 2131 
L 4056 0 
L 2931 0 
L 2931 347 
L 2931 1631 
Q 2931 2084 2911 2256 
Q 2891 2428 2841 2509 
Q 2775 2619 2662 2680 
Q 2550 2741 2406 2741 
Q 2056 2741 1856 2470 
Q 1656 2200 1656 1722 
L 1656 0 
L 538 0 
L 538 3500 
L 1656 3500 
L 1656 2988 
Q 1909 3294 2193 3439 
Q 2478 3584 2822 3584 
Q 3428 3584 3742 3212 
Q 4056 2841 4056 2131 
z
" transform="scale(0.015625)"/>
     <path id="DejaVuSans-Bold-2c" d="M 653 1209 
L 1778 1209 
L 1778 256 
L 1006 -909 
L 341 -909 
L 653 256 
L 653 1209 
z
" transform="scale(0.015625)"/>
     <path id="DejaVuSans-Bold-79" d="M 78 3500 
L 1197 3500 
L 2138 1125 
L 2938 3500 
L 4056 3500 
L 2584 -331 
Q 2363 -916 2067 -1148 
Q 1772 -1381 1288 -1381 
L 641 -1381 
L 641 -647 
L 991 -647 
Q 1275 -647 1404 -556 
Q 1534 -466 1606 -231 
L 1638 -134 
L 78 3500 
z
" transform="scale(0.015625)"/>
     <path id="DejaVuSans-Bold-62" d="M 2400 722 
Q 2759 722 2948 984 
Q 3138 1247 3138 1747 
Q 3138 2247 2948 2509 
Q 2759 2772 2400 2772 
Q 2041 2772 1848 2508 
Q 1656 2244 1656 1747 
Q 1656 1250 1848 986 
Q 2041 722 2400 722 
z
M 1656 2988 
Q 1888 3294 2169 3439 
Q 2450 3584 2816 3584 
Q 3463 3584 3878 3070 
Q 4294 2556 4294 1747 
Q 4294 938 3878 423 
Q 3463 -91 2816 -91 
Q 2450 -91 2169 54 
Q 1888 200 1656 506 
L 1656 0 
L 538 0 
L 538 4863 
L 1656 4863 
L 1656 2988 
z
" transform="scale(0.015625)"/>
     <path id="DejaVuSans-Bold-71" d="M 2181 2772 
Q 1825 2772 1636 2509 
Q 1447 2247 1447 1747 
Q 1447 1247 1636 984 
Q 1825 722 2181 722 
Q 2541 722 2730 984 
Q 2919 1247 2919 1747 
Q 2919 2247 2730 2509 
Q 2541 2772 2181 2772 
z
M 2919 506 
Q 2688 197 2409 53 
Q 2131 -91 1766 -91 
Q 1119 -91 703 423 
Q 288 938 288 1747 
Q 288 2556 703 3067 
Q 1119 3578 1766 3578 
Q 2131 3578 2409 3434 
Q 2688 3291 2919 2981 
L 2919 3500 
L 4044 3500 
L 4044 -1331 
L 2919 -1331 
L 2919 506 
z
" transform="scale(0.015625)"/>
     <path id="DejaVuSans-Bold-72" d="M 3138 2547 
Q 2991 2616 2845 2648 
Q 2700 2681 2553 2681 
Q 2122 2681 1889 2404 
Q 1656 2128 1656 1613 
L 1656 0 
L 538 0 
L 538 3500 
L 1656 3500 
L 1656 2925 
Q 1872 3269 2151 3426 
Q 2431 3584 2822 3584 
Q 2878 3584 2943 3579 
Q 3009 3575 3134 3559 
L 3138 2547 
z
" transform="scale(0.015625)"/>
     <path id="DejaVuSans-Bold-67" d="M 2919 594 
Q 2688 288 2409 144 
Q 2131 0 1766 0 
Q 1125 0 706 504 
Q 288 1009 288 1791 
Q 288 2575 706 3076 
Q 1125 3578 1766 3578 
Q 2131 3578 2409 3434 
Q 2688 3291 2919 2981 
L 2919 3500 
L 4044 3500 
L 4044 353 
Q 4044 -491 3511 -936 
Q 2978 -1381 1966 -1381 
Q 1638 -1381 1331 -1331 
Q 1025 -1281 716 -1178 
L 716 -306 
Q 1009 -475 1290 -558 
Q 1572 -641 1856 -641 
Q 2406 -641 2662 -400 
Q 2919 -159 2919 353 
L 2919 594 
z
M 2181 2772 
Q 1834 2772 1640 2515 
Q 1447 2259 1447 1791 
Q 1447 1309 1634 1061 
Q 1822 813 2181 813 
Q 2531 813 2725 1069 
Q 2919 1325 2919 1791 
Q 2919 2259 2725 2515 
Q 2531 2772 2181 2772 
z
" transform="scale(0.015625)"/>
    </defs>
    <use xlink:href="#DejaVuSans-Bold-53"/>
    <use xlink:href="#DejaVuSans-Bold-65" transform="translate(72.021484 0)"/>
    <use xlink:href="#DejaVuSans-Bold-74" transform="translate(139.84375 0)"/>
    <use xlink:href="#DejaVuSans-Bold-75" transform="translate(187.646484 0)"/>
    <use xlink:href="#DejaVuSans-Bold-70" transform="translate(258.837891 0)"/>
    <use xlink:href="#DejaVuSans-Bold-20" transform="translate(330.419922 0)"/>
    <use xlink:href="#DejaVuSans-Bold-66" transform="translate(365.234375 0)"/>
    <use xlink:href="#DejaVuSans-Bold-69" transform="translate(408.740234 0)"/>
    <use xlink:href="#DejaVuSans-Bold-73" transform="translate(443.017578 0)"/>
    <use xlink:href="#DejaVuSans-Bold-69" transform="translate(502.539062 0)"/>
    <use xlink:href="#DejaVuSans-Bold-63" transform="translate(536.816406 0)"/>
    <use xlink:href="#DejaVuSans-Bold-6f" transform="translate(596.09375 0)"/>
    <use xlink:href="#DejaVuSans-Bold-3a" transform="translate(664.794922 0)"/>
    <use xlink:href="#DejaVuSans-Bold-20" transform="translate(704.785156 0)"/>
    <use xlink:href="#DejaVuSans-Bold-63" transform="translate(739.599609 0)"/>
    <use xlink:href="#DejaVuSans-Bold-61" transform="translate(798.876953 0)"/>
    <use xlink:href="#DejaVuSans-Bold-6e" transform="translate(866.357422 0)"/>
    <use xlink:href="#DejaVuSans-Bold-61" transform="translate(937.548828 0)"/>
    <use xlink:href="#DejaVuSans-Bold-6c" transform="translate(1005.029297 0)"/>
    <use xlink:href="#DejaVuSans-Bold-2c" transform="translate(1039.306641 0)"/>
    <use xlink:href="#DejaVuSans-Bold-20" transform="translate(1077.294922 0)"/>
    <use xlink:href="#DejaVuSans-Bold-70" transform="translate(1112.109375 0)"/>
    <use xlink:href="#DejaVuSans-Bold-6c" transform="translate(1183.691406 0)"/>
    <use xlink:href="#DejaVuSans-Bold-61" transform="translate(1217.96875 0)"/>
    <use xlink:href="#DejaVuSans-Bold-79" transform="translate(1282.324219 0)"/>
    <use xlink:href="#DejaVuSans-Bold-61" transform="translate(1347.509766 0)"/>
    <use xlink:href="#DejaVuSans-Bold-20" transform="translate(1414.990234 0)"/>
    <use xlink:href="#DejaVuSans-Bold-79" transform="translate(1449.804688 0)"/>
    <use xlink:href="#DejaVuSans-Bold-20" transform="translate(1514.990234 0)"/>
    <use xlink:href="#DejaVuSans-Bold-62" transform="translate(1549.804688 0)"/>
    <use xlink:href="#DejaVuSans-Bold-6c" transform="translate(1621.386719 0)"/>
    <use xlink:href="#DejaVuSans-Bold-6f" transform="translate(1655.664062 0)"/>
    <use xlink:href="#DejaVuSans-Bold-71" transform="translate(1724.365234 0)"/>
    <use xlink:href="#DejaVuSans-Bold-75" transform="translate(1795.947266 0)"/>
    <use xlink:href="#DejaVuSans-Bold-65" transform="translate(1867.138672 0)"/>
    <use xlink:href="#DejaVuSans-Bold-20" transform="translate(1934.960938 0)"/>
    <use xlink:href="#DejaVuSans-Bold-69" transform="translate(1969.775391 0)"/>
    <use xlink:href="#DejaVuSans-Bold-72" transform="translate(2004.052734 0)"/>
    <use xlink:href="#DejaVuSans-Bold-72" transform="translate(2053.369141 0)"/>
    <use xlink:href="#DejaVuSans-Bold-65" transform="translate(2102.685547 0)"/>
    <use xlink:href="#DejaVuSans-Bold-67" transform="translate(2170.507812 0)"/>
    <use xlink:href="#DejaVuSans-Bold-75" transform="translate(2242.089844 0)"/>
    <use xlink:href="#DejaVuSans-Bold-6c" transform="translate(2313.28125 0)"/>
    <use xlink:href="#DejaVuSans-Bold-61" transform="translate(2347.558594 0)"/>
    <use xlink:href="#DejaVuSans-Bold-72" transform="translate(2415.039062 0)"/>
   </g>
  </g>
 </g>
 <defs>
  <clipPath id="p685ce4952a">
   <rect x="39.632812" y="109.732859" width="789.566707" height="33.653663"/>
  </clipPath>
  <clipPath id="pd67b33622d">
   <rect x="39.632812" y="247.594537" width="789.566707" height="201.352171"/>
  </clipPath>
 </defs>
</svg>
