<?xml version="1.0" encoding="utf-8" standalone="no"?>
<!DOCTYPE svg PUBLIC "-//W3C//DTD SVG 1.1//EN"
  "http://www.w3.org/Graphics/SVG/1.1/DTD/svg11.dtd">
<svg xmlns:xlink="http://www.w3.org/1999/xlink" width="605.88pt" height="264.96pt" viewBox="0 0 605.88 264.96" xmlns="http://www.w3.org/2000/svg" version="1.1">
 <metadata>
  <rdf:RDF xmlns:dc="http://purl.org/dc/elements/1.1/" xmlns:cc="http://creativecommons.org/ns#" xmlns:rdf="http://www.w3.org/1999/02/22-rdf-syntax-ns#">
   <cc:Work>
    <dc:type rdf:resource="http://purl.org/dc/dcmitype/StillImage"/>
    <dc:date>2026-05-13T14:47:08.618016</dc:date>
    <dc:format>image/svg+xml</dc:format>
    <dc:creator>
     <cc:Agent>
      <dc:title>Matplotlib v3.7.5, https://matplotlib.org/</dc:title>
     </cc:Agent>
    </dc:creator>
   </cc:Work>
  </rdf:RDF>
 </metadata>
 <defs>
  <style type="text/css">*{stroke-linejoin: round; stroke-linecap: butt}</style>
 </defs>
 <g id="figure_1">
  <g id="patch_1">
   <path d="M 0 264.96 
L 605.88 264.96 
L 605.88 0 
L 0 0 
z
" style="fill: #ffffff"/>
  </g>
  <g id="axes_1">
   <g id="patch_2">
    <path d="M 7.2 209.551304 
L 7.2 109.92 
L 160.9848 109.92 
L 184.644 209.551304 
z
" clip-path="url(#p45954e13ad)" style="fill: #9ecae1; opacity: 0.55; stroke: #2b6f9f; stroke-width: 1.5; stroke-linejoin: miter"/>
   </g>
   <g id="patch_3">
    <path d="M 160.9848 209.551304 
L 165.9138 209.551304 
L 165.9138 109.92 
L 160.9848 109.92 
z
" clip-path="url(#p45954e13ad)" style="fill: #5f6c7b; opacity: 0.9"/>
   </g>
   <g id="patch_4">
    <path d="M 180.728658 142.05913 
Q 230.976962 142.05913 278.989198 142.05913 
" clip-path="url(#p45954e13ad)" style="fill: none; stroke: #2b6f9f; stroke-width: 2; stroke-linecap: round"/>
    <path d="M 270.989198 138.05913 
L 278.989198 142.05913 
L 270.989198 146.05913 
" clip-path="url(#p45954e13ad)" style="fill: none; stroke: #2b6f9f; stroke-width: 2; stroke-linecap: round"/>
   </g>
   <g id="patch_5">
    <path d="M 379.8324 119.561739 
L 388.7046 93.850435 
L 402.5058 98.671304 
L 409.80072 127.596522 
L 407.04048 159.735652 
L 392.6478 164.556522 
L 380.8182 146.88 
z
" clip-path="url(#p45954e13ad)" style="fill: #8d6e52; stroke: #4c3a2a; stroke-width: 1.4; stroke-linejoin: miter"/>
   </g>
   <g id="patch_6">
    <path d="M 7.2 251.332174 
L 598.68 251.332174 
L 598.68 232.048696 
L 7.2 232.048696 
z
" clip-path="url(#p45954e13ad)" style="fill: #f4f6f9; stroke: #d8dee8; stroke-linejoin: miter"/>
   </g>
   <g id="line2d_1">
    <path d="M 7.2 209.551304 
L 184.644 209.551304 
L 598.68 40.82087 
" clip-path="url(#p45954e13ad)" style="fill: none; stroke: #3e4854; stroke-width: 2.2; stroke-linecap: square"/>
   </g>
   <g id="line2d_2">
    <path d="M 362.088 137.238261 
L 362.088 84.208696 
" clip-path="url(#p45954e13ad)" style="fill: none; stroke-dasharray: 4.07,1.76; stroke-dashoffset: 0; stroke: #b98524; stroke-width: 1.1"/>
   </g>
   <g id="line2d_3">
    <path d="M 421.236 116.347826 
L 421.236 63.318261 
" clip-path="url(#p45954e13ad)" style="fill: none; stroke-dasharray: 4.07,1.76; stroke-dashoffset: 0; stroke: #b98524; stroke-width: 1.1"/>
   </g>
   <g id="text_1">
    <!-- columna inicial -->
    <g style="fill: #214f75" transform="translate(16.0722 90.214674) scale(0.1 -0.1)">
     <defs>
      <path id="DejaVuSans-63" d="M 3122 3366 
L 3122 2828 
Q 2878 2963 2633 3030 
Q 2388 3097 2138 3097 
Q 1578 3097 1268 2742 
Q 959 2388 959 1747 
Q 959 1106 1268 751 
Q 1578 397 2138 397 
Q 2388 397 2633 464 
Q 2878 531 3122 666 
L 3122 134 
Q 2881 22 2623 -34 
Q 2366 -91 2075 -91 
Q 1284 -91 818 406 
Q 353 903 353 1747 
Q 353 2603 823 3093 
Q 1294 3584 2113 3584 
Q 2378 3584 2631 3529 
Q 2884 3475 3122 3366 
z
" transform="scale(0.015625)"/>
      <path id="DejaVuSans-6f" d="M 1959 3097 
Q 1497 3097 1228 2736 
Q 959 2375 959 1747 
Q 959 1119 1226 758 
Q 1494 397 1959 397 
Q 2419 397 2687 759 
Q 2956 1122 2956 1747 
Q 2956 2369 2687 2733 
Q 2419 3097 1959 3097 
z
M 1959 3584 
Q 2709 3584 3137 3096 
Q 3566 2609 3566 1747 
Q 3566 888 3137 398 
Q 2709 -91 1959 -91 
Q 1206 -91 779 398 
Q 353 888 353 1747 
Q 353 2609 779 3096 
Q 1206 3584 1959 3584 
z
" transform="scale(0.015625)"/>
      <path id="DejaVuSans-6c" d="M 603 4863 
L 1178 4863 
L 1178 0 
L 603 0 
L 603 4863 
z
" transform="scale(0.015625)"/>
      <path id="DejaVuSans-75" d="M 544 1381 
L 544 3500 
L 1119 3500 
L 1119 1403 
Q 1119 906 1312 657 
Q 1506 409 1894 409 
Q 2359 409 2629 706 
Q 2900 1003 2900 1516 
L 2900 3500 
L 3475 3500 
L 3475 0 
L 2900 0 
L 2900 538 
Q 2691 219 2414 64 
Q 2138 -91 1772 -91 
Q 1169 -91 856 284 
Q 544 659 544 1381 
z
M 1991 3584 
L 1991 3584 
z
" transform="scale(0.015625)"/>
      <path id="DejaVuSans-6d" d="M 3328 2828 
Q 3544 3216 3844 3400 
Q 4144 3584 4550 3584 
Q 5097 3584 5394 3201 
Q 5691 2819 5691 2113 
L 5691 0 
L 5113 0 
L 5113 2094 
Q 5113 2597 4934 2840 
Q 4756 3084 4391 3084 
Q 3944 3084 3684 2787 
Q 3425 2491 3425 1978 
L 3425 0 
L 2847 0 
L 2847 2094 
Q 2847 2600 2669 2842 
Q 2491 3084 2119 3084 
Q 1678 3084 1418 2786 
Q 1159 2488 1159 1978 
L 1159 0 
L 581 0 
L 581 3500 
L 1159 3500 
L 1159 2956 
Q 1356 3278 1631 3431 
Q 1906 3584 2284 3584 
Q 2666 3584 2933 3390 
Q 3200 3197 3328 2828 
z
" transform="scale(0.015625)"/>
      <path id="DejaVuSans-6e" d="M 3513 2113 
L 3513 0 
L 2938 0 
L 2938 2094 
Q 2938 2591 2744 2837 
Q 2550 3084 2163 3084 
Q 1697 3084 1428 2787 
Q 1159 2491 1159 1978 
L 1159 0 
L 581 0 
L 581 3500 
L 1159 3500 
L 1159 2956 
Q 1366 3272 1645 3428 
Q 1925 3584 2291 3584 
Q 2894 3584 3203 3211 
Q 3513 2838 3513 2113 
z
" transform="scale(0.015625)"/>
      <path id="DejaVuSans-61" d="M 2194 1759 
Q 1497 1759 1228 1600 
Q 959 1441 959 1056 
Q 959 750 1161 570 
Q 1363 391 1709 391 
Q 2188 391 2477 730 
Q 2766 1069 2766 1631 
L 2766 1759 
L 2194 1759 
z
M 3341 1997 
L 3341 0 
L 2766 0 
L 2766 531 
Q 2569 213 2275 61 
Q 1981 -91 1556 -91 
Q 1019 -91 701 211 
Q 384 513 384 1019 
Q 384 1609 779 1909 
Q 1175 2209 1959 2209 
L 2766 2209 
L 2766 2266 
Q 2766 2663 2505 2880 
Q 2244 3097 1772 3097 
Q 1472 3097 1187 3025 
Q 903 2953 641 2809 
L 641 3341 
Q 956 3463 1253 3523 
Q 1550 3584 1831 3584 
Q 2591 3584 2966 3190 
Q 3341 2797 3341 1997 
z
" transform="scale(0.015625)"/>
      <path id="DejaVuSans-20" transform="scale(0.015625)"/>
      <path id="DejaVuSans-69" d="M 603 3500 
L 1178 3500 
L 1178 0 
L 603 0 
L 603 3500 
z
M 603 4863 
L 1178 4863 
L 1178 4134 
L 603 4134 
L 603 4863 
z
" transform="scale(0.015625)"/>
     </defs>
     <use xlink:href="#DejaVuSans-63"/>
     <use xlink:href="#DejaVuSans-6f" x="54.980469"/>
     <use xlink:href="#DejaVuSans-6c" x="116.162109"/>
     <use xlink:href="#DejaVuSans-75" x="143.945312"/>
     <use xlink:href="#DejaVuSans-6d" x="207.324219"/>
     <use xlink:href="#DejaVuSans-6e" x="304.736328"/>
     <use xlink:href="#DejaVuSans-61" x="368.115234"/>
     <use xlink:href="#DejaVuSans-20" x="429.394531"/>
     <use xlink:href="#DejaVuSans-69" x="461.181641"/>
     <use xlink:href="#DejaVuSans-6e" x="488.964844"/>
     <use xlink:href="#DejaVuSans-69" x="552.34375"/>
     <use xlink:href="#DejaVuSans-63" x="580.126953"/>
     <use xlink:href="#DejaVuSans-69" x="635.107422"/>
     <use xlink:href="#DejaVuSans-61" x="662.890625"/>
     <use xlink:href="#DejaVuSans-6c" x="724.169922"/>
    </g>
    <!-- de agua H=0,20 m -->
    <g style="fill: #214f75" transform="translate(16.0722 101.412486) scale(0.1 -0.1)">
     <defs>
      <path id="DejaVuSans-64" d="M 2906 2969 
L 2906 4863 
L 3481 4863 
L 3481 0 
L 2906 0 
L 2906 525 
Q 2725 213 2448 61 
Q 2172 -91 1784 -91 
Q 1150 -91 751 415 
Q 353 922 353 1747 
Q 353 2572 751 3078 
Q 1150 3584 1784 3584 
Q 2172 3584 2448 3432 
Q 2725 3281 2906 2969 
z
M 947 1747 
Q 947 1113 1208 752 
Q 1469 391 1925 391 
Q 2381 391 2643 752 
Q 2906 1113 2906 1747 
Q 2906 2381 2643 2742 
Q 2381 3103 1925 3103 
Q 1469 3103 1208 2742 
Q 947 2381 947 1747 
z
" transform="scale(0.015625)"/>
      <path id="DejaVuSans-65" d="M 3597 1894 
L 3597 1613 
L 953 1613 
Q 991 1019 1311 708 
Q 1631 397 2203 397 
Q 2534 397 2845 478 
Q 3156 559 3463 722 
L 3463 178 
Q 3153 47 2828 -22 
Q 2503 -91 2169 -91 
Q 1331 -91 842 396 
Q 353 884 353 1716 
Q 353 2575 817 3079 
Q 1281 3584 2069 3584 
Q 2775 3584 3186 3129 
Q 3597 2675 3597 1894 
z
M 3022 2063 
Q 3016 2534 2758 2815 
Q 2500 3097 2075 3097 
Q 1594 3097 1305 2825 
Q 1016 2553 972 2059 
L 3022 2063 
z
" transform="scale(0.015625)"/>
      <path id="DejaVuSans-67" d="M 2906 1791 
Q 2906 2416 2648 2759 
Q 2391 3103 1925 3103 
Q 1463 3103 1205 2759 
Q 947 2416 947 1791 
Q 947 1169 1205 825 
Q 1463 481 1925 481 
Q 2391 481 2648 825 
Q 2906 1169 2906 1791 
z
M 3481 434 
Q 3481 -459 3084 -895 
Q 2688 -1331 1869 -1331 
Q 1566 -1331 1297 -1286 
Q 1028 -1241 775 -1147 
L 775 -588 
Q 1028 -725 1275 -790 
Q 1522 -856 1778 -856 
Q 2344 -856 2625 -561 
Q 2906 -266 2906 331 
L 2906 616 
Q 2728 306 2450 153 
Q 2172 0 1784 0 
Q 1141 0 747 490 
Q 353 981 353 1791 
Q 353 2603 747 3093 
Q 1141 3584 1784 3584 
Q 2172 3584 2450 3431 
Q 2728 3278 2906 2969 
L 2906 3500 
L 3481 3500 
L 3481 434 
z
" transform="scale(0.015625)"/>
      <path id="DejaVuSans-48" d="M 628 4666 
L 1259 4666 
L 1259 2753 
L 3553 2753 
L 3553 4666 
L 4184 4666 
L 4184 0 
L 3553 0 
L 3553 2222 
L 1259 2222 
L 1259 0 
L 628 0 
L 628 4666 
z
" transform="scale(0.015625)"/>
      <path id="DejaVuSans-3d" d="M 678 2906 
L 4684 2906 
L 4684 2381 
L 678 2381 
L 678 2906 
z
M 678 1631 
L 4684 1631 
L 4684 1100 
L 678 1100 
L 678 1631 
z
" transform="scale(0.015625)"/>
      <path id="DejaVuSans-30" d="M 2034 4250 
Q 1547 4250 1301 3770 
Q 1056 3291 1056 2328 
Q 1056 1369 1301 889 
Q 1547 409 2034 409 
Q 2525 409 2770 889 
Q 3016 1369 3016 2328 
Q 3016 3291 2770 3770 
Q 2525 4250 2034 4250 
z
M 2034 4750 
Q 2819 4750 3233 4129 
Q 3647 3509 3647 2328 
Q 3647 1150 3233 529 
Q 2819 -91 2034 -91 
Q 1250 -91 836 529 
Q 422 1150 422 2328 
Q 422 3509 836 4129 
Q 1250 4750 2034 4750 
z
" transform="scale(0.015625)"/>
      <path id="DejaVuSans-2c" d="M 750 794 
L 1409 794 
L 1409 256 
L 897 -744 
L 494 -744 
L 750 256 
L 750 794 
z
" transform="scale(0.015625)"/>
      <path id="DejaVuSans-32" d="M 1228 531 
L 3431 531 
L 3431 0 
L 469 0 
L 469 531 
Q 828 903 1448 1529 
Q 2069 2156 2228 2338 
Q 2531 2678 2651 2914 
Q 2772 3150 2772 3378 
Q 2772 3750 2511 3984 
Q 2250 4219 1831 4219 
Q 1534 4219 1204 4116 
Q 875 4013 500 3803 
L 500 4441 
Q 881 4594 1212 4672 
Q 1544 4750 1819 4750 
Q 2544 4750 2975 4387 
Q 3406 4025 3406 3419 
Q 3406 3131 3298 2873 
Q 3191 2616 2906 2266 
Q 2828 2175 2409 1742 
Q 1991 1309 1228 531 
z
" transform="scale(0.015625)"/>
     </defs>
     <use xlink:href="#DejaVuSans-64"/>
     <use xlink:href="#DejaVuSans-65" x="63.476562"/>
     <use xlink:href="#DejaVuSans-20" x="125"/>
     <use xlink:href="#DejaVuSans-61" x="156.787109"/>
     <use xlink:href="#DejaVuSans-67" x="218.066406"/>
     <use xlink:href="#DejaVuSans-75" x="281.542969"/>
     <use xlink:href="#DejaVuSans-61" x="344.921875"/>
     <use xlink:href="#DejaVuSans-20" x="406.201172"/>
     <use xlink:href="#DejaVuSans-48" x="437.988281"/>
     <use xlink:href="#DejaVuSans-3d" x="513.183594"/>
     <use xlink:href="#DejaVuSans-30" x="596.972656"/>
     <use xlink:href="#DejaVuSans-2c" x="660.595703"/>
     <use xlink:href="#DejaVuSans-32" x="692.382812"/>
     <use xlink:href="#DejaVuSans-30" x="756.005859"/>
     <use xlink:href="#DejaVuSans-20" x="819.628906"/>
     <use xlink:href="#DejaVuSans-6d" x="851.416016"/>
    </g>
   </g>
   <g id="text_2">
    <!-- compuerta -->
    <g style="fill: #536171" transform="translate(130.3701 186.073652) scale(0.08 -0.08)">
     <defs>
      <path id="DejaVuSans-70" d="M 1159 525 
L 1159 -1331 
L 581 -1331 
L 581 3500 
L 1159 3500 
L 1159 2969 
Q 1341 3281 1617 3432 
Q 1894 3584 2278 3584 
Q 2916 3584 3314 3078 
Q 3713 2572 3713 1747 
Q 3713 922 3314 415 
Q 2916 -91 2278 -91 
Q 1894 -91 1617 61 
Q 1341 213 1159 525 
z
M 3116 1747 
Q 3116 2381 2855 2742 
Q 2594 3103 2138 3103 
Q 1681 3103 1420 2742 
Q 1159 2381 1159 1747 
Q 1159 1113 1420 752 
Q 1681 391 2138 391 
Q 2594 391 2855 752 
Q 3116 1113 3116 1747 
z
" transform="scale(0.015625)"/>
      <path id="DejaVuSans-72" d="M 2631 2963 
Q 2534 3019 2420 3045 
Q 2306 3072 2169 3072 
Q 1681 3072 1420 2755 
Q 1159 2438 1159 1844 
L 1159 0 
L 581 0 
L 581 3500 
L 1159 3500 
L 1159 2956 
Q 1341 3275 1631 3429 
Q 1922 3584 2338 3584 
Q 2397 3584 2469 3576 
Q 2541 3569 2628 3553 
L 2631 2963 
z
" transform="scale(0.015625)"/>
      <path id="DejaVuSans-74" d="M 1172 4494 
L 1172 3500 
L 2356 3500 
L 2356 3053 
L 1172 3053 
L 1172 1153 
Q 1172 725 1289 603 
Q 1406 481 1766 481 
L 2356 481 
L 2356 0 
L 1766 0 
Q 1100 0 847 248 
Q 594 497 594 1153 
L 594 3053 
L 172 3053 
L 172 3500 
L 594 3500 
L 594 4494 
L 1172 4494 
z
" transform="scale(0.015625)"/>
     </defs>
     <use xlink:href="#DejaVuSans-63"/>
     <use xlink:href="#DejaVuSans-6f" x="54.980469"/>
     <use xlink:href="#DejaVuSans-6d" x="116.162109"/>
     <use xlink:href="#DejaVuSans-70" x="213.574219"/>
     <use xlink:href="#DejaVuSans-75" x="277.050781"/>
     <use xlink:href="#DejaVuSans-65" x="340.429688"/>
     <use xlink:href="#DejaVuSans-72" x="401.953125"/>
     <use xlink:href="#DejaVuSans-74" x="443.066406"/>
     <use xlink:href="#DejaVuSans-61" x="482.275391"/>
    </g>
    <!-- idealizada -->
    <g style="fill: #536171" transform="translate(131.785725 195.031902) scale(0.08 -0.08)">
     <defs>
      <path id="DejaVuSans-7a" d="M 353 3500 
L 3084 3500 
L 3084 2975 
L 922 459 
L 3084 459 
L 3084 0 
L 275 0 
L 275 525 
L 2438 3041 
L 353 3041 
L 353 3500 
z
" transform="scale(0.015625)"/>
     </defs>
     <use xlink:href="#DejaVuSans-69"/>
     <use xlink:href="#DejaVuSans-64" x="27.783203"/>
     <use xlink:href="#DejaVuSans-65" x="91.259766"/>
     <use xlink:href="#DejaVuSans-61" x="152.783203"/>
     <use xlink:href="#DejaVuSans-6c" x="214.0625"/>
     <use xlink:href="#DejaVuSans-69" x="241.845703"/>
     <use xlink:href="#DejaVuSans-7a" x="269.628906"/>
     <use xlink:href="#DejaVuSans-61" x="322.119141"/>
     <use xlink:href="#DejaVuSans-64" x="383.398438"/>
     <use xlink:href="#DejaVuSans-61" x="446.875"/>
    </g>
   </g>
   <g id="text_3">
    <!-- flujo transitorio tipo dam-break -->
    <g style="fill: #2b6f9f" transform="translate(204.36 130.810435) scale(0.1 -0.1)">
     <defs>
      <path id="DejaVuSans-66" d="M 2375 4863 
L 2375 4384 
L 1825 4384 
Q 1516 4384 1395 4259 
Q 1275 4134 1275 3809 
L 1275 3500 
L 2222 3500 
L 2222 3053 
L 1275 3053 
L 1275 0 
L 697 0 
L 697 3053 
L 147 3053 
L 147 3500 
L 697 3500 
L 697 3744 
Q 697 4328 969 4595 
Q 1241 4863 1831 4863 
L 2375 4863 
z
" transform="scale(0.015625)"/>
      <path id="DejaVuSans-6a" d="M 603 3500 
L 1178 3500 
L 1178 -63 
Q 1178 -731 923 -1031 
Q 669 -1331 103 -1331 
L -116 -1331 
L -116 -844 
L 38 -844 
Q 366 -844 484 -692 
Q 603 -541 603 -63 
L 603 3500 
z
M 603 4863 
L 1178 4863 
L 1178 4134 
L 603 4134 
L 603 4863 
z
" transform="scale(0.015625)"/>
      <path id="DejaVuSans-73" d="M 2834 3397 
L 2834 2853 
Q 2591 2978 2328 3040 
Q 2066 3103 1784 3103 
Q 1356 3103 1142 2972 
Q 928 2841 928 2578 
Q 928 2378 1081 2264 
Q 1234 2150 1697 2047 
L 1894 2003 
Q 2506 1872 2764 1633 
Q 3022 1394 3022 966 
Q 3022 478 2636 193 
Q 2250 -91 1575 -91 
Q 1294 -91 989 -36 
Q 684 19 347 128 
L 347 722 
Q 666 556 975 473 
Q 1284 391 1588 391 
Q 1994 391 2212 530 
Q 2431 669 2431 922 
Q 2431 1156 2273 1281 
Q 2116 1406 1581 1522 
L 1381 1569 
Q 847 1681 609 1914 
Q 372 2147 372 2553 
Q 372 3047 722 3315 
Q 1072 3584 1716 3584 
Q 2034 3584 2315 3537 
Q 2597 3491 2834 3397 
z
" transform="scale(0.015625)"/>
      <path id="DejaVuSans-2d" d="M 313 2009 
L 1997 2009 
L 1997 1497 
L 313 1497 
L 313 2009 
z
" transform="scale(0.015625)"/>
      <path id="DejaVuSans-62" d="M 3116 1747 
Q 3116 2381 2855 2742 
Q 2594 3103 2138 3103 
Q 1681 3103 1420 2742 
Q 1159 2381 1159 1747 
Q 1159 1113 1420 752 
Q 1681 391 2138 391 
Q 2594 391 2855 752 
Q 3116 1113 3116 1747 
z
M 1159 2969 
Q 1341 3281 1617 3432 
Q 1894 3584 2278 3584 
Q 2916 3584 3314 3078 
Q 3713 2572 3713 1747 
Q 3713 922 3314 415 
Q 2916 -91 2278 -91 
Q 1894 -91 1617 61 
Q 1341 213 1159 525 
L 1159 0 
L 581 0 
L 581 4863 
L 1159 4863 
L 1159 2969 
z
" transform="scale(0.015625)"/>
      <path id="DejaVuSans-6b" d="M 581 4863 
L 1159 4863 
L 1159 1991 
L 2875 3500 
L 3609 3500 
L 1753 1863 
L 3688 0 
L 2938 0 
L 1159 1709 
L 1159 0 
L 581 0 
L 581 4863 
z
" transform="scale(0.015625)"/>
     </defs>
     <use xlink:href="#DejaVuSans-66"/>
     <use xlink:href="#DejaVuSans-6c" x="35.205078"/>
     <use xlink:href="#DejaVuSans-75" x="62.988281"/>
     <use xlink:href="#DejaVuSans-6a" x="126.367188"/>
     <use xlink:href="#DejaVuSans-6f" x="154.150391"/>
     <use xlink:href="#DejaVuSans-20" x="215.332031"/>
     <use xlink:href="#DejaVuSans-74" x="247.119141"/>
     <use xlink:href="#DejaVuSans-72" x="286.328125"/>
     <use xlink:href="#DejaVuSans-61" x="327.441406"/>
     <use xlink:href="#DejaVuSans-6e" x="388.720703"/>
     <use xlink:href="#DejaVuSans-73" x="452.099609"/>
     <use xlink:href="#DejaVuSans-69" x="504.199219"/>
     <use xlink:href="#DejaVuSans-74" x="531.982422"/>
     <use xlink:href="#DejaVuSans-6f" x="571.191406"/>
     <use xlink:href="#DejaVuSans-72" x="632.373047"/>
     <use xlink:href="#DejaVuSans-69" x="673.486328"/>
     <use xlink:href="#DejaVuSans-6f" x="701.269531"/>
     <use xlink:href="#DejaVuSans-20" x="762.451172"/>
     <use xlink:href="#DejaVuSans-74" x="794.238281"/>
     <use xlink:href="#DejaVuSans-69" x="833.447266"/>
     <use xlink:href="#DejaVuSans-70" x="861.230469"/>
     <use xlink:href="#DejaVuSans-6f" x="924.707031"/>
     <use xlink:href="#DejaVuSans-20" x="985.888672"/>
     <use xlink:href="#DejaVuSans-64" x="1017.675781"/>
     <use xlink:href="#DejaVuSans-61" x="1081.152344"/>
     <use xlink:href="#DejaVuSans-6d" x="1142.431641"/>
     <use xlink:href="#DejaVuSans-2d" x="1239.84375"/>
     <use xlink:href="#DejaVuSans-62" x="1275.927734"/>
     <use xlink:href="#DejaVuSans-72" x="1339.404297"/>
     <use xlink:href="#DejaVuSans-65" x="1378.267578"/>
     <use xlink:href="#DejaVuSans-61" x="1439.791016"/>
     <use xlink:href="#DejaVuSans-6b" x="1501.070312"/>
    </g>
   </g>
   <g id="text_4">
    <!-- bloque BLIR3 -->
    <g style="fill: #4c3a2a" transform="translate(365.924887 74.130664) scale(0.09 -0.09)">
     <defs>
      <path id="DejaVuSans-71" d="M 947 1747 
Q 947 1113 1208 752 
Q 1469 391 1925 391 
Q 2381 391 2643 752 
Q 2906 1113 2906 1747 
Q 2906 2381 2643 2742 
Q 2381 3103 1925 3103 
Q 1469 3103 1208 2742 
Q 947 2381 947 1747 
z
M 2906 525 
Q 2725 213 2448 61 
Q 2172 -91 1784 -91 
Q 1150 -91 751 415 
Q 353 922 353 1747 
Q 353 2572 751 3078 
Q 1150 3584 1784 3584 
Q 2172 3584 2448 3432 
Q 2725 3281 2906 2969 
L 2906 3500 
L 3481 3500 
L 3481 -1331 
L 2906 -1331 
L 2906 525 
z
" transform="scale(0.015625)"/>
      <path id="DejaVuSans-42" d="M 1259 2228 
L 1259 519 
L 2272 519 
Q 2781 519 3026 730 
Q 3272 941 3272 1375 
Q 3272 1813 3026 2020 
Q 2781 2228 2272 2228 
L 1259 2228 
z
M 1259 4147 
L 1259 2741 
L 2194 2741 
Q 2656 2741 2882 2914 
Q 3109 3088 3109 3444 
Q 3109 3797 2882 3972 
Q 2656 4147 2194 4147 
L 1259 4147 
z
M 628 4666 
L 2241 4666 
Q 2963 4666 3353 4366 
Q 3744 4066 3744 3513 
Q 3744 3084 3544 2831 
Q 3344 2578 2956 2516 
Q 3422 2416 3680 2098 
Q 3938 1781 3938 1306 
Q 3938 681 3513 340 
Q 3088 0 2303 0 
L 628 0 
L 628 4666 
z
" transform="scale(0.015625)"/>
      <path id="DejaVuSans-4c" d="M 628 4666 
L 1259 4666 
L 1259 531 
L 3531 531 
L 3531 0 
L 628 0 
L 628 4666 
z
" transform="scale(0.015625)"/>
      <path id="DejaVuSans-49" d="M 628 4666 
L 1259 4666 
L 1259 0 
L 628 0 
L 628 4666 
z
" transform="scale(0.015625)"/>
      <path id="DejaVuSans-52" d="M 2841 2188 
Q 3044 2119 3236 1894 
Q 3428 1669 3622 1275 
L 4263 0 
L 3584 0 
L 2988 1197 
Q 2756 1666 2539 1819 
Q 2322 1972 1947 1972 
L 1259 1972 
L 1259 0 
L 628 0 
L 628 4666 
L 2053 4666 
Q 2853 4666 3247 4331 
Q 3641 3997 3641 3322 
Q 3641 2881 3436 2590 
Q 3231 2300 2841 2188 
z
M 1259 4147 
L 1259 2491 
L 2053 2491 
Q 2509 2491 2742 2702 
Q 2975 2913 2975 3322 
Q 2975 3731 2742 3939 
Q 2509 4147 2053 4147 
L 1259 4147 
z
" transform="scale(0.015625)"/>
      <path id="DejaVuSans-33" d="M 2597 2516 
Q 3050 2419 3304 2112 
Q 3559 1806 3559 1356 
Q 3559 666 3084 287 
Q 2609 -91 1734 -91 
Q 1441 -91 1130 -33 
Q 819 25 488 141 
L 488 750 
Q 750 597 1062 519 
Q 1375 441 1716 441 
Q 2309 441 2620 675 
Q 2931 909 2931 1356 
Q 2931 1769 2642 2001 
Q 2353 2234 1838 2234 
L 1294 2234 
L 1294 2753 
L 1863 2753 
Q 2328 2753 2575 2939 
Q 2822 3125 2822 3475 
Q 2822 3834 2567 4026 
Q 2313 4219 1838 4219 
Q 1578 4219 1281 4162 
Q 984 4106 628 3988 
L 628 4550 
Q 988 4650 1302 4700 
Q 1616 4750 1894 4750 
Q 2613 4750 3031 4423 
Q 3450 4097 3450 3541 
Q 3450 3153 3228 2886 
Q 3006 2619 2597 2516 
z
" transform="scale(0.015625)"/>
     </defs>
     <use xlink:href="#DejaVuSans-62"/>
     <use xlink:href="#DejaVuSans-6c" x="63.476562"/>
     <use xlink:href="#DejaVuSans-6f" x="91.259766"/>
     <use xlink:href="#DejaVuSans-71" x="152.441406"/>
     <use xlink:href="#DejaVuSans-75" x="215.917969"/>
     <use xlink:href="#DejaVuSans-65" x="279.296875"/>
     <use xlink:href="#DejaVuSans-20" x="340.820312"/>
     <use xlink:href="#DejaVuSans-42" x="372.607422"/>
     <use xlink:href="#DejaVuSans-4c" x="441.210938"/>
     <use xlink:href="#DejaVuSans-49" x="496.923828"/>
     <use xlink:href="#DejaVuSans-52" x="526.416016"/>
     <use xlink:href="#DejaVuSans-33" x="595.898438"/>
    </g>
    <!-- m=1,0 kg -->
    <g style="fill: #4c3a2a" transform="translate(373.401919 84.208696) scale(0.09 -0.09)">
     <defs>
      <path id="DejaVuSans-31" d="M 794 531 
L 1825 531 
L 1825 4091 
L 703 3866 
L 703 4441 
L 1819 4666 
L 2450 4666 
L 2450 531 
L 3481 531 
L 3481 0 
L 794 0 
L 794 531 
z
" transform="scale(0.015625)"/>
     </defs>
     <use xlink:href="#DejaVuSans-6d"/>
     <use xlink:href="#DejaVuSans-3d" x="97.412109"/>
     <use xlink:href="#DejaVuSans-31" x="181.201172"/>
     <use xlink:href="#DejaVuSans-2c" x="244.824219"/>
     <use xlink:href="#DejaVuSans-30" x="276.611328"/>
     <use xlink:href="#DejaVuSans-20" x="340.234375"/>
     <use xlink:href="#DejaVuSans-6b" x="372.021484"/>
     <use xlink:href="#DejaVuSans-67" x="429.931641"/>
    </g>
   </g>
   <g id="text_5">
    <!-- gauge -->
    <g style="fill: #7a5915" transform="translate(340.68955 59.18088) scale(0.08 -0.08)">
     <use xlink:href="#DejaVuSans-67"/>
     <use xlink:href="#DejaVuSans-61" x="63.476562"/>
     <use xlink:href="#DejaVuSans-75" x="124.755859"/>
     <use xlink:href="#DejaVuSans-67" x="188.134766"/>
     <use xlink:href="#DejaVuSans-65" x="251.611328"/>
    </g>
    <!-- aguas arriba -->
    <g style="fill: #7a5915" transform="translate(328.11205 68.13913) scale(0.08 -0.08)">
     <use xlink:href="#DejaVuSans-61"/>
     <use xlink:href="#DejaVuSans-67" x="61.279297"/>
     <use xlink:href="#DejaVuSans-75" x="124.755859"/>
     <use xlink:href="#DejaVuSans-61" x="188.134766"/>
     <use xlink:href="#DejaVuSans-73" x="249.414062"/>
     <use xlink:href="#DejaVuSans-20" x="301.513672"/>
     <use xlink:href="#DejaVuSans-61" x="333.300781"/>
     <use xlink:href="#DejaVuSans-72" x="394.580078"/>
     <use xlink:href="#DejaVuSans-72" x="433.943359"/>
     <use xlink:href="#DejaVuSans-69" x="475.056641"/>
     <use xlink:href="#DejaVuSans-62" x="502.839844"/>
     <use xlink:href="#DejaVuSans-61" x="566.316406"/>
    </g>
   </g>
   <g id="text_6">
    <!-- gauge -->
    <g style="fill: #7a5915" transform="translate(421.52515 39.897402) scale(0.08 -0.08)">
     <use xlink:href="#DejaVuSans-67"/>
     <use xlink:href="#DejaVuSans-61" x="63.476562"/>
     <use xlink:href="#DejaVuSans-75" x="124.755859"/>
     <use xlink:href="#DejaVuSans-67" x="188.134766"/>
     <use xlink:href="#DejaVuSans-65" x="251.611328"/>
    </g>
    <!-- bloque/salida -->
    <g style="fill: #7a5915" transform="translate(407.322025 48.855652) scale(0.08 -0.08)">
     <defs>
      <path id="DejaVuSans-2f" d="M 1625 4666 
L 2156 4666 
L 531 -594 
L 0 -594 
L 1625 4666 
z
" transform="scale(0.015625)"/>
     </defs>
     <use xlink:href="#DejaVuSans-62"/>
     <use xlink:href="#DejaVuSans-6c" x="63.476562"/>
     <use xlink:href="#DejaVuSans-6f" x="91.259766"/>
     <use xlink:href="#DejaVuSans-71" x="152.441406"/>
     <use xlink:href="#DejaVuSans-75" x="215.917969"/>
     <use xlink:href="#DejaVuSans-65" x="279.296875"/>
     <use xlink:href="#DejaVuSans-2f" x="340.820312"/>
     <use xlink:href="#DejaVuSans-73" x="374.511719"/>
     <use xlink:href="#DejaVuSans-61" x="426.611328"/>
     <use xlink:href="#DejaVuSans-6c" x="487.890625"/>
     <use xlink:href="#DejaVuSans-69" x="515.673828"/>
     <use xlink:href="#DejaVuSans-64" x="543.457031"/>
     <use xlink:href="#DejaVuSans-61" x="606.933594"/>
    </g>
   </g>
   <g id="text_7">
    <!-- playa/canal con pendiente 1:20 -->
    <g style="fill: #3e4854" transform="translate(287.498639 193.483719) rotate(-2.5) scale(0.1 -0.1)">
     <defs>
      <path id="DejaVuSans-79" d="M 2059 -325 
Q 1816 -950 1584 -1140 
Q 1353 -1331 966 -1331 
L 506 -1331 
L 506 -850 
L 844 -850 
Q 1081 -850 1212 -737 
Q 1344 -625 1503 -206 
L 1606 56 
L 191 3500 
L 800 3500 
L 1894 763 
L 2988 3500 
L 3597 3500 
L 2059 -325 
z
" transform="scale(0.015625)"/>
      <path id="DejaVuSans-3a" d="M 750 794 
L 1409 794 
L 1409 0 
L 750 0 
L 750 794 
z
M 750 3309 
L 1409 3309 
L 1409 2516 
L 750 2516 
L 750 3309 
z
" transform="scale(0.015625)"/>
     </defs>
     <use xlink:href="#DejaVuSans-70"/>
     <use xlink:href="#DejaVuSans-6c" x="63.476562"/>
     <use xlink:href="#DejaVuSans-61" x="91.259766"/>
     <use xlink:href="#DejaVuSans-79" x="152.539062"/>
     <use xlink:href="#DejaVuSans-61" x="211.71875"/>
     <use xlink:href="#DejaVuSans-2f" x="272.998047"/>
     <use xlink:href="#DejaVuSans-63" x="306.689453"/>
     <use xlink:href="#DejaVuSans-61" x="361.669922"/>
     <use xlink:href="#DejaVuSans-6e" x="422.949219"/>
     <use xlink:href="#DejaVuSans-61" x="486.328125"/>
     <use xlink:href="#DejaVuSans-6c" x="547.607422"/>
     <use xlink:href="#DejaVuSans-20" x="575.390625"/>
     <use xlink:href="#DejaVuSans-63" x="607.177734"/>
     <use xlink:href="#DejaVuSans-6f" x="662.158203"/>
     <use xlink:href="#DejaVuSans-6e" x="723.339844"/>
     <use xlink:href="#DejaVuSans-20" x="786.71875"/>
     <use xlink:href="#DejaVuSans-70" x="818.505859"/>
     <use xlink:href="#DejaVuSans-65" x="881.982422"/>
     <use xlink:href="#DejaVuSans-6e" x="943.505859"/>
     <use xlink:href="#DejaVuSans-64" x="1006.884766"/>
     <use xlink:href="#DejaVuSans-69" x="1070.361328"/>
     <use xlink:href="#DejaVuSans-65" x="1098.144531"/>
     <use xlink:href="#DejaVuSans-6e" x="1159.667969"/>
     <use xlink:href="#DejaVuSans-74" x="1223.046875"/>
     <use xlink:href="#DejaVuSans-65" x="1262.255859"/>
     <use xlink:href="#DejaVuSans-20" x="1323.779297"/>
     <use xlink:href="#DejaVuSans-31" x="1355.566406"/>
     <use xlink:href="#DejaVuSans-3a" x="1419.189453"/>
     <use xlink:href="#DejaVuSans-32" x="1452.880859"/>
     <use xlink:href="#DejaVuSans-30" x="1516.503906"/>
    </g>
   </g>
   <g id="text_8">
    <!-- dp variable: -->
    <g style="fill: #17202a" transform="translate(462.6396 63.369144) scale(0.1 -0.1)">
     <defs>
      <path id="DejaVuSans-76" d="M 191 3500 
L 800 3500 
L 1894 563 
L 2988 3500 
L 3597 3500 
L 2284 0 
L 1503 0 
L 191 3500 
z
" transform="scale(0.015625)"/>
     </defs>
     <use xlink:href="#DejaVuSans-64"/>
     <use xlink:href="#DejaVuSans-70" x="63.476562"/>
     <use xlink:href="#DejaVuSans-20" x="126.953125"/>
     <use xlink:href="#DejaVuSans-76" x="158.740234"/>
     <use xlink:href="#DejaVuSans-61" x="217.919922"/>
     <use xlink:href="#DejaVuSans-72" x="279.199219"/>
     <use xlink:href="#DejaVuSans-69" x="320.3125"/>
     <use xlink:href="#DejaVuSans-61" x="348.095703"/>
     <use xlink:href="#DejaVuSans-62" x="409.375"/>
     <use xlink:href="#DejaVuSans-6c" x="472.851562"/>
     <use xlink:href="#DejaVuSans-65" x="500.634766"/>
     <use xlink:href="#DejaVuSans-3a" x="562.158203"/>
    </g>
    <!-- 0,010 a 0,002 m -->
    <g style="fill: #17202a" transform="translate(462.6396 74.566957) scale(0.1 -0.1)">
     <use xlink:href="#DejaVuSans-30"/>
     <use xlink:href="#DejaVuSans-2c" x="63.623047"/>
     <use xlink:href="#DejaVuSans-30" x="95.410156"/>
     <use xlink:href="#DejaVuSans-31" x="159.033203"/>
     <use xlink:href="#DejaVuSans-30" x="222.65625"/>
     <use xlink:href="#DejaVuSans-20" x="286.279297"/>
     <use xlink:href="#DejaVuSans-61" x="318.066406"/>
     <use xlink:href="#DejaVuSans-20" x="379.345703"/>
     <use xlink:href="#DejaVuSans-30" x="411.132812"/>
     <use xlink:href="#DejaVuSans-2c" x="474.755859"/>
     <use xlink:href="#DejaVuSans-30" x="506.542969"/>
     <use xlink:href="#DejaVuSans-30" x="570.166016"/>
     <use xlink:href="#DejaVuSans-32" x="633.789062"/>
     <use xlink:href="#DejaVuSans-20" x="697.412109"/>
     <use xlink:href="#DejaVuSans-6d" x="729.199219"/>
    </g>
   </g>
   <g id="text_9">
    <!-- se mantiene fijo: -->
    <g style="fill: #536171" transform="translate(462.6396 95.505159) scale(0.09 -0.09)">
     <use xlink:href="#DejaVuSans-73"/>
     <use xlink:href="#DejaVuSans-65" x="52.099609"/>
     <use xlink:href="#DejaVuSans-20" x="113.623047"/>
     <use xlink:href="#DejaVuSans-6d" x="145.410156"/>
     <use xlink:href="#DejaVuSans-61" x="242.822266"/>
     <use xlink:href="#DejaVuSans-6e" x="304.101562"/>
     <use xlink:href="#DejaVuSans-74" x="367.480469"/>
     <use xlink:href="#DejaVuSans-69" x="406.689453"/>
     <use xlink:href="#DejaVuSans-65" x="434.472656"/>
     <use xlink:href="#DejaVuSans-6e" x="495.996094"/>
     <use xlink:href="#DejaVuSans-65" x="559.375"/>
     <use xlink:href="#DejaVuSans-20" x="620.898438"/>
     <use xlink:href="#DejaVuSans-66" x="652.685547"/>
     <use xlink:href="#DejaVuSans-69" x="687.890625"/>
     <use xlink:href="#DejaVuSans-6a" x="715.673828"/>
     <use xlink:href="#DejaVuSans-6f" x="743.457031"/>
     <use xlink:href="#DejaVuSans-3a" x="804.638672"/>
    </g>
    <!-- H=0,20 m, m=1,0 kg, -->
    <g style="fill: #536171" transform="translate(462.6396 105.58319) scale(0.09 -0.09)">
     <use xlink:href="#DejaVuSans-48"/>
     <use xlink:href="#DejaVuSans-3d" x="75.195312"/>
     <use xlink:href="#DejaVuSans-30" x="158.984375"/>
     <use xlink:href="#DejaVuSans-2c" x="222.607422"/>
     <use xlink:href="#DejaVuSans-32" x="254.394531"/>
     <use xlink:href="#DejaVuSans-30" x="318.017578"/>
     <use xlink:href="#DejaVuSans-20" x="381.640625"/>
     <use xlink:href="#DejaVuSans-6d" x="413.427734"/>
     <use xlink:href="#DejaVuSans-2c" x="510.839844"/>
     <use xlink:href="#DejaVuSans-20" x="542.626953"/>
     <use xlink:href="#DejaVuSans-6d" x="574.414062"/>
     <use xlink:href="#DejaVuSans-3d" x="671.826172"/>
     <use xlink:href="#DejaVuSans-31" x="755.615234"/>
     <use xlink:href="#DejaVuSans-2c" x="819.238281"/>
     <use xlink:href="#DejaVuSans-30" x="851.025391"/>
     <use xlink:href="#DejaVuSans-20" x="914.648438"/>
     <use xlink:href="#DejaVuSans-6b" x="946.435547"/>
     <use xlink:href="#DejaVuSans-67" x="1004.345703"/>
     <use xlink:href="#DejaVuSans-2c" x="1067.822266"/>
    </g>
    <!-- μ=0,50, rot_z=0°, -->
    <g style="fill: #536171" transform="translate(462.6396 115.661221) scale(0.09 -0.09)">
     <defs>
      <path id="DejaVuSans-3bc" d="M 544 -1331 
L 544 3500 
L 1119 3500 
L 1119 1325 
Q 1119 872 1334 640 
Q 1550 409 1972 409 
Q 2434 409 2667 671 
Q 2900 934 2900 1459 
L 2900 3500 
L 3475 3500 
L 3475 806 
Q 3475 619 3529 530 
Q 3584 441 3700 441 
Q 3728 441 3778 458 
Q 3828 475 3916 513 
L 3916 50 
Q 3788 -22 3673 -56 
Q 3559 -91 3450 -91 
Q 3234 -91 3106 31 
Q 2978 153 2931 403 
Q 2775 156 2548 32 
Q 2322 -91 2016 -91 
Q 1697 -91 1473 31 
Q 1250 153 1119 397 
L 1119 -1331 
L 544 -1331 
z
" transform="scale(0.015625)"/>
      <path id="DejaVuSans-35" d="M 691 4666 
L 3169 4666 
L 3169 4134 
L 1269 4134 
L 1269 2991 
Q 1406 3038 1543 3061 
Q 1681 3084 1819 3084 
Q 2600 3084 3056 2656 
Q 3513 2228 3513 1497 
Q 3513 744 3044 326 
Q 2575 -91 1722 -91 
Q 1428 -91 1123 -41 
Q 819 9 494 109 
L 494 744 
Q 775 591 1075 516 
Q 1375 441 1709 441 
Q 2250 441 2565 725 
Q 2881 1009 2881 1497 
Q 2881 1984 2565 2268 
Q 2250 2553 1709 2553 
Q 1456 2553 1204 2497 
Q 953 2441 691 2322 
L 691 4666 
z
" transform="scale(0.015625)"/>
      <path id="DejaVuSans-5f" d="M 3263 -1063 
L 3263 -1509 
L -63 -1509 
L -63 -1063 
L 3263 -1063 
z
" transform="scale(0.015625)"/>
      <path id="DejaVuSans-b0" d="M 1600 4347 
Q 1350 4347 1178 4173 
Q 1006 4000 1006 3750 
Q 1006 3503 1178 3333 
Q 1350 3163 1600 3163 
Q 1850 3163 2022 3333 
Q 2194 3503 2194 3750 
Q 2194 3997 2020 4172 
Q 1847 4347 1600 4347 
z
M 1600 4750 
Q 1800 4750 1984 4673 
Q 2169 4597 2303 4453 
Q 2447 4313 2519 4134 
Q 2591 3956 2591 3750 
Q 2591 3338 2302 3052 
Q 2013 2766 1594 2766 
Q 1172 2766 890 3047 
Q 609 3328 609 3750 
Q 609 4169 896 4459 
Q 1184 4750 1600 4750 
z
" transform="scale(0.015625)"/>
     </defs>
     <use xlink:href="#DejaVuSans-3bc"/>
     <use xlink:href="#DejaVuSans-3d" x="63.623047"/>
     <use xlink:href="#DejaVuSans-30" x="147.412109"/>
     <use xlink:href="#DejaVuSans-2c" x="211.035156"/>
     <use xlink:href="#DejaVuSans-35" x="242.822266"/>
     <use xlink:href="#DejaVuSans-30" x="306.445312"/>
     <use xlink:href="#DejaVuSans-2c" x="370.068359"/>
     <use xlink:href="#DejaVuSans-20" x="401.855469"/>
     <use xlink:href="#DejaVuSans-72" x="433.642578"/>
     <use xlink:href="#DejaVuSans-6f" x="472.505859"/>
     <use xlink:href="#DejaVuSans-74" x="533.6875"/>
     <use xlink:href="#DejaVuSans-5f" x="572.896484"/>
     <use xlink:href="#DejaVuSans-7a" x="622.896484"/>
     <use xlink:href="#DejaVuSans-3d" x="675.386719"/>
     <use xlink:href="#DejaVuSans-30" x="759.175781"/>
     <use xlink:href="#DejaVuSans-b0" x="822.798828"/>
     <use xlink:href="#DejaVuSans-2c" x="872.798828"/>
    </g>
    <!-- forma y pendiente -->
    <g style="fill: #536171" transform="translate(462.6396 125.989565) scale(0.09 -0.09)">
     <use xlink:href="#DejaVuSans-66"/>
     <use xlink:href="#DejaVuSans-6f" x="35.205078"/>
     <use xlink:href="#DejaVuSans-72" x="96.386719"/>
     <use xlink:href="#DejaVuSans-6d" x="135.75"/>
     <use xlink:href="#DejaVuSans-61" x="233.162109"/>
     <use xlink:href="#DejaVuSans-20" x="294.441406"/>
     <use xlink:href="#DejaVuSans-79" x="326.228516"/>
     <use xlink:href="#DejaVuSans-20" x="385.408203"/>
     <use xlink:href="#DejaVuSans-70" x="417.195312"/>
     <use xlink:href="#DejaVuSans-65" x="480.671875"/>
     <use xlink:href="#DejaVuSans-6e" x="542.195312"/>
     <use xlink:href="#DejaVuSans-64" x="605.574219"/>
     <use xlink:href="#DejaVuSans-69" x="669.050781"/>
     <use xlink:href="#DejaVuSans-65" x="696.833984"/>
     <use xlink:href="#DejaVuSans-6e" x="758.357422"/>
     <use xlink:href="#DejaVuSans-74" x="821.736328"/>
     <use xlink:href="#DejaVuSans-65" x="860.945312"/>
    </g>
   </g>
   <g id="text_10">
    <!-- Esquema sin escala: la convergencia compara la respuesta del mismo problema físico al cambiar solo la resolución SPH. -->
    <g style="fill: #536171" transform="translate(15.0864 244.353872) scale(0.09 -0.09)">
     <defs>
      <path id="DejaVuSans-45" d="M 628 4666 
L 3578 4666 
L 3578 4134 
L 1259 4134 
L 1259 2753 
L 3481 2753 
L 3481 2222 
L 1259 2222 
L 1259 531 
L 3634 531 
L 3634 0 
L 628 0 
L 628 4666 
z
" transform="scale(0.015625)"/>
      <path id="DejaVuSans-ed" d="M 1322 5119 
L 1944 5119 
L 926 3944 
L 447 3944 
L 1322 5119 
z
M 603 3500 
L 1178 3500 
L 1178 0 
L 603 0 
L 603 3500 
z
M 891 3584 
L 891 3584 
z
" transform="scale(0.015625)"/>
      <path id="DejaVuSans-f3" d="M 1959 3097 
Q 1497 3097 1228 2736 
Q 959 2375 959 1747 
Q 959 1119 1226 758 
Q 1494 397 1959 397 
Q 2419 397 2687 759 
Q 2956 1122 2956 1747 
Q 2956 2369 2687 2733 
Q 2419 3097 1959 3097 
z
M 1959 3584 
Q 2709 3584 3137 3096 
Q 3566 2609 3566 1747 
Q 3566 888 3137 398 
Q 2709 -91 1959 -91 
Q 1206 -91 779 398 
Q 353 888 353 1747 
Q 353 2609 779 3096 
Q 1206 3584 1959 3584 
z
M 2394 5119 
L 3016 5119 
L 1998 3944 
L 1519 3944 
L 2394 5119 
z
" transform="scale(0.015625)"/>
      <path id="DejaVuSans-53" d="M 3425 4513 
L 3425 3897 
Q 3066 4069 2747 4153 
Q 2428 4238 2131 4238 
Q 1616 4238 1336 4038 
Q 1056 3838 1056 3469 
Q 1056 3159 1242 3001 
Q 1428 2844 1947 2747 
L 2328 2669 
Q 3034 2534 3370 2195 
Q 3706 1856 3706 1288 
Q 3706 609 3251 259 
Q 2797 -91 1919 -91 
Q 1588 -91 1214 -16 
Q 841 59 441 206 
L 441 856 
Q 825 641 1194 531 
Q 1563 422 1919 422 
Q 2459 422 2753 634 
Q 3047 847 3047 1241 
Q 3047 1584 2836 1778 
Q 2625 1972 2144 2069 
L 1759 2144 
Q 1053 2284 737 2584 
Q 422 2884 422 3419 
Q 422 4038 858 4394 
Q 1294 4750 2059 4750 
Q 2388 4750 2728 4690 
Q 3069 4631 3425 4513 
z
" transform="scale(0.015625)"/>
      <path id="DejaVuSans-50" d="M 1259 4147 
L 1259 2394 
L 2053 2394 
Q 2494 2394 2734 2622 
Q 2975 2850 2975 3272 
Q 2975 3691 2734 3919 
Q 2494 4147 2053 4147 
L 1259 4147 
z
M 628 4666 
L 2053 4666 
Q 2838 4666 3239 4311 
Q 3641 3956 3641 3272 
Q 3641 2581 3239 2228 
Q 2838 1875 2053 1875 
L 1259 1875 
L 1259 0 
L 628 0 
L 628 4666 
z
" transform="scale(0.015625)"/>
      <path id="DejaVuSans-2e" d="M 684 794 
L 1344 794 
L 1344 0 
L 684 0 
L 684 794 
z
" transform="scale(0.015625)"/>
     </defs>
     <use xlink:href="#DejaVuSans-45"/>
     <use xlink:href="#DejaVuSans-73" x="63.183594"/>
     <use xlink:href="#DejaVuSans-71" x="115.283203"/>
     <use xlink:href="#DejaVuSans-75" x="178.759766"/>
     <use xlink:href="#DejaVuSans-65" x="242.138672"/>
     <use xlink:href="#DejaVuSans-6d" x="303.662109"/>
     <use xlink:href="#DejaVuSans-61" x="401.074219"/>
     <use xlink:href="#DejaVuSans-20" x="462.353516"/>
     <use xlink:href="#DejaVuSans-73" x="494.140625"/>
     <use xlink:href="#DejaVuSans-69" x="546.240234"/>
     <use xlink:href="#DejaVuSans-6e" x="574.023438"/>
     <use xlink:href="#DejaVuSans-20" x="637.402344"/>
     <use xlink:href="#DejaVuSans-65" x="669.189453"/>
     <use xlink:href="#DejaVuSans-73" x="730.712891"/>
     <use xlink:href="#DejaVuSans-63" x="782.8125"/>
     <use xlink:href="#DejaVuSans-61" x="837.792969"/>
     <use xlink:href="#DejaVuSans-6c" x="899.072266"/>
     <use xlink:href="#DejaVuSans-61" x="926.855469"/>
     <use xlink:href="#DejaVuSans-3a" x="988.134766"/>
     <use xlink:href="#DejaVuSans-20" x="1021.826172"/>
     <use xlink:href="#DejaVuSans-6c" x="1053.613281"/>
     <use xlink:href="#DejaVuSans-61" x="1081.396484"/>
     <use xlink:href="#DejaVuSans-20" x="1142.675781"/>
     <use xlink:href="#DejaVuSans-63" x="1174.462891"/>
     <use xlink:href="#DejaVuSans-6f" x="1229.443359"/>
     <use xlink:href="#DejaVuSans-6e" x="1290.625"/>
     <use xlink:href="#DejaVuSans-76" x="1354.003906"/>
     <use xlink:href="#DejaVuSans-65" x="1413.183594"/>
     <use xlink:href="#DejaVuSans-72" x="1474.707031"/>
     <use xlink:href="#DejaVuSans-67" x="1514.070312"/>
     <use xlink:href="#DejaVuSans-65" x="1577.546875"/>
     <use xlink:href="#DejaVuSans-6e" x="1639.070312"/>
     <use xlink:href="#DejaVuSans-63" x="1702.449219"/>
     <use xlink:href="#DejaVuSans-69" x="1757.429688"/>
     <use xlink:href="#DejaVuSans-61" x="1785.212891"/>
     <use xlink:href="#DejaVuSans-20" x="1846.492188"/>
     <use xlink:href="#DejaVuSans-63" x="1878.279297"/>
     <use xlink:href="#DejaVuSans-6f" x="1933.259766"/>
     <use xlink:href="#DejaVuSans-6d" x="1994.441406"/>
     <use xlink:href="#DejaVuSans-70" x="2091.853516"/>
     <use xlink:href="#DejaVuSans-61" x="2155.330078"/>
     <use xlink:href="#DejaVuSans-72" x="2216.609375"/>
     <use xlink:href="#DejaVuSans-61" x="2257.722656"/>
     <use xlink:href="#DejaVuSans-20" x="2319.001953"/>
     <use xlink:href="#DejaVuSans-6c" x="2350.789062"/>
     <use xlink:href="#DejaVuSans-61" x="2378.572266"/>
     <use xlink:href="#DejaVuSans-20" x="2439.851562"/>
     <use xlink:href="#DejaVuSans-72" x="2471.638672"/>
     <use xlink:href="#DejaVuSans-65" x="2510.501953"/>
     <use xlink:href="#DejaVuSans-73" x="2572.025391"/>
     <use xlink:href="#DejaVuSans-70" x="2624.125"/>
     <use xlink:href="#DejaVuSans-75" x="2687.601562"/>
     <use xlink:href="#DejaVuSans-65" x="2750.980469"/>
     <use xlink:href="#DejaVuSans-73" x="2812.503906"/>
     <use xlink:href="#DejaVuSans-74" x="2864.603516"/>
     <use xlink:href="#DejaVuSans-61" x="2903.8125"/>
     <use xlink:href="#DejaVuSans-20" x="2965.091797"/>
     <use xlink:href="#DejaVuSans-64" x="2996.878906"/>
     <use xlink:href="#DejaVuSans-65" x="3060.355469"/>
     <use xlink:href="#DejaVuSans-6c" x="3121.878906"/>
     <use xlink:href="#DejaVuSans-20" x="3149.662109"/>
     <use xlink:href="#DejaVuSans-6d" x="3181.449219"/>
     <use xlink:href="#DejaVuSans-69" x="3278.861328"/>
     <use xlink:href="#DejaVuSans-73" x="3306.644531"/>
     <use xlink:href="#DejaVuSans-6d" x="3358.744141"/>
     <use xlink:href="#DejaVuSans-6f" x="3456.15625"/>
     <use xlink:href="#DejaVuSans-20" x="3517.337891"/>
     <use xlink:href="#DejaVuSans-70" x="3549.125"/>
     <use xlink:href="#DejaVuSans-72" x="3612.601562"/>
     <use xlink:href="#DejaVuSans-6f" x="3651.464844"/>
     <use xlink:href="#DejaVuSans-62" x="3712.646484"/>
     <use xlink:href="#DejaVuSans-6c" x="3776.123047"/>
     <use xlink:href="#DejaVuSans-65" x="3803.90625"/>
     <use xlink:href="#DejaVuSans-6d" x="3865.429688"/>
     <use xlink:href="#DejaVuSans-61" x="3962.841797"/>
     <use xlink:href="#DejaVuSans-20" x="4024.121094"/>
     <use xlink:href="#DejaVuSans-66" x="4055.908203"/>
     <use xlink:href="#DejaVuSans-ed" x="4091.113281"/>
     <use xlink:href="#DejaVuSans-73" x="4118.896484"/>
     <use xlink:href="#DejaVuSans-69" x="4170.996094"/>
     <use xlink:href="#DejaVuSans-63" x="4198.779297"/>
     <use xlink:href="#DejaVuSans-6f" x="4253.759766"/>
     <use xlink:href="#DejaVuSans-20" x="4314.941406"/>
     <use xlink:href="#DejaVuSans-61" x="4346.728516"/>
     <use xlink:href="#DejaVuSans-6c" x="4408.007812"/>
     <use xlink:href="#DejaVuSans-20" x="4435.791016"/>
     <use xlink:href="#DejaVuSans-63" x="4467.578125"/>
     <use xlink:href="#DejaVuSans-61" x="4522.558594"/>
     <use xlink:href="#DejaVuSans-6d" x="4583.837891"/>
     <use xlink:href="#DejaVuSans-62" x="4681.25"/>
     <use xlink:href="#DejaVuSans-69" x="4744.726562"/>
     <use xlink:href="#DejaVuSans-61" x="4772.509766"/>
     <use xlink:href="#DejaVuSans-72" x="4833.789062"/>
     <use xlink:href="#DejaVuSans-20" x="4874.902344"/>
     <use xlink:href="#DejaVuSans-73" x="4906.689453"/>
     <use xlink:href="#DejaVuSans-6f" x="4958.789062"/>
     <use xlink:href="#DejaVuSans-6c" x="5019.970703"/>
     <use xlink:href="#DejaVuSans-6f" x="5047.753906"/>
     <use xlink:href="#DejaVuSans-20" x="5108.935547"/>
     <use xlink:href="#DejaVuSans-6c" x="5140.722656"/>
     <use xlink:href="#DejaVuSans-61" x="5168.505859"/>
     <use xlink:href="#DejaVuSans-20" x="5229.785156"/>
     <use xlink:href="#DejaVuSans-72" x="5261.572266"/>
     <use xlink:href="#DejaVuSans-65" x="5300.435547"/>
     <use xlink:href="#DejaVuSans-73" x="5361.958984"/>
     <use xlink:href="#DejaVuSans-6f" x="5414.058594"/>
     <use xlink:href="#DejaVuSans-6c" x="5475.240234"/>
     <use xlink:href="#DejaVuSans-75" x="5503.023438"/>
     <use xlink:href="#DejaVuSans-63" x="5566.402344"/>
     <use xlink:href="#DejaVuSans-69" x="5621.382812"/>
     <use xlink:href="#DejaVuSans-f3" x="5649.166016"/>
     <use xlink:href="#DejaVuSans-6e" x="5710.347656"/>
     <use xlink:href="#DejaVuSans-20" x="5773.726562"/>
     <use xlink:href="#DejaVuSans-53" x="5805.513672"/>
     <use xlink:href="#DejaVuSans-50" x="5868.990234"/>
     <use xlink:href="#DejaVuSans-48" x="5929.292969"/>
     <use xlink:href="#DejaVuSans-2e" x="6002.738281"/>
    </g>
   </g>
  </g>
  <g id="text_11">
   <!-- Escenario base usado para el análisis de resolución -->
   <g transform="translate(90.109062 18.397812) scale(0.14 -0.14)">
    <defs>
     <path id="DejaVuSans-Bold-45" d="M 588 4666 
L 3834 4666 
L 3834 3756 
L 1791 3756 
L 1791 2888 
L 3713 2888 
L 3713 1978 
L 1791 1978 
L 1791 909 
L 3903 909 
L 3903 0 
L 588 0 
L 588 4666 
z
" transform="scale(0.015625)"/>
     <path id="DejaVuSans-Bold-73" d="M 3272 3391 
L 3272 2541 
Q 2913 2691 2578 2766 
Q 2244 2841 1947 2841 
Q 1628 2841 1473 2761 
Q 1319 2681 1319 2516 
Q 1319 2381 1436 2309 
Q 1553 2238 1856 2203 
L 2053 2175 
Q 2913 2066 3209 1816 
Q 3506 1566 3506 1031 
Q 3506 472 3093 190 
Q 2681 -91 1863 -91 
Q 1516 -91 1145 -36 
Q 775 19 384 128 
L 384 978 
Q 719 816 1070 734 
Q 1422 653 1784 653 
Q 2113 653 2278 743 
Q 2444 834 2444 1013 
Q 2444 1163 2330 1236 
Q 2216 1309 1875 1350 
L 1678 1375 
Q 931 1469 631 1722 
Q 331 1975 331 2491 
Q 331 3047 712 3315 
Q 1094 3584 1881 3584 
Q 2191 3584 2531 3537 
Q 2872 3491 3272 3391 
z
" transform="scale(0.015625)"/>
     <path id="DejaVuSans-Bold-63" d="M 3366 3391 
L 3366 2478 
Q 3138 2634 2908 2709 
Q 2678 2784 2431 2784 
Q 1963 2784 1702 2511 
Q 1441 2238 1441 1747 
Q 1441 1256 1702 982 
Q 1963 709 2431 709 
Q 2694 709 2930 787 
Q 3166 866 3366 1019 
L 3366 103 
Q 3103 6 2833 -42 
Q 2563 -91 2291 -91 
Q 1344 -91 809 395 
Q 275 881 275 1747 
Q 275 2613 809 3098 
Q 1344 3584 2291 3584 
Q 2566 3584 2833 3536 
Q 3100 3488 3366 3391 
z
" transform="scale(0.015625)"/>
     <path id="DejaVuSans-Bold-65" d="M 4031 1759 
L 4031 1441 
L 1416 1441 
Q 1456 1047 1700 850 
Q 1944 653 2381 653 
Q 2734 653 3104 758 
Q 3475 863 3866 1075 
L 3866 213 
Q 3469 63 3072 -14 
Q 2675 -91 2278 -91 
Q 1328 -91 801 392 
Q 275 875 275 1747 
Q 275 2603 792 3093 
Q 1309 3584 2216 3584 
Q 3041 3584 3536 3087 
Q 4031 2591 4031 1759 
z
M 2881 2131 
Q 2881 2450 2695 2645 
Q 2509 2841 2209 2841 
Q 1884 2841 1681 2658 
Q 1478 2475 1428 2131 
L 2881 2131 
z
" transform="scale(0.015625)"/>
     <path id="DejaVuSans-Bold-6e" d="M 4056 2131 
L 4056 0 
L 2931 0 
L 2931 347 
L 2931 1631 
Q 2931 2084 2911 2256 
Q 2891 2428 2841 2509 
Q 2775 2619 2662 2680 
Q 2550 2741 2406 2741 
Q 2056 2741 1856 2470 
Q 1656 2200 1656 1722 
L 1656 0 
L 538 0 
L 538 3500 
L 1656 3500 
L 1656 2988 
Q 1909 3294 2193 3439 
Q 2478 3584 2822 3584 
Q 3428 3584 3742 3212 
Q 4056 2841 4056 2131 
z
" transform="scale(0.015625)"/>
     <path id="DejaVuSans-Bold-61" d="M 2106 1575 
Q 1756 1575 1579 1456 
Q 1403 1338 1403 1106 
Q 1403 894 1545 773 
Q 1688 653 1941 653 
Q 2256 653 2472 879 
Q 2688 1106 2688 1447 
L 2688 1575 
L 2106 1575 
z
M 3816 1997 
L 3816 0 
L 2688 0 
L 2688 519 
Q 2463 200 2181 54 
Q 1900 -91 1497 -91 
Q 953 -91 614 226 
Q 275 544 275 1050 
Q 275 1666 698 1953 
Q 1122 2241 2028 2241 
L 2688 2241 
L 2688 2328 
Q 2688 2594 2478 2717 
Q 2269 2841 1825 2841 
Q 1466 2841 1156 2769 
Q 847 2697 581 2553 
L 581 3406 
Q 941 3494 1303 3539 
Q 1666 3584 2028 3584 
Q 2975 3584 3395 3211 
Q 3816 2838 3816 1997 
z
" transform="scale(0.015625)"/>
     <path id="DejaVuSans-Bold-72" d="M 3138 2547 
Q 2991 2616 2845 2648 
Q 2700 2681 2553 2681 
Q 2122 2681 1889 2404 
Q 1656 2128 1656 1613 
L 1656 0 
L 538 0 
L 538 3500 
L 1656 3500 
L 1656 2925 
Q 1872 3269 2151 3426 
Q 2431 3584 2822 3584 
Q 2878 3584 2943 3579 
Q 3009 3575 3134 3559 
L 3138 2547 
z
" transform="scale(0.015625)"/>
     <path id="DejaVuSans-Bold-69" d="M 538 3500 
L 1656 3500 
L 1656 0 
L 538 0 
L 538 3500 
z
M 538 4863 
L 1656 4863 
L 1656 3950 
L 538 3950 
L 538 4863 
z
" transform="scale(0.015625)"/>
     <path id="DejaVuSans-Bold-6f" d="M 2203 2784 
Q 1831 2784 1636 2517 
Q 1441 2250 1441 1747 
Q 1441 1244 1636 976 
Q 1831 709 2203 709 
Q 2569 709 2762 976 
Q 2956 1244 2956 1747 
Q 2956 2250 2762 2517 
Q 2569 2784 2203 2784 
z
M 2203 3584 
Q 3106 3584 3614 3096 
Q 4122 2609 4122 1747 
Q 4122 884 3614 396 
Q 3106 -91 2203 -91 
Q 1297 -91 786 396 
Q 275 884 275 1747 
Q 275 2609 786 3096 
Q 1297 3584 2203 3584 
z
" transform="scale(0.015625)"/>
     <path id="DejaVuSans-Bold-20" transform="scale(0.015625)"/>
     <path id="DejaVuSans-Bold-62" d="M 2400 722 
Q 2759 722 2948 984 
Q 3138 1247 3138 1747 
Q 3138 2247 2948 2509 
Q 2759 2772 2400 2772 
Q 2041 2772 1848 2508 
Q 1656 2244 1656 1747 
Q 1656 1250 1848 986 
Q 2041 722 2400 722 
z
M 1656 2988 
Q 1888 3294 2169 3439 
Q 2450 3584 2816 3584 
Q 3463 3584 3878 3070 
Q 4294 2556 4294 1747 
Q 4294 938 3878 423 
Q 3463 -91 2816 -91 
Q 2450 -91 2169 54 
Q 1888 200 1656 506 
L 1656 0 
L 538 0 
L 538 4863 
L 1656 4863 
L 1656 2988 
z
" transform="scale(0.015625)"/>
     <path id="DejaVuSans-Bold-75" d="M 500 1363 
L 500 3500 
L 1625 3500 
L 1625 3150 
Q 1625 2866 1622 2436 
Q 1619 2006 1619 1863 
Q 1619 1441 1641 1255 
Q 1663 1069 1716 984 
Q 1784 875 1895 815 
Q 2006 756 2150 756 
Q 2500 756 2700 1025 
Q 2900 1294 2900 1772 
L 2900 3500 
L 4019 3500 
L 4019 0 
L 2900 0 
L 2900 506 
Q 2647 200 2364 54 
Q 2081 -91 1741 -91 
Q 1134 -91 817 281 
Q 500 653 500 1363 
z
" transform="scale(0.015625)"/>
     <path id="DejaVuSans-Bold-64" d="M 2919 2988 
L 2919 4863 
L 4044 4863 
L 4044 0 
L 2919 0 
L 2919 506 
Q 2688 197 2409 53 
Q 2131 -91 1766 -91 
Q 1119 -91 703 423 
Q 288 938 288 1747 
Q 288 2556 703 3070 
Q 1119 3584 1766 3584 
Q 2128 3584 2408 3439 
Q 2688 3294 2919 2988 
z
M 2181 722 
Q 2541 722 2730 984 
Q 2919 1247 2919 1747 
Q 2919 2247 2730 2509 
Q 2541 2772 2181 2772 
Q 1825 2772 1636 2509 
Q 1447 2247 1447 1747 
Q 1447 1247 1636 984 
Q 1825 722 2181 722 
z
" transform="scale(0.015625)"/>
     <path id="DejaVuSans-Bold-70" d="M 1656 506 
L 1656 -1331 
L 538 -1331 
L 538 3500 
L 1656 3500 
L 1656 2988 
Q 1888 3294 2169 3439 
Q 2450 3584 2816 3584 
Q 3463 3584 3878 3070 
Q 4294 2556 4294 1747 
Q 4294 938 3878 423 
Q 3463 -91 2816 -91 
Q 2450 -91 2169 54 
Q 1888 200 1656 506 
z
M 2400 2772 
Q 2041 2772 1848 2508 
Q 1656 2244 1656 1747 
Q 1656 1250 1848 986 
Q 2041 722 2400 722 
Q 2759 722 2948 984 
Q 3138 1247 3138 1747 
Q 3138 2247 2948 2509 
Q 2759 2772 2400 2772 
z
" transform="scale(0.015625)"/>
     <path id="DejaVuSans-Bold-6c" d="M 538 4863 
L 1656 4863 
L 1656 0 
L 538 0 
L 538 4863 
z
" transform="scale(0.015625)"/>
     <path id="DejaVuSans-Bold-e1" d="M 2106 1575 
Q 1756 1575 1579 1456 
Q 1403 1338 1403 1106 
Q 1403 894 1545 773 
Q 1688 653 1941 653 
Q 2256 653 2472 879 
Q 2688 1106 2688 1447 
L 2688 1575 
L 2106 1575 
z
M 3816 1997 
L 3816 0 
L 2688 0 
L 2688 519 
Q 2463 200 2181 54 
Q 1900 -91 1497 -91 
Q 953 -91 614 226 
Q 275 544 275 1050 
Q 275 1666 698 1953 
Q 1122 2241 2028 2241 
L 2688 2241 
L 2688 2328 
Q 2688 2594 2478 2717 
Q 2269 2841 1825 2841 
Q 1466 2841 1156 2769 
Q 847 2697 581 2553 
L 581 3406 
Q 941 3494 1303 3539 
Q 1666 3584 2028 3584 
Q 2975 3584 3395 3211 
Q 3816 2838 3816 1997 
z
M 2606 5119 
L 3490 5119 
L 2337 3944 
L 1725 3944 
L 2606 5119 
z
" transform="scale(0.015625)"/>
     <path id="DejaVuSans-Bold-f3" d="M 2203 2784 
Q 1831 2784 1636 2517 
Q 1441 2250 1441 1747 
Q 1441 1244 1636 976 
Q 1831 709 2203 709 
Q 2569 709 2762 976 
Q 2956 1244 2956 1747 
Q 2956 2250 2762 2517 
Q 2569 2784 2203 2784 
z
M 2203 3584 
Q 3106 3584 3614 3096 
Q 4122 2609 4122 1747 
Q 4122 884 3614 396 
Q 3106 -91 2203 -91 
Q 1297 -91 786 396 
Q 275 884 275 1747 
Q 275 2609 786 3096 
Q 1297 3584 2203 3584 
z
M 2694 5119 
L 3578 5119 
L 2425 3944 
L 1813 3944 
L 2694 5119 
z
" transform="scale(0.015625)"/>
    </defs>
    <use xlink:href="#DejaVuSans-Bold-45"/>
    <use xlink:href="#DejaVuSans-Bold-73" x="68.310547"/>
    <use xlink:href="#DejaVuSans-Bold-63" x="127.832031"/>
    <use xlink:href="#DejaVuSans-Bold-65" x="187.109375"/>
    <use xlink:href="#DejaVuSans-Bold-6e" x="254.931641"/>
    <use xlink:href="#DejaVuSans-Bold-61" x="326.123047"/>
    <use xlink:href="#DejaVuSans-Bold-72" x="393.603516"/>
    <use xlink:href="#DejaVuSans-Bold-69" x="442.919922"/>
    <use xlink:href="#DejaVuSans-Bold-6f" x="477.197266"/>
    <use xlink:href="#DejaVuSans-Bold-20" x="545.898438"/>
    <use xlink:href="#DejaVuSans-Bold-62" x="580.712891"/>
    <use xlink:href="#DejaVuSans-Bold-61" x="652.294922"/>
    <use xlink:href="#DejaVuSans-Bold-73" x="719.775391"/>
    <use xlink:href="#DejaVuSans-Bold-65" x="779.296875"/>
    <use xlink:href="#DejaVuSans-Bold-20" x="847.119141"/>
    <use xlink:href="#DejaVuSans-Bold-75" x="881.933594"/>
    <use xlink:href="#DejaVuSans-Bold-73" x="953.125"/>
    <use xlink:href="#DejaVuSans-Bold-61" x="1012.646484"/>
    <use xlink:href="#DejaVuSans-Bold-64" x="1080.126953"/>
    <use xlink:href="#DejaVuSans-Bold-6f" x="1151.708984"/>
    <use xlink:href="#DejaVuSans-Bold-20" x="1220.410156"/>
    <use xlink:href="#DejaVuSans-Bold-70" x="1255.224609"/>
    <use xlink:href="#DejaVuSans-Bold-61" x="1326.806641"/>
    <use xlink:href="#DejaVuSans-Bold-72" x="1394.287109"/>
    <use xlink:href="#DejaVuSans-Bold-61" x="1443.603516"/>
    <use xlink:href="#DejaVuSans-Bold-20" x="1511.083984"/>
    <use xlink:href="#DejaVuSans-Bold-65" x="1545.898438"/>
    <use xlink:href="#DejaVuSans-Bold-6c" x="1613.720703"/>
    <use xlink:href="#DejaVuSans-Bold-20" x="1647.998047"/>
    <use xlink:href="#DejaVuSans-Bold-61" x="1682.8125"/>
    <use xlink:href="#DejaVuSans-Bold-6e" x="1750.292969"/>
    <use xlink:href="#DejaVuSans-Bold-e1" x="1821.484375"/>
    <use xlink:href="#DejaVuSans-Bold-6c" x="1888.964844"/>
    <use xlink:href="#DejaVuSans-Bold-69" x="1923.242188"/>
    <use xlink:href="#DejaVuSans-Bold-73" x="1957.519531"/>
    <use xlink:href="#DejaVuSans-Bold-69" x="2017.041016"/>
    <use xlink:href="#DejaVuSans-Bold-73" x="2051.318359"/>
    <use xlink:href="#DejaVuSans-Bold-20" x="2110.839844"/>
    <use xlink:href="#DejaVuSans-Bold-64" x="2145.654297"/>
    <use xlink:href="#DejaVuSans-Bold-65" x="2217.236328"/>
    <use xlink:href="#DejaVuSans-Bold-20" x="2285.058594"/>
    <use xlink:href="#DejaVuSans-Bold-72" x="2319.873047"/>
    <use xlink:href="#DejaVuSans-Bold-65" x="2369.189453"/>
    <use xlink:href="#DejaVuSans-Bold-73" x="2437.011719"/>
    <use xlink:href="#DejaVuSans-Bold-6f" x="2496.533203"/>
    <use xlink:href="#DejaVuSans-Bold-6c" x="2565.234375"/>
    <use xlink:href="#DejaVuSans-Bold-75" x="2599.511719"/>
    <use xlink:href="#DejaVuSans-Bold-63" x="2670.703125"/>
    <use xlink:href="#DejaVuSans-Bold-69" x="2729.980469"/>
    <use xlink:href="#DejaVuSans-Bold-f3" x="2764.257812"/>
    <use xlink:href="#DejaVuSans-Bold-6e" x="2832.958984"/>
   </g>
  </g>
 </g>
 <defs>
  <clipPath id="p45954e13ad">
   <rect x="7.2" y="36" width="591.48" height="221.76"/>
  </clipPath>
 </defs>
</svg>
