<?xml version="1.0" encoding="utf-8" standalone="no"?>
<!DOCTYPE svg PUBLIC "-//W3C//DTD SVG 1.1//EN"
  "http://www.w3.org/Graphics/SVG/1.1/DTD/svg11.dtd">
<svg xmlns:xlink="http://www.w3.org/1999/xlink" width="540.670625pt" height="305.691094pt" viewBox="0 0 540.670625 305.691094" xmlns="http://www.w3.org/2000/svg" version="1.1">
 <metadata>
  <rdf:RDF xmlns:dc="http://purl.org/dc/elements/1.1/" xmlns:cc="http://creativecommons.org/ns#" xmlns:rdf="http://www.w3.org/1999/02/22-rdf-syntax-ns#">
   <cc:Work>
    <dc:type rdf:resource="http://purl.org/dc/dcmitype/StillImage"/>
    <dc:date>2026-05-07T18:46:55.043093</dc:date>
    <dc:format>image/svg+xml</dc:format>
    <dc:creator>
     <cc:Agent>
      <dc:title>Matplotlib v3.7.5, https://matplotlib.org/</dc:title>
     </cc:Agent>
    </dc:creator>
   </cc:Work>
  </rdf:RDF>
 </metadata>
 <defs>
  <style type="text/css">*{stroke-linejoin: round; stroke-linecap: butt}</style>
 </defs>
 <g id="figure_1">
  <g id="patch_1">
   <path d="M 0 305.691094 
L 540.670625 305.691094 
L 540.670625 0 
L 0 0 
z
" style="fill: #ffffff"/>
  </g>
  <g id="axes_1">
   <g id="patch_2">
    <path d="M 42.430625 271.038281 
L 533.470625 271.038281 
L 533.470625 21.558281 
L 42.430625 21.558281 
z
" style="fill: #ffffff"/>
   </g>
   <g id="matplotlib.axis_1">
    <g id="xtick_1">
     <g id="line2d_1">
      <path d="M 135.242174 271.038281 
L 135.242174 21.558281 
" clip-path="url(#p284895b48a)" style="fill: none; stroke: #b0b0b0; stroke-opacity: 0.18; stroke-width: 0.8; stroke-linecap: square"/>
     </g>
     <g id="line2d_2">
      <defs>
       <path id="m2f0f8a68b8" d="M 0 0 
L 0 3.5 
" style="stroke: #000000; stroke-width: 0.8"/>
      </defs>
      <g>
       <use xlink:href="#m2f0f8a68b8" x="135.242174" y="271.038281" style="stroke: #000000; stroke-width: 0.8"/>
      </g>
     </g>
     <g id="text_1">
      <!-- 2 -->
      <g transform="translate(132.697174 284.117031) scale(0.08 -0.08)">
       <defs>
        <path id="DejaVuSans-32" d="M 1228 531 
L 3431 531 
L 3431 0 
L 469 0 
L 469 531 
Q 828 903 1448 1529 
Q 2069 2156 2228 2338 
Q 2531 2678 2651 2914 
Q 2772 3150 2772 3378 
Q 2772 3750 2511 3984 
Q 2250 4219 1831 4219 
Q 1534 4219 1204 4116 
Q 875 4013 500 3803 
L 500 4441 
Q 881 4594 1212 4672 
Q 1544 4750 1819 4750 
Q 2544 4750 2975 4387 
Q 3406 4025 3406 3419 
Q 3406 3131 3298 2873 
Q 3191 2616 2906 2266 
Q 2828 2175 2409 1742 
Q 1991 1309 1228 531 
z
" transform="scale(0.015625)"/>
       </defs>
       <use xlink:href="#DejaVuSans-32"/>
      </g>
     </g>
    </g>
    <g id="xtick_2">
     <g id="line2d_3">
      <path d="M 229.230906 271.038281 
L 229.230906 21.558281 
" clip-path="url(#p284895b48a)" style="fill: none; stroke: #b0b0b0; stroke-opacity: 0.18; stroke-width: 0.8; stroke-linecap: square"/>
     </g>
     <g id="line2d_4">
      <g>
       <use xlink:href="#m2f0f8a68b8" x="229.230906" y="271.038281" style="stroke: #000000; stroke-width: 0.8"/>
      </g>
     </g>
     <g id="text_2">
      <!-- 4 -->
      <g transform="translate(226.685906 284.117031) scale(0.08 -0.08)">
       <defs>
        <path id="DejaVuSans-34" d="M 2419 4116 
L 825 1625 
L 2419 1625 
L 2419 4116 
z
M 2253 4666 
L 3047 4666 
L 3047 1625 
L 3713 1625 
L 3713 1100 
L 3047 1100 
L 3047 0 
L 2419 0 
L 2419 1100 
L 313 1100 
L 313 1709 
L 2253 4666 
z
" transform="scale(0.015625)"/>
       </defs>
       <use xlink:href="#DejaVuSans-34"/>
      </g>
     </g>
    </g>
    <g id="xtick_3">
     <g id="line2d_5">
      <path d="M 323.219638 271.038281 
L 323.219638 21.558281 
" clip-path="url(#p284895b48a)" style="fill: none; stroke: #b0b0b0; stroke-opacity: 0.18; stroke-width: 0.8; stroke-linecap: square"/>
     </g>
     <g id="line2d_6">
      <g>
       <use xlink:href="#m2f0f8a68b8" x="323.219638" y="271.038281" style="stroke: #000000; stroke-width: 0.8"/>
      </g>
     </g>
     <g id="text_3">
      <!-- 6 -->
      <g transform="translate(320.674638 284.117031) scale(0.08 -0.08)">
       <defs>
        <path id="DejaVuSans-36" d="M 2113 2584 
Q 1688 2584 1439 2293 
Q 1191 2003 1191 1497 
Q 1191 994 1439 701 
Q 1688 409 2113 409 
Q 2538 409 2786 701 
Q 3034 994 3034 1497 
Q 3034 2003 2786 2293 
Q 2538 2584 2113 2584 
z
M 3366 4563 
L 3366 3988 
Q 3128 4100 2886 4159 
Q 2644 4219 2406 4219 
Q 1781 4219 1451 3797 
Q 1122 3375 1075 2522 
Q 1259 2794 1537 2939 
Q 1816 3084 2150 3084 
Q 2853 3084 3261 2657 
Q 3669 2231 3669 1497 
Q 3669 778 3244 343 
Q 2819 -91 2113 -91 
Q 1303 -91 875 529 
Q 447 1150 447 2328 
Q 447 3434 972 4092 
Q 1497 4750 2381 4750 
Q 2619 4750 2861 4703 
Q 3103 4656 3366 4563 
z
" transform="scale(0.015625)"/>
       </defs>
       <use xlink:href="#DejaVuSans-36"/>
      </g>
     </g>
    </g>
    <g id="xtick_4">
     <g id="line2d_7">
      <path d="M 417.20837 271.038281 
L 417.20837 21.558281 
" clip-path="url(#p284895b48a)" style="fill: none; stroke: #b0b0b0; stroke-opacity: 0.18; stroke-width: 0.8; stroke-linecap: square"/>
     </g>
     <g id="line2d_8">
      <g>
       <use xlink:href="#m2f0f8a68b8" x="417.20837" y="271.038281" style="stroke: #000000; stroke-width: 0.8"/>
      </g>
     </g>
     <g id="text_4">
      <!-- 8 -->
      <g transform="translate(414.66337 284.117031) scale(0.08 -0.08)">
       <defs>
        <path id="DejaVuSans-38" d="M 2034 2216 
Q 1584 2216 1326 1975 
Q 1069 1734 1069 1313 
Q 1069 891 1326 650 
Q 1584 409 2034 409 
Q 2484 409 2743 651 
Q 3003 894 3003 1313 
Q 3003 1734 2745 1975 
Q 2488 2216 2034 2216 
z
M 1403 2484 
Q 997 2584 770 2862 
Q 544 3141 544 3541 
Q 544 4100 942 4425 
Q 1341 4750 2034 4750 
Q 2731 4750 3128 4425 
Q 3525 4100 3525 3541 
Q 3525 3141 3298 2862 
Q 3072 2584 2669 2484 
Q 3125 2378 3379 2068 
Q 3634 1759 3634 1313 
Q 3634 634 3220 271 
Q 2806 -91 2034 -91 
Q 1263 -91 848 271 
Q 434 634 434 1313 
Q 434 1759 690 2068 
Q 947 2378 1403 2484 
z
M 1172 3481 
Q 1172 3119 1398 2916 
Q 1625 2713 2034 2713 
Q 2441 2713 2670 2916 
Q 2900 3119 2900 3481 
Q 2900 3844 2670 4047 
Q 2441 4250 2034 4250 
Q 1625 4250 1398 4047 
Q 1172 3844 1172 3481 
z
" transform="scale(0.015625)"/>
       </defs>
       <use xlink:href="#DejaVuSans-38"/>
      </g>
     </g>
    </g>
    <g id="xtick_5">
     <g id="line2d_9">
      <path d="M 511.197102 271.038281 
L 511.197102 21.558281 
" clip-path="url(#p284895b48a)" style="fill: none; stroke: #b0b0b0; stroke-opacity: 0.18; stroke-width: 0.8; stroke-linecap: square"/>
     </g>
     <g id="line2d_10">
      <g>
       <use xlink:href="#m2f0f8a68b8" x="511.197102" y="271.038281" style="stroke: #000000; stroke-width: 0.8"/>
      </g>
     </g>
     <g id="text_5">
      <!-- 10 -->
      <g transform="translate(506.107102 284.117031) scale(0.08 -0.08)">
       <defs>
        <path id="DejaVuSans-31" d="M 794 531 
L 1825 531 
L 1825 4091 
L 703 3866 
L 703 4441 
L 1819 4666 
L 2450 4666 
L 2450 531 
L 3481 531 
L 3481 0 
L 794 0 
L 794 531 
z
" transform="scale(0.015625)"/>
        <path id="DejaVuSans-30" d="M 2034 4250 
Q 1547 4250 1301 3770 
Q 1056 3291 1056 2328 
Q 1056 1369 1301 889 
Q 1547 409 2034 409 
Q 2525 409 2770 889 
Q 3016 1369 3016 2328 
Q 3016 3291 2770 3770 
Q 2525 4250 2034 4250 
z
M 2034 4750 
Q 2819 4750 3233 4129 
Q 3647 3509 3647 2328 
Q 3647 1150 3233 529 
Q 2819 -91 2034 -91 
Q 1250 -91 836 529 
Q 422 1150 422 2328 
Q 422 3509 836 4129 
Q 1250 4750 2034 4750 
z
" transform="scale(0.015625)"/>
       </defs>
       <use xlink:href="#DejaVuSans-31"/>
       <use xlink:href="#DejaVuSans-30" x="63.623047"/>
      </g>
     </g>
    </g>
    <g id="text_6">
     <!-- Tiempo (s) -->
     <g transform="translate(264.044375 296.619375) scale(0.09 -0.09)">
      <defs>
       <path id="DejaVuSans-54" d="M -19 4666 
L 3928 4666 
L 3928 4134 
L 2272 4134 
L 2272 0 
L 1638 0 
L 1638 4134 
L -19 4134 
L -19 4666 
z
" transform="scale(0.015625)"/>
       <path id="DejaVuSans-69" d="M 603 3500 
L 1178 3500 
L 1178 0 
L 603 0 
L 603 3500 
z
M 603 4863 
L 1178 4863 
L 1178 4134 
L 603 4134 
L 603 4863 
z
" transform="scale(0.015625)"/>
       <path id="DejaVuSans-65" d="M 3597 1894 
L 3597 1613 
L 953 1613 
Q 991 1019 1311 708 
Q 1631 397 2203 397 
Q 2534 397 2845 478 
Q 3156 559 3463 722 
L 3463 178 
Q 3153 47 2828 -22 
Q 2503 -91 2169 -91 
Q 1331 -91 842 396 
Q 353 884 353 1716 
Q 353 2575 817 3079 
Q 1281 3584 2069 3584 
Q 2775 3584 3186 3129 
Q 3597 2675 3597 1894 
z
M 3022 2063 
Q 3016 2534 2758 2815 
Q 2500 3097 2075 3097 
Q 1594 3097 1305 2825 
Q 1016 2553 972 2059 
L 3022 2063 
z
" transform="scale(0.015625)"/>
       <path id="DejaVuSans-6d" d="M 3328 2828 
Q 3544 3216 3844 3400 
Q 4144 3584 4550 3584 
Q 5097 3584 5394 3201 
Q 5691 2819 5691 2113 
L 5691 0 
L 5113 0 
L 5113 2094 
Q 5113 2597 4934 2840 
Q 4756 3084 4391 3084 
Q 3944 3084 3684 2787 
Q 3425 2491 3425 1978 
L 3425 0 
L 2847 0 
L 2847 2094 
Q 2847 2600 2669 2842 
Q 2491 3084 2119 3084 
Q 1678 3084 1418 2786 
Q 1159 2488 1159 1978 
L 1159 0 
L 581 0 
L 581 3500 
L 1159 3500 
L 1159 2956 
Q 1356 3278 1631 3431 
Q 1906 3584 2284 3584 
Q 2666 3584 2933 3390 
Q 3200 3197 3328 2828 
z
" transform="scale(0.015625)"/>
       <path id="DejaVuSans-70" d="M 1159 525 
L 1159 -1331 
L 581 -1331 
L 581 3500 
L 1159 3500 
L 1159 2969 
Q 1341 3281 1617 3432 
Q 1894 3584 2278 3584 
Q 2916 3584 3314 3078 
Q 3713 2572 3713 1747 
Q 3713 922 3314 415 
Q 2916 -91 2278 -91 
Q 1894 -91 1617 61 
Q 1341 213 1159 525 
z
M 3116 1747 
Q 3116 2381 2855 2742 
Q 2594 3103 2138 3103 
Q 1681 3103 1420 2742 
Q 1159 2381 1159 1747 
Q 1159 1113 1420 752 
Q 1681 391 2138 391 
Q 2594 391 2855 752 
Q 3116 1113 3116 1747 
z
" transform="scale(0.015625)"/>
       <path id="DejaVuSans-6f" d="M 1959 3097 
Q 1497 3097 1228 2736 
Q 959 2375 959 1747 
Q 959 1119 1226 758 
Q 1494 397 1959 397 
Q 2419 397 2687 759 
Q 2956 1122 2956 1747 
Q 2956 2369 2687 2733 
Q 2419 3097 1959 3097 
z
M 1959 3584 
Q 2709 3584 3137 3096 
Q 3566 2609 3566 1747 
Q 3566 888 3137 398 
Q 2709 -91 1959 -91 
Q 1206 -91 779 398 
Q 353 888 353 1747 
Q 353 2609 779 3096 
Q 1206 3584 1959 3584 
z
" transform="scale(0.015625)"/>
       <path id="DejaVuSans-20" transform="scale(0.015625)"/>
       <path id="DejaVuSans-28" d="M 1984 4856 
Q 1566 4138 1362 3434 
Q 1159 2731 1159 2009 
Q 1159 1288 1364 580 
Q 1569 -128 1984 -844 
L 1484 -844 
Q 1016 -109 783 600 
Q 550 1309 550 2009 
Q 550 2706 781 3412 
Q 1013 4119 1484 4856 
L 1984 4856 
z
" transform="scale(0.015625)"/>
       <path id="DejaVuSans-73" d="M 2834 3397 
L 2834 2853 
Q 2591 2978 2328 3040 
Q 2066 3103 1784 3103 
Q 1356 3103 1142 2972 
Q 928 2841 928 2578 
Q 928 2378 1081 2264 
Q 1234 2150 1697 2047 
L 1894 2003 
Q 2506 1872 2764 1633 
Q 3022 1394 3022 966 
Q 3022 478 2636 193 
Q 2250 -91 1575 -91 
Q 1294 -91 989 -36 
Q 684 19 347 128 
L 347 722 
Q 666 556 975 473 
Q 1284 391 1588 391 
Q 1994 391 2212 530 
Q 2431 669 2431 922 
Q 2431 1156 2273 1281 
Q 2116 1406 1581 1522 
L 1381 1569 
Q 847 1681 609 1914 
Q 372 2147 372 2553 
Q 372 3047 722 3315 
Q 1072 3584 1716 3584 
Q 2034 3584 2315 3537 
Q 2597 3491 2834 3397 
z
" transform="scale(0.015625)"/>
       <path id="DejaVuSans-29" d="M 513 4856 
L 1013 4856 
Q 1481 4119 1714 3412 
Q 1947 2706 1947 2009 
Q 1947 1309 1714 600 
Q 1481 -109 1013 -844 
L 513 -844 
Q 928 -128 1133 580 
Q 1338 1288 1338 2009 
Q 1338 2731 1133 3434 
Q 928 4138 513 4856 
z
" transform="scale(0.015625)"/>
      </defs>
      <use xlink:href="#DejaVuSans-54"/>
      <use xlink:href="#DejaVuSans-69" x="57.958984"/>
      <use xlink:href="#DejaVuSans-65" x="85.742188"/>
      <use xlink:href="#DejaVuSans-6d" x="147.265625"/>
      <use xlink:href="#DejaVuSans-70" x="244.677734"/>
      <use xlink:href="#DejaVuSans-6f" x="308.154297"/>
      <use xlink:href="#DejaVuSans-20" x="369.335938"/>
      <use xlink:href="#DejaVuSans-28" x="401.123047"/>
      <use xlink:href="#DejaVuSans-73" x="440.136719"/>
      <use xlink:href="#DejaVuSans-29" x="492.236328"/>
     </g>
    </g>
   </g>
   <g id="matplotlib.axis_2">
    <g id="ytick_1">
     <g id="line2d_11">
      <path d="M 42.430625 259.698281 
L 533.470625 259.698281 
" clip-path="url(#p284895b48a)" style="fill: none; stroke: #b0b0b0; stroke-opacity: 0.18; stroke-width: 0.8; stroke-linecap: square"/>
     </g>
     <g id="line2d_12">
      <defs>
       <path id="m8edf7b0ad9" d="M 0 0 
L -3.5 0 
" style="stroke: #000000; stroke-width: 0.8"/>
      </defs>
      <g>
       <use xlink:href="#m8edf7b0ad9" x="42.430625" y="259.698281" style="stroke: #000000; stroke-width: 0.8"/>
      </g>
     </g>
     <g id="text_7">
      <!-- 0 -->
      <g transform="translate(30.340625 262.737656) scale(0.08 -0.08)">
       <use xlink:href="#DejaVuSans-30"/>
      </g>
     </g>
    </g>
    <g id="ytick_2">
     <g id="line2d_13">
      <path d="M 42.430625 228.224268 
L 533.470625 228.224268 
" clip-path="url(#p284895b48a)" style="fill: none; stroke: #b0b0b0; stroke-opacity: 0.18; stroke-width: 0.8; stroke-linecap: square"/>
     </g>
     <g id="line2d_14">
      <g>
       <use xlink:href="#m8edf7b0ad9" x="42.430625" y="228.224268" style="stroke: #000000; stroke-width: 0.8"/>
      </g>
     </g>
     <g id="text_8">
      <!-- 25 -->
      <g transform="translate(25.250625 231.263643) scale(0.08 -0.08)">
       <defs>
        <path id="DejaVuSans-35" d="M 691 4666 
L 3169 4666 
L 3169 4134 
L 1269 4134 
L 1269 2991 
Q 1406 3038 1543 3061 
Q 1681 3084 1819 3084 
Q 2600 3084 3056 2656 
Q 3513 2228 3513 1497 
Q 3513 744 3044 326 
Q 2575 -91 1722 -91 
Q 1428 -91 1123 -41 
Q 819 9 494 109 
L 494 744 
Q 775 591 1075 516 
Q 1375 441 1709 441 
Q 2250 441 2565 725 
Q 2881 1009 2881 1497 
Q 2881 1984 2565 2268 
Q 2250 2553 1709 2553 
Q 1456 2553 1204 2497 
Q 953 2441 691 2322 
L 691 4666 
z
" transform="scale(0.015625)"/>
       </defs>
       <use xlink:href="#DejaVuSans-32"/>
       <use xlink:href="#DejaVuSans-35" x="63.623047"/>
      </g>
     </g>
    </g>
    <g id="ytick_3">
     <g id="line2d_15">
      <path d="M 42.430625 196.750255 
L 533.470625 196.750255 
" clip-path="url(#p284895b48a)" style="fill: none; stroke: #b0b0b0; stroke-opacity: 0.18; stroke-width: 0.8; stroke-linecap: square"/>
     </g>
     <g id="line2d_16">
      <g>
       <use xlink:href="#m8edf7b0ad9" x="42.430625" y="196.750255" style="stroke: #000000; stroke-width: 0.8"/>
      </g>
     </g>
     <g id="text_9">
      <!-- 50 -->
      <g transform="translate(25.250625 199.78963) scale(0.08 -0.08)">
       <use xlink:href="#DejaVuSans-35"/>
       <use xlink:href="#DejaVuSans-30" x="63.623047"/>
      </g>
     </g>
    </g>
    <g id="ytick_4">
     <g id="line2d_17">
      <path d="M 42.430625 165.276241 
L 533.470625 165.276241 
" clip-path="url(#p284895b48a)" style="fill: none; stroke: #b0b0b0; stroke-opacity: 0.18; stroke-width: 0.8; stroke-linecap: square"/>
     </g>
     <g id="line2d_18">
      <g>
       <use xlink:href="#m8edf7b0ad9" x="42.430625" y="165.276241" style="stroke: #000000; stroke-width: 0.8"/>
      </g>
     </g>
     <g id="text_10">
      <!-- 75 -->
      <g transform="translate(25.250625 168.315616) scale(0.08 -0.08)">
       <defs>
        <path id="DejaVuSans-37" d="M 525 4666 
L 3525 4666 
L 3525 4397 
L 1831 0 
L 1172 0 
L 2766 4134 
L 525 4134 
L 525 4666 
z
" transform="scale(0.015625)"/>
       </defs>
       <use xlink:href="#DejaVuSans-37"/>
       <use xlink:href="#DejaVuSans-35" x="63.623047"/>
      </g>
     </g>
    </g>
    <g id="ytick_5">
     <g id="line2d_19">
      <path d="M 42.430625 133.802228 
L 533.470625 133.802228 
" clip-path="url(#p284895b48a)" style="fill: none; stroke: #b0b0b0; stroke-opacity: 0.18; stroke-width: 0.8; stroke-linecap: square"/>
     </g>
     <g id="line2d_20">
      <g>
       <use xlink:href="#m8edf7b0ad9" x="42.430625" y="133.802228" style="stroke: #000000; stroke-width: 0.8"/>
      </g>
     </g>
     <g id="text_11">
      <!-- 100 -->
      <g transform="translate(20.160625 136.841603) scale(0.08 -0.08)">
       <use xlink:href="#DejaVuSans-31"/>
       <use xlink:href="#DejaVuSans-30" x="63.623047"/>
       <use xlink:href="#DejaVuSans-30" x="127.246094"/>
      </g>
     </g>
    </g>
    <g id="ytick_6">
     <g id="line2d_21">
      <path d="M 42.430625 102.328215 
L 533.470625 102.328215 
" clip-path="url(#p284895b48a)" style="fill: none; stroke: #b0b0b0; stroke-opacity: 0.18; stroke-width: 0.8; stroke-linecap: square"/>
     </g>
     <g id="line2d_22">
      <g>
       <use xlink:href="#m8edf7b0ad9" x="42.430625" y="102.328215" style="stroke: #000000; stroke-width: 0.8"/>
      </g>
     </g>
     <g id="text_12">
      <!-- 125 -->
      <g transform="translate(20.160625 105.36759) scale(0.08 -0.08)">
       <use xlink:href="#DejaVuSans-31"/>
       <use xlink:href="#DejaVuSans-32" x="63.623047"/>
       <use xlink:href="#DejaVuSans-35" x="127.246094"/>
      </g>
     </g>
    </g>
    <g id="ytick_7">
     <g id="line2d_23">
      <path d="M 42.430625 70.854202 
L 533.470625 70.854202 
" clip-path="url(#p284895b48a)" style="fill: none; stroke: #b0b0b0; stroke-opacity: 0.18; stroke-width: 0.8; stroke-linecap: square"/>
     </g>
     <g id="line2d_24">
      <g>
       <use xlink:href="#m8edf7b0ad9" x="42.430625" y="70.854202" style="stroke: #000000; stroke-width: 0.8"/>
      </g>
     </g>
     <g id="text_13">
      <!-- 150 -->
      <g transform="translate(20.160625 73.893577) scale(0.08 -0.08)">
       <use xlink:href="#DejaVuSans-31"/>
       <use xlink:href="#DejaVuSans-35" x="63.623047"/>
       <use xlink:href="#DejaVuSans-30" x="127.246094"/>
      </g>
     </g>
    </g>
    <g id="ytick_8">
     <g id="line2d_25">
      <path d="M 42.430625 39.380188 
L 533.470625 39.380188 
" clip-path="url(#p284895b48a)" style="fill: none; stroke: #b0b0b0; stroke-opacity: 0.18; stroke-width: 0.8; stroke-linecap: square"/>
     </g>
     <g id="line2d_26">
      <g>
       <use xlink:href="#m8edf7b0ad9" x="42.430625" y="39.380188" style="stroke: #000000; stroke-width: 0.8"/>
      </g>
     </g>
     <g id="text_14">
      <!-- 175 -->
      <g transform="translate(20.160625 42.419563) scale(0.08 -0.08)">
       <use xlink:href="#DejaVuSans-31"/>
       <use xlink:href="#DejaVuSans-37" x="63.623047"/>
       <use xlink:href="#DejaVuSans-35" x="127.246094"/>
      </g>
     </g>
    </g>
    <g id="text_15">
     <!-- Desplazamiento acumulado (% d_eq) -->
     <g transform="translate(14.038594 230.379375) rotate(-90) scale(0.09 -0.09)">
      <defs>
       <path id="DejaVuSans-44" d="M 1259 4147 
L 1259 519 
L 2022 519 
Q 2988 519 3436 956 
Q 3884 1394 3884 2338 
Q 3884 3275 3436 3711 
Q 2988 4147 2022 4147 
L 1259 4147 
z
M 628 4666 
L 1925 4666 
Q 3281 4666 3915 4102 
Q 4550 3538 4550 2338 
Q 4550 1131 3912 565 
Q 3275 0 1925 0 
L 628 0 
L 628 4666 
z
" transform="scale(0.015625)"/>
       <path id="DejaVuSans-6c" d="M 603 4863 
L 1178 4863 
L 1178 0 
L 603 0 
L 603 4863 
z
" transform="scale(0.015625)"/>
       <path id="DejaVuSans-61" d="M 2194 1759 
Q 1497 1759 1228 1600 
Q 959 1441 959 1056 
Q 959 750 1161 570 
Q 1363 391 1709 391 
Q 2188 391 2477 730 
Q 2766 1069 2766 1631 
L 2766 1759 
L 2194 1759 
z
M 3341 1997 
L 3341 0 
L 2766 0 
L 2766 531 
Q 2569 213 2275 61 
Q 1981 -91 1556 -91 
Q 1019 -91 701 211 
Q 384 513 384 1019 
Q 384 1609 779 1909 
Q 1175 2209 1959 2209 
L 2766 2209 
L 2766 2266 
Q 2766 2663 2505 2880 
Q 2244 3097 1772 3097 
Q 1472 3097 1187 3025 
Q 903 2953 641 2809 
L 641 3341 
Q 956 3463 1253 3523 
Q 1550 3584 1831 3584 
Q 2591 3584 2966 3190 
Q 3341 2797 3341 1997 
z
" transform="scale(0.015625)"/>
       <path id="DejaVuSans-7a" d="M 353 3500 
L 3084 3500 
L 3084 2975 
L 922 459 
L 3084 459 
L 3084 0 
L 275 0 
L 275 525 
L 2438 3041 
L 353 3041 
L 353 3500 
z
" transform="scale(0.015625)"/>
       <path id="DejaVuSans-6e" d="M 3513 2113 
L 3513 0 
L 2938 0 
L 2938 2094 
Q 2938 2591 2744 2837 
Q 2550 3084 2163 3084 
Q 1697 3084 1428 2787 
Q 1159 2491 1159 1978 
L 1159 0 
L 581 0 
L 581 3500 
L 1159 3500 
L 1159 2956 
Q 1366 3272 1645 3428 
Q 1925 3584 2291 3584 
Q 2894 3584 3203 3211 
Q 3513 2838 3513 2113 
z
" transform="scale(0.015625)"/>
       <path id="DejaVuSans-74" d="M 1172 4494 
L 1172 3500 
L 2356 3500 
L 2356 3053 
L 1172 3053 
L 1172 1153 
Q 1172 725 1289 603 
Q 1406 481 1766 481 
L 2356 481 
L 2356 0 
L 1766 0 
Q 1100 0 847 248 
Q 594 497 594 1153 
L 594 3053 
L 172 3053 
L 172 3500 
L 594 3500 
L 594 4494 
L 1172 4494 
z
" transform="scale(0.015625)"/>
       <path id="DejaVuSans-63" d="M 3122 3366 
L 3122 2828 
Q 2878 2963 2633 3030 
Q 2388 3097 2138 3097 
Q 1578 3097 1268 2742 
Q 959 2388 959 1747 
Q 959 1106 1268 751 
Q 1578 397 2138 397 
Q 2388 397 2633 464 
Q 2878 531 3122 666 
L 3122 134 
Q 2881 22 2623 -34 
Q 2366 -91 2075 -91 
Q 1284 -91 818 406 
Q 353 903 353 1747 
Q 353 2603 823 3093 
Q 1294 3584 2113 3584 
Q 2378 3584 2631 3529 
Q 2884 3475 3122 3366 
z
" transform="scale(0.015625)"/>
       <path id="DejaVuSans-75" d="M 544 1381 
L 544 3500 
L 1119 3500 
L 1119 1403 
Q 1119 906 1312 657 
Q 1506 409 1894 409 
Q 2359 409 2629 706 
Q 2900 1003 2900 1516 
L 2900 3500 
L 3475 3500 
L 3475 0 
L 2900 0 
L 2900 538 
Q 2691 219 2414 64 
Q 2138 -91 1772 -91 
Q 1169 -91 856 284 
Q 544 659 544 1381 
z
M 1991 3584 
L 1991 3584 
z
" transform="scale(0.015625)"/>
       <path id="DejaVuSans-64" d="M 2906 2969 
L 2906 4863 
L 3481 4863 
L 3481 0 
L 2906 0 
L 2906 525 
Q 2725 213 2448 61 
Q 2172 -91 1784 -91 
Q 1150 -91 751 415 
Q 353 922 353 1747 
Q 353 2572 751 3078 
Q 1150 3584 1784 3584 
Q 2172 3584 2448 3432 
Q 2725 3281 2906 2969 
z
M 947 1747 
Q 947 1113 1208 752 
Q 1469 391 1925 391 
Q 2381 391 2643 752 
Q 2906 1113 2906 1747 
Q 2906 2381 2643 2742 
Q 2381 3103 1925 3103 
Q 1469 3103 1208 2742 
Q 947 2381 947 1747 
z
" transform="scale(0.015625)"/>
       <path id="DejaVuSans-25" d="M 4653 2053 
Q 4381 2053 4226 1822 
Q 4072 1591 4072 1178 
Q 4072 772 4226 539 
Q 4381 306 4653 306 
Q 4919 306 5073 539 
Q 5228 772 5228 1178 
Q 5228 1588 5073 1820 
Q 4919 2053 4653 2053 
z
M 4653 2450 
Q 5147 2450 5437 2106 
Q 5728 1763 5728 1178 
Q 5728 594 5436 251 
Q 5144 -91 4653 -91 
Q 4153 -91 3862 251 
Q 3572 594 3572 1178 
Q 3572 1766 3864 2108 
Q 4156 2450 4653 2450 
z
M 1428 4353 
Q 1159 4353 1004 4120 
Q 850 3888 850 3481 
Q 850 3069 1003 2837 
Q 1156 2606 1428 2606 
Q 1700 2606 1854 2837 
Q 2009 3069 2009 3481 
Q 2009 3884 1853 4118 
Q 1697 4353 1428 4353 
z
M 4250 4750 
L 4750 4750 
L 1831 -91 
L 1331 -91 
L 4250 4750 
z
M 1428 4750 
Q 1922 4750 2215 4408 
Q 2509 4066 2509 3481 
Q 2509 2891 2217 2550 
Q 1925 2209 1428 2209 
Q 931 2209 642 2551 
Q 353 2894 353 3481 
Q 353 4063 643 4406 
Q 934 4750 1428 4750 
z
" transform="scale(0.015625)"/>
       <path id="DejaVuSans-5f" d="M 3263 -1063 
L 3263 -1509 
L -63 -1509 
L -63 -1063 
L 3263 -1063 
z
" transform="scale(0.015625)"/>
       <path id="DejaVuSans-71" d="M 947 1747 
Q 947 1113 1208 752 
Q 1469 391 1925 391 
Q 2381 391 2643 752 
Q 2906 1113 2906 1747 
Q 2906 2381 2643 2742 
Q 2381 3103 1925 3103 
Q 1469 3103 1208 2742 
Q 947 2381 947 1747 
z
M 2906 525 
Q 2725 213 2448 61 
Q 2172 -91 1784 -91 
Q 1150 -91 751 415 
Q 353 922 353 1747 
Q 353 2572 751 3078 
Q 1150 3584 1784 3584 
Q 2172 3584 2448 3432 
Q 2725 3281 2906 2969 
L 2906 3500 
L 3481 3500 
L 3481 -1331 
L 2906 -1331 
L 2906 525 
z
" transform="scale(0.015625)"/>
      </defs>
      <use xlink:href="#DejaVuSans-44"/>
      <use xlink:href="#DejaVuSans-65" x="77.001953"/>
      <use xlink:href="#DejaVuSans-73" x="138.525391"/>
      <use xlink:href="#DejaVuSans-70" x="190.625"/>
      <use xlink:href="#DejaVuSans-6c" x="254.101562"/>
      <use xlink:href="#DejaVuSans-61" x="281.884766"/>
      <use xlink:href="#DejaVuSans-7a" x="343.164062"/>
      <use xlink:href="#DejaVuSans-61" x="395.654297"/>
      <use xlink:href="#DejaVuSans-6d" x="456.933594"/>
      <use xlink:href="#DejaVuSans-69" x="554.345703"/>
      <use xlink:href="#DejaVuSans-65" x="582.128906"/>
      <use xlink:href="#DejaVuSans-6e" x="643.652344"/>
      <use xlink:href="#DejaVuSans-74" x="707.03125"/>
      <use xlink:href="#DejaVuSans-6f" x="746.240234"/>
      <use xlink:href="#DejaVuSans-20" x="807.421875"/>
      <use xlink:href="#DejaVuSans-61" x="839.208984"/>
      <use xlink:href="#DejaVuSans-63" x="900.488281"/>
      <use xlink:href="#DejaVuSans-75" x="955.46875"/>
      <use xlink:href="#DejaVuSans-6d" x="1018.847656"/>
      <use xlink:href="#DejaVuSans-75" x="1116.259766"/>
      <use xlink:href="#DejaVuSans-6c" x="1179.638672"/>
      <use xlink:href="#DejaVuSans-61" x="1207.421875"/>
      <use xlink:href="#DejaVuSans-64" x="1268.701172"/>
      <use xlink:href="#DejaVuSans-6f" x="1332.177734"/>
      <use xlink:href="#DejaVuSans-20" x="1393.359375"/>
      <use xlink:href="#DejaVuSans-28" x="1425.146484"/>
      <use xlink:href="#DejaVuSans-25" x="1464.160156"/>
      <use xlink:href="#DejaVuSans-20" x="1559.179688"/>
      <use xlink:href="#DejaVuSans-64" x="1590.966797"/>
      <use xlink:href="#DejaVuSans-5f" x="1654.443359"/>
      <use xlink:href="#DejaVuSans-65" x="1704.443359"/>
      <use xlink:href="#DejaVuSans-71" x="1765.966797"/>
      <use xlink:href="#DejaVuSans-29" x="1829.443359"/>
     </g>
    </g>
   </g>
   <g id="line2d_27">
    <path d="M 64.750625 259.698281 
L 66.300781 255.830993 
L 66.629977 255.511391 
L 66.864714 255.549286 
L 67.099168 255.667345 
L 67.47423 254.946868 
L 67.711364 254.874396 
L 68.18065 255.201488 
L 68.555524 255.382309 
L 77.436942 255.409948 
L 142.243771 255.520346 
L 147.976284 255.528904 
L 148.44698 255.263335 
L 148.915514 254.69492 
L 149.949719 252.919024 
L 150.984159 251.234455 
L 151.595884 250.654644 
L 152.206294 250.41951 
L 153.146088 250.399089 
L 154.461883 250.228897 
L 155.120556 249.796612 
L 155.777819 249.1436 
L 157.517128 246.826422 
L 158.550393 244.716775 
L 160.336931 240.019138 
L 161.885724 234.849975 
L 164.096527 226.345051 
L 167.478476 212.345403 
L 169.875095 200.524713 
L 173.072028 183.57783 
L 176.12497 167.716188 
L 178.287369 157.161391 
L 179.979871 149.892221 
L 181.953493 142.322609 
L 184.25617 134.315004 
L 185.57267 130.201145 
L 189.753665 117.293863 
L 191.86968 110.051109 
L 202.631108 72.453881 
L 204.886932 65.798156 
L 208.176161 56.916109 
L 210.385789 51.732542 
L 212.076036 48.200794 
L 213.863326 44.791542 
L 215.649487 41.779694 
L 217.386305 39.283968 
L 219.221012 37.095304 
L 220.677932 35.682845 
L 221.569697 34.962334 
L 223.636415 33.765904 
L 225.423517 33.263439 
L 227.585116 33.195445 
L 248.544651 33.084506 
L 253.477931 33.065607 
L 297.465974 32.955723 
L 301.837155 32.946898 
L 467.537128 33.056975 
L 472.471865 33.073272 
L 504.80366 33.184109 
L 509.88126 33.205117 
L 511.150061 33.21019 
L 511.150061 33.21019 
" clip-path="url(#p284895b48a)" style="fill: none; stroke: #1f77b4; stroke-width: 1.5; stroke-linecap: square"/>
   </g>
   <g id="line2d_28">
    <path d="M 64.750625 259.698281 
L 65.832764 257.077809 
L 66.160315 256.753734 
L 66.395663 256.780854 
L 66.630729 256.880017 
L 67.006965 256.173306 
L 67.242501 256.102314 
L 67.522964 256.32338 
L 67.899717 256.571893 
L 68.370648 256.6026 
L 139.98931 256.708292 
L 140.975722 256.752448 
L 143.701395 256.674478 
L 144.078243 256.26014 
L 144.735365 255.120612 
L 146.098437 252.725793 
L 146.803963 252.08602 
L 147.22663 252.051231 
L 149.199736 251.949598 
L 149.903993 251.611926 
L 151.221574 250.665116 
L 152.81896 249.495335 
L 153.522888 249.413238 
L 154.744695 249.317242 
L 155.449423 248.875748 
L 156.203165 248.276437 
L 157.142864 247.111401 
L 158.69194 244.647605 
L 159.537885 242.879062 
L 160.665844 239.87784 
L 161.700472 236.402561 
L 163.062839 231.149475 
L 170.39537 201.977364 
L 172.979731 192.977726 
L 174.530968 188.221852 
L 176.692192 182.425205 
L 178.478166 177.757634 
L 180.403431 172.199083 
L 184.163215 160.075659 
L 188.251772 146.011094 
L 191.636729 134.60532 
L 194.360993 126.173881 
L 196.617474 119.993846 
L 199.155358 113.720072 
L 203.197202 104.640965 
L 205.499597 100.076404 
L 208.037528 95.391026 
L 210.151757 91.980142 
L 211.843085 89.756464 
L 213.253104 88.085083 
L 216.449003 84.712706 
L 217.99977 83.652728 
L 218.939845 83.20791 
L 220.677556 82.656583 
L 223.826319 81.944277 
L 225.425302 81.801068 
L 233.508098 81.690484 
L 239.146858 81.653428 
L 263.302338 81.542563 
L 268.096422 81.527283 
L 307.90018 81.416557 
L 312.693276 81.401277 
L 450.15269 81.51177 
L 454.804192 81.528972 
L 481.826658 81.639898 
L 487.043314 81.665941 
L 510.116796 81.776411 
L 511.149826 81.781383 
L 511.149826 81.781383 
" clip-path="url(#p284895b48a)" style="fill: none; stroke: #ff7f0e; stroke-width: 1.5; stroke-linecap: square"/>
   </g>
   <g id="line2d_29">
    <path d="M 64.750625 259.698281 
L 65.360659 258.478638 
L 65.643518 258.271618 
L 65.924638 258.131844 
L 66.300546 257.612715 
L 66.583217 257.541451 
L 66.86415 257.75301 
L 67.005509 257.781804 
L 67.288321 257.757169 
L 67.663947 257.798786 
L 135.75789 257.895316 
L 136.557029 258.125612 
L 136.838573 257.916417 
L 138.906889 255.701568 
L 139.376127 255.647182 
L 140.598827 255.551692 
L 142.007812 254.950461 
L 148.963542 254.839411 
L 156.436116 254.541091 
L 158.127725 254.389816 
L 159.725158 254.279971 
L 160.477585 254.07595 
L 161.511179 253.610057 
L 162.592002 252.861344 
L 163.531514 252.023068 
L 164.472294 250.94397 
L 169.029948 244.751308 
L 170.393302 242.089399 
L 172.977052 236.475782 
L 174.387306 233.04192 
L 175.65653 229.330209 
L 177.44147 223.412614 
L 180.309301 212.892182 
L 182.940939 202.277493 
L 188.344304 179.756935 
L 190.552898 171.779911 
L 193.561665 161.801581 
L 196.662918 152.382707 
L 198.825222 146.526102 
L 200.65664 142.129739 
L 202.537965 138.085915 
L 206.389999 130.567669 
L 209.775192 124.532196 
L 210.901412 123.046054 
L 214.89692 118.166575 
L 217.151803 115.262944 
L 218.280608 114.000855 
L 219.736634 112.873047 
L 223.4498 110.512545 
L 225.6114 109.459606 
L 226.739735 109.118421 
L 228.337308 109.010899 
L 235.762888 108.905101 
L 251.223894 108.795238 
L 255.641693 108.77468 
L 291.733319 108.664687 
L 296.33825 108.650737 
L 334.404297 108.539754 
L 338.914535 108.525676 
L 432.104973 108.636571 
L 436.897835 108.653816 
L 462.087802 108.763946 
L 467.208919 108.790033 
L 486.57041 108.900343 
L 492.210298 108.934755 
L 509.175076 109.045395 
L 511.148557 109.059087 
L 511.148557 109.059087 
" clip-path="url(#p284895b48a)" style="fill: none; stroke: #2ca02c; stroke-width: 1.5; stroke-linecap: square"/>
   </g>
   <g id="line2d_30">
    <path d="M 64.750625 259.698281 
L 65.174279 259.10224 
L 66.066514 258.392393 
L 66.349185 258.200592 
L 66.583452 258.266742 
L 67.147338 258.509118 
L 67.570052 258.47826 
L 134.208627 258.57433 
L 135.759253 259.095363 
L 138.531545 259.134095 
L 160.196276 259.024232 
L 160.854808 258.712955 
L 161.464701 258.195902 
L 162.169946 257.293731 
L 163.532782 254.985017 
L 166.681076 249.605944 
L 167.997576 246.670513 
L 170.112229 241.389574 
L 171.897639 236.305835 
L 179.087777 214.903733 
L 180.967786 208.287698 
L 187.970041 182.185131 
L 191.541989 169.201237 
L 196.193773 153.194963 
L 200.09454 141.003026 
L 202.538623 134.325305 
L 204.747076 128.898722 
L 205.734334 126.998375 
L 206.673235 125.650103 
L 207.848376 124.432432 
L 210.33997 122.139832 
L 217.528933 114.389536 
L 220.67873 110.757796 
L 221.335477 110.364938 
L 222.463764 110.036692 
L 223.591582 109.968997 
L 226.646169 109.850515 
L 228.526085 109.588391 
L 229.419213 109.507396 
L 236.092507 109.397367 
L 243.423675 109.312044 
L 270.210322 109.125793 
L 275.426697 109.096434 
L 298.030517 108.986532 
L 303.200837 108.959794 
L 325.945264 108.849824 
L 331.114927 108.824331 
L 385.063848 108.785739 
L 423.271395 108.896023 
L 428.205898 108.91921 
L 446.767639 109.029846 
L 452.454521 109.067836 
L 467.539477 109.178465 
L 473.602268 109.227721 
L 487.793767 109.337702 
L 493.85604 109.386247 
L 507.20338 109.496997 
L 511.150625 109.533467 
L 511.150625 109.533467 
" clip-path="url(#p284895b48a)" style="fill: none; stroke: #d62728; stroke-width: 1.5; stroke-linecap: square"/>
   </g>
   <g id="line2d_31">
    <path d="M 64.750625 259.698281 
L 65.78436 258.515984 
L 65.878584 258.617783 
L 66.11365 258.717862 
L 66.490121 258.610231 
L 66.771336 258.53818 
L 67.42921 258.356655 
L 67.852958 258.333912 
L 73.351111 258.332717 
L 137.122184 258.443711 
L 157.517504 258.606024 
L 158.927758 258.292154 
L 159.632532 257.942154 
L 160.666032 257.167676 
L 161.183393 256.500062 
L 161.98225 255.013934 
L 163.673954 251.899885 
L 164.801771 249.651912 
L 165.976677 246.800699 
L 167.574204 242.264544 
L 170.206452 234.055631 
L 174.858989 218.002323 
L 176.174455 213.603847 
L 178.430372 206.210299 
L 181.202805 196.425778 
L 184.72757 183.565641 
L 188.25243 172.915866 
L 191.212605 164.60948 
L 193.186509 158.053209 
L 195.818147 149.4179 
L 197.83914 144.019381 
L 200.799691 136.906989 
L 204.935477 127.391253 
L 212.078104 115.021907 
L 213.534882 112.586621 
L 214.662653 111.084341 
L 216.072437 109.576868 
L 217.62358 108.209856 
L 219.644572 106.410861 
L 223.404122 102.630223 
L 225.518915 100.887877 
L 226.552932 100.241421 
L 227.445261 99.985193 
L 228.432002 99.927222 
L 246.290143 99.574539 
L 255.688593 99.463521 
L 262.503011 99.396889 
L 281.536106 99.263933 
L 287.034352 99.230311 
L 304.046313 99.119512 
L 308.557772 99.089749 
L 322.185997 98.995268 
L 328.248176 98.948618 
L 345.448631 98.838014 
L 350.946361 98.804392 
L 421.29735 98.914793 
L 426.936157 98.952752 
L 442.303926 99.063263 
L 448.271881 99.109673 
L 461.947524 99.220021 
L 468.526171 99.282271 
L 480.698088 99.392236 
L 487.606307 99.463336 
L 498.6028 99.573457 
L 505.981245 99.655877 
L 511.150061 99.722057 
L 511.150061 99.722057 
" clip-path="url(#p284895b48a)" style="fill: none; stroke: #9467bd; stroke-width: 1.5; stroke-linecap: square"/>
   </g>
   <g id="line2d_32">
    <path d="M 42.430625 253.403479 
L 533.470625 253.403479 
" clip-path="url(#p284895b48a)" style="fill: none; stroke-dasharray: 4.07,1.76; stroke-dashoffset: 0; stroke: #b73b3b; stroke-width: 1.1"/>
   </g>
   <g id="patch_3">
    <path d="M 42.430625 271.038281 
L 42.430625 21.558281 
" style="fill: none; stroke: #000000; stroke-width: 0.8; stroke-linejoin: miter; stroke-linecap: square"/>
   </g>
   <g id="patch_4">
    <path d="M 42.430625 271.038281 
L 533.470625 271.038281 
" style="fill: none; stroke: #000000; stroke-width: 0.8; stroke-linejoin: miter; stroke-linecap: square"/>
   </g>
   <g id="text_16">
    <!-- Variable continua: desplazamiento del bloque en el tiempo -->
    <g transform="translate(125.811484 15.558281) scale(0.11 -0.11)">
     <defs>
      <path id="DejaVuSans-56" d="M 1831 0 
L 50 4666 
L 709 4666 
L 2188 738 
L 3669 4666 
L 4325 4666 
L 2547 0 
L 1831 0 
z
" transform="scale(0.015625)"/>
      <path id="DejaVuSans-72" d="M 2631 2963 
Q 2534 3019 2420 3045 
Q 2306 3072 2169 3072 
Q 1681 3072 1420 2755 
Q 1159 2438 1159 1844 
L 1159 0 
L 581 0 
L 581 3500 
L 1159 3500 
L 1159 2956 
Q 1341 3275 1631 3429 
Q 1922 3584 2338 3584 
Q 2397 3584 2469 3576 
Q 2541 3569 2628 3553 
L 2631 2963 
z
" transform="scale(0.015625)"/>
      <path id="DejaVuSans-62" d="M 3116 1747 
Q 3116 2381 2855 2742 
Q 2594 3103 2138 3103 
Q 1681 3103 1420 2742 
Q 1159 2381 1159 1747 
Q 1159 1113 1420 752 
Q 1681 391 2138 391 
Q 2594 391 2855 752 
Q 3116 1113 3116 1747 
z
M 1159 2969 
Q 1341 3281 1617 3432 
Q 1894 3584 2278 3584 
Q 2916 3584 3314 3078 
Q 3713 2572 3713 1747 
Q 3713 922 3314 415 
Q 2916 -91 2278 -91 
Q 1894 -91 1617 61 
Q 1341 213 1159 525 
L 1159 0 
L 581 0 
L 581 4863 
L 1159 4863 
L 1159 2969 
z
" transform="scale(0.015625)"/>
      <path id="DejaVuSans-3a" d="M 750 794 
L 1409 794 
L 1409 0 
L 750 0 
L 750 794 
z
M 750 3309 
L 1409 3309 
L 1409 2516 
L 750 2516 
L 750 3309 
z
" transform="scale(0.015625)"/>
     </defs>
     <use xlink:href="#DejaVuSans-56"/>
     <use xlink:href="#DejaVuSans-61" x="60.658203"/>
     <use xlink:href="#DejaVuSans-72" x="121.9375"/>
     <use xlink:href="#DejaVuSans-69" x="163.050781"/>
     <use xlink:href="#DejaVuSans-61" x="190.833984"/>
     <use xlink:href="#DejaVuSans-62" x="252.113281"/>
     <use xlink:href="#DejaVuSans-6c" x="315.589844"/>
     <use xlink:href="#DejaVuSans-65" x="343.373047"/>
     <use xlink:href="#DejaVuSans-20" x="404.896484"/>
     <use xlink:href="#DejaVuSans-63" x="436.683594"/>
     <use xlink:href="#DejaVuSans-6f" x="491.664062"/>
     <use xlink:href="#DejaVuSans-6e" x="552.845703"/>
     <use xlink:href="#DejaVuSans-74" x="616.224609"/>
     <use xlink:href="#DejaVuSans-69" x="655.433594"/>
     <use xlink:href="#DejaVuSans-6e" x="683.216797"/>
     <use xlink:href="#DejaVuSans-75" x="746.595703"/>
     <use xlink:href="#DejaVuSans-61" x="809.974609"/>
     <use xlink:href="#DejaVuSans-3a" x="871.253906"/>
     <use xlink:href="#DejaVuSans-20" x="904.945312"/>
     <use xlink:href="#DejaVuSans-64" x="936.732422"/>
     <use xlink:href="#DejaVuSans-65" x="1000.208984"/>
     <use xlink:href="#DejaVuSans-73" x="1061.732422"/>
     <use xlink:href="#DejaVuSans-70" x="1113.832031"/>
     <use xlink:href="#DejaVuSans-6c" x="1177.308594"/>
     <use xlink:href="#DejaVuSans-61" x="1205.091797"/>
     <use xlink:href="#DejaVuSans-7a" x="1266.371094"/>
     <use xlink:href="#DejaVuSans-61" x="1318.861328"/>
     <use xlink:href="#DejaVuSans-6d" x="1380.140625"/>
     <use xlink:href="#DejaVuSans-69" x="1477.552734"/>
     <use xlink:href="#DejaVuSans-65" x="1505.335938"/>
     <use xlink:href="#DejaVuSans-6e" x="1566.859375"/>
     <use xlink:href="#DejaVuSans-74" x="1630.238281"/>
     <use xlink:href="#DejaVuSans-6f" x="1669.447266"/>
     <use xlink:href="#DejaVuSans-20" x="1730.628906"/>
     <use xlink:href="#DejaVuSans-64" x="1762.416016"/>
     <use xlink:href="#DejaVuSans-65" x="1825.892578"/>
     <use xlink:href="#DejaVuSans-6c" x="1887.416016"/>
     <use xlink:href="#DejaVuSans-20" x="1915.199219"/>
     <use xlink:href="#DejaVuSans-62" x="1946.986328"/>
     <use xlink:href="#DejaVuSans-6c" x="2010.462891"/>
     <use xlink:href="#DejaVuSans-6f" x="2038.246094"/>
     <use xlink:href="#DejaVuSans-71" x="2099.427734"/>
     <use xlink:href="#DejaVuSans-75" x="2162.904297"/>
     <use xlink:href="#DejaVuSans-65" x="2226.283203"/>
     <use xlink:href="#DejaVuSans-20" x="2287.806641"/>
     <use xlink:href="#DejaVuSans-65" x="2319.59375"/>
     <use xlink:href="#DejaVuSans-6e" x="2381.117188"/>
     <use xlink:href="#DejaVuSans-20" x="2444.496094"/>
     <use xlink:href="#DejaVuSans-65" x="2476.283203"/>
     <use xlink:href="#DejaVuSans-6c" x="2537.806641"/>
     <use xlink:href="#DejaVuSans-20" x="2565.589844"/>
     <use xlink:href="#DejaVuSans-74" x="2597.376953"/>
     <use xlink:href="#DejaVuSans-69" x="2636.585938"/>
     <use xlink:href="#DejaVuSans-65" x="2664.369141"/>
     <use xlink:href="#DejaVuSans-6d" x="2725.892578"/>
     <use xlink:href="#DejaVuSans-70" x="2823.304688"/>
     <use xlink:href="#DejaVuSans-6f" x="2886.78125"/>
    </g>
   </g>
   <g id="legend_1">
    <g id="line2d_33">
     <path d="M 350.160625 133.852031 
L 358.160625 133.852031 
L 366.160625 133.852031 
" style="fill: none; stroke: #1f77b4; stroke-width: 1.5; stroke-linecap: square"/>
    </g>
    <g id="text_17">
     <!-- dp=0.006 m -->
     <g transform="translate(372.560625 136.652031) scale(0.08 -0.08)">
      <defs>
       <path id="DejaVuSans-3d" d="M 678 2906 
L 4684 2906 
L 4684 2381 
L 678 2381 
L 678 2906 
z
M 678 1631 
L 4684 1631 
L 4684 1100 
L 678 1100 
L 678 1631 
z
" transform="scale(0.015625)"/>
       <path id="DejaVuSans-2e" d="M 684 794 
L 1344 794 
L 1344 0 
L 684 0 
L 684 794 
z
" transform="scale(0.015625)"/>
      </defs>
      <use xlink:href="#DejaVuSans-64"/>
      <use xlink:href="#DejaVuSans-70" x="63.476562"/>
      <use xlink:href="#DejaVuSans-3d" x="126.953125"/>
      <use xlink:href="#DejaVuSans-30" x="210.742188"/>
      <use xlink:href="#DejaVuSans-2e" x="274.365234"/>
      <use xlink:href="#DejaVuSans-30" x="306.152344"/>
      <use xlink:href="#DejaVuSans-30" x="369.775391"/>
      <use xlink:href="#DejaVuSans-36" x="433.398438"/>
      <use xlink:href="#DejaVuSans-20" x="497.021484"/>
      <use xlink:href="#DejaVuSans-6d" x="528.808594"/>
     </g>
    </g>
    <g id="line2d_34">
     <path d="M 350.160625 145.594531 
L 358.160625 145.594531 
L 366.160625 145.594531 
" style="fill: none; stroke: #ff7f0e; stroke-width: 1.5; stroke-linecap: square"/>
    </g>
    <g id="text_18">
     <!-- dp=0.005 m -->
     <g transform="translate(372.560625 148.394531) scale(0.08 -0.08)">
      <use xlink:href="#DejaVuSans-64"/>
      <use xlink:href="#DejaVuSans-70" x="63.476562"/>
      <use xlink:href="#DejaVuSans-3d" x="126.953125"/>
      <use xlink:href="#DejaVuSans-30" x="210.742188"/>
      <use xlink:href="#DejaVuSans-2e" x="274.365234"/>
      <use xlink:href="#DejaVuSans-30" x="306.152344"/>
      <use xlink:href="#DejaVuSans-30" x="369.775391"/>
      <use xlink:href="#DejaVuSans-35" x="433.398438"/>
      <use xlink:href="#DejaVuSans-20" x="497.021484"/>
      <use xlink:href="#DejaVuSans-6d" x="528.808594"/>
     </g>
    </g>
    <g id="line2d_35">
     <path d="M 350.160625 157.337031 
L 358.160625 157.337031 
L 366.160625 157.337031 
" style="fill: none; stroke: #2ca02c; stroke-width: 1.5; stroke-linecap: square"/>
    </g>
    <g id="text_19">
     <!-- dp=0.004 m -->
     <g transform="translate(372.560625 160.137031) scale(0.08 -0.08)">
      <use xlink:href="#DejaVuSans-64"/>
      <use xlink:href="#DejaVuSans-70" x="63.476562"/>
      <use xlink:href="#DejaVuSans-3d" x="126.953125"/>
      <use xlink:href="#DejaVuSans-30" x="210.742188"/>
      <use xlink:href="#DejaVuSans-2e" x="274.365234"/>
      <use xlink:href="#DejaVuSans-30" x="306.152344"/>
      <use xlink:href="#DejaVuSans-30" x="369.775391"/>
      <use xlink:href="#DejaVuSans-34" x="433.398438"/>
      <use xlink:href="#DejaVuSans-20" x="497.021484"/>
      <use xlink:href="#DejaVuSans-6d" x="528.808594"/>
     </g>
    </g>
    <g id="line2d_36">
     <path d="M 438.659375 133.852031 
L 446.659375 133.852031 
L 454.659375 133.852031 
" style="fill: none; stroke: #d62728; stroke-width: 1.5; stroke-linecap: square"/>
    </g>
    <g id="text_20">
     <!-- dp=0.003 m -->
     <g transform="translate(461.059375 136.652031) scale(0.08 -0.08)">
      <defs>
       <path id="DejaVuSans-33" d="M 2597 2516 
Q 3050 2419 3304 2112 
Q 3559 1806 3559 1356 
Q 3559 666 3084 287 
Q 2609 -91 1734 -91 
Q 1441 -91 1130 -33 
Q 819 25 488 141 
L 488 750 
Q 750 597 1062 519 
Q 1375 441 1716 441 
Q 2309 441 2620 675 
Q 2931 909 2931 1356 
Q 2931 1769 2642 2001 
Q 2353 2234 1838 2234 
L 1294 2234 
L 1294 2753 
L 1863 2753 
Q 2328 2753 2575 2939 
Q 2822 3125 2822 3475 
Q 2822 3834 2567 4026 
Q 2313 4219 1838 4219 
Q 1578 4219 1281 4162 
Q 984 4106 628 3988 
L 628 4550 
Q 988 4650 1302 4700 
Q 1616 4750 1894 4750 
Q 2613 4750 3031 4423 
Q 3450 4097 3450 3541 
Q 3450 3153 3228 2886 
Q 3006 2619 2597 2516 
z
" transform="scale(0.015625)"/>
      </defs>
      <use xlink:href="#DejaVuSans-64"/>
      <use xlink:href="#DejaVuSans-70" x="63.476562"/>
      <use xlink:href="#DejaVuSans-3d" x="126.953125"/>
      <use xlink:href="#DejaVuSans-30" x="210.742188"/>
      <use xlink:href="#DejaVuSans-2e" x="274.365234"/>
      <use xlink:href="#DejaVuSans-30" x="306.152344"/>
      <use xlink:href="#DejaVuSans-30" x="369.775391"/>
      <use xlink:href="#DejaVuSans-33" x="433.398438"/>
      <use xlink:href="#DejaVuSans-20" x="497.021484"/>
      <use xlink:href="#DejaVuSans-6d" x="528.808594"/>
     </g>
    </g>
    <g id="line2d_37">
     <path d="M 438.659375 145.594531 
L 446.659375 145.594531 
L 454.659375 145.594531 
" style="fill: none; stroke: #9467bd; stroke-width: 1.5; stroke-linecap: square"/>
    </g>
    <g id="text_21">
     <!-- dp=0.002 m -->
     <g transform="translate(461.059375 148.394531) scale(0.08 -0.08)">
      <use xlink:href="#DejaVuSans-64"/>
      <use xlink:href="#DejaVuSans-70" x="63.476562"/>
      <use xlink:href="#DejaVuSans-3d" x="126.953125"/>
      <use xlink:href="#DejaVuSans-30" x="210.742188"/>
      <use xlink:href="#DejaVuSans-2e" x="274.365234"/>
      <use xlink:href="#DejaVuSans-30" x="306.152344"/>
      <use xlink:href="#DejaVuSans-30" x="369.775391"/>
      <use xlink:href="#DejaVuSans-32" x="433.398438"/>
      <use xlink:href="#DejaVuSans-20" x="497.021484"/>
      <use xlink:href="#DejaVuSans-6d" x="528.808594"/>
     </g>
    </g>
    <g id="line2d_38">
     <path d="M 438.659375 157.337031 
L 446.659375 157.337031 
L 454.659375 157.337031 
" style="fill: none; stroke-dasharray: 4.07,1.76; stroke-dashoffset: 0; stroke: #b73b3b; stroke-width: 1.1"/>
    </g>
    <g id="text_22">
     <!-- umbral 5% d_eq -->
     <g transform="translate(461.059375 160.137031) scale(0.08 -0.08)">
      <use xlink:href="#DejaVuSans-75"/>
      <use xlink:href="#DejaVuSans-6d" x="63.378906"/>
      <use xlink:href="#DejaVuSans-62" x="160.791016"/>
      <use xlink:href="#DejaVuSans-72" x="224.267578"/>
      <use xlink:href="#DejaVuSans-61" x="265.380859"/>
      <use xlink:href="#DejaVuSans-6c" x="326.660156"/>
      <use xlink:href="#DejaVuSans-20" x="354.443359"/>
      <use xlink:href="#DejaVuSans-35" x="386.230469"/>
      <use xlink:href="#DejaVuSans-25" x="449.853516"/>
      <use xlink:href="#DejaVuSans-20" x="544.873047"/>
      <use xlink:href="#DejaVuSans-64" x="576.660156"/>
      <use xlink:href="#DejaVuSans-5f" x="640.136719"/>
      <use xlink:href="#DejaVuSans-65" x="690.136719"/>
      <use xlink:href="#DejaVuSans-71" x="751.660156"/>
     </g>
    </g>
   </g>
  </g>
 </g>
 <defs>
  <clipPath id="p284895b48a">
   <rect x="42.430625" y="21.558281" width="491.04" height="249.48"/>
  </clipPath>
 </defs>
</svg>
