<?xml version="1.0" encoding="utf-8" standalone="no"?>
<!DOCTYPE svg PUBLIC "-//W3C//DTD SVG 1.1//EN"
  "http://www.w3.org/Graphics/SVG/1.1/DTD/svg11.dtd">
<svg xmlns:xlink="http://www.w3.org/1999/xlink" width="628.2pt" height="227.282932pt" viewBox="0 0 628.2 227.282932" xmlns="http://www.w3.org/2000/svg" version="1.1">
 <metadata>
  <rdf:RDF xmlns:dc="http://purl.org/dc/elements/1.1/" xmlns:cc="http://creativecommons.org/ns#" xmlns:rdf="http://www.w3.org/1999/02/22-rdf-syntax-ns#">
   <cc:Work>
    <dc:type rdf:resource="http://purl.org/dc/dcmitype/StillImage"/>
    <dc:date>2026-05-13T14:47:09.107368</dc:date>
    <dc:format>image/svg+xml</dc:format>
    <dc:creator>
     <cc:Agent>
      <dc:title>Matplotlib v3.7.5, https://matplotlib.org/</dc:title>
     </cc:Agent>
    </dc:creator>
   </cc:Work>
  </rdf:RDF>
 </metadata>
 <defs>
  <style type="text/css">*{stroke-linejoin: round; stroke-linecap: butt}</style>
 </defs>
 <g id="figure_1">
  <g id="patch_1">
   <path d="M 0 227.282932 
L 628.2 227.282932 
L 628.2 0 
L 0 0 
z
" style="fill: #ffffff"/>
  </g>
  <g id="axes_1">
   <g id="table_1">
    <g id="patch_2">
     <path d="M 7.2 77.546932 
L 185.202 77.546932 
L 185.202 58.946933 
L 7.2 58.946933 
z
" style="fill: #eef2f6; stroke: #d8dee8; stroke-linejoin: miter"/>
    </g>
    <g id="text_1">
     <!-- Variable -->
     <g style="fill: #17202a" transform="translate(25.0002 70.73037) scale(0.09 -0.09)">
      <defs>
       <path id="DejaVuSans-Bold-56" d="M 31 4666 
L 1241 4666 
L 2478 1222 
L 3713 4666 
L 4922 4666 
L 3194 0 
L 1759 0 
L 31 4666 
z
" transform="scale(0.015625)"/>
       <path id="DejaVuSans-Bold-61" d="M 2106 1575 
Q 1756 1575 1579 1456 
Q 1403 1338 1403 1106 
Q 1403 894 1545 773 
Q 1688 653 1941 653 
Q 2256 653 2472 879 
Q 2688 1106 2688 1447 
L 2688 1575 
L 2106 1575 
z
M 3816 1997 
L 3816 0 
L 2688 0 
L 2688 519 
Q 2463 200 2181 54 
Q 1900 -91 1497 -91 
Q 953 -91 614 226 
Q 275 544 275 1050 
Q 275 1666 698 1953 
Q 1122 2241 2028 2241 
L 2688 2241 
L 2688 2328 
Q 2688 2594 2478 2717 
Q 2269 2841 1825 2841 
Q 1466 2841 1156 2769 
Q 847 2697 581 2553 
L 581 3406 
Q 941 3494 1303 3539 
Q 1666 3584 2028 3584 
Q 2975 3584 3395 3211 
Q 3816 2838 3816 1997 
z
" transform="scale(0.015625)"/>
       <path id="DejaVuSans-Bold-72" d="M 3138 2547 
Q 2991 2616 2845 2648 
Q 2700 2681 2553 2681 
Q 2122 2681 1889 2404 
Q 1656 2128 1656 1613 
L 1656 0 
L 538 0 
L 538 3500 
L 1656 3500 
L 1656 2925 
Q 1872 3269 2151 3426 
Q 2431 3584 2822 3584 
Q 2878 3584 2943 3579 
Q 3009 3575 3134 3559 
L 3138 2547 
z
" transform="scale(0.015625)"/>
       <path id="DejaVuSans-Bold-69" d="M 538 3500 
L 1656 3500 
L 1656 0 
L 538 0 
L 538 3500 
z
M 538 4863 
L 1656 4863 
L 1656 3950 
L 538 3950 
L 538 4863 
z
" transform="scale(0.015625)"/>
       <path id="DejaVuSans-Bold-62" d="M 2400 722 
Q 2759 722 2948 984 
Q 3138 1247 3138 1747 
Q 3138 2247 2948 2509 
Q 2759 2772 2400 2772 
Q 2041 2772 1848 2508 
Q 1656 2244 1656 1747 
Q 1656 1250 1848 986 
Q 2041 722 2400 722 
z
M 1656 2988 
Q 1888 3294 2169 3439 
Q 2450 3584 2816 3584 
Q 3463 3584 3878 3070 
Q 4294 2556 4294 1747 
Q 4294 938 3878 423 
Q 3463 -91 2816 -91 
Q 2450 -91 2169 54 
Q 1888 200 1656 506 
L 1656 0 
L 538 0 
L 538 4863 
L 1656 4863 
L 1656 2988 
z
" transform="scale(0.015625)"/>
       <path id="DejaVuSans-Bold-6c" d="M 538 4863 
L 1656 4863 
L 1656 0 
L 538 0 
L 538 4863 
z
" transform="scale(0.015625)"/>
       <path id="DejaVuSans-Bold-65" d="M 4031 1759 
L 4031 1441 
L 1416 1441 
Q 1456 1047 1700 850 
Q 1944 653 2381 653 
Q 2734 653 3104 758 
Q 3475 863 3866 1075 
L 3866 213 
Q 3469 63 3072 -14 
Q 2675 -91 2278 -91 
Q 1328 -91 801 392 
Q 275 875 275 1747 
Q 275 2603 792 3093 
Q 1309 3584 2216 3584 
Q 3041 3584 3536 3087 
Q 4031 2591 4031 1759 
z
M 2881 2131 
Q 2881 2450 2695 2645 
Q 2509 2841 2209 2841 
Q 1884 2841 1681 2658 
Q 1478 2475 1428 2131 
L 2881 2131 
z
" transform="scale(0.015625)"/>
      </defs>
      <use xlink:href="#DejaVuSans-Bold-56"/>
      <use xlink:href="#DejaVuSans-Bold-61" x="71.892578"/>
      <use xlink:href="#DejaVuSans-Bold-72" x="139.373047"/>
      <use xlink:href="#DejaVuSans-Bold-69" x="188.689453"/>
      <use xlink:href="#DejaVuSans-Bold-61" x="222.966797"/>
      <use xlink:href="#DejaVuSans-Bold-62" x="290.447266"/>
      <use xlink:href="#DejaVuSans-Bold-6c" x="362.029297"/>
      <use xlink:href="#DejaVuSans-Bold-65" x="396.306641"/>
     </g>
    </g>
    <g id="patch_3">
     <path d="M 185.202 77.546932 
L 283.41 77.546932 
L 283.41 58.946933 
L 185.202 58.946933 
z
" style="fill: #eef2f6; stroke: #d8dee8; stroke-linejoin: miter"/>
    </g>
    <g id="text_2">
     <!-- dp=0,003 -->
     <g style="fill: #17202a" transform="translate(195.0228 70.73037) scale(0.09 -0.09)">
      <defs>
       <path id="DejaVuSans-Bold-64" d="M 2919 2988 
L 2919 4863 
L 4044 4863 
L 4044 0 
L 2919 0 
L 2919 506 
Q 2688 197 2409 53 
Q 2131 -91 1766 -91 
Q 1119 -91 703 423 
Q 288 938 288 1747 
Q 288 2556 703 3070 
Q 1119 3584 1766 3584 
Q 2128 3584 2408 3439 
Q 2688 3294 2919 2988 
z
M 2181 722 
Q 2541 722 2730 984 
Q 2919 1247 2919 1747 
Q 2919 2247 2730 2509 
Q 2541 2772 2181 2772 
Q 1825 2772 1636 2509 
Q 1447 2247 1447 1747 
Q 1447 1247 1636 984 
Q 1825 722 2181 722 
z
" transform="scale(0.015625)"/>
       <path id="DejaVuSans-Bold-70" d="M 1656 506 
L 1656 -1331 
L 538 -1331 
L 538 3500 
L 1656 3500 
L 1656 2988 
Q 1888 3294 2169 3439 
Q 2450 3584 2816 3584 
Q 3463 3584 3878 3070 
Q 4294 2556 4294 1747 
Q 4294 938 3878 423 
Q 3463 -91 2816 -91 
Q 2450 -91 2169 54 
Q 1888 200 1656 506 
z
M 2400 2772 
Q 2041 2772 1848 2508 
Q 1656 2244 1656 1747 
Q 1656 1250 1848 986 
Q 2041 722 2400 722 
Q 2759 722 2948 984 
Q 3138 1247 3138 1747 
Q 3138 2247 2948 2509 
Q 2759 2772 2400 2772 
z
" transform="scale(0.015625)"/>
       <path id="DejaVuSans-Bold-3d" d="M 678 3084 
L 4684 3084 
L 4684 2350 
L 678 2350 
L 678 3084 
z
M 678 1663 
L 4684 1663 
L 4684 922 
L 678 922 
L 678 1663 
z
" transform="scale(0.015625)"/>
       <path id="DejaVuSans-Bold-30" d="M 2944 2338 
Q 2944 3213 2780 3570 
Q 2616 3928 2228 3928 
Q 1841 3928 1675 3570 
Q 1509 3213 1509 2338 
Q 1509 1453 1675 1090 
Q 1841 728 2228 728 
Q 2613 728 2778 1090 
Q 2944 1453 2944 2338 
z
M 4147 2328 
Q 4147 1169 3647 539 
Q 3147 -91 2228 -91 
Q 1306 -91 806 539 
Q 306 1169 306 2328 
Q 306 3491 806 4120 
Q 1306 4750 2228 4750 
Q 3147 4750 3647 4120 
Q 4147 3491 4147 2328 
z
" transform="scale(0.015625)"/>
       <path id="DejaVuSans-Bold-2c" d="M 653 1209 
L 1778 1209 
L 1778 256 
L 1006 -909 
L 341 -909 
L 653 256 
L 653 1209 
z
" transform="scale(0.015625)"/>
       <path id="DejaVuSans-Bold-33" d="M 2981 2516 
Q 3453 2394 3698 2092 
Q 3944 1791 3944 1325 
Q 3944 631 3412 270 
Q 2881 -91 1863 -91 
Q 1503 -91 1142 -33 
Q 781 25 428 141 
L 428 1069 
Q 766 900 1098 814 
Q 1431 728 1753 728 
Q 2231 728 2486 893 
Q 2741 1059 2741 1369 
Q 2741 1688 2480 1852 
Q 2219 2016 1709 2016 
L 1228 2016 
L 1228 2791 
L 1734 2791 
Q 2188 2791 2409 2933 
Q 2631 3075 2631 3366 
Q 2631 3634 2415 3781 
Q 2200 3928 1806 3928 
Q 1516 3928 1219 3862 
Q 922 3797 628 3669 
L 628 4550 
Q 984 4650 1334 4700 
Q 1684 4750 2022 4750 
Q 2931 4750 3382 4451 
Q 3834 4153 3834 3553 
Q 3834 3144 3618 2883 
Q 3403 2622 2981 2516 
z
" transform="scale(0.015625)"/>
      </defs>
      <use xlink:href="#DejaVuSans-Bold-64"/>
      <use xlink:href="#DejaVuSans-Bold-70" x="71.582031"/>
      <use xlink:href="#DejaVuSans-Bold-3d" x="143.164062"/>
      <use xlink:href="#DejaVuSans-Bold-30" x="226.953125"/>
      <use xlink:href="#DejaVuSans-Bold-2c" x="296.533203"/>
      <use xlink:href="#DejaVuSans-Bold-30" x="334.521484"/>
      <use xlink:href="#DejaVuSans-Bold-30" x="404.101562"/>
      <use xlink:href="#DejaVuSans-Bold-33" x="473.681641"/>
     </g>
    </g>
    <g id="patch_4">
     <path d="M 283.41 77.546932 
L 381.618 77.546932 
L 381.618 58.946933 
L 283.41 58.946933 
z
" style="fill: #eef2f6; stroke: #d8dee8; stroke-linejoin: miter"/>
    </g>
    <g id="text_3">
     <!-- dp=0,002 -->
     <g style="fill: #17202a" transform="translate(293.2308 70.73037) scale(0.09 -0.09)">
      <defs>
       <path id="DejaVuSans-Bold-32" d="M 1844 884 
L 3897 884 
L 3897 0 
L 506 0 
L 506 884 
L 2209 2388 
Q 2438 2594 2547 2791 
Q 2656 2988 2656 3200 
Q 2656 3528 2436 3728 
Q 2216 3928 1850 3928 
Q 1569 3928 1234 3808 
Q 900 3688 519 3450 
L 519 4475 
Q 925 4609 1322 4679 
Q 1719 4750 2100 4750 
Q 2938 4750 3402 4381 
Q 3866 4013 3866 3353 
Q 3866 2972 3669 2642 
Q 3472 2313 2841 1759 
L 1844 884 
z
" transform="scale(0.015625)"/>
      </defs>
      <use xlink:href="#DejaVuSans-Bold-64"/>
      <use xlink:href="#DejaVuSans-Bold-70" x="71.582031"/>
      <use xlink:href="#DejaVuSans-Bold-3d" x="143.164062"/>
      <use xlink:href="#DejaVuSans-Bold-30" x="226.953125"/>
      <use xlink:href="#DejaVuSans-Bold-2c" x="296.533203"/>
      <use xlink:href="#DejaVuSans-Bold-30" x="334.521484"/>
      <use xlink:href="#DejaVuSans-Bold-30" x="404.101562"/>
      <use xlink:href="#DejaVuSans-Bold-32" x="473.681641"/>
     </g>
    </g>
    <g id="patch_5">
     <path d="M 381.618 77.546932 
L 528.93 77.546932 
L 528.93 58.946933 
L 381.618 58.946933 
z
" style="fill: #eef2f6; stroke: #d8dee8; stroke-linejoin: miter"/>
    </g>
    <g id="text_4">
     <!-- Δ absoluto -->
     <g style="fill: #17202a" transform="translate(396.3492 70.73037) scale(0.09 -0.09)">
      <defs>
       <path id="DejaVuSans-Bold-394" d="M 4922 0 
L 31 0 
L 1759 4666 
L 3194 4666 
L 4922 0 
z
M 1559 909 
L 3384 909 
L 2478 3572 
L 1559 909 
z
" transform="scale(0.015625)"/>
       <path id="DejaVuSans-Bold-20" transform="scale(0.015625)"/>
       <path id="DejaVuSans-Bold-73" d="M 3272 3391 
L 3272 2541 
Q 2913 2691 2578 2766 
Q 2244 2841 1947 2841 
Q 1628 2841 1473 2761 
Q 1319 2681 1319 2516 
Q 1319 2381 1436 2309 
Q 1553 2238 1856 2203 
L 2053 2175 
Q 2913 2066 3209 1816 
Q 3506 1566 3506 1031 
Q 3506 472 3093 190 
Q 2681 -91 1863 -91 
Q 1516 -91 1145 -36 
Q 775 19 384 128 
L 384 978 
Q 719 816 1070 734 
Q 1422 653 1784 653 
Q 2113 653 2278 743 
Q 2444 834 2444 1013 
Q 2444 1163 2330 1236 
Q 2216 1309 1875 1350 
L 1678 1375 
Q 931 1469 631 1722 
Q 331 1975 331 2491 
Q 331 3047 712 3315 
Q 1094 3584 1881 3584 
Q 2191 3584 2531 3537 
Q 2872 3491 3272 3391 
z
" transform="scale(0.015625)"/>
       <path id="DejaVuSans-Bold-6f" d="M 2203 2784 
Q 1831 2784 1636 2517 
Q 1441 2250 1441 1747 
Q 1441 1244 1636 976 
Q 1831 709 2203 709 
Q 2569 709 2762 976 
Q 2956 1244 2956 1747 
Q 2956 2250 2762 2517 
Q 2569 2784 2203 2784 
z
M 2203 3584 
Q 3106 3584 3614 3096 
Q 4122 2609 4122 1747 
Q 4122 884 3614 396 
Q 3106 -91 2203 -91 
Q 1297 -91 786 396 
Q 275 884 275 1747 
Q 275 2609 786 3096 
Q 1297 3584 2203 3584 
z
" transform="scale(0.015625)"/>
       <path id="DejaVuSans-Bold-75" d="M 500 1363 
L 500 3500 
L 1625 3500 
L 1625 3150 
Q 1625 2866 1622 2436 
Q 1619 2006 1619 1863 
Q 1619 1441 1641 1255 
Q 1663 1069 1716 984 
Q 1784 875 1895 815 
Q 2006 756 2150 756 
Q 2500 756 2700 1025 
Q 2900 1294 2900 1772 
L 2900 3500 
L 4019 3500 
L 4019 0 
L 2900 0 
L 2900 506 
Q 2647 200 2364 54 
Q 2081 -91 1741 -91 
Q 1134 -91 817 281 
Q 500 653 500 1363 
z
" transform="scale(0.015625)"/>
       <path id="DejaVuSans-Bold-74" d="M 1759 4494 
L 1759 3500 
L 2913 3500 
L 2913 2700 
L 1759 2700 
L 1759 1216 
Q 1759 972 1856 886 
Q 1953 800 2241 800 
L 2816 800 
L 2816 0 
L 1856 0 
Q 1194 0 917 276 
Q 641 553 641 1216 
L 641 2700 
L 84 2700 
L 84 3500 
L 641 3500 
L 641 4494 
L 1759 4494 
z
" transform="scale(0.015625)"/>
      </defs>
      <use xlink:href="#DejaVuSans-Bold-394"/>
      <use xlink:href="#DejaVuSans-Bold-20" x="77.392578"/>
      <use xlink:href="#DejaVuSans-Bold-61" x="112.207031"/>
      <use xlink:href="#DejaVuSans-Bold-62" x="179.6875"/>
      <use xlink:href="#DejaVuSans-Bold-73" x="251.269531"/>
      <use xlink:href="#DejaVuSans-Bold-6f" x="310.791016"/>
      <use xlink:href="#DejaVuSans-Bold-6c" x="379.492188"/>
      <use xlink:href="#DejaVuSans-Bold-75" x="413.769531"/>
      <use xlink:href="#DejaVuSans-Bold-74" x="484.960938"/>
      <use xlink:href="#DejaVuSans-Bold-6f" x="532.763672"/>
     </g>
    </g>
    <g id="patch_6">
     <path d="M 528.93 77.546932 
L 621 77.546932 
L 621 58.946933 
L 528.93 58.946933 
z
" style="fill: #eef2f6; stroke: #d8dee8; stroke-linejoin: miter"/>
    </g>
    <g id="text_5">
     <!-- Δ relativo -->
     <g style="fill: #17202a" transform="translate(538.137 70.73037) scale(0.09 -0.09)">
      <defs>
       <path id="DejaVuSans-Bold-76" d="M 97 3500 
L 1216 3500 
L 2088 1081 
L 2956 3500 
L 4078 3500 
L 2700 0 
L 1472 0 
L 97 3500 
z
" transform="scale(0.015625)"/>
      </defs>
      <use xlink:href="#DejaVuSans-Bold-394"/>
      <use xlink:href="#DejaVuSans-Bold-20" x="77.392578"/>
      <use xlink:href="#DejaVuSans-Bold-72" x="112.207031"/>
      <use xlink:href="#DejaVuSans-Bold-65" x="161.523438"/>
      <use xlink:href="#DejaVuSans-Bold-6c" x="229.345703"/>
      <use xlink:href="#DejaVuSans-Bold-61" x="263.623047"/>
      <use xlink:href="#DejaVuSans-Bold-74" x="331.103516"/>
      <use xlink:href="#DejaVuSans-Bold-69" x="378.90625"/>
      <use xlink:href="#DejaVuSans-Bold-76" x="413.183594"/>
      <use xlink:href="#DejaVuSans-Bold-6f" x="478.369141"/>
     </g>
    </g>
    <g id="patch_7">
     <path d="M 7.2 96.146933 
L 185.202 96.146933 
L 185.202 77.546933 
L 7.2 77.546933 
z
" style="fill: #eaf3ed; stroke: #d8dee8; stroke-linejoin: miter"/>
    </g>
    <g id="text_6">
     <!-- Altura/cota agua máx. -->
     <g transform="translate(25.0002 89.475214) scale(0.09 -0.09)">
      <defs>
       <path id="DejaVuSans-Bold-41" d="M 3419 850 
L 1538 850 
L 1241 0 
L 31 0 
L 1759 4666 
L 3194 4666 
L 4922 0 
L 3713 0 
L 3419 850 
z
M 1838 1716 
L 3116 1716 
L 2478 3572 
L 1838 1716 
z
" transform="scale(0.015625)"/>
       <path id="DejaVuSans-Bold-2f" d="M 1644 4666 
L 2338 4666 
L 691 -594 
L 0 -594 
L 1644 4666 
z
" transform="scale(0.015625)"/>
       <path id="DejaVuSans-Bold-63" d="M 3366 3391 
L 3366 2478 
Q 3138 2634 2908 2709 
Q 2678 2784 2431 2784 
Q 1963 2784 1702 2511 
Q 1441 2238 1441 1747 
Q 1441 1256 1702 982 
Q 1963 709 2431 709 
Q 2694 709 2930 787 
Q 3166 866 3366 1019 
L 3366 103 
Q 3103 6 2833 -42 
Q 2563 -91 2291 -91 
Q 1344 -91 809 395 
Q 275 881 275 1747 
Q 275 2613 809 3098 
Q 1344 3584 2291 3584 
Q 2566 3584 2833 3536 
Q 3100 3488 3366 3391 
z
" transform="scale(0.015625)"/>
       <path id="DejaVuSans-Bold-67" d="M 2919 594 
Q 2688 288 2409 144 
Q 2131 0 1766 0 
Q 1125 0 706 504 
Q 288 1009 288 1791 
Q 288 2575 706 3076 
Q 1125 3578 1766 3578 
Q 2131 3578 2409 3434 
Q 2688 3291 2919 2981 
L 2919 3500 
L 4044 3500 
L 4044 353 
Q 4044 -491 3511 -936 
Q 2978 -1381 1966 -1381 
Q 1638 -1381 1331 -1331 
Q 1025 -1281 716 -1178 
L 716 -306 
Q 1009 -475 1290 -558 
Q 1572 -641 1856 -641 
Q 2406 -641 2662 -400 
Q 2919 -159 2919 353 
L 2919 594 
z
M 2181 2772 
Q 1834 2772 1640 2515 
Q 1447 2259 1447 1791 
Q 1447 1309 1634 1061 
Q 1822 813 2181 813 
Q 2531 813 2725 1069 
Q 2919 1325 2919 1791 
Q 2919 2259 2725 2515 
Q 2531 2772 2181 2772 
z
" transform="scale(0.015625)"/>
       <path id="DejaVuSans-Bold-6d" d="M 3781 2919 
Q 3994 3244 4286 3414 
Q 4578 3584 4928 3584 
Q 5531 3584 5847 3212 
Q 6163 2841 6163 2131 
L 6163 0 
L 5038 0 
L 5038 1825 
Q 5041 1866 5042 1909 
Q 5044 1953 5044 2034 
Q 5044 2406 4934 2573 
Q 4825 2741 4581 2741 
Q 4263 2741 4089 2478 
Q 3916 2216 3909 1719 
L 3909 0 
L 2784 0 
L 2784 1825 
Q 2784 2406 2684 2573 
Q 2584 2741 2328 2741 
Q 2006 2741 1831 2477 
Q 1656 2213 1656 1722 
L 1656 0 
L 531 0 
L 531 3500 
L 1656 3500 
L 1656 2988 
Q 1863 3284 2130 3434 
Q 2397 3584 2719 3584 
Q 3081 3584 3359 3409 
Q 3638 3234 3781 2919 
z
" transform="scale(0.015625)"/>
       <path id="DejaVuSans-Bold-e1" d="M 2106 1575 
Q 1756 1575 1579 1456 
Q 1403 1338 1403 1106 
Q 1403 894 1545 773 
Q 1688 653 1941 653 
Q 2256 653 2472 879 
Q 2688 1106 2688 1447 
L 2688 1575 
L 2106 1575 
z
M 3816 1997 
L 3816 0 
L 2688 0 
L 2688 519 
Q 2463 200 2181 54 
Q 1900 -91 1497 -91 
Q 953 -91 614 226 
Q 275 544 275 1050 
Q 275 1666 698 1953 
Q 1122 2241 2028 2241 
L 2688 2241 
L 2688 2328 
Q 2688 2594 2478 2717 
Q 2269 2841 1825 2841 
Q 1466 2841 1156 2769 
Q 847 2697 581 2553 
L 581 3406 
Q 941 3494 1303 3539 
Q 1666 3584 2028 3584 
Q 2975 3584 3395 3211 
Q 3816 2838 3816 1997 
z
M 2606 5119 
L 3490 5119 
L 2337 3944 
L 1725 3944 
L 2606 5119 
z
" transform="scale(0.015625)"/>
       <path id="DejaVuSans-Bold-78" d="M 1422 1791 
L 159 3500 
L 1344 3500 
L 2059 2463 
L 2784 3500 
L 3969 3500 
L 2706 1797 
L 4031 0 
L 2847 0 
L 2059 1106 
L 1281 0 
L 97 0 
L 1422 1791 
z
" transform="scale(0.015625)"/>
       <path id="DejaVuSans-Bold-2e" d="M 653 1209 
L 1778 1209 
L 1778 0 
L 653 0 
L 653 1209 
z
" transform="scale(0.015625)"/>
      </defs>
      <use xlink:href="#DejaVuSans-Bold-41"/>
      <use xlink:href="#DejaVuSans-Bold-6c" x="77.392578"/>
      <use xlink:href="#DejaVuSans-Bold-74" x="111.669922"/>
      <use xlink:href="#DejaVuSans-Bold-75" x="159.472656"/>
      <use xlink:href="#DejaVuSans-Bold-72" x="230.664062"/>
      <use xlink:href="#DejaVuSans-Bold-61" x="279.980469"/>
      <use xlink:href="#DejaVuSans-Bold-2f" x="347.460938"/>
      <use xlink:href="#DejaVuSans-Bold-63" x="383.984375"/>
      <use xlink:href="#DejaVuSans-Bold-6f" x="443.261719"/>
      <use xlink:href="#DejaVuSans-Bold-74" x="511.962891"/>
      <use xlink:href="#DejaVuSans-Bold-61" x="559.765625"/>
      <use xlink:href="#DejaVuSans-Bold-20" x="627.246094"/>
      <use xlink:href="#DejaVuSans-Bold-61" x="662.060547"/>
      <use xlink:href="#DejaVuSans-Bold-67" x="729.541016"/>
      <use xlink:href="#DejaVuSans-Bold-75" x="801.123047"/>
      <use xlink:href="#DejaVuSans-Bold-61" x="872.314453"/>
      <use xlink:href="#DejaVuSans-Bold-20" x="939.794922"/>
      <use xlink:href="#DejaVuSans-Bold-6d" x="974.609375"/>
      <use xlink:href="#DejaVuSans-Bold-e1" x="1078.808594"/>
      <use xlink:href="#DejaVuSans-Bold-78" x="1146.289062"/>
      <use xlink:href="#DejaVuSans-Bold-2e" x="1210.791016"/>
     </g>
    </g>
    <g id="patch_8">
     <path d="M 185.202 96.146933 
L 283.41 96.146933 
L 283.41 77.546933 
L 185.202 77.546933 
z
" style="fill: #eaf3ed; stroke: #d8dee8; stroke-linejoin: miter"/>
    </g>
    <g id="text_7">
     <!-- 0.13031 m -->
     <g transform="translate(195.0228 89.33037) scale(0.09 -0.09)">
      <defs>
       <path id="DejaVuSans-30" d="M 2034 4250 
Q 1547 4250 1301 3770 
Q 1056 3291 1056 2328 
Q 1056 1369 1301 889 
Q 1547 409 2034 409 
Q 2525 409 2770 889 
Q 3016 1369 3016 2328 
Q 3016 3291 2770 3770 
Q 2525 4250 2034 4250 
z
M 2034 4750 
Q 2819 4750 3233 4129 
Q 3647 3509 3647 2328 
Q 3647 1150 3233 529 
Q 2819 -91 2034 -91 
Q 1250 -91 836 529 
Q 422 1150 422 2328 
Q 422 3509 836 4129 
Q 1250 4750 2034 4750 
z
" transform="scale(0.015625)"/>
       <path id="DejaVuSans-2e" d="M 684 794 
L 1344 794 
L 1344 0 
L 684 0 
L 684 794 
z
" transform="scale(0.015625)"/>
       <path id="DejaVuSans-31" d="M 794 531 
L 1825 531 
L 1825 4091 
L 703 3866 
L 703 4441 
L 1819 4666 
L 2450 4666 
L 2450 531 
L 3481 531 
L 3481 0 
L 794 0 
L 794 531 
z
" transform="scale(0.015625)"/>
       <path id="DejaVuSans-33" d="M 2597 2516 
Q 3050 2419 3304 2112 
Q 3559 1806 3559 1356 
Q 3559 666 3084 287 
Q 2609 -91 1734 -91 
Q 1441 -91 1130 -33 
Q 819 25 488 141 
L 488 750 
Q 750 597 1062 519 
Q 1375 441 1716 441 
Q 2309 441 2620 675 
Q 2931 909 2931 1356 
Q 2931 1769 2642 2001 
Q 2353 2234 1838 2234 
L 1294 2234 
L 1294 2753 
L 1863 2753 
Q 2328 2753 2575 2939 
Q 2822 3125 2822 3475 
Q 2822 3834 2567 4026 
Q 2313 4219 1838 4219 
Q 1578 4219 1281 4162 
Q 984 4106 628 3988 
L 628 4550 
Q 988 4650 1302 4700 
Q 1616 4750 1894 4750 
Q 2613 4750 3031 4423 
Q 3450 4097 3450 3541 
Q 3450 3153 3228 2886 
Q 3006 2619 2597 2516 
z
" transform="scale(0.015625)"/>
       <path id="DejaVuSans-20" transform="scale(0.015625)"/>
       <path id="DejaVuSans-6d" d="M 3328 2828 
Q 3544 3216 3844 3400 
Q 4144 3584 4550 3584 
Q 5097 3584 5394 3201 
Q 5691 2819 5691 2113 
L 5691 0 
L 5113 0 
L 5113 2094 
Q 5113 2597 4934 2840 
Q 4756 3084 4391 3084 
Q 3944 3084 3684 2787 
Q 3425 2491 3425 1978 
L 3425 0 
L 2847 0 
L 2847 2094 
Q 2847 2600 2669 2842 
Q 2491 3084 2119 3084 
Q 1678 3084 1418 2786 
Q 1159 2488 1159 1978 
L 1159 0 
L 581 0 
L 581 3500 
L 1159 3500 
L 1159 2956 
Q 1356 3278 1631 3431 
Q 1906 3584 2284 3584 
Q 2666 3584 2933 3390 
Q 3200 3197 3328 2828 
z
" transform="scale(0.015625)"/>
      </defs>
      <use xlink:href="#DejaVuSans-30"/>
      <use xlink:href="#DejaVuSans-2e" x="63.623047"/>
      <use xlink:href="#DejaVuSans-31" x="95.410156"/>
      <use xlink:href="#DejaVuSans-33" x="159.033203"/>
      <use xlink:href="#DejaVuSans-30" x="222.65625"/>
      <use xlink:href="#DejaVuSans-33" x="286.279297"/>
      <use xlink:href="#DejaVuSans-31" x="349.902344"/>
      <use xlink:href="#DejaVuSans-20" x="413.525391"/>
      <use xlink:href="#DejaVuSans-6d" x="445.3125"/>
     </g>
    </g>
    <g id="patch_9">
     <path d="M 283.41 96.146933 
L 381.618 96.146933 
L 381.618 77.546933 
L 283.41 77.546933 
z
" style="fill: #eaf3ed; stroke: #d8dee8; stroke-linejoin: miter"/>
    </g>
    <g id="text_8">
     <!-- 0.13585 m -->
     <g transform="translate(293.2308 89.33037) scale(0.09 -0.09)">
      <defs>
       <path id="DejaVuSans-35" d="M 691 4666 
L 3169 4666 
L 3169 4134 
L 1269 4134 
L 1269 2991 
Q 1406 3038 1543 3061 
Q 1681 3084 1819 3084 
Q 2600 3084 3056 2656 
Q 3513 2228 3513 1497 
Q 3513 744 3044 326 
Q 2575 -91 1722 -91 
Q 1428 -91 1123 -41 
Q 819 9 494 109 
L 494 744 
Q 775 591 1075 516 
Q 1375 441 1709 441 
Q 2250 441 2565 725 
Q 2881 1009 2881 1497 
Q 2881 1984 2565 2268 
Q 2250 2553 1709 2553 
Q 1456 2553 1204 2497 
Q 953 2441 691 2322 
L 691 4666 
z
" transform="scale(0.015625)"/>
       <path id="DejaVuSans-38" d="M 2034 2216 
Q 1584 2216 1326 1975 
Q 1069 1734 1069 1313 
Q 1069 891 1326 650 
Q 1584 409 2034 409 
Q 2484 409 2743 651 
Q 3003 894 3003 1313 
Q 3003 1734 2745 1975 
Q 2488 2216 2034 2216 
z
M 1403 2484 
Q 997 2584 770 2862 
Q 544 3141 544 3541 
Q 544 4100 942 4425 
Q 1341 4750 2034 4750 
Q 2731 4750 3128 4425 
Q 3525 4100 3525 3541 
Q 3525 3141 3298 2862 
Q 3072 2584 2669 2484 
Q 3125 2378 3379 2068 
Q 3634 1759 3634 1313 
Q 3634 634 3220 271 
Q 2806 -91 2034 -91 
Q 1263 -91 848 271 
Q 434 634 434 1313 
Q 434 1759 690 2068 
Q 947 2378 1403 2484 
z
M 1172 3481 
Q 1172 3119 1398 2916 
Q 1625 2713 2034 2713 
Q 2441 2713 2670 2916 
Q 2900 3119 2900 3481 
Q 2900 3844 2670 4047 
Q 2441 4250 2034 4250 
Q 1625 4250 1398 4047 
Q 1172 3844 1172 3481 
z
" transform="scale(0.015625)"/>
      </defs>
      <use xlink:href="#DejaVuSans-30"/>
      <use xlink:href="#DejaVuSans-2e" x="63.623047"/>
      <use xlink:href="#DejaVuSans-31" x="95.410156"/>
      <use xlink:href="#DejaVuSans-33" x="159.033203"/>
      <use xlink:href="#DejaVuSans-35" x="222.65625"/>
      <use xlink:href="#DejaVuSans-38" x="286.279297"/>
      <use xlink:href="#DejaVuSans-35" x="349.902344"/>
      <use xlink:href="#DejaVuSans-20" x="413.525391"/>
      <use xlink:href="#DejaVuSans-6d" x="445.3125"/>
     </g>
    </g>
    <g id="patch_10">
     <path d="M 381.618 96.146933 
L 528.93 96.146933 
L 528.93 77.546933 
L 381.618 77.546933 
z
" style="fill: #eaf3ed; stroke: #d8dee8; stroke-linejoin: miter"/>
    </g>
    <g id="text_9">
     <!-- -5.54 mm -->
     <g transform="translate(396.3492 89.33037) scale(0.09 -0.09)">
      <defs>
       <path id="DejaVuSans-2d" d="M 313 2009 
L 1997 2009 
L 1997 1497 
L 313 1497 
L 313 2009 
z
" transform="scale(0.015625)"/>
       <path id="DejaVuSans-34" d="M 2419 4116 
L 825 1625 
L 2419 1625 
L 2419 4116 
z
M 2253 4666 
L 3047 4666 
L 3047 1625 
L 3713 1625 
L 3713 1100 
L 3047 1100 
L 3047 0 
L 2419 0 
L 2419 1100 
L 313 1100 
L 313 1709 
L 2253 4666 
z
" transform="scale(0.015625)"/>
      </defs>
      <use xlink:href="#DejaVuSans-2d"/>
      <use xlink:href="#DejaVuSans-35" x="36.083984"/>
      <use xlink:href="#DejaVuSans-2e" x="99.707031"/>
      <use xlink:href="#DejaVuSans-35" x="131.494141"/>
      <use xlink:href="#DejaVuSans-34" x="195.117188"/>
      <use xlink:href="#DejaVuSans-20" x="258.740234"/>
      <use xlink:href="#DejaVuSans-6d" x="290.527344"/>
      <use xlink:href="#DejaVuSans-6d" x="387.939453"/>
     </g>
    </g>
    <g id="patch_11">
     <path d="M 528.93 96.146933 
L 621 96.146933 
L 621 77.546933 
L 528.93 77.546933 
z
" style="fill: #eaf3ed; stroke: #d8dee8; stroke-linejoin: miter"/>
    </g>
    <g id="text_10">
     <!-- -4.1% -->
     <g transform="translate(538.137 89.33037) scale(0.09 -0.09)">
      <defs>
       <path id="DejaVuSans-25" d="M 4653 2053 
Q 4381 2053 4226 1822 
Q 4072 1591 4072 1178 
Q 4072 772 4226 539 
Q 4381 306 4653 306 
Q 4919 306 5073 539 
Q 5228 772 5228 1178 
Q 5228 1588 5073 1820 
Q 4919 2053 4653 2053 
z
M 4653 2450 
Q 5147 2450 5437 2106 
Q 5728 1763 5728 1178 
Q 5728 594 5436 251 
Q 5144 -91 4653 -91 
Q 4153 -91 3862 251 
Q 3572 594 3572 1178 
Q 3572 1766 3864 2108 
Q 4156 2450 4653 2450 
z
M 1428 4353 
Q 1159 4353 1004 4120 
Q 850 3888 850 3481 
Q 850 3069 1003 2837 
Q 1156 2606 1428 2606 
Q 1700 2606 1854 2837 
Q 2009 3069 2009 3481 
Q 2009 3884 1853 4118 
Q 1697 4353 1428 4353 
z
M 4250 4750 
L 4750 4750 
L 1831 -91 
L 1331 -91 
L 4250 4750 
z
M 1428 4750 
Q 1922 4750 2215 4408 
Q 2509 4066 2509 3481 
Q 2509 2891 2217 2550 
Q 1925 2209 1428 2209 
Q 931 2209 642 2551 
Q 353 2894 353 3481 
Q 353 4063 643 4406 
Q 934 4750 1428 4750 
z
" transform="scale(0.015625)"/>
      </defs>
      <use xlink:href="#DejaVuSans-2d"/>
      <use xlink:href="#DejaVuSans-34" x="36.083984"/>
      <use xlink:href="#DejaVuSans-2e" x="99.707031"/>
      <use xlink:href="#DejaVuSans-31" x="131.494141"/>
      <use xlink:href="#DejaVuSans-25" x="195.117188"/>
     </g>
    </g>
    <g id="patch_12">
     <path d="M 7.2 114.746933 
L 185.202 114.746933 
L 185.202 96.146933 
L 7.2 96.146933 
z
" style="fill: #eaf3ed; stroke: #d8dee8; stroke-linejoin: miter"/>
    </g>
    <g id="text_11">
     <!-- Velocidad bloque máx. -->
     <g transform="translate(25.0002 108.11037) scale(0.09 -0.09)">
      <defs>
       <path id="DejaVuSans-Bold-71" d="M 2181 2772 
Q 1825 2772 1636 2509 
Q 1447 2247 1447 1747 
Q 1447 1247 1636 984 
Q 1825 722 2181 722 
Q 2541 722 2730 984 
Q 2919 1247 2919 1747 
Q 2919 2247 2730 2509 
Q 2541 2772 2181 2772 
z
M 2919 506 
Q 2688 197 2409 53 
Q 2131 -91 1766 -91 
Q 1119 -91 703 423 
Q 288 938 288 1747 
Q 288 2556 703 3067 
Q 1119 3578 1766 3578 
Q 2131 3578 2409 3434 
Q 2688 3291 2919 2981 
L 2919 3500 
L 4044 3500 
L 4044 -1331 
L 2919 -1331 
L 2919 506 
z
" transform="scale(0.015625)"/>
      </defs>
      <use xlink:href="#DejaVuSans-Bold-56"/>
      <use xlink:href="#DejaVuSans-Bold-65" x="71.892578"/>
      <use xlink:href="#DejaVuSans-Bold-6c" x="139.714844"/>
      <use xlink:href="#DejaVuSans-Bold-6f" x="173.992188"/>
      <use xlink:href="#DejaVuSans-Bold-63" x="242.693359"/>
      <use xlink:href="#DejaVuSans-Bold-69" x="301.970703"/>
      <use xlink:href="#DejaVuSans-Bold-64" x="336.248047"/>
      <use xlink:href="#DejaVuSans-Bold-61" x="407.830078"/>
      <use xlink:href="#DejaVuSans-Bold-64" x="475.310547"/>
      <use xlink:href="#DejaVuSans-Bold-20" x="546.892578"/>
      <use xlink:href="#DejaVuSans-Bold-62" x="581.707031"/>
      <use xlink:href="#DejaVuSans-Bold-6c" x="653.289062"/>
      <use xlink:href="#DejaVuSans-Bold-6f" x="687.566406"/>
      <use xlink:href="#DejaVuSans-Bold-71" x="756.267578"/>
      <use xlink:href="#DejaVuSans-Bold-75" x="827.849609"/>
      <use xlink:href="#DejaVuSans-Bold-65" x="899.041016"/>
      <use xlink:href="#DejaVuSans-Bold-20" x="966.863281"/>
      <use xlink:href="#DejaVuSans-Bold-6d" x="1001.677734"/>
      <use xlink:href="#DejaVuSans-Bold-e1" x="1105.876953"/>
      <use xlink:href="#DejaVuSans-Bold-78" x="1173.357422"/>
      <use xlink:href="#DejaVuSans-Bold-2e" x="1237.859375"/>
     </g>
    </g>
    <g id="patch_13">
     <path d="M 185.202 114.746933 
L 283.41 114.746933 
L 283.41 96.146933 
L 185.202 96.146933 
z
" style="fill: #eaf3ed; stroke: #d8dee8; stroke-linejoin: miter"/>
    </g>
    <g id="text_12">
     <!-- 0.1427 m/s -->
     <g transform="translate(195.0228 107.93037) scale(0.09 -0.09)">
      <defs>
       <path id="DejaVuSans-32" d="M 1228 531 
L 3431 531 
L 3431 0 
L 469 0 
L 469 531 
Q 828 903 1448 1529 
Q 2069 2156 2228 2338 
Q 2531 2678 2651 2914 
Q 2772 3150 2772 3378 
Q 2772 3750 2511 3984 
Q 2250 4219 1831 4219 
Q 1534 4219 1204 4116 
Q 875 4013 500 3803 
L 500 4441 
Q 881 4594 1212 4672 
Q 1544 4750 1819 4750 
Q 2544 4750 2975 4387 
Q 3406 4025 3406 3419 
Q 3406 3131 3298 2873 
Q 3191 2616 2906 2266 
Q 2828 2175 2409 1742 
Q 1991 1309 1228 531 
z
" transform="scale(0.015625)"/>
       <path id="DejaVuSans-37" d="M 525 4666 
L 3525 4666 
L 3525 4397 
L 1831 0 
L 1172 0 
L 2766 4134 
L 525 4134 
L 525 4666 
z
" transform="scale(0.015625)"/>
       <path id="DejaVuSans-2f" d="M 1625 4666 
L 2156 4666 
L 531 -594 
L 0 -594 
L 1625 4666 
z
" transform="scale(0.015625)"/>
       <path id="DejaVuSans-73" d="M 2834 3397 
L 2834 2853 
Q 2591 2978 2328 3040 
Q 2066 3103 1784 3103 
Q 1356 3103 1142 2972 
Q 928 2841 928 2578 
Q 928 2378 1081 2264 
Q 1234 2150 1697 2047 
L 1894 2003 
Q 2506 1872 2764 1633 
Q 3022 1394 3022 966 
Q 3022 478 2636 193 
Q 2250 -91 1575 -91 
Q 1294 -91 989 -36 
Q 684 19 347 128 
L 347 722 
Q 666 556 975 473 
Q 1284 391 1588 391 
Q 1994 391 2212 530 
Q 2431 669 2431 922 
Q 2431 1156 2273 1281 
Q 2116 1406 1581 1522 
L 1381 1569 
Q 847 1681 609 1914 
Q 372 2147 372 2553 
Q 372 3047 722 3315 
Q 1072 3584 1716 3584 
Q 2034 3584 2315 3537 
Q 2597 3491 2834 3397 
z
" transform="scale(0.015625)"/>
      </defs>
      <use xlink:href="#DejaVuSans-30"/>
      <use xlink:href="#DejaVuSans-2e" x="63.623047"/>
      <use xlink:href="#DejaVuSans-31" x="95.410156"/>
      <use xlink:href="#DejaVuSans-34" x="159.033203"/>
      <use xlink:href="#DejaVuSans-32" x="222.65625"/>
      <use xlink:href="#DejaVuSans-37" x="286.279297"/>
      <use xlink:href="#DejaVuSans-20" x="349.902344"/>
      <use xlink:href="#DejaVuSans-6d" x="381.689453"/>
      <use xlink:href="#DejaVuSans-2f" x="479.101562"/>
      <use xlink:href="#DejaVuSans-73" x="512.792969"/>
     </g>
    </g>
    <g id="patch_14">
     <path d="M 283.41 114.746933 
L 381.618 114.746933 
L 381.618 96.146933 
L 283.41 96.146933 
z
" style="fill: #eaf3ed; stroke: #d8dee8; stroke-linejoin: miter"/>
    </g>
    <g id="text_13">
     <!-- 0.1483 m/s -->
     <g transform="translate(293.2308 107.93037) scale(0.09 -0.09)">
      <use xlink:href="#DejaVuSans-30"/>
      <use xlink:href="#DejaVuSans-2e" x="63.623047"/>
      <use xlink:href="#DejaVuSans-31" x="95.410156"/>
      <use xlink:href="#DejaVuSans-34" x="159.033203"/>
      <use xlink:href="#DejaVuSans-38" x="222.65625"/>
      <use xlink:href="#DejaVuSans-33" x="286.279297"/>
      <use xlink:href="#DejaVuSans-20" x="349.902344"/>
      <use xlink:href="#DejaVuSans-6d" x="381.689453"/>
      <use xlink:href="#DejaVuSans-2f" x="479.101562"/>
      <use xlink:href="#DejaVuSans-73" x="512.792969"/>
     </g>
    </g>
    <g id="patch_15">
     <path d="M 381.618 114.746933 
L 528.93 114.746933 
L 528.93 96.146933 
L 381.618 96.146933 
z
" style="fill: #eaf3ed; stroke: #d8dee8; stroke-linejoin: miter"/>
    </g>
    <g id="text_14">
     <!-- -0.0056 m/s -->
     <g transform="translate(396.3492 107.93037) scale(0.09 -0.09)">
      <defs>
       <path id="DejaVuSans-36" d="M 2113 2584 
Q 1688 2584 1439 2293 
Q 1191 2003 1191 1497 
Q 1191 994 1439 701 
Q 1688 409 2113 409 
Q 2538 409 2786 701 
Q 3034 994 3034 1497 
Q 3034 2003 2786 2293 
Q 2538 2584 2113 2584 
z
M 3366 4563 
L 3366 3988 
Q 3128 4100 2886 4159 
Q 2644 4219 2406 4219 
Q 1781 4219 1451 3797 
Q 1122 3375 1075 2522 
Q 1259 2794 1537 2939 
Q 1816 3084 2150 3084 
Q 2853 3084 3261 2657 
Q 3669 2231 3669 1497 
Q 3669 778 3244 343 
Q 2819 -91 2113 -91 
Q 1303 -91 875 529 
Q 447 1150 447 2328 
Q 447 3434 972 4092 
Q 1497 4750 2381 4750 
Q 2619 4750 2861 4703 
Q 3103 4656 3366 4563 
z
" transform="scale(0.015625)"/>
      </defs>
      <use xlink:href="#DejaVuSans-2d"/>
      <use xlink:href="#DejaVuSans-30" x="36.083984"/>
      <use xlink:href="#DejaVuSans-2e" x="99.707031"/>
      <use xlink:href="#DejaVuSans-30" x="131.494141"/>
      <use xlink:href="#DejaVuSans-30" x="195.117188"/>
      <use xlink:href="#DejaVuSans-35" x="258.740234"/>
      <use xlink:href="#DejaVuSans-36" x="322.363281"/>
      <use xlink:href="#DejaVuSans-20" x="385.986328"/>
      <use xlink:href="#DejaVuSans-6d" x="417.773438"/>
      <use xlink:href="#DejaVuSans-2f" x="515.185547"/>
      <use xlink:href="#DejaVuSans-73" x="548.876953"/>
     </g>
    </g>
    <g id="patch_16">
     <path d="M 528.93 114.746933 
L 621 114.746933 
L 621 96.146933 
L 528.93 96.146933 
z
" style="fill: #eaf3ed; stroke: #d8dee8; stroke-linejoin: miter"/>
    </g>
    <g id="text_15">
     <!-- -3.8% -->
     <g transform="translate(538.137 107.93037) scale(0.09 -0.09)">
      <use xlink:href="#DejaVuSans-2d"/>
      <use xlink:href="#DejaVuSans-33" x="36.083984"/>
      <use xlink:href="#DejaVuSans-2e" x="99.707031"/>
      <use xlink:href="#DejaVuSans-38" x="131.494141"/>
      <use xlink:href="#DejaVuSans-25" x="195.117188"/>
     </g>
    </g>
    <g id="patch_17">
     <path d="M 7.2 133.346933 
L 185.202 133.346933 
L 185.202 114.746933 
L 7.2 114.746933 
z
" style="fill: #eaf3ed; stroke: #d8dee8; stroke-linejoin: miter"/>
    </g>
    <g id="text_16">
     <!-- Desplazamiento máx. -->
     <g transform="translate(25.0002 126.71037) scale(0.09 -0.09)">
      <defs>
       <path id="DejaVuSans-Bold-44" d="M 1791 3756 
L 1791 909 
L 2222 909 
Q 2959 909 3348 1275 
Q 3738 1641 3738 2338 
Q 3738 3031 3350 3393 
Q 2963 3756 2222 3756 
L 1791 3756 
z
M 588 4666 
L 1856 4666 
Q 2919 4666 3439 4514 
Q 3959 4363 4331 4000 
Q 4659 3684 4818 3271 
Q 4978 2859 4978 2338 
Q 4978 1809 4818 1395 
Q 4659 981 4331 666 
Q 3956 303 3431 151 
Q 2906 0 1856 0 
L 588 0 
L 588 4666 
z
" transform="scale(0.015625)"/>
       <path id="DejaVuSans-Bold-7a" d="M 366 3500 
L 3419 3500 
L 3419 2719 
L 1575 800 
L 3419 800 
L 3419 0 
L 288 0 
L 288 781 
L 2131 2700 
L 366 2700 
L 366 3500 
z
" transform="scale(0.015625)"/>
       <path id="DejaVuSans-Bold-6e" d="M 4056 2131 
L 4056 0 
L 2931 0 
L 2931 347 
L 2931 1631 
Q 2931 2084 2911 2256 
Q 2891 2428 2841 2509 
Q 2775 2619 2662 2680 
Q 2550 2741 2406 2741 
Q 2056 2741 1856 2470 
Q 1656 2200 1656 1722 
L 1656 0 
L 538 0 
L 538 3500 
L 1656 3500 
L 1656 2988 
Q 1909 3294 2193 3439 
Q 2478 3584 2822 3584 
Q 3428 3584 3742 3212 
Q 4056 2841 4056 2131 
z
" transform="scale(0.015625)"/>
      </defs>
      <use xlink:href="#DejaVuSans-Bold-44"/>
      <use xlink:href="#DejaVuSans-Bold-65" x="83.007812"/>
      <use xlink:href="#DejaVuSans-Bold-73" x="150.830078"/>
      <use xlink:href="#DejaVuSans-Bold-70" x="210.351562"/>
      <use xlink:href="#DejaVuSans-Bold-6c" x="281.933594"/>
      <use xlink:href="#DejaVuSans-Bold-61" x="316.210938"/>
      <use xlink:href="#DejaVuSans-Bold-7a" x="383.691406"/>
      <use xlink:href="#DejaVuSans-Bold-61" x="441.894531"/>
      <use xlink:href="#DejaVuSans-Bold-6d" x="509.375"/>
      <use xlink:href="#DejaVuSans-Bold-69" x="613.574219"/>
      <use xlink:href="#DejaVuSans-Bold-65" x="647.851562"/>
      <use xlink:href="#DejaVuSans-Bold-6e" x="715.673828"/>
      <use xlink:href="#DejaVuSans-Bold-74" x="786.865234"/>
      <use xlink:href="#DejaVuSans-Bold-6f" x="834.667969"/>
      <use xlink:href="#DejaVuSans-Bold-20" x="903.369141"/>
      <use xlink:href="#DejaVuSans-Bold-6d" x="938.183594"/>
      <use xlink:href="#DejaVuSans-Bold-e1" x="1042.382812"/>
      <use xlink:href="#DejaVuSans-Bold-78" x="1109.863281"/>
      <use xlink:href="#DejaVuSans-Bold-2e" x="1174.365234"/>
     </g>
    </g>
    <g id="patch_18">
     <path d="M 185.202 133.346933 
L 283.41 133.346933 
L 283.41 114.746933 
L 185.202 114.746933 
z
" style="fill: #eaf3ed; stroke: #d8dee8; stroke-linejoin: miter"/>
    </g>
    <g id="text_17">
     <!-- 0.12041 m -->
     <g transform="translate(195.0228 126.53037) scale(0.09 -0.09)">
      <use xlink:href="#DejaVuSans-30"/>
      <use xlink:href="#DejaVuSans-2e" x="63.623047"/>
      <use xlink:href="#DejaVuSans-31" x="95.410156"/>
      <use xlink:href="#DejaVuSans-32" x="159.033203"/>
      <use xlink:href="#DejaVuSans-30" x="222.65625"/>
      <use xlink:href="#DejaVuSans-34" x="286.279297"/>
      <use xlink:href="#DejaVuSans-31" x="349.902344"/>
      <use xlink:href="#DejaVuSans-20" x="413.525391"/>
      <use xlink:href="#DejaVuSans-6d" x="445.3125"/>
     </g>
    </g>
    <g id="patch_19">
     <path d="M 283.41 133.346933 
L 381.618 133.346933 
L 381.618 114.746933 
L 283.41 114.746933 
z
" style="fill: #eaf3ed; stroke: #d8dee8; stroke-linejoin: miter"/>
    </g>
    <g id="text_18">
     <!-- 0.12837 m -->
     <g transform="translate(293.2308 126.53037) scale(0.09 -0.09)">
      <use xlink:href="#DejaVuSans-30"/>
      <use xlink:href="#DejaVuSans-2e" x="63.623047"/>
      <use xlink:href="#DejaVuSans-31" x="95.410156"/>
      <use xlink:href="#DejaVuSans-32" x="159.033203"/>
      <use xlink:href="#DejaVuSans-38" x="222.65625"/>
      <use xlink:href="#DejaVuSans-33" x="286.279297"/>
      <use xlink:href="#DejaVuSans-37" x="349.902344"/>
      <use xlink:href="#DejaVuSans-20" x="413.525391"/>
      <use xlink:href="#DejaVuSans-6d" x="445.3125"/>
     </g>
    </g>
    <g id="patch_20">
     <path d="M 381.618 133.346933 
L 528.93 133.346933 
L 528.93 114.746933 
L 381.618 114.746933 
z
" style="fill: #eaf3ed; stroke: #d8dee8; stroke-linejoin: miter"/>
    </g>
    <g id="text_19">
     <!-- -7.96 mm (-7.93% d_eq) -->
     <g transform="translate(396.3492 126.405214) scale(0.09 -0.09)">
      <defs>
       <path id="DejaVuSans-39" d="M 703 97 
L 703 672 
Q 941 559 1184 500 
Q 1428 441 1663 441 
Q 2288 441 2617 861 
Q 2947 1281 2994 2138 
Q 2813 1869 2534 1725 
Q 2256 1581 1919 1581 
Q 1219 1581 811 2004 
Q 403 2428 403 3163 
Q 403 3881 828 4315 
Q 1253 4750 1959 4750 
Q 2769 4750 3195 4129 
Q 3622 3509 3622 2328 
Q 3622 1225 3098 567 
Q 2575 -91 1691 -91 
Q 1453 -91 1209 -44 
Q 966 3 703 97 
z
M 1959 2075 
Q 2384 2075 2632 2365 
Q 2881 2656 2881 3163 
Q 2881 3666 2632 3958 
Q 2384 4250 1959 4250 
Q 1534 4250 1286 3958 
Q 1038 3666 1038 3163 
Q 1038 2656 1286 2365 
Q 1534 2075 1959 2075 
z
" transform="scale(0.015625)"/>
       <path id="DejaVuSans-28" d="M 1984 4856 
Q 1566 4138 1362 3434 
Q 1159 2731 1159 2009 
Q 1159 1288 1364 580 
Q 1569 -128 1984 -844 
L 1484 -844 
Q 1016 -109 783 600 
Q 550 1309 550 2009 
Q 550 2706 781 3412 
Q 1013 4119 1484 4856 
L 1984 4856 
z
" transform="scale(0.015625)"/>
       <path id="DejaVuSans-64" d="M 2906 2969 
L 2906 4863 
L 3481 4863 
L 3481 0 
L 2906 0 
L 2906 525 
Q 2725 213 2448 61 
Q 2172 -91 1784 -91 
Q 1150 -91 751 415 
Q 353 922 353 1747 
Q 353 2572 751 3078 
Q 1150 3584 1784 3584 
Q 2172 3584 2448 3432 
Q 2725 3281 2906 2969 
z
M 947 1747 
Q 947 1113 1208 752 
Q 1469 391 1925 391 
Q 2381 391 2643 752 
Q 2906 1113 2906 1747 
Q 2906 2381 2643 2742 
Q 2381 3103 1925 3103 
Q 1469 3103 1208 2742 
Q 947 2381 947 1747 
z
" transform="scale(0.015625)"/>
       <path id="DejaVuSans-5f" d="M 3263 -1063 
L 3263 -1509 
L -63 -1509 
L -63 -1063 
L 3263 -1063 
z
" transform="scale(0.015625)"/>
       <path id="DejaVuSans-65" d="M 3597 1894 
L 3597 1613 
L 953 1613 
Q 991 1019 1311 708 
Q 1631 397 2203 397 
Q 2534 397 2845 478 
Q 3156 559 3463 722 
L 3463 178 
Q 3153 47 2828 -22 
Q 2503 -91 2169 -91 
Q 1331 -91 842 396 
Q 353 884 353 1716 
Q 353 2575 817 3079 
Q 1281 3584 2069 3584 
Q 2775 3584 3186 3129 
Q 3597 2675 3597 1894 
z
M 3022 2063 
Q 3016 2534 2758 2815 
Q 2500 3097 2075 3097 
Q 1594 3097 1305 2825 
Q 1016 2553 972 2059 
L 3022 2063 
z
" transform="scale(0.015625)"/>
       <path id="DejaVuSans-71" d="M 947 1747 
Q 947 1113 1208 752 
Q 1469 391 1925 391 
Q 2381 391 2643 752 
Q 2906 1113 2906 1747 
Q 2906 2381 2643 2742 
Q 2381 3103 1925 3103 
Q 1469 3103 1208 2742 
Q 947 2381 947 1747 
z
M 2906 525 
Q 2725 213 2448 61 
Q 2172 -91 1784 -91 
Q 1150 -91 751 415 
Q 353 922 353 1747 
Q 353 2572 751 3078 
Q 1150 3584 1784 3584 
Q 2172 3584 2448 3432 
Q 2725 3281 2906 2969 
L 2906 3500 
L 3481 3500 
L 3481 -1331 
L 2906 -1331 
L 2906 525 
z
" transform="scale(0.015625)"/>
       <path id="DejaVuSans-29" d="M 513 4856 
L 1013 4856 
Q 1481 4119 1714 3412 
Q 1947 2706 1947 2009 
Q 1947 1309 1714 600 
Q 1481 -109 1013 -844 
L 513 -844 
Q 928 -128 1133 580 
Q 1338 1288 1338 2009 
Q 1338 2731 1133 3434 
Q 928 4138 513 4856 
z
" transform="scale(0.015625)"/>
      </defs>
      <use xlink:href="#DejaVuSans-2d"/>
      <use xlink:href="#DejaVuSans-37" x="36.083984"/>
      <use xlink:href="#DejaVuSans-2e" x="99.707031"/>
      <use xlink:href="#DejaVuSans-39" x="131.494141"/>
      <use xlink:href="#DejaVuSans-36" x="195.117188"/>
      <use xlink:href="#DejaVuSans-20" x="258.740234"/>
      <use xlink:href="#DejaVuSans-6d" x="290.527344"/>
      <use xlink:href="#DejaVuSans-6d" x="387.939453"/>
      <use xlink:href="#DejaVuSans-20" x="485.351562"/>
      <use xlink:href="#DejaVuSans-28" x="517.138672"/>
      <use xlink:href="#DejaVuSans-2d" x="556.152344"/>
      <use xlink:href="#DejaVuSans-37" x="592.236328"/>
      <use xlink:href="#DejaVuSans-2e" x="655.859375"/>
      <use xlink:href="#DejaVuSans-39" x="687.646484"/>
      <use xlink:href="#DejaVuSans-33" x="751.269531"/>
      <use xlink:href="#DejaVuSans-25" x="814.892578"/>
      <use xlink:href="#DejaVuSans-20" x="909.912109"/>
      <use xlink:href="#DejaVuSans-64" x="941.699219"/>
      <use xlink:href="#DejaVuSans-5f" x="1005.175781"/>
      <use xlink:href="#DejaVuSans-65" x="1055.175781"/>
      <use xlink:href="#DejaVuSans-71" x="1116.699219"/>
      <use xlink:href="#DejaVuSans-29" x="1180.175781"/>
     </g>
    </g>
    <g id="patch_21">
     <path d="M 528.93 133.346933 
L 621 133.346933 
L 621 114.746933 
L 528.93 114.746933 
z
" style="fill: #eaf3ed; stroke: #d8dee8; stroke-linejoin: miter"/>
    </g>
    <g id="text_20">
     <!-- -6.2% -->
     <g transform="translate(538.137 126.53037) scale(0.09 -0.09)">
      <use xlink:href="#DejaVuSans-2d"/>
      <use xlink:href="#DejaVuSans-36" x="36.083984"/>
      <use xlink:href="#DejaVuSans-2e" x="99.707031"/>
      <use xlink:href="#DejaVuSans-32" x="131.494141"/>
      <use xlink:href="#DejaVuSans-25" x="195.117188"/>
     </g>
    </g>
    <g id="patch_22">
     <path d="M 7.2 151.946933 
L 185.202 151.946933 
L 185.202 133.346933 
L 7.2 133.346933 
z
" style="fill: #f8f1e4; stroke: #d8dee8; stroke-linejoin: miter"/>
    </g>
    <g id="text_21">
     <!-- Velocidad flujo puntual -->
     <g transform="translate(25.0002 145.13037) scale(0.09 -0.09)">
      <defs>
       <path id="DejaVuSans-56" d="M 1831 0 
L 50 4666 
L 709 4666 
L 2188 738 
L 3669 4666 
L 4325 4666 
L 2547 0 
L 1831 0 
z
" transform="scale(0.015625)"/>
       <path id="DejaVuSans-6c" d="M 603 4863 
L 1178 4863 
L 1178 0 
L 603 0 
L 603 4863 
z
" transform="scale(0.015625)"/>
       <path id="DejaVuSans-6f" d="M 1959 3097 
Q 1497 3097 1228 2736 
Q 959 2375 959 1747 
Q 959 1119 1226 758 
Q 1494 397 1959 397 
Q 2419 397 2687 759 
Q 2956 1122 2956 1747 
Q 2956 2369 2687 2733 
Q 2419 3097 1959 3097 
z
M 1959 3584 
Q 2709 3584 3137 3096 
Q 3566 2609 3566 1747 
Q 3566 888 3137 398 
Q 2709 -91 1959 -91 
Q 1206 -91 779 398 
Q 353 888 353 1747 
Q 353 2609 779 3096 
Q 1206 3584 1959 3584 
z
" transform="scale(0.015625)"/>
       <path id="DejaVuSans-63" d="M 3122 3366 
L 3122 2828 
Q 2878 2963 2633 3030 
Q 2388 3097 2138 3097 
Q 1578 3097 1268 2742 
Q 959 2388 959 1747 
Q 959 1106 1268 751 
Q 1578 397 2138 397 
Q 2388 397 2633 464 
Q 2878 531 3122 666 
L 3122 134 
Q 2881 22 2623 -34 
Q 2366 -91 2075 -91 
Q 1284 -91 818 406 
Q 353 903 353 1747 
Q 353 2603 823 3093 
Q 1294 3584 2113 3584 
Q 2378 3584 2631 3529 
Q 2884 3475 3122 3366 
z
" transform="scale(0.015625)"/>
       <path id="DejaVuSans-69" d="M 603 3500 
L 1178 3500 
L 1178 0 
L 603 0 
L 603 3500 
z
M 603 4863 
L 1178 4863 
L 1178 4134 
L 603 4134 
L 603 4863 
z
" transform="scale(0.015625)"/>
       <path id="DejaVuSans-61" d="M 2194 1759 
Q 1497 1759 1228 1600 
Q 959 1441 959 1056 
Q 959 750 1161 570 
Q 1363 391 1709 391 
Q 2188 391 2477 730 
Q 2766 1069 2766 1631 
L 2766 1759 
L 2194 1759 
z
M 3341 1997 
L 3341 0 
L 2766 0 
L 2766 531 
Q 2569 213 2275 61 
Q 1981 -91 1556 -91 
Q 1019 -91 701 211 
Q 384 513 384 1019 
Q 384 1609 779 1909 
Q 1175 2209 1959 2209 
L 2766 2209 
L 2766 2266 
Q 2766 2663 2505 2880 
Q 2244 3097 1772 3097 
Q 1472 3097 1187 3025 
Q 903 2953 641 2809 
L 641 3341 
Q 956 3463 1253 3523 
Q 1550 3584 1831 3584 
Q 2591 3584 2966 3190 
Q 3341 2797 3341 1997 
z
" transform="scale(0.015625)"/>
       <path id="DejaVuSans-66" d="M 2375 4863 
L 2375 4384 
L 1825 4384 
Q 1516 4384 1395 4259 
Q 1275 4134 1275 3809 
L 1275 3500 
L 2222 3500 
L 2222 3053 
L 1275 3053 
L 1275 0 
L 697 0 
L 697 3053 
L 147 3053 
L 147 3500 
L 697 3500 
L 697 3744 
Q 697 4328 969 4595 
Q 1241 4863 1831 4863 
L 2375 4863 
z
" transform="scale(0.015625)"/>
       <path id="DejaVuSans-75" d="M 544 1381 
L 544 3500 
L 1119 3500 
L 1119 1403 
Q 1119 906 1312 657 
Q 1506 409 1894 409 
Q 2359 409 2629 706 
Q 2900 1003 2900 1516 
L 2900 3500 
L 3475 3500 
L 3475 0 
L 2900 0 
L 2900 538 
Q 2691 219 2414 64 
Q 2138 -91 1772 -91 
Q 1169 -91 856 284 
Q 544 659 544 1381 
z
M 1991 3584 
L 1991 3584 
z
" transform="scale(0.015625)"/>
       <path id="DejaVuSans-6a" d="M 603 3500 
L 1178 3500 
L 1178 -63 
Q 1178 -731 923 -1031 
Q 669 -1331 103 -1331 
L -116 -1331 
L -116 -844 
L 38 -844 
Q 366 -844 484 -692 
Q 603 -541 603 -63 
L 603 3500 
z
M 603 4863 
L 1178 4863 
L 1178 4134 
L 603 4134 
L 603 4863 
z
" transform="scale(0.015625)"/>
       <path id="DejaVuSans-70" d="M 1159 525 
L 1159 -1331 
L 581 -1331 
L 581 3500 
L 1159 3500 
L 1159 2969 
Q 1341 3281 1617 3432 
Q 1894 3584 2278 3584 
Q 2916 3584 3314 3078 
Q 3713 2572 3713 1747 
Q 3713 922 3314 415 
Q 2916 -91 2278 -91 
Q 1894 -91 1617 61 
Q 1341 213 1159 525 
z
M 3116 1747 
Q 3116 2381 2855 2742 
Q 2594 3103 2138 3103 
Q 1681 3103 1420 2742 
Q 1159 2381 1159 1747 
Q 1159 1113 1420 752 
Q 1681 391 2138 391 
Q 2594 391 2855 752 
Q 3116 1113 3116 1747 
z
" transform="scale(0.015625)"/>
       <path id="DejaVuSans-6e" d="M 3513 2113 
L 3513 0 
L 2938 0 
L 2938 2094 
Q 2938 2591 2744 2837 
Q 2550 3084 2163 3084 
Q 1697 3084 1428 2787 
Q 1159 2491 1159 1978 
L 1159 0 
L 581 0 
L 581 3500 
L 1159 3500 
L 1159 2956 
Q 1366 3272 1645 3428 
Q 1925 3584 2291 3584 
Q 2894 3584 3203 3211 
Q 3513 2838 3513 2113 
z
" transform="scale(0.015625)"/>
       <path id="DejaVuSans-74" d="M 1172 4494 
L 1172 3500 
L 2356 3500 
L 2356 3053 
L 1172 3053 
L 1172 1153 
Q 1172 725 1289 603 
Q 1406 481 1766 481 
L 2356 481 
L 2356 0 
L 1766 0 
Q 1100 0 847 248 
Q 594 497 594 1153 
L 594 3053 
L 172 3053 
L 172 3500 
L 594 3500 
L 594 4494 
L 1172 4494 
z
" transform="scale(0.015625)"/>
      </defs>
      <use xlink:href="#DejaVuSans-56"/>
      <use xlink:href="#DejaVuSans-65" x="60.658203"/>
      <use xlink:href="#DejaVuSans-6c" x="122.181641"/>
      <use xlink:href="#DejaVuSans-6f" x="149.964844"/>
      <use xlink:href="#DejaVuSans-63" x="211.146484"/>
      <use xlink:href="#DejaVuSans-69" x="266.126953"/>
      <use xlink:href="#DejaVuSans-64" x="293.910156"/>
      <use xlink:href="#DejaVuSans-61" x="357.386719"/>
      <use xlink:href="#DejaVuSans-64" x="418.666016"/>
      <use xlink:href="#DejaVuSans-20" x="482.142578"/>
      <use xlink:href="#DejaVuSans-66" x="513.929688"/>
      <use xlink:href="#DejaVuSans-6c" x="549.134766"/>
      <use xlink:href="#DejaVuSans-75" x="576.917969"/>
      <use xlink:href="#DejaVuSans-6a" x="640.296875"/>
      <use xlink:href="#DejaVuSans-6f" x="668.080078"/>
      <use xlink:href="#DejaVuSans-20" x="729.261719"/>
      <use xlink:href="#DejaVuSans-70" x="761.048828"/>
      <use xlink:href="#DejaVuSans-75" x="824.525391"/>
      <use xlink:href="#DejaVuSans-6e" x="887.904297"/>
      <use xlink:href="#DejaVuSans-74" x="951.283203"/>
      <use xlink:href="#DejaVuSans-75" x="990.492188"/>
      <use xlink:href="#DejaVuSans-61" x="1053.871094"/>
      <use xlink:href="#DejaVuSans-6c" x="1115.150391"/>
     </g>
    </g>
    <g id="patch_23">
     <path d="M 185.202 151.946933 
L 283.41 151.946933 
L 283.41 133.346933 
L 185.202 133.346933 
z
" style="fill: #f8f1e4; stroke: #d8dee8; stroke-linejoin: miter"/>
    </g>
    <g id="text_22">
     <!-- 1.5345 m/s -->
     <g transform="translate(195.0228 145.13037) scale(0.09 -0.09)">
      <use xlink:href="#DejaVuSans-31"/>
      <use xlink:href="#DejaVuSans-2e" x="63.623047"/>
      <use xlink:href="#DejaVuSans-35" x="95.410156"/>
      <use xlink:href="#DejaVuSans-33" x="159.033203"/>
      <use xlink:href="#DejaVuSans-34" x="222.65625"/>
      <use xlink:href="#DejaVuSans-35" x="286.279297"/>
      <use xlink:href="#DejaVuSans-20" x="349.902344"/>
      <use xlink:href="#DejaVuSans-6d" x="381.689453"/>
      <use xlink:href="#DejaVuSans-2f" x="479.101562"/>
      <use xlink:href="#DejaVuSans-73" x="512.792969"/>
     </g>
    </g>
    <g id="patch_24">
     <path d="M 283.41 151.946933 
L 381.618 151.946933 
L 381.618 133.346933 
L 283.41 133.346933 
z
" style="fill: #f8f1e4; stroke: #d8dee8; stroke-linejoin: miter"/>
    </g>
    <g id="text_23">
     <!-- 1.6361 m/s -->
     <g transform="translate(293.2308 145.13037) scale(0.09 -0.09)">
      <use xlink:href="#DejaVuSans-31"/>
      <use xlink:href="#DejaVuSans-2e" x="63.623047"/>
      <use xlink:href="#DejaVuSans-36" x="95.410156"/>
      <use xlink:href="#DejaVuSans-33" x="159.033203"/>
      <use xlink:href="#DejaVuSans-36" x="222.65625"/>
      <use xlink:href="#DejaVuSans-31" x="286.279297"/>
      <use xlink:href="#DejaVuSans-20" x="349.902344"/>
      <use xlink:href="#DejaVuSans-6d" x="381.689453"/>
      <use xlink:href="#DejaVuSans-2f" x="479.101562"/>
      <use xlink:href="#DejaVuSans-73" x="512.792969"/>
     </g>
    </g>
    <g id="patch_25">
     <path d="M 381.618 151.946933 
L 528.93 151.946933 
L 528.93 133.346933 
L 381.618 133.346933 
z
" style="fill: #f8f1e4; stroke: #d8dee8; stroke-linejoin: miter"/>
    </g>
    <g id="text_24">
     <!-- -0.1016 m/s -->
     <g transform="translate(396.3492 145.13037) scale(0.09 -0.09)">
      <use xlink:href="#DejaVuSans-2d"/>
      <use xlink:href="#DejaVuSans-30" x="36.083984"/>
      <use xlink:href="#DejaVuSans-2e" x="99.707031"/>
      <use xlink:href="#DejaVuSans-31" x="131.494141"/>
      <use xlink:href="#DejaVuSans-30" x="195.117188"/>
      <use xlink:href="#DejaVuSans-31" x="258.740234"/>
      <use xlink:href="#DejaVuSans-36" x="322.363281"/>
      <use xlink:href="#DejaVuSans-20" x="385.986328"/>
      <use xlink:href="#DejaVuSans-6d" x="417.773438"/>
      <use xlink:href="#DejaVuSans-2f" x="515.185547"/>
      <use xlink:href="#DejaVuSans-73" x="548.876953"/>
     </g>
    </g>
    <g id="patch_26">
     <path d="M 528.93 151.946933 
L 621 151.946933 
L 621 133.346933 
L 528.93 133.346933 
z
" style="fill: #f8f1e4; stroke: #d8dee8; stroke-linejoin: miter"/>
    </g>
    <g id="text_25">
     <!-- -6.2% -->
     <g transform="translate(538.137 145.13037) scale(0.09 -0.09)">
      <use xlink:href="#DejaVuSans-2d"/>
      <use xlink:href="#DejaVuSans-36" x="36.083984"/>
      <use xlink:href="#DejaVuSans-2e" x="99.707031"/>
      <use xlink:href="#DejaVuSans-32" x="131.494141"/>
      <use xlink:href="#DejaVuSans-25" x="195.117188"/>
     </g>
    </g>
    <g id="patch_27">
     <path d="M 7.2 170.546932 
L 185.202 170.546932 
L 185.202 151.946933 
L 7.2 151.946933 
z
" style="fill: #f8f1e4; stroke: #d8dee8; stroke-linejoin: miter"/>
    </g>
    <g id="text_26">
     <!-- Rotación acumulada -->
     <g transform="translate(25.0002 163.73037) scale(0.09 -0.09)">
      <defs>
       <path id="DejaVuSans-52" d="M 2841 2188 
Q 3044 2119 3236 1894 
Q 3428 1669 3622 1275 
L 4263 0 
L 3584 0 
L 2988 1197 
Q 2756 1666 2539 1819 
Q 2322 1972 1947 1972 
L 1259 1972 
L 1259 0 
L 628 0 
L 628 4666 
L 2053 4666 
Q 2853 4666 3247 4331 
Q 3641 3997 3641 3322 
Q 3641 2881 3436 2590 
Q 3231 2300 2841 2188 
z
M 1259 4147 
L 1259 2491 
L 2053 2491 
Q 2509 2491 2742 2702 
Q 2975 2913 2975 3322 
Q 2975 3731 2742 3939 
Q 2509 4147 2053 4147 
L 1259 4147 
z
" transform="scale(0.015625)"/>
       <path id="DejaVuSans-f3" d="M 1959 3097 
Q 1497 3097 1228 2736 
Q 959 2375 959 1747 
Q 959 1119 1226 758 
Q 1494 397 1959 397 
Q 2419 397 2687 759 
Q 2956 1122 2956 1747 
Q 2956 2369 2687 2733 
Q 2419 3097 1959 3097 
z
M 1959 3584 
Q 2709 3584 3137 3096 
Q 3566 2609 3566 1747 
Q 3566 888 3137 398 
Q 2709 -91 1959 -91 
Q 1206 -91 779 398 
Q 353 888 353 1747 
Q 353 2609 779 3096 
Q 1206 3584 1959 3584 
z
M 2394 5119 
L 3016 5119 
L 1998 3944 
L 1519 3944 
L 2394 5119 
z
" transform="scale(0.015625)"/>
      </defs>
      <use xlink:href="#DejaVuSans-52"/>
      <use xlink:href="#DejaVuSans-6f" x="64.982422"/>
      <use xlink:href="#DejaVuSans-74" x="126.164062"/>
      <use xlink:href="#DejaVuSans-61" x="165.373047"/>
      <use xlink:href="#DejaVuSans-63" x="226.652344"/>
      <use xlink:href="#DejaVuSans-69" x="281.632812"/>
      <use xlink:href="#DejaVuSans-f3" x="309.416016"/>
      <use xlink:href="#DejaVuSans-6e" x="370.597656"/>
      <use xlink:href="#DejaVuSans-20" x="433.976562"/>
      <use xlink:href="#DejaVuSans-61" x="465.763672"/>
      <use xlink:href="#DejaVuSans-63" x="527.042969"/>
      <use xlink:href="#DejaVuSans-75" x="582.023438"/>
      <use xlink:href="#DejaVuSans-6d" x="645.402344"/>
      <use xlink:href="#DejaVuSans-75" x="742.814453"/>
      <use xlink:href="#DejaVuSans-6c" x="806.193359"/>
      <use xlink:href="#DejaVuSans-61" x="833.976562"/>
      <use xlink:href="#DejaVuSans-64" x="895.255859"/>
      <use xlink:href="#DejaVuSans-61" x="958.732422"/>
     </g>
    </g>
    <g id="patch_28">
     <path d="M 185.202 170.546932 
L 283.41 170.546932 
L 283.41 151.946933 
L 185.202 151.946933 
z
" style="fill: #f8f1e4; stroke: #d8dee8; stroke-linejoin: miter"/>
    </g>
    <g id="text_27">
     <!-- 16.47° -->
     <g transform="translate(195.0228 163.73037) scale(0.09 -0.09)">
      <defs>
       <path id="DejaVuSans-b0" d="M 1600 4347 
Q 1350 4347 1178 4173 
Q 1006 4000 1006 3750 
Q 1006 3503 1178 3333 
Q 1350 3163 1600 3163 
Q 1850 3163 2022 3333 
Q 2194 3503 2194 3750 
Q 2194 3997 2020 4172 
Q 1847 4347 1600 4347 
z
M 1600 4750 
Q 1800 4750 1984 4673 
Q 2169 4597 2303 4453 
Q 2447 4313 2519 4134 
Q 2591 3956 2591 3750 
Q 2591 3338 2302 3052 
Q 2013 2766 1594 2766 
Q 1172 2766 890 3047 
Q 609 3328 609 3750 
Q 609 4169 896 4459 
Q 1184 4750 1600 4750 
z
" transform="scale(0.015625)"/>
      </defs>
      <use xlink:href="#DejaVuSans-31"/>
      <use xlink:href="#DejaVuSans-36" x="63.623047"/>
      <use xlink:href="#DejaVuSans-2e" x="127.246094"/>
      <use xlink:href="#DejaVuSans-34" x="159.033203"/>
      <use xlink:href="#DejaVuSans-37" x="222.65625"/>
      <use xlink:href="#DejaVuSans-b0" x="286.279297"/>
     </g>
    </g>
    <g id="patch_29">
     <path d="M 283.41 170.546932 
L 381.618 170.546932 
L 381.618 151.946933 
L 283.41 151.946933 
z
" style="fill: #f8f1e4; stroke: #d8dee8; stroke-linejoin: miter"/>
    </g>
    <g id="text_28">
     <!-- 24.02° -->
     <g transform="translate(293.2308 163.73037) scale(0.09 -0.09)">
      <use xlink:href="#DejaVuSans-32"/>
      <use xlink:href="#DejaVuSans-34" x="63.623047"/>
      <use xlink:href="#DejaVuSans-2e" x="127.246094"/>
      <use xlink:href="#DejaVuSans-30" x="159.033203"/>
      <use xlink:href="#DejaVuSans-32" x="222.65625"/>
      <use xlink:href="#DejaVuSans-b0" x="286.279297"/>
     </g>
    </g>
    <g id="patch_30">
     <path d="M 381.618 170.546932 
L 528.93 170.546932 
L 528.93 151.946933 
L 381.618 151.946933 
z
" style="fill: #f8f1e4; stroke: #d8dee8; stroke-linejoin: miter"/>
    </g>
    <g id="text_29">
     <!-- -7.55° -->
     <g transform="translate(396.3492 163.73037) scale(0.09 -0.09)">
      <use xlink:href="#DejaVuSans-2d"/>
      <use xlink:href="#DejaVuSans-37" x="36.083984"/>
      <use xlink:href="#DejaVuSans-2e" x="99.707031"/>
      <use xlink:href="#DejaVuSans-35" x="131.494141"/>
      <use xlink:href="#DejaVuSans-35" x="195.117188"/>
      <use xlink:href="#DejaVuSans-b0" x="258.740234"/>
     </g>
    </g>
    <g id="patch_31">
     <path d="M 528.93 170.546932 
L 621 170.546932 
L 621 151.946933 
L 528.93 151.946933 
z
" style="fill: #f8f1e4; stroke: #d8dee8; stroke-linejoin: miter"/>
    </g>
    <g id="text_30">
     <!-- -31.4% -->
     <g transform="translate(538.137 163.73037) scale(0.09 -0.09)">
      <use xlink:href="#DejaVuSans-2d"/>
      <use xlink:href="#DejaVuSans-33" x="36.083984"/>
      <use xlink:href="#DejaVuSans-31" x="99.707031"/>
      <use xlink:href="#DejaVuSans-2e" x="163.330078"/>
      <use xlink:href="#DejaVuSans-34" x="195.117188"/>
      <use xlink:href="#DejaVuSans-25" x="258.740234"/>
     </g>
    </g>
   </g>
   <g id="text_31">
    <!-- Diferencias entre dp=0,003 m y el caso fino dp=0,002 m -->
    <g style="fill: #17202a" transform="translate(7.2 17.837813) scale(0.14 -0.14)">
     <defs>
      <path id="DejaVuSans-Bold-66" d="M 2841 4863 
L 2841 4128 
L 2222 4128 
Q 1984 4128 1890 4042 
Q 1797 3956 1797 3744 
L 1797 3500 
L 2753 3500 
L 2753 2700 
L 1797 2700 
L 1797 0 
L 678 0 
L 678 2700 
L 122 2700 
L 122 3500 
L 678 3500 
L 678 3744 
Q 678 4316 997 4589 
Q 1316 4863 1984 4863 
L 2841 4863 
z
" transform="scale(0.015625)"/>
      <path id="DejaVuSans-Bold-79" d="M 78 3500 
L 1197 3500 
L 2138 1125 
L 2938 3500 
L 4056 3500 
L 2584 -331 
Q 2363 -916 2067 -1148 
Q 1772 -1381 1288 -1381 
L 641 -1381 
L 641 -647 
L 991 -647 
Q 1275 -647 1404 -556 
Q 1534 -466 1606 -231 
L 1638 -134 
L 78 3500 
z
" transform="scale(0.015625)"/>
     </defs>
     <use xlink:href="#DejaVuSans-Bold-44"/>
     <use xlink:href="#DejaVuSans-Bold-69" x="83.007812"/>
     <use xlink:href="#DejaVuSans-Bold-66" x="117.285156"/>
     <use xlink:href="#DejaVuSans-Bold-65" x="160.791016"/>
     <use xlink:href="#DejaVuSans-Bold-72" x="228.613281"/>
     <use xlink:href="#DejaVuSans-Bold-65" x="277.929688"/>
     <use xlink:href="#DejaVuSans-Bold-6e" x="345.751953"/>
     <use xlink:href="#DejaVuSans-Bold-63" x="416.943359"/>
     <use xlink:href="#DejaVuSans-Bold-69" x="476.220703"/>
     <use xlink:href="#DejaVuSans-Bold-61" x="510.498047"/>
     <use xlink:href="#DejaVuSans-Bold-73" x="577.978516"/>
     <use xlink:href="#DejaVuSans-Bold-20" x="637.5"/>
     <use xlink:href="#DejaVuSans-Bold-65" x="672.314453"/>
     <use xlink:href="#DejaVuSans-Bold-6e" x="740.136719"/>
     <use xlink:href="#DejaVuSans-Bold-74" x="811.328125"/>
     <use xlink:href="#DejaVuSans-Bold-72" x="859.130859"/>
     <use xlink:href="#DejaVuSans-Bold-65" x="908.447266"/>
     <use xlink:href="#DejaVuSans-Bold-20" x="976.269531"/>
     <use xlink:href="#DejaVuSans-Bold-64" x="1011.083984"/>
     <use xlink:href="#DejaVuSans-Bold-70" x="1082.666016"/>
     <use xlink:href="#DejaVuSans-Bold-3d" x="1154.248047"/>
     <use xlink:href="#DejaVuSans-Bold-30" x="1238.037109"/>
     <use xlink:href="#DejaVuSans-Bold-2c" x="1307.617188"/>
     <use xlink:href="#DejaVuSans-Bold-30" x="1345.605469"/>
     <use xlink:href="#DejaVuSans-Bold-30" x="1415.185547"/>
     <use xlink:href="#DejaVuSans-Bold-33" x="1484.765625"/>
     <use xlink:href="#DejaVuSans-Bold-20" x="1554.345703"/>
     <use xlink:href="#DejaVuSans-Bold-6d" x="1589.160156"/>
     <use xlink:href="#DejaVuSans-Bold-20" x="1693.359375"/>
     <use xlink:href="#DejaVuSans-Bold-79" x="1728.173828"/>
     <use xlink:href="#DejaVuSans-Bold-20" x="1793.359375"/>
     <use xlink:href="#DejaVuSans-Bold-65" x="1828.173828"/>
     <use xlink:href="#DejaVuSans-Bold-6c" x="1895.996094"/>
     <use xlink:href="#DejaVuSans-Bold-20" x="1930.273438"/>
     <use xlink:href="#DejaVuSans-Bold-63" x="1965.087891"/>
     <use xlink:href="#DejaVuSans-Bold-61" x="2024.365234"/>
     <use xlink:href="#DejaVuSans-Bold-73" x="2091.845703"/>
     <use xlink:href="#DejaVuSans-Bold-6f" x="2151.367188"/>
     <use xlink:href="#DejaVuSans-Bold-20" x="2220.068359"/>
     <use xlink:href="#DejaVuSans-Bold-66" x="2254.882812"/>
     <use xlink:href="#DejaVuSans-Bold-69" x="2298.388672"/>
     <use xlink:href="#DejaVuSans-Bold-6e" x="2332.666016"/>
     <use xlink:href="#DejaVuSans-Bold-6f" x="2403.857422"/>
     <use xlink:href="#DejaVuSans-Bold-20" x="2472.558594"/>
     <use xlink:href="#DejaVuSans-Bold-64" x="2507.373047"/>
     <use xlink:href="#DejaVuSans-Bold-70" x="2578.955078"/>
     <use xlink:href="#DejaVuSans-Bold-3d" x="2650.537109"/>
     <use xlink:href="#DejaVuSans-Bold-30" x="2734.326172"/>
     <use xlink:href="#DejaVuSans-Bold-2c" x="2803.90625"/>
     <use xlink:href="#DejaVuSans-Bold-30" x="2841.894531"/>
     <use xlink:href="#DejaVuSans-Bold-30" x="2911.474609"/>
     <use xlink:href="#DejaVuSans-Bold-32" x="2981.054688"/>
     <use xlink:href="#DejaVuSans-Bold-20" x="3050.634766"/>
     <use xlink:href="#DejaVuSans-Bold-6d" x="3085.449219"/>
    </g>
   </g>
   <g id="text_32">
    <!-- Δ = valor(dp=0,003) - valor(dp=0,002). Verde: variables principales; amarillo: salidas sensibles. -->
    <g style="fill: #536171" transform="translate(7.2 211.656052) scale(0.09 -0.09)">
     <defs>
      <path id="DejaVuSans-394" d="M 2188 4044 
L 906 525 
L 3472 525 
L 2188 4044 
z
M 50 0 
L 1831 4666 
L 2547 4666 
L 4325 0 
L 50 0 
z
" transform="scale(0.015625)"/>
      <path id="DejaVuSans-3d" d="M 678 2906 
L 4684 2906 
L 4684 2381 
L 678 2381 
L 678 2906 
z
M 678 1631 
L 4684 1631 
L 4684 1100 
L 678 1100 
L 678 1631 
z
" transform="scale(0.015625)"/>
      <path id="DejaVuSans-76" d="M 191 3500 
L 800 3500 
L 1894 563 
L 2988 3500 
L 3597 3500 
L 2284 0 
L 1503 0 
L 191 3500 
z
" transform="scale(0.015625)"/>
      <path id="DejaVuSans-72" d="M 2631 2963 
Q 2534 3019 2420 3045 
Q 2306 3072 2169 3072 
Q 1681 3072 1420 2755 
Q 1159 2438 1159 1844 
L 1159 0 
L 581 0 
L 581 3500 
L 1159 3500 
L 1159 2956 
Q 1341 3275 1631 3429 
Q 1922 3584 2338 3584 
Q 2397 3584 2469 3576 
Q 2541 3569 2628 3553 
L 2631 2963 
z
" transform="scale(0.015625)"/>
      <path id="DejaVuSans-2c" d="M 750 794 
L 1409 794 
L 1409 256 
L 897 -744 
L 494 -744 
L 750 256 
L 750 794 
z
" transform="scale(0.015625)"/>
      <path id="DejaVuSans-3a" d="M 750 794 
L 1409 794 
L 1409 0 
L 750 0 
L 750 794 
z
M 750 3309 
L 1409 3309 
L 1409 2516 
L 750 2516 
L 750 3309 
z
" transform="scale(0.015625)"/>
      <path id="DejaVuSans-62" d="M 3116 1747 
Q 3116 2381 2855 2742 
Q 2594 3103 2138 3103 
Q 1681 3103 1420 2742 
Q 1159 2381 1159 1747 
Q 1159 1113 1420 752 
Q 1681 391 2138 391 
Q 2594 391 2855 752 
Q 3116 1113 3116 1747 
z
M 1159 2969 
Q 1341 3281 1617 3432 
Q 1894 3584 2278 3584 
Q 2916 3584 3314 3078 
Q 3713 2572 3713 1747 
Q 3713 922 3314 415 
Q 2916 -91 2278 -91 
Q 1894 -91 1617 61 
Q 1341 213 1159 525 
L 1159 0 
L 581 0 
L 581 4863 
L 1159 4863 
L 1159 2969 
z
" transform="scale(0.015625)"/>
      <path id="DejaVuSans-3b" d="M 750 3309 
L 1409 3309 
L 1409 2516 
L 750 2516 
L 750 3309 
z
M 750 794 
L 1409 794 
L 1409 256 
L 897 -744 
L 494 -744 
L 750 256 
L 750 794 
z
" transform="scale(0.015625)"/>
     </defs>
     <use xlink:href="#DejaVuSans-394"/>
     <use xlink:href="#DejaVuSans-20" x="68.408203"/>
     <use xlink:href="#DejaVuSans-3d" x="100.195312"/>
     <use xlink:href="#DejaVuSans-20" x="183.984375"/>
     <use xlink:href="#DejaVuSans-76" x="215.771484"/>
     <use xlink:href="#DejaVuSans-61" x="274.951172"/>
     <use xlink:href="#DejaVuSans-6c" x="336.230469"/>
     <use xlink:href="#DejaVuSans-6f" x="364.013672"/>
     <use xlink:href="#DejaVuSans-72" x="425.195312"/>
     <use xlink:href="#DejaVuSans-28" x="466.308594"/>
     <use xlink:href="#DejaVuSans-64" x="505.322266"/>
     <use xlink:href="#DejaVuSans-70" x="568.798828"/>
     <use xlink:href="#DejaVuSans-3d" x="632.275391"/>
     <use xlink:href="#DejaVuSans-30" x="716.064453"/>
     <use xlink:href="#DejaVuSans-2c" x="779.6875"/>
     <use xlink:href="#DejaVuSans-30" x="811.474609"/>
     <use xlink:href="#DejaVuSans-30" x="875.097656"/>
     <use xlink:href="#DejaVuSans-33" x="938.720703"/>
     <use xlink:href="#DejaVuSans-29" x="1002.34375"/>
     <use xlink:href="#DejaVuSans-20" x="1041.357422"/>
     <use xlink:href="#DejaVuSans-2d" x="1073.144531"/>
     <use xlink:href="#DejaVuSans-20" x="1109.228516"/>
     <use xlink:href="#DejaVuSans-76" x="1141.015625"/>
     <use xlink:href="#DejaVuSans-61" x="1200.195312"/>
     <use xlink:href="#DejaVuSans-6c" x="1261.474609"/>
     <use xlink:href="#DejaVuSans-6f" x="1289.257812"/>
     <use xlink:href="#DejaVuSans-72" x="1350.439453"/>
     <use xlink:href="#DejaVuSans-28" x="1391.552734"/>
     <use xlink:href="#DejaVuSans-64" x="1430.566406"/>
     <use xlink:href="#DejaVuSans-70" x="1494.042969"/>
     <use xlink:href="#DejaVuSans-3d" x="1557.519531"/>
     <use xlink:href="#DejaVuSans-30" x="1641.308594"/>
     <use xlink:href="#DejaVuSans-2c" x="1704.931641"/>
     <use xlink:href="#DejaVuSans-30" x="1736.71875"/>
     <use xlink:href="#DejaVuSans-30" x="1800.341797"/>
     <use xlink:href="#DejaVuSans-32" x="1863.964844"/>
     <use xlink:href="#DejaVuSans-29" x="1927.587891"/>
     <use xlink:href="#DejaVuSans-2e" x="1966.601562"/>
     <use xlink:href="#DejaVuSans-20" x="1998.388672"/>
     <use xlink:href="#DejaVuSans-56" x="2030.175781"/>
     <use xlink:href="#DejaVuSans-65" x="2090.833984"/>
     <use xlink:href="#DejaVuSans-72" x="2152.357422"/>
     <use xlink:href="#DejaVuSans-64" x="2191.720703"/>
     <use xlink:href="#DejaVuSans-65" x="2255.197266"/>
     <use xlink:href="#DejaVuSans-3a" x="2316.720703"/>
     <use xlink:href="#DejaVuSans-20" x="2350.412109"/>
     <use xlink:href="#DejaVuSans-76" x="2382.199219"/>
     <use xlink:href="#DejaVuSans-61" x="2441.378906"/>
     <use xlink:href="#DejaVuSans-72" x="2502.658203"/>
     <use xlink:href="#DejaVuSans-69" x="2543.771484"/>
     <use xlink:href="#DejaVuSans-61" x="2571.554688"/>
     <use xlink:href="#DejaVuSans-62" x="2632.833984"/>
     <use xlink:href="#DejaVuSans-6c" x="2696.310547"/>
     <use xlink:href="#DejaVuSans-65" x="2724.09375"/>
     <use xlink:href="#DejaVuSans-73" x="2785.617188"/>
     <use xlink:href="#DejaVuSans-20" x="2837.716797"/>
     <use xlink:href="#DejaVuSans-70" x="2869.503906"/>
     <use xlink:href="#DejaVuSans-72" x="2932.980469"/>
     <use xlink:href="#DejaVuSans-69" x="2974.09375"/>
     <use xlink:href="#DejaVuSans-6e" x="3001.876953"/>
     <use xlink:href="#DejaVuSans-63" x="3065.255859"/>
     <use xlink:href="#DejaVuSans-69" x="3120.236328"/>
     <use xlink:href="#DejaVuSans-70" x="3148.019531"/>
     <use xlink:href="#DejaVuSans-61" x="3211.496094"/>
     <use xlink:href="#DejaVuSans-6c" x="3272.775391"/>
     <use xlink:href="#DejaVuSans-65" x="3300.558594"/>
     <use xlink:href="#DejaVuSans-73" x="3362.082031"/>
     <use xlink:href="#DejaVuSans-3b" x="3414.181641"/>
     <use xlink:href="#DejaVuSans-20" x="3447.873047"/>
     <use xlink:href="#DejaVuSans-61" x="3479.660156"/>
     <use xlink:href="#DejaVuSans-6d" x="3540.939453"/>
     <use xlink:href="#DejaVuSans-61" x="3638.351562"/>
     <use xlink:href="#DejaVuSans-72" x="3699.630859"/>
     <use xlink:href="#DejaVuSans-69" x="3740.744141"/>
     <use xlink:href="#DejaVuSans-6c" x="3768.527344"/>
     <use xlink:href="#DejaVuSans-6c" x="3796.310547"/>
     <use xlink:href="#DejaVuSans-6f" x="3824.09375"/>
     <use xlink:href="#DejaVuSans-3a" x="3885.275391"/>
     <use xlink:href="#DejaVuSans-20" x="3918.966797"/>
     <use xlink:href="#DejaVuSans-73" x="3950.753906"/>
     <use xlink:href="#DejaVuSans-61" x="4002.853516"/>
     <use xlink:href="#DejaVuSans-6c" x="4064.132812"/>
     <use xlink:href="#DejaVuSans-69" x="4091.916016"/>
     <use xlink:href="#DejaVuSans-64" x="4119.699219"/>
     <use xlink:href="#DejaVuSans-61" x="4183.175781"/>
     <use xlink:href="#DejaVuSans-73" x="4244.455078"/>
     <use xlink:href="#DejaVuSans-20" x="4296.554688"/>
     <use xlink:href="#DejaVuSans-73" x="4328.341797"/>
     <use xlink:href="#DejaVuSans-65" x="4380.441406"/>
     <use xlink:href="#DejaVuSans-6e" x="4441.964844"/>
     <use xlink:href="#DejaVuSans-73" x="4505.34375"/>
     <use xlink:href="#DejaVuSans-69" x="4557.443359"/>
     <use xlink:href="#DejaVuSans-62" x="4585.226562"/>
     <use xlink:href="#DejaVuSans-6c" x="4648.703125"/>
     <use xlink:href="#DejaVuSans-65" x="4676.486328"/>
     <use xlink:href="#DejaVuSans-73" x="4738.009766"/>
     <use xlink:href="#DejaVuSans-2e" x="4790.109375"/>
    </g>
   </g>
  </g>
 </g>
</svg>
