<?xml version="1.0" encoding="utf-8" standalone="no"?>
<!DOCTYPE svg PUBLIC "-//W3C//DTD SVG 1.1//EN"
  "http://www.w3.org/Graphics/SVG/1.1/DTD/svg11.dtd">
<svg xmlns:xlink="http://www.w3.org/1999/xlink" width="563.100313pt" height="322.323094pt" viewBox="0 0 563.100313 322.323094" xmlns="http://www.w3.org/2000/svg" version="1.1">
 <metadata>
  <rdf:RDF xmlns:dc="http://purl.org/dc/elements/1.1/" xmlns:cc="http://creativecommons.org/ns#" xmlns:rdf="http://www.w3.org/1999/02/22-rdf-syntax-ns#">
   <cc:Work>
    <dc:type rdf:resource="http://purl.org/dc/dcmitype/StillImage"/>
    <dc:date>2026-05-15T01:01:10.712768</dc:date>
    <dc:format>image/svg+xml</dc:format>
    <dc:creator>
     <cc:Agent>
      <dc:title>Matplotlib v3.10.8, https://matplotlib.org/</dc:title>
     </cc:Agent>
    </dc:creator>
   </cc:Work>
  </rdf:RDF>
 </metadata>
 <defs>
  <style type="text/css">*{stroke-linejoin: round; stroke-linecap: butt}</style>
 </defs>
 <g id="figure_1">
  <g id="patch_1">
   <path d="M 0 322.323094 
L 563.100313 322.323094 
L 563.100313 0 
L 0 0 
z
" style="fill: #ffffff"/>
  </g>
  <g id="axes_1">
   <g id="patch_2">
    <path d="M 42.540313 287.670281 
L 555.900312 287.670281 
L 555.900312 21.558281 
L 42.540313 21.558281 
z
" style="fill: #ffffff"/>
   </g>
   <g id="patch_3">
    <path d="M 42.540313 240.456862 
L 555.900312 240.456862 
L 555.900312 197.535572 
L 42.540313 197.535572 
z
" clip-path="url(#pc1222255cf)" style="fill: #2f7d4f; opacity: 0.12; stroke: #2f7d4f; stroke-linejoin: miter"/>
   </g>
   <g id="patch_4">
    <path d="M 42.540313 249.04112 
L 555.900312 249.04112 
L 555.900312 188.951314 
L 42.540313 188.951314 
z
" clip-path="url(#pc1222255cf)" style="fill: #b98524; opacity: 0.08; stroke: #b98524; stroke-linejoin: miter"/>
   </g>
   <g id="matplotlib.axis_1">
    <g id="xtick_1">
     <g id="line2d_1">
      <path d="M 532.565767 287.670281 
L 532.565767 21.558281 
" clip-path="url(#pc1222255cf)" style="fill: none; stroke: #b0b0b0; stroke-opacity: 0.18; stroke-width: 0.8; stroke-linecap: square"/>
     </g>
     <g id="line2d_2">
      <defs>
       <path id="m73800fc7d1" d="M 0 0 
L 0 3.5 
" style="stroke: #000000; stroke-width: 0.8"/>
      </defs>
      <g>
       <use xlink:href="#m73800fc7d1" x="532.565767" y="287.670281" style="stroke: #000000; stroke-width: 0.8"/>
      </g>
     </g>
     <g id="text_1">
      <!-- 0.0020 -->
      <g transform="translate(518.569517 300.749031) scale(0.08 -0.08)">
       <defs>
        <path id="DejaVuSans-30" d="M 2034 4250 
Q 1547 4250 1301 3770 
Q 1056 3291 1056 2328 
Q 1056 1369 1301 889 
Q 1547 409 2034 409 
Q 2525 409 2770 889 
Q 3016 1369 3016 2328 
Q 3016 3291 2770 3770 
Q 2525 4250 2034 4250 
z
M 2034 4750 
Q 2819 4750 3233 4129 
Q 3647 3509 3647 2328 
Q 3647 1150 3233 529 
Q 2819 -91 2034 -91 
Q 1250 -91 836 529 
Q 422 1150 422 2328 
Q 422 3509 836 4129 
Q 1250 4750 2034 4750 
z
" transform="scale(0.015625)"/>
        <path id="DejaVuSans-2e" d="M 684 794 
L 1344 794 
L 1344 0 
L 684 0 
L 684 794 
z
" transform="scale(0.015625)"/>
        <path id="DejaVuSans-32" d="M 1228 531 
L 3431 531 
L 3431 0 
L 469 0 
L 469 531 
Q 828 903 1448 1529 
Q 2069 2156 2228 2338 
Q 2531 2678 2651 2914 
Q 2772 3150 2772 3378 
Q 2772 3750 2511 3984 
Q 2250 4219 1831 4219 
Q 1534 4219 1204 4116 
Q 875 4013 500 3803 
L 500 4441 
Q 881 4594 1212 4672 
Q 1544 4750 1819 4750 
Q 2544 4750 2975 4387 
Q 3406 4025 3406 3419 
Q 3406 3131 3298 2873 
Q 3191 2616 2906 2266 
Q 2828 2175 2409 1742 
Q 1991 1309 1228 531 
z
" transform="scale(0.015625)"/>
       </defs>
       <use xlink:href="#DejaVuSans-30"/>
       <use xlink:href="#DejaVuSans-2e" transform="translate(63.623047 0)"/>
       <use xlink:href="#DejaVuSans-30" transform="translate(95.410156 0)"/>
       <use xlink:href="#DejaVuSans-30" transform="translate(159.033203 0)"/>
       <use xlink:href="#DejaVuSans-32" transform="translate(222.65625 0)"/>
       <use xlink:href="#DejaVuSans-30" transform="translate(286.279297 0)"/>
      </g>
     </g>
    </g>
    <g id="xtick_2">
     <g id="line2d_3">
      <path d="M 474.229403 287.670281 
L 474.229403 21.558281 
" clip-path="url(#pc1222255cf)" style="fill: none; stroke: #b0b0b0; stroke-opacity: 0.18; stroke-width: 0.8; stroke-linecap: square"/>
     </g>
     <g id="line2d_4">
      <g>
       <use xlink:href="#m73800fc7d1" x="474.229403" y="287.670281" style="stroke: #000000; stroke-width: 0.8"/>
      </g>
     </g>
     <g id="text_2">
      <!-- 0.0025 -->
      <g transform="translate(460.233153 300.749031) scale(0.08 -0.08)">
       <defs>
        <path id="DejaVuSans-35" d="M 691 4666 
L 3169 4666 
L 3169 4134 
L 1269 4134 
L 1269 2991 
Q 1406 3038 1543 3061 
Q 1681 3084 1819 3084 
Q 2600 3084 3056 2656 
Q 3513 2228 3513 1497 
Q 3513 744 3044 326 
Q 2575 -91 1722 -91 
Q 1428 -91 1123 -41 
Q 819 9 494 109 
L 494 744 
Q 775 591 1075 516 
Q 1375 441 1709 441 
Q 2250 441 2565 725 
Q 2881 1009 2881 1497 
Q 2881 1984 2565 2268 
Q 2250 2553 1709 2553 
Q 1456 2553 1204 2497 
Q 953 2441 691 2322 
L 691 4666 
z
" transform="scale(0.015625)"/>
       </defs>
       <use xlink:href="#DejaVuSans-30"/>
       <use xlink:href="#DejaVuSans-2e" transform="translate(63.623047 0)"/>
       <use xlink:href="#DejaVuSans-30" transform="translate(95.410156 0)"/>
       <use xlink:href="#DejaVuSans-30" transform="translate(159.033203 0)"/>
       <use xlink:href="#DejaVuSans-32" transform="translate(222.65625 0)"/>
       <use xlink:href="#DejaVuSans-35" transform="translate(286.279297 0)"/>
      </g>
     </g>
    </g>
    <g id="xtick_3">
     <g id="line2d_5">
      <path d="M 415.89304 287.670281 
L 415.89304 21.558281 
" clip-path="url(#pc1222255cf)" style="fill: none; stroke: #b0b0b0; stroke-opacity: 0.18; stroke-width: 0.8; stroke-linecap: square"/>
     </g>
     <g id="line2d_6">
      <g>
       <use xlink:href="#m73800fc7d1" x="415.89304" y="287.670281" style="stroke: #000000; stroke-width: 0.8"/>
      </g>
     </g>
     <g id="text_3">
      <!-- 0.0030 -->
      <g transform="translate(401.89679 300.749031) scale(0.08 -0.08)">
       <defs>
        <path id="DejaVuSans-33" d="M 2597 2516 
Q 3050 2419 3304 2112 
Q 3559 1806 3559 1356 
Q 3559 666 3084 287 
Q 2609 -91 1734 -91 
Q 1441 -91 1130 -33 
Q 819 25 488 141 
L 488 750 
Q 750 597 1062 519 
Q 1375 441 1716 441 
Q 2309 441 2620 675 
Q 2931 909 2931 1356 
Q 2931 1769 2642 2001 
Q 2353 2234 1838 2234 
L 1294 2234 
L 1294 2753 
L 1863 2753 
Q 2328 2753 2575 2939 
Q 2822 3125 2822 3475 
Q 2822 3834 2567 4026 
Q 2313 4219 1838 4219 
Q 1578 4219 1281 4162 
Q 984 4106 628 3988 
L 628 4550 
Q 988 4650 1302 4700 
Q 1616 4750 1894 4750 
Q 2613 4750 3031 4423 
Q 3450 4097 3450 3541 
Q 3450 3153 3228 2886 
Q 3006 2619 2597 2516 
z
" transform="scale(0.015625)"/>
       </defs>
       <use xlink:href="#DejaVuSans-30"/>
       <use xlink:href="#DejaVuSans-2e" transform="translate(63.623047 0)"/>
       <use xlink:href="#DejaVuSans-30" transform="translate(95.410156 0)"/>
       <use xlink:href="#DejaVuSans-30" transform="translate(159.033203 0)"/>
       <use xlink:href="#DejaVuSans-33" transform="translate(222.65625 0)"/>
       <use xlink:href="#DejaVuSans-30" transform="translate(286.279297 0)"/>
      </g>
     </g>
    </g>
    <g id="xtick_4">
     <g id="line2d_7">
      <path d="M 357.556676 287.670281 
L 357.556676 21.558281 
" clip-path="url(#pc1222255cf)" style="fill: none; stroke: #b0b0b0; stroke-opacity: 0.18; stroke-width: 0.8; stroke-linecap: square"/>
     </g>
     <g id="line2d_8">
      <g>
       <use xlink:href="#m73800fc7d1" x="357.556676" y="287.670281" style="stroke: #000000; stroke-width: 0.8"/>
      </g>
     </g>
     <g id="text_4">
      <!-- 0.0035 -->
      <g transform="translate(343.560426 300.749031) scale(0.08 -0.08)">
       <use xlink:href="#DejaVuSans-30"/>
       <use xlink:href="#DejaVuSans-2e" transform="translate(63.623047 0)"/>
       <use xlink:href="#DejaVuSans-30" transform="translate(95.410156 0)"/>
       <use xlink:href="#DejaVuSans-30" transform="translate(159.033203 0)"/>
       <use xlink:href="#DejaVuSans-33" transform="translate(222.65625 0)"/>
       <use xlink:href="#DejaVuSans-35" transform="translate(286.279297 0)"/>
      </g>
     </g>
    </g>
    <g id="xtick_5">
     <g id="line2d_9">
      <path d="M 299.220312 287.670281 
L 299.220312 21.558281 
" clip-path="url(#pc1222255cf)" style="fill: none; stroke: #b0b0b0; stroke-opacity: 0.18; stroke-width: 0.8; stroke-linecap: square"/>
     </g>
     <g id="line2d_10">
      <g>
       <use xlink:href="#m73800fc7d1" x="299.220312" y="287.670281" style="stroke: #000000; stroke-width: 0.8"/>
      </g>
     </g>
     <g id="text_5">
      <!-- 0.0040 -->
      <g transform="translate(285.224062 300.749031) scale(0.08 -0.08)">
       <defs>
        <path id="DejaVuSans-34" d="M 2419 4116 
L 825 1625 
L 2419 1625 
L 2419 4116 
z
M 2253 4666 
L 3047 4666 
L 3047 1625 
L 3713 1625 
L 3713 1100 
L 3047 1100 
L 3047 0 
L 2419 0 
L 2419 1100 
L 313 1100 
L 313 1709 
L 2253 4666 
z
" transform="scale(0.015625)"/>
       </defs>
       <use xlink:href="#DejaVuSans-30"/>
       <use xlink:href="#DejaVuSans-2e" transform="translate(63.623047 0)"/>
       <use xlink:href="#DejaVuSans-30" transform="translate(95.410156 0)"/>
       <use xlink:href="#DejaVuSans-30" transform="translate(159.033203 0)"/>
       <use xlink:href="#DejaVuSans-34" transform="translate(222.65625 0)"/>
       <use xlink:href="#DejaVuSans-30" transform="translate(286.279297 0)"/>
      </g>
     </g>
    </g>
    <g id="xtick_6">
     <g id="line2d_11">
      <path d="M 240.883949 287.670281 
L 240.883949 21.558281 
" clip-path="url(#pc1222255cf)" style="fill: none; stroke: #b0b0b0; stroke-opacity: 0.18; stroke-width: 0.8; stroke-linecap: square"/>
     </g>
     <g id="line2d_12">
      <g>
       <use xlink:href="#m73800fc7d1" x="240.883949" y="287.670281" style="stroke: #000000; stroke-width: 0.8"/>
      </g>
     </g>
     <g id="text_6">
      <!-- 0.0045 -->
      <g transform="translate(226.887699 300.749031) scale(0.08 -0.08)">
       <use xlink:href="#DejaVuSans-30"/>
       <use xlink:href="#DejaVuSans-2e" transform="translate(63.623047 0)"/>
       <use xlink:href="#DejaVuSans-30" transform="translate(95.410156 0)"/>
       <use xlink:href="#DejaVuSans-30" transform="translate(159.033203 0)"/>
       <use xlink:href="#DejaVuSans-34" transform="translate(222.65625 0)"/>
       <use xlink:href="#DejaVuSans-35" transform="translate(286.279297 0)"/>
      </g>
     </g>
    </g>
    <g id="xtick_7">
     <g id="line2d_13">
      <path d="M 182.547585 287.670281 
L 182.547585 21.558281 
" clip-path="url(#pc1222255cf)" style="fill: none; stroke: #b0b0b0; stroke-opacity: 0.18; stroke-width: 0.8; stroke-linecap: square"/>
     </g>
     <g id="line2d_14">
      <g>
       <use xlink:href="#m73800fc7d1" x="182.547585" y="287.670281" style="stroke: #000000; stroke-width: 0.8"/>
      </g>
     </g>
     <g id="text_7">
      <!-- 0.0050 -->
      <g transform="translate(168.551335 300.749031) scale(0.08 -0.08)">
       <use xlink:href="#DejaVuSans-30"/>
       <use xlink:href="#DejaVuSans-2e" transform="translate(63.623047 0)"/>
       <use xlink:href="#DejaVuSans-30" transform="translate(95.410156 0)"/>
       <use xlink:href="#DejaVuSans-30" transform="translate(159.033203 0)"/>
       <use xlink:href="#DejaVuSans-35" transform="translate(222.65625 0)"/>
       <use xlink:href="#DejaVuSans-30" transform="translate(286.279297 0)"/>
      </g>
     </g>
    </g>
    <g id="xtick_8">
     <g id="line2d_15">
      <path d="M 124.211222 287.670281 
L 124.211222 21.558281 
" clip-path="url(#pc1222255cf)" style="fill: none; stroke: #b0b0b0; stroke-opacity: 0.18; stroke-width: 0.8; stroke-linecap: square"/>
     </g>
     <g id="line2d_16">
      <g>
       <use xlink:href="#m73800fc7d1" x="124.211222" y="287.670281" style="stroke: #000000; stroke-width: 0.8"/>
      </g>
     </g>
     <g id="text_8">
      <!-- 0.0055 -->
      <g transform="translate(110.214972 300.749031) scale(0.08 -0.08)">
       <use xlink:href="#DejaVuSans-30"/>
       <use xlink:href="#DejaVuSans-2e" transform="translate(63.623047 0)"/>
       <use xlink:href="#DejaVuSans-30" transform="translate(95.410156 0)"/>
       <use xlink:href="#DejaVuSans-30" transform="translate(159.033203 0)"/>
       <use xlink:href="#DejaVuSans-35" transform="translate(222.65625 0)"/>
       <use xlink:href="#DejaVuSans-35" transform="translate(286.279297 0)"/>
      </g>
     </g>
    </g>
    <g id="xtick_9">
     <g id="line2d_17">
      <path d="M 65.874858 287.670281 
L 65.874858 21.558281 
" clip-path="url(#pc1222255cf)" style="fill: none; stroke: #b0b0b0; stroke-opacity: 0.18; stroke-width: 0.8; stroke-linecap: square"/>
     </g>
     <g id="line2d_18">
      <g>
       <use xlink:href="#m73800fc7d1" x="65.874858" y="287.670281" style="stroke: #000000; stroke-width: 0.8"/>
      </g>
     </g>
     <g id="text_9">
      <!-- 0.0060 -->
      <g transform="translate(51.878608 300.749031) scale(0.08 -0.08)">
       <defs>
        <path id="DejaVuSans-36" d="M 2113 2584 
Q 1688 2584 1439 2293 
Q 1191 2003 1191 1497 
Q 1191 994 1439 701 
Q 1688 409 2113 409 
Q 2538 409 2786 701 
Q 3034 994 3034 1497 
Q 3034 2003 2786 2293 
Q 2538 2584 2113 2584 
z
M 3366 4563 
L 3366 3988 
Q 3128 4100 2886 4159 
Q 2644 4219 2406 4219 
Q 1781 4219 1451 3797 
Q 1122 3375 1075 2522 
Q 1259 2794 1537 2939 
Q 1816 3084 2150 3084 
Q 2853 3084 3261 2657 
Q 3669 2231 3669 1497 
Q 3669 778 3244 343 
Q 2819 -91 2113 -91 
Q 1303 -91 875 529 
Q 447 1150 447 2328 
Q 447 3434 972 4092 
Q 1497 4750 2381 4750 
Q 2619 4750 2861 4703 
Q 3103 4656 3366 4563 
z
" transform="scale(0.015625)"/>
       </defs>
       <use xlink:href="#DejaVuSans-30"/>
       <use xlink:href="#DejaVuSans-2e" transform="translate(63.623047 0)"/>
       <use xlink:href="#DejaVuSans-30" transform="translate(95.410156 0)"/>
       <use xlink:href="#DejaVuSans-30" transform="translate(159.033203 0)"/>
       <use xlink:href="#DejaVuSans-36" transform="translate(222.65625 0)"/>
       <use xlink:href="#DejaVuSans-30" transform="translate(286.279297 0)"/>
      </g>
     </g>
    </g>
    <g id="text_10">
     <!-- dp (m), menor hacia la derecha -->
     <g transform="translate(228.097109 313.251375) scale(0.09 -0.09)">
      <defs>
       <path id="DejaVuSans-64" d="M 2906 2969 
L 2906 4863 
L 3481 4863 
L 3481 0 
L 2906 0 
L 2906 525 
Q 2725 213 2448 61 
Q 2172 -91 1784 -91 
Q 1150 -91 751 415 
Q 353 922 353 1747 
Q 353 2572 751 3078 
Q 1150 3584 1784 3584 
Q 2172 3584 2448 3432 
Q 2725 3281 2906 2969 
z
M 947 1747 
Q 947 1113 1208 752 
Q 1469 391 1925 391 
Q 2381 391 2643 752 
Q 2906 1113 2906 1747 
Q 2906 2381 2643 2742 
Q 2381 3103 1925 3103 
Q 1469 3103 1208 2742 
Q 947 2381 947 1747 
z
" transform="scale(0.015625)"/>
       <path id="DejaVuSans-70" d="M 1159 525 
L 1159 -1331 
L 581 -1331 
L 581 3500 
L 1159 3500 
L 1159 2969 
Q 1341 3281 1617 3432 
Q 1894 3584 2278 3584 
Q 2916 3584 3314 3078 
Q 3713 2572 3713 1747 
Q 3713 922 3314 415 
Q 2916 -91 2278 -91 
Q 1894 -91 1617 61 
Q 1341 213 1159 525 
z
M 3116 1747 
Q 3116 2381 2855 2742 
Q 2594 3103 2138 3103 
Q 1681 3103 1420 2742 
Q 1159 2381 1159 1747 
Q 1159 1113 1420 752 
Q 1681 391 2138 391 
Q 2594 391 2855 752 
Q 3116 1113 3116 1747 
z
" transform="scale(0.015625)"/>
       <path id="DejaVuSans-20" transform="scale(0.015625)"/>
       <path id="DejaVuSans-28" d="M 1984 4856 
Q 1566 4138 1362 3434 
Q 1159 2731 1159 2009 
Q 1159 1288 1364 580 
Q 1569 -128 1984 -844 
L 1484 -844 
Q 1016 -109 783 600 
Q 550 1309 550 2009 
Q 550 2706 781 3412 
Q 1013 4119 1484 4856 
L 1984 4856 
z
" transform="scale(0.015625)"/>
       <path id="DejaVuSans-6d" d="M 3328 2828 
Q 3544 3216 3844 3400 
Q 4144 3584 4550 3584 
Q 5097 3584 5394 3201 
Q 5691 2819 5691 2113 
L 5691 0 
L 5113 0 
L 5113 2094 
Q 5113 2597 4934 2840 
Q 4756 3084 4391 3084 
Q 3944 3084 3684 2787 
Q 3425 2491 3425 1978 
L 3425 0 
L 2847 0 
L 2847 2094 
Q 2847 2600 2669 2842 
Q 2491 3084 2119 3084 
Q 1678 3084 1418 2786 
Q 1159 2488 1159 1978 
L 1159 0 
L 581 0 
L 581 3500 
L 1159 3500 
L 1159 2956 
Q 1356 3278 1631 3431 
Q 1906 3584 2284 3584 
Q 2666 3584 2933 3390 
Q 3200 3197 3328 2828 
z
" transform="scale(0.015625)"/>
       <path id="DejaVuSans-29" d="M 513 4856 
L 1013 4856 
Q 1481 4119 1714 3412 
Q 1947 2706 1947 2009 
Q 1947 1309 1714 600 
Q 1481 -109 1013 -844 
L 513 -844 
Q 928 -128 1133 580 
Q 1338 1288 1338 2009 
Q 1338 2731 1133 3434 
Q 928 4138 513 4856 
z
" transform="scale(0.015625)"/>
       <path id="DejaVuSans-2c" d="M 750 794 
L 1409 794 
L 1409 256 
L 897 -744 
L 494 -744 
L 750 256 
L 750 794 
z
" transform="scale(0.015625)"/>
       <path id="DejaVuSans-65" d="M 3597 1894 
L 3597 1613 
L 953 1613 
Q 991 1019 1311 708 
Q 1631 397 2203 397 
Q 2534 397 2845 478 
Q 3156 559 3463 722 
L 3463 178 
Q 3153 47 2828 -22 
Q 2503 -91 2169 -91 
Q 1331 -91 842 396 
Q 353 884 353 1716 
Q 353 2575 817 3079 
Q 1281 3584 2069 3584 
Q 2775 3584 3186 3129 
Q 3597 2675 3597 1894 
z
M 3022 2063 
Q 3016 2534 2758 2815 
Q 2500 3097 2075 3097 
Q 1594 3097 1305 2825 
Q 1016 2553 972 2059 
L 3022 2063 
z
" transform="scale(0.015625)"/>
       <path id="DejaVuSans-6e" d="M 3513 2113 
L 3513 0 
L 2938 0 
L 2938 2094 
Q 2938 2591 2744 2837 
Q 2550 3084 2163 3084 
Q 1697 3084 1428 2787 
Q 1159 2491 1159 1978 
L 1159 0 
L 581 0 
L 581 3500 
L 1159 3500 
L 1159 2956 
Q 1366 3272 1645 3428 
Q 1925 3584 2291 3584 
Q 2894 3584 3203 3211 
Q 3513 2838 3513 2113 
z
" transform="scale(0.015625)"/>
       <path id="DejaVuSans-6f" d="M 1959 3097 
Q 1497 3097 1228 2736 
Q 959 2375 959 1747 
Q 959 1119 1226 758 
Q 1494 397 1959 397 
Q 2419 397 2687 759 
Q 2956 1122 2956 1747 
Q 2956 2369 2687 2733 
Q 2419 3097 1959 3097 
z
M 1959 3584 
Q 2709 3584 3137 3096 
Q 3566 2609 3566 1747 
Q 3566 888 3137 398 
Q 2709 -91 1959 -91 
Q 1206 -91 779 398 
Q 353 888 353 1747 
Q 353 2609 779 3096 
Q 1206 3584 1959 3584 
z
" transform="scale(0.015625)"/>
       <path id="DejaVuSans-72" d="M 2631 2963 
Q 2534 3019 2420 3045 
Q 2306 3072 2169 3072 
Q 1681 3072 1420 2755 
Q 1159 2438 1159 1844 
L 1159 0 
L 581 0 
L 581 3500 
L 1159 3500 
L 1159 2956 
Q 1341 3275 1631 3429 
Q 1922 3584 2338 3584 
Q 2397 3584 2469 3576 
Q 2541 3569 2628 3553 
L 2631 2963 
z
" transform="scale(0.015625)"/>
       <path id="DejaVuSans-68" d="M 3513 2113 
L 3513 0 
L 2938 0 
L 2938 2094 
Q 2938 2591 2744 2837 
Q 2550 3084 2163 3084 
Q 1697 3084 1428 2787 
Q 1159 2491 1159 1978 
L 1159 0 
L 581 0 
L 581 4863 
L 1159 4863 
L 1159 2956 
Q 1366 3272 1645 3428 
Q 1925 3584 2291 3584 
Q 2894 3584 3203 3211 
Q 3513 2838 3513 2113 
z
" transform="scale(0.015625)"/>
       <path id="DejaVuSans-61" d="M 2194 1759 
Q 1497 1759 1228 1600 
Q 959 1441 959 1056 
Q 959 750 1161 570 
Q 1363 391 1709 391 
Q 2188 391 2477 730 
Q 2766 1069 2766 1631 
L 2766 1759 
L 2194 1759 
z
M 3341 1997 
L 3341 0 
L 2766 0 
L 2766 531 
Q 2569 213 2275 61 
Q 1981 -91 1556 -91 
Q 1019 -91 701 211 
Q 384 513 384 1019 
Q 384 1609 779 1909 
Q 1175 2209 1959 2209 
L 2766 2209 
L 2766 2266 
Q 2766 2663 2505 2880 
Q 2244 3097 1772 3097 
Q 1472 3097 1187 3025 
Q 903 2953 641 2809 
L 641 3341 
Q 956 3463 1253 3523 
Q 1550 3584 1831 3584 
Q 2591 3584 2966 3190 
Q 3341 2797 3341 1997 
z
" transform="scale(0.015625)"/>
       <path id="DejaVuSans-63" d="M 3122 3366 
L 3122 2828 
Q 2878 2963 2633 3030 
Q 2388 3097 2138 3097 
Q 1578 3097 1268 2742 
Q 959 2388 959 1747 
Q 959 1106 1268 751 
Q 1578 397 2138 397 
Q 2388 397 2633 464 
Q 2878 531 3122 666 
L 3122 134 
Q 2881 22 2623 -34 
Q 2366 -91 2075 -91 
Q 1284 -91 818 406 
Q 353 903 353 1747 
Q 353 2603 823 3093 
Q 1294 3584 2113 3584 
Q 2378 3584 2631 3529 
Q 2884 3475 3122 3366 
z
" transform="scale(0.015625)"/>
       <path id="DejaVuSans-69" d="M 603 3500 
L 1178 3500 
L 1178 0 
L 603 0 
L 603 3500 
z
M 603 4863 
L 1178 4863 
L 1178 4134 
L 603 4134 
L 603 4863 
z
" transform="scale(0.015625)"/>
       <path id="DejaVuSans-6c" d="M 603 4863 
L 1178 4863 
L 1178 0 
L 603 0 
L 603 4863 
z
" transform="scale(0.015625)"/>
      </defs>
      <use xlink:href="#DejaVuSans-64"/>
      <use xlink:href="#DejaVuSans-70" transform="translate(63.476562 0)"/>
      <use xlink:href="#DejaVuSans-20" transform="translate(126.953125 0)"/>
      <use xlink:href="#DejaVuSans-28" transform="translate(158.740234 0)"/>
      <use xlink:href="#DejaVuSans-6d" transform="translate(197.753906 0)"/>
      <use xlink:href="#DejaVuSans-29" transform="translate(295.166016 0)"/>
      <use xlink:href="#DejaVuSans-2c" transform="translate(334.179688 0)"/>
      <use xlink:href="#DejaVuSans-20" transform="translate(365.966797 0)"/>
      <use xlink:href="#DejaVuSans-6d" transform="translate(397.753906 0)"/>
      <use xlink:href="#DejaVuSans-65" transform="translate(495.166016 0)"/>
      <use xlink:href="#DejaVuSans-6e" transform="translate(556.689453 0)"/>
      <use xlink:href="#DejaVuSans-6f" transform="translate(620.068359 0)"/>
      <use xlink:href="#DejaVuSans-72" transform="translate(681.25 0)"/>
      <use xlink:href="#DejaVuSans-20" transform="translate(722.363281 0)"/>
      <use xlink:href="#DejaVuSans-68" transform="translate(754.150391 0)"/>
      <use xlink:href="#DejaVuSans-61" transform="translate(817.529297 0)"/>
      <use xlink:href="#DejaVuSans-63" transform="translate(878.808594 0)"/>
      <use xlink:href="#DejaVuSans-69" transform="translate(933.789062 0)"/>
      <use xlink:href="#DejaVuSans-61" transform="translate(961.572266 0)"/>
      <use xlink:href="#DejaVuSans-20" transform="translate(1022.851562 0)"/>
      <use xlink:href="#DejaVuSans-6c" transform="translate(1054.638672 0)"/>
      <use xlink:href="#DejaVuSans-61" transform="translate(1082.421875 0)"/>
      <use xlink:href="#DejaVuSans-20" transform="translate(1143.701172 0)"/>
      <use xlink:href="#DejaVuSans-64" transform="translate(1175.488281 0)"/>
      <use xlink:href="#DejaVuSans-65" transform="translate(1238.964844 0)"/>
      <use xlink:href="#DejaVuSans-72" transform="translate(1300.488281 0)"/>
      <use xlink:href="#DejaVuSans-65" transform="translate(1339.351562 0)"/>
      <use xlink:href="#DejaVuSans-63" transform="translate(1400.875 0)"/>
      <use xlink:href="#DejaVuSans-68" transform="translate(1455.855469 0)"/>
      <use xlink:href="#DejaVuSans-61" transform="translate(1519.234375 0)"/>
     </g>
    </g>
   </g>
   <g id="matplotlib.axis_2">
    <g id="ytick_1">
     <g id="line2d_19">
      <path d="M 42.540313 261.917507 
L 555.900312 261.917507 
" clip-path="url(#pc1222255cf)" style="fill: none; stroke: #b0b0b0; stroke-opacity: 0.18; stroke-width: 0.8; stroke-linecap: square"/>
     </g>
     <g id="line2d_20">
      <defs>
       <path id="m6b662c2dcc" d="M 0 0 
L -3.5 0 
" style="stroke: #000000; stroke-width: 0.8"/>
      </defs>
      <g>
       <use xlink:href="#m6b662c2dcc" x="42.540313" y="261.917507" style="stroke: #000000; stroke-width: 0.8"/>
      </g>
     </g>
     <g id="text_11">
      <!-- 90 -->
      <g transform="translate(25.360313 264.956882) scale(0.08 -0.08)">
       <defs>
        <path id="DejaVuSans-39" d="M 703 97 
L 703 672 
Q 941 559 1184 500 
Q 1428 441 1663 441 
Q 2288 441 2617 861 
Q 2947 1281 2994 2138 
Q 2813 1869 2534 1725 
Q 2256 1581 1919 1581 
Q 1219 1581 811 2004 
Q 403 2428 403 3163 
Q 403 3881 828 4315 
Q 1253 4750 1959 4750 
Q 2769 4750 3195 4129 
Q 3622 3509 3622 2328 
Q 3622 1225 3098 567 
Q 2575 -91 1691 -91 
Q 1453 -91 1209 -44 
Q 966 3 703 97 
z
M 1959 2075 
Q 2384 2075 2632 2365 
Q 2881 2656 2881 3163 
Q 2881 3666 2632 3958 
Q 2384 4250 1959 4250 
Q 1534 4250 1286 3958 
Q 1038 3666 1038 3163 
Q 1038 2656 1286 2365 
Q 1534 2075 1959 2075 
z
" transform="scale(0.015625)"/>
       </defs>
       <use xlink:href="#DejaVuSans-39"/>
       <use xlink:href="#DejaVuSans-30" transform="translate(63.623047 0)"/>
      </g>
     </g>
    </g>
    <g id="ytick_2">
     <g id="line2d_21">
      <path d="M 42.540313 218.996217 
L 555.900312 218.996217 
" clip-path="url(#pc1222255cf)" style="fill: none; stroke: #b0b0b0; stroke-opacity: 0.18; stroke-width: 0.8; stroke-linecap: square"/>
     </g>
     <g id="line2d_22">
      <g>
       <use xlink:href="#m6b662c2dcc" x="42.540313" y="218.996217" style="stroke: #000000; stroke-width: 0.8"/>
      </g>
     </g>
     <g id="text_12">
      <!-- 100 -->
      <g transform="translate(20.270313 222.035592) scale(0.08 -0.08)">
       <defs>
        <path id="DejaVuSans-31" d="M 794 531 
L 1825 531 
L 1825 4091 
L 703 3866 
L 703 4441 
L 1819 4666 
L 2450 4666 
L 2450 531 
L 3481 531 
L 3481 0 
L 794 0 
L 794 531 
z
" transform="scale(0.015625)"/>
       </defs>
       <use xlink:href="#DejaVuSans-31"/>
       <use xlink:href="#DejaVuSans-30" transform="translate(63.623047 0)"/>
       <use xlink:href="#DejaVuSans-30" transform="translate(127.246094 0)"/>
      </g>
     </g>
    </g>
    <g id="ytick_3">
     <g id="line2d_23">
      <path d="M 42.540313 176.074926 
L 555.900312 176.074926 
" clip-path="url(#pc1222255cf)" style="fill: none; stroke: #b0b0b0; stroke-opacity: 0.18; stroke-width: 0.8; stroke-linecap: square"/>
     </g>
     <g id="line2d_24">
      <g>
       <use xlink:href="#m6b662c2dcc" x="42.540313" y="176.074926" style="stroke: #000000; stroke-width: 0.8"/>
      </g>
     </g>
     <g id="text_13">
      <!-- 110 -->
      <g transform="translate(20.270313 179.114301) scale(0.08 -0.08)">
       <use xlink:href="#DejaVuSans-31"/>
       <use xlink:href="#DejaVuSans-31" transform="translate(63.623047 0)"/>
       <use xlink:href="#DejaVuSans-30" transform="translate(127.246094 0)"/>
      </g>
     </g>
    </g>
    <g id="ytick_4">
     <g id="line2d_25">
      <path d="M 42.540313 133.153636 
L 555.900312 133.153636 
" clip-path="url(#pc1222255cf)" style="fill: none; stroke: #b0b0b0; stroke-opacity: 0.18; stroke-width: 0.8; stroke-linecap: square"/>
     </g>
     <g id="line2d_26">
      <g>
       <use xlink:href="#m6b662c2dcc" x="42.540313" y="133.153636" style="stroke: #000000; stroke-width: 0.8"/>
      </g>
     </g>
     <g id="text_14">
      <!-- 120 -->
      <g transform="translate(20.270313 136.193011) scale(0.08 -0.08)">
       <use xlink:href="#DejaVuSans-31"/>
       <use xlink:href="#DejaVuSans-32" transform="translate(63.623047 0)"/>
       <use xlink:href="#DejaVuSans-30" transform="translate(127.246094 0)"/>
      </g>
     </g>
    </g>
    <g id="ytick_5">
     <g id="line2d_27">
      <path d="M 42.540313 90.232346 
L 555.900312 90.232346 
" clip-path="url(#pc1222255cf)" style="fill: none; stroke: #b0b0b0; stroke-opacity: 0.18; stroke-width: 0.8; stroke-linecap: square"/>
     </g>
     <g id="line2d_28">
      <g>
       <use xlink:href="#m6b662c2dcc" x="42.540313" y="90.232346" style="stroke: #000000; stroke-width: 0.8"/>
      </g>
     </g>
     <g id="text_15">
      <!-- 130 -->
      <g transform="translate(20.270313 93.271721) scale(0.08 -0.08)">
       <use xlink:href="#DejaVuSans-31"/>
       <use xlink:href="#DejaVuSans-33" transform="translate(63.623047 0)"/>
       <use xlink:href="#DejaVuSans-30" transform="translate(127.246094 0)"/>
      </g>
     </g>
    </g>
    <g id="ytick_6">
     <g id="line2d_29">
      <path d="M 42.540313 47.311055 
L 555.900312 47.311055 
" clip-path="url(#pc1222255cf)" style="fill: none; stroke: #b0b0b0; stroke-opacity: 0.18; stroke-width: 0.8; stroke-linecap: square"/>
     </g>
     <g id="line2d_30">
      <g>
       <use xlink:href="#m6b662c2dcc" x="42.540313" y="47.311055" style="stroke: #000000; stroke-width: 0.8"/>
      </g>
     </g>
     <g id="text_16">
      <!-- 140 -->
      <g transform="translate(20.270313 50.35043) scale(0.08 -0.08)">
       <use xlink:href="#DejaVuSans-31"/>
       <use xlink:href="#DejaVuSans-34" transform="translate(63.623047 0)"/>
       <use xlink:href="#DejaVuSans-30" transform="translate(127.246094 0)"/>
      </g>
     </g>
    </g>
    <g id="text_17">
     <!-- Máximo relativo a dp=0.002 (%) -->
     <g transform="translate(14.398594 227.893969) rotate(-90) scale(0.09 -0.09)">
      <defs>
       <path id="DejaVuSans-4d" d="M 628 4666 
L 1569 4666 
L 2759 1491 
L 3956 4666 
L 4897 4666 
L 4897 0 
L 4281 0 
L 4281 4097 
L 3078 897 
L 2444 897 
L 1241 4097 
L 1241 0 
L 628 0 
L 628 4666 
z
" transform="scale(0.015625)"/>
       <path id="DejaVuSans-e1" d="M 2194 1759 
Q 1497 1759 1228 1600 
Q 959 1441 959 1056 
Q 959 750 1161 570 
Q 1363 391 1709 391 
Q 2188 391 2477 730 
Q 2766 1069 2766 1631 
L 2766 1759 
L 2194 1759 
z
M 3341 1997 
L 3341 0 
L 2766 0 
L 2766 531 
Q 2569 213 2275 61 
Q 1981 -91 1556 -91 
Q 1019 -91 701 211 
Q 384 513 384 1019 
Q 384 1609 779 1909 
Q 1175 2209 1959 2209 
L 2766 2209 
L 2766 2266 
Q 2766 2663 2505 2880 
Q 2244 3097 1772 3097 
Q 1472 3097 1187 3025 
Q 903 2953 641 2809 
L 641 3341 
Q 956 3463 1253 3523 
Q 1550 3584 1831 3584 
Q 2591 3584 2966 3190 
Q 3341 2797 3341 1997 
z
M 2290 5119 
L 2912 5119 
L 1894 3944 
L 1415 3944 
L 2290 5119 
z
" transform="scale(0.015625)"/>
       <path id="DejaVuSans-78" d="M 3513 3500 
L 2247 1797 
L 3578 0 
L 2900 0 
L 1881 1375 
L 863 0 
L 184 0 
L 1544 1831 
L 300 3500 
L 978 3500 
L 1906 2253 
L 2834 3500 
L 3513 3500 
z
" transform="scale(0.015625)"/>
       <path id="DejaVuSans-74" d="M 1172 4494 
L 1172 3500 
L 2356 3500 
L 2356 3053 
L 1172 3053 
L 1172 1153 
Q 1172 725 1289 603 
Q 1406 481 1766 481 
L 2356 481 
L 2356 0 
L 1766 0 
Q 1100 0 847 248 
Q 594 497 594 1153 
L 594 3053 
L 172 3053 
L 172 3500 
L 594 3500 
L 594 4494 
L 1172 4494 
z
" transform="scale(0.015625)"/>
       <path id="DejaVuSans-76" d="M 191 3500 
L 800 3500 
L 1894 563 
L 2988 3500 
L 3597 3500 
L 2284 0 
L 1503 0 
L 191 3500 
z
" transform="scale(0.015625)"/>
       <path id="DejaVuSans-3d" d="M 678 2906 
L 4684 2906 
L 4684 2381 
L 678 2381 
L 678 2906 
z
M 678 1631 
L 4684 1631 
L 4684 1100 
L 678 1100 
L 678 1631 
z
" transform="scale(0.015625)"/>
       <path id="DejaVuSans-25" d="M 4653 2053 
Q 4381 2053 4226 1822 
Q 4072 1591 4072 1178 
Q 4072 772 4226 539 
Q 4381 306 4653 306 
Q 4919 306 5073 539 
Q 5228 772 5228 1178 
Q 5228 1588 5073 1820 
Q 4919 2053 4653 2053 
z
M 4653 2450 
Q 5147 2450 5437 2106 
Q 5728 1763 5728 1178 
Q 5728 594 5436 251 
Q 5144 -91 4653 -91 
Q 4153 -91 3862 251 
Q 3572 594 3572 1178 
Q 3572 1766 3864 2108 
Q 4156 2450 4653 2450 
z
M 1428 4353 
Q 1159 4353 1004 4120 
Q 850 3888 850 3481 
Q 850 3069 1003 2837 
Q 1156 2606 1428 2606 
Q 1700 2606 1854 2837 
Q 2009 3069 2009 3481 
Q 2009 3884 1853 4118 
Q 1697 4353 1428 4353 
z
M 4250 4750 
L 4750 4750 
L 1831 -91 
L 1331 -91 
L 4250 4750 
z
M 1428 4750 
Q 1922 4750 2215 4408 
Q 2509 4066 2509 3481 
Q 2509 2891 2217 2550 
Q 1925 2209 1428 2209 
Q 931 2209 642 2551 
Q 353 2894 353 3481 
Q 353 4063 643 4406 
Q 934 4750 1428 4750 
z
" transform="scale(0.015625)"/>
      </defs>
      <use xlink:href="#DejaVuSans-4d"/>
      <use xlink:href="#DejaVuSans-e1" transform="translate(86.279297 0)"/>
      <use xlink:href="#DejaVuSans-78" transform="translate(147.558594 0)"/>
      <use xlink:href="#DejaVuSans-69" transform="translate(206.738281 0)"/>
      <use xlink:href="#DejaVuSans-6d" transform="translate(234.521484 0)"/>
      <use xlink:href="#DejaVuSans-6f" transform="translate(331.933594 0)"/>
      <use xlink:href="#DejaVuSans-20" transform="translate(393.115234 0)"/>
      <use xlink:href="#DejaVuSans-72" transform="translate(424.902344 0)"/>
      <use xlink:href="#DejaVuSans-65" transform="translate(463.765625 0)"/>
      <use xlink:href="#DejaVuSans-6c" transform="translate(525.289062 0)"/>
      <use xlink:href="#DejaVuSans-61" transform="translate(553.072266 0)"/>
      <use xlink:href="#DejaVuSans-74" transform="translate(614.351562 0)"/>
      <use xlink:href="#DejaVuSans-69" transform="translate(653.560547 0)"/>
      <use xlink:href="#DejaVuSans-76" transform="translate(681.34375 0)"/>
      <use xlink:href="#DejaVuSans-6f" transform="translate(740.523438 0)"/>
      <use xlink:href="#DejaVuSans-20" transform="translate(801.705078 0)"/>
      <use xlink:href="#DejaVuSans-61" transform="translate(833.492188 0)"/>
      <use xlink:href="#DejaVuSans-20" transform="translate(894.771484 0)"/>
      <use xlink:href="#DejaVuSans-64" transform="translate(926.558594 0)"/>
      <use xlink:href="#DejaVuSans-70" transform="translate(990.035156 0)"/>
      <use xlink:href="#DejaVuSans-3d" transform="translate(1053.511719 0)"/>
      <use xlink:href="#DejaVuSans-30" transform="translate(1137.300781 0)"/>
      <use xlink:href="#DejaVuSans-2e" transform="translate(1200.923828 0)"/>
      <use xlink:href="#DejaVuSans-30" transform="translate(1232.710938 0)"/>
      <use xlink:href="#DejaVuSans-30" transform="translate(1296.333984 0)"/>
      <use xlink:href="#DejaVuSans-32" transform="translate(1359.957031 0)"/>
      <use xlink:href="#DejaVuSans-20" transform="translate(1423.580078 0)"/>
      <use xlink:href="#DejaVuSans-28" transform="translate(1455.367188 0)"/>
      <use xlink:href="#DejaVuSans-25" transform="translate(1494.380859 0)"/>
      <use xlink:href="#DejaVuSans-29" transform="translate(1589.400391 0)"/>
     </g>
    </g>
   </g>
   <g id="line2d_31">
    <path d="M 532.565767 218.996217 
L 415.89304 245.626492 
L 299.220312 244.975851 
L 182.547585 172.556423 
L 65.874858 43.339197 
" clip-path="url(#pc1222255cf)" style="fill: none; stroke: #1f77b4; stroke-width: 1.6; stroke-linecap: square"/>
    <defs>
     <path id="m9fa332361f" d="M 0 3 
C 0.795609 3 1.55874 2.683901 2.12132 2.12132 
C 2.683901 1.55874 3 0.795609 3 0 
C 3 -0.795609 2.683901 -1.55874 2.12132 -2.12132 
C 1.55874 -2.683901 0.795609 -3 0 -3 
C -0.795609 -3 -1.55874 -2.683901 -2.12132 -2.12132 
C -2.683901 -1.55874 -3 -0.795609 -3 0 
C -3 0.795609 -2.683901 1.55874 -2.12132 2.12132 
C -1.55874 2.683901 -0.795609 3 0 3 
z
" style="stroke: #1f77b4"/>
    </defs>
    <g clip-path="url(#pc1222255cf)">
     <use xlink:href="#m9fa332361f" x="532.565767" y="218.996217" style="fill: #1f77b4; stroke: #1f77b4"/>
     <use xlink:href="#m9fa332361f" x="415.89304" y="245.626492" style="fill: #1f77b4; stroke: #1f77b4"/>
     <use xlink:href="#m9fa332361f" x="299.220312" y="244.975851" style="fill: #1f77b4; stroke: #1f77b4"/>
     <use xlink:href="#m9fa332361f" x="182.547585" y="172.556423" style="fill: #1f77b4; stroke: #1f77b4"/>
     <use xlink:href="#m9fa332361f" x="65.874858" y="43.339197" style="fill: #1f77b4; stroke: #1f77b4"/>
    </g>
   </g>
   <g id="line2d_32">
    <path d="M 532.565767 218.996217 
L 415.89304 235.200377 
L 299.220312 173.774511 
L 182.547585 195.145221 
L 65.874858 53.299568 
" clip-path="url(#pc1222255cf)" style="fill: none; stroke: #ff7f0e; stroke-width: 1.6; stroke-linecap: square"/>
    <defs>
     <path id="md3933f65a6" d="M 0 3 
C 0.795609 3 1.55874 2.683901 2.12132 2.12132 
C 2.683901 1.55874 3 0.795609 3 0 
C 3 -0.795609 2.683901 -1.55874 2.12132 -2.12132 
C 1.55874 -2.683901 0.795609 -3 0 -3 
C -0.795609 -3 -1.55874 -2.683901 -2.12132 -2.12132 
C -2.683901 -1.55874 -3 -0.795609 -3 0 
C -3 0.795609 -2.683901 1.55874 -2.12132 2.12132 
C -1.55874 2.683901 -0.795609 3 0 3 
z
" style="stroke: #ff7f0e"/>
    </defs>
    <g clip-path="url(#pc1222255cf)">
     <use xlink:href="#md3933f65a6" x="532.565767" y="218.996217" style="fill: #ff7f0e; stroke: #ff7f0e"/>
     <use xlink:href="#md3933f65a6" x="415.89304" y="235.200377" style="fill: #ff7f0e; stroke: #ff7f0e"/>
     <use xlink:href="#md3933f65a6" x="299.220312" y="173.774511" style="fill: #ff7f0e; stroke: #ff7f0e"/>
     <use xlink:href="#md3933f65a6" x="182.547585" y="195.145221" style="fill: #ff7f0e; stroke: #ff7f0e"/>
     <use xlink:href="#md3933f65a6" x="65.874858" y="53.299568" style="fill: #ff7f0e; stroke: #ff7f0e"/>
    </g>
   </g>
   <g id="line2d_33">
    <path d="M 532.565767 218.996217 
L 415.89304 236.508599 
L 299.220312 243.373907 
L 182.547585 261.890968 
L 65.874858 263.83398 
" clip-path="url(#pc1222255cf)" style="fill: none; stroke: #2ca02c; stroke-width: 1.6; stroke-linecap: square"/>
    <defs>
     <path id="m617959f9b2" d="M 0 3 
C 0.795609 3 1.55874 2.683901 2.12132 2.12132 
C 2.683901 1.55874 3 0.795609 3 0 
C 3 -0.795609 2.683901 -1.55874 2.12132 -2.12132 
C 1.55874 -2.683901 0.795609 -3 0 -3 
C -0.795609 -3 -1.55874 -2.683901 -2.12132 -2.12132 
C -2.683901 -1.55874 -3 -0.795609 -3 0 
C -3 0.795609 -2.683901 1.55874 -2.12132 2.12132 
C -1.55874 2.683901 -0.795609 3 0 3 
z
" style="stroke: #2ca02c"/>
    </defs>
    <g clip-path="url(#pc1222255cf)">
     <use xlink:href="#m617959f9b2" x="532.565767" y="218.996217" style="fill: #2ca02c; stroke: #2ca02c"/>
     <use xlink:href="#m617959f9b2" x="415.89304" y="236.508599" style="fill: #2ca02c; stroke: #2ca02c"/>
     <use xlink:href="#m617959f9b2" x="299.220312" y="243.373907" style="fill: #2ca02c; stroke: #2ca02c"/>
     <use xlink:href="#m617959f9b2" x="182.547585" y="261.890968" style="fill: #2ca02c; stroke: #2ca02c"/>
     <use xlink:href="#m617959f9b2" x="65.874858" y="263.83398" style="fill: #2ca02c; stroke: #2ca02c"/>
    </g>
   </g>
   <g id="line2d_34">
    <path d="M 42.540313 218.996217 
L 555.900312 218.996217 
" clip-path="url(#pc1222255cf)" style="fill: none; stroke: #17202a; stroke-width: 0.8; stroke-linecap: square"/>
   </g>
   <g id="line2d_35">
    <path d="M 415.89304 287.670281 
L 415.89304 21.558281 
" clip-path="url(#pc1222255cf)" style="fill: none; stroke-dasharray: 1.2,1.98; stroke-dashoffset: 0; stroke: #2b6f9f; stroke-width: 1.2"/>
   </g>
   <g id="patch_5">
    <path d="M 42.540313 287.670281 
L 42.540313 21.558281 
" style="fill: none; stroke: #000000; stroke-width: 0.8; stroke-linejoin: miter; stroke-linecap: square"/>
   </g>
   <g id="patch_6">
    <path d="M 42.540313 287.670281 
L 555.900312 287.670281 
" style="fill: none; stroke: #000000; stroke-width: 0.8; stroke-linejoin: miter; stroke-linecap: square"/>
   </g>
   <g id="text_18">
    <g id="patch_7">
     <path d="M 411.282858 250.317398 
L 449.417139 250.317398 
L 449.417139 240.935586 
L 411.282858 240.935586 
z
" style="fill: #ffffff; opacity: 0.72"/>
    </g>
    <!-- -7.96 mm -->
    <g style="fill: #687385" transform="translate(412.392858 247.668429) scale(0.074 -0.074)">
     <defs>
      <path id="DejaVuSans-2d" d="M 313 2009 
L 1997 2009 
L 1997 1497 
L 313 1497 
L 313 2009 
z
" transform="scale(0.015625)"/>
      <path id="DejaVuSans-37" d="M 525 4666 
L 3525 4666 
L 3525 4397 
L 1831 0 
L 1172 0 
L 2766 4134 
L 525 4134 
L 525 4666 
z
" transform="scale(0.015625)"/>
     </defs>
     <use xlink:href="#DejaVuSans-2d"/>
     <use xlink:href="#DejaVuSans-37" transform="translate(36.083984 0)"/>
     <use xlink:href="#DejaVuSans-2e" transform="translate(99.707031 0)"/>
     <use xlink:href="#DejaVuSans-39" transform="translate(131.494141 0)"/>
     <use xlink:href="#DejaVuSans-36" transform="translate(195.117188 0)"/>
     <use xlink:href="#DejaVuSans-20" transform="translate(258.740234 0)"/>
     <use xlink:href="#DejaVuSans-6d" transform="translate(290.527344 0)"/>
     <use xlink:href="#DejaVuSans-6d" transform="translate(387.939453 0)"/>
    </g>
   </g>
   <g id="text_19">
    <g id="patch_8">
     <path d="M 411.282858 239.891283 
L 453.265139 239.891283 
L 453.265139 230.509471 
L 411.282858 230.509471 
z
" style="fill: #ffffff; opacity: 0.72"/>
    </g>
    <!-- -0.006 m/s -->
    <g style="fill: #687385" transform="translate(412.392858 237.242315) scale(0.074 -0.074)">
     <defs>
      <path id="DejaVuSans-2f" d="M 1625 4666 
L 2156 4666 
L 531 -594 
L 0 -594 
L 1625 4666 
z
" transform="scale(0.015625)"/>
      <path id="DejaVuSans-73" d="M 2834 3397 
L 2834 2853 
Q 2591 2978 2328 3040 
Q 2066 3103 1784 3103 
Q 1356 3103 1142 2972 
Q 928 2841 928 2578 
Q 928 2378 1081 2264 
Q 1234 2150 1697 2047 
L 1894 2003 
Q 2506 1872 2764 1633 
Q 3022 1394 3022 966 
Q 3022 478 2636 193 
Q 2250 -91 1575 -91 
Q 1294 -91 989 -36 
Q 684 19 347 128 
L 347 722 
Q 666 556 975 473 
Q 1284 391 1588 391 
Q 1994 391 2212 530 
Q 2431 669 2431 922 
Q 2431 1156 2273 1281 
Q 2116 1406 1581 1522 
L 1381 1569 
Q 847 1681 609 1914 
Q 372 2147 372 2553 
Q 372 3047 722 3315 
Q 1072 3584 1716 3584 
Q 2034 3584 2315 3537 
Q 2597 3491 2834 3397 
z
" transform="scale(0.015625)"/>
     </defs>
     <use xlink:href="#DejaVuSans-2d"/>
     <use xlink:href="#DejaVuSans-30" transform="translate(36.083984 0)"/>
     <use xlink:href="#DejaVuSans-2e" transform="translate(99.707031 0)"/>
     <use xlink:href="#DejaVuSans-30" transform="translate(131.494141 0)"/>
     <use xlink:href="#DejaVuSans-30" transform="translate(195.117188 0)"/>
     <use xlink:href="#DejaVuSans-36" transform="translate(258.740234 0)"/>
     <use xlink:href="#DejaVuSans-20" transform="translate(322.363281 0)"/>
     <use xlink:href="#DejaVuSans-6d" transform="translate(354.150391 0)"/>
     <use xlink:href="#DejaVuSans-2f" transform="translate(451.5625 0)"/>
     <use xlink:href="#DejaVuSans-73" transform="translate(485.253906 0)"/>
    </g>
   </g>
   <g id="text_20">
    <g id="patch_9">
     <path d="M 411.282858 241.199505 
L 444.708889 241.199505 
L 444.708889 231.817692 
L 411.282858 231.817692 
z
" style="fill: #ffffff; opacity: 0.72"/>
    </g>
    <!-- -5.5 mm -->
    <g style="fill: #687385" transform="translate(412.392858 238.550536) scale(0.074 -0.074)">
     <use xlink:href="#DejaVuSans-2d"/>
     <use xlink:href="#DejaVuSans-35" transform="translate(36.083984 0)"/>
     <use xlink:href="#DejaVuSans-2e" transform="translate(99.707031 0)"/>
     <use xlink:href="#DejaVuSans-35" transform="translate(131.494141 0)"/>
     <use xlink:href="#DejaVuSans-20" transform="translate(195.117188 0)"/>
     <use xlink:href="#DejaVuSans-6d" transform="translate(226.904297 0)"/>
     <use xlink:href="#DejaVuSans-6d" transform="translate(324.316406 0)"/>
    </g>
   </g>
   <g id="text_21">
    <!-- dp=0.003 -->
    <g style="fill: #2b6f9f" transform="translate(396.011165 272.756152) scale(0.08 -0.08)">
     <use xlink:href="#DejaVuSans-64"/>
     <use xlink:href="#DejaVuSans-70" transform="translate(63.476562 0)"/>
     <use xlink:href="#DejaVuSans-3d" transform="translate(126.953125 0)"/>
     <use xlink:href="#DejaVuSans-30" transform="translate(210.742188 0)"/>
     <use xlink:href="#DejaVuSans-2e" transform="translate(274.365234 0)"/>
     <use xlink:href="#DejaVuSans-30" transform="translate(306.152344 0)"/>
     <use xlink:href="#DejaVuSans-30" transform="translate(369.775391 0)"/>
     <use xlink:href="#DejaVuSans-33" transform="translate(433.398438 0)"/>
    </g>
    <!-- adoptado -->
    <g style="fill: #2b6f9f" transform="translate(396.90929 281.714402) scale(0.08 -0.08)">
     <use xlink:href="#DejaVuSans-61"/>
     <use xlink:href="#DejaVuSans-64" transform="translate(61.279297 0)"/>
     <use xlink:href="#DejaVuSans-6f" transform="translate(124.755859 0)"/>
     <use xlink:href="#DejaVuSans-70" transform="translate(185.9375 0)"/>
     <use xlink:href="#DejaVuSans-74" transform="translate(249.414062 0)"/>
     <use xlink:href="#DejaVuSans-61" transform="translate(288.623047 0)"/>
     <use xlink:href="#DejaVuSans-64" transform="translate(349.902344 0)"/>
     <use xlink:href="#DejaVuSans-6f" transform="translate(413.378906 0)"/>
    </g>
   </g>
   <g id="text_22">
    <!-- 100% = caso fino dp=0.002 -->
    <g style="fill: #687385" transform="translate(402.188608 211.323486) scale(0.08 -0.08)">
     <defs>
      <path id="DejaVuSans-66" d="M 2375 4863 
L 2375 4384 
L 1825 4384 
Q 1516 4384 1395 4259 
Q 1275 4134 1275 3809 
L 1275 3500 
L 2222 3500 
L 2222 3053 
L 1275 3053 
L 1275 0 
L 697 0 
L 697 3053 
L 147 3053 
L 147 3500 
L 697 3500 
L 697 3744 
Q 697 4328 969 4595 
Q 1241 4863 1831 4863 
L 2375 4863 
z
" transform="scale(0.015625)"/>
     </defs>
     <use xlink:href="#DejaVuSans-31"/>
     <use xlink:href="#DejaVuSans-30" transform="translate(63.623047 0)"/>
     <use xlink:href="#DejaVuSans-30" transform="translate(127.246094 0)"/>
     <use xlink:href="#DejaVuSans-25" transform="translate(190.869141 0)"/>
     <use xlink:href="#DejaVuSans-20" transform="translate(285.888672 0)"/>
     <use xlink:href="#DejaVuSans-3d" transform="translate(317.675781 0)"/>
     <use xlink:href="#DejaVuSans-20" transform="translate(401.464844 0)"/>
     <use xlink:href="#DejaVuSans-63" transform="translate(433.251953 0)"/>
     <use xlink:href="#DejaVuSans-61" transform="translate(488.232422 0)"/>
     <use xlink:href="#DejaVuSans-73" transform="translate(549.511719 0)"/>
     <use xlink:href="#DejaVuSans-6f" transform="translate(601.611328 0)"/>
     <use xlink:href="#DejaVuSans-20" transform="translate(662.792969 0)"/>
     <use xlink:href="#DejaVuSans-66" transform="translate(694.580078 0)"/>
     <use xlink:href="#DejaVuSans-69" transform="translate(729.785156 0)"/>
     <use xlink:href="#DejaVuSans-6e" transform="translate(757.568359 0)"/>
     <use xlink:href="#DejaVuSans-6f" transform="translate(820.947266 0)"/>
     <use xlink:href="#DejaVuSans-20" transform="translate(882.128906 0)"/>
     <use xlink:href="#DejaVuSans-64" transform="translate(913.916016 0)"/>
     <use xlink:href="#DejaVuSans-70" transform="translate(977.392578 0)"/>
     <use xlink:href="#DejaVuSans-3d" transform="translate(1040.869141 0)"/>
     <use xlink:href="#DejaVuSans-30" transform="translate(1124.658203 0)"/>
     <use xlink:href="#DejaVuSans-2e" transform="translate(1188.28125 0)"/>
     <use xlink:href="#DejaVuSans-30" transform="translate(1220.068359 0)"/>
     <use xlink:href="#DejaVuSans-30" transform="translate(1283.691406 0)"/>
     <use xlink:href="#DejaVuSans-32" transform="translate(1347.314453 0)"/>
    </g>
   </g>
   <g id="text_23">
    <!-- Tendencia de variables principales hacia el caso fino -->
    <g transform="translate(154.887422 15.558281) scale(0.11 -0.11)">
     <defs>
      <path id="DejaVuSans-54" d="M -19 4666 
L 3928 4666 
L 3928 4134 
L 2272 4134 
L 2272 0 
L 1638 0 
L 1638 4134 
L -19 4134 
L -19 4666 
z
" transform="scale(0.015625)"/>
      <path id="DejaVuSans-62" d="M 3116 1747 
Q 3116 2381 2855 2742 
Q 2594 3103 2138 3103 
Q 1681 3103 1420 2742 
Q 1159 2381 1159 1747 
Q 1159 1113 1420 752 
Q 1681 391 2138 391 
Q 2594 391 2855 752 
Q 3116 1113 3116 1747 
z
M 1159 2969 
Q 1341 3281 1617 3432 
Q 1894 3584 2278 3584 
Q 2916 3584 3314 3078 
Q 3713 2572 3713 1747 
Q 3713 922 3314 415 
Q 2916 -91 2278 -91 
Q 1894 -91 1617 61 
Q 1341 213 1159 525 
L 1159 0 
L 581 0 
L 581 4863 
L 1159 4863 
L 1159 2969 
z
" transform="scale(0.015625)"/>
     </defs>
     <use xlink:href="#DejaVuSans-54"/>
     <use xlink:href="#DejaVuSans-65" transform="translate(44.083984 0)"/>
     <use xlink:href="#DejaVuSans-6e" transform="translate(105.607422 0)"/>
     <use xlink:href="#DejaVuSans-64" transform="translate(168.986328 0)"/>
     <use xlink:href="#DejaVuSans-65" transform="translate(232.462891 0)"/>
     <use xlink:href="#DejaVuSans-6e" transform="translate(293.986328 0)"/>
     <use xlink:href="#DejaVuSans-63" transform="translate(357.365234 0)"/>
     <use xlink:href="#DejaVuSans-69" transform="translate(412.345703 0)"/>
     <use xlink:href="#DejaVuSans-61" transform="translate(440.128906 0)"/>
     <use xlink:href="#DejaVuSans-20" transform="translate(501.408203 0)"/>
     <use xlink:href="#DejaVuSans-64" transform="translate(533.195312 0)"/>
     <use xlink:href="#DejaVuSans-65" transform="translate(596.671875 0)"/>
     <use xlink:href="#DejaVuSans-20" transform="translate(658.195312 0)"/>
     <use xlink:href="#DejaVuSans-76" transform="translate(689.982422 0)"/>
     <use xlink:href="#DejaVuSans-61" transform="translate(749.162109 0)"/>
     <use xlink:href="#DejaVuSans-72" transform="translate(810.441406 0)"/>
     <use xlink:href="#DejaVuSans-69" transform="translate(851.554688 0)"/>
     <use xlink:href="#DejaVuSans-61" transform="translate(879.337891 0)"/>
     <use xlink:href="#DejaVuSans-62" transform="translate(940.617188 0)"/>
     <use xlink:href="#DejaVuSans-6c" transform="translate(1004.09375 0)"/>
     <use xlink:href="#DejaVuSans-65" transform="translate(1031.876953 0)"/>
     <use xlink:href="#DejaVuSans-73" transform="translate(1093.400391 0)"/>
     <use xlink:href="#DejaVuSans-20" transform="translate(1145.5 0)"/>
     <use xlink:href="#DejaVuSans-70" transform="translate(1177.287109 0)"/>
     <use xlink:href="#DejaVuSans-72" transform="translate(1240.763672 0)"/>
     <use xlink:href="#DejaVuSans-69" transform="translate(1281.876953 0)"/>
     <use xlink:href="#DejaVuSans-6e" transform="translate(1309.660156 0)"/>
     <use xlink:href="#DejaVuSans-63" transform="translate(1373.039062 0)"/>
     <use xlink:href="#DejaVuSans-69" transform="translate(1428.019531 0)"/>
     <use xlink:href="#DejaVuSans-70" transform="translate(1455.802734 0)"/>
     <use xlink:href="#DejaVuSans-61" transform="translate(1519.279297 0)"/>
     <use xlink:href="#DejaVuSans-6c" transform="translate(1580.558594 0)"/>
     <use xlink:href="#DejaVuSans-65" transform="translate(1608.341797 0)"/>
     <use xlink:href="#DejaVuSans-73" transform="translate(1669.865234 0)"/>
     <use xlink:href="#DejaVuSans-20" transform="translate(1721.964844 0)"/>
     <use xlink:href="#DejaVuSans-68" transform="translate(1753.751953 0)"/>
     <use xlink:href="#DejaVuSans-61" transform="translate(1817.130859 0)"/>
     <use xlink:href="#DejaVuSans-63" transform="translate(1878.410156 0)"/>
     <use xlink:href="#DejaVuSans-69" transform="translate(1933.390625 0)"/>
     <use xlink:href="#DejaVuSans-61" transform="translate(1961.173828 0)"/>
     <use xlink:href="#DejaVuSans-20" transform="translate(2022.453125 0)"/>
     <use xlink:href="#DejaVuSans-65" transform="translate(2054.240234 0)"/>
     <use xlink:href="#DejaVuSans-6c" transform="translate(2115.763672 0)"/>
     <use xlink:href="#DejaVuSans-20" transform="translate(2143.546875 0)"/>
     <use xlink:href="#DejaVuSans-63" transform="translate(2175.333984 0)"/>
     <use xlink:href="#DejaVuSans-61" transform="translate(2230.314453 0)"/>
     <use xlink:href="#DejaVuSans-73" transform="translate(2291.59375 0)"/>
     <use xlink:href="#DejaVuSans-6f" transform="translate(2343.693359 0)"/>
     <use xlink:href="#DejaVuSans-20" transform="translate(2404.875 0)"/>
     <use xlink:href="#DejaVuSans-66" transform="translate(2436.662109 0)"/>
     <use xlink:href="#DejaVuSans-69" transform="translate(2471.867188 0)"/>
     <use xlink:href="#DejaVuSans-6e" transform="translate(2499.650391 0)"/>
     <use xlink:href="#DejaVuSans-6f" transform="translate(2563.029297 0)"/>
    </g>
   </g>
   <g id="legend_1">
    <g id="line2d_36">
     <path d="M 315.810312 32.357031 
L 323.810312 32.357031 
L 331.810312 32.357031 
" style="fill: none; stroke: #1f77b4; stroke-width: 1.6; stroke-linecap: square"/>
     <g>
      <use xlink:href="#m9fa332361f" x="323.810312" y="32.357031" style="fill: #1f77b4; stroke: #1f77b4"/>
     </g>
    </g>
    <g id="text_24">
     <!-- Desplazamiento máximo -->
     <g transform="translate(338.210312 35.157031) scale(0.08 -0.08)">
      <defs>
       <path id="DejaVuSans-44" d="M 1259 4147 
L 1259 519 
L 2022 519 
Q 2988 519 3436 956 
Q 3884 1394 3884 2338 
Q 3884 3275 3436 3711 
Q 2988 4147 2022 4147 
L 1259 4147 
z
M 628 4666 
L 1925 4666 
Q 3281 4666 3915 4102 
Q 4550 3538 4550 2338 
Q 4550 1131 3912 565 
Q 3275 0 1925 0 
L 628 0 
L 628 4666 
z
" transform="scale(0.015625)"/>
       <path id="DejaVuSans-7a" d="M 353 3500 
L 3084 3500 
L 3084 2975 
L 922 459 
L 3084 459 
L 3084 0 
L 275 0 
L 275 525 
L 2438 3041 
L 353 3041 
L 353 3500 
z
" transform="scale(0.015625)"/>
      </defs>
      <use xlink:href="#DejaVuSans-44"/>
      <use xlink:href="#DejaVuSans-65" transform="translate(77.001953 0)"/>
      <use xlink:href="#DejaVuSans-73" transform="translate(138.525391 0)"/>
      <use xlink:href="#DejaVuSans-70" transform="translate(190.625 0)"/>
      <use xlink:href="#DejaVuSans-6c" transform="translate(254.101562 0)"/>
      <use xlink:href="#DejaVuSans-61" transform="translate(281.884766 0)"/>
      <use xlink:href="#DejaVuSans-7a" transform="translate(343.164062 0)"/>
      <use xlink:href="#DejaVuSans-61" transform="translate(395.654297 0)"/>
      <use xlink:href="#DejaVuSans-6d" transform="translate(456.933594 0)"/>
      <use xlink:href="#DejaVuSans-69" transform="translate(554.345703 0)"/>
      <use xlink:href="#DejaVuSans-65" transform="translate(582.128906 0)"/>
      <use xlink:href="#DejaVuSans-6e" transform="translate(643.652344 0)"/>
      <use xlink:href="#DejaVuSans-74" transform="translate(707.03125 0)"/>
      <use xlink:href="#DejaVuSans-6f" transform="translate(746.240234 0)"/>
      <use xlink:href="#DejaVuSans-20" transform="translate(807.421875 0)"/>
      <use xlink:href="#DejaVuSans-6d" transform="translate(839.208984 0)"/>
      <use xlink:href="#DejaVuSans-e1" transform="translate(936.621094 0)"/>
      <use xlink:href="#DejaVuSans-78" transform="translate(997.900391 0)"/>
      <use xlink:href="#DejaVuSans-69" transform="translate(1057.080078 0)"/>
      <use xlink:href="#DejaVuSans-6d" transform="translate(1084.863281 0)"/>
      <use xlink:href="#DejaVuSans-6f" transform="translate(1182.275391 0)"/>
     </g>
    </g>
    <g id="line2d_37">
     <path d="M 315.810312 44.419531 
L 323.810312 44.419531 
L 331.810312 44.419531 
" style="fill: none; stroke: #ff7f0e; stroke-width: 1.6; stroke-linecap: square"/>
     <g>
      <use xlink:href="#md3933f65a6" x="323.810312" y="44.419531" style="fill: #ff7f0e; stroke: #ff7f0e"/>
     </g>
    </g>
    <g id="text_25">
     <!-- Velocidad bloque máx. -->
     <g transform="translate(338.210312 47.219531) scale(0.08 -0.08)">
      <defs>
       <path id="DejaVuSans-56" d="M 1831 0 
L 50 4666 
L 709 4666 
L 2188 738 
L 3669 4666 
L 4325 4666 
L 2547 0 
L 1831 0 
z
" transform="scale(0.015625)"/>
       <path id="DejaVuSans-71" d="M 947 1747 
Q 947 1113 1208 752 
Q 1469 391 1925 391 
Q 2381 391 2643 752 
Q 2906 1113 2906 1747 
Q 2906 2381 2643 2742 
Q 2381 3103 1925 3103 
Q 1469 3103 1208 2742 
Q 947 2381 947 1747 
z
M 2906 525 
Q 2725 213 2448 61 
Q 2172 -91 1784 -91 
Q 1150 -91 751 415 
Q 353 922 353 1747 
Q 353 2572 751 3078 
Q 1150 3584 1784 3584 
Q 2172 3584 2448 3432 
Q 2725 3281 2906 2969 
L 2906 3500 
L 3481 3500 
L 3481 -1331 
L 2906 -1331 
L 2906 525 
z
" transform="scale(0.015625)"/>
       <path id="DejaVuSans-75" d="M 544 1381 
L 544 3500 
L 1119 3500 
L 1119 1403 
Q 1119 906 1312 657 
Q 1506 409 1894 409 
Q 2359 409 2629 706 
Q 2900 1003 2900 1516 
L 2900 3500 
L 3475 3500 
L 3475 0 
L 2900 0 
L 2900 538 
Q 2691 219 2414 64 
Q 2138 -91 1772 -91 
Q 1169 -91 856 284 
Q 544 659 544 1381 
z
M 1991 3584 
L 1991 3584 
z
" transform="scale(0.015625)"/>
      </defs>
      <use xlink:href="#DejaVuSans-56"/>
      <use xlink:href="#DejaVuSans-65" transform="translate(60.658203 0)"/>
      <use xlink:href="#DejaVuSans-6c" transform="translate(122.181641 0)"/>
      <use xlink:href="#DejaVuSans-6f" transform="translate(149.964844 0)"/>
      <use xlink:href="#DejaVuSans-63" transform="translate(211.146484 0)"/>
      <use xlink:href="#DejaVuSans-69" transform="translate(266.126953 0)"/>
      <use xlink:href="#DejaVuSans-64" transform="translate(293.910156 0)"/>
      <use xlink:href="#DejaVuSans-61" transform="translate(357.386719 0)"/>
      <use xlink:href="#DejaVuSans-64" transform="translate(418.666016 0)"/>
      <use xlink:href="#DejaVuSans-20" transform="translate(482.142578 0)"/>
      <use xlink:href="#DejaVuSans-62" transform="translate(513.929688 0)"/>
      <use xlink:href="#DejaVuSans-6c" transform="translate(577.40625 0)"/>
      <use xlink:href="#DejaVuSans-6f" transform="translate(605.189453 0)"/>
      <use xlink:href="#DejaVuSans-71" transform="translate(666.371094 0)"/>
      <use xlink:href="#DejaVuSans-75" transform="translate(729.847656 0)"/>
      <use xlink:href="#DejaVuSans-65" transform="translate(793.226562 0)"/>
      <use xlink:href="#DejaVuSans-20" transform="translate(854.75 0)"/>
      <use xlink:href="#DejaVuSans-6d" transform="translate(886.537109 0)"/>
      <use xlink:href="#DejaVuSans-e1" transform="translate(983.949219 0)"/>
      <use xlink:href="#DejaVuSans-78" transform="translate(1045.228516 0)"/>
      <use xlink:href="#DejaVuSans-2e" transform="translate(1104.408203 0)"/>
     </g>
    </g>
    <g id="line2d_38">
     <path d="M 315.810312 56.482031 
L 323.810312 56.482031 
L 331.810312 56.482031 
" style="fill: none; stroke: #2ca02c; stroke-width: 1.6; stroke-linecap: square"/>
     <g>
      <use xlink:href="#m617959f9b2" x="323.810312" y="56.482031" style="fill: #2ca02c; stroke: #2ca02c"/>
     </g>
    </g>
    <g id="text_26">
     <!-- Altura/cota agua máx. -->
     <g transform="translate(338.210312 59.282031) scale(0.08 -0.08)">
      <defs>
       <path id="DejaVuSans-41" d="M 2188 4044 
L 1331 1722 
L 3047 1722 
L 2188 4044 
z
M 1831 4666 
L 2547 4666 
L 4325 0 
L 3669 0 
L 3244 1197 
L 1141 1197 
L 716 0 
L 50 0 
L 1831 4666 
z
" transform="scale(0.015625)"/>
       <path id="DejaVuSans-67" d="M 2906 1791 
Q 2906 2416 2648 2759 
Q 2391 3103 1925 3103 
Q 1463 3103 1205 2759 
Q 947 2416 947 1791 
Q 947 1169 1205 825 
Q 1463 481 1925 481 
Q 2391 481 2648 825 
Q 2906 1169 2906 1791 
z
M 3481 434 
Q 3481 -459 3084 -895 
Q 2688 -1331 1869 -1331 
Q 1566 -1331 1297 -1286 
Q 1028 -1241 775 -1147 
L 775 -588 
Q 1028 -725 1275 -790 
Q 1522 -856 1778 -856 
Q 2344 -856 2625 -561 
Q 2906 -266 2906 331 
L 2906 616 
Q 2728 306 2450 153 
Q 2172 0 1784 0 
Q 1141 0 747 490 
Q 353 981 353 1791 
Q 353 2603 747 3093 
Q 1141 3584 1784 3584 
Q 2172 3584 2450 3431 
Q 2728 3278 2906 2969 
L 2906 3500 
L 3481 3500 
L 3481 434 
z
" transform="scale(0.015625)"/>
      </defs>
      <use xlink:href="#DejaVuSans-41"/>
      <use xlink:href="#DejaVuSans-6c" transform="translate(68.408203 0)"/>
      <use xlink:href="#DejaVuSans-74" transform="translate(96.191406 0)"/>
      <use xlink:href="#DejaVuSans-75" transform="translate(135.400391 0)"/>
      <use xlink:href="#DejaVuSans-72" transform="translate(198.779297 0)"/>
      <use xlink:href="#DejaVuSans-61" transform="translate(239.892578 0)"/>
      <use xlink:href="#DejaVuSans-2f" transform="translate(301.171875 0)"/>
      <use xlink:href="#DejaVuSans-63" transform="translate(334.863281 0)"/>
      <use xlink:href="#DejaVuSans-6f" transform="translate(389.84375 0)"/>
      <use xlink:href="#DejaVuSans-74" transform="translate(451.025391 0)"/>
      <use xlink:href="#DejaVuSans-61" transform="translate(490.234375 0)"/>
      <use xlink:href="#DejaVuSans-20" transform="translate(551.513672 0)"/>
      <use xlink:href="#DejaVuSans-61" transform="translate(583.300781 0)"/>
      <use xlink:href="#DejaVuSans-67" transform="translate(644.580078 0)"/>
      <use xlink:href="#DejaVuSans-75" transform="translate(708.056641 0)"/>
      <use xlink:href="#DejaVuSans-61" transform="translate(771.435547 0)"/>
      <use xlink:href="#DejaVuSans-20" transform="translate(832.714844 0)"/>
      <use xlink:href="#DejaVuSans-6d" transform="translate(864.501953 0)"/>
      <use xlink:href="#DejaVuSans-e1" transform="translate(961.914062 0)"/>
      <use xlink:href="#DejaVuSans-78" transform="translate(1023.193359 0)"/>
      <use xlink:href="#DejaVuSans-2e" transform="translate(1082.373047 0)"/>
     </g>
    </g>
    <g id="patch_10">
     <path d="M 453.686562 35.157031 
L 469.686562 35.157031 
L 469.686562 29.557031 
L 453.686562 29.557031 
z
" style="fill: #2f7d4f; opacity: 0.12; stroke: #2f7d4f; stroke-linejoin: miter"/>
    </g>
    <g id="text_27">
     <!-- ±5% del caso fino -->
     <g transform="translate(476.086562 35.157031) scale(0.08 -0.08)">
      <defs>
       <path id="DejaVuSans-b1" d="M 2944 4013 
L 2944 2803 
L 4684 2803 
L 4684 2272 
L 2944 2272 
L 2944 1063 
L 2419 1063 
L 2419 2272 
L 678 2272 
L 678 2803 
L 2419 2803 
L 2419 4013 
L 2944 4013 
z
M 678 531 
L 4684 531 
L 4684 0 
L 678 0 
L 678 531 
z
" transform="scale(0.015625)"/>
      </defs>
      <use xlink:href="#DejaVuSans-b1"/>
      <use xlink:href="#DejaVuSans-35" transform="translate(83.789062 0)"/>
      <use xlink:href="#DejaVuSans-25" transform="translate(147.412109 0)"/>
      <use xlink:href="#DejaVuSans-20" transform="translate(242.431641 0)"/>
      <use xlink:href="#DejaVuSans-64" transform="translate(274.21875 0)"/>
      <use xlink:href="#DejaVuSans-65" transform="translate(337.695312 0)"/>
      <use xlink:href="#DejaVuSans-6c" transform="translate(399.21875 0)"/>
      <use xlink:href="#DejaVuSans-20" transform="translate(427.001953 0)"/>
      <use xlink:href="#DejaVuSans-63" transform="translate(458.789062 0)"/>
      <use xlink:href="#DejaVuSans-61" transform="translate(513.769531 0)"/>
      <use xlink:href="#DejaVuSans-73" transform="translate(575.048828 0)"/>
      <use xlink:href="#DejaVuSans-6f" transform="translate(627.148438 0)"/>
      <use xlink:href="#DejaVuSans-20" transform="translate(688.330078 0)"/>
      <use xlink:href="#DejaVuSans-66" transform="translate(720.117188 0)"/>
      <use xlink:href="#DejaVuSans-69" transform="translate(755.322266 0)"/>
      <use xlink:href="#DejaVuSans-6e" transform="translate(783.105469 0)"/>
      <use xlink:href="#DejaVuSans-6f" transform="translate(846.484375 0)"/>
     </g>
    </g>
    <g id="patch_11">
     <path d="M 453.686562 46.899531 
L 469.686562 46.899531 
L 469.686562 41.299531 
L 453.686562 41.299531 
z
" style="fill: #b98524; opacity: 0.08; stroke: #b98524; stroke-linejoin: miter"/>
    </g>
    <g id="text_28">
     <!-- zona cercana -->
     <g transform="translate(476.086562 46.899531) scale(0.08 -0.08)">
      <use xlink:href="#DejaVuSans-7a"/>
      <use xlink:href="#DejaVuSans-6f" transform="translate(52.490234 0)"/>
      <use xlink:href="#DejaVuSans-6e" transform="translate(113.671875 0)"/>
      <use xlink:href="#DejaVuSans-61" transform="translate(177.050781 0)"/>
      <use xlink:href="#DejaVuSans-20" transform="translate(238.330078 0)"/>
      <use xlink:href="#DejaVuSans-63" transform="translate(270.117188 0)"/>
      <use xlink:href="#DejaVuSans-65" transform="translate(325.097656 0)"/>
      <use xlink:href="#DejaVuSans-72" transform="translate(386.621094 0)"/>
      <use xlink:href="#DejaVuSans-63" transform="translate(425.484375 0)"/>
      <use xlink:href="#DejaVuSans-61" transform="translate(480.464844 0)"/>
      <use xlink:href="#DejaVuSans-6e" transform="translate(541.744141 0)"/>
      <use xlink:href="#DejaVuSans-61" transform="translate(605.123047 0)"/>
     </g>
    </g>
   </g>
  </g>
 </g>
 <defs>
  <clipPath id="pc1222255cf">
   <rect x="42.540313" y="21.558281" width="513.36" height="266.112"/>
  </clipPath>
 </defs>
</svg>
