<?xml version="1.0" encoding="utf-8" standalone="no"?>
<!DOCTYPE svg PUBLIC "-//W3C//DTD SVG 1.1//EN"
  "http://www.w3.org/Graphics/SVG/1.1/DTD/svg11.dtd">
<svg xmlns:xlink="http://www.w3.org/1999/xlink" width="908.39952pt" height="345.59976pt" viewBox="0 0 908.39952 345.59976" xmlns="http://www.w3.org/2000/svg" version="1.1">
 <metadata>
  <rdf:RDF xmlns:dc="http://purl.org/dc/elements/1.1/" xmlns:cc="http://creativecommons.org/ns#" xmlns:rdf="http://www.w3.org/1999/02/22-rdf-syntax-ns#">
   <cc:Work>
    <dc:type rdf:resource="http://purl.org/dc/dcmitype/StillImage"/>
    <dc:date>2026-05-14T23:29:56.623051</dc:date>
    <dc:format>image/svg+xml</dc:format>
    <dc:creator>
     <cc:Agent>
      <dc:title>Matplotlib v3.10.8, https://matplotlib.org/</dc:title>
     </cc:Agent>
    </dc:creator>
   </cc:Work>
  </rdf:RDF>
 </metadata>
 <defs>
  <style type="text/css">*{stroke-linejoin: round; stroke-linecap: butt}</style>
 </defs>
 <g id="figure_1">
  <g id="patch_1">
   <path d="M 0 345.59976 
L 908.39952 345.59976 
L 908.39952 0 
L 0 0 
z
" style="fill: #ffffff"/>
  </g>
  <g id="axes_1">
   <g id="patch_2">
    <path d="M 63.633813 288.78029 
L 448.060991 288.78029 
L 448.060991 28.541786 
L 63.633813 28.541786 
z
" style="fill: #ffffff"/>
   </g>
   <g id="PathCollection_1">
    <path d="M 85.676479 287.520975 
C 86.615759 287.520975 87.516695 287.147795 88.180866 286.483624 
C 88.845037 285.819453 89.218217 284.918517 89.218217 283.979238 
C 89.218217 283.039958 88.845037 282.139022 88.180866 281.474851 
C 87.516695 280.81068 86.615759 280.437501 85.676479 280.437501 
C 84.7372 280.437501 83.836264 280.81068 83.172093 281.474851 
C 82.507922 282.139022 82.134742 283.039958 82.134742 283.979238 
C 82.134742 284.918517 82.507922 285.819453 83.172093 286.483624 
C 83.836264 287.147795 84.7372 287.520975 85.676479 287.520975 
z
" clip-path="url(#p75223f4f5b)" style="fill: #d55e00; fill-opacity: 0.88; stroke: #222222; stroke-opacity: 0.88; stroke-width: 0.7"/>
    <path d="M 96.118654 287.522952 
C 97.057895 287.522952 97.958794 287.149788 98.622937 286.485644 
C 99.287081 285.821501 99.660245 284.920602 99.660245 283.981361 
C 99.660245 283.04212 99.287081 282.141222 98.622937 281.477078 
C 97.958794 280.812935 97.057895 280.439771 96.118654 280.439771 
C 95.179413 280.439771 94.278515 280.812935 93.614371 281.477078 
C 92.950228 282.141222 92.577063 283.04212 92.577063 283.981361 
C 92.577063 284.920602 92.950228 285.821501 93.614371 286.485644 
C 94.278515 287.149788 95.179413 287.522952 96.118654 287.522952 
z
" clip-path="url(#p75223f4f5b)" style="fill: #009e73; fill-opacity: 0.88; stroke: #222222; stroke-opacity: 0.88; stroke-width: 0.7"/>
    <path d="M 94.075239 287.522952 
C 95.01448 287.522952 95.915378 287.149788 96.579522 286.485644 
C 97.243666 285.821501 97.61683 284.920602 97.61683 283.981361 
C 97.61683 283.04212 97.243666 282.141222 96.579522 281.477078 
C 95.915378 280.812935 95.01448 280.439771 94.075239 280.439771 
C 93.135998 280.439771 92.2351 280.812935 91.570956 281.477078 
C 90.906813 282.141222 90.533648 283.04212 90.533648 283.981361 
C 90.533648 284.920602 90.906813 285.821501 91.570956 286.485644 
C 92.2351 287.149788 93.135998 287.522952 94.075239 287.522952 
z
" clip-path="url(#p75223f4f5b)" style="fill: #cc79a7; fill-opacity: 0.88; stroke: #222222; stroke-opacity: 0.88; stroke-width: 0.7"/>
    <path d="M 106.905217 286.013643 
C 107.873604 286.013643 108.802458 285.628899 109.48721 284.944146 
C 110.171963 284.259394 110.556706 283.33054 110.556706 282.362153 
C 110.556706 281.393767 110.171963 280.464913 109.48721 279.780161 
C 108.802458 279.095408 107.873604 278.710664 106.905217 278.710664 
C 105.936831 278.710664 105.007977 279.095408 104.323225 279.780161 
C 103.638472 280.464913 103.253728 281.393767 103.253728 282.362153 
C 103.253728 283.33054 103.638472 284.259394 104.323225 284.944146 
C 105.007977 285.628899 105.936831 286.013643 106.905217 286.013643 
z
" clip-path="url(#p75223f4f5b)" style="fill: #0072b2; fill-opacity: 0.88; stroke: #222222; stroke-opacity: 0.88; stroke-width: 0.7"/>
    <path d="M 107.147165 287.520521 
C 108.086454 287.520521 108.987398 287.147337 109.651575 286.48316 
C 110.315753 285.818983 110.688936 284.918038 110.688936 283.97875 
C 110.688936 283.039461 110.315753 282.138517 109.651575 281.47434 
C 108.987398 280.810162 108.086454 280.436979 107.147165 280.436979 
C 106.207877 280.436979 105.306932 280.810162 104.642755 281.47434 
C 103.978578 282.138517 103.605394 283.039461 103.605394 283.97875 
C 103.605394 284.918038 103.978578 285.818983 104.642755 286.48316 
C 105.306932 287.147337 106.207877 287.520521 107.147165 287.520521 
z
" clip-path="url(#p75223f4f5b)" style="fill: #009e73; fill-opacity: 0.88; stroke: #222222; stroke-opacity: 0.88; stroke-width: 0.7"/>
    <path d="M 117.393895 287.398564 
C 118.335574 287.398564 119.238812 287.024431 119.90468 286.358563 
C 120.570548 285.692695 120.944681 284.789458 120.944681 283.847778 
C 120.944681 282.906099 120.570548 282.002861 119.90468 281.336993 
C 119.238812 280.671125 118.335574 280.296992 117.393895 280.296992 
C 116.452215 280.296992 115.548978 280.671125 114.88311 281.336993 
C 114.217242 282.002861 113.843109 282.906099 113.843109 283.847778 
C 113.843109 284.789458 114.217242 285.692695 114.88311 286.358563 
C 115.548978 287.024431 116.452215 287.398564 117.393895 287.398564 
z
" clip-path="url(#p75223f4f5b)" style="fill: #009e73; fill-opacity: 0.88; stroke: #222222; stroke-opacity: 0.88; stroke-width: 0.7"/>
    <path d="M 117.207885 287.453605 
C 118.148486 287.453605 119.050689 287.0799 119.715795 286.414794 
C 120.3809 285.749689 120.754605 284.847485 120.754605 283.906884 
C 120.754605 282.966283 120.3809 282.06408 119.715795 281.398974 
C 119.050689 280.733869 118.148486 280.360164 117.207885 280.360164 
C 116.267283 280.360164 115.36508 280.733869 114.699975 281.398974 
C 114.034869 282.06408 113.661164 282.966283 113.661164 283.906884 
C 113.661164 284.847485 114.034869 285.749689 114.699975 286.414794 
C 115.36508 287.0799 116.267283 287.453605 117.207885 287.453605 
z
" clip-path="url(#p75223f4f5b)" style="fill: #cc79a7; fill-opacity: 0.88; stroke: #222222; stroke-opacity: 0.88; stroke-width: 0.7"/>
    <path d="M 81.107775 287.520623 
C 82.047062 287.520623 82.948004 287.14744 83.61218 286.483264 
C 84.276356 285.819089 84.649538 284.918146 84.649538 283.97886 
C 84.649538 283.039573 84.276356 282.138631 83.61218 281.474455 
C 82.948004 280.810279 82.047062 280.437096 81.107775 280.437096 
C 80.168489 280.437096 79.267546 280.810279 78.60337 281.474455 
C 77.939194 282.138631 77.566012 283.039573 77.566012 283.97886 
C 77.566012 284.918146 77.939194 285.819089 78.60337 286.483264 
C 79.267546 287.14744 80.168489 287.520623 81.107775 287.520623 
z
" clip-path="url(#p75223f4f5b)" style="fill: #0072b2; fill-opacity: 0.88; stroke: #222222; stroke-opacity: 0.88; stroke-width: 0.7"/>
    <path d="M 430.587028 286.974811 
C 431.536965 286.974811 432.448122 286.597397 433.119829 285.92569 
C 433.791536 285.253984 434.16895 284.342826 434.16895 283.392889 
C 434.16895 282.442953 433.791536 281.531795 433.119829 280.860088 
C 432.448122 280.188382 431.536965 279.810968 430.587028 279.810968 
C 429.637092 279.810968 428.725934 280.188382 428.054227 280.860088 
C 427.382521 281.531795 427.005107 282.442953 427.005107 283.392889 
C 427.005107 284.342826 427.382521 285.253984 428.054227 285.92569 
C 428.725934 286.597397 429.637092 286.974811 430.587028 286.974811 
z
" clip-path="url(#p75223f4f5b)" style="fill: #0072b2; fill-opacity: 0.88; stroke: #222222; stroke-opacity: 0.88; stroke-width: 0.7"/>
    <path d="M 404.653448 287.143921 
C 405.600099 287.143921 406.508105 286.767812 407.177488 286.098429 
C 407.846871 285.429046 408.222979 284.52104 408.222979 283.57439 
C 408.222979 282.627739 407.846871 281.719733 407.177488 281.05035 
C 406.508105 280.380967 405.600099 280.004859 404.653448 280.004859 
C 403.706797 280.004859 402.798792 280.380967 402.129409 281.05035 
C 401.460025 281.719733 401.083917 282.627739 401.083917 283.57439 
C 401.083917 284.52104 401.460025 285.429046 402.129409 286.098429 
C 402.798792 286.767812 403.706797 287.143921 404.653448 287.143921 
z
" clip-path="url(#p75223f4f5b)" style="fill: #0072b2; fill-opacity: 0.88; stroke: #222222; stroke-opacity: 0.88; stroke-width: 0.7"/>
    <path d="M 97.368831 282.397716 
C 98.403486 282.397716 99.395904 281.986643 100.127515 281.255031 
C 100.859127 280.52342 101.2702 279.531002 101.2702 278.496347 
C 101.2702 277.461691 100.859127 276.469274 100.127515 275.737662 
C 99.395904 275.00605 98.403486 274.594977 97.368831 274.594977 
C 96.334175 274.594977 95.341758 275.00605 94.610146 275.737662 
C 93.878534 276.469274 93.467461 277.461691 93.467461 278.496347 
C 93.467461 279.531002 93.878534 280.52342 94.610146 281.255031 
C 95.341758 281.986643 96.334175 282.397716 97.368831 282.397716 
z
" clip-path="url(#p75223f4f5b)" style="fill: #0072b2; fill-opacity: 0.88; stroke: #222222; stroke-opacity: 0.88; stroke-width: 0.7"/>
    <path d="M 94.972266 285.355674 
C 95.953068 285.355674 96.89383 284.965997 97.587362 284.272466 
C 98.280893 283.578934 98.67057 282.638172 98.67057 281.65737 
C 98.67057 280.676568 98.280893 279.735806 97.587362 279.042274 
C 96.89383 278.348743 95.953068 277.959066 94.972266 277.959066 
C 93.991464 277.959066 93.050702 278.348743 92.35717 279.042274 
C 91.663639 279.735806 91.273962 280.676568 91.273962 281.65737 
C 91.273962 282.638172 91.663639 283.578934 92.35717 284.272466 
C 93.050702 284.965997 93.991464 285.355674 94.972266 285.355674 
z
" clip-path="url(#p75223f4f5b)" style="fill: #0072b2; fill-opacity: 0.88; stroke: #222222; stroke-opacity: 0.88; stroke-width: 0.7"/>
    <path d="M 89.00916 287.521021 
C 89.948439 287.521021 90.849374 287.147842 91.513544 286.483671 
C 92.177714 285.819501 92.550894 284.918566 92.550894 283.979287 
C 92.550894 283.040008 92.177714 282.139074 91.513544 281.474903 
C 90.849374 280.810733 89.948439 280.437553 89.00916 280.437553 
C 88.069881 280.437553 87.168946 280.810733 86.504776 281.474903 
C 85.840606 282.139074 85.467426 283.040008 85.467426 283.979287 
C 85.467426 284.918566 85.840606 285.819501 86.504776 286.483671 
C 87.168946 287.147842 88.069881 287.521021 89.00916 287.521021 
z
" clip-path="url(#p75223f4f5b)" style="fill: #0072b2; fill-opacity: 0.88; stroke: #222222; stroke-opacity: 0.88; stroke-width: 0.7"/>
    <path d="M 85.237064 287.520927 
C 86.176345 287.520927 87.077281 287.147747 87.741453 286.483576 
C 88.405625 285.819404 88.778805 284.918467 88.778805 283.979187 
C 88.778805 283.039906 88.405625 282.13897 87.741453 281.474798 
C 87.077281 280.810626 86.176345 280.437446 85.237064 280.437446 
C 84.297784 280.437446 83.396847 280.810626 82.732675 281.474798 
C 82.068504 282.13897 81.695324 283.039906 81.695324 283.979187 
C 81.695324 284.918467 82.068504 285.819404 82.732675 286.483576 
C 83.396847 287.147747 84.297784 287.520927 85.237064 287.520927 
z
" clip-path="url(#p75223f4f5b)" style="fill: #0072b2; fill-opacity: 0.88; stroke: #222222; stroke-opacity: 0.88; stroke-width: 0.7"/>
    <path d="M 83.122884 287.520623 
C 84.062171 287.520623 84.963113 287.14744 85.627289 286.483264 
C 86.291465 285.819089 86.664648 284.918146 86.664648 283.97886 
C 86.664648 283.039573 86.291465 282.138631 85.627289 281.474455 
C 84.963113 280.810279 84.062171 280.437096 83.122884 280.437096 
C 82.183598 280.437096 81.282656 280.810279 80.61848 281.474455 
C 79.954304 282.138631 79.581121 283.039573 79.581121 283.97886 
C 79.581121 284.918146 79.954304 285.819089 80.61848 286.483264 
C 81.282656 287.14744 82.183598 287.520623 83.122884 287.520623 
z
" clip-path="url(#p75223f4f5b)" style="fill: #0072b2; fill-opacity: 0.88; stroke: #222222; stroke-opacity: 0.88; stroke-width: 0.7"/>
    <path d="M 95.461553 281.451839 
C 96.512809 281.451839 97.52115 281.03417 98.264501 280.29082 
C 99.007851 279.54747 99.425519 278.539129 99.425519 277.487873 
C 99.425519 276.436617 99.007851 275.428276 98.264501 274.684926 
C 97.52115 273.941575 96.512809 273.523907 95.461553 273.523907 
C 94.410297 273.523907 93.401957 273.941575 92.658606 274.684926 
C 91.915256 275.428276 91.497587 276.436617 91.497587 277.487873 
C 91.497587 278.539129 91.915256 279.54747 92.658606 280.29082 
C 93.401957 281.03417 94.410297 281.451839 95.461553 281.451839 
z
" clip-path="url(#p75223f4f5b)" style="fill: #0072b2; fill-opacity: 0.88; stroke: #222222; stroke-opacity: 0.88; stroke-width: 0.7"/>
    <path d="M 84.137179 287.520927 
C 85.076459 287.520927 85.977396 287.147747 86.641567 286.483576 
C 87.305739 285.819404 87.678919 284.918467 87.678919 283.979187 
C 87.678919 283.039906 87.305739 282.13897 86.641567 281.474798 
C 85.977396 280.810626 85.076459 280.437446 84.137179 280.437446 
C 83.197898 280.437446 82.296961 280.810626 81.63279 281.474798 
C 80.968618 282.13897 80.595438 283.039906 80.595438 283.979187 
C 80.595438 284.918467 80.968618 285.819404 81.63279 286.483576 
C 82.296961 287.147747 83.197898 287.520927 84.137179 287.520927 
z
" clip-path="url(#p75223f4f5b)" style="fill: #009e73; fill-opacity: 0.88; stroke: #222222; stroke-opacity: 0.88; stroke-width: 0.7"/>
    <path d="M 97.815659 281.395735 
C 98.867891 281.395735 99.877168 280.977679 100.621208 280.233639 
C 101.365249 279.489598 101.783305 278.480321 101.783305 277.428089 
C 101.783305 276.375857 101.365249 275.366581 100.621208 274.62254 
C 99.877168 273.8785 98.867891 273.460444 97.815659 273.460444 
C 96.763427 273.460444 95.75415 273.8785 95.01011 274.62254 
C 94.26607 275.366581 93.848014 276.375857 93.848014 277.428089 
C 93.848014 278.480321 94.26607 279.489598 95.01011 280.233639 
C 95.75415 280.977679 96.763427 281.395735 97.815659 281.395735 
z
" clip-path="url(#p75223f4f5b)" style="fill: #0072b2; fill-opacity: 0.88; stroke: #222222; stroke-opacity: 0.88; stroke-width: 0.7"/>
    <path d="M 97.443639 287.5226 
C 98.382887 287.5226 99.283792 287.149433 99.94794 286.485284 
C 100.612089 285.821136 100.985256 284.920231 100.985256 283.980983 
C 100.985256 283.041735 100.612089 282.14083 99.94794 281.476682 
C 99.283792 280.812533 98.382887 280.439366 97.443639 280.439366 
C 96.504391 280.439366 95.603486 280.812533 94.939338 281.476682 
C 94.275189 282.14083 93.902022 283.041735 93.902022 283.980983 
C 93.902022 284.920231 94.275189 285.821136 94.939338 286.485284 
C 95.603486 287.149433 96.504391 287.5226 97.443639 287.5226 
z
" clip-path="url(#p75223f4f5b)" style="fill: #009e73; fill-opacity: 0.88; stroke: #222222; stroke-opacity: 0.88; stroke-width: 0.7"/>
    <path d="M 99.900859 287.5226 
C 100.840107 287.5226 101.741012 287.149433 102.405161 286.485284 
C 103.069309 285.821136 103.442476 284.920231 103.442476 283.980983 
C 103.442476 283.041735 103.069309 282.14083 102.405161 281.476682 
C 101.741012 280.812533 100.840107 280.439366 99.900859 280.439366 
C 98.961612 280.439366 98.060706 280.812533 97.396558 281.476682 
C 96.732409 282.14083 96.359242 283.041735 96.359242 283.980983 
C 96.359242 284.920231 96.732409 285.821136 97.396558 286.485284 
C 98.060706 287.149433 98.961612 287.5226 99.900859 287.5226 
z
" clip-path="url(#p75223f4f5b)" style="fill: #cc79a7; fill-opacity: 0.88; stroke: #222222; stroke-opacity: 0.88; stroke-width: 0.7"/>
    <path d="M 107.209843 287.520263 
C 108.149136 287.520263 109.050085 287.147078 109.714266 286.482897 
C 110.378447 285.818716 110.751633 284.917767 110.751633 283.978473 
C 110.751633 283.039179 110.378447 282.13823 109.714266 281.474049 
C 109.050085 280.809868 108.149136 280.436683 107.209843 280.436683 
C 106.270549 280.436683 105.3696 280.809868 104.705419 281.474049 
C 104.041238 282.13823 103.668053 283.039179 103.668053 283.978473 
C 103.668053 284.917767 104.041238 285.818716 104.705419 286.482897 
C 105.3696 287.147078 106.270549 287.520263 107.209843 287.520263 
z
" clip-path="url(#p75223f4f5b)" style="fill: #009e73; fill-opacity: 0.88; stroke: #222222; stroke-opacity: 0.88; stroke-width: 0.7"/>
    <path d="M 112.090585 287.518124 
C 113.029921 287.518124 113.93091 287.144922 114.595121 286.480712 
C 115.259332 285.816501 115.632534 284.915512 115.632534 283.976176 
C 115.632534 283.036841 115.259332 282.135851 114.595121 281.471641 
C 113.93091 280.80743 113.029921 280.434228 112.090585 280.434228 
C 111.15125 280.434228 110.25026 280.80743 109.58605 281.471641 
C 108.921839 282.135851 108.548637 283.036841 108.548637 283.976176 
C 108.548637 284.915512 108.921839 285.816501 109.58605 286.480712 
C 110.25026 287.144922 111.15125 287.518124 112.090585 287.518124 
z
" clip-path="url(#p75223f4f5b)" style="fill: #cc79a7; fill-opacity: 0.88; stroke: #222222; stroke-opacity: 0.88; stroke-width: 0.7"/>
    <path d="M 425.761549 287.144465 
C 426.708189 287.144465 427.616185 286.768361 428.285561 286.098985 
C 428.954936 285.429609 429.33104 284.521614 429.33104 283.574974 
C 429.33104 282.628334 428.954936 281.720338 428.285561 281.050962 
C 427.616185 280.381587 426.708189 280.005483 425.761549 280.005483 
C 424.814909 280.005483 423.906913 280.381587 423.237538 281.050962 
C 422.568162 281.720338 422.192058 282.628334 422.192058 283.574974 
C 422.192058 284.521614 422.568162 285.429609 423.237538 286.098985 
C 423.906913 286.768361 424.814909 287.144465 425.761549 287.144465 
z
" clip-path="url(#p75223f4f5b)" style="fill: #0072b2; fill-opacity: 0.88; stroke: #222222; stroke-opacity: 0.88; stroke-width: 0.7"/>
    <path d="M 94.423671 287.522239 
C 95.362926 287.522239 96.263838 287.149069 96.927991 286.484915 
C 97.592145 285.820762 97.965315 284.91985 97.965315 283.980595 
C 97.965315 283.04134 97.592145 282.140428 96.927991 281.476275 
C 96.263838 280.812121 95.362926 280.438951 94.423671 280.438951 
C 93.484416 280.438951 92.583504 280.812121 91.919351 281.476275 
C 91.255197 282.140428 90.882027 283.04134 90.882027 283.980595 
C 90.882027 284.91985 91.255197 285.820762 91.919351 286.484915 
C 92.583504 287.149069 93.484416 287.522239 94.423671 287.522239 
z
" clip-path="url(#p75223f4f5b)" style="fill: #0072b2; fill-opacity: 0.88; stroke: #222222; stroke-opacity: 0.88; stroke-width: 0.7"/>
   </g>
   <g id="PathCollection_2">
    <path d="M 93.15732 265.807463 
L 88.767304 274.587495 
L 97.547336 274.587495 
z
" clip-path="url(#p75223f4f5b)" style="fill: #d55e00; fill-opacity: 0.88; stroke: #222222; stroke-opacity: 0.88; stroke-width: 0.7"/>
    <path d="M 98.747732 269.557762 
L 94.559664 277.933898 
L 102.9358 277.933898 
z
" clip-path="url(#p75223f4f5b)" style="fill: #0072b2; fill-opacity: 0.88; stroke: #222222; stroke-opacity: 0.88; stroke-width: 0.7"/>
    <path d="M 136.99774 40.000598 
L 129.700481 54.595117 
L 144.295 54.595117 
z
" clip-path="url(#p75223f4f5b)" style="fill: #0072b2; fill-opacity: 0.88; stroke: #222222; stroke-opacity: 0.88; stroke-width: 0.7"/>
    <path d="M 131.267147 144.110889 
L 123.969887 158.705408 
L 138.564407 158.705408 
z
" clip-path="url(#p75223f4f5b)" style="fill: #0072b2; fill-opacity: 0.88; stroke: #222222; stroke-opacity: 0.88; stroke-width: 0.7"/>
    <path d="M 98.25777 268.31881 
L 94.001984 276.830382 
L 102.513557 276.830382 
z
" clip-path="url(#p75223f4f5b)" style="fill: #0072b2; fill-opacity: 0.88; stroke: #222222; stroke-opacity: 0.88; stroke-width: 0.7"/>
    <path d="M 102.51511 264.792455 
L 98.071933 273.678808 
L 106.958287 273.678808 
z
" clip-path="url(#p75223f4f5b)" style="fill: #0072b2; fill-opacity: 0.88; stroke: #222222; stroke-opacity: 0.88; stroke-width: 0.7"/>
    <path d="M 108.316468 229.079588 
L 102.283165 241.146194 
L 114.349771 241.146194 
z
" clip-path="url(#p75223f4f5b)" style="fill: #0072b2; fill-opacity: 0.88; stroke: #222222; stroke-opacity: 0.88; stroke-width: 0.7"/>
    <path d="M 106.326295 263.728505 
L 101.828033 272.725027 
L 110.824556 272.725027 
z
" clip-path="url(#p75223f4f5b)" style="fill: #0072b2; fill-opacity: 0.88; stroke: #222222; stroke-opacity: 0.88; stroke-width: 0.7"/>
    <path d="M 130.49817 183.030432 
L 123.200911 197.624952 
L 137.79543 197.624952 
z
" clip-path="url(#p75223f4f5b)" style="fill: #0072b2; fill-opacity: 0.88; stroke: #222222; stroke-opacity: 0.88; stroke-width: 0.7"/>
    <path d="M 124.619308 225.112693 
L 118.433599 237.484113 
L 130.805018 237.484113 
z
" clip-path="url(#p75223f4f5b)" style="fill: #0072b2; fill-opacity: 0.88; stroke: #222222; stroke-opacity: 0.88; stroke-width: 0.7"/>
    <path d="M 85.650869 270.765225 
L 81.529809 279.007345 
L 89.771929 279.007345 
z
" clip-path="url(#p75223f4f5b)" style="fill: #d55e00; fill-opacity: 0.88; stroke: #222222; stroke-opacity: 0.88; stroke-width: 0.7"/>
    <path d="M 95.595669 171.506761 
L 88.29841 186.101281 
L 102.892929 186.101281 
z
" clip-path="url(#p75223f4f5b)" style="fill: #d55e00; fill-opacity: 0.88; stroke: #222222; stroke-opacity: 0.88; stroke-width: 0.7"/>
    <path d="M 110.882194 135.597196 
L 103.584934 150.191715 
L 118.179454 150.191715 
z
" clip-path="url(#p75223f4f5b)" style="fill: #d55e00; fill-opacity: 0.88; stroke: #222222; stroke-opacity: 0.88; stroke-width: 0.7"/>
    <path d="M 135.969967 50.169361 
L 128.672707 64.763881 
L 143.267227 64.763881 
z
" clip-path="url(#p75223f4f5b)" style="fill: #d55e00; fill-opacity: 0.88; stroke: #222222; stroke-opacity: 0.88; stroke-width: 0.7"/>
    <path d="M 116.291313 269.882021 
L 112.12114 278.222368 
L 120.461486 278.222368 
z
" clip-path="url(#p75223f4f5b)" style="fill: #0072b2; fill-opacity: 0.88; stroke: #222222; stroke-opacity: 0.88; stroke-width: 0.7"/>
    <path d="M 94.702012 188.185161 
L 87.404752 202.77968 
L 101.999272 202.77968 
z
" clip-path="url(#p75223f4f5b)" style="fill: #0072b2; fill-opacity: 0.88; stroke: #222222; stroke-opacity: 0.88; stroke-width: 0.7"/>
    <path d="M 95.948819 271.765933 
L 91.884082 279.895406 
L 100.013555 279.895406 
z
" clip-path="url(#p75223f4f5b)" style="fill: #0072b2; fill-opacity: 0.88; stroke: #222222; stroke-opacity: 0.88; stroke-width: 0.7"/>
    <path d="M 138.673179 -2605.959952 
L 131.375919 -2591.365432 
L 145.970439 -2591.365432 
z
" clip-path="url(#p75223f4f5b)" style="fill: #0072b2; fill-opacity: 0.88; stroke: #222222; stroke-opacity: 0.88; stroke-width: 0.7"/>
   </g>
   <g id="matplotlib.axis_1">
    <g id="xtick_1">
     <g id="line2d_1">
      <path d="M 109.652236 288.78029 
L 109.652236 28.541786 
" clip-path="url(#p75223f4f5b)" style="fill: none; stroke: #b0b0b0; stroke-opacity: 0.18; stroke-width: 0.7; stroke-linecap: square"/>
     </g>
     <g id="line2d_2">
      <defs>
       <path id="m586f7f9c87" d="M 0 0 
L 0 3.5 
" style="stroke: #333333; stroke-width: 0.8"/>
      </defs>
      <g>
       <use xlink:href="#m586f7f9c87" x="109.652236" y="288.78029" style="fill: #333333; stroke: #333333; stroke-width: 0.8"/>
      </g>
     </g>
     <g id="text_1">
      <text style="font-size: 9.2px; font-family: 'DejaVu Sans', 'Bitstream Vera Sans', 'Computer Modern Sans Serif', 'Lucida Grande', 'Verdana', 'Geneva', 'Lucid', 'Arial', 'Helvetica', 'Avant Garde', sans-serif; text-anchor: middle; fill: #333333" x="109.652236" y="302.770852" transform="rotate(-0 109.652236 302.770852)">0.07</text>
     </g>
    </g>
    <g id="xtick_2">
     <g id="line2d_3">
      <path d="M 177.047194 288.78029 
L 177.047194 28.541786 
" clip-path="url(#p75223f4f5b)" style="fill: none; stroke: #b0b0b0; stroke-opacity: 0.18; stroke-width: 0.7; stroke-linecap: square"/>
     </g>
     <g id="line2d_4">
      <g>
       <use xlink:href="#m586f7f9c87" x="177.047194" y="288.78029" style="fill: #333333; stroke: #333333; stroke-width: 0.8"/>
      </g>
     </g>
     <g id="text_2">
      <text style="font-size: 9.2px; font-family: 'DejaVu Sans', 'Bitstream Vera Sans', 'Computer Modern Sans Serif', 'Lucida Grande', 'Verdana', 'Geneva', 'Lucid', 'Arial', 'Helvetica', 'Avant Garde', sans-serif; text-anchor: middle; fill: #333333" x="177.047194" y="302.770852" transform="rotate(-0 177.047194 302.770852)">0.08</text>
     </g>
    </g>
    <g id="xtick_3">
     <g id="line2d_5">
      <path d="M 244.442153 288.78029 
L 244.442153 28.541786 
" clip-path="url(#p75223f4f5b)" style="fill: none; stroke: #b0b0b0; stroke-opacity: 0.18; stroke-width: 0.7; stroke-linecap: square"/>
     </g>
     <g id="line2d_6">
      <g>
       <use xlink:href="#m586f7f9c87" x="244.442153" y="288.78029" style="fill: #333333; stroke: #333333; stroke-width: 0.8"/>
      </g>
     </g>
     <g id="text_3">
      <text style="font-size: 9.2px; font-family: 'DejaVu Sans', 'Bitstream Vera Sans', 'Computer Modern Sans Serif', 'Lucida Grande', 'Verdana', 'Geneva', 'Lucid', 'Arial', 'Helvetica', 'Avant Garde', sans-serif; text-anchor: middle; fill: #333333" x="244.442153" y="302.770852" transform="rotate(-0 244.442153 302.770852)">0.09</text>
     </g>
    </g>
    <g id="xtick_4">
     <g id="line2d_7">
      <path d="M 311.837111 288.78029 
L 311.837111 28.541786 
" clip-path="url(#p75223f4f5b)" style="fill: none; stroke: #b0b0b0; stroke-opacity: 0.18; stroke-width: 0.7; stroke-linecap: square"/>
     </g>
     <g id="line2d_8">
      <g>
       <use xlink:href="#m586f7f9c87" x="311.837111" y="288.78029" style="fill: #333333; stroke: #333333; stroke-width: 0.8"/>
      </g>
     </g>
     <g id="text_4">
      <text style="font-size: 9.2px; font-family: 'DejaVu Sans', 'Bitstream Vera Sans', 'Computer Modern Sans Serif', 'Lucida Grande', 'Verdana', 'Geneva', 'Lucid', 'Arial', 'Helvetica', 'Avant Garde', sans-serif; text-anchor: middle; fill: #333333" x="311.837111" y="302.770852" transform="rotate(-0 311.837111 302.770852)">0.10</text>
     </g>
    </g>
    <g id="xtick_5">
     <g id="line2d_9">
      <path d="M 379.23207 288.78029 
L 379.23207 28.541786 
" clip-path="url(#p75223f4f5b)" style="fill: none; stroke: #b0b0b0; stroke-opacity: 0.18; stroke-width: 0.7; stroke-linecap: square"/>
     </g>
     <g id="line2d_10">
      <g>
       <use xlink:href="#m586f7f9c87" x="379.23207" y="288.78029" style="fill: #333333; stroke: #333333; stroke-width: 0.8"/>
      </g>
     </g>
     <g id="text_5">
      <text style="font-size: 9.2px; font-family: 'DejaVu Sans', 'Bitstream Vera Sans', 'Computer Modern Sans Serif', 'Lucida Grande', 'Verdana', 'Geneva', 'Lucid', 'Arial', 'Helvetica', 'Avant Garde', sans-serif; text-anchor: middle; fill: #333333" x="379.23207" y="302.770852" transform="rotate(-0 379.23207 302.770852)">0.11</text>
     </g>
    </g>
    <g id="xtick_6">
     <g id="line2d_11">
      <path d="M 446.627028 288.78029 
L 446.627028 28.541786 
" clip-path="url(#p75223f4f5b)" style="fill: none; stroke: #b0b0b0; stroke-opacity: 0.18; stroke-width: 0.7; stroke-linecap: square"/>
     </g>
     <g id="line2d_12">
      <g>
       <use xlink:href="#m586f7f9c87" x="446.627028" y="288.78029" style="fill: #333333; stroke: #333333; stroke-width: 0.8"/>
      </g>
     </g>
     <g id="text_6">
      <text style="font-size: 9.2px; font-family: 'DejaVu Sans', 'Bitstream Vera Sans', 'Computer Modern Sans Serif', 'Lucida Grande', 'Verdana', 'Geneva', 'Lucid', 'Arial', 'Helvetica', 'Avant Garde', sans-serif; text-anchor: middle; fill: #333333" x="446.627028" y="302.770852" transform="rotate(-0 446.627028 302.770852)">0.12</text>
     </g>
    </g>
    <g id="text_7">
     <text style="font-size: 10.4px; font-family: 'DejaVu Sans', 'Bitstream Vera Sans', 'Computer Modern Sans Serif', 'Lucida Grande', 'Verdana', 'Geneva', 'Lucid', 'Arial', 'Helvetica', 'Avant Garde', sans-serif; text-anchor: middle; fill: #222222" x="255.847402" y="316.58654" transform="rotate(-0 255.847402 316.58654)">altura maxima local hmax (m)</text>
    </g>
   </g>
   <g id="matplotlib.axis_2">
    <g id="ytick_1">
     <g id="line2d_13">
      <path d="M 63.633813 286.629559 
L 448.060991 286.629559 
" clip-path="url(#p75223f4f5b)" style="fill: none; stroke: #b0b0b0; stroke-opacity: 0.18; stroke-width: 0.7; stroke-linecap: square"/>
     </g>
     <g id="line2d_14">
      <defs>
       <path id="m6ee2b4618d" d="M 0 0 
L -3.5 0 
" style="stroke: #333333; stroke-width: 0.8"/>
      </defs>
      <g>
       <use xlink:href="#m6ee2b4618d" x="63.633813" y="286.629559" style="fill: #333333; stroke: #333333; stroke-width: 0.8"/>
      </g>
     </g>
     <g id="text_8">
      <text style="font-size: 9.2px; font-family: 'DejaVu Sans', 'Bitstream Vera Sans', 'Computer Modern Sans Serif', 'Lucida Grande', 'Verdana', 'Geneva', 'Lucid', 'Arial', 'Helvetica', 'Avant Garde', sans-serif; text-anchor: end; fill: #333333" x="56.633813" y="290.12484" transform="rotate(-0 56.633813 290.12484)">0.0%</text>
     </g>
    </g>
    <g id="ytick_2">
     <g id="line2d_15">
      <path d="M 63.633813 243.61493 
L 448.060991 243.61493 
" clip-path="url(#p75223f4f5b)" style="fill: none; stroke: #b0b0b0; stroke-opacity: 0.18; stroke-width: 0.7; stroke-linecap: square"/>
     </g>
     <g id="line2d_16">
      <g>
       <use xlink:href="#m6ee2b4618d" x="63.633813" y="243.61493" style="fill: #333333; stroke: #333333; stroke-width: 0.8"/>
      </g>
     </g>
     <g id="text_9">
      <text style="font-size: 9.2px; font-family: 'DejaVu Sans', 'Bitstream Vera Sans', 'Computer Modern Sans Serif', 'Lucida Grande', 'Verdana', 'Geneva', 'Lucid', 'Arial', 'Helvetica', 'Avant Garde', sans-serif; text-anchor: end; fill: #333333" x="56.633813" y="247.110211" transform="rotate(-0 56.633813 247.110211)">20.0%</text>
     </g>
    </g>
    <g id="ytick_3">
     <g id="line2d_17">
      <path d="M 63.633813 200.600301 
L 448.060991 200.600301 
" clip-path="url(#p75223f4f5b)" style="fill: none; stroke: #b0b0b0; stroke-opacity: 0.18; stroke-width: 0.7; stroke-linecap: square"/>
     </g>
     <g id="line2d_18">
      <g>
       <use xlink:href="#m6ee2b4618d" x="63.633813" y="200.600301" style="fill: #333333; stroke: #333333; stroke-width: 0.8"/>
      </g>
     </g>
     <g id="text_10">
      <text style="font-size: 9.2px; font-family: 'DejaVu Sans', 'Bitstream Vera Sans', 'Computer Modern Sans Serif', 'Lucida Grande', 'Verdana', 'Geneva', 'Lucid', 'Arial', 'Helvetica', 'Avant Garde', sans-serif; text-anchor: end; fill: #333333" x="56.633813" y="204.095582" transform="rotate(-0 56.633813 204.095582)">40.0%</text>
     </g>
    </g>
    <g id="ytick_4">
     <g id="line2d_19">
      <path d="M 63.633813 157.585672 
L 448.060991 157.585672 
" clip-path="url(#p75223f4f5b)" style="fill: none; stroke: #b0b0b0; stroke-opacity: 0.18; stroke-width: 0.7; stroke-linecap: square"/>
     </g>
     <g id="line2d_20">
      <g>
       <use xlink:href="#m6ee2b4618d" x="63.633813" y="157.585672" style="fill: #333333; stroke: #333333; stroke-width: 0.8"/>
      </g>
     </g>
     <g id="text_11">
      <text style="font-size: 9.2px; font-family: 'DejaVu Sans', 'Bitstream Vera Sans', 'Computer Modern Sans Serif', 'Lucida Grande', 'Verdana', 'Geneva', 'Lucid', 'Arial', 'Helvetica', 'Avant Garde', sans-serif; text-anchor: end; fill: #333333" x="56.633813" y="161.080954" transform="rotate(-0 56.633813 161.080954)">60.0%</text>
     </g>
    </g>
    <g id="ytick_5">
     <g id="line2d_21">
      <path d="M 63.633813 114.571044 
L 448.060991 114.571044 
" clip-path="url(#p75223f4f5b)" style="fill: none; stroke: #b0b0b0; stroke-opacity: 0.18; stroke-width: 0.7; stroke-linecap: square"/>
     </g>
     <g id="line2d_22">
      <g>
       <use xlink:href="#m6ee2b4618d" x="63.633813" y="114.571044" style="fill: #333333; stroke: #333333; stroke-width: 0.8"/>
      </g>
     </g>
     <g id="text_12">
      <text style="font-size: 9.2px; font-family: 'DejaVu Sans', 'Bitstream Vera Sans', 'Computer Modern Sans Serif', 'Lucida Grande', 'Verdana', 'Geneva', 'Lucid', 'Arial', 'Helvetica', 'Avant Garde', sans-serif; text-anchor: end; fill: #333333" x="56.633813" y="118.066325" transform="rotate(-0 56.633813 118.066325)">80.0%</text>
     </g>
    </g>
    <g id="ytick_6">
     <g id="line2d_23">
      <path d="M 63.633813 71.556415 
L 448.060991 71.556415 
" clip-path="url(#p75223f4f5b)" style="fill: none; stroke: #b0b0b0; stroke-opacity: 0.18; stroke-width: 0.7; stroke-linecap: square"/>
     </g>
     <g id="line2d_24">
      <g>
       <use xlink:href="#m6ee2b4618d" x="63.633813" y="71.556415" style="fill: #333333; stroke: #333333; stroke-width: 0.8"/>
      </g>
     </g>
     <g id="text_13">
      <text style="font-size: 9.2px; font-family: 'DejaVu Sans', 'Bitstream Vera Sans', 'Computer Modern Sans Serif', 'Lucida Grande', 'Verdana', 'Geneva', 'Lucid', 'Arial', 'Helvetica', 'Avant Garde', sans-serif; text-anchor: end; fill: #333333" x="56.633813" y="75.051696" transform="rotate(-0 56.633813 75.051696)">100.0%</text>
     </g>
    </g>
    <g id="ytick_7">
     <g id="line2d_25">
      <path d="M 63.633813 28.541786 
L 448.060991 28.541786 
" clip-path="url(#p75223f4f5b)" style="fill: none; stroke: #b0b0b0; stroke-opacity: 0.18; stroke-width: 0.7; stroke-linecap: square"/>
     </g>
     <g id="line2d_26">
      <g>
       <use xlink:href="#m6ee2b4618d" x="63.633813" y="28.541786" style="fill: #333333; stroke: #333333; stroke-width: 0.8"/>
      </g>
     </g>
     <g id="text_14">
      <text style="font-size: 9.2px; font-family: 'DejaVu Sans', 'Bitstream Vera Sans', 'Computer Modern Sans Serif', 'Lucida Grande', 'Verdana', 'Geneva', 'Lucid', 'Arial', 'Helvetica', 'Avant Garde', sans-serif; text-anchor: end; fill: #333333" x="56.633813" y="32.037067" transform="rotate(-0 56.633813 32.037067)">120.0%</text>
     </g>
    </g>
    <g id="text_15">
     <text style="font-size: 10.4px; font-family: 'DejaVu Sans', 'Bitstream Vera Sans', 'Computer Modern Sans Serif', 'Lucida Grande', 'Verdana', 'Geneva', 'Lucid', 'Arial', 'Helvetica', 'Avant Garde', sans-serif; text-anchor: middle; fill: #222222" x="15.102375" y="158.661038" transform="rotate(-90 15.102375 158.661038)">Dmax (% d_eq)</text>
    </g>
   </g>
   <g id="line2d_27">
    <path d="M 63.633813 275.875901 
L 448.060991 275.875901 
" clip-path="url(#p75223f4f5b)" style="fill: none; stroke-dasharray: 4.255,1.84; stroke-dashoffset: 0; stroke: #222222; stroke-width: 1.15"/>
   </g>
   <g id="patch_3">
    <path d="M 63.633813 288.78029 
L 63.633813 28.541786 
" style="fill: none; stroke: #444444; stroke-width: 0.8; stroke-linejoin: miter; stroke-linecap: square"/>
   </g>
   <g id="patch_4">
    <path d="M 63.633812 288.78029 
L 448.060991 288.78029 
" style="fill: none; stroke: #444444; stroke-width: 0.8; stroke-linejoin: miter; stroke-linecap: square"/>
   </g>
  </g>
  <g id="axes_2">
   <g id="patch_5">
    <path d="M 469.369217 288.78029 
L 853.796395 288.78029 
L 853.796395 28.541786 
L 469.369217 28.541786 
z
" style="fill: #ffffff"/>
   </g>
   <g id="axes_3">
    <g id="patch_6">
     <path d="M 853.796395 288.78029 
L 853.796395 288.78029 
L 853.796395 28.541786 
L 853.796395 28.541786 
z
" style="fill: #ffffff"/>
    </g>
    <g id="matplotlib.axis_3"/>
    <g id="matplotlib.axis_4">
     <g id="ytick_8">
      <g id="line2d_28">
       <path d="M 853.796395 286.629559 
L 853.796395 286.629559 
" clip-path="url(#pff2f0367bc)" style="fill: none; stroke: #b0b0b0; stroke-opacity: 0.18; stroke-width: 0.7; stroke-linecap: square"/>
      </g>
      <g id="line2d_29">
       <defs>
        <path id="md607641859" d="M 0 0 
L 3.5 0 
" style="stroke: #333333; stroke-width: 0.8"/>
       </defs>
       <g>
        <use xlink:href="#md607641859" x="853.796395" y="286.629559" style="fill: #333333; stroke: #333333; stroke-width: 0.8"/>
       </g>
      </g>
      <g id="text_16">
       <text style="font-size: 9.2px; font-family: 'DejaVu Sans', 'Bitstream Vera Sans', 'Computer Modern Sans Serif', 'Lucida Grande', 'Verdana', 'Geneva', 'Lucid', 'Arial', 'Helvetica', 'Avant Garde', sans-serif; text-anchor: start; fill: #333333" x="860.796395" y="290.12484" transform="rotate(-0 860.796395 290.12484)">0.0</text>
      </g>
     </g>
     <g id="ytick_9">
      <g id="line2d_30">
       <path d="M 853.796395 243.795262 
L 853.796395 243.795262 
" clip-path="url(#pff2f0367bc)" style="fill: none; stroke: #b0b0b0; stroke-opacity: 0.18; stroke-width: 0.7; stroke-linecap: square"/>
      </g>
      <g id="line2d_31">
       <g>
        <use xlink:href="#md607641859" x="853.796395" y="243.795262" style="fill: #333333; stroke: #333333; stroke-width: 0.8"/>
       </g>
      </g>
      <g id="text_17">
       <text style="font-size: 9.2px; font-family: 'DejaVu Sans', 'Bitstream Vera Sans', 'Computer Modern Sans Serif', 'Lucida Grande', 'Verdana', 'Geneva', 'Lucid', 'Arial', 'Helvetica', 'Avant Garde', sans-serif; text-anchor: start; fill: #333333" x="860.796395" y="247.290543" transform="rotate(-0 860.796395 247.290543)">20.0</text>
      </g>
     </g>
     <g id="ytick_10">
      <g id="line2d_32">
       <path d="M 853.796395 200.960966 
L 853.796395 200.960966 
" clip-path="url(#pff2f0367bc)" style="fill: none; stroke: #b0b0b0; stroke-opacity: 0.18; stroke-width: 0.7; stroke-linecap: square"/>
      </g>
      <g id="line2d_33">
       <g>
        <use xlink:href="#md607641859" x="853.796395" y="200.960966" style="fill: #333333; stroke: #333333; stroke-width: 0.8"/>
       </g>
      </g>
      <g id="text_18">
       <text style="font-size: 9.2px; font-family: 'DejaVu Sans', 'Bitstream Vera Sans', 'Computer Modern Sans Serif', 'Lucida Grande', 'Verdana', 'Geneva', 'Lucid', 'Arial', 'Helvetica', 'Avant Garde', sans-serif; text-anchor: start; fill: #333333" x="860.796395" y="204.456247" transform="rotate(-0 860.796395 204.456247)">40.0</text>
      </g>
     </g>
     <g id="ytick_11">
      <g id="line2d_34">
       <path d="M 853.796395 158.12667 
L 853.796395 158.12667 
" clip-path="url(#pff2f0367bc)" style="fill: none; stroke: #b0b0b0; stroke-opacity: 0.18; stroke-width: 0.7; stroke-linecap: square"/>
      </g>
      <g id="line2d_35">
       <g>
        <use xlink:href="#md607641859" x="853.796395" y="158.12667" style="fill: #333333; stroke: #333333; stroke-width: 0.8"/>
       </g>
      </g>
      <g id="text_19">
       <text style="font-size: 9.2px; font-family: 'DejaVu Sans', 'Bitstream Vera Sans', 'Computer Modern Sans Serif', 'Lucida Grande', 'Verdana', 'Geneva', 'Lucid', 'Arial', 'Helvetica', 'Avant Garde', sans-serif; text-anchor: start; fill: #333333" x="860.796395" y="161.621951" transform="rotate(-0 860.796395 161.621951)">60.0</text>
      </g>
     </g>
     <g id="ytick_12">
      <g id="line2d_36">
       <path d="M 853.796395 115.292373 
L 853.796395 115.292373 
" clip-path="url(#pff2f0367bc)" style="fill: none; stroke: #b0b0b0; stroke-opacity: 0.18; stroke-width: 0.7; stroke-linecap: square"/>
      </g>
      <g id="line2d_37">
       <g>
        <use xlink:href="#md607641859" x="853.796395" y="115.292373" style="fill: #333333; stroke: #333333; stroke-width: 0.8"/>
       </g>
      </g>
      <g id="text_20">
       <text style="font-size: 9.2px; font-family: 'DejaVu Sans', 'Bitstream Vera Sans', 'Computer Modern Sans Serif', 'Lucida Grande', 'Verdana', 'Geneva', 'Lucid', 'Arial', 'Helvetica', 'Avant Garde', sans-serif; text-anchor: start; fill: #333333" x="860.796395" y="118.787654" transform="rotate(-0 860.796395 118.787654)">80.0</text>
      </g>
     </g>
     <g id="ytick_13">
      <g id="line2d_38">
       <path d="M 853.796395 72.458077 
L 853.796395 72.458077 
" clip-path="url(#pff2f0367bc)" style="fill: none; stroke: #b0b0b0; stroke-opacity: 0.18; stroke-width: 0.7; stroke-linecap: square"/>
      </g>
      <g id="line2d_39">
       <g>
        <use xlink:href="#md607641859" x="853.796395" y="72.458077" style="fill: #333333; stroke: #333333; stroke-width: 0.8"/>
       </g>
      </g>
      <g id="text_21">
       <text style="font-size: 9.2px; font-family: 'DejaVu Sans', 'Bitstream Vera Sans', 'Computer Modern Sans Serif', 'Lucida Grande', 'Verdana', 'Geneva', 'Lucid', 'Arial', 'Helvetica', 'Avant Garde', sans-serif; text-anchor: start; fill: #333333" x="860.796395" y="75.953358" transform="rotate(-0 860.796395 75.953358)">100.0</text>
      </g>
     </g>
     <g id="ytick_14">
      <g id="line2d_40">
       <path d="M 853.796395 29.623781 
L 853.796395 29.623781 
" clip-path="url(#pff2f0367bc)" style="fill: none; stroke: #b0b0b0; stroke-opacity: 0.18; stroke-width: 0.7; stroke-linecap: square"/>
      </g>
      <g id="line2d_41">
       <g>
        <use xlink:href="#md607641859" x="853.796395" y="29.623781" style="fill: #333333; stroke: #333333; stroke-width: 0.8"/>
       </g>
      </g>
      <g id="text_22">
       <text style="font-size: 9.2px; font-family: 'DejaVu Sans', 'Bitstream Vera Sans', 'Computer Modern Sans Serif', 'Lucida Grande', 'Verdana', 'Geneva', 'Lucid', 'Arial', 'Helvetica', 'Avant Garde', sans-serif; text-anchor: start; fill: #333333" x="860.796395" y="33.119062" transform="rotate(-0 860.796395 33.119062)">120.0</text>
      </g>
     </g>
     <g id="text_23">
      <text style="font-size: 10.4px; font-family: 'DejaVu Sans', 'Bitstream Vera Sans', 'Computer Modern Sans Serif', 'Lucida Grande', 'Verdana', 'Geneva', 'Lucid', 'Arial', 'Helvetica', 'Avant Garde', sans-serif; text-anchor: middle; fill: #222222" x="899.036645" y="158.661038" transform="rotate(-90 899.036645 158.661038)">desplazamiento absoluto (mm)</text>
     </g>
    </g>
    <g id="patch_7">
     <path d="M 853.796395 288.78029 
L 853.796395 28.541786 
" style="fill: none; stroke: #444444; stroke-width: 0.8; stroke-linejoin: miter; stroke-linecap: square"/>
    </g>
   </g>
   <g id="PathCollection_3">
    <path d="M 514.854642 287.520975 
C 515.793922 287.520975 516.694857 287.147795 517.359028 286.483624 
C 518.023199 285.819453 518.396379 284.918517 518.396379 283.979238 
C 518.396379 283.039958 518.023199 282.139022 517.359028 281.474851 
C 516.694857 280.81068 515.793922 280.437501 514.854642 280.437501 
C 513.915362 280.437501 513.014427 280.81068 512.350255 281.474851 
C 511.686084 282.139022 511.312905 283.039958 511.312905 283.979238 
C 511.312905 284.918517 511.686084 285.819453 512.350255 286.483624 
C 513.014427 287.147795 513.915362 287.520975 514.854642 287.520975 
z
" clip-path="url(#p26a72fe754)" style="fill: #d55e00; fill-opacity: 0.88; stroke: #222222; stroke-opacity: 0.88; stroke-width: 0.7"/>
    <path d="M 541.421066 287.522952 
C 542.360307 287.522952 543.261205 287.149788 543.925349 286.485644 
C 544.589492 285.821501 544.962657 284.920602 544.962657 283.981361 
C 544.962657 283.04212 544.589492 282.141222 543.925349 281.477078 
C 543.261205 280.812935 542.360307 280.439771 541.421066 280.439771 
C 540.481825 280.439771 539.580926 280.812935 538.916783 281.477078 
C 538.252639 282.141222 537.879475 283.04212 537.879475 283.981361 
C 537.879475 284.920602 538.252639 285.821501 538.916783 286.485644 
C 539.580926 287.149788 540.481825 287.522952 541.421066 287.522952 
z
" clip-path="url(#p26a72fe754)" style="fill: #009e73; fill-opacity: 0.88; stroke: #222222; stroke-opacity: 0.88; stroke-width: 0.7"/>
    <path d="M 670.609574 287.522952 
C 671.548815 287.522952 672.449714 287.149788 673.113857 286.485644 
C 673.778001 285.821501 674.151165 284.920602 674.151165 283.981361 
C 674.151165 283.04212 673.778001 282.141222 673.113857 281.477078 
C 672.449714 280.812935 671.548815 280.439771 670.609574 280.439771 
C 669.670334 280.439771 668.769435 280.812935 668.105292 281.477078 
C 667.441148 282.141222 667.067984 283.04212 667.067984 283.981361 
C 667.067984 284.920602 667.441148 285.821501 668.105292 286.485644 
C 668.769435 287.149788 669.670334 287.522952 670.609574 287.522952 
z
" clip-path="url(#p26a72fe754)" style="fill: #cc79a7; fill-opacity: 0.88; stroke: #222222; stroke-opacity: 0.88; stroke-width: 0.7"/>
    <path d="M 728.263206 286.013643 
C 729.231592 286.013643 730.160446 285.628899 730.845198 284.944146 
C 731.529951 284.259394 731.914695 283.33054 731.914695 282.362153 
C 731.914695 281.393767 731.529951 280.464913 730.845198 279.780161 
C 730.160446 279.095408 729.231592 278.710664 728.263206 278.710664 
C 727.29482 278.710664 726.365965 279.095408 725.681213 279.780161 
C 724.996461 280.464913 724.611717 281.393767 724.611717 282.362153 
C 724.611717 283.33054 724.996461 284.259394 725.681213 284.944146 
C 726.365965 285.628899 727.29482 286.013643 728.263206 286.013643 
z
" clip-path="url(#p26a72fe754)" style="fill: #0072b2; fill-opacity: 0.88; stroke: #222222; stroke-opacity: 0.88; stroke-width: 0.7"/>
    <path d="M 727.650855 287.520521 
C 728.590144 287.520521 729.491088 287.147337 730.155265 286.48316 
C 730.819443 285.818983 731.192626 284.918038 731.192626 283.97875 
C 731.192626 283.039461 730.819443 282.138517 730.155265 281.47434 
C 729.491088 280.810162 728.590144 280.436979 727.650855 280.436979 
C 726.711567 280.436979 725.810622 280.810162 725.146445 281.47434 
C 724.482268 282.138517 724.109084 283.039461 724.109084 283.97875 
C 724.109084 284.918038 724.482268 285.818983 725.146445 286.48316 
C 725.810622 287.147337 726.711567 287.520521 727.650855 287.520521 
z
" clip-path="url(#p26a72fe754)" style="fill: #009e73; fill-opacity: 0.88; stroke: #222222; stroke-opacity: 0.88; stroke-width: 0.7"/>
    <path d="M 684.798292 287.398564 
C 685.739972 287.398564 686.643209 287.024431 687.309077 286.358563 
C 687.974945 285.692695 688.349078 284.789458 688.349078 283.847778 
C 688.349078 282.906099 687.974945 282.002861 687.309077 281.336993 
C 686.643209 280.671125 685.739972 280.296992 684.798292 280.296992 
C 683.856613 280.296992 682.953375 280.671125 682.287507 281.336993 
C 681.621639 282.002861 681.247506 282.906099 681.247506 283.847778 
C 681.247506 284.789458 681.621639 285.692695 682.287507 286.358563 
C 682.953375 287.024431 683.856613 287.398564 684.798292 287.398564 
z
" clip-path="url(#p26a72fe754)" style="fill: #009e73; fill-opacity: 0.88; stroke: #222222; stroke-opacity: 0.88; stroke-width: 0.7"/>
    <path d="M 805.036227 287.453605 
C 805.976828 287.453605 806.879031 287.0799 807.544137 286.414794 
C 808.209242 285.749689 808.582947 284.847485 808.582947 283.906884 
C 808.582947 282.966283 808.209242 282.06408 807.544137 281.398974 
C 806.879031 280.733869 805.976828 280.360164 805.036227 280.360164 
C 804.095626 280.360164 803.193422 280.733869 802.528317 281.398974 
C 801.863211 282.06408 801.489506 282.966283 801.489506 283.906884 
C 801.489506 284.847485 801.863211 285.749689 802.528317 286.414794 
C 803.193422 287.0799 804.095626 287.453605 805.036227 287.453605 
z
" clip-path="url(#p26a72fe754)" style="fill: #cc79a7; fill-opacity: 0.88; stroke: #222222; stroke-opacity: 0.88; stroke-width: 0.7"/>
    <path d="M 538.456403 287.520623 
C 539.39569 287.520623 540.296632 287.14744 540.960808 286.483264 
C 541.624984 285.819089 541.998166 284.918146 541.998166 283.97886 
C 541.998166 283.039573 541.624984 282.138631 540.960808 281.474455 
C 540.296632 280.810279 539.39569 280.437096 538.456403 280.437096 
C 537.517116 280.437096 536.616174 280.810279 535.951998 281.474455 
C 535.287822 282.138631 534.91464 283.039573 534.91464 283.97886 
C 534.91464 284.918146 535.287822 285.819089 535.951998 286.483264 
C 536.616174 287.14744 537.517116 287.520623 538.456403 287.520623 
z
" clip-path="url(#p26a72fe754)" style="fill: #0072b2; fill-opacity: 0.88; stroke: #222222; stroke-opacity: 0.88; stroke-width: 0.7"/>
    <path d="M 670.760071 286.974811 
C 671.710008 286.974811 672.621165 286.597397 673.292872 285.92569 
C 673.964579 285.253984 674.341992 284.342826 674.341992 283.392889 
C 674.341992 282.442953 673.964579 281.531795 673.292872 280.860088 
C 672.621165 280.188382 671.710008 279.810968 670.760071 279.810968 
C 669.810134 279.810968 668.898977 280.188382 668.22727 280.860088 
C 667.555563 281.531795 667.17815 282.442953 667.17815 283.392889 
C 667.17815 284.342826 667.555563 285.253984 668.22727 285.92569 
C 668.898977 286.597397 669.810134 286.974811 670.760071 286.974811 
z
" clip-path="url(#p26a72fe754)" style="fill: #0072b2; fill-opacity: 0.88; stroke: #222222; stroke-opacity: 0.88; stroke-width: 0.7"/>
    <path d="M 596.656394 287.143921 
C 597.603045 287.143921 598.511051 286.767812 599.180434 286.098429 
C 599.849817 285.429046 600.225925 284.52104 600.225925 283.57439 
C 600.225925 282.627739 599.849817 281.719733 599.180434 281.05035 
C 598.511051 280.380967 597.603045 280.004859 596.656394 280.004859 
C 595.709744 280.004859 594.801738 280.380967 594.132355 281.05035 
C 593.462972 281.719733 593.086863 282.627739 593.086863 283.57439 
C 593.086863 284.52104 593.462972 285.429046 594.132355 286.098429 
C 594.801738 286.767812 595.709744 287.143921 596.656394 287.143921 
z
" clip-path="url(#p26a72fe754)" style="fill: #0072b2; fill-opacity: 0.88; stroke: #222222; stroke-opacity: 0.88; stroke-width: 0.7"/>
    <path d="M 588.071473 282.397716 
C 589.106128 282.397716 590.098546 281.986643 590.830157 281.255031 
C 591.561769 280.52342 591.972842 279.531002 591.972842 278.496347 
C 591.972842 277.461691 591.561769 276.469274 590.830157 275.737662 
C 590.098546 275.00605 589.106128 274.594977 588.071473 274.594977 
C 587.036817 274.594977 586.0444 275.00605 585.312788 275.737662 
C 584.581176 276.469274 584.170103 277.461691 584.170103 278.496347 
C 584.170103 279.531002 584.581176 280.52342 585.312788 281.255031 
C 586.0444 281.986643 587.036817 282.397716 588.071473 282.397716 
z
" clip-path="url(#p26a72fe754)" style="fill: #0072b2; fill-opacity: 0.88; stroke: #222222; stroke-opacity: 0.88; stroke-width: 0.7"/>
    <path d="M 629.81441 285.355674 
C 630.795211 285.355674 631.735974 284.965997 632.429505 284.272466 
C 633.123037 283.578934 633.512714 282.638172 633.512714 281.65737 
C 633.512714 280.676568 633.123037 279.735806 632.429505 279.042274 
C 631.735974 278.348743 630.795211 277.959066 629.81441 277.959066 
C 628.833608 277.959066 627.892845 278.348743 627.199314 279.042274 
C 626.505782 279.735806 626.116106 280.676568 626.116106 281.65737 
C 626.116106 282.638172 626.505782 283.578934 627.199314 284.272466 
C 627.892845 284.965997 628.833608 285.355674 629.81441 285.355674 
z
" clip-path="url(#p26a72fe754)" style="fill: #0072b2; fill-opacity: 0.88; stroke: #222222; stroke-opacity: 0.88; stroke-width: 0.7"/>
    <path d="M 486.843179 287.521021 
C 487.782458 287.521021 488.683393 287.147842 489.347563 286.483671 
C 490.011734 285.819501 490.384913 284.918566 490.384913 283.979287 
C 490.384913 283.040008 490.011734 282.139074 489.347563 281.474903 
C 488.683393 280.810733 487.782458 280.437553 486.843179 280.437553 
C 485.9039 280.437553 485.002966 280.810733 484.338795 281.474903 
C 483.674625 282.139074 483.301445 283.040008 483.301445 283.979287 
C 483.301445 284.918566 483.674625 285.819501 484.338795 286.483671 
C 485.002966 287.147842 485.9039 287.521021 486.843179 287.521021 
z
" clip-path="url(#p26a72fe754)" style="fill: #0072b2; fill-opacity: 0.88; stroke: #222222; stroke-opacity: 0.88; stroke-width: 0.7"/>
    <path d="M 567.200111 287.520927 
C 568.139392 287.520927 569.040328 287.147747 569.7045 286.483576 
C 570.368672 285.819404 570.741852 284.918467 570.741852 283.979187 
C 570.741852 283.039906 570.368672 282.13897 569.7045 281.474798 
C 569.040328 280.810626 568.139392 280.437446 567.200111 280.437446 
C 566.260831 280.437446 565.359894 280.810626 564.695722 281.474798 
C 564.031551 282.13897 563.658371 283.039906 563.658371 283.979187 
C 563.658371 284.918467 564.031551 285.819404 564.695722 286.483576 
C 565.359894 287.147747 566.260831 287.520927 567.200111 287.520927 
z
" clip-path="url(#p26a72fe754)" style="fill: #0072b2; fill-opacity: 0.88; stroke: #222222; stroke-opacity: 0.88; stroke-width: 0.7"/>
    <path d="M 542.459041 287.520623 
C 543.398328 287.520623 544.29927 287.14744 544.963446 286.483264 
C 545.627622 285.819089 546.000804 284.918146 546.000804 283.97886 
C 546.000804 283.039573 545.627622 282.138631 544.963446 281.474455 
C 544.29927 280.810279 543.398328 280.437096 542.459041 280.437096 
C 541.519754 280.437096 540.618812 280.810279 539.954636 281.474455 
C 539.29046 282.138631 538.917278 283.039573 538.917278 283.97886 
C 538.917278 284.918146 539.29046 285.819089 539.954636 286.483264 
C 540.618812 287.14744 541.519754 287.520623 542.459041 287.520623 
z
" clip-path="url(#p26a72fe754)" style="fill: #0072b2; fill-opacity: 0.88; stroke: #222222; stroke-opacity: 0.88; stroke-width: 0.7"/>
    <path d="M 575.46559 281.451839 
C 576.516846 281.451839 577.525187 281.03417 578.268537 280.29082 
C 579.011888 279.54747 579.429556 278.539129 579.429556 277.487873 
C 579.429556 276.436617 579.011888 275.428276 578.268537 274.684926 
C 577.525187 273.941575 576.516846 273.523907 575.46559 273.523907 
C 574.414334 273.523907 573.405993 273.941575 572.662643 274.684926 
C 571.919293 275.428276 571.501624 276.436617 571.501624 277.487873 
C 571.501624 278.539129 571.919293 279.54747 572.662643 280.29082 
C 573.405993 281.03417 574.414334 281.451839 575.46559 281.451839 
z
" clip-path="url(#p26a72fe754)" style="fill: #0072b2; fill-opacity: 0.88; stroke: #222222; stroke-opacity: 0.88; stroke-width: 0.7"/>
    <path d="M 545.858961 287.520927 
C 546.798241 287.520927 547.699178 287.147747 548.36335 286.483576 
C 549.027521 285.819404 549.400701 284.918467 549.400701 283.979187 
C 549.400701 283.039906 549.027521 282.13897 548.36335 281.474798 
C 547.699178 280.810626 546.798241 280.437446 545.858961 280.437446 
C 544.91968 280.437446 544.018743 280.810626 543.354572 281.474798 
C 542.6904 282.13897 542.31722 283.039906 542.31722 283.979187 
C 542.31722 284.918467 542.6904 285.819404 543.354572 286.483576 
C 544.018743 287.147747 544.91968 287.520927 545.858961 287.520927 
z
" clip-path="url(#p26a72fe754)" style="fill: #009e73; fill-opacity: 0.88; stroke: #222222; stroke-opacity: 0.88; stroke-width: 0.7"/>
    <path d="M 546.797796 281.395735 
C 547.850028 281.395735 548.859305 280.977679 549.603346 280.233639 
C 550.347386 279.489598 550.765442 278.480321 550.765442 277.428089 
C 550.765442 276.375857 550.347386 275.366581 549.603346 274.62254 
C 548.859305 273.8785 547.850028 273.460444 546.797796 273.460444 
C 545.745564 273.460444 544.736287 273.8785 543.992247 274.62254 
C 543.248207 275.366581 542.830151 276.375857 542.830151 277.428089 
C 542.830151 278.480321 543.248207 279.489598 543.992247 280.233639 
C 544.736287 280.977679 545.745564 281.395735 546.797796 281.395735 
z
" clip-path="url(#p26a72fe754)" style="fill: #0072b2; fill-opacity: 0.88; stroke: #222222; stroke-opacity: 0.88; stroke-width: 0.7"/>
    <path d="M 601.050138 287.5226 
C 601.989386 287.5226 602.890291 287.149433 603.55444 286.485284 
C 604.218588 285.821136 604.591755 284.920231 604.591755 283.980983 
C 604.591755 283.041735 604.218588 282.14083 603.55444 281.476682 
C 602.890291 280.812533 601.989386 280.439366 601.050138 280.439366 
C 600.110891 280.439366 599.209986 280.812533 598.545837 281.476682 
C 597.881689 282.14083 597.508522 283.041735 597.508522 283.980983 
C 597.508522 284.920231 597.881689 285.821136 598.545837 286.485284 
C 599.209986 287.149433 600.110891 287.5226 601.050138 287.5226 
z
" clip-path="url(#p26a72fe754)" style="fill: #009e73; fill-opacity: 0.88; stroke: #222222; stroke-opacity: 0.88; stroke-width: 0.7"/>
    <path d="M 545.120045 287.5226 
C 546.059293 287.5226 546.960198 287.149433 547.624346 286.485284 
C 548.288495 285.821136 548.661662 284.920231 548.661662 283.980983 
C 548.661662 283.041735 548.288495 282.14083 547.624346 281.476682 
C 546.960198 280.812533 546.059293 280.439366 545.120045 280.439366 
C 544.180797 280.439366 543.279892 280.812533 542.615744 281.476682 
C 541.951595 282.14083 541.578428 283.041735 541.578428 283.980983 
C 541.578428 284.920231 541.951595 285.821136 542.615744 286.485284 
C 543.279892 287.149433 544.180797 287.5226 545.120045 287.5226 
z
" clip-path="url(#p26a72fe754)" style="fill: #cc79a7; fill-opacity: 0.88; stroke: #222222; stroke-opacity: 0.88; stroke-width: 0.7"/>
    <path d="M 721.834553 287.520263 
C 722.773846 287.520263 723.674795 287.147078 724.338976 286.482897 
C 725.003157 285.818716 725.376342 284.917767 725.376342 283.978473 
C 725.376342 283.039179 725.003157 282.13823 724.338976 281.474049 
C 723.674795 280.809868 722.773846 280.436683 721.834553 280.436683 
C 720.895259 280.436683 719.99431 280.809868 719.330129 281.474049 
C 718.665948 282.13823 718.292763 283.039179 718.292763 283.978473 
C 718.292763 284.917767 718.665948 285.818716 719.330129 286.482897 
C 719.99431 287.147078 720.895259 287.520263 721.834553 287.520263 
z
" clip-path="url(#p26a72fe754)" style="fill: #009e73; fill-opacity: 0.88; stroke: #222222; stroke-opacity: 0.88; stroke-width: 0.7"/>
    <path d="M 811.619434 287.518124 
C 812.55877 287.518124 813.459759 287.144922 814.12397 286.480712 
C 814.788181 285.816501 815.161383 284.915512 815.161383 283.976176 
C 815.161383 283.036841 814.788181 282.135851 814.12397 281.471641 
C 813.459759 280.80743 812.55877 280.434228 811.619434 280.434228 
C 810.680099 280.434228 809.779109 280.80743 809.114899 281.471641 
C 808.450688 282.135851 808.077486 283.036841 808.077486 283.976176 
C 808.077486 284.915512 808.450688 285.816501 809.114899 286.480712 
C 809.779109 287.144922 810.680099 287.518124 811.619434 287.518124 
z
" clip-path="url(#p26a72fe754)" style="fill: #cc79a7; fill-opacity: 0.88; stroke: #222222; stroke-opacity: 0.88; stroke-width: 0.7"/>
    <path d="M 599.393011 287.144465 
C 600.339651 287.144465 601.247647 286.768361 601.917022 286.098985 
C 602.586398 285.429609 602.962502 284.521614 602.962502 283.574974 
C 602.962502 282.628334 602.586398 281.720338 601.917022 281.050962 
C 601.247647 280.381587 600.339651 280.005483 599.393011 280.005483 
C 598.446371 280.005483 597.538375 280.381587 596.869 281.050962 
C 596.199624 281.720338 595.82352 282.628334 595.82352 283.574974 
C 595.82352 284.521614 596.199624 285.429609 596.869 286.098985 
C 597.538375 286.768361 598.446371 287.144465 599.393011 287.144465 
z
" clip-path="url(#p26a72fe754)" style="fill: #0072b2; fill-opacity: 0.88; stroke: #222222; stroke-opacity: 0.88; stroke-width: 0.7"/>
    <path d="M 549.201347 287.522239 
C 550.140601 287.522239 551.041513 287.149069 551.705667 286.484915 
C 552.36982 285.820762 552.74299 284.91985 552.74299 283.980595 
C 552.74299 283.04134 552.36982 282.140428 551.705667 281.476275 
C 551.041513 280.812121 550.140601 280.438951 549.201347 280.438951 
C 548.262092 280.438951 547.36118 280.812121 546.697026 281.476275 
C 546.032873 282.140428 545.659703 283.04134 545.659703 283.980595 
C 545.659703 284.91985 546.032873 285.820762 546.697026 286.484915 
C 547.36118 287.149069 548.262092 287.522239 549.201347 287.522239 
z
" clip-path="url(#p26a72fe754)" style="fill: #0072b2; fill-opacity: 0.88; stroke: #222222; stroke-opacity: 0.88; stroke-width: 0.7"/>
   </g>
   <g id="PathCollection_4">
    <path d="M 645.602802 265.807463 
L 641.212787 274.587495 
L 649.992818 274.587495 
z
" clip-path="url(#p26a72fe754)" style="fill: #d55e00; fill-opacity: 0.88; stroke: #222222; stroke-opacity: 0.88; stroke-width: 0.7"/>
    <path d="M 591.613095 269.557762 
L 587.425027 277.933898 
L 595.801163 277.933898 
z
" clip-path="url(#p26a72fe754)" style="fill: #0072b2; fill-opacity: 0.88; stroke: #222222; stroke-opacity: 0.88; stroke-width: 0.7"/>
    <path d="M 742.279916 40.000598 
L 734.982657 54.595117 
L 749.577176 54.595117 
z
" clip-path="url(#p26a72fe754)" style="fill: #0072b2; fill-opacity: 0.88; stroke: #222222; stroke-opacity: 0.88; stroke-width: 0.7"/>
    <path d="M 686.896501 144.110889 
L 679.599241 158.705408 
L 694.193761 158.705408 
z
" clip-path="url(#p26a72fe754)" style="fill: #0072b2; fill-opacity: 0.88; stroke: #222222; stroke-opacity: 0.88; stroke-width: 0.7"/>
    <path d="M 547.156658 268.31881 
L 542.900872 276.830382 
L 551.412445 276.830382 
z
" clip-path="url(#p26a72fe754)" style="fill: #0072b2; fill-opacity: 0.88; stroke: #222222; stroke-opacity: 0.88; stroke-width: 0.7"/>
    <path d="M 586.328837 264.792455 
L 581.88566 273.678808 
L 590.772014 273.678808 
z
" clip-path="url(#p26a72fe754)" style="fill: #0072b2; fill-opacity: 0.88; stroke: #222222; stroke-opacity: 0.88; stroke-width: 0.7"/>
    <path d="M 731.152243 229.079588 
L 725.11894 241.146194 
L 737.185546 241.146194 
z
" clip-path="url(#p26a72fe754)" style="fill: #0072b2; fill-opacity: 0.88; stroke: #222222; stroke-opacity: 0.88; stroke-width: 0.7"/>
    <path d="M 728.608323 263.728505 
L 724.110061 272.725027 
L 733.106584 272.725027 
z
" clip-path="url(#p26a72fe754)" style="fill: #0072b2; fill-opacity: 0.88; stroke: #222222; stroke-opacity: 0.88; stroke-width: 0.7"/>
    <path d="M 809.732227 183.030432 
L 802.434967 197.624952 
L 817.029487 197.624952 
z
" clip-path="url(#p26a72fe754)" style="fill: #0072b2; fill-opacity: 0.88; stroke: #222222; stroke-opacity: 0.88; stroke-width: 0.7"/>
    <path d="M 745.530155 225.112693 
L 739.344445 237.484113 
L 751.715864 237.484113 
z
" clip-path="url(#p26a72fe754)" style="fill: #0072b2; fill-opacity: 0.88; stroke: #222222; stroke-opacity: 0.88; stroke-width: 0.7"/>
    <path d="M 580.548007 270.765225 
L 576.426947 279.007345 
L 584.669067 279.007345 
z
" clip-path="url(#p26a72fe754)" style="fill: #d55e00; fill-opacity: 0.88; stroke: #222222; stroke-opacity: 0.88; stroke-width: 0.7"/>
    <path d="M 585.0708 171.506761 
L 577.773541 186.101281 
L 592.36806 186.101281 
z
" clip-path="url(#p26a72fe754)" style="fill: #d55e00; fill-opacity: 0.88; stroke: #222222; stroke-opacity: 0.88; stroke-width: 0.7"/>
    <path d="M 722.370991 135.597196 
L 715.073731 150.191715 
L 729.66825 150.191715 
z
" clip-path="url(#p26a72fe754)" style="fill: #d55e00; fill-opacity: 0.88; stroke: #222222; stroke-opacity: 0.88; stroke-width: 0.7"/>
    <path d="M 710.844407 50.169361 
L 703.547147 64.763881 
L 718.141666 64.763881 
z
" clip-path="url(#p26a72fe754)" style="fill: #d55e00; fill-opacity: 0.88; stroke: #222222; stroke-opacity: 0.88; stroke-width: 0.7"/>
    <path d="M 836.322432 269.882021 
L 832.152259 278.222368 
L 840.492606 278.222368 
z
" clip-path="url(#p26a72fe754)" style="fill: #0072b2; fill-opacity: 0.88; stroke: #222222; stroke-opacity: 0.88; stroke-width: 0.7"/>
    <path d="M 578.078148 188.185161 
L 570.780888 202.77968 
L 585.375408 202.77968 
z
" clip-path="url(#p26a72fe754)" style="fill: #0072b2; fill-opacity: 0.88; stroke: #222222; stroke-opacity: 0.88; stroke-width: 0.7"/>
    <path d="M 661.011558 271.765933 
L 656.946822 279.895406 
L 665.076295 279.895406 
z
" clip-path="url(#p26a72fe754)" style="fill: #0072b2; fill-opacity: 0.88; stroke: #222222; stroke-opacity: 0.88; stroke-width: 0.7"/>
    <path d="M 826.627966 -2605.959952 
L 819.330707 -2591.365432 
L 833.925226 -2591.365432 
z
" clip-path="url(#p26a72fe754)" style="fill: #0072b2; fill-opacity: 0.88; stroke: #222222; stroke-opacity: 0.88; stroke-width: 0.7"/>
   </g>
   <g id="matplotlib.axis_5">
    <g id="xtick_7">
     <g id="line2d_42">
      <path d="M 507.535259 288.78029 
L 507.535259 28.541786 
" clip-path="url(#p26a72fe754)" style="fill: none; stroke: #b0b0b0; stroke-opacity: 0.18; stroke-width: 0.7; stroke-linecap: square"/>
     </g>
     <g id="line2d_43">
      <g>
       <use xlink:href="#m586f7f9c87" x="507.535259" y="288.78029" style="fill: #333333; stroke: #333333; stroke-width: 0.8"/>
      </g>
     </g>
     <g id="text_24">
      <text style="font-size: 9.2px; font-family: 'DejaVu Sans', 'Bitstream Vera Sans', 'Computer Modern Sans Serif', 'Lucida Grande', 'Verdana', 'Geneva', 'Lucid', 'Arial', 'Helvetica', 'Avant Garde', sans-serif; text-anchor: middle; fill: #333333" x="507.535259" y="302.770852" transform="rotate(-0 507.535259 302.770852)">0.70</text>
     </g>
    </g>
    <g id="xtick_8">
     <g id="line2d_44">
      <path d="M 573.294677 288.78029 
L 573.294677 28.541786 
" clip-path="url(#p26a72fe754)" style="fill: none; stroke: #b0b0b0; stroke-opacity: 0.18; stroke-width: 0.7; stroke-linecap: square"/>
     </g>
     <g id="line2d_45">
      <g>
       <use xlink:href="#m586f7f9c87" x="573.294677" y="288.78029" style="fill: #333333; stroke: #333333; stroke-width: 0.8"/>
      </g>
     </g>
     <g id="text_25">
      <text style="font-size: 9.2px; font-family: 'DejaVu Sans', 'Bitstream Vera Sans', 'Computer Modern Sans Serif', 'Lucida Grande', 'Verdana', 'Geneva', 'Lucid', 'Arial', 'Helvetica', 'Avant Garde', sans-serif; text-anchor: middle; fill: #333333" x="573.294677" y="302.770852" transform="rotate(-0 573.294677 302.770852)">0.75</text>
     </g>
    </g>
    <g id="xtick_9">
     <g id="line2d_46">
      <path d="M 639.054094 288.78029 
L 639.054094 28.541786 
" clip-path="url(#p26a72fe754)" style="fill: none; stroke: #b0b0b0; stroke-opacity: 0.18; stroke-width: 0.7; stroke-linecap: square"/>
     </g>
     <g id="line2d_47">
      <g>
       <use xlink:href="#m586f7f9c87" x="639.054094" y="288.78029" style="fill: #333333; stroke: #333333; stroke-width: 0.8"/>
      </g>
     </g>
     <g id="text_26">
      <text style="font-size: 9.2px; font-family: 'DejaVu Sans', 'Bitstream Vera Sans', 'Computer Modern Sans Serif', 'Lucida Grande', 'Verdana', 'Geneva', 'Lucid', 'Arial', 'Helvetica', 'Avant Garde', sans-serif; text-anchor: middle; fill: #333333" x="639.054094" y="302.770852" transform="rotate(-0 639.054094 302.770852)">0.80</text>
     </g>
    </g>
    <g id="xtick_10">
     <g id="line2d_48">
      <path d="M 704.813512 288.78029 
L 704.813512 28.541786 
" clip-path="url(#p26a72fe754)" style="fill: none; stroke: #b0b0b0; stroke-opacity: 0.18; stroke-width: 0.7; stroke-linecap: square"/>
     </g>
     <g id="line2d_49">
      <g>
       <use xlink:href="#m586f7f9c87" x="704.813512" y="288.78029" style="fill: #333333; stroke: #333333; stroke-width: 0.8"/>
      </g>
     </g>
     <g id="text_27">
      <text style="font-size: 9.2px; font-family: 'DejaVu Sans', 'Bitstream Vera Sans', 'Computer Modern Sans Serif', 'Lucida Grande', 'Verdana', 'Geneva', 'Lucid', 'Arial', 'Helvetica', 'Avant Garde', sans-serif; text-anchor: middle; fill: #333333" x="704.813512" y="302.770852" transform="rotate(-0 704.813512 302.770852)">0.85</text>
     </g>
    </g>
    <g id="xtick_11">
     <g id="line2d_50">
      <path d="M 770.572929 288.78029 
L 770.572929 28.541786 
" clip-path="url(#p26a72fe754)" style="fill: none; stroke: #b0b0b0; stroke-opacity: 0.18; stroke-width: 0.7; stroke-linecap: square"/>
     </g>
     <g id="line2d_51">
      <g>
       <use xlink:href="#m586f7f9c87" x="770.572929" y="288.78029" style="fill: #333333; stroke: #333333; stroke-width: 0.8"/>
      </g>
     </g>
     <g id="text_28">
      <text style="font-size: 9.2px; font-family: 'DejaVu Sans', 'Bitstream Vera Sans', 'Computer Modern Sans Serif', 'Lucida Grande', 'Verdana', 'Geneva', 'Lucid', 'Arial', 'Helvetica', 'Avant Garde', sans-serif; text-anchor: middle; fill: #333333" x="770.572929" y="302.770852" transform="rotate(-0 770.572929 302.770852)">0.90</text>
     </g>
    </g>
    <g id="xtick_12">
     <g id="line2d_52">
      <path d="M 836.332347 288.78029 
L 836.332347 28.541786 
" clip-path="url(#p26a72fe754)" style="fill: none; stroke: #b0b0b0; stroke-opacity: 0.18; stroke-width: 0.7; stroke-linecap: square"/>
     </g>
     <g id="line2d_53">
      <g>
       <use xlink:href="#m586f7f9c87" x="836.332347" y="288.78029" style="fill: #333333; stroke: #333333; stroke-width: 0.8"/>
      </g>
     </g>
     <g id="text_29">
      <text style="font-size: 9.2px; font-family: 'DejaVu Sans', 'Bitstream Vera Sans', 'Computer Modern Sans Serif', 'Lucida Grande', 'Verdana', 'Geneva', 'Lucid', 'Arial', 'Helvetica', 'Avant Garde', sans-serif; text-anchor: middle; fill: #333333" x="836.332347" y="302.770852" transform="rotate(-0 836.332347 302.770852)">0.95</text>
     </g>
    </g>
    <g id="text_30">
     <text style="font-size: 10.4px; font-family: 'DejaVu Sans', 'Bitstream Vera Sans', 'Computer Modern Sans Serif', 'Lucida Grande', 'Verdana', 'Geneva', 'Lucid', 'Arial', 'Helvetica', 'Avant Garde', sans-serif; text-anchor: middle; fill: #222222" x="661.582806" y="316.58654" transform="rotate(-0 661.582806 316.58654)">velocidad maxima local Umax (m/s)</text>
    </g>
   </g>
   <g id="matplotlib.axis_6">
    <g id="ytick_15">
     <g id="line2d_54">
      <path d="M 469.369217 286.629559 
L 853.796395 286.629559 
" clip-path="url(#p26a72fe754)" style="fill: none; stroke: #b0b0b0; stroke-opacity: 0.18; stroke-width: 0.7; stroke-linecap: square"/>
     </g>
     <g id="line2d_55">
      <g>
       <use xlink:href="#m6ee2b4618d" x="469.369217" y="286.629559" style="fill: #333333; stroke: #333333; stroke-width: 0.8"/>
      </g>
     </g>
    </g>
    <g id="ytick_16">
     <g id="line2d_56">
      <path d="M 469.369217 243.61493 
L 853.796395 243.61493 
" clip-path="url(#p26a72fe754)" style="fill: none; stroke: #b0b0b0; stroke-opacity: 0.18; stroke-width: 0.7; stroke-linecap: square"/>
     </g>
     <g id="line2d_57">
      <g>
       <use xlink:href="#m6ee2b4618d" x="469.369217" y="243.61493" style="fill: #333333; stroke: #333333; stroke-width: 0.8"/>
      </g>
     </g>
    </g>
    <g id="ytick_17">
     <g id="line2d_58">
      <path d="M 469.369217 200.600301 
L 853.796395 200.600301 
" clip-path="url(#p26a72fe754)" style="fill: none; stroke: #b0b0b0; stroke-opacity: 0.18; stroke-width: 0.7; stroke-linecap: square"/>
     </g>
     <g id="line2d_59">
      <g>
       <use xlink:href="#m6ee2b4618d" x="469.369217" y="200.600301" style="fill: #333333; stroke: #333333; stroke-width: 0.8"/>
      </g>
     </g>
    </g>
    <g id="ytick_18">
     <g id="line2d_60">
      <path d="M 469.369217 157.585672 
L 853.796395 157.585672 
" clip-path="url(#p26a72fe754)" style="fill: none; stroke: #b0b0b0; stroke-opacity: 0.18; stroke-width: 0.7; stroke-linecap: square"/>
     </g>
     <g id="line2d_61">
      <g>
       <use xlink:href="#m6ee2b4618d" x="469.369217" y="157.585672" style="fill: #333333; stroke: #333333; stroke-width: 0.8"/>
      </g>
     </g>
    </g>
    <g id="ytick_19">
     <g id="line2d_62">
      <path d="M 469.369217 114.571044 
L 853.796395 114.571044 
" clip-path="url(#p26a72fe754)" style="fill: none; stroke: #b0b0b0; stroke-opacity: 0.18; stroke-width: 0.7; stroke-linecap: square"/>
     </g>
     <g id="line2d_63">
      <g>
       <use xlink:href="#m6ee2b4618d" x="469.369217" y="114.571044" style="fill: #333333; stroke: #333333; stroke-width: 0.8"/>
      </g>
     </g>
    </g>
    <g id="ytick_20">
     <g id="line2d_64">
      <path d="M 469.369217 71.556415 
L 853.796395 71.556415 
" clip-path="url(#p26a72fe754)" style="fill: none; stroke: #b0b0b0; stroke-opacity: 0.18; stroke-width: 0.7; stroke-linecap: square"/>
     </g>
     <g id="line2d_65">
      <g>
       <use xlink:href="#m6ee2b4618d" x="469.369217" y="71.556415" style="fill: #333333; stroke: #333333; stroke-width: 0.8"/>
      </g>
     </g>
    </g>
    <g id="ytick_21">
     <g id="line2d_66">
      <path d="M 469.369217 28.541786 
L 853.796395 28.541786 
" clip-path="url(#p26a72fe754)" style="fill: none; stroke: #b0b0b0; stroke-opacity: 0.18; stroke-width: 0.7; stroke-linecap: square"/>
     </g>
     <g id="line2d_67">
      <g>
       <use xlink:href="#m6ee2b4618d" x="469.369217" y="28.541786" style="fill: #333333; stroke: #333333; stroke-width: 0.8"/>
      </g>
     </g>
    </g>
   </g>
   <g id="line2d_68">
    <path d="M 469.369217 275.875901 
L 853.796395 275.875901 
" clip-path="url(#p26a72fe754)" style="fill: none; stroke-dasharray: 4.255,1.84; stroke-dashoffset: 0; stroke: #222222; stroke-width: 1.15"/>
   </g>
   <g id="patch_8">
    <path d="M 469.369217 288.78029 
L 469.369217 28.541786 
" style="fill: none; stroke: #444444; stroke-width: 0.8; stroke-linejoin: miter; stroke-linecap: square"/>
   </g>
   <g id="patch_9">
    <path d="M 469.369217 288.78029 
L 853.796395 288.78029 
" style="fill: none; stroke: #444444; stroke-width: 0.8; stroke-linejoin: miter; stroke-linecap: square"/>
   </g>
  </g>
  <g id="text_31">
   <text style="font-size: 12.24px; font-family: 'DejaVu Sans', 'Bitstream Vera Sans', 'Computer Modern Sans Serif', 'Lucida Grande', 'Verdana', 'Geneva', 'Lucid', 'Arial', 'Helvetica', 'Avant Garde', sans-serif; text-anchor: middle" x="454.19976" y="16.500487" transform="rotate(-0 454.19976 16.500487)">Respuesta del bloque frente a la hidraulica local</text>
  </g>
  <g id="legend_1">
   <g id="patch_10">
    <path d="M 245.401354 341.39976 
L 662.998166 341.39976 
Q 664.678166 341.39976 664.678166 339.71976 
L 664.678166 328.230135 
Q 664.678166 326.550135 662.998166 326.550135 
L 245.401354 326.550135 
Q 243.721354 326.550135 243.721354 328.230135 
L 243.721354 339.71976 
Q 243.721354 341.39976 245.401354 341.39976 
z
" style="fill: #ffffff; opacity: 0.96; stroke: #d5d5d5; stroke-linejoin: miter"/>
   </g>
   <g id="line2d_69">
    <path d="M 247.081354 333.352823 
L 255.481354 333.352823 
L 263.881354 333.352823 
" style="fill: none; stroke: #000000; stroke-opacity: 0; stroke-width: 1.5; stroke-linecap: square"/>
    <defs>
     <path id="m7a2e92d0ce" d="M 0 4 
C 1.060812 4 2.078319 3.578535 2.828427 2.828427 
C 3.578535 2.078319 4 1.060812 4 0 
C 4 -1.060812 3.578535 -2.078319 2.828427 -2.828427 
C 2.078319 -3.578535 1.060812 -4 0 -4 
C -1.060812 -4 -2.078319 -3.578535 -2.828427 -2.828427 
C -3.578535 -2.078319 -4 -1.060812 -4 0 
C -4 1.060812 -3.578535 2.078319 -2.828427 2.828427 
C -2.078319 3.578535 -1.060812 4 0 4 
z
" style="stroke: #222222"/>
    </defs>
    <g>
     <use xlink:href="#m7a2e92d0ce" x="255.481354" y="333.352823" style="fill: #d55e00; stroke: #222222"/>
    </g>
   </g>
   <g id="text_32">
    <text style="font-size: 8.4px; font-family: 'DejaVu Sans', 'Bitstream Vera Sans', 'Computer Modern Sans Serif', 'Lucida Grande', 'Verdana', 'Geneva', 'Lucid', 'Arial', 'Helvetica', 'Avant Garde', sans-serif; text-anchor: start" x="270.601354" y="336.292822" transform="rotate(-0 270.601354 336.292822)">m*=0.85</text>
   </g>
   <g id="line2d_70">
    <path d="M 325.525541 333.352823 
L 333.925541 333.352823 
L 342.325541 333.352823 
" style="fill: none; stroke: #000000; stroke-opacity: 0; stroke-width: 1.5; stroke-linecap: square"/>
    <defs>
     <path id="m68c3040e1e" d="M 0 4 
C 1.060812 4 2.078319 3.578535 2.828427 2.828427 
C 3.578535 2.078319 4 1.060812 4 0 
C 4 -1.060812 3.578535 -2.078319 2.828427 -2.828427 
C 2.078319 -3.578535 1.060812 -4 0 -4 
C -1.060812 -4 -2.078319 -3.578535 -2.828427 -2.828427 
C -3.578535 -2.078319 -4 -1.060812 -4 0 
C -4 1.060812 -3.578535 2.078319 -2.828427 2.828427 
C -2.078319 3.578535 -1.060812 4 0 4 
z
" style="stroke: #222222"/>
    </defs>
    <g>
     <use xlink:href="#m68c3040e1e" x="333.925541" y="333.352823" style="fill: #0072b2; stroke: #222222"/>
    </g>
   </g>
   <g id="text_33">
    <text style="font-size: 8.4px; font-family: 'DejaVu Sans', 'Bitstream Vera Sans', 'Computer Modern Sans Serif', 'Lucida Grande', 'Verdana', 'Geneva', 'Lucid', 'Arial', 'Helvetica', 'Avant Garde', sans-serif; text-anchor: start" x="349.045541" y="336.292822" transform="rotate(-0 349.045541 336.292822)">m*=1</text>
   </g>
   <g id="line2d_71">
    <path d="M 390.611104 333.352823 
L 399.011104 333.352823 
L 407.411104 333.352823 
" style="fill: none; stroke: #000000; stroke-opacity: 0; stroke-width: 1.5; stroke-linecap: square"/>
    <defs>
     <path id="m362b8a93d7" d="M 0 4 
C 1.060812 4 2.078319 3.578535 2.828427 2.828427 
C 3.578535 2.078319 4 1.060812 4 0 
C 4 -1.060812 3.578535 -2.078319 2.828427 -2.828427 
C 2.078319 -3.578535 1.060812 -4 0 -4 
C -1.060812 -4 -2.078319 -3.578535 -2.828427 -2.828427 
C -3.578535 -2.078319 -4 -1.060812 -4 0 
C -4 1.060812 -3.578535 2.078319 -2.828427 2.828427 
C -2.078319 3.578535 -1.060812 4 0 4 
z
" style="stroke: #222222"/>
    </defs>
    <g>
     <use xlink:href="#m362b8a93d7" x="399.011104" y="333.352823" style="fill: #009e73; stroke: #222222"/>
    </g>
   </g>
   <g id="text_34">
    <text style="font-size: 8.4px; font-family: 'DejaVu Sans', 'Bitstream Vera Sans', 'Computer Modern Sans Serif', 'Lucida Grande', 'Verdana', 'Geneva', 'Lucid', 'Arial', 'Helvetica', 'Avant Garde', sans-serif; text-anchor: start" x="414.131104" y="336.292822" transform="rotate(-0 414.131104 336.292822)">m*=1.15</text>
   </g>
   <g id="line2d_72">
    <path d="M 469.055291 333.352823 
L 477.455291 333.352823 
L 485.855291 333.352823 
" style="fill: none; stroke: #000000; stroke-opacity: 0; stroke-width: 1.5; stroke-linecap: square"/>
    <defs>
     <path id="md3ef4a9c28" d="M 0 4 
C 1.060812 4 2.078319 3.578535 2.828427 2.828427 
C 3.578535 2.078319 4 1.060812 4 0 
C 4 -1.060812 3.578535 -2.078319 2.828427 -2.828427 
C 2.078319 -3.578535 1.060812 -4 0 -4 
C -1.060812 -4 -2.078319 -3.578535 -2.828427 -2.828427 
C -3.578535 -2.078319 -4 -1.060812 -4 0 
C -4 1.060812 -3.578535 2.078319 -2.828427 2.828427 
C -2.078319 3.578535 -1.060812 4 0 4 
z
" style="stroke: #222222"/>
    </defs>
    <g>
     <use xlink:href="#md3ef4a9c28" x="477.455291" y="333.352823" style="fill: #cc79a7; stroke: #222222"/>
    </g>
   </g>
   <g id="text_35">
    <text style="font-size: 8.4px; font-family: 'DejaVu Sans', 'Bitstream Vera Sans', 'Computer Modern Sans Serif', 'Lucida Grande', 'Verdana', 'Geneva', 'Lucid', 'Arial', 'Helvetica', 'Avant Garde', sans-serif; text-anchor: start" x="492.575291" y="336.292822" transform="rotate(-0 492.575291 336.292822)">m*=1.25</text>
   </g>
   <g id="line2d_73">
    <path d="M 547.499479 333.352823 
L 555.899479 333.352823 
L 564.299479 333.352823 
" style="fill: none; stroke: #000000; stroke-opacity: 0; stroke-width: 1.5; stroke-linecap: square"/>
    <g>
     <use xlink:href="#m68c3040e1e" x="555.899479" y="333.352823" style="fill: #0072b2; stroke: #222222"/>
    </g>
   </g>
   <g id="text_36">
    <text style="font-size: 8.4px; font-family: 'DejaVu Sans', 'Bitstream Vera Sans', 'Computer Modern Sans Serif', 'Lucida Grande', 'Verdana', 'Geneva', 'Lucid', 'Arial', 'Helvetica', 'Avant Garde', sans-serif; text-anchor: start" x="571.019479" y="336.292822" transform="rotate(-0 571.019479 336.292822)">Estable</text>
   </g>
   <g id="line2d_74">
    <path d="M 618.778729 333.352823 
L 627.178729 333.352823 
L 635.578729 333.352823 
" style="fill: none; stroke: #000000; stroke-opacity: 0; stroke-width: 1.5; stroke-linecap: square"/>
    <defs>
     <path id="m797b5f474e" d="M 0 -4 
L -4 4 
L 4 4 
z
" style="stroke: #222222; stroke-linejoin: miter"/>
    </defs>
    <g>
     <use xlink:href="#m797b5f474e" x="627.178729" y="333.352823" style="fill: #d55e00; stroke: #222222; stroke-linejoin: miter"/>
    </g>
   </g>
   <g id="text_37">
    <text style="font-size: 8.4px; font-family: 'DejaVu Sans', 'Bitstream Vera Sans', 'Computer Modern Sans Serif', 'Lucida Grande', 'Verdana', 'Geneva', 'Lucid', 'Arial', 'Helvetica', 'Avant Garde', sans-serif; text-anchor: start" x="642.298729" y="336.292822" transform="rotate(-0 642.298729 336.292822)">Fallo</text>
   </g>
  </g>
 </g>
 <defs>
  <clipPath id="p75223f4f5b">
   <rect x="63.633813" y="28.541786" width="384.427178" height="260.238504"/>
  </clipPath>
  <clipPath id="pff2f0367bc">
   <rect x="853.796395" y="28.541786" width="0" height="260.238504"/>
  </clipPath>
  <clipPath id="p26a72fe754">
   <rect x="469.369217" y="28.541786" width="384.427178" height="260.238504"/>
  </clipPath>
 </defs>
</svg>
