<?xml version="1.0" encoding="utf-8" standalone="no"?>
<!DOCTYPE svg PUBLIC "-//W3C//DTD SVG 1.1//EN"
  "http://www.w3.org/Graphics/SVG/1.1/DTD/svg11.dtd">
<svg xmlns:xlink="http://www.w3.org/1999/xlink" width="555.59952pt" height="395.99976pt" viewBox="0 0 555.59952 395.99976" xmlns="http://www.w3.org/2000/svg" version="1.1">
 <metadata>
  <rdf:RDF xmlns:dc="http://purl.org/dc/elements/1.1/" xmlns:cc="http://creativecommons.org/ns#" xmlns:rdf="http://www.w3.org/1999/02/22-rdf-syntax-ns#">
   <cc:Work>
    <dc:type rdf:resource="http://purl.org/dc/dcmitype/StillImage"/>
    <dc:date>2026-05-14T23:29:57.334747</dc:date>
    <dc:format>image/svg+xml</dc:format>
    <dc:creator>
     <cc:Agent>
      <dc:title>Matplotlib v3.10.8, https://matplotlib.org/</dc:title>
     </cc:Agent>
    </dc:creator>
   </cc:Work>
  </rdf:RDF>
 </metadata>
 <defs>
  <style type="text/css">*{stroke-linejoin: round; stroke-linecap: butt}</style>
 </defs>
 <g id="figure_1">
  <g id="patch_1">
   <path d="M 0 395.99976 
L 555.59952 395.99976 
L 555.59952 0 
L 0 0 
z
" style="fill: #ffffff"/>
  </g>
  <g id="axes_1">
   <g id="patch_2">
    <path d="M 48.749625 338.89104 
L 530.859864 338.89104 
L 530.859864 53.19318 
L 48.749625 53.19318 
z
" style="fill: #ffffff"/>
   </g>
   <g id="axes_2">
    <g id="patch_3">
     <path d="M 48.749625 53.19318 
L 530.859864 53.19318 
L 530.859864 53.19318 
L 48.749625 53.19318 
z
" style="fill: #ffffff"/>
    </g>
    <g id="matplotlib.axis_1">
     <g id="xtick_1">
      <g id="line2d_1">
       <path d="M 52.734007 53.19318 
L 52.734007 53.19318 
" clip-path="url(#pc3f68c9b6f)" style="fill: none; stroke: #b0b0b0; stroke-opacity: 0.18; stroke-width: 0.7; stroke-linecap: square"/>
      </g>
      <g id="line2d_2">
       <defs>
        <path id="me909fa8167" d="M 0 0 
L 0 -3.5 
" style="stroke: #333333; stroke-width: 0.8"/>
       </defs>
       <g>
        <use xlink:href="#me909fa8167" x="52.734007" y="53.19318" style="fill: #333333; stroke: #333333; stroke-width: 0.8"/>
       </g>
      </g>
      <g id="text_1">
       <text style="font-size: 9.2px; font-family: 'DejaVu Sans', 'Bitstream Vera Sans', 'Computer Modern Sans Serif', 'Lucida Grande', 'Verdana', 'Geneva', 'Lucid', 'Arial', 'Helvetica', 'Avant Garde', sans-serif; text-anchor: middle; fill: #333333" x="52.734007" y="44.279867" transform="rotate(-0 52.734007 44.279867)">0.0</text>
      </g>
     </g>
     <g id="xtick_2">
      <g id="line2d_3">
       <path d="M 132.087571 53.19318 
L 132.087571 53.19318 
" clip-path="url(#pc3f68c9b6f)" style="fill: none; stroke: #b0b0b0; stroke-opacity: 0.18; stroke-width: 0.7; stroke-linecap: square"/>
      </g>
      <g id="line2d_4">
       <g>
        <use xlink:href="#me909fa8167" x="132.087571" y="53.19318" style="fill: #333333; stroke: #333333; stroke-width: 0.8"/>
       </g>
      </g>
      <g id="text_2">
       <text style="font-size: 9.2px; font-family: 'DejaVu Sans', 'Bitstream Vera Sans', 'Computer Modern Sans Serif', 'Lucida Grande', 'Verdana', 'Geneva', 'Lucid', 'Arial', 'Helvetica', 'Avant Garde', sans-serif; text-anchor: middle; fill: #333333" x="132.087571" y="44.279867" transform="rotate(-0 132.087571 44.279867)">20.0</text>
      </g>
     </g>
     <g id="xtick_3">
      <g id="line2d_5">
       <path d="M 211.441136 53.19318 
L 211.441136 53.19318 
" clip-path="url(#pc3f68c9b6f)" style="fill: none; stroke: #b0b0b0; stroke-opacity: 0.18; stroke-width: 0.7; stroke-linecap: square"/>
      </g>
      <g id="line2d_6">
       <g>
        <use xlink:href="#me909fa8167" x="211.441136" y="53.19318" style="fill: #333333; stroke: #333333; stroke-width: 0.8"/>
       </g>
      </g>
      <g id="text_3">
       <text style="font-size: 9.2px; font-family: 'DejaVu Sans', 'Bitstream Vera Sans', 'Computer Modern Sans Serif', 'Lucida Grande', 'Verdana', 'Geneva', 'Lucid', 'Arial', 'Helvetica', 'Avant Garde', sans-serif; text-anchor: middle; fill: #333333" x="211.441136" y="44.279867" transform="rotate(-0 211.441136 44.279867)">40.0</text>
      </g>
     </g>
     <g id="xtick_4">
      <g id="line2d_7">
       <path d="M 290.7947 53.19318 
L 290.7947 53.19318 
" clip-path="url(#pc3f68c9b6f)" style="fill: none; stroke: #b0b0b0; stroke-opacity: 0.18; stroke-width: 0.7; stroke-linecap: square"/>
      </g>
      <g id="line2d_8">
       <g>
        <use xlink:href="#me909fa8167" x="290.7947" y="53.19318" style="fill: #333333; stroke: #333333; stroke-width: 0.8"/>
       </g>
      </g>
      <g id="text_4">
       <text style="font-size: 9.2px; font-family: 'DejaVu Sans', 'Bitstream Vera Sans', 'Computer Modern Sans Serif', 'Lucida Grande', 'Verdana', 'Geneva', 'Lucid', 'Arial', 'Helvetica', 'Avant Garde', sans-serif; text-anchor: middle; fill: #333333" x="290.7947" y="44.279867" transform="rotate(-0 290.7947 44.279867)">60.0</text>
      </g>
     </g>
     <g id="xtick_5">
      <g id="line2d_9">
       <path d="M 370.148264 53.19318 
L 370.148264 53.19318 
" clip-path="url(#pc3f68c9b6f)" style="fill: none; stroke: #b0b0b0; stroke-opacity: 0.18; stroke-width: 0.7; stroke-linecap: square"/>
      </g>
      <g id="line2d_10">
       <g>
        <use xlink:href="#me909fa8167" x="370.148264" y="53.19318" style="fill: #333333; stroke: #333333; stroke-width: 0.8"/>
       </g>
      </g>
      <g id="text_5">
       <text style="font-size: 9.2px; font-family: 'DejaVu Sans', 'Bitstream Vera Sans', 'Computer Modern Sans Serif', 'Lucida Grande', 'Verdana', 'Geneva', 'Lucid', 'Arial', 'Helvetica', 'Avant Garde', sans-serif; text-anchor: middle; fill: #333333" x="370.148264" y="44.279867" transform="rotate(-0 370.148264 44.279867)">80.0</text>
      </g>
     </g>
     <g id="xtick_6">
      <g id="line2d_11">
       <path d="M 449.501828 53.19318 
L 449.501828 53.19318 
" clip-path="url(#pc3f68c9b6f)" style="fill: none; stroke: #b0b0b0; stroke-opacity: 0.18; stroke-width: 0.7; stroke-linecap: square"/>
      </g>
      <g id="line2d_12">
       <g>
        <use xlink:href="#me909fa8167" x="449.501828" y="53.19318" style="fill: #333333; stroke: #333333; stroke-width: 0.8"/>
       </g>
      </g>
      <g id="text_6">
       <text style="font-size: 9.2px; font-family: 'DejaVu Sans', 'Bitstream Vera Sans', 'Computer Modern Sans Serif', 'Lucida Grande', 'Verdana', 'Geneva', 'Lucid', 'Arial', 'Helvetica', 'Avant Garde', sans-serif; text-anchor: middle; fill: #333333" x="449.501828" y="44.279867" transform="rotate(-0 449.501828 44.279867)">100.0</text>
      </g>
     </g>
     <g id="xtick_7">
      <g id="line2d_13">
       <path d="M 528.855393 53.19318 
L 528.855393 53.19318 
" clip-path="url(#pc3f68c9b6f)" style="fill: none; stroke: #b0b0b0; stroke-opacity: 0.18; stroke-width: 0.7; stroke-linecap: square"/>
      </g>
      <g id="line2d_14">
       <g>
        <use xlink:href="#me909fa8167" x="528.855393" y="53.19318" style="fill: #333333; stroke: #333333; stroke-width: 0.8"/>
       </g>
      </g>
      <g id="text_7">
       <text style="font-size: 9.2px; font-family: 'DejaVu Sans', 'Bitstream Vera Sans', 'Computer Modern Sans Serif', 'Lucida Grande', 'Verdana', 'Geneva', 'Lucid', 'Arial', 'Helvetica', 'Avant Garde', sans-serif; text-anchor: middle; fill: #333333" x="528.855393" y="44.279867" transform="rotate(-0 528.855393 44.279867)">120.0</text>
      </g>
     </g>
     <g id="text_8">
      <text style="font-size: 10.4px; font-family: 'DejaVu Sans', 'Bitstream Vera Sans', 'Computer Modern Sans Serif', 'Lucida Grande', 'Verdana', 'Geneva', 'Lucid', 'Arial', 'Helvetica', 'Avant Garde', sans-serif; text-anchor: middle; fill: #222222" x="289.804744" y="33.289305" transform="rotate(-0 289.804744 33.289305)">desplazamiento absoluto (mm)</text>
     </g>
    </g>
    <g id="matplotlib.axis_2"/>
    <g id="patch_4">
     <path d="M 48.749625 53.19318 
L 530.859864 53.19318 
" style="fill: none; stroke: #444444; stroke-width: 0.8; stroke-linejoin: miter; stroke-linecap: square"/>
    </g>
   </g>
   <g id="PathCollection_1">
    <path d="M 57.643914 289.180113 
C 58.583194 289.180113 59.484129 288.806933 60.1483 288.142762 
C 60.812471 287.478591 61.185651 286.577656 61.185651 285.638376 
C 61.185651 284.699096 60.812471 283.798161 60.1483 283.13399 
C 59.484129 282.469818 58.583194 282.096639 57.643914 282.096639 
C 56.704634 282.096639 55.803699 282.469818 55.139527 283.13399 
C 54.475356 283.798161 54.102177 284.699096 54.102177 285.638376 
C 54.102177 286.577656 54.475356 287.478591 55.139527 288.142762 
C 55.803699 288.806933 56.704634 289.180113 57.643914 289.180113 
z
" clip-path="url(#p694c7e07ae)" style="fill: #d55e00; fill-opacity: 0.88; stroke: #222222; stroke-opacity: 0.88; stroke-width: 0.7"/>
    <path d="M 57.63998 281.510953 
C 58.579221 281.510953 59.480119 281.137789 60.144263 280.473645 
C 60.808406 279.809502 61.181571 278.908603 61.181571 277.969362 
C 61.181571 277.030121 60.808406 276.129223 60.144263 275.465079 
C 59.480119 274.800936 58.579221 274.427771 57.63998 274.427771 
C 56.700739 274.427771 55.79984 274.800936 55.135697 275.465079 
C 54.471553 276.129223 54.098389 277.030121 54.098389 277.969362 
C 54.098389 278.908603 54.471553 279.809502 55.135697 280.473645 
C 55.79984 281.137789 56.700739 281.510953 57.63998 281.510953 
z
" clip-path="url(#p694c7e07ae)" style="fill: #009e73; fill-opacity: 0.88; stroke: #222222; stroke-opacity: 0.88; stroke-width: 0.7"/>
    <path d="M 57.63998 280.131239 
C 58.579221 280.131239 59.480119 279.758074 60.144263 279.093931 
C 60.808406 278.429787 61.181571 277.528889 61.181571 276.589648 
C 61.181571 275.650407 60.808406 274.749509 60.144263 274.085365 
C 59.480119 273.421221 58.579221 273.048057 57.63998 273.048057 
C 56.700739 273.048057 55.79984 273.421221 55.135697 274.085365 
C 54.471553 274.749509 54.098389 275.650407 54.098389 276.589648 
C 54.098389 277.528889 54.471553 278.429787 55.135697 279.093931 
C 55.79984 279.758074 56.700739 280.131239 57.63998 280.131239 
z
" clip-path="url(#p694c7e07ae)" style="fill: #cc79a7; fill-opacity: 0.88; stroke: #222222; stroke-opacity: 0.88; stroke-width: 0.7"/>
    <path d="M 60.639677 278.136842 
C 61.608063 278.136842 62.536917 277.752098 63.22167 277.067345 
C 63.906422 276.382593 64.291166 275.453739 64.291166 274.485353 
C 64.291166 273.516966 63.906422 272.588112 63.22167 271.90336 
C 62.536917 271.218608 61.608063 270.833864 60.639677 270.833864 
C 59.671291 270.833864 58.742437 271.218608 58.057684 271.90336 
C 57.372932 272.588112 56.988188 273.516966 56.988188 274.485353 
C 56.988188 275.453739 57.372932 276.382593 58.057684 277.067345 
C 58.742437 277.752098 59.671291 278.136842 60.639677 278.136842 
z
" clip-path="url(#p694c7e07ae)" style="fill: #0072b2; fill-opacity: 0.88; stroke: #222222; stroke-opacity: 0.88; stroke-width: 0.7"/>
    <path d="M 57.644818 280.232546 
C 58.584107 280.232546 59.485051 279.859363 60.149228 279.195186 
C 60.813406 278.531008 61.186589 277.630064 61.186589 276.690776 
C 61.186589 275.751487 60.813406 274.850543 60.149228 274.186365 
C 59.485051 273.522188 58.584107 273.149005 57.644818 273.149005 
C 56.705529 273.149005 55.804585 273.522188 55.140408 274.186365 
C 54.47623 274.850543 54.103047 275.751487 54.103047 276.690776 
C 54.103047 277.630064 54.47623 278.531008 55.140408 279.195186 
C 55.804585 279.859363 56.705529 280.232546 57.644818 280.232546 
z
" clip-path="url(#p694c7e07ae)" style="fill: #009e73; fill-opacity: 0.88; stroke: #222222; stroke-opacity: 0.88; stroke-width: 0.7"/>
    <path d="M 57.887452 280.636702 
C 58.829131 280.636702 59.732369 280.262568 60.398237 279.596701 
C 61.064105 278.930833 61.438238 278.027595 61.438238 277.085916 
C 61.438238 276.144236 61.064105 275.240999 60.398237 274.575131 
C 59.732369 273.909263 58.829131 273.53513 57.887452 273.53513 
C 56.945772 273.53513 56.042535 273.909263 55.376667 274.575131 
C 54.710799 275.240999 54.336666 276.144236 54.336666 277.085916 
C 54.336666 278.027595 54.710799 278.930833 55.376667 279.596701 
C 56.042535 280.262568 56.945772 280.636702 57.887452 280.636702 
z
" clip-path="url(#p694c7e07ae)" style="fill: #009e73; fill-opacity: 0.88; stroke: #222222; stroke-opacity: 0.88; stroke-width: 0.7"/>
    <path d="M 57.777954 279.53267 
C 58.718555 279.53267 59.620759 279.158965 60.285864 278.493859 
C 60.95097 277.828754 61.324675 276.92655 61.324675 275.985949 
C 61.324675 275.045348 60.95097 274.143145 60.285864 273.478039 
C 59.620759 272.812934 58.718555 272.439229 57.777954 272.439229 
C 56.837353 272.439229 55.93515 272.812934 55.270044 273.478039 
C 54.604939 274.143145 54.231234 275.045348 54.231234 275.985949 
C 54.231234 276.92655 54.604939 277.828754 55.270044 278.493859 
C 55.93515 279.158965 56.837353 279.53267 57.777954 279.53267 
z
" clip-path="url(#p694c7e07ae)" style="fill: #cc79a7; fill-opacity: 0.88; stroke: #222222; stroke-opacity: 0.88; stroke-width: 0.7"/>
    <path d="M 57.644614 283.180847 
C 58.583901 283.180847 59.484843 282.807665 60.149019 282.143489 
C 60.813195 281.479313 61.186378 280.578371 61.186378 279.639084 
C 61.186378 278.699797 60.813195 277.798855 60.149019 277.134679 
C 59.484843 276.470503 58.583901 276.097321 57.644614 276.097321 
C 56.705328 276.097321 55.804386 276.470503 55.14021 277.134679 
C 54.476034 277.798855 54.102851 278.699797 54.102851 279.639084 
C 54.102851 280.578371 54.476034 281.479313 55.14021 282.143489 
C 55.804386 282.807665 56.705328 283.180847 57.644614 283.180847 
z
" clip-path="url(#p694c7e07ae)" style="fill: #0072b2; fill-opacity: 0.88; stroke: #222222; stroke-opacity: 0.88; stroke-width: 0.7"/>
    <path d="M 58.730166 243.800629 
C 59.680102 243.800629 60.59126 243.423215 61.262967 242.751509 
C 61.934673 242.079802 62.312087 241.168644 62.312087 240.218708 
C 62.312087 239.268771 61.934673 238.357613 61.262967 237.685907 
C 60.59126 237.0142 59.680102 236.636786 58.730166 236.636786 
C 57.780229 236.636786 56.869072 237.0142 56.197365 237.685907 
C 55.525658 238.357613 55.148244 239.268771 55.148244 240.218708 
C 55.148244 241.168644 55.525658 242.079802 56.197365 242.751509 
C 56.869072 243.423215 57.780229 243.800629 58.730166 243.800629 
z
" clip-path="url(#p694c7e07ae)" style="fill: #0072b2; fill-opacity: 0.88; stroke: #222222; stroke-opacity: 0.88; stroke-width: 0.7"/>
    <path d="M 58.393924 245.847986 
C 59.340574 245.847986 60.24858 245.471878 60.917963 244.802494 
C 61.587346 244.133111 61.963455 243.225106 61.963455 242.278455 
C 61.963455 241.331804 61.587346 240.423798 60.917963 239.754415 
C 60.24858 239.085032 59.340574 238.708924 58.393924 238.708924 
C 57.447273 238.708924 56.539267 239.085032 55.869884 239.754415 
C 55.200501 240.423798 54.824393 241.331804 54.824393 242.278455 
C 54.824393 243.225106 55.200501 244.133111 55.869884 244.802494 
C 56.539267 245.471878 57.447273 245.847986 58.393924 245.847986 
z
" clip-path="url(#p694c7e07ae)" style="fill: #0072b2; fill-opacity: 0.88; stroke: #222222; stroke-opacity: 0.88; stroke-width: 0.7"/>
    <path d="M 67.801358 280.979026 
C 68.836013 280.979026 69.828431 280.567953 70.560042 279.836342 
C 71.291654 279.10473 71.702727 278.112312 71.702727 277.077657 
C 71.702727 276.043002 71.291654 275.050584 70.560042 274.318972 
C 69.828431 273.58736 68.836013 273.176287 67.801358 273.176287 
C 66.766702 273.176287 65.774285 273.58736 65.042673 274.318972 
C 64.311061 275.050584 63.899988 276.043002 63.899988 277.077657 
C 63.899988 278.112312 64.311061 279.10473 65.042673 279.836342 
C 65.774285 280.567953 66.766702 280.979026 67.801358 280.979026 
z
" clip-path="url(#p694c7e07ae)" style="fill: #0072b2; fill-opacity: 0.88; stroke: #222222; stroke-opacity: 0.88; stroke-width: 0.7"/>
    <path d="M 61.945338 279.381845 
C 62.92614 279.381845 63.866902 278.992168 64.560434 278.298637 
C 65.253966 277.605105 65.643642 276.664343 65.643642 275.683541 
C 65.643642 274.702739 65.253966 273.761977 64.560434 273.068445 
C 63.866902 272.374914 62.92614 271.985237 61.945338 271.985237 
C 60.964537 271.985237 60.023774 272.374914 59.330242 273.068445 
C 58.636711 273.761977 58.247034 274.702739 58.247034 275.683541 
C 58.247034 276.664343 58.636711 277.605105 59.330242 278.298637 
C 60.023774 278.992168 60.964537 279.381845 61.945338 279.381845 
z
" clip-path="url(#p694c7e07ae)" style="fill: #0072b2; fill-opacity: 0.88; stroke: #222222; stroke-opacity: 0.88; stroke-width: 0.7"/>
    <path d="M 57.643823 279.793686 
C 58.583101 279.793686 59.484036 279.420506 60.148207 278.756336 
C 60.812377 278.092165 61.185556 277.191231 61.185556 276.251952 
C 61.185556 275.312673 60.812377 274.411738 60.148207 273.747568 
C 59.484036 273.083397 58.583101 272.710218 57.643823 272.710218 
C 56.704544 272.710218 55.803609 273.083397 55.139439 273.747568 
C 54.475268 274.411738 54.102089 275.312673 54.102089 276.251952 
C 54.102089 277.191231 54.475268 278.092165 55.139439 278.756336 
C 55.803609 279.420506 56.704544 279.793686 57.643823 279.793686 
z
" clip-path="url(#p694c7e07ae)" style="fill: #0072b2; fill-opacity: 0.88; stroke: #222222; stroke-opacity: 0.88; stroke-width: 0.7"/>
    <path d="M 57.644008 278.288392 
C 58.583289 278.288392 59.484226 277.915212 60.148397 277.25104 
C 60.812569 276.586868 61.185749 275.685932 61.185749 274.746651 
C 61.185749 273.80737 60.812569 272.906434 60.148397 272.242262 
C 59.484226 271.57809 58.583289 271.20491 57.644008 271.20491 
C 56.704728 271.20491 55.803791 271.57809 55.13962 272.242262 
C 54.475448 272.906434 54.102268 273.80737 54.102268 274.746651 
C 54.102268 275.685932 54.475448 276.586868 55.13962 277.25104 
C 55.803791 277.915212 56.704728 278.288392 57.644008 278.288392 
z
" clip-path="url(#p694c7e07ae)" style="fill: #0072b2; fill-opacity: 0.88; stroke: #222222; stroke-opacity: 0.88; stroke-width: 0.7"/>
    <path d="M 57.644614 283.595886 
C 58.583901 283.595886 59.484843 283.222703 60.149019 282.558527 
C 60.813195 281.894351 61.186378 280.993409 61.186378 280.054122 
C 61.186378 279.114836 60.813195 278.213894 60.149019 277.549718 
C 59.484843 276.885542 58.583901 276.512359 57.644614 276.512359 
C 56.705328 276.512359 55.804386 276.885542 55.14021 277.549718 
C 54.476034 278.213894 54.102851 279.114836 54.102851 280.054122 
C 54.102851 280.993409 54.476034 281.894351 55.14021 282.558527 
C 55.804386 283.222703 56.705328 283.595886 57.644614 283.595886 
z
" clip-path="url(#p694c7e07ae)" style="fill: #0072b2; fill-opacity: 0.88; stroke: #222222; stroke-opacity: 0.88; stroke-width: 0.7"/>
    <path d="M 69.669627 273.603165 
C 70.720883 273.603165 71.729223 273.185497 72.472574 272.442147 
C 73.215924 271.698796 73.633592 270.690456 73.633592 269.6392 
C 73.633592 268.587944 73.215924 267.579603 72.472574 266.836252 
C 71.729223 266.092902 70.720883 265.675234 69.669627 265.675234 
C 68.618371 265.675234 67.61003 266.092902 66.866679 266.836252 
C 66.123329 267.579603 65.705661 268.587944 65.705661 269.6392 
C 65.705661 270.690456 66.123329 271.698796 66.866679 272.442147 
C 67.61003 273.185497 68.618371 273.603165 69.669627 273.603165 
z
" clip-path="url(#p694c7e07ae)" style="fill: #0072b2; fill-opacity: 0.88; stroke: #222222; stroke-opacity: 0.88; stroke-width: 0.7"/>
    <path d="M 57.644008 288.877599 
C 58.583289 288.877599 59.484226 288.504419 60.148397 287.840247 
C 60.812569 287.176075 61.185749 286.275139 61.185749 285.335858 
C 61.185749 284.396577 60.812569 283.495641 60.148397 282.831469 
C 59.484226 282.167297 58.583289 281.794117 57.644008 281.794117 
C 56.704728 281.794117 55.803791 282.167297 55.13962 282.831469 
C 54.475448 283.495641 54.102268 284.396577 54.102268 285.335858 
C 54.102268 286.275139 54.475448 287.176075 55.13962 287.840247 
C 55.803791 288.504419 56.704728 288.877599 57.644008 288.877599 
z
" clip-path="url(#p694c7e07ae)" style="fill: #009e73; fill-opacity: 0.88; stroke: #222222; stroke-opacity: 0.88; stroke-width: 0.7"/>
    <path d="M 69.78038 275.286192 
C 70.832612 275.286192 71.841889 274.868136 72.585929 274.124096 
C 73.329969 273.380055 73.748026 272.370778 73.748026 271.318546 
C 73.748026 270.266315 73.329969 269.257038 72.585929 268.512997 
C 71.841889 267.768957 70.832612 267.350901 69.78038 267.350901 
C 68.728148 267.350901 67.718871 267.768957 66.974831 268.512997 
C 66.23079 269.257038 65.812734 270.266315 65.812734 271.318546 
C 65.812734 272.370778 66.23079 273.380055 66.974831 274.124096 
C 67.718871 274.868136 68.728148 275.286192 69.78038 275.286192 
z
" clip-path="url(#p694c7e07ae)" style="fill: #0072b2; fill-opacity: 0.88; stroke: #222222; stroke-opacity: 0.88; stroke-width: 0.7"/>
    <path d="M 57.640681 285.178428 
C 58.579929 285.178428 59.480834 284.805261 60.144982 284.141112 
C 60.809131 283.476964 61.182298 282.576059 61.182298 281.636811 
C 61.182298 280.697563 60.809131 279.796658 60.144982 279.132509 
C 59.480834 278.468361 58.579929 278.095194 57.640681 278.095194 
C 56.701433 278.095194 55.800528 278.468361 55.13638 279.132509 
C 54.472231 279.796658 54.099064 280.697563 54.099064 281.636811 
C 54.099064 282.576059 54.472231 283.476964 55.13638 284.141112 
C 55.800528 284.805261 56.701433 285.178428 57.640681 285.178428 
z
" clip-path="url(#p694c7e07ae)" style="fill: #009e73; fill-opacity: 0.88; stroke: #222222; stroke-opacity: 0.88; stroke-width: 0.7"/>
    <path d="M 57.640681 282.346175 
C 58.579929 282.346175 59.480834 281.973008 60.144982 281.308859 
C 60.809131 280.644711 61.182298 279.743806 61.182298 278.804558 
C 61.182298 277.86531 60.809131 276.964405 60.144982 276.300257 
C 59.480834 275.636108 58.579929 275.262941 57.640681 275.262941 
C 56.701433 275.262941 55.800528 275.636108 55.13638 276.300257 
C 54.472231 276.964405 54.099064 277.86531 54.099064 278.804558 
C 54.099064 279.743806 54.472231 280.644711 55.13638 281.308859 
C 55.800528 281.973008 56.701433 282.346175 57.640681 282.346175 
z
" clip-path="url(#p694c7e07ae)" style="fill: #cc79a7; fill-opacity: 0.88; stroke: #222222; stroke-opacity: 0.88; stroke-width: 0.7"/>
    <path d="M 57.645331 285.406752 
C 58.584625 285.406752 59.485574 285.033567 60.149755 284.369386 
C 60.813935 283.705205 61.187121 282.804256 61.187121 281.864962 
C 61.187121 280.925669 60.813935 280.02472 60.149755 279.360539 
C 59.485574 278.696358 58.584625 278.323173 57.645331 278.323173 
C 56.706037 278.323173 55.805088 278.696358 55.140907 279.360539 
C 54.476726 280.02472 54.103541 280.925669 54.103541 281.864962 
C 54.103541 282.804256 54.476726 283.705205 55.140907 284.369386 
C 55.805088 285.033567 56.706037 285.406752 57.645331 285.406752 
z
" clip-path="url(#p694c7e07ae)" style="fill: #009e73; fill-opacity: 0.88; stroke: #222222; stroke-opacity: 0.88; stroke-width: 0.7"/>
    <path d="M 57.649586 279.657622 
C 58.588921 279.657622 59.489911 279.28442 60.154121 278.620209 
C 60.818332 277.955998 61.191534 277.055009 61.191534 276.115673 
C 61.191534 275.176338 60.818332 274.275348 60.154121 273.611138 
C 59.489911 272.946927 58.588921 272.573725 57.649586 272.573725 
C 56.71025 272.573725 55.809261 272.946927 55.14505 273.611138 
C 54.48084 274.275348 54.107638 275.176338 54.107638 276.115673 
C 54.107638 277.055009 54.48084 277.955998 55.14505 278.620209 
C 55.809261 279.28442 56.71025 279.657622 57.649586 279.657622 
z
" clip-path="url(#p694c7e07ae)" style="fill: #cc79a7; fill-opacity: 0.88; stroke: #222222; stroke-opacity: 0.88; stroke-width: 0.7"/>
    <path d="M 58.392842 246.00618 
C 59.339482 246.00618 60.247478 245.630076 60.916853 244.960701 
C 61.586229 244.291325 61.962333 243.383329 61.962333 242.436689 
C 61.962333 241.490049 61.586229 240.582054 60.916853 239.912678 
C 60.247478 239.243302 59.339482 238.867198 58.392842 238.867198 
C 57.446202 238.867198 56.538206 239.243302 55.86883 239.912678 
C 55.199455 240.582054 54.823351 241.490049 54.823351 242.436689 
C 54.823351 243.383329 55.199455 244.291325 55.86883 244.960701 
C 56.538206 245.630076 57.446202 246.00618 58.392842 246.00618 
z
" clip-path="url(#p694c7e07ae)" style="fill: #0072b2; fill-opacity: 0.88; stroke: #222222; stroke-opacity: 0.88; stroke-width: 0.7"/>
    <path d="M 57.641399 284.494002 
C 58.580654 284.494002 59.481566 284.120832 60.14572 283.456678 
C 60.809873 282.792525 61.183043 281.891613 61.183043 280.952358 
C 61.183043 280.013103 60.809873 279.112191 60.14572 278.448038 
C 59.481566 277.783884 58.580654 277.410714 57.641399 277.410714 
C 56.702144 277.410714 55.801233 277.783884 55.137079 278.448038 
C 54.472926 279.112191 54.099756 280.013103 54.099756 280.952358 
C 54.099756 281.891613 54.472926 282.792525 55.137079 283.456678 
C 55.801233 284.120832 56.702144 284.494002 57.641399 284.494002 
z
" clip-path="url(#p694c7e07ae)" style="fill: #0072b2; fill-opacity: 0.88; stroke: #222222; stroke-opacity: 0.88; stroke-width: 0.7"/>
   </g>
   <g id="PathCollection_2">
    <path d="M 83.175596 255.378504 
L 78.78558 264.158536 
L 87.565612 264.158536 
z
" clip-path="url(#p694c7e07ae)" style="fill: #d55e00; fill-opacity: 0.88; stroke: #222222; stroke-opacity: 0.88; stroke-width: 0.7"/>
    <path d="M 76.602025 265.454909 
L 72.413957 273.831045 
L 80.790093 273.831045 
z
" clip-path="url(#p694c7e07ae)" style="fill: #0072b2; fill-opacity: 0.88; stroke: #222222; stroke-opacity: 0.88; stroke-width: 0.7"/>
    <path d="M 496.112915 112.219883 
L 488.815655 126.814402 
L 503.410175 126.814402 
z
" clip-path="url(#p694c7e07ae)" style="fill: #0072b2; fill-opacity: 0.88; stroke: #222222; stroke-opacity: 0.88; stroke-width: 0.7"/>
    <path d="M 303.241236 157.716231 
L 295.943976 172.310751 
L 310.538496 172.310751 
z
" clip-path="url(#p694c7e07ae)" style="fill: #0072b2; fill-opacity: 0.88; stroke: #222222; stroke-opacity: 0.88; stroke-width: 0.7"/>
    <path d="M 78.771819 262.384356 
L 74.516033 270.895929 
L 83.027606 270.895929 
z
" clip-path="url(#p694c7e07ae)" style="fill: #0072b2; fill-opacity: 0.88; stroke: #222222; stroke-opacity: 0.88; stroke-width: 0.7"/>
    <path d="M 84.957488 258.287833 
L 80.514311 267.174187 
L 89.400665 267.174187 
z
" clip-path="url(#p694c7e07ae)" style="fill: #0072b2; fill-opacity: 0.88; stroke: #222222; stroke-opacity: 0.88; stroke-width: 0.7"/>
    <path d="M 148.172278 225.460611 
L 142.138975 237.527218 
L 154.205581 237.527218 
z
" clip-path="url(#p694c7e07ae)" style="fill: #0072b2; fill-opacity: 0.88; stroke: #222222; stroke-opacity: 0.88; stroke-width: 0.7"/>
    <path d="M 86.826482 252.975626 
L 82.328221 261.972148 
L 91.324744 261.972148 
z
" clip-path="url(#p694c7e07ae)" style="fill: #0072b2; fill-opacity: 0.88; stroke: #222222; stroke-opacity: 0.88; stroke-width: 0.7"/>
    <path d="M 231.140027 186.746469 
L 223.842768 201.340989 
L 238.437287 201.340989 
z
" clip-path="url(#p694c7e07ae)" style="fill: #0072b2; fill-opacity: 0.88; stroke: #222222; stroke-opacity: 0.88; stroke-width: 0.7"/>
    <path d="M 155.238887 221.495457 
L 149.053178 233.866876 
L 161.424597 233.866876 
z
" clip-path="url(#p694c7e07ae)" style="fill: #0072b2; fill-opacity: 0.88; stroke: #222222; stroke-opacity: 0.88; stroke-width: 0.7"/>
    <path d="M 74.489253 265.9441 
L 70.368192 274.186221 
L 78.610313 274.186221 
z
" clip-path="url(#p694c7e07ae)" style="fill: #d55e00; fill-opacity: 0.88; stroke: #222222; stroke-opacity: 0.88; stroke-width: 0.7"/>
    <path d="M 252.488443 185.145332 
L 245.191184 199.739851 
L 259.785703 199.739851 
z
" clip-path="url(#p694c7e07ae)" style="fill: #d55e00; fill-opacity: 0.88; stroke: #222222; stroke-opacity: 0.88; stroke-width: 0.7"/>
    <path d="M 319.013454 161.68889 
L 311.716194 176.28341 
L 326.310714 176.28341 
z
" clip-path="url(#p694c7e07ae)" style="fill: #d55e00; fill-opacity: 0.88; stroke: #222222; stroke-opacity: 0.88; stroke-width: 0.7"/>
    <path d="M 477.274561 118.958998 
L 469.977302 133.553518 
L 484.571821 133.553518 
z
" clip-path="url(#p694c7e07ae)" style="fill: #d55e00; fill-opacity: 0.88; stroke: #222222; stroke-opacity: 0.88; stroke-width: 0.7"/>
    <path d="M 76.034464 260.662784 
L 71.864291 269.003131 
L 80.204637 269.003131 
z
" clip-path="url(#p694c7e07ae)" style="fill: #0072b2; fill-opacity: 0.88; stroke: #222222; stroke-opacity: 0.88; stroke-width: 0.7"/>
    <path d="M 221.590528 192.942531 
L 214.293269 207.537051 
L 228.887788 207.537051 
z
" clip-path="url(#p694c7e07ae)" style="fill: #0072b2; fill-opacity: 0.88; stroke: #222222; stroke-opacity: 0.88; stroke-width: 0.7"/>
    <path d="M 72.739713 268.900094 
L 68.674977 277.029567 
L 76.80445 277.029567 
z
" clip-path="url(#p694c7e07ae)" style="fill: #0072b2; fill-opacity: 0.88; stroke: #222222; stroke-opacity: 0.88; stroke-width: 0.7"/>
   </g>
   <g id="matplotlib.axis_3">
    <g id="xtick_8">
     <g id="line2d_15">
      <path d="M 52.734007 338.89104 
L 52.734007 53.19318 
" clip-path="url(#p694c7e07ae)" style="fill: none; stroke: #b0b0b0; stroke-opacity: 0.18; stroke-width: 0.7; stroke-linecap: square"/>
     </g>
     <g id="line2d_16">
      <defs>
       <path id="mf4d127d45b" d="M 0 0 
L 0 3.5 
" style="stroke: #333333; stroke-width: 0.8"/>
      </defs>
      <g>
       <use xlink:href="#mf4d127d45b" x="52.734007" y="338.89104" style="fill: #333333; stroke: #333333; stroke-width: 0.8"/>
      </g>
     </g>
     <g id="text_9">
      <text style="font-size: 9.2px; font-family: 'DejaVu Sans', 'Bitstream Vera Sans', 'Computer Modern Sans Serif', 'Lucida Grande', 'Verdana', 'Geneva', 'Lucid', 'Arial', 'Helvetica', 'Avant Garde', sans-serif; text-anchor: middle; fill: #333333" x="52.734007" y="352.881602" transform="rotate(-0 52.734007 352.881602)">0.0%</text>
     </g>
    </g>
    <g id="xtick_9">
     <g id="line2d_17">
      <path d="M 132.42165 338.89104 
L 132.42165 53.19318 
" clip-path="url(#p694c7e07ae)" style="fill: none; stroke: #b0b0b0; stroke-opacity: 0.18; stroke-width: 0.7; stroke-linecap: square"/>
     </g>
     <g id="line2d_18">
      <g>
       <use xlink:href="#mf4d127d45b" x="132.42165" y="338.89104" style="fill: #333333; stroke: #333333; stroke-width: 0.8"/>
      </g>
     </g>
     <g id="text_10">
      <text style="font-size: 9.2px; font-family: 'DejaVu Sans', 'Bitstream Vera Sans', 'Computer Modern Sans Serif', 'Lucida Grande', 'Verdana', 'Geneva', 'Lucid', 'Arial', 'Helvetica', 'Avant Garde', sans-serif; text-anchor: middle; fill: #333333" x="132.42165" y="352.881602" transform="rotate(-0 132.42165 352.881602)">20.0%</text>
     </g>
    </g>
    <g id="xtick_10">
     <g id="line2d_19">
      <path d="M 212.109293 338.89104 
L 212.109293 53.19318 
" clip-path="url(#p694c7e07ae)" style="fill: none; stroke: #b0b0b0; stroke-opacity: 0.18; stroke-width: 0.7; stroke-linecap: square"/>
     </g>
     <g id="line2d_20">
      <g>
       <use xlink:href="#mf4d127d45b" x="212.109293" y="338.89104" style="fill: #333333; stroke: #333333; stroke-width: 0.8"/>
      </g>
     </g>
     <g id="text_11">
      <text style="font-size: 9.2px; font-family: 'DejaVu Sans', 'Bitstream Vera Sans', 'Computer Modern Sans Serif', 'Lucida Grande', 'Verdana', 'Geneva', 'Lucid', 'Arial', 'Helvetica', 'Avant Garde', sans-serif; text-anchor: middle; fill: #333333" x="212.109293" y="352.881602" transform="rotate(-0 212.109293 352.881602)">40.0%</text>
     </g>
    </g>
    <g id="xtick_11">
     <g id="line2d_21">
      <path d="M 291.796935 338.89104 
L 291.796935 53.19318 
" clip-path="url(#p694c7e07ae)" style="fill: none; stroke: #b0b0b0; stroke-opacity: 0.18; stroke-width: 0.7; stroke-linecap: square"/>
     </g>
     <g id="line2d_22">
      <g>
       <use xlink:href="#mf4d127d45b" x="291.796935" y="338.89104" style="fill: #333333; stroke: #333333; stroke-width: 0.8"/>
      </g>
     </g>
     <g id="text_12">
      <text style="font-size: 9.2px; font-family: 'DejaVu Sans', 'Bitstream Vera Sans', 'Computer Modern Sans Serif', 'Lucida Grande', 'Verdana', 'Geneva', 'Lucid', 'Arial', 'Helvetica', 'Avant Garde', sans-serif; text-anchor: middle; fill: #333333" x="291.796935" y="352.881602" transform="rotate(-0 291.796935 352.881602)">60.0%</text>
     </g>
    </g>
    <g id="xtick_12">
     <g id="line2d_23">
      <path d="M 371.484578 338.89104 
L 371.484578 53.19318 
" clip-path="url(#p694c7e07ae)" style="fill: none; stroke: #b0b0b0; stroke-opacity: 0.18; stroke-width: 0.7; stroke-linecap: square"/>
     </g>
     <g id="line2d_24">
      <g>
       <use xlink:href="#mf4d127d45b" x="371.484578" y="338.89104" style="fill: #333333; stroke: #333333; stroke-width: 0.8"/>
      </g>
     </g>
     <g id="text_13">
      <text style="font-size: 9.2px; font-family: 'DejaVu Sans', 'Bitstream Vera Sans', 'Computer Modern Sans Serif', 'Lucida Grande', 'Verdana', 'Geneva', 'Lucid', 'Arial', 'Helvetica', 'Avant Garde', sans-serif; text-anchor: middle; fill: #333333" x="371.484578" y="352.881602" transform="rotate(-0 371.484578 352.881602)">80.0%</text>
     </g>
    </g>
    <g id="xtick_13">
     <g id="line2d_25">
      <path d="M 451.172221 338.89104 
L 451.172221 53.19318 
" clip-path="url(#p694c7e07ae)" style="fill: none; stroke: #b0b0b0; stroke-opacity: 0.18; stroke-width: 0.7; stroke-linecap: square"/>
     </g>
     <g id="line2d_26">
      <g>
       <use xlink:href="#mf4d127d45b" x="451.172221" y="338.89104" style="fill: #333333; stroke: #333333; stroke-width: 0.8"/>
      </g>
     </g>
     <g id="text_14">
      <text style="font-size: 9.2px; font-family: 'DejaVu Sans', 'Bitstream Vera Sans', 'Computer Modern Sans Serif', 'Lucida Grande', 'Verdana', 'Geneva', 'Lucid', 'Arial', 'Helvetica', 'Avant Garde', sans-serif; text-anchor: middle; fill: #333333" x="451.172221" y="352.881602" transform="rotate(-0 451.172221 352.881602)">100.0%</text>
     </g>
    </g>
    <g id="xtick_14">
     <g id="line2d_27">
      <path d="M 530.859864 338.89104 
L 530.859864 53.19318 
" clip-path="url(#p694c7e07ae)" style="fill: none; stroke: #b0b0b0; stroke-opacity: 0.18; stroke-width: 0.7; stroke-linecap: square"/>
     </g>
     <g id="line2d_28">
      <g>
       <use xlink:href="#mf4d127d45b" x="530.859864" y="338.89104" style="fill: #333333; stroke: #333333; stroke-width: 0.8"/>
      </g>
     </g>
     <g id="text_15">
      <text style="font-size: 9.2px; font-family: 'DejaVu Sans', 'Bitstream Vera Sans', 'Computer Modern Sans Serif', 'Lucida Grande', 'Verdana', 'Geneva', 'Lucid', 'Arial', 'Helvetica', 'Avant Garde', sans-serif; text-anchor: middle; fill: #333333" x="530.859864" y="352.881602" transform="rotate(-0 530.859864 352.881602)">120.0%</text>
     </g>
    </g>
    <g id="text_16">
     <text style="font-size: 10.4px; font-family: 'DejaVu Sans', 'Bitstream Vera Sans', 'Computer Modern Sans Serif', 'Lucida Grande', 'Verdana', 'Geneva', 'Lucid', 'Arial', 'Helvetica', 'Avant Garde', sans-serif; text-anchor: middle; fill: #222222" x="289.804744" y="366.69729" transform="rotate(-0 289.804744 366.69729)">Dmax (% d_eq)</text>
    </g>
   </g>
   <g id="matplotlib.axis_4">
    <g id="ytick_1">
     <g id="line2d_29">
      <path d="M 48.749625 338.89104 
L 530.859864 338.89104 
" clip-path="url(#p694c7e07ae)" style="fill: none; stroke: #b0b0b0; stroke-opacity: 0.18; stroke-width: 0.7; stroke-linecap: square"/>
     </g>
     <g id="line2d_30">
      <defs>
       <path id="m67b4ab13c1" d="M 0 0 
L -3.5 0 
" style="stroke: #333333; stroke-width: 0.8"/>
      </defs>
      <g>
       <use xlink:href="#m67b4ab13c1" x="48.749625" y="338.89104" style="fill: #333333; stroke: #333333; stroke-width: 0.8"/>
      </g>
     </g>
     <g id="text_17">
      <text style="font-size: 9.2px; font-family: 'DejaVu Sans', 'Bitstream Vera Sans', 'Computer Modern Sans Serif', 'Lucida Grande', 'Verdana', 'Geneva', 'Lucid', 'Arial', 'Helvetica', 'Avant Garde', sans-serif; text-anchor: end; fill: #333333" x="41.749625" y="342.386321" transform="rotate(-0 41.749625 342.386321)">0.0</text>
     </g>
    </g>
    <g id="ytick_2">
     <g id="line2d_31">
      <path d="M 48.749625 306.425374 
L 530.859864 306.425374 
" clip-path="url(#p694c7e07ae)" style="fill: none; stroke: #b0b0b0; stroke-opacity: 0.18; stroke-width: 0.7; stroke-linecap: square"/>
     </g>
     <g id="line2d_32">
      <g>
       <use xlink:href="#m67b4ab13c1" x="48.749625" y="306.425374" style="fill: #333333; stroke: #333333; stroke-width: 0.8"/>
      </g>
     </g>
     <g id="text_18">
      <text style="font-size: 9.2px; font-family: 'DejaVu Sans', 'Bitstream Vera Sans', 'Computer Modern Sans Serif', 'Lucida Grande', 'Verdana', 'Geneva', 'Lucid', 'Arial', 'Helvetica', 'Avant Garde', sans-serif; text-anchor: end; fill: #333333" x="41.749625" y="309.920655" transform="rotate(-0 41.749625 309.920655)">2.5</text>
     </g>
    </g>
    <g id="ytick_3">
     <g id="line2d_33">
      <path d="M 48.749625 273.959708 
L 530.859864 273.959708 
" clip-path="url(#p694c7e07ae)" style="fill: none; stroke: #b0b0b0; stroke-opacity: 0.18; stroke-width: 0.7; stroke-linecap: square"/>
     </g>
     <g id="line2d_34">
      <g>
       <use xlink:href="#m67b4ab13c1" x="48.749625" y="273.959708" style="fill: #333333; stroke: #333333; stroke-width: 0.8"/>
      </g>
     </g>
     <g id="text_19">
      <text style="font-size: 9.2px; font-family: 'DejaVu Sans', 'Bitstream Vera Sans', 'Computer Modern Sans Serif', 'Lucida Grande', 'Verdana', 'Geneva', 'Lucid', 'Arial', 'Helvetica', 'Avant Garde', sans-serif; text-anchor: end; fill: #333333" x="41.749625" y="277.454989" transform="rotate(-0 41.749625 277.454989)">5.0</text>
     </g>
    </g>
    <g id="ytick_4">
     <g id="line2d_35">
      <path d="M 48.749625 241.494042 
L 530.859864 241.494042 
" clip-path="url(#p694c7e07ae)" style="fill: none; stroke: #b0b0b0; stroke-opacity: 0.18; stroke-width: 0.7; stroke-linecap: square"/>
     </g>
     <g id="line2d_36">
      <g>
       <use xlink:href="#m67b4ab13c1" x="48.749625" y="241.494042" style="fill: #333333; stroke: #333333; stroke-width: 0.8"/>
      </g>
     </g>
     <g id="text_20">
      <text style="font-size: 9.2px; font-family: 'DejaVu Sans', 'Bitstream Vera Sans', 'Computer Modern Sans Serif', 'Lucida Grande', 'Verdana', 'Geneva', 'Lucid', 'Arial', 'Helvetica', 'Avant Garde', sans-serif; text-anchor: end; fill: #333333" x="41.749625" y="244.989324" transform="rotate(-0 41.749625 244.989324)">7.5</text>
     </g>
    </g>
    <g id="ytick_5">
     <g id="line2d_37">
      <path d="M 48.749625 209.028376 
L 530.859864 209.028376 
" clip-path="url(#p694c7e07ae)" style="fill: none; stroke: #b0b0b0; stroke-opacity: 0.18; stroke-width: 0.7; stroke-linecap: square"/>
     </g>
     <g id="line2d_38">
      <g>
       <use xlink:href="#m67b4ab13c1" x="48.749625" y="209.028376" style="fill: #333333; stroke: #333333; stroke-width: 0.8"/>
      </g>
     </g>
     <g id="text_21">
      <text style="font-size: 9.2px; font-family: 'DejaVu Sans', 'Bitstream Vera Sans', 'Computer Modern Sans Serif', 'Lucida Grande', 'Verdana', 'Geneva', 'Lucid', 'Arial', 'Helvetica', 'Avant Garde', sans-serif; text-anchor: end; fill: #333333" x="41.749625" y="212.523658" transform="rotate(-0 41.749625 212.523658)">10.0</text>
     </g>
    </g>
    <g id="ytick_6">
     <g id="line2d_39">
      <path d="M 48.749625 176.56271 
L 530.859864 176.56271 
" clip-path="url(#p694c7e07ae)" style="fill: none; stroke: #b0b0b0; stroke-opacity: 0.18; stroke-width: 0.7; stroke-linecap: square"/>
     </g>
     <g id="line2d_40">
      <g>
       <use xlink:href="#m67b4ab13c1" x="48.749625" y="176.56271" style="fill: #333333; stroke: #333333; stroke-width: 0.8"/>
      </g>
     </g>
     <g id="text_22">
      <text style="font-size: 9.2px; font-family: 'DejaVu Sans', 'Bitstream Vera Sans', 'Computer Modern Sans Serif', 'Lucida Grande', 'Verdana', 'Geneva', 'Lucid', 'Arial', 'Helvetica', 'Avant Garde', sans-serif; text-anchor: end; fill: #333333" x="41.749625" y="180.057992" transform="rotate(-0 41.749625 180.057992)">12.5</text>
     </g>
    </g>
    <g id="ytick_7">
     <g id="line2d_41">
      <path d="M 48.749625 144.097045 
L 530.859864 144.097045 
" clip-path="url(#p694c7e07ae)" style="fill: none; stroke: #b0b0b0; stroke-opacity: 0.18; stroke-width: 0.7; stroke-linecap: square"/>
     </g>
     <g id="line2d_42">
      <g>
       <use xlink:href="#m67b4ab13c1" x="48.749625" y="144.097045" style="fill: #333333; stroke: #333333; stroke-width: 0.8"/>
      </g>
     </g>
     <g id="text_23">
      <text style="font-size: 9.2px; font-family: 'DejaVu Sans', 'Bitstream Vera Sans', 'Computer Modern Sans Serif', 'Lucida Grande', 'Verdana', 'Geneva', 'Lucid', 'Arial', 'Helvetica', 'Avant Garde', sans-serif; text-anchor: end; fill: #333333" x="41.749625" y="147.592326" transform="rotate(-0 41.749625 147.592326)">15.0</text>
     </g>
    </g>
    <g id="ytick_8">
     <g id="line2d_43">
      <path d="M 48.749625 111.631379 
L 530.859864 111.631379 
" clip-path="url(#p694c7e07ae)" style="fill: none; stroke: #b0b0b0; stroke-opacity: 0.18; stroke-width: 0.7; stroke-linecap: square"/>
     </g>
     <g id="line2d_44">
      <g>
       <use xlink:href="#m67b4ab13c1" x="48.749625" y="111.631379" style="fill: #333333; stroke: #333333; stroke-width: 0.8"/>
      </g>
     </g>
     <g id="text_24">
      <text style="font-size: 9.2px; font-family: 'DejaVu Sans', 'Bitstream Vera Sans', 'Computer Modern Sans Serif', 'Lucida Grande', 'Verdana', 'Geneva', 'Lucid', 'Arial', 'Helvetica', 'Avant Garde', sans-serif; text-anchor: end; fill: #333333" x="41.749625" y="115.12666" transform="rotate(-0 41.749625 115.12666)">17.5</text>
     </g>
    </g>
    <g id="ytick_9">
     <g id="line2d_45">
      <path d="M 48.749625 79.165713 
L 530.859864 79.165713 
" clip-path="url(#p694c7e07ae)" style="fill: none; stroke: #b0b0b0; stroke-opacity: 0.18; stroke-width: 0.7; stroke-linecap: square"/>
     </g>
     <g id="line2d_46">
      <g>
       <use xlink:href="#m67b4ab13c1" x="48.749625" y="79.165713" style="fill: #333333; stroke: #333333; stroke-width: 0.8"/>
      </g>
     </g>
     <g id="text_25">
      <text style="font-size: 9.2px; font-family: 'DejaVu Sans', 'Bitstream Vera Sans', 'Computer Modern Sans Serif', 'Lucida Grande', 'Verdana', 'Geneva', 'Lucid', 'Arial', 'Helvetica', 'Avant Garde', sans-serif; text-anchor: end; fill: #333333" x="41.749625" y="82.660994" transform="rotate(-0 41.749625 82.660994)">20.0</text>
     </g>
    </g>
    <g id="text_26">
     <text style="font-size: 10.4px; font-family: 'DejaVu Sans', 'Bitstream Vera Sans', 'Computer Modern Sans Serif', 'Lucida Grande', 'Verdana', 'Geneva', 'Lucid', 'Arial', 'Helvetica', 'Avant Garde', sans-serif; text-anchor: middle; fill: #222222" x="15.102375" y="196.04211" transform="rotate(-90 15.102375 196.04211)">rotacion acumulada maxima (deg)</text>
    </g>
   </g>
   <g id="line2d_47">
    <path d="M 72.655918 338.89104 
L 72.655918 53.19318 
" clip-path="url(#p694c7e07ae)" style="fill: none; stroke-dasharray: 4.44,1.92; stroke-dashoffset: 0; stroke: #222222; stroke-width: 1.2"/>
   </g>
   <g id="line2d_48">
    <path d="M 48.749625 273.959708 
L 530.859864 273.959708 
" clip-path="url(#p694c7e07ae)" style="fill: none; stroke-dasharray: 1,1.65; stroke-dashoffset: 0; stroke: #666666"/>
   </g>
   <g id="patch_5">
    <path d="M 48.749625 338.89104 
L 48.749625 53.19318 
" style="fill: none; stroke: #444444; stroke-width: 0.8; stroke-linejoin: miter; stroke-linecap: square"/>
   </g>
   <g id="patch_6">
    <path d="M 48.749625 338.89104 
L 530.859864 338.89104 
" style="fill: none; stroke: #444444; stroke-width: 0.8; stroke-linejoin: miter; stroke-linecap: square"/>
   </g>
   <g id="text_27">
    <g id="patch_7">
     <path d="M 58.39183 75.851407 
L 322.366049 75.851407 
Q 324.886049 75.851407 324.886049 73.331407 
L 324.886049 64.621094 
Q 324.886049 62.101094 322.366049 62.101094 
L 58.39183 62.101094 
Q 55.87183 62.101094 55.87183 64.621094 
L 55.87183 73.331407 
Q 55.87183 75.851407 58.39183 75.851407 
z
" style="fill: #ffffff; stroke: #dddddd; stroke-width: 0.5; stroke-linejoin: miter"/>
    </g>
    <text style="font-size: 9px; font-family: 'DejaVu Sans', 'Bitstream Vera Sans', 'Computer Modern Sans Serif', 'Lucida Grande', 'Verdana', 'Geneva', 'Lucid', 'Arial', 'Helvetica', 'Avant Garde', sans-serif; text-anchor: start; fill: #444444" x="58.39183" y="71.459688" transform="rotate(-0 58.39183 71.459688)">clase decidida por desplazamiento; rotacion = diagnostico</text>
   </g>
   <g id="text_28">
    <g id="patch_8">
     <path d="M 435.383987 84.023123 
L 521.217659 84.023123 
Q 523.292659 84.023123 523.292659 81.948123 
L 523.292659 64.621094 
Q 523.292659 62.546094 521.217659 62.546094 
L 435.383987 62.546094 
Q 433.308987 62.546094 433.308987 64.621094 
L 433.308987 81.948123 
Q 433.308987 84.023123 435.383987 84.023123 
z
" style="fill: #ffffff; stroke: #dddddd; stroke-width: 0.5; stroke-linejoin: miter"/>
    </g>
    <text style="font-size: 8.3px; font-family: 'DejaVu Sans', 'Bitstream Vera Sans', 'Computer Modern Sans Serif', 'Lucida Grande', 'Verdana', 'Geneva', 'Lucid', 'Arial', 'Helvetica', 'Avant Garde', sans-serif; fill: #555555" transform="translate(435.383987 70.927798)">1 caso(s) extremo(s)</text>
    <text style="font-size: 8.3px; font-family: 'DejaVu Sans', 'Bitstream Vera Sans', 'Computer Modern Sans Serif', 'Lucida Grande', 'Verdana', 'Geneva', 'Lucid', 'Arial', 'Helvetica', 'Avant Garde', sans-serif; fill: #555555" transform="translate(457.305065 80.221982)">fuera de escala</text>
   </g>
  </g>
  <g id="text_29">
   <text style="font-size: 12.24px; font-family: 'DejaVu Sans', 'Bitstream Vera Sans', 'Computer Modern Sans Serif', 'Lucida Grande', 'Verdana', 'Geneva', 'Lucid', 'Arial', 'Helvetica', 'Avant Garde', sans-serif; text-anchor: middle" x="277.79976" y="16.500487" transform="rotate(-0 277.79976 16.500487)">Rotacion diagnostica frente al criterio displacement_only</text>
  </g>
  <g id="legend_1">
   <g id="patch_9">
    <path d="M 69.001354 391.79976 
L 486.598166 391.79976 
Q 488.278166 391.79976 488.278166 390.11976 
L 488.278166 378.630135 
Q 488.278166 376.950135 486.598166 376.950135 
L 69.001354 376.950135 
Q 67.321354 376.950135 67.321354 378.630135 
L 67.321354 390.11976 
Q 67.321354 391.79976 69.001354 391.79976 
z
" style="fill: #ffffff; opacity: 0.96; stroke: #d5d5d5; stroke-linejoin: miter"/>
   </g>
   <g id="line2d_49">
    <path d="M 70.681354 383.752822 
L 79.081354 383.752822 
L 87.481354 383.752822 
" style="fill: none; stroke: #000000; stroke-opacity: 0; stroke-width: 1.5; stroke-linecap: square"/>
    <defs>
     <path id="m3109ef99a9" d="M 0 4 
C 1.060812 4 2.078319 3.578535 2.828427 2.828427 
C 3.578535 2.078319 4 1.060812 4 0 
C 4 -1.060812 3.578535 -2.078319 2.828427 -2.828427 
C 2.078319 -3.578535 1.060812 -4 0 -4 
C -1.060812 -4 -2.078319 -3.578535 -2.828427 -2.828427 
C -3.578535 -2.078319 -4 -1.060812 -4 0 
C -4 1.060812 -3.578535 2.078319 -2.828427 2.828427 
C -2.078319 3.578535 -1.060812 4 0 4 
z
" style="stroke: #222222"/>
    </defs>
    <g>
     <use xlink:href="#m3109ef99a9" x="79.081354" y="383.752822" style="fill: #d55e00; stroke: #222222"/>
    </g>
   </g>
   <g id="text_30">
    <text style="font-size: 8.4px; font-family: 'DejaVu Sans', 'Bitstream Vera Sans', 'Computer Modern Sans Serif', 'Lucida Grande', 'Verdana', 'Geneva', 'Lucid', 'Arial', 'Helvetica', 'Avant Garde', sans-serif; text-anchor: start" x="94.201354" y="386.692822" transform="rotate(-0 94.201354 386.692822)">m*=0.85</text>
   </g>
   <g id="line2d_50">
    <path d="M 149.125541 383.752822 
L 157.525541 383.752822 
L 165.925541 383.752822 
" style="fill: none; stroke: #000000; stroke-opacity: 0; stroke-width: 1.5; stroke-linecap: square"/>
    <defs>
     <path id="mab6bd01aa0" d="M 0 4 
C 1.060812 4 2.078319 3.578535 2.828427 2.828427 
C 3.578535 2.078319 4 1.060812 4 0 
C 4 -1.060812 3.578535 -2.078319 2.828427 -2.828427 
C 2.078319 -3.578535 1.060812 -4 0 -4 
C -1.060812 -4 -2.078319 -3.578535 -2.828427 -2.828427 
C -3.578535 -2.078319 -4 -1.060812 -4 0 
C -4 1.060812 -3.578535 2.078319 -2.828427 2.828427 
C -2.078319 3.578535 -1.060812 4 0 4 
z
" style="stroke: #222222"/>
    </defs>
    <g>
     <use xlink:href="#mab6bd01aa0" x="157.525541" y="383.752822" style="fill: #0072b2; stroke: #222222"/>
    </g>
   </g>
   <g id="text_31">
    <text style="font-size: 8.4px; font-family: 'DejaVu Sans', 'Bitstream Vera Sans', 'Computer Modern Sans Serif', 'Lucida Grande', 'Verdana', 'Geneva', 'Lucid', 'Arial', 'Helvetica', 'Avant Garde', sans-serif; text-anchor: start" x="172.645541" y="386.692822" transform="rotate(-0 172.645541 386.692822)">m*=1</text>
   </g>
   <g id="line2d_51">
    <path d="M 214.211104 383.752822 
L 222.611104 383.752822 
L 231.011104 383.752822 
" style="fill: none; stroke: #000000; stroke-opacity: 0; stroke-width: 1.5; stroke-linecap: square"/>
    <defs>
     <path id="m4d25b71ef1" d="M 0 4 
C 1.060812 4 2.078319 3.578535 2.828427 2.828427 
C 3.578535 2.078319 4 1.060812 4 0 
C 4 -1.060812 3.578535 -2.078319 2.828427 -2.828427 
C 2.078319 -3.578535 1.060812 -4 0 -4 
C -1.060812 -4 -2.078319 -3.578535 -2.828427 -2.828427 
C -3.578535 -2.078319 -4 -1.060812 -4 0 
C -4 1.060812 -3.578535 2.078319 -2.828427 2.828427 
C -2.078319 3.578535 -1.060812 4 0 4 
z
" style="stroke: #222222"/>
    </defs>
    <g>
     <use xlink:href="#m4d25b71ef1" x="222.611104" y="383.752822" style="fill: #009e73; stroke: #222222"/>
    </g>
   </g>
   <g id="text_32">
    <text style="font-size: 8.4px; font-family: 'DejaVu Sans', 'Bitstream Vera Sans', 'Computer Modern Sans Serif', 'Lucida Grande', 'Verdana', 'Geneva', 'Lucid', 'Arial', 'Helvetica', 'Avant Garde', sans-serif; text-anchor: start" x="237.731104" y="386.692822" transform="rotate(-0 237.731104 386.692822)">m*=1.15</text>
   </g>
   <g id="line2d_52">
    <path d="M 292.655291 383.752822 
L 301.055291 383.752822 
L 309.455291 383.752822 
" style="fill: none; stroke: #000000; stroke-opacity: 0; stroke-width: 1.5; stroke-linecap: square"/>
    <defs>
     <path id="m2096014c7a" d="M 0 4 
C 1.060812 4 2.078319 3.578535 2.828427 2.828427 
C 3.578535 2.078319 4 1.060812 4 0 
C 4 -1.060812 3.578535 -2.078319 2.828427 -2.828427 
C 2.078319 -3.578535 1.060812 -4 0 -4 
C -1.060812 -4 -2.078319 -3.578535 -2.828427 -2.828427 
C -3.578535 -2.078319 -4 -1.060812 -4 0 
C -4 1.060812 -3.578535 2.078319 -2.828427 2.828427 
C -2.078319 3.578535 -1.060812 4 0 4 
z
" style="stroke: #222222"/>
    </defs>
    <g>
     <use xlink:href="#m2096014c7a" x="301.055291" y="383.752822" style="fill: #cc79a7; stroke: #222222"/>
    </g>
   </g>
   <g id="text_33">
    <text style="font-size: 8.4px; font-family: 'DejaVu Sans', 'Bitstream Vera Sans', 'Computer Modern Sans Serif', 'Lucida Grande', 'Verdana', 'Geneva', 'Lucid', 'Arial', 'Helvetica', 'Avant Garde', sans-serif; text-anchor: start" x="316.175291" y="386.692822" transform="rotate(-0 316.175291 386.692822)">m*=1.25</text>
   </g>
   <g id="line2d_53">
    <path d="M 371.099479 383.752822 
L 379.499479 383.752822 
L 387.899479 383.752822 
" style="fill: none; stroke: #000000; stroke-opacity: 0; stroke-width: 1.5; stroke-linecap: square"/>
    <g>
     <use xlink:href="#mab6bd01aa0" x="379.499479" y="383.752822" style="fill: #0072b2; stroke: #222222"/>
    </g>
   </g>
   <g id="text_34">
    <text style="font-size: 8.4px; font-family: 'DejaVu Sans', 'Bitstream Vera Sans', 'Computer Modern Sans Serif', 'Lucida Grande', 'Verdana', 'Geneva', 'Lucid', 'Arial', 'Helvetica', 'Avant Garde', sans-serif; text-anchor: start" x="394.619479" y="386.692822" transform="rotate(-0 394.619479 386.692822)">Estable</text>
   </g>
   <g id="line2d_54">
    <path d="M 442.378729 383.752822 
L 450.778729 383.752822 
L 459.178729 383.752822 
" style="fill: none; stroke: #000000; stroke-opacity: 0; stroke-width: 1.5; stroke-linecap: square"/>
    <defs>
     <path id="meceb7eb7b6" d="M 0 -4 
L -4 4 
L 4 4 
z
" style="stroke: #222222; stroke-linejoin: miter"/>
    </defs>
    <g>
     <use xlink:href="#meceb7eb7b6" x="450.778729" y="383.752822" style="fill: #d55e00; stroke: #222222; stroke-linejoin: miter"/>
    </g>
   </g>
   <g id="text_35">
    <text style="font-size: 8.4px; font-family: 'DejaVu Sans', 'Bitstream Vera Sans', 'Computer Modern Sans Serif', 'Lucida Grande', 'Verdana', 'Geneva', 'Lucid', 'Arial', 'Helvetica', 'Avant Garde', sans-serif; text-anchor: start" x="465.898729" y="386.692822" transform="rotate(-0 465.898729 386.692822)">Fallo</text>
   </g>
  </g>
 </g>
 <defs>
  <clipPath id="pc3f68c9b6f">
   <rect x="48.749625" y="53.19318" width="482.110239" height="0"/>
  </clipPath>
  <clipPath id="p694c7e07ae">
   <rect x="48.749625" y="53.19318" width="482.110239" height="285.69786"/>
  </clipPath>
 </defs>
</svg>
