<?xml version="1.0" encoding="utf-8" standalone="no"?>
<!DOCTYPE svg PUBLIC "-//W3C//DTD SVG 1.1//EN"
  "http://www.w3.org/Graphics/SVG/1.1/DTD/svg11.dtd">
<svg xmlns:xlink="http://www.w3.org/1999/xlink" width="936.288pt" height="407.375719pt" viewBox="0 0 936.288 407.375719" xmlns="http://www.w3.org/2000/svg" version="1.1">
 <metadata>
  <rdf:RDF xmlns:dc="http://purl.org/dc/elements/1.1/" xmlns:cc="http://creativecommons.org/ns#" xmlns:rdf="http://www.w3.org/1999/02/22-rdf-syntax-ns#">
   <cc:Work>
    <dc:type rdf:resource="http://purl.org/dc/dcmitype/StillImage"/>
    <dc:date>2026-06-01T17:58:11.154560</dc:date>
    <dc:format>image/svg+xml</dc:format>
    <dc:creator>
     <cc:Agent>
      <dc:title>Matplotlib v3.7.5, https://matplotlib.org/</dc:title>
     </cc:Agent>
    </dc:creator>
   </cc:Work>
  </rdf:RDF>
 </metadata>
 <defs>
  <style type="text/css">*{stroke-linejoin: round; stroke-linecap: butt}</style>
 </defs>
 <g id="figure_1">
  <g id="patch_1">
   <path d="M 0 407.375719 
L 936.288 407.375719 
L 936.288 0 
L 0 0 
z
" style="fill: #ffffff"/>
  </g>
  <g id="axes_1">
   <g id="patch_2">
    <path d="M 64.224 305.568 
L 511.82469 305.568 
L 511.82469 63.648 
L 64.224 63.648 
z
" style="fill: #ffffff"/>
   </g>
   <g id="matplotlib.axis_1">
    <g id="xtick_1">
     <g id="line2d_1">
      <path d="M 98.363036 305.568 
L 98.363036 63.648 
" clip-path="url(#p88bc08b51e)" style="fill: none; stroke: #e7ebf0; stroke-width: 0.8; stroke-linecap: square"/>
     </g>
     <g id="line2d_2">
      <defs>
       <path id="m1a81cbf3cc" d="M 0 0 
L 0 3.5 
" style="stroke: #17202a; stroke-width: 0.8"/>
      </defs>
      <g>
       <use xlink:href="#m1a81cbf3cc" x="98.363036" y="305.568" style="fill: #17202a; stroke: #17202a; stroke-width: 0.8"/>
      </g>
     </g>
     <g id="text_1">
      <text style="fill: #17202a; font: 9px 'DejaVu Sans'" transform="translate(77.001626 332.375544) rotate(-35)">Piloto</text>
     </g>
    </g>
    <g id="xtick_2">
     <g id="line2d_3">
      <path d="M 132.84691 305.568 
L 132.84691 63.648 
" clip-path="url(#p88bc08b51e)" style="fill: none; stroke: #e7ebf0; stroke-width: 0.8; stroke-linecap: square"/>
     </g>
     <g id="line2d_4">
      <g>
       <use xlink:href="#m1a81cbf3cc" x="132.84691" y="305.568" style="fill: #17202a; stroke: #17202a; stroke-width: 0.8"/>
      </g>
     </g>
     <g id="text_2">
      <text style="fill: #17202a; font: 9px 'DejaVu Sans'" transform="translate(103.547533 337.933768) rotate(-35)">Batch 2</text>
     </g>
    </g>
    <g id="xtick_3">
     <g id="line2d_5">
      <path d="M 167.330785 305.568 
L 167.330785 63.648 
" clip-path="url(#p88bc08b51e)" style="fill: none; stroke: #e7ebf0; stroke-width: 0.8; stroke-linecap: square"/>
     </g>
     <g id="line2d_6">
      <g>
       <use xlink:href="#m1a81cbf3cc" x="167.330785" y="305.568" style="fill: #17202a; stroke: #17202a; stroke-width: 0.8"/>
      </g>
     </g>
     <g id="text_3">
      <text style="fill: #17202a; font: 9px 'DejaVu Sans'" transform="translate(138.031407 337.933768) rotate(-35)">Batch 3</text>
     </g>
    </g>
    <g id="xtick_4">
     <g id="line2d_7">
      <path d="M 201.814659 305.568 
L 201.814659 63.648 
" clip-path="url(#p88bc08b51e)" style="fill: none; stroke: #e7ebf0; stroke-width: 0.8; stroke-linecap: square"/>
     </g>
     <g id="line2d_8">
      <g>
       <use xlink:href="#m1a81cbf3cc" x="201.814659" y="305.568" style="fill: #17202a; stroke: #17202a; stroke-width: 0.8"/>
      </g>
     </g>
     <g id="text_4">
      <text style="fill: #17202a; font: 9px 'DejaVu Sans'" transform="translate(150.114801 353.618754) rotate(-35)">Batch 4 masa</text>
     </g>
    </g>
    <g id="xtick_5">
     <g id="line2d_9">
      <path d="M 236.298533 305.568 
L 236.298533 63.648 
" clip-path="url(#p88bc08b51e)" style="fill: none; stroke: #e7ebf0; stroke-width: 0.8; stroke-linecap: square"/>
     </g>
     <g id="line2d_10">
      <g>
       <use xlink:href="#m1a81cbf3cc" x="236.298533" y="305.568" style="fill: #17202a; stroke: #17202a; stroke-width: 0.8"/>
      </g>
     </g>
     <g id="text_5">
      <text style="fill: #17202a; font: 9px 'DejaVu Sans'" transform="translate(221.383338 327.861856) rotate(-35)">AL1</text>
     </g>
    </g>
    <g id="xtick_6">
     <g id="line2d_11">
      <path d="M 270.782408 305.568 
L 270.782408 63.648 
" clip-path="url(#p88bc08b51e)" style="fill: none; stroke: #e7ebf0; stroke-width: 0.8; stroke-linecap: square"/>
     </g>
     <g id="line2d_12">
      <g>
       <use xlink:href="#m1a81cbf3cc" x="270.782408" y="305.568" style="fill: #17202a; stroke: #17202a; stroke-width: 0.8"/>
      </g>
     </g>
     <g id="text_6">
      <text style="fill: #17202a; font: 9px 'DejaVu Sans'" transform="translate(255.867212 327.861856) rotate(-35)">AL2</text>
     </g>
    </g>
    <g id="xtick_7">
     <g id="line2d_13">
      <path d="M 305.266282 305.568 
L 305.266282 63.648 
" clip-path="url(#p88bc08b51e)" style="fill: none; stroke: #e7ebf0; stroke-width: 0.8; stroke-linecap: square"/>
     </g>
     <g id="line2d_14">
      <g>
       <use xlink:href="#m1a81cbf3cc" x="305.266282" y="305.568" style="fill: #17202a; stroke: #17202a; stroke-width: 0.8"/>
      </g>
     </g>
     <g id="text_7">
      <text style="fill: #17202a; font: 9px 'DejaVu Sans'" transform="translate(290.351087 327.861856) rotate(-35)">AL3</text>
     </g>
    </g>
    <g id="xtick_8">
     <g id="line2d_15">
      <path d="M 339.750157 305.568 
L 339.750157 63.648 
" clip-path="url(#p88bc08b51e)" style="fill: none; stroke: #e7ebf0; stroke-width: 0.8; stroke-linecap: square"/>
     </g>
     <g id="line2d_16">
      <g>
       <use xlink:href="#m1a81cbf3cc" x="339.750157" y="305.568" style="fill: #17202a; stroke: #17202a; stroke-width: 0.8"/>
      </g>
     </g>
     <g id="text_8">
      <text style="fill: #17202a; font: 9px 'DejaVu Sans'" transform="translate(324.834961 327.861856) rotate(-35)">AL4</text>
     </g>
    </g>
    <g id="xtick_9">
     <g id="line2d_17">
      <path d="M 374.234031 305.568 
L 374.234031 63.648 
" clip-path="url(#p88bc08b51e)" style="fill: none; stroke: #e7ebf0; stroke-width: 0.8; stroke-linecap: square"/>
     </g>
     <g id="line2d_18">
      <g>
       <use xlink:href="#m1a81cbf3cc" x="374.234031" y="305.568" style="fill: #17202a; stroke: #17202a; stroke-width: 0.8"/>
      </g>
     </g>
     <g id="text_9">
      <text style="fill: #17202a; font: 9px 'DejaVu Sans'" transform="translate(359.318836 327.861856) rotate(-35)">AL5</text>
     </g>
    </g>
    <g id="xtick_10">
     <g id="line2d_19">
      <path d="M 408.717906 305.568 
L 408.717906 63.648 
" clip-path="url(#p88bc08b51e)" style="fill: none; stroke: #e7ebf0; stroke-width: 0.8; stroke-linecap: square"/>
     </g>
     <g id="line2d_20">
      <g>
       <use xlink:href="#m1a81cbf3cc" x="408.717906" y="305.568" style="fill: #17202a; stroke: #17202a; stroke-width: 0.8"/>
      </g>
     </g>
     <g id="text_10">
      <text style="fill: #17202a; font: 9px 'DejaVu Sans'" transform="translate(393.80271 327.861856) rotate(-35)">AL6</text>
     </g>
    </g>
    <g id="xtick_11">
     <g id="line2d_21">
      <path d="M 443.20178 305.568 
L 443.20178 63.648 
" clip-path="url(#p88bc08b51e)" style="fill: none; stroke: #e7ebf0; stroke-width: 0.8; stroke-linecap: square"/>
     </g>
     <g id="line2d_22">
      <g>
       <use xlink:href="#m1a81cbf3cc" x="443.20178" y="305.568" style="fill: #17202a; stroke: #17202a; stroke-width: 0.8"/>
      </g>
     </g>
     <g id="text_11">
      <text style="fill: #17202a; font: 9px 'DejaVu Sans'" transform="translate(408.764783 341.531168) rotate(-35)">AL7 local</text>
     </g>
    </g>
    <g id="xtick_12">
     <g id="line2d_23">
      <path d="M 477.685654 305.568 
L 477.685654 63.648 
" clip-path="url(#p88bc08b51e)" style="fill: none; stroke: #e7ebf0; stroke-width: 0.8; stroke-linecap: square"/>
     </g>
     <g id="line2d_24">
      <g>
       <use xlink:href="#m1a81cbf3cc" x="477.685654" y="305.568" style="fill: #17202a; stroke: #17202a; stroke-width: 0.8"/>
      </g>
     </g>
     <g id="text_12">
      <text style="fill: #17202a; font: 9px 'DejaVu Sans'" transform="translate(462.770459 327.861856) rotate(-35)">AL8</text>
     </g>
    </g>
   </g>
   <g id="matplotlib.axis_2">
    <g id="ytick_1">
     <g id="line2d_25">
      <path d="M 64.224 305.568 
L 511.82469 305.568 
" clip-path="url(#p88bc08b51e)" style="fill: none; stroke: #e7ebf0; stroke-width: 0.8; stroke-linecap: square"/>
     </g>
     <g id="line2d_26">
      <defs>
       <path id="m442b588c0b" d="M 0 0 
L -3.5 0 
" style="stroke: #17202a; stroke-width: 0.8"/>
      </defs>
      <g>
       <use xlink:href="#m442b588c0b" x="64.224" y="305.568" style="fill: #17202a; stroke: #17202a; stroke-width: 0.8"/>
      </g>
     </g>
     <g id="text_13">
      <text style="fill: #17202a; font: 9px 'DejaVu Sans'; text-anchor: end" x="57.224" y="308.987297" transform="rotate(-0 57.224 308.987297)">0</text>
     </g>
    </g>
    <g id="ytick_2">
     <g id="line2d_27">
      <path d="M 64.224 263.677091 
L 511.82469 263.677091 
" clip-path="url(#p88bc08b51e)" style="fill: none; stroke: #e7ebf0; stroke-width: 0.8; stroke-linecap: square"/>
     </g>
     <g id="line2d_28">
      <g>
       <use xlink:href="#m442b588c0b" x="64.224" y="263.677091" style="fill: #17202a; stroke: #17202a; stroke-width: 0.8"/>
      </g>
     </g>
     <g id="text_14">
      <text style="fill: #17202a; font: 9px 'DejaVu Sans'; text-anchor: end" x="57.224" y="267.096388" transform="rotate(-0 57.224 267.096388)">2</text>
     </g>
    </g>
    <g id="ytick_3">
     <g id="line2d_29">
      <path d="M 64.224 221.786182 
L 511.82469 221.786182 
" clip-path="url(#p88bc08b51e)" style="fill: none; stroke: #e7ebf0; stroke-width: 0.8; stroke-linecap: square"/>
     </g>
     <g id="line2d_30">
      <g>
       <use xlink:href="#m442b588c0b" x="64.224" y="221.786182" style="fill: #17202a; stroke: #17202a; stroke-width: 0.8"/>
      </g>
     </g>
     <g id="text_15">
      <text style="fill: #17202a; font: 9px 'DejaVu Sans'; text-anchor: end" x="57.224" y="225.205479" transform="rotate(-0 57.224 225.205479)">4</text>
     </g>
    </g>
    <g id="ytick_4">
     <g id="line2d_31">
      <path d="M 64.224 179.895273 
L 511.82469 179.895273 
" clip-path="url(#p88bc08b51e)" style="fill: none; stroke: #e7ebf0; stroke-width: 0.8; stroke-linecap: square"/>
     </g>
     <g id="line2d_32">
      <g>
       <use xlink:href="#m442b588c0b" x="64.224" y="179.895273" style="fill: #17202a; stroke: #17202a; stroke-width: 0.8"/>
      </g>
     </g>
     <g id="text_16">
      <text style="fill: #17202a; font: 9px 'DejaVu Sans'; text-anchor: end" x="57.224" y="183.31457" transform="rotate(-0 57.224 183.31457)">6</text>
     </g>
    </g>
    <g id="ytick_5">
     <g id="line2d_33">
      <path d="M 64.224 138.004364 
L 511.82469 138.004364 
" clip-path="url(#p88bc08b51e)" style="fill: none; stroke: #e7ebf0; stroke-width: 0.8; stroke-linecap: square"/>
     </g>
     <g id="line2d_34">
      <g>
       <use xlink:href="#m442b588c0b" x="64.224" y="138.004364" style="fill: #17202a; stroke: #17202a; stroke-width: 0.8"/>
      </g>
     </g>
     <g id="text_17">
      <text style="fill: #17202a; font: 9px 'DejaVu Sans'; text-anchor: end" x="57.224" y="141.423661" transform="rotate(-0 57.224 141.423661)">8</text>
     </g>
    </g>
    <g id="ytick_6">
     <g id="line2d_35">
      <path d="M 64.224 96.113455 
L 511.82469 96.113455 
" clip-path="url(#p88bc08b51e)" style="fill: none; stroke: #e7ebf0; stroke-width: 0.8; stroke-linecap: square"/>
     </g>
     <g id="line2d_36">
      <g>
       <use xlink:href="#m442b588c0b" x="64.224" y="96.113455" style="fill: #17202a; stroke: #17202a; stroke-width: 0.8"/>
      </g>
     </g>
     <g id="text_18">
      <text style="fill: #17202a; font: 9px 'DejaVu Sans'; text-anchor: end" x="57.224" y="99.532751" transform="rotate(-0 57.224 99.532751)">10</text>
     </g>
    </g>
    <g id="text_19">
     <text style="font: 10px 'DejaVu Sans'; text-anchor: middle" x="39.691812" y="184.608" transform="rotate(-90 39.691812 184.608)">casos SPH oficiales</text>
    </g>
   </g>
   <g id="patch_3">
    <path d="M 84.569486 305.568 
L 112.156585 305.568 
L 112.156585 263.677091 
L 84.569486 263.677091 
z
" clip-path="url(#p88bc08b51e)" style="fill: #2f7d4f"/>
   </g>
   <g id="patch_4">
    <path d="M 119.05336 305.568 
L 146.64046 305.568 
L 146.64046 200.840727 
L 119.05336 200.840727 
z
" clip-path="url(#p88bc08b51e)" style="fill: #2f7d4f"/>
   </g>
   <g id="patch_5">
    <path d="M 153.537235 305.568 
L 181.124334 305.568 
L 181.124334 221.786182 
L 153.537235 221.786182 
z
" clip-path="url(#p88bc08b51e)" style="fill: #2f7d4f"/>
   </g>
   <g id="patch_6">
    <path d="M 188.021109 305.568 
L 215.608209 305.568 
L 215.608209 179.895273 
L 188.021109 179.895273 
z
" clip-path="url(#p88bc08b51e)" style="fill: #2f7d4f"/>
   </g>
   <g id="patch_7">
    <path d="M 222.504984 305.568 
L 250.092083 305.568 
L 250.092083 158.949818 
L 222.504984 158.949818 
z
" clip-path="url(#p88bc08b51e)" style="fill: #2f7d4f"/>
   </g>
   <g id="patch_8">
    <path d="M 256.988858 305.568 
L 284.575958 305.568 
L 284.575958 200.840727 
L 256.988858 200.840727 
z
" clip-path="url(#p88bc08b51e)" style="fill: #2f7d4f"/>
   </g>
   <g id="patch_9">
    <path d="M 291.472732 305.568 
L 319.059832 305.568 
L 319.059832 138.004364 
L 291.472732 138.004364 
z
" clip-path="url(#p88bc08b51e)" style="fill: #2f7d4f"/>
   </g>
   <g id="patch_10">
    <path d="M 325.956607 305.568 
L 353.543706 305.568 
L 353.543706 200.840727 
L 325.956607 200.840727 
z
" clip-path="url(#p88bc08b51e)" style="fill: #2f7d4f"/>
   </g>
   <g id="patch_11">
    <path d="M 360.440481 305.568 
L 388.027581 305.568 
L 388.027581 221.786182 
L 360.440481 221.786182 
z
" clip-path="url(#p88bc08b51e)" style="fill: #2f7d4f"/>
   </g>
   <g id="patch_12">
    <path d="M 394.924356 305.568 
L 422.511455 305.568 
L 422.511455 242.731636 
L 394.924356 242.731636 
z
" clip-path="url(#p88bc08b51e)" style="fill: #2f7d4f"/>
   </g>
   <g id="patch_13">
    <path d="M 429.40823 305.568 
L 456.99533 305.568 
L 456.99533 305.568 
L 429.40823 305.568 
z
" clip-path="url(#p88bc08b51e)" style="fill: #2f7d4f"/>
   </g>
   <g id="patch_14">
    <path d="M 463.892105 305.568 
L 491.479204 305.568 
L 491.479204 200.840727 
L 463.892105 200.840727 
z
" clip-path="url(#p88bc08b51e)" style="fill: #2f7d4f"/>
   </g>
   <g id="patch_15">
    <path d="M 84.569486 263.677091 
L 112.156585 263.677091 
L 112.156585 200.840727 
L 84.569486 200.840727 
z
" clip-path="url(#p88bc08b51e)" style="fill: #b73b3b"/>
   </g>
   <g id="patch_16">
    <path d="M 119.05336 200.840727 
L 146.64046 200.840727 
L 146.64046 138.004364 
L 119.05336 138.004364 
z
" clip-path="url(#p88bc08b51e)" style="fill: #b73b3b"/>
   </g>
   <g id="patch_17">
    <path d="M 153.537235 221.786182 
L 181.124334 221.786182 
L 181.124334 96.113455 
L 153.537235 96.113455 
z
" clip-path="url(#p88bc08b51e)" style="fill: #b73b3b"/>
   </g>
   <g id="patch_18">
    <path d="M 188.021109 179.895273 
L 215.608209 179.895273 
L 215.608209 75.168 
L 188.021109 75.168 
z
" clip-path="url(#p88bc08b51e)" style="fill: #b73b3b"/>
   </g>
   <g id="patch_19">
    <path d="M 222.504984 158.949818 
L 250.092083 158.949818 
L 250.092083 138.004364 
L 222.504984 138.004364 
z
" clip-path="url(#p88bc08b51e)" style="fill: #b73b3b"/>
   </g>
   <g id="patch_20">
    <path d="M 256.988858 200.840727 
L 284.575958 200.840727 
L 284.575958 96.113455 
L 256.988858 96.113455 
z
" clip-path="url(#p88bc08b51e)" style="fill: #b73b3b"/>
   </g>
   <g id="patch_21">
    <path d="M 291.472732 138.004364 
L 319.059832 138.004364 
L 319.059832 138.004364 
L 291.472732 138.004364 
z
" clip-path="url(#p88bc08b51e)" style="fill: #b73b3b"/>
   </g>
   <g id="patch_22">
    <path d="M 325.956607 200.840727 
L 353.543706 200.840727 
L 353.543706 138.004364 
L 325.956607 138.004364 
z
" clip-path="url(#p88bc08b51e)" style="fill: #b73b3b"/>
   </g>
   <g id="patch_23">
    <path d="M 360.440481 221.786182 
L 388.027581 221.786182 
L 388.027581 138.004364 
L 360.440481 138.004364 
z
" clip-path="url(#p88bc08b51e)" style="fill: #b73b3b"/>
   </g>
   <g id="patch_24">
    <path d="M 394.924356 242.731636 
L 422.511455 242.731636 
L 422.511455 158.949818 
L 394.924356 158.949818 
z
" clip-path="url(#p88bc08b51e)" style="fill: #b73b3b"/>
   </g>
   <g id="patch_25">
    <path d="M 429.40823 305.568 
L 456.99533 305.568 
L 456.99533 263.677091 
L 429.40823 263.677091 
z
" clip-path="url(#p88bc08b51e)" style="fill: #b73b3b"/>
   </g>
   <g id="patch_26">
    <path d="M 463.892105 200.840727 
L 491.479204 200.840727 
L 491.479204 138.004364 
L 463.892105 138.004364 
z
" clip-path="url(#p88bc08b51e)" style="fill: #b73b3b"/>
   </g>
   <g id="patch_27">
    <path d="M 64.224 305.568 
L 64.224 63.648 
" style="fill: none; stroke: #cfd7e3; stroke-width: 0.8; stroke-linejoin: miter; stroke-linecap: square"/>
   </g>
   <g id="patch_28">
    <path d="M 64.224 305.568 
L 511.82469 305.568 
" style="fill: none; stroke: #cfd7e3; stroke-width: 0.8; stroke-linejoin: miter; stroke-linecap: square"/>
   </g>
   <g id="text_20">
    <text style="font: 700 9px 'DejaVu Sans'; text-anchor: middle" x="477.685654" y="191.638099" transform="rotate(-0 477.685654 191.638099)">5</text>
   </g>
   <g id="text_21">
    <text style="font: 700 9px 'DejaVu Sans'; text-anchor: middle" x="374.234031" y="128.801736" transform="rotate(-0 374.234031 128.801736)">8</text>
   </g>
   <g id="text_22">
    <text style="font: 700 9px 'DejaVu Sans'; text-anchor: middle" x="408.717906" y="86.910827" transform="rotate(-0 408.717906 86.910827)">10</text>
   </g>
   <g id="text_23">
    <text style="font: 700 9px 'DejaVu Sans'; text-anchor: middle" x="443.20178" y="65.965372" transform="rotate(-0 443.20178 65.965372)">11</text>
   </g>
   <g id="text_24">
    <text style="font: 700 9px 'DejaVu Sans'; text-anchor: middle" x="98.363036" y="128.801736" transform="rotate(-0 98.363036 128.801736)">8</text>
   </g>
   <g id="text_25">
    <text style="font: 700 9px 'DejaVu Sans'; text-anchor: middle" x="132.84691" y="86.910827" transform="rotate(-0 132.84691 86.910827)">10</text>
   </g>
   <g id="text_26">
    <text style="font: 700 9px 'DejaVu Sans'; text-anchor: middle" x="167.330785" y="128.801736" transform="rotate(-0 167.330785 128.801736)">8</text>
   </g>
   <g id="text_27">
    <text style="font: 700 9px 'DejaVu Sans'; text-anchor: middle" x="201.814659" y="128.801736" transform="rotate(-0 201.814659 128.801736)">8</text>
   </g>
   <g id="text_28">
    <text style="font: 700 9px 'DejaVu Sans'; text-anchor: middle" x="236.298533" y="128.801736" transform="rotate(-0 236.298533 128.801736)">8</text>
   </g>
   <g id="text_29">
    <text style="font: 700 9px 'DejaVu Sans'; text-anchor: middle" x="270.782408" y="149.74719" transform="rotate(-0 270.782408 149.74719)">7</text>
   </g>
   <g id="text_30">
    <text style="font: 700 9px 'DejaVu Sans'; text-anchor: middle" x="305.266282" y="254.474463" transform="rotate(-0 305.266282 254.474463)">2</text>
   </g>
   <g id="text_31">
    <text style="font: 700 9px 'DejaVu Sans'; text-anchor: middle" x="339.750157" y="128.801736" transform="rotate(-0 339.750157 128.801736)">8</text>
   </g>
   <g id="text_32">
    <text style="font: 13px 'DejaVu Sans'; text-anchor: middle" x="288.024345" y="57.648" transform="rotate(-0 288.024345 57.648)">Crecimiento de evidencia hasta AL8</text>
   </g>
   <g id="legend_1">
    <g id="patch_29">
     <path d="M 72.324 78.586594 
L 90.324 78.586594 
L 90.324 72.286594 
L 72.324 72.286594 
z
" style="fill: #2f7d4f"/>
    </g>
    <g id="text_33">
     <text style="font: 9px 'DejaVu Sans'; text-anchor: start" x="97.524" y="78.586594" transform="rotate(-0 97.524 78.586594)">ESTABLE</text>
    </g>
    <g id="patch_30">
     <path d="M 72.324 91.796906 
L 90.324 91.796906 
L 90.324 85.496906 
L 72.324 85.496906 
z
" style="fill: #b73b3b"/>
    </g>
    <g id="text_34">
     <text style="font: 9px 'DejaVu Sans'; text-anchor: start" x="97.524" y="91.796906" transform="rotate(-0 97.524 91.796906)">FALLO</text>
    </g>
   </g>
  </g>
  <g id="axes_2">
   <g id="patch_31">
    <path d="M 597.531933 305.568 
L 929.088 305.568 
L 929.088 63.648 
L 597.531933 63.648 
z
" style="fill: #ffffff"/>
   </g>
   <g id="matplotlib.axis_3">
    <g id="xtick_13">
     <g id="line2d_37">
      <path d="M 612.602664 305.568 
L 612.602664 63.648 
" clip-path="url(#p031d26a8c7)" style="fill: none; stroke: #e7ebf0; stroke-width: 0.8; stroke-linecap: square"/>
     </g>
     <g id="line2d_38">
      <g>
       <use xlink:href="#m1a81cbf3cc" x="612.602664" y="305.568" style="fill: #17202a; stroke: #17202a; stroke-width: 0.8"/>
      </g>
     </g>
     <g id="text_35">
      <text style="fill: #17202a; font: 9px 'DejaVu Sans'" transform="translate(591.241254 332.375544) rotate(-35)">Piloto</text>
     </g>
    </g>
    <g id="xtick_14">
     <g id="line2d_39">
      <path d="M 640.003991 305.568 
L 640.003991 63.648 
" clip-path="url(#p031d26a8c7)" style="fill: none; stroke: #e7ebf0; stroke-width: 0.8; stroke-linecap: square"/>
     </g>
     <g id="line2d_40">
      <g>
       <use xlink:href="#m1a81cbf3cc" x="640.003991" y="305.568" style="fill: #17202a; stroke: #17202a; stroke-width: 0.8"/>
      </g>
     </g>
     <g id="text_36">
      <text style="fill: #17202a; font: 9px 'DejaVu Sans'" transform="translate(610.704614 337.933768) rotate(-35)">Batch 2</text>
     </g>
    </g>
    <g id="xtick_15">
     <g id="line2d_41">
      <path d="M 667.405319 305.568 
L 667.405319 63.648 
" clip-path="url(#p031d26a8c7)" style="fill: none; stroke: #e7ebf0; stroke-width: 0.8; stroke-linecap: square"/>
     </g>
     <g id="line2d_42">
      <g>
       <use xlink:href="#m1a81cbf3cc" x="667.405319" y="305.568" style="fill: #17202a; stroke: #17202a; stroke-width: 0.8"/>
      </g>
     </g>
     <g id="text_37">
      <text style="fill: #17202a; font: 9px 'DejaVu Sans'" transform="translate(638.105942 337.933768) rotate(-35)">Batch 3</text>
     </g>
    </g>
    <g id="xtick_16">
     <g id="line2d_43">
      <path d="M 694.806647 305.568 
L 694.806647 63.648 
" clip-path="url(#p031d26a8c7)" style="fill: none; stroke: #e7ebf0; stroke-width: 0.8; stroke-linecap: square"/>
     </g>
     <g id="line2d_44">
      <g>
       <use xlink:href="#m1a81cbf3cc" x="694.806647" y="305.568" style="fill: #17202a; stroke: #17202a; stroke-width: 0.8"/>
      </g>
     </g>
     <g id="text_38">
      <text style="fill: #17202a; font: 9px 'DejaVu Sans'" transform="translate(643.106789 353.618754) rotate(-35)">Batch 4 masa</text>
     </g>
    </g>
    <g id="xtick_17">
     <g id="line2d_45">
      <path d="M 722.207975 305.568 
L 722.207975 63.648 
" clip-path="url(#p031d26a8c7)" style="fill: none; stroke: #e7ebf0; stroke-width: 0.8; stroke-linecap: square"/>
     </g>
     <g id="line2d_46">
      <g>
       <use xlink:href="#m1a81cbf3cc" x="722.207975" y="305.568" style="fill: #17202a; stroke: #17202a; stroke-width: 0.8"/>
      </g>
     </g>
     <g id="text_39">
      <text style="fill: #17202a; font: 9px 'DejaVu Sans'" transform="translate(707.292779 327.861856) rotate(-35)">AL1</text>
     </g>
    </g>
    <g id="xtick_18">
     <g id="line2d_47">
      <path d="M 749.609303 305.568 
L 749.609303 63.648 
" clip-path="url(#p031d26a8c7)" style="fill: none; stroke: #e7ebf0; stroke-width: 0.8; stroke-linecap: square"/>
     </g>
     <g id="line2d_48">
      <g>
       <use xlink:href="#m1a81cbf3cc" x="749.609303" y="305.568" style="fill: #17202a; stroke: #17202a; stroke-width: 0.8"/>
      </g>
     </g>
     <g id="text_40">
      <text style="fill: #17202a; font: 9px 'DejaVu Sans'" transform="translate(734.694107 327.861856) rotate(-35)">AL2</text>
     </g>
    </g>
    <g id="xtick_19">
     <g id="line2d_49">
      <path d="M 777.010631 305.568 
L 777.010631 63.648 
" clip-path="url(#p031d26a8c7)" style="fill: none; stroke: #e7ebf0; stroke-width: 0.8; stroke-linecap: square"/>
     </g>
     <g id="line2d_50">
      <g>
       <use xlink:href="#m1a81cbf3cc" x="777.010631" y="305.568" style="fill: #17202a; stroke: #17202a; stroke-width: 0.8"/>
      </g>
     </g>
     <g id="text_41">
      <text style="fill: #17202a; font: 9px 'DejaVu Sans'" transform="translate(762.095435 327.861856) rotate(-35)">AL3</text>
     </g>
    </g>
    <g id="xtick_20">
     <g id="line2d_51">
      <path d="M 804.411958 305.568 
L 804.411958 63.648 
" clip-path="url(#p031d26a8c7)" style="fill: none; stroke: #e7ebf0; stroke-width: 0.8; stroke-linecap: square"/>
     </g>
     <g id="line2d_52">
      <g>
       <use xlink:href="#m1a81cbf3cc" x="804.411958" y="305.568" style="fill: #17202a; stroke: #17202a; stroke-width: 0.8"/>
      </g>
     </g>
     <g id="text_42">
      <text style="fill: #17202a; font: 9px 'DejaVu Sans'" transform="translate(789.496763 327.861856) rotate(-35)">AL4</text>
     </g>
    </g>
    <g id="xtick_21">
     <g id="line2d_53">
      <path d="M 831.813286 305.568 
L 831.813286 63.648 
" clip-path="url(#p031d26a8c7)" style="fill: none; stroke: #e7ebf0; stroke-width: 0.8; stroke-linecap: square"/>
     </g>
     <g id="line2d_54">
      <g>
       <use xlink:href="#m1a81cbf3cc" x="831.813286" y="305.568" style="fill: #17202a; stroke: #17202a; stroke-width: 0.8"/>
      </g>
     </g>
     <g id="text_43">
      <text style="fill: #17202a; font: 9px 'DejaVu Sans'" transform="translate(816.898091 327.861856) rotate(-35)">AL5</text>
     </g>
    </g>
    <g id="xtick_22">
     <g id="line2d_55">
      <path d="M 859.214614 305.568 
L 859.214614 63.648 
" clip-path="url(#p031d26a8c7)" style="fill: none; stroke: #e7ebf0; stroke-width: 0.8; stroke-linecap: square"/>
     </g>
     <g id="line2d_56">
      <g>
       <use xlink:href="#m1a81cbf3cc" x="859.214614" y="305.568" style="fill: #17202a; stroke: #17202a; stroke-width: 0.8"/>
      </g>
     </g>
     <g id="text_44">
      <text style="fill: #17202a; font: 9px 'DejaVu Sans'" transform="translate(844.299419 327.861856) rotate(-35)">AL6</text>
     </g>
    </g>
    <g id="xtick_23">
     <g id="line2d_57">
      <path d="M 886.615942 305.568 
L 886.615942 63.648 
" clip-path="url(#p031d26a8c7)" style="fill: none; stroke: #e7ebf0; stroke-width: 0.8; stroke-linecap: square"/>
     </g>
     <g id="line2d_58">
      <g>
       <use xlink:href="#m1a81cbf3cc" x="886.615942" y="305.568" style="fill: #17202a; stroke: #17202a; stroke-width: 0.8"/>
      </g>
     </g>
     <g id="text_45">
      <text style="fill: #17202a; font: 9px 'DejaVu Sans'" transform="translate(852.178945 341.531168) rotate(-35)">AL7 local</text>
     </g>
    </g>
    <g id="xtick_24">
     <g id="line2d_59">
      <path d="M 914.01727 305.568 
L 914.01727 63.648 
" clip-path="url(#p031d26a8c7)" style="fill: none; stroke: #e7ebf0; stroke-width: 0.8; stroke-linecap: square"/>
     </g>
     <g id="line2d_60">
      <g>
       <use xlink:href="#m1a81cbf3cc" x="914.01727" y="305.568" style="fill: #17202a; stroke: #17202a; stroke-width: 0.8"/>
      </g>
     </g>
     <g id="text_46">
      <text style="fill: #17202a; font: 9px 'DejaVu Sans'" transform="translate(899.102074 327.861856) rotate(-35)">AL8</text>
     </g>
    </g>
   </g>
   <g id="matplotlib.axis_4">
    <g id="ytick_7">
     <g id="line2d_61">
      <path d="M 597.531933 299.405203 
L 929.088 299.405203 
" clip-path="url(#p031d26a8c7)" style="fill: none; stroke: #e7ebf0; stroke-width: 0.8; stroke-linecap: square"/>
     </g>
     <g id="line2d_62">
      <g>
       <use xlink:href="#m442b588c0b" x="597.531933" y="299.405203" style="fill: #17202a; stroke: #17202a; stroke-width: 0.8"/>
      </g>
     </g>
     <g id="text_47">
      <text style="fill: #17202a; font: 9px 'DejaVu Sans'; text-anchor: end" x="590.531933" y="302.8245" transform="rotate(-0 590.531933 302.8245)">0</text>
     </g>
    </g>
    <g id="ytick_8">
     <g id="line2d_63">
      <path d="M 597.531933 251.069538 
L 929.088 251.069538 
" clip-path="url(#p031d26a8c7)" style="fill: none; stroke: #e7ebf0; stroke-width: 0.8; stroke-linecap: square"/>
     </g>
     <g id="line2d_64">
      <g>
       <use xlink:href="#m442b588c0b" x="597.531933" y="251.069538" style="fill: #17202a; stroke: #17202a; stroke-width: 0.8"/>
      </g>
     </g>
     <g id="text_48">
      <text style="fill: #17202a; font: 9px 'DejaVu Sans'; text-anchor: end" x="590.531933" y="254.488835" transform="rotate(-0 590.531933 254.488835)">20</text>
     </g>
    </g>
    <g id="ytick_9">
     <g id="line2d_65">
      <path d="M 597.531933 202.733874 
L 929.088 202.733874 
" clip-path="url(#p031d26a8c7)" style="fill: none; stroke: #e7ebf0; stroke-width: 0.8; stroke-linecap: square"/>
     </g>
     <g id="line2d_66">
      <g>
       <use xlink:href="#m442b588c0b" x="597.531933" y="202.733874" style="fill: #17202a; stroke: #17202a; stroke-width: 0.8"/>
      </g>
     </g>
     <g id="text_49">
      <text style="fill: #17202a; font: 9px 'DejaVu Sans'; text-anchor: end" x="590.531933" y="206.153171" transform="rotate(-0 590.531933 206.153171)">40</text>
     </g>
    </g>
    <g id="ytick_10">
     <g id="line2d_67">
      <path d="M 597.531933 154.39821 
L 929.088 154.39821 
" clip-path="url(#p031d26a8c7)" style="fill: none; stroke: #e7ebf0; stroke-width: 0.8; stroke-linecap: square"/>
     </g>
     <g id="line2d_68">
      <g>
       <use xlink:href="#m442b588c0b" x="597.531933" y="154.39821" style="fill: #17202a; stroke: #17202a; stroke-width: 0.8"/>
      </g>
     </g>
     <g id="text_50">
      <text style="fill: #17202a; font: 9px 'DejaVu Sans'; text-anchor: end" x="590.531933" y="157.817507" transform="rotate(-0 590.531933 157.817507)">60</text>
     </g>
    </g>
    <g id="ytick_11">
     <g id="line2d_69">
      <path d="M 597.531933 106.062545 
L 929.088 106.062545 
" clip-path="url(#p031d26a8c7)" style="fill: none; stroke: #e7ebf0; stroke-width: 0.8; stroke-linecap: square"/>
     </g>
     <g id="line2d_70">
      <g>
       <use xlink:href="#m442b588c0b" x="597.531933" y="106.062545" style="fill: #17202a; stroke: #17202a; stroke-width: 0.8"/>
      </g>
     </g>
     <g id="text_51">
      <text style="fill: #17202a; font: 9px 'DejaVu Sans'; text-anchor: end" x="590.531933" y="109.481842" transform="rotate(-0 590.531933 109.481842)">80</text>
     </g>
    </g>
    <g id="text_52">
     <text style="font: 10px 'DejaVu Sans'; text-anchor: middle" x="572.999746" y="184.608" transform="rotate(-90 572.999746 184.608)">casos acumulados</text>
    </g>
   </g>
   <g id="line2d_71">
    <path d="M 612.602664 294.571636 
L 640.003991 282.48772 
L 667.405319 272.820587 
L 694.806647 258.319888 
L 722.207975 241.402406 
L 749.609303 229.31849 
L 777.010631 209.984224 
L 804.411958 197.900308 
L 831.813286 188.233175 
L 859.214614 180.982825 
L 886.615942 180.982825 
L 914.01727 168.898909 
" clip-path="url(#p031d26a8c7)" style="fill: none; stroke: #2f7d4f; stroke-width: 2.2; stroke-linecap: square"/>
    <defs>
     <path id="mcd2e4dee32" d="M 0 3 
C 0.795609 3 1.55874 2.683901 2.12132 2.12132 
C 2.683901 1.55874 3 0.795609 3 0 
C 3 -0.795609 2.683901 -1.55874 2.12132 -2.12132 
C 1.55874 -2.683901 0.795609 -3 0 -3 
C -0.795609 -3 -1.55874 -2.683901 -2.12132 -2.12132 
C -2.683901 -1.55874 -3 -0.795609 -3 0 
C -3 0.795609 -2.683901 1.55874 -2.12132 2.12132 
C -1.55874 2.683901 -0.795609 3 0 3 
z
" style="stroke: #2f7d4f"/>
    </defs>
    <g clip-path="url(#p031d26a8c7)">
     <use xlink:href="#mcd2e4dee32" x="612.602664" y="294.571636" style="fill: #2f7d4f; stroke: #2f7d4f"/>
     <use xlink:href="#mcd2e4dee32" x="640.003991" y="282.48772" style="fill: #2f7d4f; stroke: #2f7d4f"/>
     <use xlink:href="#mcd2e4dee32" x="667.405319" y="272.820587" style="fill: #2f7d4f; stroke: #2f7d4f"/>
     <use xlink:href="#mcd2e4dee32" x="694.806647" y="258.319888" style="fill: #2f7d4f; stroke: #2f7d4f"/>
     <use xlink:href="#mcd2e4dee32" x="722.207975" y="241.402406" style="fill: #2f7d4f; stroke: #2f7d4f"/>
     <use xlink:href="#mcd2e4dee32" x="749.609303" y="229.31849" style="fill: #2f7d4f; stroke: #2f7d4f"/>
     <use xlink:href="#mcd2e4dee32" x="777.010631" y="209.984224" style="fill: #2f7d4f; stroke: #2f7d4f"/>
     <use xlink:href="#mcd2e4dee32" x="804.411958" y="197.900308" style="fill: #2f7d4f; stroke: #2f7d4f"/>
     <use xlink:href="#mcd2e4dee32" x="831.813286" y="188.233175" style="fill: #2f7d4f; stroke: #2f7d4f"/>
     <use xlink:href="#mcd2e4dee32" x="859.214614" y="180.982825" style="fill: #2f7d4f; stroke: #2f7d4f"/>
     <use xlink:href="#mcd2e4dee32" x="886.615942" y="180.982825" style="fill: #2f7d4f; stroke: #2f7d4f"/>
     <use xlink:href="#mcd2e4dee32" x="914.01727" y="168.898909" style="fill: #2f7d4f; stroke: #2f7d4f"/>
    </g>
   </g>
   <g id="line2d_72">
    <path d="M 612.602664 292.154853 
L 640.003991 284.904503 
L 667.405319 270.403804 
L 694.806647 258.319888 
L 722.207975 255.903105 
L 749.609303 243.819189 
L 777.010631 243.819189 
L 804.411958 236.568839 
L 831.813286 226.901706 
L 859.214614 217.234573 
L 886.615942 212.401007 
L 914.01727 205.150657 
" clip-path="url(#p031d26a8c7)" style="fill: none; stroke: #b73b3b; stroke-width: 2.2; stroke-linecap: square"/>
    <defs>
     <path id="m1200779d19" d="M 0 3 
C 0.795609 3 1.55874 2.683901 2.12132 2.12132 
C 2.683901 1.55874 3 0.795609 3 0 
C 3 -0.795609 2.683901 -1.55874 2.12132 -2.12132 
C 1.55874 -2.683901 0.795609 -3 0 -3 
C -0.795609 -3 -1.55874 -2.683901 -2.12132 -2.12132 
C -2.683901 -1.55874 -3 -0.795609 -3 0 
C -3 0.795609 -2.683901 1.55874 -2.12132 2.12132 
C -1.55874 2.683901 -0.795609 3 0 3 
z
" style="stroke: #b73b3b"/>
    </defs>
    <g clip-path="url(#p031d26a8c7)">
     <use xlink:href="#m1200779d19" x="612.602664" y="292.154853" style="fill: #b73b3b; stroke: #b73b3b"/>
     <use xlink:href="#m1200779d19" x="640.003991" y="284.904503" style="fill: #b73b3b; stroke: #b73b3b"/>
     <use xlink:href="#m1200779d19" x="667.405319" y="270.403804" style="fill: #b73b3b; stroke: #b73b3b"/>
     <use xlink:href="#m1200779d19" x="694.806647" y="258.319888" style="fill: #b73b3b; stroke: #b73b3b"/>
     <use xlink:href="#m1200779d19" x="722.207975" y="255.903105" style="fill: #b73b3b; stroke: #b73b3b"/>
     <use xlink:href="#m1200779d19" x="749.609303" y="243.819189" style="fill: #b73b3b; stroke: #b73b3b"/>
     <use xlink:href="#m1200779d19" x="777.010631" y="243.819189" style="fill: #b73b3b; stroke: #b73b3b"/>
     <use xlink:href="#m1200779d19" x="804.411958" y="236.568839" style="fill: #b73b3b; stroke: #b73b3b"/>
     <use xlink:href="#m1200779d19" x="831.813286" y="226.901706" style="fill: #b73b3b; stroke: #b73b3b"/>
     <use xlink:href="#m1200779d19" x="859.214614" y="217.234573" style="fill: #b73b3b; stroke: #b73b3b"/>
     <use xlink:href="#m1200779d19" x="886.615942" y="212.401007" style="fill: #b73b3b; stroke: #b73b3b"/>
     <use xlink:href="#m1200779d19" x="914.01727" y="205.150657" style="fill: #b73b3b; stroke: #b73b3b"/>
    </g>
   </g>
   <g id="line2d_73">
    <path d="M 612.602664 287.321287 
L 640.003991 267.987021 
L 667.405319 243.819189 
L 694.806647 217.234573 
L 722.207975 197.900308 
L 749.609303 173.732476 
L 777.010631 154.39821 
L 804.411958 135.063944 
L 831.813286 115.729678 
L 859.214614 98.812196 
L 886.615942 93.978629 
L 914.01727 74.644364 
" clip-path="url(#p031d26a8c7)" style="fill: none; stroke: #17202a; stroke-width: 2; stroke-linecap: square"/>
    <defs>
     <path id="m092ea22935" d="M 0 3 
C 0.795609 3 1.55874 2.683901 2.12132 2.12132 
C 2.683901 1.55874 3 0.795609 3 0 
C 3 -0.795609 2.683901 -1.55874 2.12132 -2.12132 
C 1.55874 -2.683901 0.795609 -3 0 -3 
C -0.795609 -3 -1.55874 -2.683901 -2.12132 -2.12132 
C -2.683901 -1.55874 -3 -0.795609 -3 0 
C -3 0.795609 -2.683901 1.55874 -2.12132 2.12132 
C -1.55874 2.683901 -0.795609 3 0 3 
z
" style="stroke: #17202a"/>
    </defs>
    <g clip-path="url(#p031d26a8c7)">
     <use xlink:href="#m092ea22935" x="612.602664" y="287.321287" style="fill: #17202a; stroke: #17202a"/>
     <use xlink:href="#m092ea22935" x="640.003991" y="267.987021" style="fill: #17202a; stroke: #17202a"/>
     <use xlink:href="#m092ea22935" x="667.405319" y="243.819189" style="fill: #17202a; stroke: #17202a"/>
     <use xlink:href="#m092ea22935" x="694.806647" y="217.234573" style="fill: #17202a; stroke: #17202a"/>
     <use xlink:href="#m092ea22935" x="722.207975" y="197.900308" style="fill: #17202a; stroke: #17202a"/>
     <use xlink:href="#m092ea22935" x="749.609303" y="173.732476" style="fill: #17202a; stroke: #17202a"/>
     <use xlink:href="#m092ea22935" x="777.010631" y="154.39821" style="fill: #17202a; stroke: #17202a"/>
     <use xlink:href="#m092ea22935" x="804.411958" y="135.063944" style="fill: #17202a; stroke: #17202a"/>
     <use xlink:href="#m092ea22935" x="831.813286" y="115.729678" style="fill: #17202a; stroke: #17202a"/>
     <use xlink:href="#m092ea22935" x="859.214614" y="98.812196" style="fill: #17202a; stroke: #17202a"/>
     <use xlink:href="#m092ea22935" x="886.615942" y="93.978629" style="fill: #17202a; stroke: #17202a"/>
     <use xlink:href="#m092ea22935" x="914.01727" y="74.644364" style="fill: #17202a; stroke: #17202a"/>
    </g>
   </g>
   <g id="patch_32">
    <path d="M 597.531933 305.568 
L 597.531933 63.648 
" style="fill: none; stroke: #cfd7e3; stroke-width: 0.8; stroke-linejoin: miter; stroke-linecap: square"/>
   </g>
   <g id="patch_33">
    <path d="M 597.531933 305.568 
L 929.088 305.568 
" style="fill: none; stroke: #cfd7e3; stroke-width: 0.8; stroke-linejoin: miter; stroke-linecap: square"/>
   </g>
   <g id="text_53">
    <text style="font: 13px 'DejaVu Sans'; text-anchor: middle" x="763.309967" y="57.648" transform="rotate(-0 763.309967 57.648)">Balance de clases</text>
   </g>
   <g id="legend_2">
    <g id="line2d_74">
     <path d="M 605.631933 75.436594 
L 614.631933 75.436594 
L 623.631933 75.436594 
" style="fill: none; stroke: #2f7d4f; stroke-width: 2.2; stroke-linecap: square"/>
     <g>
      <use xlink:href="#mcd2e4dee32" x="614.631933" y="75.436594" style="fill: #2f7d4f; stroke: #2f7d4f"/>
     </g>
    </g>
    <g id="text_54">
     <text style="font: 9px 'DejaVu Sans'; text-anchor: start" x="630.831933" y="78.586594" transform="rotate(-0 630.831933 78.586594)">ESTABLE acumulado</text>
    </g>
    <g id="line2d_75">
     <path d="M 605.631933 88.646906 
L 614.631933 88.646906 
L 623.631933 88.646906 
" style="fill: none; stroke: #b73b3b; stroke-width: 2.2; stroke-linecap: square"/>
     <g>
      <use xlink:href="#m1200779d19" x="614.631933" y="88.646906" style="fill: #b73b3b; stroke: #b73b3b"/>
     </g>
    </g>
    <g id="text_55">
     <text style="font: 9px 'DejaVu Sans'; text-anchor: start" x="630.831933" y="91.796906" transform="rotate(-0 630.831933 91.796906)">FALLO acumulado</text>
    </g>
    <g id="line2d_76">
     <path d="M 605.631933 101.857219 
L 614.631933 101.857219 
L 623.631933 101.857219 
" style="fill: none; stroke: #17202a; stroke-width: 2; stroke-linecap: square"/>
     <g>
      <use xlink:href="#m092ea22935" x="614.631933" y="101.857219" style="fill: #17202a; stroke: #17202a"/>
     </g>
    </g>
    <g id="text_56">
     <text style="font: 9px 'DejaVu Sans'; text-anchor: start" x="630.831933" y="105.007219" transform="rotate(-0 630.831933 105.007219)">total</text>
    </g>
   </g>
  </g>
  <g id="text_57">
   <text style="font: 700 16px 'DejaVu Sans'; text-anchor: middle" x="472.896" y="19.645" transform="rotate(-0 472.896 19.645)">Campaña productiva y active learning</text>
  </g>
  <g id="text_58">
   <text style="fill: #5a6673; font: 9px 'DejaVu Sans'; text-anchor: start" x="7.2" y="398.304" transform="rotate(-0 7.2 398.304)">Checks finos dp=0.002: 4/6 completados, todos ESTABLE hasta ahora.</text>
  </g>
 </g>
 <defs>
  <clipPath id="p88bc08b51e">
   <rect x="64.224" y="63.648" width="447.60069" height="241.92"/>
  </clipPath>
  <clipPath id="p031d26a8c7">
   <rect x="597.531933" y="63.648" width="331.556067" height="241.92"/>
  </clipPath>
 </defs>
</svg>
