<?xml version="1.0" encoding="utf-8" standalone="no"?>
<!DOCTYPE svg PUBLIC "-//W3C//DTD SVG 1.1//EN"
  "http://www.w3.org/Graphics/SVG/1.1/DTD/svg11.dtd">
<svg xmlns:xlink="http://www.w3.org/1999/xlink" width="1001.99952pt" height="382.79952pt" viewBox="0 0 1001.99952 382.79952" xmlns="http://www.w3.org/2000/svg" version="1.1">
 <metadata>
  <rdf:RDF xmlns:dc="http://purl.org/dc/elements/1.1/" xmlns:cc="http://creativecommons.org/ns#" xmlns:rdf="http://www.w3.org/1999/02/22-rdf-syntax-ns#">
   <cc:Work>
    <dc:type rdf:resource="http://purl.org/dc/dcmitype/StillImage"/>
    <dc:date>2026-05-18T15:10:59.571656</dc:date>
    <dc:format>image/svg+xml</dc:format>
    <dc:creator>
     <cc:Agent>
      <dc:title>Matplotlib v3.7.5, https://matplotlib.org/</dc:title>
     </cc:Agent>
    </dc:creator>
   </cc:Work>
  </rdf:RDF>
 </metadata>
 <defs>
  <style type="text/css">*{stroke-linejoin: round; stroke-linecap: butt}</style>
 </defs>
 <g id="figure_1">
  <g id="patch_1">
   <path d="M 0 382.79952 
L 1001.99952 382.79952 
L 1001.99952 0 
L 0 0 
z
" style="fill: #ffffff"/>
  </g>
  <g id="axes_1">
   <g id="patch_2">
    <path d="M 60.81025 361.53427 
L 949.930707 361.53427 
L 949.930707 22.470094 
L 60.81025 22.470094 
z
" style="fill: #ffffff"/>
   </g>
   <g id="axes_2">
    <g id="patch_3">
     <path d="M 949.930707 361.53427 
L 949.930707 361.53427 
L 949.930707 22.470094 
L 949.930707 22.470094 
z
" style="fill: #ffffff"/>
    </g>
    <g id="matplotlib.axis_1"/>
    <g id="matplotlib.axis_2">
     <g id="ytick_1">
      <g id="line2d_1">
       <path d="M 949.930707 360.481325 
L 949.930707 360.481325 
" clip-path="url(#pe01d29780e)" style="fill: none; stroke: #b0b0b0; stroke-opacity: 0.18; stroke-width: 0.7; stroke-linecap: square"/>
      </g>
      <g id="line2d_2">
       <defs>
        <path id="mfcb7221522" d="M 0 0 
L 3.5 0 
" style="stroke: #333333; stroke-width: 0.8"/>
       </defs>
       <g>
        <use xlink:href="#mfcb7221522" x="949.930707" y="360.481325" style="fill: #333333; stroke: #333333; stroke-width: 0.8"/>
       </g>
      </g>
      <g id="text_1">
       <text style="fill: #333333; font: 9.2px 'DejaVu Sans', 'Bitstream Vera Sans', 'Computer Modern Sans Serif', 'Lucida Grande', 'Verdana', 'Geneva', 'Lucid', 'Arial', 'Helvetica', 'Avant Garde', sans-serif; text-anchor: start" x="956.930707" y="363.976606" transform="rotate(-0 956.930707 363.976606)">-20.0</text>
      </g>
     </g>
     <g id="ytick_2">
      <g id="line2d_3">
       <path d="M 949.930707 297.954899 
L 949.930707 297.954899 
" clip-path="url(#pe01d29780e)" style="fill: none; stroke: #b0b0b0; stroke-opacity: 0.18; stroke-width: 0.7; stroke-linecap: square"/>
      </g>
      <g id="line2d_4">
       <g>
        <use xlink:href="#mfcb7221522" x="949.930707" y="297.954899" style="fill: #333333; stroke: #333333; stroke-width: 0.8"/>
       </g>
      </g>
      <g id="text_2">
       <text style="fill: #333333; font: 9.2px 'DejaVu Sans', 'Bitstream Vera Sans', 'Computer Modern Sans Serif', 'Lucida Grande', 'Verdana', 'Geneva', 'Lucid', 'Arial', 'Helvetica', 'Avant Garde', sans-serif; text-anchor: start" x="956.930707" y="301.45018" transform="rotate(-0 956.930707 301.45018)">-15.0</text>
      </g>
     </g>
     <g id="ytick_3">
      <g id="line2d_5">
       <path d="M 949.930707 235.428473 
L 949.930707 235.428473 
" clip-path="url(#pe01d29780e)" style="fill: none; stroke: #b0b0b0; stroke-opacity: 0.18; stroke-width: 0.7; stroke-linecap: square"/>
      </g>
      <g id="line2d_6">
       <g>
        <use xlink:href="#mfcb7221522" x="949.930707" y="235.428473" style="fill: #333333; stroke: #333333; stroke-width: 0.8"/>
       </g>
      </g>
      <g id="text_3">
       <text style="fill: #333333; font: 9.2px 'DejaVu Sans', 'Bitstream Vera Sans', 'Computer Modern Sans Serif', 'Lucida Grande', 'Verdana', 'Geneva', 'Lucid', 'Arial', 'Helvetica', 'Avant Garde', sans-serif; text-anchor: start" x="956.930707" y="238.923754" transform="rotate(-0 956.930707 238.923754)">-10.0</text>
      </g>
     </g>
     <g id="ytick_4">
      <g id="line2d_7">
       <path d="M 949.930707 172.902047 
L 949.930707 172.902047 
" clip-path="url(#pe01d29780e)" style="fill: none; stroke: #b0b0b0; stroke-opacity: 0.18; stroke-width: 0.7; stroke-linecap: square"/>
      </g>
      <g id="line2d_8">
       <g>
        <use xlink:href="#mfcb7221522" x="949.930707" y="172.902047" style="fill: #333333; stroke: #333333; stroke-width: 0.8"/>
       </g>
      </g>
      <g id="text_4">
       <text style="fill: #333333; font: 9.2px 'DejaVu Sans', 'Bitstream Vera Sans', 'Computer Modern Sans Serif', 'Lucida Grande', 'Verdana', 'Geneva', 'Lucid', 'Arial', 'Helvetica', 'Avant Garde', sans-serif; text-anchor: start" x="956.930707" y="176.397328" transform="rotate(-0 956.930707 176.397328)">-5.0</text>
      </g>
     </g>
     <g id="ytick_5">
      <g id="line2d_9">
       <path d="M 949.930707 110.375621 
L 949.930707 110.375621 
" clip-path="url(#pe01d29780e)" style="fill: none; stroke: #b0b0b0; stroke-opacity: 0.18; stroke-width: 0.7; stroke-linecap: square"/>
      </g>
      <g id="line2d_10">
       <g>
        <use xlink:href="#mfcb7221522" x="949.930707" y="110.375621" style="fill: #333333; stroke: #333333; stroke-width: 0.8"/>
       </g>
      </g>
      <g id="text_5">
       <text style="fill: #333333; font: 9.2px 'DejaVu Sans', 'Bitstream Vera Sans', 'Computer Modern Sans Serif', 'Lucida Grande', 'Verdana', 'Geneva', 'Lucid', 'Arial', 'Helvetica', 'Avant Garde', sans-serif; text-anchor: start" x="956.930707" y="113.870902" transform="rotate(-0 956.930707 113.870902)">0.0</text>
      </g>
     </g>
     <g id="ytick_6">
      <g id="line2d_11">
       <path d="M 949.930707 47.849195 
L 949.930707 47.849195 
" clip-path="url(#pe01d29780e)" style="fill: none; stroke: #b0b0b0; stroke-opacity: 0.18; stroke-width: 0.7; stroke-linecap: square"/>
      </g>
      <g id="line2d_12">
       <g>
        <use xlink:href="#mfcb7221522" x="949.930707" y="47.849195" style="fill: #333333; stroke: #333333; stroke-width: 0.8"/>
       </g>
      </g>
      <g id="text_6">
       <text style="fill: #333333; font: 9.2px 'DejaVu Sans', 'Bitstream Vera Sans', 'Computer Modern Sans Serif', 'Lucida Grande', 'Verdana', 'Geneva', 'Lucid', 'Arial', 'Helvetica', 'Avant Garde', sans-serif; text-anchor: start" x="956.930707" y="51.344476" transform="rotate(-0 956.930707 51.344476)">5.0</text>
      </g>
     </g>
     <g id="text_7">
      <text style="fill: #222222; font: 10.4px 'DejaVu Sans', 'Bitstream Vera Sans', 'Computer Modern Sans Serif', 'Lucida Grande', 'Verdana', 'Geneva', 'Lucid', 'Arial', 'Helvetica', 'Avant Garde', sans-serif; text-anchor: middle" x="992.636645" y="192.002182" transform="rotate(-90 992.636645 192.002182)">margen absoluto a umbral (mm)</text>
     </g>
    </g>
    <g id="patch_4">
     <path d="M 949.930707 361.53427 
L 949.930707 22.470094 
" style="fill: none; stroke: #444444; stroke-width: 0.8; stroke-linejoin: miter; stroke-linecap: square"/>
    </g>
   </g>
   <g id="patch_5">
    <path d="M 102.571968 110.375621 
L 113.349186 110.375621 
L 113.349186 351.487924 
L 102.571968 351.487924 
z
" clip-path="url(#pee8cc6c40e)" style="fill: #b73b3b; opacity: 0.9; stroke: #333333; stroke-width: 0.45; stroke-linejoin: miter"/>
   </g>
   <g id="patch_6">
    <path d="M 116.043491 110.375621 
L 126.820708 110.375621 
L 126.820708 65.421412 
L 116.043491 65.421412 
z
" clip-path="url(#pee8cc6c40e)" style="fill: #2f7d4f; opacity: 0.9; stroke: #333333; stroke-width: 0.45; stroke-linejoin: miter"/>
   </g>
   <g id="patch_7">
    <path d="M 129.515013 110.375621 
L 140.29223 110.375621 
L 140.29223 110.639727 
L 129.515013 110.639727 
z
" clip-path="url(#pee8cc6c40e)" style="fill: #b73b3b; opacity: 0.9; stroke: #333333; stroke-width: 0.45; stroke-linejoin: miter"/>
   </g>
   <g id="patch_8">
    <path d="M 142.986535 110.375621 
L 153.763752 110.375621 
L 153.763752 63.053024 
L 142.986535 63.053024 
z
" clip-path="url(#pee8cc6c40e)" style="fill: #2f7d4f; opacity: 0.9; stroke: #333333; stroke-width: 0.45; stroke-linejoin: miter"/>
   </g>
   <g id="patch_9">
    <path d="M 156.458057 110.375621 
L 167.235274 110.375621 
L 167.235274 351.487924 
L 156.458057 351.487924 
z
" clip-path="url(#pee8cc6c40e)" style="fill: #b73b3b; opacity: 0.9; stroke: #333333; stroke-width: 0.45; stroke-linejoin: miter"/>
   </g>
   <g id="patch_10">
    <path d="M 169.929579 110.375621 
L 180.706797 110.375621 
L 180.706797 63.063157 
L 169.929579 63.063157 
z
" clip-path="url(#pee8cc6c40e)" style="fill: #2f7d4f; opacity: 0.9; stroke: #333333; stroke-width: 0.45; stroke-linejoin: miter"/>
   </g>
   <g id="patch_11">
    <path d="M 183.401101 110.375621 
L 194.178319 110.375621 
L 194.178319 66.484587 
L 183.401101 66.484587 
z
" clip-path="url(#pee8cc6c40e)" style="fill: #2f7d4f; opacity: 0.9; stroke: #333333; stroke-width: 0.45; stroke-linejoin: miter"/>
   </g>
   <g id="patch_12">
    <path d="M 196.872623 110.375621 
L 207.649841 110.375621 
L 207.649841 65.424822 
L 196.872623 65.424822 
z
" clip-path="url(#pee8cc6c40e)" style="fill: #2f7d4f; opacity: 0.9; stroke: #333333; stroke-width: 0.45; stroke-linejoin: miter"/>
   </g>
   <g id="patch_13">
    <path d="M 210.344145 110.375621 
L 221.121363 110.375621 
L 221.121363 122.812919 
L 210.344145 122.812919 
z
" clip-path="url(#pee8cc6c40e)" style="fill: #b73b3b; opacity: 0.9; stroke: #333333; stroke-width: 0.45; stroke-linejoin: miter"/>
   </g>
   <g id="patch_14">
    <path d="M 223.815667 110.375621 
L 234.592885 110.375621 
L 234.592885 95.07507 
L 223.815667 95.07507 
z
" clip-path="url(#pee8cc6c40e)" style="fill: #2f7d4f; opacity: 0.9; stroke: #333333; stroke-width: 0.45; stroke-linejoin: miter"/>
   </g>
   <g id="patch_15">
    <path d="M 237.287189 110.375621 
L 248.064407 110.375621 
L 248.064407 76.618132 
L 237.287189 76.618132 
z
" clip-path="url(#pee8cc6c40e)" style="fill: #2f7d4f; opacity: 0.9; stroke: #333333; stroke-width: 0.45; stroke-linejoin: miter"/>
   </g>
   <g id="patch_16">
    <path d="M 250.758711 110.375621 
L 261.535929 110.375621 
L 261.535929 351.487924 
L 250.758711 351.487924 
z
" clip-path="url(#pee8cc6c40e)" style="fill: #b73b3b; opacity: 0.9; stroke: #333333; stroke-width: 0.45; stroke-linejoin: miter"/>
   </g>
   <g id="patch_17">
    <path d="M 264.230233 110.375621 
L 275.007451 110.375621 
L 275.007451 351.487924 
L 264.230233 351.487924 
z
" clip-path="url(#pee8cc6c40e)" style="fill: #b73b3b; opacity: 0.9; stroke: #333333; stroke-width: 0.45; stroke-linejoin: miter"/>
   </g>
   <g id="patch_18">
    <path d="M 277.701756 110.375621 
L 288.478973 110.375621 
L 288.478973 63.060662 
L 277.701756 63.060662 
z
" clip-path="url(#pee8cc6c40e)" style="fill: #2f7d4f; opacity: 0.9; stroke: #333333; stroke-width: 0.45; stroke-linejoin: miter"/>
   </g>
   <g id="patch_19">
    <path d="M 291.173278 110.375621 
L 301.950495 110.375621 
L 301.950495 63.061248 
L 291.173278 63.061248 
z
" clip-path="url(#pee8cc6c40e)" style="fill: #2f7d4f; opacity: 0.9; stroke: #333333; stroke-width: 0.45; stroke-linejoin: miter"/>
   </g>
   <g id="patch_20">
    <path d="M 304.6448 110.375621 
L 315.422017 110.375621 
L 315.422017 63.063157 
L 304.6448 63.063157 
z
" clip-path="url(#pee8cc6c40e)" style="fill: #2f7d4f; opacity: 0.9; stroke: #333333; stroke-width: 0.45; stroke-linejoin: miter"/>
   </g>
   <g id="patch_21">
    <path d="M 318.116322 110.375621 
L 328.893539 110.375621 
L 328.893539 129.651653 
L 318.116322 129.651653 
z
" clip-path="url(#pee8cc6c40e)" style="fill: #b73b3b; opacity: 0.9; stroke: #333333; stroke-width: 0.45; stroke-linejoin: miter"/>
   </g>
   <g id="patch_22">
    <path d="M 331.587844 110.375621 
L 342.365062 110.375621 
L 342.365062 149.147576 
L 331.587844 149.147576 
z
" clip-path="url(#pee8cc6c40e)" style="fill: #b73b3b; opacity: 0.9; stroke: #333333; stroke-width: 0.45; stroke-linejoin: miter"/>
   </g>
   <g id="patch_23">
    <path d="M 345.059366 110.375621 
L 355.836584 110.375621 
L 355.836584 100.96346 
L 345.059366 100.96346 
z
" clip-path="url(#pee8cc6c40e)" style="fill: #2f7d4f; opacity: 0.9; stroke: #333333; stroke-width: 0.45; stroke-linejoin: miter"/>
   </g>
   <g id="patch_24">
    <path d="M 358.530888 110.375621 
L 369.308106 110.375621 
L 369.308106 348.387266 
L 358.530888 348.387266 
z
" clip-path="url(#pee8cc6c40e)" style="fill: #b73b3b; opacity: 0.9; stroke: #333333; stroke-width: 0.45; stroke-linejoin: miter"/>
   </g>
   <g id="patch_25">
    <path d="M 372.00241 110.375621 
L 382.779628 110.375621 
L 382.779628 155.038253 
L 372.00241 155.038253 
z
" clip-path="url(#pee8cc6c40e)" style="fill: #b73b3b; opacity: 0.9; stroke: #333333; stroke-width: 0.45; stroke-linejoin: miter"/>
   </g>
   <g id="patch_26">
    <path d="M 385.473932 110.375621 
L 396.25115 110.375621 
L 396.25115 351.487924 
L 385.473932 351.487924 
z
" clip-path="url(#pee8cc6c40e)" style="fill: #b73b3b; opacity: 0.9; stroke: #333333; stroke-width: 0.45; stroke-linejoin: miter"/>
   </g>
   <g id="patch_27">
    <path d="M 398.945454 110.375621 
L 409.722672 110.375621 
L 409.722672 351.487924 
L 398.945454 351.487924 
z
" clip-path="url(#pee8cc6c40e)" style="fill: #b73b3b; opacity: 0.9; stroke: #333333; stroke-width: 0.45; stroke-linejoin: miter"/>
   </g>
   <g id="patch_28">
    <path d="M 412.416976 110.375621 
L 423.194194 110.375621 
L 423.194194 116.153906 
L 412.416976 116.153906 
z
" clip-path="url(#pee8cc6c40e)" style="fill: #b73b3b; opacity: 0.9; stroke: #333333; stroke-width: 0.45; stroke-linejoin: miter"/>
   </g>
   <g id="patch_29">
    <path d="M 425.888498 110.375621 
L 436.665716 110.375621 
L 436.665716 63.061248 
L 425.888498 63.061248 
z
" clip-path="url(#pee8cc6c40e)" style="fill: #2f7d4f; opacity: 0.9; stroke: #333333; stroke-width: 0.45; stroke-linejoin: miter"/>
   </g>
   <g id="patch_30">
    <path d="M 439.360021 110.375621 
L 450.137238 110.375621 
L 450.137238 351.487924 
L 439.360021 351.487924 
z
" clip-path="url(#pee8cc6c40e)" style="fill: #b73b3b; opacity: 0.9; stroke: #333333; stroke-width: 0.45; stroke-linejoin: miter"/>
   </g>
   <g id="patch_31">
    <path d="M 452.831543 110.375621 
L 463.60876 110.375621 
L 463.60876 101.312531 
L 452.831543 101.312531 
z
" clip-path="url(#pee8cc6c40e)" style="fill: #2f7d4f; opacity: 0.9; stroke: #333333; stroke-width: 0.45; stroke-linejoin: miter"/>
   </g>
   <g id="patch_32">
    <path d="M 466.303065 110.375621 
L 477.080282 110.375621 
L 477.080282 63.05076 
L 466.303065 63.05076 
z
" clip-path="url(#pee8cc6c40e)" style="fill: #2f7d4f; opacity: 0.9; stroke: #333333; stroke-width: 0.45; stroke-linejoin: miter"/>
   </g>
   <g id="patch_33">
    <path d="M 479.774587 110.375621 
L 490.551804 110.375621 
L 490.551804 63.05076 
L 479.774587 63.05076 
z
" clip-path="url(#pee8cc6c40e)" style="fill: #2f7d4f; opacity: 0.9; stroke: #333333; stroke-width: 0.45; stroke-linejoin: miter"/>
   </g>
   <g id="patch_34">
    <path d="M 493.246109 110.375621 
L 504.023326 110.375621 
L 504.023326 351.487924 
L 493.246109 351.487924 
z
" clip-path="url(#pee8cc6c40e)" style="fill: #b73b3b; opacity: 0.9; stroke: #333333; stroke-width: 0.45; stroke-linejoin: miter"/>
   </g>
   <g id="patch_35">
    <path d="M 506.717631 110.375621 
L 517.494849 110.375621 
L 517.494849 63.065416 
L 506.717631 63.065416 
z
" clip-path="url(#pee8cc6c40e)" style="fill: #2f7d4f; opacity: 0.9; stroke: #333333; stroke-width: 0.45; stroke-linejoin: miter"/>
   </g>
   <g id="patch_36">
    <path d="M 520.189153 110.375621 
L 530.966371 110.375621 
L 530.966371 351.487924 
L 520.189153 351.487924 
z
" clip-path="url(#pee8cc6c40e)" style="fill: #b73b3b; opacity: 0.9; stroke: #333333; stroke-width: 0.45; stroke-linejoin: miter"/>
   </g>
   <g id="patch_37">
    <path d="M 533.660675 110.375621 
L 544.437893 110.375621 
L 544.437893 121.024087 
L 533.660675 121.024087 
z
" clip-path="url(#pee8cc6c40e)" style="fill: #b73b3b; opacity: 0.9; stroke: #333333; stroke-width: 0.45; stroke-linejoin: miter"/>
   </g>
   <g id="patch_38">
    <path d="M 547.132197 110.375621 
L 557.909415 110.375621 
L 557.909415 63.078826 
L 547.132197 63.078826 
z
" clip-path="url(#pee8cc6c40e)" style="fill: #2f7d4f; opacity: 0.9; stroke: #333333; stroke-width: 0.45; stroke-linejoin: miter"/>
   </g>
   <g id="patch_39">
    <path d="M 560.603719 110.375621 
L 571.380937 110.375621 
L 571.380937 63.06095 
L 560.603719 63.06095 
z
" clip-path="url(#pee8cc6c40e)" style="fill: #2f7d4f; opacity: 0.9; stroke: #333333; stroke-width: 0.45; stroke-linejoin: miter"/>
   </g>
   <g id="patch_40">
    <path d="M 574.075241 110.375621 
L 584.852459 110.375621 
L 584.852459 143.53143 
L 574.075241 143.53143 
z
" clip-path="url(#pee8cc6c40e)" style="fill: #b73b3b; opacity: 0.9; stroke: #333333; stroke-width: 0.45; stroke-linejoin: miter"/>
   </g>
   <g id="patch_41">
    <path d="M 587.546763 110.375621 
L 598.323981 110.375621 
L 598.323981 63.04855 
L 587.546763 63.04855 
z
" clip-path="url(#pee8cc6c40e)" style="fill: #2f7d4f; opacity: 0.9; stroke: #333333; stroke-width: 0.45; stroke-linejoin: miter"/>
   </g>
   <g id="patch_42">
    <path d="M 601.018285 110.375621 
L 611.795503 110.375621 
L 611.795503 63.04855 
L 601.018285 63.04855 
z
" clip-path="url(#pee8cc6c40e)" style="fill: #2f7d4f; opacity: 0.9; stroke: #333333; stroke-width: 0.45; stroke-linejoin: miter"/>
   </g>
   <g id="patch_43">
    <path d="M 614.489808 110.375621 
L 625.267025 110.375621 
L 625.267025 72.502963 
L 614.489808 72.502963 
z
" clip-path="url(#pee8cc6c40e)" style="fill: #2f7d4f; opacity: 0.9; stroke: #333333; stroke-width: 0.45; stroke-linejoin: miter"/>
   </g>
   <g id="patch_44">
    <path d="M 627.96133 110.375621 
L 638.738547 110.375621 
L 638.738547 63.063799 
L 627.96133 63.063799 
z
" clip-path="url(#pee8cc6c40e)" style="fill: #2f7d4f; opacity: 0.9; stroke: #333333; stroke-width: 0.45; stroke-linejoin: miter"/>
   </g>
   <g id="patch_45">
    <path d="M 641.432852 110.375621 
L 652.210069 110.375621 
L 652.210069 63.82853 
L 641.432852 63.82853 
z
" clip-path="url(#pee8cc6c40e)" style="fill: #2f7d4f; opacity: 0.9; stroke: #333333; stroke-width: 0.45; stroke-linejoin: miter"/>
   </g>
   <g id="patch_46">
    <path d="M 654.904374 110.375621 
L 665.681591 110.375621 
L 665.681591 63.483416 
L 654.904374 63.483416 
z
" clip-path="url(#pee8cc6c40e)" style="fill: #2f7d4f; opacity: 0.9; stroke: #333333; stroke-width: 0.45; stroke-linejoin: miter"/>
   </g>
   <g id="patch_47">
    <path d="M 668.375896 110.375621 
L 679.153114 110.375621 
L 679.153114 66.076324 
L 668.375896 66.076324 
z
" clip-path="url(#pee8cc6c40e)" style="fill: #2f7d4f; opacity: 0.9; stroke: #333333; stroke-width: 0.45; stroke-linejoin: miter"/>
   </g>
   <g id="patch_48">
    <path d="M 681.847418 110.375621 
L 692.624636 110.375621 
L 692.624636 76.214424 
L 681.847418 76.214424 
z
" clip-path="url(#pee8cc6c40e)" style="fill: #2f7d4f; opacity: 0.9; stroke: #333333; stroke-width: 0.45; stroke-linejoin: miter"/>
   </g>
   <g id="patch_49">
    <path d="M 695.31894 110.375621 
L 706.096158 110.375621 
L 706.096158 65.712843 
L 695.31894 65.712843 
z
" clip-path="url(#pee8cc6c40e)" style="fill: #2f7d4f; opacity: 0.9; stroke: #333333; stroke-width: 0.45; stroke-linejoin: miter"/>
   </g>
   <g id="patch_50">
    <path d="M 708.790462 110.375621 
L 719.56768 110.375621 
L 719.56768 112.788018 
L 708.790462 112.788018 
z
" clip-path="url(#pee8cc6c40e)" style="fill: #b73b3b; opacity: 0.9; stroke: #333333; stroke-width: 0.45; stroke-linejoin: miter"/>
   </g>
   <g id="patch_51">
    <path d="M 722.261984 110.375621 
L 733.039202 110.375621 
L 733.039202 101.738212 
L 722.261984 101.738212 
z
" clip-path="url(#pee8cc6c40e)" style="fill: #2f7d4f; opacity: 0.9; stroke: #333333; stroke-width: 0.45; stroke-linejoin: miter"/>
   </g>
   <g id="patch_52">
    <path d="M 735.733506 110.375621 
L 746.510724 110.375621 
L 746.510724 351.487924 
L 735.733506 351.487924 
z
" clip-path="url(#pee8cc6c40e)" style="fill: #b73b3b; opacity: 0.9; stroke: #333333; stroke-width: 0.45; stroke-linejoin: miter"/>
   </g>
   <g id="patch_53">
    <path d="M 749.205028 110.375621 
L 759.982246 110.375621 
L 759.982246 89.195598 
L 749.205028 89.195598 
z
" clip-path="url(#pee8cc6c40e)" style="fill: #2f7d4f; opacity: 0.9; stroke: #333333; stroke-width: 0.45; stroke-linejoin: miter"/>
   </g>
   <g id="patch_54">
    <path d="M 762.67655 110.375621 
L 773.453768 110.375621 
L 773.453768 327.860142 
L 762.67655 327.860142 
z
" clip-path="url(#pee8cc6c40e)" style="fill: #b73b3b; opacity: 0.9; stroke: #333333; stroke-width: 0.45; stroke-linejoin: miter"/>
   </g>
   <g id="patch_55">
    <path d="M 776.148073 110.375621 
L 786.92529 110.375621 
L 786.92529 131.966969 
L 776.148073 131.966969 
z
" clip-path="url(#pee8cc6c40e)" style="fill: #b73b3b; opacity: 0.9; stroke: #333333; stroke-width: 0.45; stroke-linejoin: miter"/>
   </g>
   <g id="patch_56">
    <path d="M 789.619595 110.375621 
L 800.396812 110.375621 
L 800.396812 252.757601 
L 789.619595 252.757601 
z
" clip-path="url(#pee8cc6c40e)" style="fill: #b73b3b; opacity: 0.9; stroke: #333333; stroke-width: 0.45; stroke-linejoin: miter"/>
   </g>
   <g id="patch_57">
    <path d="M 803.091117 110.375621 
L 813.868334 110.375621 
L 813.868334 69.773133 
L 803.091117 69.773133 
z
" clip-path="url(#pee8cc6c40e)" style="fill: #2f7d4f; opacity: 0.9; stroke: #333333; stroke-width: 0.45; stroke-linejoin: miter"/>
   </g>
   <g id="patch_58">
    <path d="M 816.562639 110.375621 
L 827.339856 110.375621 
L 827.339856 108.524307 
L 816.562639 108.524307 
z
" clip-path="url(#pee8cc6c40e)" style="fill: #2f7d4f; opacity: 0.9; stroke: #333333; stroke-width: 0.45; stroke-linejoin: miter"/>
   </g>
   <g id="patch_59">
    <path d="M 830.034161 110.375621 
L 840.811379 110.375621 
L 840.811379 89.936279 
L 830.034161 89.936279 
z
" clip-path="url(#pee8cc6c40e)" style="fill: #2f7d4f; opacity: 0.9; stroke: #333333; stroke-width: 0.45; stroke-linejoin: miter"/>
   </g>
   <g id="patch_60">
    <path d="M 843.505683 110.375621 
L 854.282901 110.375621 
L 854.282901 92.482824 
L 843.505683 92.482824 
z
" clip-path="url(#pee8cc6c40e)" style="fill: #2f7d4f; opacity: 0.9; stroke: #333333; stroke-width: 0.45; stroke-linejoin: miter"/>
   </g>
   <g id="patch_61">
    <path d="M 856.977205 110.375621 
L 867.754423 110.375621 
L 867.754423 84.959978 
L 856.977205 84.959978 
z
" clip-path="url(#pee8cc6c40e)" style="fill: #2f7d4f; opacity: 0.9; stroke: #333333; stroke-width: 0.45; stroke-linejoin: miter"/>
   </g>
   <g id="patch_62">
    <path d="M 870.448727 110.375621 
L 881.225945 110.375621 
L 881.225945 101.427188 
L 870.448727 101.427188 
z
" clip-path="url(#pee8cc6c40e)" style="fill: #2f7d4f; opacity: 0.9; stroke: #333333; stroke-width: 0.45; stroke-linejoin: miter"/>
   </g>
   <g id="patch_63">
    <path d="M 883.920249 110.375621 
L 894.697467 110.375621 
L 894.697467 71.384072 
L 883.920249 71.384072 
z
" clip-path="url(#pee8cc6c40e)" style="fill: #2f7d4f; opacity: 0.9; stroke: #333333; stroke-width: 0.45; stroke-linejoin: miter"/>
   </g>
   <g id="patch_64">
    <path d="M 897.391771 110.375621 
L 908.168989 110.375621 
L 908.168989 84.680039 
L 897.391771 84.680039 
z
" clip-path="url(#pee8cc6c40e)" style="fill: #2f7d4f; opacity: 0.9; stroke: #333333; stroke-width: 0.45; stroke-linejoin: miter"/>
   </g>
   <g id="patch_65">
    <path d="M 101.224816 361.53427 
L 101.224816 22.470094 
L 168.582427 22.470094 
L 168.582427 361.53427 
z
" clip-path="url(#pee8cc6c40e)" style="fill: #6a3d9a; opacity: 0.055"/>
   </g>
   <g id="patch_66">
    <path d="M 168.582427 361.53427 
L 168.582427 22.470094 
L 276.354603 22.470094 
L 276.354603 361.53427 
z
" clip-path="url(#pee8cc6c40e)" style="fill: #009e73; opacity: 0.055"/>
   </g>
   <g id="patch_67">
    <path d="M 276.354603 361.53427 
L 276.354603 22.470094 
L 411.069824 22.470094 
L 411.069824 361.53427 
z
" clip-path="url(#pee8cc6c40e)" style="fill: #e69f00; opacity: 0.055"/>
   </g>
   <g id="patch_68">
    <path d="M 411.069824 361.53427 
L 411.069824 22.470094 
L 559.256567 22.470094 
L 559.256567 361.53427 
z
" clip-path="url(#pee8cc6c40e)" style="fill: #56b4e9; opacity: 0.055"/>
   </g>
   <g id="patch_69">
    <path d="M 559.256567 361.53427 
L 559.256567 22.470094 
L 667.028744 22.470094 
L 667.028744 361.53427 
z
" clip-path="url(#pee8cc6c40e)" style="fill: #d55e00; opacity: 0.055"/>
   </g>
   <g id="patch_70">
    <path d="M 667.028744 361.53427 
L 667.028744 22.470094 
L 801.743965 22.470094 
L 801.743965 361.53427 
z
" clip-path="url(#pee8cc6c40e)" style="fill: #cc79a7; opacity: 0.055"/>
   </g>
   <g id="patch_71">
    <path d="M 801.743965 361.53427 
L 801.743965 22.470094 
L 909.516141 22.470094 
L 909.516141 361.53427 
z
" clip-path="url(#pee8cc6c40e)" style="fill: #4c78a8; opacity: 0.055"/>
   </g>
   <g id="matplotlib.axis_3">
    <g id="text_8">
     <text style="fill: #222222; font: 10.4px 'DejaVu Sans', 'Bitstream Vera Sans', 'Computer Modern Sans Serif', 'Lucida Grande', 'Verdana', 'Geneva', 'Lucid', 'Arial', 'Helvetica', 'Avant Garde', sans-serif; text-anchor: middle" x="505.370479" y="373.436645" transform="rotate(-0 505.370479 373.436645)">casos ordenados por lote</text>
    </g>
   </g>
   <g id="matplotlib.axis_4">
    <g id="ytick_7">
     <g id="line2d_13">
      <path d="M 60.81025 361.53427 
L 949.930707 361.53427 
" clip-path="url(#pee8cc6c40e)" style="fill: none; stroke: #b0b0b0; stroke-opacity: 0.18; stroke-width: 0.7; stroke-linecap: square"/>
     </g>
     <g id="line2d_14">
      <defs>
       <path id="mc872ebef99" d="M 0 0 
L -3.5 0 
" style="stroke: #333333; stroke-width: 0.8"/>
      </defs>
      <g>
       <use xlink:href="#mc872ebef99" x="60.81025" y="361.53427" style="fill: #333333; stroke: #333333; stroke-width: 0.8"/>
      </g>
     </g>
     <g id="text_9">
      <text style="fill: #333333; font: 9.2px 'DejaVu Sans', 'Bitstream Vera Sans', 'Computer Modern Sans Serif', 'Lucida Grande', 'Verdana', 'Geneva', 'Lucid', 'Arial', 'Helvetica', 'Avant Garde', sans-serif; text-anchor: end" x="53.81025" y="365.029551" transform="rotate(-0 53.81025 365.029551)">-20.0%</text>
     </g>
    </g>
    <g id="ytick_8">
     <g id="line2d_15">
      <path d="M 60.81025 298.744608 
L 949.930707 298.744608 
" clip-path="url(#pee8cc6c40e)" style="fill: none; stroke: #b0b0b0; stroke-opacity: 0.18; stroke-width: 0.7; stroke-linecap: square"/>
     </g>
     <g id="line2d_16">
      <g>
       <use xlink:href="#mc872ebef99" x="60.81025" y="298.744608" style="fill: #333333; stroke: #333333; stroke-width: 0.8"/>
      </g>
     </g>
     <g id="text_10">
      <text style="fill: #333333; font: 9.2px 'DejaVu Sans', 'Bitstream Vera Sans', 'Computer Modern Sans Serif', 'Lucida Grande', 'Verdana', 'Geneva', 'Lucid', 'Arial', 'Helvetica', 'Avant Garde', sans-serif; text-anchor: end" x="53.81025" y="302.239889" transform="rotate(-0 53.81025 302.239889)">-15.0%</text>
     </g>
    </g>
    <g id="ytick_9">
     <g id="line2d_17">
      <path d="M 60.81025 235.954945 
L 949.930707 235.954945 
" clip-path="url(#pee8cc6c40e)" style="fill: none; stroke: #b0b0b0; stroke-opacity: 0.18; stroke-width: 0.7; stroke-linecap: square"/>
     </g>
     <g id="line2d_18">
      <g>
       <use xlink:href="#mc872ebef99" x="60.81025" y="235.954945" style="fill: #333333; stroke: #333333; stroke-width: 0.8"/>
      </g>
     </g>
     <g id="text_11">
      <text style="fill: #333333; font: 9.2px 'DejaVu Sans', 'Bitstream Vera Sans', 'Computer Modern Sans Serif', 'Lucida Grande', 'Verdana', 'Geneva', 'Lucid', 'Arial', 'Helvetica', 'Avant Garde', sans-serif; text-anchor: end" x="53.81025" y="239.450227" transform="rotate(-0 53.81025 239.450227)">-10.0%</text>
     </g>
    </g>
    <g id="ytick_10">
     <g id="line2d_19">
      <path d="M 60.81025 173.165283 
L 949.930707 173.165283 
" clip-path="url(#pee8cc6c40e)" style="fill: none; stroke: #b0b0b0; stroke-opacity: 0.18; stroke-width: 0.7; stroke-linecap: square"/>
     </g>
     <g id="line2d_20">
      <g>
       <use xlink:href="#mc872ebef99" x="60.81025" y="173.165283" style="fill: #333333; stroke: #333333; stroke-width: 0.8"/>
      </g>
     </g>
     <g id="text_12">
      <text style="fill: #333333; font: 9.2px 'DejaVu Sans', 'Bitstream Vera Sans', 'Computer Modern Sans Serif', 'Lucida Grande', 'Verdana', 'Geneva', 'Lucid', 'Arial', 'Helvetica', 'Avant Garde', sans-serif; text-anchor: end" x="53.81025" y="176.660564" transform="rotate(-0 53.81025 176.660564)">-5.0%</text>
     </g>
    </g>
    <g id="ytick_11">
     <g id="line2d_21">
      <path d="M 60.81025 110.375621 
L 949.930707 110.375621 
" clip-path="url(#pee8cc6c40e)" style="fill: none; stroke: #b0b0b0; stroke-opacity: 0.18; stroke-width: 0.7; stroke-linecap: square"/>
     </g>
     <g id="line2d_22">
      <g>
       <use xlink:href="#mc872ebef99" x="60.81025" y="110.375621" style="fill: #333333; stroke: #333333; stroke-width: 0.8"/>
      </g>
     </g>
     <g id="text_13">
      <text style="fill: #333333; font: 9.2px 'DejaVu Sans', 'Bitstream Vera Sans', 'Computer Modern Sans Serif', 'Lucida Grande', 'Verdana', 'Geneva', 'Lucid', 'Arial', 'Helvetica', 'Avant Garde', sans-serif; text-anchor: end" x="53.81025" y="113.870902" transform="rotate(-0 53.81025 113.870902)">0.0%</text>
     </g>
    </g>
    <g id="ytick_12">
     <g id="line2d_23">
      <path d="M 60.81025 47.585959 
L 949.930707 47.585959 
" clip-path="url(#pee8cc6c40e)" style="fill: none; stroke: #b0b0b0; stroke-opacity: 0.18; stroke-width: 0.7; stroke-linecap: square"/>
     </g>
     <g id="line2d_24">
      <g>
       <use xlink:href="#mc872ebef99" x="60.81025" y="47.585959" style="fill: #333333; stroke: #333333; stroke-width: 0.8"/>
      </g>
     </g>
     <g id="text_14">
      <text style="fill: #333333; font: 9.2px 'DejaVu Sans', 'Bitstream Vera Sans', 'Computer Modern Sans Serif', 'Lucida Grande', 'Verdana', 'Geneva', 'Lucid', 'Arial', 'Helvetica', 'Avant Garde', sans-serif; text-anchor: end" x="53.81025" y="51.08124" transform="rotate(-0 53.81025 51.08124)">5.0%</text>
     </g>
    </g>
    <g id="text_15">
     <text style="fill: #222222; font: 10.4px 'DejaVu Sans', 'Bitstream Vera Sans', 'Computer Modern Sans Serif', 'Lucida Grande', 'Verdana', 'Geneva', 'Lucid', 'Arial', 'Helvetica', 'Avant Garde', sans-serif; text-anchor: middle" x="15.102375" y="192.002182" transform="rotate(-90 15.102375 192.002182)">margen al umbral (%)</text>
    </g>
   </g>
   <g id="line2d_25">
    <path d="M 60.81025 110.375621 
L 949.930707 110.375621 
" clip-path="url(#pee8cc6c40e)" style="fill: none; stroke: #222222; stroke-width: 1.25; stroke-linecap: square"/>
   </g>
   <g id="patch_72">
    <path d="M 60.81025 361.53427 
L 60.81025 22.470094 
" style="fill: none; stroke: #444444; stroke-width: 0.8; stroke-linejoin: miter; stroke-linecap: square"/>
   </g>
   <g id="patch_73">
    <path d="M 60.81025 361.53427 
L 949.930707 361.53427 
" style="fill: none; stroke: #444444; stroke-width: 0.8; stroke-linejoin: miter; stroke-linecap: square"/>
   </g>
   <g id="text_16">
    <g id="patch_74">
     <path d="M 122.520184 33.160406 
L 147.287059 33.160406 
Q 149.267059 33.160406 149.267059 31.180406 
L 149.267059 22.470094 
Q 149.267059 20.490094 147.287059 20.490094 
L 122.520184 20.490094 
Q 120.540184 20.490094 120.540184 22.470094 
L 120.540184 31.180406 
Q 120.540184 33.160406 122.520184 33.160406 
z
" style="fill: #ffffff; stroke: #dddddd; stroke-width: 0.5; stroke-linejoin: miter"/>
    </g>
    <text style="fill: #333333; font: 9px 'DejaVu Sans', 'Bitstream Vera Sans', 'Computer Modern Sans Serif', 'Lucida Grande', 'Verdana', 'Geneva', 'Lucid', 'Arial', 'Helvetica', 'Avant Garde', sans-serif; text-anchor: middle" x="134.903621" y="29.308687" transform="rotate(-0 134.903621 29.308687)">Piloto</text>
   </g>
   <g id="text_17">
    <g id="patch_75">
     <path d="M 206.669999 33.160406 
L 238.267031 33.160406 
Q 240.247031 33.160406 240.247031 31.180406 
L 240.247031 22.470094 
Q 240.247031 20.490094 238.267031 20.490094 
L 206.669999 20.490094 
Q 204.689999 20.490094 204.689999 22.470094 
L 204.689999 31.180406 
Q 204.689999 33.160406 206.669999 33.160406 
z
" style="fill: #ffffff; stroke: #dddddd; stroke-width: 0.5; stroke-linejoin: miter"/>
    </g>
    <text style="fill: #333333; font: 9px 'DejaVu Sans', 'Bitstream Vera Sans', 'Computer Modern Sans Serif', 'Lucida Grande', 'Verdana', 'Geneva', 'Lucid', 'Arial', 'Helvetica', 'Avant Garde', sans-serif; text-anchor: middle" x="222.468515" y="29.308687" transform="rotate(-0 222.468515 29.308687)">Batch2</text>
   </g>
   <g id="text_18">
    <g id="patch_76">
     <path d="M 327.913698 33.160406 
L 359.510729 33.160406 
Q 361.490729 33.160406 361.490729 31.180406 
L 361.490729 22.470094 
Q 361.490729 20.490094 359.510729 20.490094 
L 327.913698 20.490094 
Q 325.933698 20.490094 325.933698 22.470094 
L 325.933698 31.180406 
Q 325.933698 33.160406 327.913698 33.160406 
z
" style="fill: #ffffff; stroke: #dddddd; stroke-width: 0.5; stroke-linejoin: miter"/>
    </g>
    <text style="fill: #333333; font: 9px 'DejaVu Sans', 'Bitstream Vera Sans', 'Computer Modern Sans Serif', 'Lucida Grande', 'Verdana', 'Geneva', 'Lucid', 'Arial', 'Helvetica', 'Avant Garde', sans-serif; text-anchor: middle" x="343.712214" y="29.308687" transform="rotate(-0 343.712214 29.308687)">Batch3</text>
   </g>
   <g id="text_19">
    <g id="patch_77">
     <path d="M 455.691711 33.160406 
L 514.63468 33.160406 
Q 516.61468 33.160406 516.61468 31.180406 
L 516.61468 22.470094 
Q 516.61468 20.490094 514.63468 20.490094 
L 455.691711 20.490094 
Q 453.711711 20.490094 453.711711 22.470094 
L 453.711711 31.180406 
Q 453.711711 33.160406 455.691711 33.160406 
z
" style="fill: #ffffff; stroke: #dddddd; stroke-width: 0.5; stroke-linejoin: miter"/>
    </g>
    <text style="fill: #333333; font: 9px 'DejaVu Sans', 'Bitstream Vera Sans', 'Computer Modern Sans Serif', 'Lucida Grande', 'Verdana', 'Geneva', 'Lucid', 'Arial', 'Helvetica', 'Avant Garde', sans-serif; text-anchor: middle" x="485.163196" y="29.308687" transform="rotate(-0 485.163196 29.308687)">Batch4 masa</text>
   </g>
   <g id="text_20">
    <g id="patch_78">
     <path d="M 604.693905 33.160406 
L 621.591405 33.160406 
Q 623.571405 33.160406 623.571405 31.180406 
L 623.571405 22.470094 
Q 623.571405 20.490094 621.591405 20.490094 
L 604.693905 20.490094 
Q 602.713905 20.490094 602.713905 22.470094 
L 602.713905 31.180406 
Q 602.713905 33.160406 604.693905 33.160406 
z
" style="fill: #ffffff; stroke: #dddddd; stroke-width: 0.5; stroke-linejoin: miter"/>
    </g>
    <text style="fill: #333333; font: 9px 'DejaVu Sans', 'Bitstream Vera Sans', 'Computer Modern Sans Serif', 'Lucida Grande', 'Verdana', 'Geneva', 'Lucid', 'Arial', 'Helvetica', 'Avant Garde', sans-serif; text-anchor: middle" x="613.142655" y="29.308687" transform="rotate(-0 613.142655 29.308687)">AL1</text>
   </g>
   <g id="text_21">
    <g id="patch_79">
     <path d="M 725.937604 33.160406 
L 742.835104 33.160406 
Q 744.815104 33.160406 744.815104 31.180406 
L 744.815104 22.470094 
Q 744.815104 20.490094 742.835104 20.490094 
L 725.937604 20.490094 
Q 723.957604 20.490094 723.957604 22.470094 
L 723.957604 31.180406 
Q 723.957604 33.160406 725.937604 33.160406 
z
" style="fill: #ffffff; stroke: #dddddd; stroke-width: 0.5; stroke-linejoin: miter"/>
    </g>
    <text style="fill: #333333; font: 9px 'DejaVu Sans', 'Bitstream Vera Sans', 'Computer Modern Sans Serif', 'Lucida Grande', 'Verdana', 'Geneva', 'Lucid', 'Arial', 'Helvetica', 'Avant Garde', sans-serif; text-anchor: middle" x="734.386354" y="29.308687" transform="rotate(-0 734.386354 29.308687)">AL2</text>
   </g>
   <g id="text_22">
    <g id="patch_80">
     <path d="M 847.181303 33.160406 
L 864.078803 33.160406 
Q 866.058803 33.160406 866.058803 31.180406 
L 866.058803 22.470094 
Q 866.058803 20.490094 864.078803 20.490094 
L 847.181303 20.490094 
Q 845.201303 20.490094 845.201303 22.470094 
L 845.201303 31.180406 
Q 845.201303 33.160406 847.181303 33.160406 
z
" style="fill: #ffffff; stroke: #dddddd; stroke-width: 0.5; stroke-linejoin: miter"/>
    </g>
    <text style="fill: #333333; font: 9px 'DejaVu Sans', 'Bitstream Vera Sans', 'Computer Modern Sans Serif', 'Lucida Grande', 'Verdana', 'Geneva', 'Lucid', 'Arial', 'Helvetica', 'Avant Garde', sans-serif; text-anchor: middle" x="855.630053" y="29.308687" transform="rotate(-0 855.630053 29.308687)">AL3</text>
   </g>
   <g id="text_23">
    <g id="patch_81">
     <path d="M 78.592659 346.656061 
L 169.707206 346.656061 
Q 171.782206 346.656061 171.782206 344.581061 
L 171.782206 327.254033 
Q 171.782206 325.179033 169.707206 325.179033 
L 78.592659 325.179033 
Q 76.517659 325.179033 76.517659 327.254033 
L 76.517659 344.581061 
Q 76.517659 346.656061 78.592659 346.656061 
z
" style="fill: #ffffff; stroke: #dddddd; stroke-width: 0.5; stroke-linejoin: miter"/>
    </g>
    <text style="fill: #555555; font: 8.3px 'DejaVu Sans', 'Bitstream Vera Sans', 'Computer Modern Sans Serif', 'Lucida Grande', 'Verdana', 'Geneva', 'Lucid', 'Arial', 'Helvetica', 'Avant Garde', sans-serif" transform="translate(78.592659 333.560736)">10 caso(s) extremo(s)</text>
    <text style="fill: #555555; font: 8.3px 'DejaVu Sans', 'Bitstream Vera Sans', 'Computer Modern Sans Serif', 'Lucida Grande', 'Verdana', 'Geneva', 'Lucid', 'Arial', 'Helvetica', 'Avant Garde', sans-serif" transform="translate(78.592659 342.854921)">fuera de escala</text>
   </g>
   <g id="text_24">
    <text style="font: 700 12.2px 'DejaVu Sans', 'Bitstream Vera Sans', 'Computer Modern Sans Serif', 'Lucida Grande', 'Verdana', 'Geneva', 'Lucid', 'Arial', 'Helvetica', 'Avant Garde', sans-serif; text-anchor: middle" x="505.370479" y="16.470094" transform="rotate(-0 505.370479 16.470094)">Historia de lotes: del piloto a AL3</text>
   </g>
   <g id="PathCollection_1">
    <defs>
     <path id="m5c8d1292d3" d="M -0 2.915476 
L 2.915476 -2.915476 
L -2.915476 -2.915476 
z
" style="stroke: #ffffff; stroke-width: 0.4"/>
    </defs>
    <g clip-path="url(#pee8cc6c40e)">
     <use xlink:href="#m5c8d1292d3" x="107.960577" y="351.487924" style="fill: #222222; stroke: #ffffff; stroke-width: 0.4"/>
     <use xlink:href="#m5c8d1292d3" x="161.846666" y="351.487924" style="fill: #222222; stroke: #ffffff; stroke-width: 0.4"/>
     <use xlink:href="#m5c8d1292d3" x="256.14732" y="351.487924" style="fill: #222222; stroke: #ffffff; stroke-width: 0.4"/>
     <use xlink:href="#m5c8d1292d3" x="269.618842" y="351.487924" style="fill: #222222; stroke: #ffffff; stroke-width: 0.4"/>
     <use xlink:href="#m5c8d1292d3" x="390.862541" y="351.487924" style="fill: #222222; stroke: #ffffff; stroke-width: 0.4"/>
     <use xlink:href="#m5c8d1292d3" x="404.334063" y="351.487924" style="fill: #222222; stroke: #ffffff; stroke-width: 0.4"/>
     <use xlink:href="#m5c8d1292d3" x="444.748629" y="351.487924" style="fill: #222222; stroke: #ffffff; stroke-width: 0.4"/>
     <use xlink:href="#m5c8d1292d3" x="498.634718" y="351.487924" style="fill: #222222; stroke: #ffffff; stroke-width: 0.4"/>
     <use xlink:href="#m5c8d1292d3" x="525.577762" y="351.487924" style="fill: #222222; stroke: #ffffff; stroke-width: 0.4"/>
     <use xlink:href="#m5c8d1292d3" x="741.122115" y="351.487924" style="fill: #222222; stroke: #ffffff; stroke-width: 0.4"/>
    </g>
   </g>
  </g>
 </g>
 <defs>
  <clipPath id="pe01d29780e">
   <rect x="949.930707" y="22.470094" width="0" height="339.064176"/>
  </clipPath>
  <clipPath id="pee8cc6c40e">
   <rect x="60.81025" y="22.470094" width="889.120457" height="339.064176"/>
  </clipPath>
 </defs>
</svg>
