<?xml version="1.0" encoding="utf-8" standalone="no"?>
<!DOCTYPE svg PUBLIC "-//W3C//DTD SVG 1.1//EN"
  "http://www.w3.org/Graphics/SVG/1.1/DTD/svg11.dtd">
<svg xmlns:xlink="http://www.w3.org/1999/xlink" width="936.288pt" height="407.626031pt" viewBox="0 0 936.288 407.626031" xmlns="http://www.w3.org/2000/svg" version="1.1">
<defs>
  <style type="text/css">*{stroke-linejoin: round; stroke-linecap: butt}</style>
 </defs>
 <g id="figure_1">
  <g id="patch_1">
   <path d="M 0 407.626031 
L 936.288 407.626031 
L 936.288 0 
L 0 0 
z
" style="fill: #ffffff"/>
  </g>
  <g id="axes_1">
   <g id="patch_2">
    <path d="M 73.728 333.792 
L 415.113366 333.792 
L 415.113366 63.648 
L 73.728 63.648 
z
" style="fill: #ffffff"/>
   </g>
   <g id="matplotlib.axis_1">
    <g id="xtick_1">
     <g id="line2d_1">
      <path d="M 120.28055 333.792 
L 120.28055 63.648 
" clip-path="url(#p91966aef58)" style="fill: none; stroke: #e7ebf0; stroke-width: 0.8; stroke-linecap: square"/>
     </g>
     <g id="line2d_2">
      <defs>
       <path id="m7ccfbb98eb" d="M 0 0 
L 0 3.5 
" style="stroke: #17202a; stroke-width: 0.8"/>
      </defs>
      <g>
       <use xlink:href="#m7ccfbb98eb" x="120.28055" y="333.792" style="fill: #17202a; stroke: #17202a; stroke-width: 0.8"/>
      </g>
     </g>
     <g id="text_1">
      <text style="fill: #17202a; font: 9px 'DejaVu Sans'; text-anchor: middle" x="120.28055" y="347.630594" transform="rotate(-0 120.28055 347.630594)">0.18</text>
     </g>
    </g>
    <g id="xtick_2">
     <g id="line2d_3">
      <path d="M 182.350616 333.792 
L 182.350616 63.648 
" clip-path="url(#p91966aef58)" style="fill: none; stroke: #e7ebf0; stroke-width: 0.8; stroke-linecap: square"/>
     </g>
     <g id="line2d_4">
      <g>
       <use xlink:href="#m7ccfbb98eb" x="182.350616" y="333.792" style="fill: #17202a; stroke: #17202a; stroke-width: 0.8"/>
      </g>
     </g>
     <g id="text_2">
      <text style="fill: #17202a; font: 9px 'DejaVu Sans'; text-anchor: middle" x="182.350616" y="347.630594" transform="rotate(-0 182.350616 347.630594)">0.19</text>
     </g>
    </g>
    <g id="xtick_3">
     <g id="line2d_5">
      <path d="M 244.420683 333.792 
L 244.420683 63.648 
" clip-path="url(#p91966aef58)" style="fill: none; stroke: #e7ebf0; stroke-width: 0.8; stroke-linecap: square"/>
     </g>
     <g id="line2d_6">
      <g>
       <use xlink:href="#m7ccfbb98eb" x="244.420683" y="333.792" style="fill: #17202a; stroke: #17202a; stroke-width: 0.8"/>
      </g>
     </g>
     <g id="text_3">
      <text style="fill: #17202a; font: 9px 'DejaVu Sans'; text-anchor: middle" x="244.420683" y="347.630594" transform="rotate(-0 244.420683 347.630594)">0.20</text>
     </g>
    </g>
    <g id="xtick_4">
     <g id="line2d_7">
      <path d="M 306.490749 333.792 
L 306.490749 63.648 
" clip-path="url(#p91966aef58)" style="fill: none; stroke: #e7ebf0; stroke-width: 0.8; stroke-linecap: square"/>
     </g>
     <g id="line2d_8">
      <g>
       <use xlink:href="#m7ccfbb98eb" x="306.490749" y="333.792" style="fill: #17202a; stroke: #17202a; stroke-width: 0.8"/>
      </g>
     </g>
     <g id="text_4">
      <text style="fill: #17202a; font: 9px 'DejaVu Sans'; text-anchor: middle" x="306.490749" y="347.630594" transform="rotate(-0 306.490749 347.630594)">0.21</text>
     </g>
    </g>
    <g id="xtick_5">
     <g id="line2d_9">
      <path d="M 368.560816 333.792 
L 368.560816 63.648 
" clip-path="url(#p91966aef58)" style="fill: none; stroke: #e7ebf0; stroke-width: 0.8; stroke-linecap: square"/>
     </g>
     <g id="line2d_10">
      <g>
       <use xlink:href="#m7ccfbb98eb" x="368.560816" y="333.792" style="fill: #17202a; stroke: #17202a; stroke-width: 0.8"/>
      </g>
     </g>
     <g id="text_5">
      <text style="fill: #17202a; font: 9px 'DejaVu Sans'; text-anchor: middle" x="368.560816" y="347.630594" transform="rotate(-0 368.560816 347.630594)">0.22</text>
     </g>
    </g>
    <g id="text_6">
     <text style="font: 10px 'DejaVu Sans'; text-anchor: middle" x="244.420683" y="361.10075" transform="rotate(-0 244.420683 361.10075)">H_dam (m)</text>
    </g>
   </g>
   <g id="matplotlib.axis_2">
    <g id="ytick_1">
     <g id="line2d_11">
      <path d="M 73.728 307.441051 
L 415.113366 307.441051 
" clip-path="url(#p91966aef58)" style="fill: none; stroke: #e7ebf0; stroke-width: 0.8; stroke-linecap: square"/>
     </g>
     <g id="line2d_12">
      <defs>
       <path id="m5544553725" d="M 0 0 
L -3.5 0 
" style="stroke: #17202a; stroke-width: 0.8"/>
      </defs>
      <g>
       <use xlink:href="#m5544553725" x="73.728" y="307.441051" style="fill: #17202a; stroke: #17202a; stroke-width: 0.8"/>
      </g>
     </g>
     <g id="text_7">
      <text style="fill: #17202a; font: 9px 'DejaVu Sans'; text-anchor: end" x="66.728" y="310.860347" transform="rotate(-0 66.728 310.860347)">10</text>
     </g>
    </g>
    <g id="ytick_2">
     <g id="line2d_13">
      <path d="M 73.728 273.156817 
L 415.113366 273.156817 
" clip-path="url(#p91966aef58)" style="fill: none; stroke: #e7ebf0; stroke-width: 0.8; stroke-linecap: square"/>
     </g>
     <g id="line2d_14">
      <g>
       <use xlink:href="#m5544553725" x="73.728" y="273.156817" style="fill: #17202a; stroke: #17202a; stroke-width: 0.8"/>
      </g>
     </g>
     <g id="text_8">
      <text style="fill: #17202a; font: 9px 'DejaVu Sans'; text-anchor: end" x="66.728" y="276.576114" transform="rotate(-0 66.728 276.576114)">11</text>
     </g>
    </g>
    <g id="ytick_3">
     <g id="line2d_15">
      <path d="M 73.728 238.872583 
L 415.113366 238.872583 
" clip-path="url(#p91966aef58)" style="fill: none; stroke: #e7ebf0; stroke-width: 0.8; stroke-linecap: square"/>
     </g>
     <g id="line2d_16">
      <g>
       <use xlink:href="#m5544553725" x="73.728" y="238.872583" style="fill: #17202a; stroke: #17202a; stroke-width: 0.8"/>
      </g>
     </g>
     <g id="text_9">
      <text style="fill: #17202a; font: 9px 'DejaVu Sans'; text-anchor: end" x="66.728" y="242.29188" transform="rotate(-0 66.728 242.29188)">12</text>
     </g>
    </g>
    <g id="ytick_4">
     <g id="line2d_17">
      <path d="M 73.728 204.58835 
L 415.113366 204.58835 
" clip-path="url(#p91966aef58)" style="fill: none; stroke: #e7ebf0; stroke-width: 0.8; stroke-linecap: square"/>
     </g>
     <g id="line2d_18">
      <g>
       <use xlink:href="#m5544553725" x="73.728" y="204.58835" style="fill: #17202a; stroke: #17202a; stroke-width: 0.8"/>
      </g>
     </g>
     <g id="text_10">
      <text style="fill: #17202a; font: 9px 'DejaVu Sans'; text-anchor: end" x="66.728" y="208.007646" transform="rotate(-0 66.728 208.007646)">13</text>
     </g>
    </g>
    <g id="ytick_5">
     <g id="line2d_19">
      <path d="M 73.728 170.304116 
L 415.113366 170.304116 
" clip-path="url(#p91966aef58)" style="fill: none; stroke: #e7ebf0; stroke-width: 0.8; stroke-linecap: square"/>
     </g>
     <g id="line2d_20">
      <g>
       <use xlink:href="#m5544553725" x="73.728" y="170.304116" style="fill: #17202a; stroke: #17202a; stroke-width: 0.8"/>
      </g>
     </g>
     <g id="text_11">
      <text style="fill: #17202a; font: 9px 'DejaVu Sans'; text-anchor: end" x="66.728" y="173.723413" transform="rotate(-0 66.728 173.723413)">14</text>
     </g>
    </g>
    <g id="ytick_6">
     <g id="line2d_21">
      <path d="M 73.728 136.019882 
L 415.113366 136.019882 
" clip-path="url(#p91966aef58)" style="fill: none; stroke: #e7ebf0; stroke-width: 0.8; stroke-linecap: square"/>
     </g>
     <g id="line2d_22">
      <g>
       <use xlink:href="#m5544553725" x="73.728" y="136.019882" style="fill: #17202a; stroke: #17202a; stroke-width: 0.8"/>
      </g>
     </g>
     <g id="text_12">
      <text style="fill: #17202a; font: 9px 'DejaVu Sans'; text-anchor: end" x="66.728" y="139.439179" transform="rotate(-0 66.728 139.439179)">15</text>
     </g>
    </g>
    <g id="ytick_7">
     <g id="line2d_23">
      <path d="M 73.728 101.735648 
L 415.113366 101.735648 
" clip-path="url(#p91966aef58)" style="fill: none; stroke: #e7ebf0; stroke-width: 0.8; stroke-linecap: square"/>
     </g>
     <g id="line2d_24">
      <g>
       <use xlink:href="#m5544553725" x="73.728" y="101.735648" style="fill: #17202a; stroke: #17202a; stroke-width: 0.8"/>
      </g>
     </g>
     <g id="text_13">
      <text style="fill: #17202a; font: 9px 'DejaVu Sans'; text-anchor: end" x="66.728" y="105.154945" transform="rotate(-0 66.728 105.154945)">16</text>
     </g>
    </g>
    <g id="ytick_8">
     <g id="line2d_25">
      <path d="M 73.728 67.451415 
L 415.113366 67.451415 
" clip-path="url(#p91966aef58)" style="fill: none; stroke: #e7ebf0; stroke-width: 0.8; stroke-linecap: square"/>
     </g>
     <g id="line2d_26">
      <g>
       <use xlink:href="#m5544553725" x="73.728" y="67.451415" style="fill: #17202a; stroke: #17202a; stroke-width: 0.8"/>
      </g>
     </g>
     <g id="text_14">
      <text style="fill: #17202a; font: 9px 'DejaVu Sans'; text-anchor: end" x="66.728" y="70.870712" transform="rotate(-0 66.728 70.870712)">17</text>
     </g>
    </g>
    <g id="text_15">
     <text style="font: 10px 'DejaVu Sans'; text-anchor: middle" x="48.917687" y="198.72" transform="rotate(-90 48.917687 198.72)">M = rho max(h u_x^2) (N/m)</text>
    </g>
   </g>
   <g id="line2d_27">
    <path d="M 89.245517 321.512727 
L 166.8331 257.562887 
L 244.420683 201.730171 
L 275.455716 189.034713 
L 306.490749 169.799905 
L 353.043299 124.751216 
L 399.595849 75.927273 
" clip-path="url(#p91966aef58)" style="fill: none; stroke: #2b7bb9; stroke-width: 2.6; stroke-linecap: square"/>
    <defs>
     <path id="mcea306de94" d="M 0 3 
C 0.795609 3 1.55874 2.683901 2.12132 2.12132 
C 2.683901 1.55874 3 0.795609 3 0 
C 3 -0.795609 2.683901 -1.55874 2.12132 -2.12132 
C 1.55874 -2.683901 0.795609 -3 0 -3 
C -0.795609 -3 -1.55874 -2.683901 -2.12132 -2.12132 
C -2.683901 -1.55874 -3 -0.795609 -3 0 
C -3 0.795609 -2.683901 1.55874 -2.12132 2.12132 
C -1.55874 2.683901 -0.795609 3 0 3 
z
" style="stroke: #2b7bb9"/>
    </defs>
    <g clip-path="url(#p91966aef58)">
     <use xlink:href="#mcea306de94" x="89.245517" y="321.512727" style="fill: #2b7bb9; stroke: #2b7bb9"/>
     <use xlink:href="#mcea306de94" x="166.8331" y="257.562887" style="fill: #2b7bb9; stroke: #2b7bb9"/>
     <use xlink:href="#mcea306de94" x="244.420683" y="201.730171" style="fill: #2b7bb9; stroke: #2b7bb9"/>
     <use xlink:href="#mcea306de94" x="275.455716" y="189.034713" style="fill: #2b7bb9; stroke: #2b7bb9"/>
     <use xlink:href="#mcea306de94" x="306.490749" y="169.799905" style="fill: #2b7bb9; stroke: #2b7bb9"/>
     <use xlink:href="#mcea306de94" x="353.043299" y="124.751216" style="fill: #2b7bb9; stroke: #2b7bb9"/>
     <use xlink:href="#mcea306de94" x="399.595849" y="75.927273" style="fill: #2b7bb9; stroke: #2b7bb9"/>
    </g>
   </g>
   <g id="patch_3">
    <path d="M 73.728 333.792 
L 73.728 63.648 
" style="fill: none; stroke: #cfd7e3; stroke-width: 0.8; stroke-linejoin: miter; stroke-linecap: square"/>
   </g>
   <g id="patch_4">
    <path d="M 73.728 333.792 
L 415.113366 333.792 
" style="fill: none; stroke: #cfd7e3; stroke-width: 0.8; stroke-linejoin: miter; stroke-linecap: square"/>
   </g>
   <g id="text_16">
    <text style="font: 8.5px 'DejaVu Sans'; text-anchor: middle" x="89.245517" y="311.913142" transform="rotate(-0 89.245517 311.913142)">9.6</text>
   </g>
   <g id="text_17">
    <text style="font: 8.5px 'DejaVu Sans'; text-anchor: middle" x="166.8331" y="247.963301" transform="rotate(-0 166.8331 247.963301)">11.5</text>
   </g>
   <g id="text_18">
    <text style="font: 8.5px 'DejaVu Sans'; text-anchor: middle" x="244.420683" y="192.130586" transform="rotate(-0 244.420683 192.130586)">13.1</text>
   </g>
   <g id="text_19">
    <text style="font: 8.5px 'DejaVu Sans'; text-anchor: middle" x="275.455716" y="179.435127" transform="rotate(-0 275.455716 179.435127)">13.5</text>
   </g>
   <g id="text_20">
    <text style="font: 8.5px 'DejaVu Sans'; text-anchor: middle" x="306.490749" y="160.20032" transform="rotate(-0 306.490749 160.20032)">14.0</text>
   </g>
   <g id="text_21">
    <text style="font: 8.5px 'DejaVu Sans'; text-anchor: middle" x="353.043299" y="115.15163" transform="rotate(-0 353.043299 115.15163)">15.3</text>
   </g>
   <g id="text_22">
    <text style="font: 8.5px 'DejaVu Sans'; text-anchor: middle" x="399.595849" y="66.327687" transform="rotate(-0 399.595849 66.327687)">16.8</text>
   </g>
   <g id="text_23">
    <text style="font: 700 13px 'DejaVu Sans'; text-anchor: middle" x="244.420683" y="57.648" transform="rotate(-0 244.420683 57.648)">Puente hidraulico: H_dam -&gt; M local</text>
   </g>
  </g>
  <g id="axes_2">
   <g id="patch_5">
    <path d="M 492.873366 333.792 
L 929.088 333.792 
L 929.088 63.648 
L 492.873366 63.648 
z
" style="fill: #ffffff"/>
   </g>
   <g id="matplotlib.axis_3">
    <g id="xtick_6">
     <g id="line2d_28">
      <path d="M 540.192013 333.792 
L 540.192013 63.648 
" clip-path="url(#pde5c1453c8)" style="fill: none; stroke: #e7ebf0; stroke-width: 0.8; stroke-linecap: square"/>
     </g>
     <g id="line2d_29">
      <g>
       <use xlink:href="#m7ccfbb98eb" x="540.192013" y="333.792" style="fill: #17202a; stroke: #17202a; stroke-width: 0.8"/>
      </g>
     </g>
     <g id="text_24">
      <text style="fill: #17202a; font: 9px 'DejaVu Sans'; text-anchor: middle" x="540.192013" y="347.630594" transform="rotate(-0 540.192013 347.630594)">10</text>
     </g>
    </g>
    <g id="xtick_7">
     <g id="line2d_30">
      <path d="M 594.048728 333.792 
L 594.048728 63.648 
" clip-path="url(#pde5c1453c8)" style="fill: none; stroke: #e7ebf0; stroke-width: 0.8; stroke-linecap: square"/>
     </g>
     <g id="line2d_31">
      <g>
       <use xlink:href="#m7ccfbb98eb" x="594.048728" y="333.792" style="fill: #17202a; stroke: #17202a; stroke-width: 0.8"/>
      </g>
     </g>
     <g id="text_25">
      <text style="fill: #17202a; font: 9px 'DejaVu Sans'; text-anchor: middle" x="594.048728" y="347.630594" transform="rotate(-0 594.048728 347.630594)">11</text>
     </g>
    </g>
    <g id="xtick_8">
     <g id="line2d_32">
      <path d="M 647.905444 333.792 
L 647.905444 63.648 
" clip-path="url(#pde5c1453c8)" style="fill: none; stroke: #e7ebf0; stroke-width: 0.8; stroke-linecap: square"/>
     </g>
     <g id="line2d_33">
      <g>
       <use xlink:href="#m7ccfbb98eb" x="647.905444" y="333.792" style="fill: #17202a; stroke: #17202a; stroke-width: 0.8"/>
      </g>
     </g>
     <g id="text_26">
      <text style="fill: #17202a; font: 9px 'DejaVu Sans'; text-anchor: middle" x="647.905444" y="347.630594" transform="rotate(-0 647.905444 347.630594)">12</text>
     </g>
    </g>
    <g id="xtick_9">
     <g id="line2d_34">
      <path d="M 701.762159 333.792 
L 701.762159 63.648 
" clip-path="url(#pde5c1453c8)" style="fill: none; stroke: #e7ebf0; stroke-width: 0.8; stroke-linecap: square"/>
     </g>
     <g id="line2d_35">
      <g>
       <use xlink:href="#m7ccfbb98eb" x="701.762159" y="333.792" style="fill: #17202a; stroke: #17202a; stroke-width: 0.8"/>
      </g>
     </g>
     <g id="text_27">
      <text style="fill: #17202a; font: 9px 'DejaVu Sans'; text-anchor: middle" x="701.762159" y="347.630594" transform="rotate(-0 701.762159 347.630594)">13</text>
     </g>
    </g>
    <g id="xtick_10">
     <g id="line2d_36">
      <path d="M 755.618874 333.792 
L 755.618874 63.648 
" clip-path="url(#pde5c1453c8)" style="fill: none; stroke: #e7ebf0; stroke-width: 0.8; stroke-linecap: square"/>
     </g>
     <g id="line2d_37">
      <g>
       <use xlink:href="#m7ccfbb98eb" x="755.618874" y="333.792" style="fill: #17202a; stroke: #17202a; stroke-width: 0.8"/>
      </g>
     </g>
     <g id="text_28">
      <text style="fill: #17202a; font: 9px 'DejaVu Sans'; text-anchor: middle" x="755.618874" y="347.630594" transform="rotate(-0 755.618874 347.630594)">14</text>
     </g>
    </g>
    <g id="xtick_11">
     <g id="line2d_38">
      <path d="M 809.475589 333.792 
L 809.475589 63.648 
" clip-path="url(#pde5c1453c8)" style="fill: none; stroke: #e7ebf0; stroke-width: 0.8; stroke-linecap: square"/>
     </g>
     <g id="line2d_39">
      <g>
       <use xlink:href="#m7ccfbb98eb" x="809.475589" y="333.792" style="fill: #17202a; stroke: #17202a; stroke-width: 0.8"/>
      </g>
     </g>
     <g id="text_29">
      <text style="fill: #17202a; font: 9px 'DejaVu Sans'; text-anchor: middle" x="809.475589" y="347.630594" transform="rotate(-0 809.475589 347.630594)">15</text>
     </g>
    </g>
    <g id="xtick_12">
     <g id="line2d_40">
      <path d="M 863.332305 333.792 
L 863.332305 63.648 
" clip-path="url(#pde5c1453c8)" style="fill: none; stroke: #e7ebf0; stroke-width: 0.8; stroke-linecap: square"/>
     </g>
     <g id="line2d_41">
      <g>
       <use xlink:href="#m7ccfbb98eb" x="863.332305" y="333.792" style="fill: #17202a; stroke: #17202a; stroke-width: 0.8"/>
      </g>
     </g>
     <g id="text_30">
      <text style="fill: #17202a; font: 9px 'DejaVu Sans'; text-anchor: middle" x="863.332305" y="347.630594" transform="rotate(-0 863.332305 347.630594)">16</text>
     </g>
    </g>
    <g id="xtick_13">
     <g id="line2d_42">
      <path d="M 917.18902 333.792 
L 917.18902 63.648 
" clip-path="url(#pde5c1453c8)" style="fill: none; stroke: #e7ebf0; stroke-width: 0.8; stroke-linecap: square"/>
     </g>
     <g id="line2d_43">
      <g>
       <use xlink:href="#m7ccfbb98eb" x="917.18902" y="333.792" style="fill: #17202a; stroke: #17202a; stroke-width: 0.8"/>
      </g>
     </g>
     <g id="text_31">
      <text style="fill: #17202a; font: 9px 'DejaVu Sans'; text-anchor: middle" x="917.18902" y="347.630594" transform="rotate(-0 917.18902 347.630594)">17</text>
     </g>
    </g>
    <g id="text_32">
     <text style="font: 10px 'DejaVu Sans'; text-anchor: middle" x="710.980683" y="361.10075" transform="rotate(-0 710.980683 361.10075)">solicitacion local M sin bloque (N/m)</text>
    </g>
   </g>
   <g id="matplotlib.axis_4">
    <g id="ytick_9">
     <g id="line2d_44">
      <path d="M 492.873366 328.735829 
L 929.088 328.735829 
" clip-path="url(#pde5c1453c8)" style="fill: none; stroke: #e7ebf0; stroke-width: 0.8; stroke-linecap: square"/>
     </g>
     <g id="line2d_45">
      <g>
       <use xlink:href="#m5544553725" x="492.873366" y="328.735829" style="fill: #17202a; stroke: #17202a; stroke-width: 0.8"/>
      </g>
     </g>
     <g id="text_33">
      <text style="fill: #17202a; font: 9px 'DejaVu Sans'; text-anchor: end" x="485.873366" y="332.155126" transform="rotate(-0 485.873366 332.155126)">0.55</text>
     </g>
    </g>
    <g id="ytick_10">
     <g id="line2d_46">
      <path d="M 492.873366 292.620321 
L 929.088 292.620321 
" clip-path="url(#pde5c1453c8)" style="fill: none; stroke: #e7ebf0; stroke-width: 0.8; stroke-linecap: square"/>
     </g>
     <g id="line2d_47">
      <g>
       <use xlink:href="#m5544553725" x="492.873366" y="292.620321" style="fill: #17202a; stroke: #17202a; stroke-width: 0.8"/>
      </g>
     </g>
     <g id="text_34">
      <text style="fill: #17202a; font: 9px 'DejaVu Sans'; text-anchor: end" x="485.873366" y="296.039618" transform="rotate(-0 485.873366 296.039618)">0.60</text>
     </g>
    </g>
    <g id="ytick_11">
     <g id="line2d_48">
      <path d="M 492.873366 256.504813 
L 929.088 256.504813 
" clip-path="url(#pde5c1453c8)" style="fill: none; stroke: #e7ebf0; stroke-width: 0.8; stroke-linecap: square"/>
     </g>
     <g id="line2d_49">
      <g>
       <use xlink:href="#m5544553725" x="492.873366" y="256.504813" style="fill: #17202a; stroke: #17202a; stroke-width: 0.8"/>
      </g>
     </g>
     <g id="text_35">
      <text style="fill: #17202a; font: 9px 'DejaVu Sans'; text-anchor: end" x="485.873366" y="259.92411" transform="rotate(-0 485.873366 259.92411)">0.65</text>
     </g>
    </g>
    <g id="ytick_12">
     <g id="line2d_50">
      <path d="M 492.873366 220.389305 
L 929.088 220.389305 
" clip-path="url(#pde5c1453c8)" style="fill: none; stroke: #e7ebf0; stroke-width: 0.8; stroke-linecap: square"/>
     </g>
     <g id="line2d_51">
      <g>
       <use xlink:href="#m5544553725" x="492.873366" y="220.389305" style="fill: #17202a; stroke: #17202a; stroke-width: 0.8"/>
      </g>
     </g>
     <g id="text_36">
      <text style="fill: #17202a; font: 9px 'DejaVu Sans'; text-anchor: end" x="485.873366" y="223.808602" transform="rotate(-0 485.873366 223.808602)">0.70</text>
     </g>
    </g>
    <g id="ytick_13">
     <g id="line2d_52">
      <path d="M 492.873366 184.273797 
L 929.088 184.273797 
" clip-path="url(#pde5c1453c8)" style="fill: none; stroke: #e7ebf0; stroke-width: 0.8; stroke-linecap: square"/>
     </g>
     <g id="line2d_53">
      <g>
       <use xlink:href="#m5544553725" x="492.873366" y="184.273797" style="fill: #17202a; stroke: #17202a; stroke-width: 0.8"/>
      </g>
     </g>
     <g id="text_37">
      <text style="fill: #17202a; font: 9px 'DejaVu Sans'; text-anchor: end" x="485.873366" y="187.693094" transform="rotate(-0 485.873366 187.693094)">0.75</text>
     </g>
    </g>
    <g id="ytick_14">
     <g id="line2d_54">
      <path d="M 492.873366 148.158289 
L 929.088 148.158289 
" clip-path="url(#pde5c1453c8)" style="fill: none; stroke: #e7ebf0; stroke-width: 0.8; stroke-linecap: square"/>
     </g>
     <g id="line2d_55">
      <g>
       <use xlink:href="#m5544553725" x="492.873366" y="148.158289" style="fill: #17202a; stroke: #17202a; stroke-width: 0.8"/>
      </g>
     </g>
     <g id="text_38">
      <text style="fill: #17202a; font: 9px 'DejaVu Sans'; text-anchor: end" x="485.873366" y="151.577586" transform="rotate(-0 485.873366 151.577586)">0.80</text>
     </g>
    </g>
    <g id="ytick_15">
     <g id="line2d_56">
      <path d="M 492.873366 112.042781 
L 929.088 112.042781 
" clip-path="url(#pde5c1453c8)" style="fill: none; stroke: #e7ebf0; stroke-width: 0.8; stroke-linecap: square"/>
     </g>
     <g id="line2d_57">
      <g>
       <use xlink:href="#m5544553725" x="492.873366" y="112.042781" style="fill: #17202a; stroke: #17202a; stroke-width: 0.8"/>
      </g>
     </g>
     <g id="text_39">
      <text style="fill: #17202a; font: 9px 'DejaVu Sans'; text-anchor: end" x="485.873366" y="115.462078" transform="rotate(-0 485.873366 115.462078)">0.85</text>
     </g>
    </g>
    <g id="ytick_16">
     <g id="line2d_58">
      <path d="M 492.873366 75.927273 
L 929.088 75.927273 
" clip-path="url(#pde5c1453c8)" style="fill: none; stroke: #e7ebf0; stroke-width: 0.8; stroke-linecap: square"/>
     </g>
     <g id="line2d_59">
      <g>
       <use xlink:href="#m5544553725" x="492.873366" y="75.927273" style="fill: #17202a; stroke: #17202a; stroke-width: 0.8"/>
      </g>
     </g>
     <g id="text_40">
      <text style="fill: #17202a; font: 9px 'DejaVu Sans'; text-anchor: end" x="485.873366" y="79.34657" transform="rotate(-0 485.873366 79.34657)">0.90</text>
     </g>
    </g>
    <g id="text_41">
     <text style="font: 10px 'DejaVu Sans'; text-anchor: middle" x="459.754616" y="198.72" transform="rotate(-90 459.754616 198.72)">coeficiente de friccion mu</text>
    </g>
   </g>
   <g id="PathCollection_1">
    <path d="M 704.367054 239.078149 
C 705.492215 239.078149 706.571445 238.631117 707.367054 237.835508 
C 708.162663 237.039899 708.609695 235.960669 708.609695 234.835508 
C 708.609695 233.710347 708.162663 232.631117 707.367054 231.835508 
C 706.571445 231.039899 705.492215 230.592867 704.367054 230.592867 
C 703.241892 230.592867 702.162663 231.039899 701.367054 231.835508 
C 700.571445 232.631117 700.124413 233.710347 700.124413 234.835508 
C 700.124413 235.960669 700.571445 237.039899 701.367054 237.835508 
C 702.162663 238.631117 703.241892 239.078149 704.367054 239.078149 
z
" clip-path="url(#pde5c1453c8)" style="fill: #2f7d4f; fill-opacity: 0.82; stroke: #ffffff; stroke-opacity: 0.82"/>
    <path d="M 704.367054 188.516437 
C 705.492215 188.516437 706.571445 188.069406 707.367054 187.273797 
C 708.162663 186.478187 708.609695 185.398958 708.609695 184.273797 
C 708.609695 183.148635 708.162663 182.069406 707.367054 181.273797 
C 706.571445 180.478187 705.492215 180.031156 704.367054 180.031156 
C 703.241892 180.031156 702.162663 180.478187 701.367054 181.273797 
C 700.571445 182.069406 700.124413 183.148635 700.124413 184.273797 
C 700.124413 185.398958 700.571445 186.478187 701.367054 187.273797 
C 702.162663 188.069406 703.241892 188.516437 704.367054 188.516437 
z
" clip-path="url(#pde5c1453c8)" style="fill: #2f7d4f; fill-opacity: 0.82; stroke: #ffffff; stroke-opacity: 0.82"/>
    <path d="M 704.367054 296.862962 
C 705.492215 296.862962 706.571445 296.41593 707.367054 295.620321 
C 708.162663 294.824712 708.609695 293.745482 708.609695 292.620321 
C 708.609695 291.495159 708.162663 290.41593 707.367054 289.620321 
C 706.571445 288.824712 705.492215 288.37768 704.367054 288.37768 
C 703.241892 288.37768 702.162663 288.824712 701.367054 289.620321 
C 700.571445 290.41593 700.124413 291.495159 700.124413 292.620321 
C 700.124413 293.745482 700.571445 294.824712 701.367054 295.620321 
C 702.162663 296.41593 703.241892 296.862962 704.367054 296.862962 
z
" clip-path="url(#pde5c1453c8)" style="fill: #2f7d4f; fill-opacity: 0.82; stroke: #ffffff; stroke-opacity: 0.82"/>
    <path d="M 704.367054 260.747454 
C 705.492215 260.747454 706.571445 260.300422 707.367054 259.504813 
C 708.162663 258.709204 708.609695 257.629974 708.609695 256.504813 
C 708.609695 255.379651 708.162663 254.300422 707.367054 253.504813 
C 706.571445 252.709204 705.492215 252.262172 704.367054 252.262172 
C 703.241892 252.262172 702.162663 252.709204 701.367054 253.504813 
C 700.571445 254.300422 700.124413 255.379651 700.124413 256.504813 
C 700.124413 257.629974 700.571445 258.709204 701.367054 259.504813 
C 702.162663 260.300422 703.241892 260.747454 704.367054 260.747454 
z
" clip-path="url(#pde5c1453c8)" style="fill: #2f7d4f; fill-opacity: 0.82; stroke: #ffffff; stroke-opacity: 0.82"/>
    <path d="M 704.367054 235.466598 
C 705.492215 235.466598 706.571445 235.019567 707.367054 234.223957 
C 708.162663 233.428348 708.609695 232.349119 708.609695 231.223957 
C 708.609695 230.098796 708.162663 229.019567 707.367054 228.223957 
C 706.571445 227.428348 705.492215 226.981317 704.367054 226.981317 
C 703.241892 226.981317 702.162663 227.428348 701.367054 228.223957 
C 700.571445 229.019567 700.124413 230.098796 700.124413 231.223957 
C 700.124413 232.349119 700.571445 233.428348 701.367054 234.223957 
C 702.162663 235.019567 703.241892 235.466598 704.367054 235.466598 
z
" clip-path="url(#pde5c1453c8)" style="fill: #2f7d4f; fill-opacity: 0.82; stroke: #ffffff; stroke-opacity: 0.82"/>
    <path d="M 704.367054 224.631945 
C 705.492215 224.631945 706.571445 224.184914 707.367054 223.389305 
C 708.162663 222.593696 708.609695 221.514466 708.609695 220.389305 
C 708.609695 219.264143 708.162663 218.184914 707.367054 217.389305 
C 706.571445 216.593696 705.492215 216.146664 704.367054 216.146664 
C 703.241892 216.146664 702.162663 216.593696 701.367054 217.389305 
C 700.571445 218.184914 700.124413 219.264143 700.124413 220.389305 
C 700.124413 221.514466 700.571445 222.593696 701.367054 223.389305 
C 702.162663 224.184914 703.241892 224.631945 704.367054 224.631945 
z
" clip-path="url(#pde5c1453c8)" style="fill: #2f7d4f; fill-opacity: 0.82; stroke: #ffffff; stroke-opacity: 0.82"/>
    <path d="M 704.367054 237.633528 
C 705.492215 237.633528 706.571445 237.186497 707.367054 236.390888 
C 708.162663 235.595278 708.609695 234.516049 708.609695 233.390888 
C 708.609695 232.265726 708.162663 231.186497 707.367054 230.390888 
C 706.571445 229.595278 705.492215 229.148247 704.367054 229.148247 
C 703.241892 229.148247 702.162663 229.595278 701.367054 230.390888 
C 700.571445 231.186497 700.124413 232.265726 700.124413 233.390888 
C 700.124413 234.516049 700.571445 235.595278 701.367054 236.390888 
C 702.162663 237.186497 703.241892 237.633528 704.367054 237.633528 
z
" clip-path="url(#pde5c1453c8)" style="fill: #2f7d4f; fill-opacity: 0.82; stroke: #ffffff; stroke-opacity: 0.82"/>
    <path d="M 704.367054 238.355839 
C 705.492215 238.355839 706.571445 237.908807 707.367054 237.113198 
C 708.162663 236.317589 708.609695 235.238359 708.609695 234.113198 
C 708.609695 232.988036 708.162663 231.908807 707.367054 231.113198 
C 706.571445 230.317589 705.492215 229.870557 704.367054 229.870557 
C 703.241892 229.870557 702.162663 230.317589 701.367054 231.113198 
C 700.571445 231.908807 700.124413 232.988036 700.124413 234.113198 
C 700.124413 235.238359 700.571445 236.317589 701.367054 237.113198 
C 702.162663 237.908807 703.241892 238.355839 704.367054 238.355839 
z
" clip-path="url(#pde5c1453c8)" style="fill: #2f7d4f; fill-opacity: 0.82; stroke: #ffffff; stroke-opacity: 0.82"/>
    <path d="M 708.137024 239.63134 
C 709.408893 239.63134 710.628841 239.12602 711.528189 238.226673 
C 712.427536 237.327326 712.932855 236.107377 712.932855 234.835508 
C 712.932855 233.563639 712.427536 232.34369 711.528189 231.444343 
C 710.628841 230.544996 709.408893 230.039676 708.137024 230.039676 
C 706.865155 230.039676 705.645206 230.544996 704.745859 231.444343 
C 703.846511 232.34369 703.341192 233.563639 703.341192 234.835508 
C 703.341192 236.107377 703.846511 237.327326 704.745859 238.226673 
C 705.645206 239.12602 706.865155 239.63134 708.137024 239.63134 
z
" clip-path="url(#pde5c1453c8)" style="fill: #2f7d4f; fill-opacity: 0.82; stroke: #ffffff; stroke-opacity: 0.82"/>
    <path d="M 711.63771 243.785598 
C 713.053508 243.785598 714.411508 243.223096 715.412628 242.221976 
C 716.413747 241.220856 716.97625 239.862856 716.97625 238.447059 
C 716.97625 237.031262 716.413747 235.673261 715.412628 234.672142 
C 714.411508 233.671022 713.053508 233.10852 711.63771 233.10852 
C 710.221913 233.10852 708.863913 233.671022 707.862793 234.672142 
C 706.861673 235.673261 706.299171 237.031262 706.299171 238.447059 
C 706.299171 239.862856 706.861673 241.220856 707.862793 242.221976 
C 708.863913 243.223096 710.221913 243.785598 711.63771 243.785598 
z
" clip-path="url(#pde5c1453c8)" style="fill: #2f7d4f; fill-opacity: 0.82; stroke: #ffffff; stroke-opacity: 0.82"/>
    <path d="M 708.137024 282.969949 
C 709.408893 282.969949 710.628841 282.46463 711.528189 281.565283 
C 712.427536 280.665935 712.932855 279.445987 712.932855 278.174118 
C 712.932855 276.902248 712.427536 275.6823 711.528189 274.782953 
C 710.628841 273.883605 709.408893 273.378286 708.137024 273.378286 
C 706.865155 273.378286 705.645206 273.883605 704.745859 274.782953 
C 703.846511 275.6823 703.341192 276.902248 703.341192 278.174118 
C 703.341192 279.445987 703.846511 280.665935 704.745859 281.565283 
C 705.645206 282.46463 706.865155 282.969949 708.137024 282.969949 
z
" clip-path="url(#pde5c1453c8)" style="fill: #2f7d4f; fill-opacity: 0.82; stroke: #ffffff; stroke-opacity: 0.82"/>
    <path d="M 711.63771 297.95886 
C 713.053508 297.95886 714.411508 297.396358 715.412628 296.395238 
C 716.413747 295.394118 716.97625 294.036118 716.97625 292.620321 
C 716.97625 291.204524 716.413747 289.846523 715.412628 288.845404 
C 714.411508 287.844284 713.053508 287.281782 711.63771 287.281782 
C 710.221913 287.281782 708.863913 287.844284 707.862793 288.845404 
C 706.861673 289.846523 706.299171 291.204524 706.299171 292.620321 
C 706.299171 294.036118 706.861673 295.394118 707.862793 296.395238 
C 708.863913 297.396358 710.221913 297.95886 711.63771 297.95886 
z
" clip-path="url(#pde5c1453c8)" style="fill: #2f7d4f; fill-opacity: 0.82; stroke: #ffffff; stroke-opacity: 0.82"/>
    <path d="M 700.866367 137.38632 
C 701.840786 137.38632 702.775426 136.99918 703.464444 136.310162 
C 704.153461 135.621144 704.540602 134.686504 704.540602 133.712086 
C 704.540602 132.737667 704.153461 131.803027 703.464444 131.114009 
C 702.775426 130.424991 701.840786 130.037851 700.866367 130.037851 
C 699.891949 130.037851 698.957309 130.424991 698.268291 131.114009 
C 697.579273 131.803027 697.192133 132.737667 697.192133 133.712086 
C 697.192133 134.686504 697.579273 135.621144 698.268291 136.310162 
C 698.957309 136.99918 699.891949 137.38632 700.866367 137.38632 
z
" clip-path="url(#pde5c1453c8)" style="fill: #2f7d4f; fill-opacity: 0.82; stroke: #ffffff; stroke-opacity: 0.82"/>
    <path d="M 700.866367 108.493914 
C 701.840786 108.493914 702.775426 108.106773 703.464444 107.417755 
C 704.153461 106.728737 704.540602 105.794098 704.540602 104.819679 
C 704.540602 103.845261 704.153461 102.910621 703.464444 102.221603 
C 702.775426 101.532585 701.840786 101.145445 700.866367 101.145445 
C 699.891949 101.145445 698.957309 101.532585 698.268291 102.221603 
C 697.579273 102.910621 697.192133 103.845261 697.192133 104.819679 
C 697.192133 105.794098 697.579273 106.728737 698.268291 107.417755 
C 698.957309 108.106773 699.891949 108.493914 700.866367 108.493914 
z
" clip-path="url(#pde5c1453c8)" style="fill: #2f7d4f; fill-opacity: 0.82; stroke: #ffffff; stroke-opacity: 0.82"/>
    <path d="M 700.866367 151.832523 
C 701.840786 151.832523 702.775426 151.445383 703.464444 150.756365 
C 704.153461 150.067347 704.540602 149.132707 704.540602 148.158289 
C 704.540602 147.18387 704.153461 146.24923 703.464444 145.560213 
C 702.775426 144.871195 701.840786 144.484054 700.866367 144.484054 
C 699.891949 144.484054 698.957309 144.871195 698.268291 145.560213 
C 697.579273 146.24923 697.192133 147.18387 697.192133 148.158289 
C 697.192133 149.132707 697.579273 150.067347 698.268291 150.756365 
C 698.957309 151.445383 699.891949 151.832523 700.866367 151.832523 
z
" clip-path="url(#pde5c1453c8)" style="fill: #2f7d4f; fill-opacity: 0.82; stroke: #ffffff; stroke-opacity: 0.82"/>
    <path d="M 704.367054 238.500301 
C 705.492215 238.500301 706.571445 238.053269 707.367054 237.25766 
C 708.162663 236.462051 708.609695 235.382821 708.609695 234.25766 
C 708.609695 233.132498 708.162663 232.053269 707.367054 231.25766 
C 706.571445 230.462051 705.492215 230.015019 704.367054 230.015019 
C 703.241892 230.015019 702.162663 230.462051 701.367054 231.25766 
C 700.571445 232.053269 700.124413 233.132498 700.124413 234.25766 
C 700.124413 235.382821 700.571445 236.462051 701.367054 237.25766 
C 702.162663 238.053269 703.241892 238.500301 704.367054 238.500301 
z
" clip-path="url(#pde5c1453c8)" style="fill: #2f7d4f; fill-opacity: 0.82; stroke: #ffffff; stroke-opacity: 0.82"/>
    <path d="M 516.20199 239.078149 
C 517.327152 239.078149 518.406381 238.631117 519.20199 237.835508 
C 519.9976 237.039899 520.444631 235.960669 520.444631 234.835508 
C 520.444631 233.710347 519.9976 232.631117 519.20199 231.835508 
C 518.406381 231.039899 517.327152 230.592867 516.20199 230.592867 
C 515.076829 230.592867 513.9976 231.039899 513.20199 231.835508 
C 512.406381 232.631117 511.95935 233.710347 511.95935 234.835508 
C 511.95935 235.960669 512.406381 237.039899 513.20199 237.835508 
C 513.9976 238.631117 515.076829 239.078149 516.20199 239.078149 
z
" clip-path="url(#pde5c1453c8)" style="fill: #2f7d4f; fill-opacity: 0.82; stroke: #ffffff; stroke-opacity: 0.82"/>
    <path d="M 516.20199 296.862962 
C 517.327152 296.862962 518.406381 296.41593 519.20199 295.620321 
C 519.9976 294.824712 520.444631 293.745482 520.444631 292.620321 
C 520.444631 291.495159 519.9976 290.41593 519.20199 289.620321 
C 518.406381 288.824712 517.327152 288.37768 516.20199 288.37768 
C 515.076829 288.37768 513.9976 288.824712 513.20199 289.620321 
C 512.406381 290.41593 511.95935 291.495159 511.95935 292.620321 
C 511.95935 293.745482 512.406381 294.824712 513.20199 295.620321 
C 513.9976 296.41593 515.076829 296.862962 516.20199 296.862962 
z
" clip-path="url(#pde5c1453c8)" style="fill: #2f7d4f; fill-opacity: 0.82; stroke: #ffffff; stroke-opacity: 0.82"/>
    <path d="M 516.20199 267.970555 
C 517.327152 267.970555 518.406381 267.523524 519.20199 266.727914 
C 519.9976 265.932305 520.444631 264.853076 520.444631 263.727914 
C 520.444631 262.602753 519.9976 261.523524 519.20199 260.727914 
C 518.406381 259.932305 517.327152 259.485274 516.20199 259.485274 
C 515.076829 259.485274 513.9976 259.932305 513.20199 260.727914 
C 512.406381 261.523524 511.95935 262.602753 511.95935 263.727914 
C 511.95935 264.853076 512.406381 265.932305 513.20199 266.727914 
C 513.9976 267.523524 515.076829 267.970555 516.20199 267.970555 
z
" clip-path="url(#pde5c1453c8)" style="fill: #2f7d4f; fill-opacity: 0.82; stroke: #ffffff; stroke-opacity: 0.82"/>
    <path d="M 516.20199 253.524352 
C 517.327152 253.524352 518.406381 253.077321 519.20199 252.281711 
C 519.9976 251.486102 520.444631 250.406873 520.444631 249.281711 
C 520.444631 248.15655 519.9976 247.077321 519.20199 246.281711 
C 518.406381 245.486102 517.327152 245.039071 516.20199 245.039071 
C 515.076829 245.039071 513.9976 245.486102 513.20199 246.281711 
C 512.406381 247.077321 511.95935 248.15655 511.95935 249.281711 
C 511.95935 250.406873 512.406381 251.486102 513.20199 252.281711 
C 513.9976 253.077321 515.076829 253.524352 516.20199 253.524352 
z
" clip-path="url(#pde5c1453c8)" style="fill: #2f7d4f; fill-opacity: 0.82; stroke: #ffffff; stroke-opacity: 0.82"/>
    <path d="M 519.97196 268.523746 
C 521.24383 268.523746 522.463778 268.018427 523.363125 267.119079 
C 524.262473 266.219732 524.767792 264.999784 524.767792 263.727914 
C 524.767792 262.456045 524.262473 261.236097 523.363125 260.336749 
C 522.463778 259.437402 521.24383 258.932083 519.97196 258.932083 
C 518.700091 258.932083 517.480143 259.437402 516.580795 260.336749 
C 515.681448 261.236097 515.176129 262.456045 515.176129 263.727914 
C 515.176129 264.999784 515.681448 266.219732 516.580795 267.119079 
C 517.480143 268.018427 518.700091 268.523746 519.97196 268.523746 
z
" clip-path="url(#pde5c1453c8)" style="fill: #2f7d4f; fill-opacity: 0.82; stroke: #ffffff; stroke-opacity: 0.82"/>
    <path d="M 512.701304 281.848352 
C 513.675722 281.848352 514.610362 281.461212 515.29938 280.772194 
C 515.988398 280.083176 516.375538 279.148536 516.375538 278.174118 
C 516.375538 277.199699 515.988398 276.265059 515.29938 275.576041 
C 514.610362 274.887024 513.675722 274.499883 512.701304 274.499883 
C 511.726885 274.499883 510.792245 274.887024 510.103228 275.576041 
C 509.41421 276.265059 509.027069 277.199699 509.027069 278.174118 
C 509.027069 279.148536 509.41421 280.083176 510.103228 280.772194 
C 510.792245 281.461212 511.726885 281.848352 512.701304 281.848352 
z
" clip-path="url(#pde5c1453c8)" style="fill: #2f7d4f; fill-opacity: 0.82; stroke: #ffffff; stroke-opacity: 0.82"/>
    <path d="M 512.701304 307.129208 
C 513.675722 307.129208 514.610362 306.742067 515.29938 306.053049 
C 515.988398 305.364032 516.375538 304.429392 516.375538 303.454973 
C 516.375538 302.480555 515.988398 301.545915 515.29938 300.856897 
C 514.610362 300.167879 513.675722 299.780739 512.701304 299.780739 
C 511.726885 299.780739 510.792245 300.167879 510.103228 300.856897 
C 509.41421 301.545915 509.027069 302.480555 509.027069 303.454973 
C 509.027069 304.429392 509.41421 305.364032 510.103228 306.053049 
C 510.792245 306.742067 511.726885 307.129208 512.701304 307.129208 
z
" clip-path="url(#pde5c1453c8)" style="fill: #2f7d4f; fill-opacity: 0.82; stroke: #ffffff; stroke-opacity: 0.82"/>
    <path d="M 512.701304 316.51924 
C 513.675722 316.51924 514.610362 316.132099 515.29938 315.443082 
C 515.988398 314.754064 516.375538 313.819424 516.375538 312.845005 
C 516.375538 311.870587 515.988398 310.935947 515.29938 310.246929 
C 514.610362 309.557911 513.675722 309.170771 512.701304 309.170771 
C 511.726885 309.170771 510.792245 309.557911 510.103228 310.246929 
C 509.41421 310.935947 509.027069 311.870587 509.027069 312.845005 
C 509.027069 313.819424 509.41421 314.754064 510.103228 315.443082 
C 510.792245 316.132099 511.726885 316.51924 512.701304 316.51924 
z
" clip-path="url(#pde5c1453c8)" style="fill: #2f7d4f; fill-opacity: 0.82; stroke: #ffffff; stroke-opacity: 0.82"/>
    <path d="M 512.701304 320.853101 
C 513.675722 320.853101 514.610362 320.46596 515.29938 319.776943 
C 515.988398 319.087925 516.375538 318.153285 516.375538 317.178866 
C 516.375538 316.204448 515.988398 315.269808 515.29938 314.58079 
C 514.610362 313.891772 513.675722 313.504632 512.701304 313.504632 
C 511.726885 313.504632 510.792245 313.891772 510.103228 314.58079 
C 509.41421 315.269808 509.027069 316.204448 509.027069 317.178866 
C 509.027069 318.153285 509.41421 319.087925 510.103228 319.776943 
C 510.792245 320.46596 511.726885 320.853101 512.701304 320.853101 
z
" clip-path="url(#pde5c1453c8)" style="fill: #2f7d4f; fill-opacity: 0.82; stroke: #ffffff; stroke-opacity: 0.82"/>
    <path d="M 909.260062 153.496828 
C 910.675859 153.496828 912.03386 152.934326 913.034979 151.933206 
C 914.036099 150.932086 914.598601 149.574086 914.598601 148.158289 
C 914.598601 146.742492 914.036099 145.384491 913.034979 144.383372 
C 912.03386 143.382252 910.675859 142.81975 909.260062 142.81975 
C 907.844265 142.81975 906.486265 143.382252 905.485145 144.383372 
C 904.484025 145.384491 903.921523 146.742492 903.921523 148.158289 
C 903.921523 149.574086 904.484025 150.932086 905.485145 151.933206 
C 906.486265 152.934326 907.844265 153.496828 909.260062 153.496828 
z
" clip-path="url(#pde5c1453c8)" style="fill: #2f7d4f; fill-opacity: 0.82; stroke: #ffffff; stroke-opacity: 0.82"/>
    <path d="M 905.759376 152.95412 
C 907.031245 152.95412 908.251193 152.448801 909.150541 151.549454 
C 910.049888 150.650106 910.555207 149.430158 910.555207 148.158289 
C 910.555207 146.886419 910.049888 145.666471 909.150541 144.767124 
C 908.251193 143.867776 907.031245 143.362457 905.759376 143.362457 
C 904.487506 143.362457 903.267558 143.867776 902.368211 144.767124 
C 901.468863 145.666471 900.963544 146.886419 900.963544 148.158289 
C 900.963544 149.430158 901.468863 150.650106 902.368211 151.549454 
C 903.267558 152.448801 904.487506 152.95412 905.759376 152.95412 
z
" clip-path="url(#pde5c1453c8)" style="fill: #2f7d4f; fill-opacity: 0.82; stroke: #ffffff; stroke-opacity: 0.82"/>
    <path d="M 909.260062 196.835438 
C 910.675859 196.835438 912.03386 196.272935 913.034979 195.271816 
C 914.036099 194.270696 914.598601 192.912696 914.598601 191.496898 
C 914.598601 190.081101 914.036099 188.723101 913.034979 187.721981 
C 912.03386 186.720861 910.675859 186.158359 909.260062 186.158359 
C 907.844265 186.158359 906.486265 186.720861 905.485145 187.721981 
C 904.484025 188.723101 903.921523 190.081101 903.921523 191.496898 
C 903.921523 192.912696 904.484025 194.270696 905.485145 195.271816 
C 906.486265 196.272935 907.844265 196.835438 909.260062 196.835438 
z
" clip-path="url(#pde5c1453c8)" style="fill: #2f7d4f; fill-opacity: 0.82; stroke: #ffffff; stroke-opacity: 0.82"/>
    <path d="M 901.989406 94.616117 
C 903.114567 94.616117 904.193796 94.169085 904.989406 93.373476 
C 905.785015 92.577867 906.232046 91.498637 906.232046 90.373476 
C 906.232046 89.248314 905.785015 88.169085 904.989406 87.373476 
C 904.193796 86.577867 903.114567 86.130835 901.989406 86.130835 
C 900.864244 86.130835 899.785015 86.577867 898.989406 87.373476 
C 898.193796 88.169085 897.746765 89.248314 897.746765 90.373476 
C 897.746765 91.498637 898.193796 92.577867 898.989406 93.373476 
C 899.785015 94.169085 900.864244 94.616117 901.989406 94.616117 
z
" clip-path="url(#pde5c1453c8)" style="fill: #2f7d4f; fill-opacity: 0.82; stroke: #ffffff; stroke-opacity: 0.82"/>
    <path d="M 901.989406 101.839218 
C 903.114567 101.839218 904.193796 101.392187 904.989406 100.596578 
C 905.785015 99.800968 906.232046 98.721739 906.232046 97.596578 
C 906.232046 96.471416 905.785015 95.392187 904.989406 94.596578 
C 904.193796 93.800968 903.114567 93.353937 901.989406 93.353937 
C 900.864244 93.353937 899.785015 93.800968 898.989406 94.596578 
C 898.193796 95.392187 897.746765 96.471416 897.746765 97.596578 
C 897.746765 98.721739 898.193796 99.800968 898.989406 100.596578 
C 899.785015 101.392187 900.864244 101.839218 901.989406 101.839218 
z
" clip-path="url(#pde5c1453c8)" style="fill: #2f7d4f; fill-opacity: 0.82; stroke: #ffffff; stroke-opacity: 0.82"/>
    <path d="M 905.759376 181.846527 
C 907.031245 181.846527 908.251193 181.341208 909.150541 180.44186 
C 910.049888 179.542513 910.555207 178.322565 910.555207 177.050695 
C 910.555207 175.778826 910.049888 174.558878 909.150541 173.65953 
C 908.251193 172.760183 907.031245 172.254864 905.759376 172.254864 
C 904.487506 172.254864 903.267558 172.760183 902.368211 173.65953 
C 901.468863 174.558878 900.963544 175.778826 900.963544 177.050695 
C 900.963544 178.322565 901.468863 179.542513 902.368211 180.44186 
C 903.267558 181.341208 904.487506 181.846527 905.759376 181.846527 
z
" clip-path="url(#pde5c1453c8)" style="fill: #2f7d4f; fill-opacity: 0.82; stroke: #ffffff; stroke-opacity: 0.82"/>
    <path d="M 905.759376 167.400324 
C 907.031245 167.400324 908.251193 166.895004 909.150541 165.995657 
C 910.049888 165.09631 910.555207 163.876361 910.555207 162.604492 
C 910.555207 161.332623 910.049888 160.112674 909.150541 159.213327 
C 908.251193 158.31398 907.031245 157.80866 905.759376 157.80866 
C 904.487506 157.80866 903.267558 158.31398 902.368211 159.213327 
C 901.468863 160.112674 900.963544 161.332623 900.963544 162.604492 
C 900.963544 163.876361 901.468863 165.09631 902.368211 165.995657 
C 903.267558 166.895004 904.487506 167.400324 905.759376 167.400324 
z
" clip-path="url(#pde5c1453c8)" style="fill: #2f7d4f; fill-opacity: 0.82; stroke: #ffffff; stroke-opacity: 0.82"/>
    <path d="M 909.260062 225.727844 
C 910.675859 225.727844 912.03386 225.165342 913.034979 224.164222 
C 914.036099 223.163102 914.598601 221.805102 914.598601 220.389305 
C 914.598601 218.973508 914.036099 217.615507 913.034979 216.614388 
C 912.03386 215.613268 910.675859 215.050766 909.260062 215.050766 
C 907.844265 215.050766 906.486265 215.613268 905.485145 216.614388 
C 904.484025 217.615507 903.921523 218.973508 903.921523 220.389305 
C 903.921523 221.805102 904.484025 223.163102 905.485145 224.164222 
C 906.486265 225.165342 907.844265 225.727844 909.260062 225.727844 
z
" clip-path="url(#pde5c1453c8)" style="fill: #2f7d4f; fill-opacity: 0.82; stroke: #ffffff; stroke-opacity: 0.82"/>
    <path d="M 901.989406 105.450769 
C 903.114567 105.450769 904.193796 105.003738 904.989406 104.208128 
C 905.785015 103.412519 906.232046 102.33329 906.232046 101.208128 
C 906.232046 100.082967 905.785015 99.003738 904.989406 98.208128 
C 904.193796 97.412519 903.114567 96.965488 901.989406 96.965488 
C 900.864244 96.965488 899.785015 97.412519 898.989406 98.208128 
C 898.193796 99.003738 897.746765 100.082967 897.746765 101.208128 
C 897.746765 102.33329 898.193796 103.412519 898.989406 104.208128 
C 899.785015 105.003738 900.864244 105.450769 901.989406 105.450769 
z
" clip-path="url(#pde5c1453c8)" style="fill: #2f7d4f; fill-opacity: 0.82; stroke: #ffffff; stroke-opacity: 0.82"/>
    <path d="M 905.759376 185.458078 
C 907.031245 185.458078 908.251193 184.952758 909.150541 184.053411 
C 910.049888 183.154064 910.555207 181.934115 910.555207 180.662246 
C 910.555207 179.390377 910.049888 178.170428 909.150541 177.271081 
C 908.251193 176.371734 907.031245 175.866414 905.759376 175.866414 
C 904.487506 175.866414 903.267558 176.371734 902.368211 177.271081 
C 901.468863 178.170428 900.963544 179.390377 900.963544 180.662246 
C 900.963544 181.934115 901.468863 183.154064 902.368211 184.053411 
C 903.267558 184.952758 904.487506 185.458078 905.759376 185.458078 
z
" clip-path="url(#pde5c1453c8)" style="fill: #2f7d4f; fill-opacity: 0.82; stroke: #ffffff; stroke-opacity: 0.82"/>
    <path d="M 909.260062 232.950946 
C 910.675859 232.950946 912.03386 232.388443 913.034979 231.387324 
C 914.036099 230.386204 914.598601 229.028204 914.598601 227.612406 
C 914.598601 226.196609 914.036099 224.838609 913.034979 223.837489 
C 912.03386 222.836369 910.675859 222.273867 909.260062 222.273867 
C 907.844265 222.273867 906.486265 222.836369 905.485145 223.837489 
C 904.484025 224.838609 903.921523 226.196609 903.921523 227.612406 
C 903.921523 229.028204 904.484025 230.386204 905.485145 231.387324 
C 906.486265 232.388443 907.844265 232.950946 909.260062 232.950946 
z
" clip-path="url(#pde5c1453c8)" style="fill: #2f7d4f; fill-opacity: 0.82; stroke: #ffffff; stroke-opacity: 0.82"/>
    <path d="M 909.260062 236.562496 
C 910.675859 236.562496 912.03386 235.999994 913.034979 234.998874 
C 914.036099 233.997755 914.598601 232.639754 914.598601 231.223957 
C 914.598601 229.80816 914.036099 228.45016 913.034979 227.44904 
C 912.03386 226.44792 910.675859 225.885418 909.260062 225.885418 
C 907.844265 225.885418 906.486265 226.44792 905.485145 227.44904 
C 904.484025 228.45016 903.921523 229.80816 903.921523 231.223957 
C 903.921523 232.639754 904.484025 233.997755 905.485145 234.998874 
C 906.486265 235.999994 907.844265 236.562496 909.260062 236.562496 
z
" clip-path="url(#pde5c1453c8)" style="fill: #2f7d4f; fill-opacity: 0.82; stroke: #ffffff; stroke-opacity: 0.82"/>
    <path d="M 758.295918 181.846527 
C 759.567787 181.846527 760.787735 181.341208 761.687083 180.44186 
C 762.58643 179.542513 763.091749 178.322565 763.091749 177.050695 
C 763.091749 175.778826 762.58643 174.558878 761.687083 173.65953 
C 760.787735 172.760183 759.567787 172.254864 758.295918 172.254864 
C 757.024048 172.254864 755.8041 172.760183 754.904753 173.65953 
C 754.005405 174.558878 753.500086 175.778826 753.500086 177.050695 
C 753.500086 178.322565 754.005405 179.542513 754.904753 180.44186 
C 755.8041 181.341208 757.024048 181.846527 758.295918 181.846527 
z
" clip-path="url(#pde5c1453c8)" style="fill: #2f7d4f; fill-opacity: 0.82; stroke: #ffffff; stroke-opacity: 0.82"/>
    <path d="M 754.525948 152.400929 
C 755.651109 152.400929 756.730338 151.953898 757.525948 151.158289 
C 758.321557 150.362679 758.768588 149.28345 758.768588 148.158289 
C 758.768588 147.033127 758.321557 145.953898 757.525948 145.158289 
C 756.730338 144.362679 755.651109 143.915648 754.525948 143.915648 
C 753.400786 143.915648 752.321557 144.362679 751.525948 145.158289 
C 750.730338 145.953898 750.283307 147.033127 750.283307 148.158289 
C 750.283307 149.28345 750.730338 150.362679 751.525948 151.158289 
C 752.321557 151.953898 753.400786 152.400929 754.525948 152.400929 
z
" clip-path="url(#pde5c1453c8)" style="fill: #2f7d4f; fill-opacity: 0.82; stroke: #ffffff; stroke-opacity: 0.82"/>
    <path d="M 758.295918 203.515832 
C 759.567787 203.515832 760.787735 203.010512 761.687083 202.111165 
C 762.58643 201.211818 763.091749 199.991869 763.091749 198.72 
C 763.091749 197.448131 762.58643 196.228182 761.687083 195.328835 
C 760.787735 194.429488 759.567787 193.924168 758.295918 193.924168 
C 757.024048 193.924168 755.8041 194.429488 754.904753 195.328835 
C 754.005405 196.228182 753.500086 197.448131 753.500086 198.72 
C 753.500086 199.991869 754.005405 201.211818 754.904753 202.111165 
C 755.8041 203.010512 757.024048 203.515832 758.295918 203.515832 
z
" clip-path="url(#pde5c1453c8)" style="fill: #2f7d4f; fill-opacity: 0.82; stroke: #ffffff; stroke-opacity: 0.82"/>
    <path d="M 754.525948 174.070234 
C 755.651109 174.070234 756.730338 173.623203 757.525948 172.827594 
C 758.321557 172.031984 758.768588 170.952755 758.768588 169.827594 
C 758.768588 168.702432 758.321557 167.623203 757.525948 166.827594 
C 756.730338 166.031984 755.651109 165.584953 754.525948 165.584953 
C 753.400786 165.584953 752.321557 166.031984 751.525948 166.827594 
C 750.730338 167.623203 750.283307 168.702432 750.283307 169.827594 
C 750.283307 170.952755 750.730338 172.031984 751.525948 172.827594 
C 752.321557 173.623203 753.400786 174.070234 754.525948 174.070234 
z
" clip-path="url(#pde5c1453c8)" style="fill: #2f7d4f; fill-opacity: 0.82; stroke: #ffffff; stroke-opacity: 0.82"/>
    <path d="M 751.025261 79.601507 
C 751.99968 79.601507 752.934319 79.214367 753.623337 78.525349 
C 754.312355 77.836331 754.699496 76.901691 754.699496 75.927273 
C 754.699496 74.952854 754.312355 74.018214 753.623337 73.329197 
C 752.934319 72.640179 751.99968 72.253038 751.025261 72.253038 
C 750.050843 72.253038 749.116203 72.640179 748.427185 73.329197 
C 747.738167 74.018214 747.351027 74.952854 747.351027 75.927273 
C 747.351027 76.901691 747.738167 77.836331 748.427185 78.525349 
C 749.116203 79.214367 750.050843 79.601507 751.025261 79.601507 
z
" clip-path="url(#pde5c1453c8)" style="fill: #2f7d4f; fill-opacity: 0.82; stroke: #ffffff; stroke-opacity: 0.82"/>
    <path d="M 754.525948 184.904887 
C 755.651109 184.904887 756.730338 184.457855 757.525948 183.662246 
C 758.321557 182.866637 758.768588 181.787407 758.768588 180.662246 
C 758.768588 179.537085 758.321557 178.457855 757.525948 177.662246 
C 756.730338 176.866637 755.651109 176.419605 754.525948 176.419605 
C 753.400786 176.419605 752.321557 176.866637 751.525948 177.662246 
C 750.730338 178.457855 750.283307 179.537085 750.283307 180.662246 
C 750.283307 181.787407 750.730338 182.866637 751.525948 183.662246 
C 752.321557 184.457855 753.400786 184.904887 754.525948 184.904887 
z
" clip-path="url(#pde5c1453c8)" style="fill: #2f7d4f; fill-opacity: 0.82; stroke: #ffffff; stroke-opacity: 0.82"/>
    <path d="M 751.025261 86.824609 
C 751.99968 86.824609 752.934319 86.437468 753.623337 85.748451 
C 754.312355 85.059433 754.699496 84.124793 754.699496 83.150374 
C 754.699496 82.175956 754.312355 81.241316 753.623337 80.552298 
C 752.934319 79.86328 751.99968 79.47614 751.025261 79.47614 
C 750.050843 79.47614 749.116203 79.86328 748.427185 80.552298 
C 747.738167 81.241316 747.351027 82.175956 747.351027 83.150374 
C 747.351027 84.124793 747.738167 85.059433 748.427185 85.748451 
C 749.116203 86.437468 750.050843 86.824609 751.025261 86.824609 
z
" clip-path="url(#pde5c1453c8)" style="fill: #2f7d4f; fill-opacity: 0.82; stroke: #ffffff; stroke-opacity: 0.82"/>
    <path d="M 754.525948 189.961058 
C 755.651109 189.961058 756.730338 189.514026 757.525948 188.718417 
C 758.321557 187.922808 758.768588 186.843579 758.768588 185.718417 
C 758.768588 184.593256 758.321557 183.514026 757.525948 182.718417 
C 756.730338 181.922808 755.651109 181.475776 754.525948 181.475776 
C 753.400786 181.475776 752.321557 181.922808 751.525948 182.718417 
C 750.730338 183.514026 750.283307 184.593256 750.283307 185.718417 
C 750.283307 186.843579 750.730338 187.922808 751.525948 188.718417 
C 752.321557 189.514026 753.400786 189.961058 754.525948 189.961058 
z
" clip-path="url(#pde5c1453c8)" style="fill: #2f7d4f; fill-opacity: 0.82; stroke: #ffffff; stroke-opacity: 0.82"/>
    <path d="M 758.295918 225.185136 
C 759.567787 225.185136 760.787735 224.679817 761.687083 223.78047 
C 762.58643 222.881122 763.091749 221.661174 763.091749 220.389305 
C 763.091749 219.117435 762.58643 217.897487 761.687083 216.99814 
C 760.787735 216.098792 759.567787 215.593473 758.295918 215.593473 
C 757.024048 215.593473 755.8041 216.098792 754.904753 216.99814 
C 754.005405 217.897487 753.500086 219.117435 753.500086 220.389305 
C 753.500086 221.661174 754.005405 222.881122 754.904753 223.78047 
C 755.8041 224.679817 757.024048 225.185136 758.295918 225.185136 
z
" clip-path="url(#pde5c1453c8)" style="fill: #2f7d4f; fill-opacity: 0.82; stroke: #ffffff; stroke-opacity: 0.82"/>
    <path d="M 761.796604 254.62025 
C 763.212401 254.62025 764.570402 254.057748 765.571521 253.056628 
C 766.572641 252.055509 767.135143 250.697508 767.135143 249.281711 
C 767.135143 247.865914 766.572641 246.507914 765.571521 245.506794 
C 764.570402 244.505674 763.212401 243.943172 761.796604 243.943172 
C 760.380807 243.943172 759.022807 244.505674 758.021687 245.506794 
C 757.020567 246.507914 756.458065 247.865914 756.458065 249.281711 
C 756.458065 250.697508 757.020567 252.055509 758.021687 253.056628 
C 759.022807 254.057748 760.380807 254.62025 761.796604 254.62025 
z
" clip-path="url(#pde5c1453c8)" style="fill: #2f7d4f; fill-opacity: 0.82; stroke: #ffffff; stroke-opacity: 0.82"/>
    <path d="M 758.295918 236.019789 
C 759.567787 236.019789 760.787735 235.51447 761.687083 234.615122 
C 762.58643 233.715775 763.091749 232.495827 763.091749 231.223957 
C 763.091749 229.952088 762.58643 228.73214 761.687083 227.832792 
C 760.787735 226.933445 759.567787 226.428126 758.295918 226.428126 
C 757.024048 226.428126 755.8041 226.933445 754.904753 227.832792 
C 754.005405 228.73214 753.500086 229.952088 753.500086 231.223957 
C 753.500086 232.495827 754.005405 233.715775 754.904753 234.615122 
C 755.8041 235.51447 757.024048 236.019789 758.295918 236.019789 
z
" clip-path="url(#pde5c1453c8)" style="fill: #2f7d4f; fill-opacity: 0.82; stroke: #ffffff; stroke-opacity: 0.82"/>
    <path d="M 761.796604 269.066454 
C 763.212401 269.066454 764.570402 268.503951 765.571521 267.502832 
C 766.572641 266.501712 767.135143 265.143712 767.135143 263.727914 
C 767.135143 262.312117 766.572641 260.954117 765.571521 259.952997 
C 764.570402 258.951877 763.212401 258.389375 761.796604 258.389375 
C 760.380807 258.389375 759.022807 258.951877 758.021687 259.952997 
C 757.020567 260.954117 756.458065 262.312117 756.458065 263.727914 
C 756.458065 265.143712 757.020567 266.501712 758.021687 267.502832 
C 759.022807 268.503951 760.380807 269.066454 761.796604 269.066454 
z
" clip-path="url(#pde5c1453c8)" style="fill: #2f7d4f; fill-opacity: 0.82; stroke: #ffffff; stroke-opacity: 0.82"/>
    <path d="M 758.295918 248.660217 
C 759.567787 248.660217 760.787735 248.154897 761.687083 247.25555 
C 762.58643 246.356203 763.091749 245.136254 763.091749 243.864385 
C 763.091749 242.592516 762.58643 241.372568 761.687083 240.47322 
C 760.787735 239.573873 759.567787 239.068554 758.295918 239.068554 
C 757.024048 239.068554 755.8041 239.573873 754.904753 240.47322 
C 754.005405 241.372568 753.500086 242.592516 753.500086 243.864385 
C 753.500086 245.136254 754.005405 246.356203 754.904753 247.25555 
C 755.8041 248.154897 757.024048 248.660217 758.295918 248.660217 
z
" clip-path="url(#pde5c1453c8)" style="fill: #2f7d4f; fill-opacity: 0.82; stroke: #ffffff; stroke-opacity: 0.82"/>
    <path d="M 758.295918 241.437115 
C 759.567787 241.437115 760.787735 240.931796 761.687083 240.032448 
C 762.58643 239.133101 763.091749 237.913153 763.091749 236.641283 
C 763.091749 235.369414 762.58643 234.149466 761.687083 233.250118 
C 760.787735 232.350771 759.567787 231.845452 758.295918 231.845452 
C 757.024048 231.845452 755.8041 232.350771 754.904753 233.250118 
C 754.005405 234.149466 753.500086 235.369414 753.500086 236.641283 
C 753.500086 237.913153 754.005405 239.133101 754.904753 240.032448 
C 755.8041 240.931796 757.024048 241.437115 758.295918 241.437115 
z
" clip-path="url(#pde5c1453c8)" style="fill: #2f7d4f; fill-opacity: 0.82; stroke: #ffffff; stroke-opacity: 0.82"/>
    <path d="M 761.796604 297.95886 
C 763.212401 297.95886 764.570402 297.396358 765.571521 296.395238 
C 766.572641 295.394118 767.135143 294.036118 767.135143 292.620321 
C 767.135143 291.204524 766.572641 289.846523 765.571521 288.845404 
C 764.570402 287.844284 763.212401 287.281782 761.796604 287.281782 
C 760.380807 287.281782 759.022807 287.844284 758.021687 288.845404 
C 757.020567 289.846523 756.458065 291.204524 756.458065 292.620321 
C 756.458065 294.036118 757.020567 295.394118 758.021687 296.395238 
C 759.022807 297.396358 760.380807 297.95886 761.796604 297.95886 
z
" clip-path="url(#pde5c1453c8)" style="fill: #2f7d4f; fill-opacity: 0.82; stroke: #ffffff; stroke-opacity: 0.82"/>
    <path d="M 761.796604 283.512657 
C 763.212401 283.512657 764.570402 282.950155 765.571521 281.949035 
C 766.572641 280.947915 767.135143 279.589915 767.135143 278.174118 
C 767.135143 276.758321 766.572641 275.40032 765.571521 274.3992 
C 764.570402 273.398081 763.212401 272.835579 761.796604 272.835579 
C 760.380807 272.835579 759.022807 273.398081 758.021687 274.3992 
C 757.020567 275.40032 756.458065 276.758321 756.458065 278.174118 
C 756.458065 279.589915 757.020567 280.947915 758.021687 281.949035 
C 759.022807 282.950155 760.380807 283.512657 761.796604 283.512657 
z
" clip-path="url(#pde5c1453c8)" style="fill: #2f7d4f; fill-opacity: 0.82; stroke: #ffffff; stroke-opacity: 0.82"/>
    <path d="M 761.796604 276.289555 
C 763.212401 276.289555 764.570402 275.727053 765.571521 274.725933 
C 766.572641 273.724814 767.135143 272.366813 767.135143 270.951016 
C 767.135143 269.535219 766.572641 268.177219 765.571521 267.176099 
C 764.570402 266.174979 763.212401 265.612477 761.796604 265.612477 
C 760.380807 265.612477 759.022807 266.174979 758.021687 267.176099 
C 757.020567 268.177219 756.458065 269.535219 756.458065 270.951016 
C 756.458065 272.366813 757.020567 273.724814 758.021687 274.725933 
C 759.022807 275.727053 760.380807 276.289555 761.796604 276.289555 
z
" clip-path="url(#pde5c1453c8)" style="fill: #2f7d4f; fill-opacity: 0.82; stroke: #ffffff; stroke-opacity: 0.82"/>
   </g>
   <g id="PathCollection_2">
    <path d="M 702.245734 296.862962 
L 704.367054 294.741641 
L 706.488374 296.862962 
L 708.609695 294.741641 
L 706.488374 292.620321 
L 708.609695 290.499001 
L 706.488374 288.37768 
L 704.367054 290.499001 
L 702.245734 288.37768 
L 700.124413 290.499001 
L 702.245734 292.620321 
L 700.124413 294.741641 
z
" clip-path="url(#pde5c1453c8)" style="fill: #b73b3b; fill-opacity: 0.82; stroke: #ffffff; stroke-opacity: 0.82"/>
    <path d="M 702.245734 238.644763 
L 704.367054 236.523442 
L 706.488374 238.644763 
L 708.609695 236.523442 
L 706.488374 234.402122 
L 708.609695 232.280802 
L 706.488374 230.159481 
L 704.367054 232.280802 
L 702.245734 230.159481 
L 700.124413 232.280802 
L 702.245734 234.402122 
L 700.124413 236.523442 
z
" clip-path="url(#pde5c1453c8)" style="fill: #b73b3b; fill-opacity: 0.82; stroke: #ffffff; stroke-opacity: 0.82"/>
    <path d="M 702.245734 242.6897 
L 704.367054 240.568379 
L 706.488374 242.6897 
L 708.609695 240.568379 
L 706.488374 238.447059 
L 708.609695 236.325738 
L 706.488374 234.204418 
L 704.367054 236.325738 
L 702.245734 234.204418 
L 700.124413 236.325738 
L 702.245734 238.447059 
L 700.124413 240.568379 
z
" clip-path="url(#pde5c1453c8)" style="fill: #b73b3b; fill-opacity: 0.82; stroke: #ffffff; stroke-opacity: 0.82"/>
    <path d="M 702.245734 240.522769 
L 704.367054 238.401449 
L 706.488374 240.522769 
L 708.609695 238.401449 
L 706.488374 236.280128 
L 708.609695 234.158808 
L 706.488374 232.037488 
L 704.367054 234.158808 
L 702.245734 232.037488 
L 700.124413 234.158808 
L 702.245734 236.280128 
L 700.124413 238.401449 
z
" clip-path="url(#pde5c1453c8)" style="fill: #b73b3b; fill-opacity: 0.82; stroke: #ffffff; stroke-opacity: 0.82"/>
    <path d="M 702.245734 239.078149 
L 704.367054 236.956828 
L 706.488374 239.078149 
L 708.609695 236.956828 
L 706.488374 234.835508 
L 708.609695 232.714188 
L 706.488374 230.592867 
L 704.367054 232.714188 
L 702.245734 230.592867 
L 700.124413 232.714188 
L 702.245734 234.835508 
L 700.124413 236.956828 
z
" clip-path="url(#pde5c1453c8)" style="fill: #b73b3b; fill-opacity: 0.82; stroke: #ffffff; stroke-opacity: 0.82"/>
    <path d="M 699.02925 237.065122 
L 700.866367 235.228005 
L 702.703485 237.065122 
L 704.540602 235.228005 
L 702.703485 233.390888 
L 704.540602 231.55377 
L 702.703485 229.716653 
L 700.866367 231.55377 
L 699.02925 229.716653 
L 697.192133 231.55377 
L 699.02925 233.390888 
L 697.192133 235.228005 
z
" clip-path="url(#pde5c1453c8)" style="fill: #b73b3b; fill-opacity: 0.82; stroke: #ffffff; stroke-opacity: 0.82"/>
    <path d="M 699.02925 166.278727 
L 700.866367 164.441609 
L 702.703485 166.278727 
L 704.540602 164.441609 
L 702.703485 162.604492 
L 704.540602 160.767375 
L 702.703485 158.930257 
L 700.866367 160.767375 
L 699.02925 158.930257 
L 697.192133 160.767375 
L 699.02925 162.604492 
L 697.192133 164.441609 
z
" clip-path="url(#pde5c1453c8)" style="fill: #b73b3b; fill-opacity: 0.82; stroke: #ffffff; stroke-opacity: 0.82"/>
    <path d="M 699.02925 159.055625 
L 700.866367 157.218508 
L 702.703485 159.055625 
L 704.540602 157.218508 
L 702.703485 155.38139 
L 704.540602 153.544273 
L 702.703485 151.707156 
L 700.866367 153.544273 
L 699.02925 151.707156 
L 697.192133 153.544273 
L 699.02925 155.38139 
L 697.192133 157.218508 
z
" clip-path="url(#pde5c1453c8)" style="fill: #b73b3b; fill-opacity: 0.82; stroke: #ffffff; stroke-opacity: 0.82"/>
    <path d="M 699.02925 155.444074 
L 700.866367 153.606957 
L 702.703485 155.444074 
L 704.540602 153.606957 
L 702.703485 151.76984 
L 704.540602 149.932722 
L 702.703485 148.095605 
L 700.866367 149.932722 
L 699.02925 148.095605 
L 697.192133 149.932722 
L 699.02925 151.76984 
L 697.192133 153.606957 
z
" clip-path="url(#pde5c1453c8)" style="fill: #b73b3b; fill-opacity: 0.82; stroke: #ffffff; stroke-opacity: 0.82"/>
    <path d="M 699.02925 153.638299 
L 700.866367 151.801181 
L 702.703485 153.638299 
L 704.540602 151.801181 
L 702.703485 149.964064 
L 704.540602 148.126947 
L 702.703485 146.28983 
L 700.866367 148.126947 
L 699.02925 146.28983 
L 697.192133 148.126947 
L 699.02925 149.964064 
L 697.192133 151.801181 
z
" clip-path="url(#pde5c1453c8)" style="fill: #b73b3b; fill-opacity: 0.82; stroke: #ffffff; stroke-opacity: 0.82"/>
    <path d="M 510.864186 325.186962 
L 512.701304 323.349845 
L 514.538421 325.186962 
L 516.375538 323.349845 
L 514.538421 321.512727 
L 516.375538 319.67561 
L 514.538421 317.838493 
L 512.701304 319.67561 
L 510.864186 317.838493 
L 509.027069 319.67561 
L 510.864186 321.512727 
L 509.027069 323.349845 
z
" clip-path="url(#pde5c1453c8)" style="fill: #b73b3b; fill-opacity: 0.82; stroke: #ffffff; stroke-opacity: 0.82"/>
    <path d="M 899.868085 239.078149 
L 901.989406 236.956828 
L 904.110726 239.078149 
L 906.232046 236.956828 
L 904.110726 234.835508 
L 906.232046 232.714188 
L 904.110726 230.592867 
L 901.989406 232.714188 
L 899.868085 230.592867 
L 897.746765 232.714188 
L 899.868085 234.835508 
L 897.746765 236.956828 
z
" clip-path="url(#pde5c1453c8)" style="fill: #b73b3b; fill-opacity: 0.82; stroke: #ffffff; stroke-opacity: 0.82"/>
    <path d="M 899.868085 210.185742 
L 901.989406 208.064422 
L 904.110726 210.185742 
L 906.232046 208.064422 
L 904.110726 205.943102 
L 906.232046 203.821781 
L 904.110726 201.700461 
L 901.989406 203.821781 
L 899.868085 201.700461 
L 897.746765 203.821781 
L 899.868085 205.943102 
L 897.746765 208.064422 
z
" clip-path="url(#pde5c1453c8)" style="fill: #b73b3b; fill-opacity: 0.82; stroke: #ffffff; stroke-opacity: 0.82"/>
    <path d="M 899.868085 181.293336 
L 901.989406 179.172016 
L 904.110726 181.293336 
L 906.232046 179.172016 
L 904.110726 177.050695 
L 906.232046 174.929375 
L 904.110726 172.808055 
L 901.989406 174.929375 
L 899.868085 172.808055 
L 897.746765 174.929375 
L 899.868085 177.050695 
L 897.746765 179.172016 
z
" clip-path="url(#pde5c1453c8)" style="fill: #b73b3b; fill-opacity: 0.82; stroke: #ffffff; stroke-opacity: 0.82"/>
    <path d="M 899.868085 152.400929 
L 901.989406 150.279609 
L 904.110726 152.400929 
L 906.232046 150.279609 
L 904.110726 148.158289 
L 906.232046 146.036968 
L 904.110726 143.915648 
L 901.989406 146.036968 
L 899.868085 143.915648 
L 897.746765 146.036968 
L 899.868085 148.158289 
L 897.746765 150.279609 
z
" clip-path="url(#pde5c1453c8)" style="fill: #b73b3b; fill-opacity: 0.82; stroke: #ffffff; stroke-opacity: 0.82"/>
    <path d="M 896.651602 151.832523 
L 898.488719 149.995406 
L 900.325836 151.832523 
L 902.162954 149.995406 
L 900.325836 148.158289 
L 902.162954 146.321171 
L 900.325836 144.484054 
L 898.488719 146.321171 
L 896.651602 144.484054 
L 894.814484 146.321171 
L 896.651602 148.158289 
L 894.814484 149.995406 
z
" clip-path="url(#pde5c1453c8)" style="fill: #b73b3b; fill-opacity: 0.82; stroke: #ffffff; stroke-opacity: 0.82"/>
    <path d="M 899.868085 109.06232 
L 901.989406 106.940999 
L 904.110726 109.06232 
L 906.232046 106.940999 
L 904.110726 104.819679 
L 906.232046 102.698359 
L 904.110726 100.577038 
L 901.989406 102.698359 
L 899.868085 100.577038 
L 897.746765 102.698359 
L 899.868085 104.819679 
L 897.746765 106.940999 
z
" clip-path="url(#pde5c1453c8)" style="fill: #b73b3b; fill-opacity: 0.82; stroke: #ffffff; stroke-opacity: 0.82"/>
    <path d="M 896.651602 94.047711 
L 898.488719 92.210593 
L 900.325836 94.047711 
L 902.162954 92.210593 
L 900.325836 90.373476 
L 902.162954 88.536359 
L 900.325836 86.699241 
L 898.488719 88.536359 
L 896.651602 86.699241 
L 894.814484 88.536359 
L 896.651602 90.373476 
L 894.814484 92.210593 
z
" clip-path="url(#pde5c1453c8)" style="fill: #b73b3b; fill-opacity: 0.82; stroke: #ffffff; stroke-opacity: 0.82"/>
    <path d="M 903.36146 225.185136 
L 905.759376 222.787221 
L 908.157291 225.185136 
L 910.555207 222.787221 
L 908.157291 220.389305 
L 910.555207 217.991389 
L 908.157291 215.593473 
L 905.759376 217.991389 
L 903.36146 215.593473 
L 900.963544 217.991389 
L 903.36146 220.389305 
L 900.963544 222.787221 
z
" clip-path="url(#pde5c1453c8)" style="fill: #b73b3b; fill-opacity: 0.82; stroke: #ffffff; stroke-opacity: 0.82"/>
    <path d="M 903.36146 196.29273 
L 905.759376 193.894814 
L 908.157291 196.29273 
L 910.555207 193.894814 
L 908.157291 191.496898 
L 910.555207 189.098983 
L 908.157291 186.701067 
L 905.759376 189.098983 
L 903.36146 186.701067 
L 900.963544 189.098983 
L 903.36146 191.496898 
L 900.963544 193.894814 
z
" clip-path="url(#pde5c1453c8)" style="fill: #b73b3b; fill-opacity: 0.82; stroke: #ffffff; stroke-opacity: 0.82"/>
    <path d="M 906.590793 254.62025 
L 909.260062 251.950981 
L 911.929332 254.62025 
L 914.598601 251.950981 
L 911.929332 249.281711 
L 914.598601 246.612442 
L 911.929332 243.943172 
L 909.260062 246.612442 
L 906.590793 243.943172 
L 903.921523 246.612442 
L 906.590793 249.281711 
L 903.921523 251.950981 
z
" clip-path="url(#pde5c1453c8)" style="fill: #b73b3b; fill-opacity: 0.82; stroke: #ffffff; stroke-opacity: 0.82"/>
    <path d="M 903.36146 189.069628 
L 905.759376 186.671713 
L 908.157291 189.069628 
L 910.555207 186.671713 
L 908.157291 184.273797 
L 910.555207 181.875881 
L 908.157291 179.477965 
L 905.759376 181.875881 
L 903.36146 179.477965 
L 900.963544 181.875881 
L 903.36146 184.273797 
L 900.963544 186.671713 
z
" clip-path="url(#pde5c1453c8)" style="fill: #b73b3b; fill-opacity: 0.82; stroke: #ffffff; stroke-opacity: 0.82"/>
    <path d="M 906.590793 240.174047 
L 909.260062 237.504778 
L 911.929332 240.174047 
L 914.598601 237.504778 
L 911.929332 234.835508 
L 914.598601 232.166238 
L 911.929332 229.496969 
L 909.260062 232.166238 
L 906.590793 229.496969 
L 903.921523 232.166238 
L 906.590793 234.835508 
L 903.921523 237.504778 
z
" clip-path="url(#pde5c1453c8)" style="fill: #b73b3b; fill-opacity: 0.82; stroke: #ffffff; stroke-opacity: 0.82"/>
    <path d="M 896.651602 79.601507 
L 898.488719 77.76439 
L 900.325836 79.601507 
L 902.162954 77.76439 
L 900.325836 75.927273 
L 902.162954 74.090155 
L 900.325836 72.253038 
L 898.488719 74.090155 
L 896.651602 72.253038 
L 894.814484 74.090155 
L 896.651602 75.927273 
L 894.814484 77.76439 
z
" clip-path="url(#pde5c1453c8)" style="fill: #b73b3b; fill-opacity: 0.82; stroke: #ffffff; stroke-opacity: 0.82"/>
    <path d="M 899.868085 107.256544 
L 901.989406 105.135224 
L 904.110726 107.256544 
L 906.232046 105.135224 
L 904.110726 103.013904 
L 906.232046 100.892583 
L 904.110726 98.771263 
L 901.989406 100.892583 
L 899.868085 98.771263 
L 897.746765 100.892583 
L 899.868085 103.013904 
L 897.746765 105.135224 
z
" clip-path="url(#pde5c1453c8)" style="fill: #b73b3b; fill-opacity: 0.82; stroke: #ffffff; stroke-opacity: 0.82"/>
    <path d="M 899.868085 106.173079 
L 901.989406 104.051759 
L 904.110726 106.173079 
L 906.232046 104.051759 
L 904.110726 101.930439 
L 906.232046 99.809118 
L 904.110726 97.687798 
L 901.989406 99.809118 
L 899.868085 97.687798 
L 897.746765 99.809118 
L 899.868085 101.930439 
L 897.746765 104.051759 
z
" clip-path="url(#pde5c1453c8)" style="fill: #b73b3b; fill-opacity: 0.82; stroke: #ffffff; stroke-opacity: 0.82"/>
    <path d="M 903.36146 187.263853 
L 905.759376 184.865937 
L 908.157291 187.263853 
L 910.555207 184.865937 
L 908.157291 182.468021 
L 910.555207 180.070106 
L 908.157291 177.67219 
L 905.759376 180.070106 
L 903.36146 177.67219 
L 900.963544 180.070106 
L 903.36146 182.468021 
L 900.963544 184.865937 
z
" clip-path="url(#pde5c1453c8)" style="fill: #b73b3b; fill-opacity: 0.82; stroke: #ffffff; stroke-opacity: 0.82"/>
    <path d="M 752.404627 224.631945 
L 754.525948 222.510625 
L 756.647268 224.631945 
L 758.768588 222.510625 
L 756.647268 220.389305 
L 758.768588 218.267984 
L 756.647268 216.146664 
L 754.525948 218.267984 
L 752.404627 216.146664 
L 750.283307 218.267984 
L 752.404627 220.389305 
L 750.283307 222.510625 
z
" clip-path="url(#pde5c1453c8)" style="fill: #b73b3b; fill-opacity: 0.82; stroke: #ffffff; stroke-opacity: 0.82"/>
    <path d="M 752.404627 195.739539 
L 754.525948 193.618219 
L 756.647268 195.739539 
L 758.768588 193.618219 
L 756.647268 191.496898 
L 758.768588 189.375578 
L 756.647268 187.254258 
L 754.525948 189.375578 
L 752.404627 187.254258 
L 750.283307 189.375578 
L 752.404627 191.496898 
L 750.283307 193.618219 
z
" clip-path="url(#pde5c1453c8)" style="fill: #b73b3b; fill-opacity: 0.82; stroke: #ffffff; stroke-opacity: 0.82"/>
    <path d="M 749.188144 195.171133 
L 751.025261 193.334016 
L 752.862378 195.171133 
L 754.699496 193.334016 
L 752.862378 191.496898 
L 754.699496 189.659781 
L 752.862378 187.822664 
L 751.025261 189.659781 
L 749.188144 187.822664 
L 747.351027 189.659781 
L 749.188144 191.496898 
L 747.351027 193.334016 
z
" clip-path="url(#pde5c1453c8)" style="fill: #b73b3b; fill-opacity: 0.82; stroke: #ffffff; stroke-opacity: 0.82"/>
    <path d="M 749.188144 94.047711 
L 751.025261 92.210593 
L 752.862378 94.047711 
L 754.699496 92.210593 
L 752.862378 90.373476 
L 754.699496 88.536359 
L 752.862378 86.699241 
L 751.025261 88.536359 
L 749.188144 86.699241 
L 747.351027 88.536359 
L 749.188144 90.373476 
L 747.351027 92.210593 
z
" clip-path="url(#pde5c1453c8)" style="fill: #b73b3b; fill-opacity: 0.82; stroke: #ffffff; stroke-opacity: 0.82"/>
    <path d="M 752.404627 192.850298 
L 754.525948 190.728978 
L 756.647268 192.850298 
L 758.768588 190.728978 
L 756.647268 188.607658 
L 758.768588 186.486337 
L 756.647268 184.365017 
L 754.525948 186.486337 
L 752.404627 184.365017 
L 750.283307 186.486337 
L 752.404627 188.607658 
L 750.283307 190.728978 
z
" clip-path="url(#pde5c1453c8)" style="fill: #b73b3b; fill-opacity: 0.82; stroke: #ffffff; stroke-opacity: 0.82"/>
    <path d="M 752.404627 191.405678 
L 754.525948 189.284358 
L 756.647268 191.405678 
L 758.768588 189.284358 
L 756.647268 187.163037 
L 758.768588 185.041717 
L 756.647268 182.920397 
L 754.525948 185.041717 
L 752.404627 182.920397 
L 750.283307 185.041717 
L 752.404627 187.163037 
L 750.283307 189.284358 
z
" clip-path="url(#pde5c1453c8)" style="fill: #b73b3b; fill-opacity: 0.82; stroke: #ffffff; stroke-opacity: 0.82"/>
    <path d="M 755.898002 282.969949 
L 758.295918 280.572033 
L 760.693833 282.969949 
L 763.091749 280.572033 
L 760.693833 278.174118 
L 763.091749 275.776202 
L 760.693833 273.378286 
L 758.295918 275.776202 
L 755.898002 273.378286 
L 753.500086 275.776202 
L 755.898002 278.174118 
L 753.500086 280.572033 
z
" clip-path="url(#pde5c1453c8)" style="fill: #b73b3b; fill-opacity: 0.82; stroke: #ffffff; stroke-opacity: 0.82"/>
    <path d="M 759.127335 326.851266 
L 761.796604 324.181997 
L 764.465874 326.851266 
L 767.135143 324.181997 
L 764.465874 321.512727 
L 767.135143 318.843458 
L 764.465874 316.174188 
L 761.796604 318.843458 
L 759.127335 316.174188 
L 756.458065 318.843458 
L 759.127335 321.512727 
L 756.458065 324.181997 
z
" clip-path="url(#pde5c1453c8)" style="fill: #b73b3b; fill-opacity: 0.82; stroke: #ffffff; stroke-opacity: 0.82"/>
    <path d="M 755.898002 268.523746 
L 758.295918 266.12583 
L 760.693833 268.523746 
L 763.091749 266.12583 
L 760.693833 263.727914 
L 763.091749 261.329999 
L 760.693833 258.932083 
L 758.295918 261.329999 
L 755.898002 258.932083 
L 753.500086 261.329999 
L 755.898002 263.727914 
L 753.500086 266.12583 
z
" clip-path="url(#pde5c1453c8)" style="fill: #b73b3b; fill-opacity: 0.82; stroke: #ffffff; stroke-opacity: 0.82"/>
    <path d="M 755.898002 259.494869 
L 758.295918 257.096953 
L 760.693833 259.494869 
L 763.091749 257.096953 
L 760.693833 254.699037 
L 763.091749 252.301122 
L 760.693833 249.903206 
L 758.295918 252.301122 
L 755.898002 249.903206 
L 753.500086 252.301122 
L 755.898002 254.699037 
L 753.500086 257.096953 
z
" clip-path="url(#pde5c1453c8)" style="fill: #b73b3b; fill-opacity: 0.82; stroke: #ffffff; stroke-opacity: 0.82"/>
    <path d="M 759.127335 305.181962 
L 761.796604 302.512692 
L 764.465874 305.181962 
L 767.135143 302.512692 
L 764.465874 299.843422 
L 767.135143 297.174153 
L 764.465874 294.504883 
L 761.796604 297.174153 
L 759.127335 294.504883 
L 756.458065 297.174153 
L 759.127335 299.843422 
L 756.458065 302.512692 
z
" clip-path="url(#pde5c1453c8)" style="fill: #b73b3b; fill-opacity: 0.82; stroke: #ffffff; stroke-opacity: 0.82"/>
   </g>
   <g id="PathCollection_3"/>
   <g id="PathCollection_4"/>
   <g id="PathCollection_5"/>
   <g id="PathCollection_6"/>
   <g id="patch_6">
    <path d="M 492.873366 333.792 
L 492.873366 63.648 
" style="fill: none; stroke: #cfd7e3; stroke-width: 0.8; stroke-linejoin: miter; stroke-linecap: square"/>
   </g>
   <g id="patch_7">
    <path d="M 492.873366 333.792 
L 929.088 333.792 
" style="fill: none; stroke: #cfd7e3; stroke-width: 0.8; stroke-linejoin: miter; stroke-linecap: square"/>
   </g>
   <g id="text_42">
    <text style="font: 700 13px 'DejaVu Sans'; text-anchor: middle" x="710.980683" y="57.648" transform="rotate(-0 710.980683 57.648)">Resultados observados en el espacio local M-mu</text>
   </g>
   <g id="legend_1">
    <g id="text_43">
     <text style="font: 10px 'DejaVu Sans'; text-anchor: start" x="519.564069" y="79.346437" transform="rotate(-0 519.564069 79.346437)">Clase</text>
    </g>
    <g id="line2d_60">
     <path d="M 500.973366 89.614719 
L 509.973366 89.614719 
L 518.973366 89.614719 
" style="fill: none; stroke: #000000; stroke-opacity: 0; stroke-width: 1.5; stroke-linecap: square"/>
     <defs>
      <path id="mdab7ac6db8" d="M 0 4 
C 1.060812 4 2.078319 3.578535 2.828427 2.828427 
C 3.578535 2.078319 4 1.060812 4 0 
C 4 -1.060812 3.578535 -2.078319 2.828427 -2.828427 
C 2.078319 -3.578535 1.060812 -4 0 -4 
C -1.060812 -4 -2.078319 -3.578535 -2.828427 -2.828427 
C -3.578535 -2.078319 -4 -1.060812 -4 0 
C -4 1.060812 -3.578535 2.078319 -2.828427 2.828427 
C -2.078319 3.578535 -1.060812 4 0 4 
z
" style="stroke: #ffffff"/>
     </defs>
     <g>
      <use xlink:href="#mdab7ac6db8" x="509.973366" y="89.614719" style="fill: #2f7d4f; stroke: #ffffff"/>
     </g>
    </g>
    <g id="text_44">
     <text style="font: 9px 'DejaVu Sans'; text-anchor: start" x="526.173366" y="92.764719" transform="rotate(-0 526.173366 92.764719)">ESTABLE</text>
    </g>
    <g id="line2d_61">
     <path d="M 500.973366 102.825031 
L 509.973366 102.825031 
L 518.973366 102.825031 
" style="fill: none; stroke: #000000; stroke-opacity: 0; stroke-width: 1.5; stroke-linecap: square"/>
     <defs>
      <path id="m613bb75a1e" d="M -2 4 
L 0 2 
L 2 4 
L 4 2 
L 2 0 
L 4 -2 
L 2 -4 
L 0 -2 
L -2 -4 
L -4 -2 
L -2 0 
L -4 2 
z
" style="stroke: #ffffff; stroke-linejoin: miter"/>
     </defs>
     <g>
      <use xlink:href="#m613bb75a1e" x="509.973366" y="102.825031" style="fill: #b73b3b; stroke: #ffffff; stroke-linejoin: miter"/>
     </g>
    </g>
    <g id="text_45">
     <text style="font: 9px 'DejaVu Sans'; text-anchor: start" x="526.173366" y="105.975031" transform="rotate(-0 526.173366 105.975031)">FALLO</text>
    </g>
   </g>
   <g id="legend_2">
    <g id="text_46">
     <text style="font: 10px 'DejaVu Sans'; text-anchor: start" x="821.459406" y="297.191687" transform="rotate(-0 821.459406 297.191687)">Masa relativa</text>
    </g>
    <g id="PathCollection_7">
     <defs>
      <path id="mb69a467d7f" d="M 0 3.674235 
C 0.974418 3.674235 1.909058 3.287094 2.598076 2.598076 
C 3.287094 1.909058 3.674235 0.974418 3.674235 0 
C 3.674235 -0.974418 3.287094 -1.909058 2.598076 -2.598076 
C 1.909058 -3.287094 0.974418 -3.674235 0 -3.674235 
C -0.974418 -3.674235 -1.909058 -3.287094 -2.598076 -2.598076 
C -3.287094 -1.909058 -3.674235 -0.974418 -3.674235 0 
C -3.674235 0.974418 -3.287094 1.909058 -2.598076 2.598076 
C -1.909058 3.287094 -0.974418 3.674235 0 3.674235 
z
" style="stroke: #ffffff"/>
     </defs>
     <g>
      <use xlink:href="#mb69a467d7f" x="797.893312" y="308.247469" style="fill: #b8c2cf; stroke: #ffffff"/>
     </g>
    </g>
    <g id="text_47">
     <text style="font: 9px 'DejaVu Sans'; text-anchor: start" x="810.493312" y="310.609969" transform="rotate(-0 810.493312 310.609969)">m*=0.85</text>
    </g>
    <g id="PathCollection_8">
     <defs>
      <path id="mfa2ed71c5b" d="M 0 4.242641 
C 1.125161 4.242641 2.204391 3.795609 3 3 
C 3.795609 2.204391 4.242641 1.125161 4.242641 0 
C 4.242641 -1.125161 3.795609 -2.204391 3 -3 
C 2.204391 -3.795609 1.125161 -4.242641 0 -4.242641 
C -1.125161 -4.242641 -2.204391 -3.795609 -3 -3 
C -3.795609 -2.204391 -4.242641 -1.125161 -4.242641 0 
C -4.242641 1.125161 -3.795609 2.204391 -3 3 
C -2.204391 3.795609 -1.125161 4.242641 0 4.242641 
z
" style="stroke: #ffffff"/>
     </defs>
     <g>
      <use xlink:href="#mfa2ed71c5b" x="797.893312" y="321.457781" style="fill: #b8c2cf; stroke: #ffffff"/>
     </g>
    </g>
    <g id="text_48">
     <text style="font: 9px 'DejaVu Sans'; text-anchor: start" x="810.493312" y="323.820281" transform="rotate(-0 810.493312 323.820281)">m*=1.00</text>
    </g>
    <g id="PathCollection_9">
     <defs>
      <path id="mb291077274" d="M 0 4.795832 
C 1.271869 4.795832 2.491818 4.290512 3.391165 3.391165 
C 4.290512 2.491818 4.795832 1.271869 4.795832 0 
C 4.795832 -1.271869 4.290512 -2.491818 3.391165 -3.391165 
C 2.491818 -4.290512 1.271869 -4.795832 0 -4.795832 
C -1.271869 -4.795832 -2.491818 -4.290512 -3.391165 -3.391165 
C -4.290512 -2.491818 -4.795832 -1.271869 -4.795832 0 
C -4.795832 1.271869 -4.290512 2.491818 -3.391165 3.391165 
C -2.491818 4.290512 -1.271869 4.795832 0 4.795832 
z
" style="stroke: #ffffff"/>
     </defs>
     <g>
      <use xlink:href="#mb291077274" x="867.540656" y="308.247469" style="fill: #b8c2cf; stroke: #ffffff"/>
     </g>
    </g>
    <g id="text_49">
     <text style="font: 9px 'DejaVu Sans'; text-anchor: start" x="880.140656" y="310.609969" transform="rotate(-0 880.140656 310.609969)">m*=1.15</text>
    </g>
    <g id="PathCollection_10">
     <defs>
      <path id="mc241aee614" d="M 0 5.338539 
C 1.415797 5.338539 2.773797 4.776037 3.774917 3.774917 
C 4.776037 2.773797 5.338539 1.415797 5.338539 0 
C 5.338539 -1.415797 4.776037 -2.773797 3.774917 -3.774917 
C 2.773797 -4.776037 1.415797 -5.338539 0 -5.338539 
C -1.415797 -5.338539 -2.773797 -4.776037 -3.774917 -3.774917 
C -4.776037 -2.773797 -5.338539 -1.415797 -5.338539 0 
C -5.338539 1.415797 -4.776037 2.773797 -3.774917 3.774917 
C -2.773797 4.776037 -1.415797 5.338539 0 5.338539 
z
" style="stroke: #ffffff"/>
     </defs>
     <g>
      <use xlink:href="#mc241aee614" x="867.540656" y="321.457781" style="fill: #b8c2cf; stroke: #ffffff"/>
     </g>
    </g>
    <g id="text_50">
     <text style="font: 9px 'DejaVu Sans'; text-anchor: start" x="880.140656" y="323.820281" transform="rotate(-0 880.140656 323.820281)">m*=1.25</text>
    </g>
   </g>
  </g>
  <g id="text_51">
   <text style="font: 700 16px 'DejaVu Sans'; text-anchor: middle" x="472.896" y="19.3575" transform="rotate(-0 472.896 19.3575)">La lectura transferible pasa de H_dam a solicitacion local M</text>
  </g>
  <g id="text_52">
   <text style="fill: #5a6673; font: 9px 'DejaVu Sans'; text-anchor: start" x="7.2" y="398.304" transform="rotate(-0 7.2 398.304)">Lectura: H_dam genera el flujo numerico; M resume el flujo local antes del bloque. Color = clase observada, tamano = masa relativa.</text>
  </g>
 </g>
 <defs>
  <clipPath id="p91966aef58">
   <rect x="73.728" y="63.648" width="341.385366" height="270.144"/>
  </clipPath>
  <clipPath id="pde5c1453c8">
   <rect x="492.873366" y="63.648" width="436.214634" height="270.144"/>
  </clipPath>
 </defs>
</svg>
