<?xml version="1.0" encoding="utf-8" standalone="no"?>
<!DOCTYPE svg PUBLIC "-//W3C//DTD SVG 1.1//EN"
  "http://www.w3.org/Graphics/SVG/1.1/DTD/svg11.dtd">
<svg xmlns:xlink="http://www.w3.org/1999/xlink" width="724.32pt" height="395.981687pt" viewBox="0 0 724.32 395.981687" xmlns="http://www.w3.org/2000/svg" version="1.1">
<defs>
  <style type="text/css">*{stroke-linejoin: round; stroke-linecap: butt}</style>
 </defs>
 <g id="figure_1">
  <g id="patch_1">
   <path d="M 0 395.981687 
L 724.32 395.981687 
L 724.32 0 
L 0 0 
z
" style="fill: #ffffff"/>
  </g>
  <g id="axes_1">
   <g id="patch_2">
    <path d="M 23.904 332.621969 
L 717.12 332.621969 
L 717.12 23.597969 
L 23.904 23.597969 
z
" style="fill: #ffffff"/>
   </g>
   <g id="patch_3">
    <path d="M 23.904 55.716093 
L 565.479 55.716093 
L 565.479 37.644514 
L 23.904 37.644514 
z
" clip-path="url(#pbcf1f0c4a7)" style="fill: #2f7d4f"/>
   </g>
   <g id="patch_4">
    <path d="M 23.904 88.573509 
L 565.479 88.573509 
L 565.479 70.50193 
L 23.904 70.50193 
z
" clip-path="url(#pbcf1f0c4a7)" style="fill: #2f7d4f"/>
   </g>
   <g id="patch_5">
    <path d="M 23.904 121.430926 
L 565.479 121.430926 
L 565.479 103.359347 
L 23.904 103.359347 
z
" clip-path="url(#pbcf1f0c4a7)" style="fill: #2f7d4f"/>
   </g>
   <g id="patch_6">
    <path d="M 23.904 154.288342 
L 565.479 154.288342 
L 565.479 136.216763 
L 23.904 136.216763 
z
" clip-path="url(#pbcf1f0c4a7)" style="fill: #2f7d4f"/>
   </g>
   <g id="patch_7">
    <path d="M 23.904 187.145758 
L 565.479 187.145758 
L 565.479 169.074179 
L 23.904 169.074179 
z
" clip-path="url(#pbcf1f0c4a7)" style="fill: #2f7d4f"/>
   </g>
   <g id="patch_8">
    <path d="M 23.904 220.003174 
L 565.479 220.003174 
L 565.479 201.931596 
L 23.904 201.931596 
z
" clip-path="url(#pbcf1f0c4a7)" style="fill: #2f7d4f"/>
   </g>
   <g id="patch_9">
    <path d="M 23.904 252.860591 
L 565.479 252.860591 
L 565.479 234.789012 
L 23.904 234.789012 
z
" clip-path="url(#pbcf1f0c4a7)" style="fill: #2f7d4f"/>
   </g>
   <g id="patch_10">
    <path d="M 23.904 285.718007 
L 45.567 285.718007 
L 45.567 267.646428 
L 23.904 267.646428 
z
" clip-path="url(#pbcf1f0c4a7)" style="fill: #6d7480"/>
   </g>
   <g id="patch_11">
    <path d="M 23.904 318.575423 
L 45.567 318.575423 
L 45.567 300.503844 
L 23.904 300.503844 
z
" clip-path="url(#pbcf1f0c4a7)" style="fill: #6d7480"/>
   </g>
   <g id="matplotlib.axis_1">
    <g id="xtick_1">
     <g id="line2d_1">
      <path d="M 23.904 332.621969 
L 23.904 23.597969 
" clip-path="url(#pbcf1f0c4a7)" style="fill: none; stroke: #e7ebf0; stroke-width: 0.8; stroke-linecap: square"/>
     </g>
     <g id="line2d_2">
      <defs>
       <path id="mb6f20e50b2" d="M 0 0 
L 0 3.5 
" style="stroke: #000000; stroke-width: 0.8"/>
      </defs>
      <g>
       <use xlink:href="#mb6f20e50b2" x="23.904" y="332.621969" style="stroke: #000000; stroke-width: 0.8"/>
      </g>
     </g>
     <g id="text_1">
      <text style="font: 9px 'DejaVu Sans'; text-anchor: middle" x="23.904" y="346.460562" transform="rotate(-0 23.904 346.460562)">0.0</text>
     </g>
    </g>
    <g id="xtick_2">
     <g id="line2d_3">
      <path d="M 132.219 332.621969 
L 132.219 23.597969 
" clip-path="url(#pbcf1f0c4a7)" style="fill: none; stroke: #e7ebf0; stroke-width: 0.8; stroke-linecap: square"/>
     </g>
     <g id="line2d_4">
      <g>
       <use xlink:href="#mb6f20e50b2" x="132.219" y="332.621969" style="stroke: #000000; stroke-width: 0.8"/>
      </g>
     </g>
     <g id="text_2">
      <text style="font: 9px 'DejaVu Sans'; text-anchor: middle" x="132.219" y="346.460562" transform="rotate(-0 132.219 346.460562)">0.2</text>
     </g>
    </g>
    <g id="xtick_3">
     <g id="line2d_5">
      <path d="M 240.534 332.621969 
L 240.534 23.597969 
" clip-path="url(#pbcf1f0c4a7)" style="fill: none; stroke: #e7ebf0; stroke-width: 0.8; stroke-linecap: square"/>
     </g>
     <g id="line2d_6">
      <g>
       <use xlink:href="#mb6f20e50b2" x="240.534" y="332.621969" style="stroke: #000000; stroke-width: 0.8"/>
      </g>
     </g>
     <g id="text_3">
      <text style="font: 9px 'DejaVu Sans'; text-anchor: middle" x="240.534" y="346.460562" transform="rotate(-0 240.534 346.460562)">0.4</text>
     </g>
    </g>
    <g id="xtick_4">
     <g id="line2d_7">
      <path d="M 348.849 332.621969 
L 348.849 23.597969 
" clip-path="url(#pbcf1f0c4a7)" style="fill: none; stroke: #e7ebf0; stroke-width: 0.8; stroke-linecap: square"/>
     </g>
     <g id="line2d_8">
      <g>
       <use xlink:href="#mb6f20e50b2" x="348.849" y="332.621969" style="stroke: #000000; stroke-width: 0.8"/>
      </g>
     </g>
     <g id="text_4">
      <text style="font: 9px 'DejaVu Sans'; text-anchor: middle" x="348.849" y="346.460562" transform="rotate(-0 348.849 346.460562)">0.6</text>
     </g>
    </g>
    <g id="xtick_5">
     <g id="line2d_9">
      <path d="M 457.164 332.621969 
L 457.164 23.597969 
" clip-path="url(#pbcf1f0c4a7)" style="fill: none; stroke: #e7ebf0; stroke-width: 0.8; stroke-linecap: square"/>
     </g>
     <g id="line2d_10">
      <g>
       <use xlink:href="#mb6f20e50b2" x="457.164" y="332.621969" style="stroke: #000000; stroke-width: 0.8"/>
      </g>
     </g>
     <g id="text_5">
      <text style="font: 9px 'DejaVu Sans'; text-anchor: middle" x="457.164" y="346.460562" transform="rotate(-0 457.164 346.460562)">0.8</text>
     </g>
    </g>
    <g id="xtick_6">
     <g id="line2d_11">
      <path d="M 565.479 332.621969 
L 565.479 23.597969 
" clip-path="url(#pbcf1f0c4a7)" style="fill: none; stroke: #e7ebf0; stroke-width: 0.8; stroke-linecap: square"/>
     </g>
     <g id="line2d_12">
      <g>
       <use xlink:href="#mb6f20e50b2" x="565.479" y="332.621969" style="stroke: #000000; stroke-width: 0.8"/>
      </g>
     </g>
     <g id="text_6">
      <text style="font: 9px 'DejaVu Sans'; text-anchor: middle" x="565.479" y="346.460562" transform="rotate(-0 565.479 346.460562)">1.0</text>
     </g>
    </g>
    <g id="xtick_7">
     <g id="line2d_13">
      <path d="M 673.794 332.621969 
L 673.794 23.597969 
" clip-path="url(#pbcf1f0c4a7)" style="fill: none; stroke: #e7ebf0; stroke-width: 0.8; stroke-linecap: square"/>
     </g>
     <g id="line2d_14">
      <g>
       <use xlink:href="#mb6f20e50b2" x="673.794" y="332.621969" style="stroke: #000000; stroke-width: 0.8"/>
      </g>
     </g>
     <g id="text_7">
      <text style="font: 9px 'DejaVu Sans'; text-anchor: middle" x="673.794" y="346.460562" transform="rotate(-0 673.794 346.460562)">1.2</text>
     </g>
    </g>
    <g id="text_8">
     <text style="font: 10px 'DejaVu Sans'; text-anchor: middle" x="370.512" y="360.330719" transform="rotate(-0 370.512 360.330719)">grado de cierre metodológico</text>
    </g>
   </g>
   <g id="matplotlib.axis_2"/>
   <g id="text_9">
    <text style="fill: #ffffff; font: 700 9px 'DejaVu Sans'; text-anchor: start" x="34.7355" y="49.343741" transform="rotate(-0 34.7355 49.343741)">Resolución productiva dp=0.003</text>
   </g>
   <g id="text_10">
    <text style="fill: #17202a; font: 9px 'DejaVu Sans'; text-anchor: start" x="576.3105" y="49.163741" transform="rotate(-0 576.3105 49.163741)">hecho</text>
   </g>
   <g id="text_11">
    <text style="fill: #ffffff; font: 700 9px 'DejaVu Sans'; text-anchor: start" x="34.7355" y="82.021157" transform="rotate(-0 34.7355 82.021157)">Benchmark hidráulico canal dam-break</text>
   </g>
   <g id="text_12">
    <text style="fill: #17202a; font: 9px 'DejaVu Sans'; text-anchor: start" x="576.3105" y="82.021157" transform="rotate(-0 576.3105 82.021157)">hecho</text>
   </g>
   <g id="text_13">
    <text style="fill: #ffffff; font: 700 9px 'DejaVu Sans'; text-anchor: start" x="34.7355" y="114.843417" transform="rotate(-0 34.7355 114.843417)">Sanity contacto casi sin agua</text>
   </g>
   <g id="text_14">
    <text style="fill: #17202a; font: 9px 'DejaVu Sans'; text-anchor: start" x="576.3105" y="114.878574" transform="rotate(-0 576.3105 114.878574)">hecho</text>
   </g>
   <g id="text_15">
    <text style="fill: #ffffff; font: 700 9px 'DejaVu Sans'; text-anchor: start" x="34.7355" y="147.73599" transform="rotate(-0 34.7355 147.73599)">Coherencia Fmotriz/Fresistente</text>
   </g>
   <g id="text_16">
    <text style="fill: #17202a; font: 9px 'DejaVu Sans'; text-anchor: start" x="576.3105" y="147.73599" transform="rotate(-0 576.3105 147.73599)">hecho</text>
   </g>
   <g id="text_17">
    <text style="fill: #ffffff; font: 700 9px 'DejaVu Sans'; text-anchor: start" x="34.7355" y="180.593406" transform="rotate(-0 34.7355 180.593406)">Variables locales antes del bloque</text>
   </g>
   <g id="text_18">
    <text style="fill: #17202a; font: 9px 'DejaVu Sans'; text-anchor: start" x="576.3105" y="180.593406" transform="rotate(-0 576.3105 180.593406)">hecho 14/14</text>
   </g>
   <g id="text_19">
    <text style="fill: #ffffff; font: 700 9px 'DejaVu Sans'; text-anchor: start" x="34.7355" y="213.450823" transform="rotate(-0 34.7355 213.450823)">AL8: brackets H=0.210</text>
   </g>
   <g id="text_20">
    <text style="fill: #17202a; font: 9px 'DejaVu Sans'; text-anchor: start" x="576.3105" y="213.450823" transform="rotate(-0 576.3105 213.450823)">hecho 8/8</text>
   </g>
   <g id="text_21">
    <text style="fill: #ffffff; font: 700 9px 'DejaVu Sans'; text-anchor: start" x="34.7355" y="246.308239" transform="rotate(-0 34.7355 246.308239)">Checks finos dp=0.002</text>
   </g>
   <g id="text_22">
    <text style="fill: #17202a; font: 9px 'DejaVu Sans'; text-anchor: start" x="576.3105" y="246.308239" transform="rotate(-0 576.3105 246.308239)">hecho 6/6</text>
   </g>
   <g id="text_23">
    <text style="fill: #17202a; font: 700 9px 'DejaVu Sans'; text-anchor: start" x="34.7355" y="279.165655" transform="rotate(-0 34.7355 279.165655)">Validacion externa</text>
   </g>
   <g id="text_24">
    <text style="fill: #17202a; font: 9px 'DejaVu Sans'; text-anchor: start" x="576.3105" y="279.165655" transform="rotate(-0 576.3105 279.165655)">pendiente</text>
   </g>
   <g id="text_25">
    <text style="fill: #17202a; font: 700 9px 'DejaVu Sans'; text-anchor: start" x="34.7355" y="312.023071" transform="rotate(-0 34.7355 312.023071)">Monte Carlo sobre GP final</text>
   </g>
   <g id="text_26">
    <text style="fill: #17202a; font: 9px 'DejaVu Sans'; text-anchor: start" x="576.3105" y="312.023071" transform="rotate(-0 576.3105 312.023071)">pendiente</text>
   </g>
   <g id="text_27">
    <text style="font: 700 13px 'DejaVu Sans'; text-anchor: middle" x="370.512" y="17.597969" transform="rotate(-0 370.512 17.597969)">Confiabilidad: lo que ya está cerrado y lo que todavía no</text>
   </g>
  </g>
  <g id="text_28">
   <text style="fill: #5a6673; font: 9px 'DejaVu Sans'; text-anchor: start" x="7.2" y="386.909969" transform="rotate(-0 7.2 386.909969)">Estado: las verificaciones numericas y fisicas estan cerradas por capas; la probabilidad final requiere validacion externa y Monte Carlo sobre el GP final.</text>
  </g>
 </g>
 <defs>
  <clipPath id="pbcf1f0c4a7">
   <rect x="23.904" y="23.597969" width="693.216" height="309.024"/>
  </clipPath>
 </defs>
</svg>
