<?xml version="1.0" encoding="utf-8" standalone="no"?>
<!DOCTYPE svg PUBLIC "-//W3C//DTD SVG 1.1//EN"
  "http://www.w3.org/Graphics/SVG/1.1/DTD/svg11.dtd">
<svg xmlns:xlink="http://www.w3.org/1999/xlink" width="908.352pt" height="407.375719pt" viewBox="0 0 908.352 407.375719" xmlns="http://www.w3.org/2000/svg" version="1.1">
<defs>
  <style type="text/css">*{stroke-linejoin: round; stroke-linecap: butt}</style>
 </defs>
 <g id="figure_1">
  <g id="patch_1">
   <path d="M 0 407.375719 
L 908.352 407.375719 
L 908.352 0 
L 0 0 
z
" style="fill: #ffffff"/>
  </g>
  <g id="axes_1">
   <g id="patch_2">
    <path d="M 71.712 305.568 
L 399.122526 305.568 
L 399.122526 71.712 
L 71.712 71.712 
z
" style="fill: #ffffff"/>
   </g>
   <g id="matplotlib.axis_1">
    <g id="xtick_1">
     <g id="line2d_1">
      <path d="M 117.925447 305.568 
L 117.925447 71.712 
" clip-path="url(#p9daf882938)" style="fill: none; stroke: #e7ebf0; stroke-width: 0.8; stroke-linecap: square"/>
     </g>
     <g id="line2d_2">
      <defs>
       <path id="m4a89830fc9" d="M 0 0 
L 0 3.5 
" style="stroke: #17202a; stroke-width: 0.8"/>
      </defs>
      <g>
       <use xlink:href="#m4a89830fc9" x="117.925447" y="305.568" style="fill: #17202a; stroke: #17202a; stroke-width: 0.8"/>
      </g>
     </g>
     <g id="text_1">
      <text style="fill: #17202a; font: 9px 'DejaVu Sans'" transform="translate(65.755695 342.724166) rotate(-25)">Checks base</text>
     </g>
    </g>
    <g id="xtick_2">
     <g id="line2d_3">
      <path d="M 196.253325 305.568 
L 196.253325 71.712 
" clip-path="url(#p9daf882938)" style="fill: none; stroke: #e7ebf0; stroke-width: 0.8; stroke-linecap: square"/>
     </g>
     <g id="line2d_4">
      <g>
       <use xlink:href="#m4a89830fc9" x="196.253325" y="305.568" style="fill: #17202a; stroke: #17202a; stroke-width: 0.8"/>
      </g>
     </g>
     <g id="text_2">
      <text style="fill: #17202a; font: 9px 'DejaVu Sans'" transform="translate(141.249094 344.045905) rotate(-25)">Refinamiento</text>
     </g>
    </g>
    <g id="xtick_3">
     <g id="line2d_5">
      <path d="M 274.581202 305.568 
L 274.581202 71.712 
" clip-path="url(#p9daf882938)" style="fill: none; stroke: #e7ebf0; stroke-width: 0.8; stroke-linecap: square"/>
     </g>
     <g id="line2d_6">
      <g>
       <use xlink:href="#m4a89830fc9" x="274.581202" y="305.568" style="fill: #17202a; stroke: #17202a; stroke-width: 0.8"/>
      </g>
     </g>
     <g id="text_3">
      <text style="fill: #17202a; font: 9px 'DejaVu Sans'" transform="translate(170.884878 366.751401) rotate(-25)">Cierre H=0.225 m*=1.00</text>
     </g>
    </g>
    <g id="xtick_4">
     <g id="line2d_7">
      <path d="M 352.909079 305.568 
L 352.909079 71.712 
" clip-path="url(#p9daf882938)" style="fill: none; stroke: #e7ebf0; stroke-width: 0.8; stroke-linecap: square"/>
     </g>
     <g id="line2d_8">
      <g>
       <use xlink:href="#m4a89830fc9" x="352.909079" y="305.568" style="fill: #17202a; stroke: #17202a; stroke-width: 0.8"/>
      </g>
     </g>
     <g id="text_4">
      <text style="fill: #17202a; font: 9px 'DejaVu Sans'" transform="translate(298.930817 343.567488) rotate(-25)">Checks extra</text>
     </g>
    </g>
   </g>
   <g id="matplotlib.axis_2">
    <g id="ytick_1">
     <g id="line2d_9">
      <path d="M 71.712 305.568 
L 399.122526 305.568 
" clip-path="url(#p9daf882938)" style="fill: none; stroke: #e7ebf0; stroke-width: 0.8; stroke-linecap: square"/>
     </g>
     <g id="line2d_10">
      <defs>
       <path id="md7d50ee9f4" d="M 0 0 
L -3.5 0 
" style="stroke: #17202a; stroke-width: 0.8"/>
      </defs>
      <g>
       <use xlink:href="#md7d50ee9f4" x="71.712" y="305.568" style="fill: #17202a; stroke: #17202a; stroke-width: 0.8"/>
      </g>
     </g>
     <g id="text_5">
      <text style="fill: #17202a; font: 9px 'DejaVu Sans'; text-anchor: end" x="64.712" y="308.987297" transform="rotate(-0 64.712 308.987297)">0</text>
     </g>
    </g>
    <g id="ytick_2">
     <g id="line2d_11">
      <path d="M 71.712 266.592 
L 399.122526 266.592 
" clip-path="url(#p9daf882938)" style="fill: none; stroke: #e7ebf0; stroke-width: 0.8; stroke-linecap: square"/>
     </g>
     <g id="line2d_12">
      <g>
       <use xlink:href="#md7d50ee9f4" x="71.712" y="266.592" style="fill: #17202a; stroke: #17202a; stroke-width: 0.8"/>
      </g>
     </g>
     <g id="text_6">
      <text style="fill: #17202a; font: 9px 'DejaVu Sans'; text-anchor: end" x="64.712" y="270.011297" transform="rotate(-0 64.712 270.011297)">1</text>
     </g>
    </g>
    <g id="ytick_3">
     <g id="line2d_13">
      <path d="M 71.712 227.616 
L 399.122526 227.616 
" clip-path="url(#p9daf882938)" style="fill: none; stroke: #e7ebf0; stroke-width: 0.8; stroke-linecap: square"/>
     </g>
     <g id="line2d_14">
      <g>
       <use xlink:href="#md7d50ee9f4" x="71.712" y="227.616" style="fill: #17202a; stroke: #17202a; stroke-width: 0.8"/>
      </g>
     </g>
     <g id="text_7">
      <text style="fill: #17202a; font: 9px 'DejaVu Sans'; text-anchor: end" x="64.712" y="231.035297" transform="rotate(-0 64.712 231.035297)">2</text>
     </g>
    </g>
    <g id="ytick_4">
     <g id="line2d_15">
      <path d="M 71.712 188.64 
L 399.122526 188.64 
" clip-path="url(#p9daf882938)" style="fill: none; stroke: #e7ebf0; stroke-width: 0.8; stroke-linecap: square"/>
     </g>
     <g id="line2d_16">
      <g>
       <use xlink:href="#md7d50ee9f4" x="71.712" y="188.64" style="fill: #17202a; stroke: #17202a; stroke-width: 0.8"/>
      </g>
     </g>
     <g id="text_8">
      <text style="fill: #17202a; font: 9px 'DejaVu Sans'; text-anchor: end" x="64.712" y="192.059297" transform="rotate(-0 64.712 192.059297)">3</text>
     </g>
    </g>
    <g id="ytick_5">
     <g id="line2d_17">
      <path d="M 71.712 149.664 
L 399.122526 149.664 
" clip-path="url(#p9daf882938)" style="fill: none; stroke: #e7ebf0; stroke-width: 0.8; stroke-linecap: square"/>
     </g>
     <g id="line2d_18">
      <g>
       <use xlink:href="#md7d50ee9f4" x="71.712" y="149.664" style="fill: #17202a; stroke: #17202a; stroke-width: 0.8"/>
      </g>
     </g>
     <g id="text_9">
      <text style="fill: #17202a; font: 9px 'DejaVu Sans'; text-anchor: end" x="64.712" y="153.083297" transform="rotate(-0 64.712 153.083297)">4</text>
     </g>
    </g>
    <g id="ytick_6">
     <g id="line2d_19">
      <path d="M 71.712 110.688 
L 399.122526 110.688 
" clip-path="url(#p9daf882938)" style="fill: none; stroke: #e7ebf0; stroke-width: 0.8; stroke-linecap: square"/>
     </g>
     <g id="line2d_20">
      <g>
       <use xlink:href="#md7d50ee9f4" x="71.712" y="110.688" style="fill: #17202a; stroke: #17202a; stroke-width: 0.8"/>
      </g>
     </g>
     <g id="text_10">
      <text style="fill: #17202a; font: 9px 'DejaVu Sans'; text-anchor: end" x="64.712" y="114.107297" transform="rotate(-0 64.712 114.107297)">5</text>
     </g>
    </g>
    <g id="ytick_7">
     <g id="line2d_21">
      <path d="M 71.712 71.712 
L 399.122526 71.712 
" clip-path="url(#p9daf882938)" style="fill: none; stroke: #e7ebf0; stroke-width: 0.8; stroke-linecap: square"/>
     </g>
     <g id="line2d_22">
      <g>
       <use xlink:href="#md7d50ee9f4" x="71.712" y="71.712" style="fill: #17202a; stroke: #17202a; stroke-width: 0.8"/>
      </g>
     </g>
     <g id="text_11">
      <text style="fill: #17202a; font: 9px 'DejaVu Sans'; text-anchor: end" x="64.712" y="75.131297" transform="rotate(-0 64.712 75.131297)">6</text>
     </g>
    </g>
    <g id="text_12">
     <text style="font: 10px 'DejaVu Sans'; text-anchor: middle" x="52.906063" y="188.64" transform="rotate(-90 52.906063 188.64)">casos dp=0.002</text>
    </g>
   </g>
   <g id="patch_3">
    <path d="M 86.594297 305.568 
L 149.256598 305.568 
L 149.256598 71.712 
L 86.594297 71.712 
z
" clip-path="url(#p9daf882938)" style="fill: #2f7d4f"/>
   </g>
   <g id="patch_4">
    <path d="M 164.922174 305.568 
L 227.584475 305.568 
L 227.584475 188.64 
L 164.922174 188.64 
z
" clip-path="url(#p9daf882938)" style="fill: #2f7d4f"/>
   </g>
   <g id="patch_5">
    <path d="M 243.250051 305.568 
L 305.912353 305.568 
L 305.912353 266.592 
L 243.250051 266.592 
z
" clip-path="url(#p9daf882938)" style="fill: #2f7d4f"/>
   </g>
   <g id="patch_6">
    <path d="M 321.577928 305.568 
L 384.24023 305.568 
L 384.24023 227.616 
L 321.577928 227.616 
z
" clip-path="url(#p9daf882938)" style="fill: #2f7d4f"/>
   </g>
   <g id="patch_7">
    <path d="M 86.594297 71.712 
L 149.256598 71.712 
L 149.256598 71.712 
L 86.594297 71.712 
z
" clip-path="url(#p9daf882938)" style="fill: #b73b3b"/>
   </g>
   <g id="patch_8">
    <path d="M 164.922174 188.64 
L 227.584475 188.64 
L 227.584475 149.664 
L 164.922174 149.664 
z
" clip-path="url(#p9daf882938)" style="fill: #b73b3b"/>
   </g>
   <g id="patch_9">
    <path d="M 243.250051 266.592 
L 305.912353 266.592 
L 305.912353 149.664 
L 243.250051 149.664 
z
" clip-path="url(#p9daf882938)" style="fill: #b73b3b"/>
   </g>
   <g id="patch_10">
    <path d="M 321.577928 227.616 
L 384.24023 227.616 
L 384.24023 227.616 
L 321.577928 227.616 
z
" clip-path="url(#p9daf882938)" style="fill: #b73b3b"/>
   </g>
   <g id="patch_11">
    <path d="M 71.712 305.568 
L 71.712 71.712 
" style="fill: none; stroke: #cfd7e3; stroke-width: 0.8; stroke-linejoin: miter; stroke-linecap: square"/>
   </g>
   <g id="patch_12">
    <path d="M 71.712 305.568 
L 399.122526 305.568 
" style="fill: none; stroke: #cfd7e3; stroke-width: 0.8; stroke-linejoin: miter; stroke-linecap: square"/>
   </g>
   <g id="text_13">
    <text style="font: 700 9px 'DejaVu Sans'; text-anchor: middle" x="117.925447" y="65.163161" transform="rotate(-0 117.925447 65.163161)">6</text>
   </g>
   <g id="text_14">
    <text style="font: 700 9px 'DejaVu Sans'; text-anchor: middle" x="352.909079" y="143.115161" transform="rotate(-0 352.909079 143.115161)">4</text>
   </g>
   <g id="text_15">
    <text style="font: 700 9px 'DejaVu Sans'; text-anchor: middle" x="196.253325" y="143.115161" transform="rotate(-0 196.253325 143.115161)">4</text>
   </g>
   <g id="text_16">
    <text style="font: 700 9px 'DejaVu Sans'; text-anchor: middle" x="274.581202" y="221.067161" transform="rotate(-0 274.581202 221.067161)">2</text>
   </g>
   <g id="text_17">
    <text style="font: 700 13px 'DejaVu Sans'; text-anchor: middle" x="235.417263" y="65.712" transform="rotate(-0 235.417263 65.712)">Cobertura fina por etapa</text>
   </g>
   <g id="legend_1">
    <g id="patch_13">
     <path d="M 326.589558 86.650594 
L 344.589558 86.650594 
L 344.589558 80.350594 
L 326.589558 80.350594 
z
" style="fill: #2f7d4f"/>
    </g>
    <g id="text_18">
     <text style="font: 9px 'DejaVu Sans'; text-anchor: start" x="351.789558" y="86.650594" transform="rotate(-0 351.789558 86.650594)">ESTABLE</text>
    </g>
    <g id="patch_14">
     <path d="M 326.589558 99.860906 
L 344.589558 99.860906 
L 344.589558 93.560906 
L 326.589558 93.560906 
z
" style="fill: #b73b3b"/>
    </g>
    <g id="text_19">
     <text style="font: 9px 'DejaVu Sans'; text-anchor: start" x="351.789558" y="99.860906" transform="rotate(-0 351.789558 99.860906)">FALLO</text>
    </g>
   </g>
  </g>
  <g id="axes_2">
   <g id="patch_15">
    <path d="M 500.983579 305.568 
L 901.152 305.568 
L 901.152 71.712 
L 500.983579 71.712 
z
" style="fill: #ffffff"/>
   </g>
   <g id="matplotlib.axis_3">
    <g id="xtick_5">
     <g id="line2d_23">
      <path d="M 556.294427 305.568 
L 556.294427 71.712 
" clip-path="url(#p2ab037be3e)" style="fill: none; stroke: #e7ebf0; stroke-width: 0.8; stroke-linecap: square"/>
     </g>
     <g id="line2d_24">
      <g>
       <use xlink:href="#m4a89830fc9" x="556.294427" y="305.568" style="fill: #17202a; stroke: #17202a; stroke-width: 0.8"/>
      </g>
     </g>
     <g id="text_20">
      <text style="fill: #17202a; font: 9px 'DejaVu Sans'; text-anchor: middle" x="556.294427" y="319.406594" transform="rotate(-0 556.294427 319.406594)">0.60</text>
     </g>
    </g>
    <g id="xtick_6">
     <g id="line2d_25">
      <path d="M 618.163386 305.568 
L 618.163386 71.712 
" clip-path="url(#p2ab037be3e)" style="fill: none; stroke: #e7ebf0; stroke-width: 0.8; stroke-linecap: square"/>
     </g>
     <g id="line2d_26">
      <g>
       <use xlink:href="#m4a89830fc9" x="618.163386" y="305.568" style="fill: #17202a; stroke: #17202a; stroke-width: 0.8"/>
      </g>
     </g>
     <g id="text_21">
      <text style="fill: #17202a; font: 9px 'DejaVu Sans'; text-anchor: middle" x="618.163386" y="319.406594" transform="rotate(-0 618.163386 319.406594)">0.65</text>
     </g>
    </g>
    <g id="xtick_7">
     <g id="line2d_27">
      <path d="M 680.032344 305.568 
L 680.032344 71.712 
" clip-path="url(#p2ab037be3e)" style="fill: none; stroke: #e7ebf0; stroke-width: 0.8; stroke-linecap: square"/>
     </g>
     <g id="line2d_28">
      <g>
       <use xlink:href="#m4a89830fc9" x="680.032344" y="305.568" style="fill: #17202a; stroke: #17202a; stroke-width: 0.8"/>
      </g>
     </g>
     <g id="text_22">
      <text style="fill: #17202a; font: 9px 'DejaVu Sans'; text-anchor: middle" x="680.032344" y="319.406594" transform="rotate(-0 680.032344 319.406594)">0.70</text>
     </g>
    </g>
    <g id="xtick_8">
     <g id="line2d_29">
      <path d="M 741.901302 305.568 
L 741.901302 71.712 
" clip-path="url(#p2ab037be3e)" style="fill: none; stroke: #e7ebf0; stroke-width: 0.8; stroke-linecap: square"/>
     </g>
     <g id="line2d_30">
      <g>
       <use xlink:href="#m4a89830fc9" x="741.901302" y="305.568" style="fill: #17202a; stroke: #17202a; stroke-width: 0.8"/>
      </g>
     </g>
     <g id="text_23">
      <text style="fill: #17202a; font: 9px 'DejaVu Sans'; text-anchor: middle" x="741.901302" y="319.406594" transform="rotate(-0 741.901302 319.406594)">0.75</text>
     </g>
    </g>
    <g id="xtick_9">
     <g id="line2d_31">
      <path d="M 803.77026 305.568 
L 803.77026 71.712 
" clip-path="url(#p2ab037be3e)" style="fill: none; stroke: #e7ebf0; stroke-width: 0.8; stroke-linecap: square"/>
     </g>
     <g id="line2d_32">
      <g>
       <use xlink:href="#m4a89830fc9" x="803.77026" y="305.568" style="fill: #17202a; stroke: #17202a; stroke-width: 0.8"/>
      </g>
     </g>
     <g id="text_24">
      <text style="fill: #17202a; font: 9px 'DejaVu Sans'; text-anchor: middle" x="803.77026" y="319.406594" transform="rotate(-0 803.77026 319.406594)">0.80</text>
     </g>
    </g>
    <g id="xtick_10">
     <g id="line2d_33">
      <path d="M 865.639218 305.568 
L 865.639218 71.712 
" clip-path="url(#p2ab037be3e)" style="fill: none; stroke: #e7ebf0; stroke-width: 0.8; stroke-linecap: square"/>
     </g>
     <g id="line2d_34">
      <g>
       <use xlink:href="#m4a89830fc9" x="865.639218" y="305.568" style="fill: #17202a; stroke: #17202a; stroke-width: 0.8"/>
      </g>
     </g>
     <g id="text_25">
      <text style="fill: #17202a; font: 9px 'DejaVu Sans'; text-anchor: middle" x="865.639218" y="319.406594" transform="rotate(-0 865.639218 319.406594)">0.85</text>
     </g>
    </g>
    <g id="text_26">
     <text style="font: 10px 'DejaVu Sans'; text-anchor: middle" x="701.067789" y="332.87675" transform="rotate(-0 701.067789 332.87675)">coeficiente de fricción mu</text>
    </g>
   </g>
   <g id="matplotlib.axis_4">
    <g id="ytick_8">
     <g id="line2d_35">
      <path d="M 500.983579 294.938182 
L 901.152 294.938182 
" clip-path="url(#p2ab037be3e)" style="fill: none; stroke: #e7ebf0; stroke-width: 0.8; stroke-linecap: square"/>
     </g>
     <g id="line2d_36">
      <g>
       <use xlink:href="#md7d50ee9f4" x="500.983579" y="294.938182" style="fill: #17202a; stroke: #17202a; stroke-width: 0.8"/>
      </g>
     </g>
     <g id="text_27">
      <text style="fill: #17202a; font: 9px 'DejaVu Sans'; text-anchor: end" x="493.983579" y="298.357479" transform="rotate(-0 493.983579 298.357479)">H=0.210, m*=1.15</text>
     </g>
    </g>
    <g id="ytick_9">
     <g id="line2d_37">
      <path d="M 500.983579 224.072727 
L 901.152 224.072727 
" clip-path="url(#p2ab037be3e)" style="fill: none; stroke: #e7ebf0; stroke-width: 0.8; stroke-linecap: square"/>
     </g>
     <g id="line2d_38">
      <g>
       <use xlink:href="#md7d50ee9f4" x="500.983579" y="224.072727" style="fill: #17202a; stroke: #17202a; stroke-width: 0.8"/>
      </g>
     </g>
     <g id="text_28">
      <text style="fill: #17202a; font: 9px 'DejaVu Sans'; text-anchor: end" x="493.983579" y="227.492024" transform="rotate(-0 493.983579 227.492024)">H=0.210, m*=1.25</text>
     </g>
    </g>
    <g id="ytick_10">
     <g id="line2d_39">
      <path d="M 500.983579 153.207273 
L 901.152 153.207273 
" clip-path="url(#p2ab037be3e)" style="fill: none; stroke: #e7ebf0; stroke-width: 0.8; stroke-linecap: square"/>
     </g>
     <g id="line2d_40">
      <g>
       <use xlink:href="#md7d50ee9f4" x="500.983579" y="153.207273" style="fill: #17202a; stroke: #17202a; stroke-width: 0.8"/>
      </g>
     </g>
     <g id="text_29">
      <text style="fill: #17202a; font: 9px 'DejaVu Sans'; text-anchor: end" x="493.983579" y="156.62657" transform="rotate(-0 493.983579 156.62657)">H=0.225, m*=1.00</text>
     </g>
    </g>
    <g id="ytick_11">
     <g id="line2d_41">
      <path d="M 500.983579 82.341818 
L 901.152 82.341818 
" clip-path="url(#p2ab037be3e)" style="fill: none; stroke: #e7ebf0; stroke-width: 0.8; stroke-linecap: square"/>
     </g>
     <g id="line2d_42">
      <g>
       <use xlink:href="#md7d50ee9f4" x="500.983579" y="82.341818" style="fill: #17202a; stroke: #17202a; stroke-width: 0.8"/>
      </g>
     </g>
     <g id="text_30">
      <text style="fill: #17202a; font: 9px 'DejaVu Sans'; text-anchor: end" x="493.983579" y="85.761115" transform="rotate(-0 493.983579 85.761115)">H=0.225, m*=1.15</text>
     </g>
    </g>
   </g>
   <g id="PathCollection_1">
    <defs>
     <path id="m20490247c6" d="M 0 4.410188 
C 1.169595 4.410188 2.291445 3.945503 3.118474 3.118474 
C 3.945503 2.291445 4.410188 1.169595 4.410188 0 
C 4.410188 -1.169595 3.945503 -2.291445 3.118474 -3.118474 
C 2.291445 -3.945503 1.169595 -4.410188 0 -4.410188 
C -1.169595 -4.410188 -2.291445 -3.945503 -3.118474 -3.118474 
C -3.945503 -2.291445 -4.410188 -1.169595 -4.410188 0 
C -4.410188 1.169595 -3.945503 2.291445 -3.118474 3.118474 
C -2.291445 3.945503 -1.169595 4.410188 0 4.410188 
z
" style="stroke: #ffffff; stroke-opacity: 0.88"/>
    </defs>
    <g clip-path="url(#p2ab037be3e)">
     <use xlink:href="#m20490247c6" x="605.789594" y="294.938182" style="fill: #2f7d4f; fill-opacity: 0.88; stroke: #ffffff; stroke-opacity: 0.88"/>
    </g>
   </g>
   <g id="PathCollection_2">
    <defs>
     <path id="mf73b5be47d" d="M 0 4.332457 
C 1.148981 4.332457 2.251057 3.875962 3.06351 3.06351 
C 3.875962 2.251057 4.332457 1.148981 4.332457 0 
C 4.332457 -1.148981 3.875962 -2.251057 3.06351 -3.06351 
C 2.251057 -3.875962 1.148981 -4.332457 0 -4.332457 
C -1.148981 -4.332457 -2.251057 -3.875962 -3.06351 -3.06351 
C -3.875962 -2.251057 -4.332457 -1.148981 -4.332457 0 
C -4.332457 1.148981 -3.875962 2.251057 -3.06351 3.06351 
C -2.251057 3.875962 -1.148981 4.332457 0 4.332457 
z
" style="stroke: #ffffff; stroke-opacity: 0.88"/>
    </defs>
    <g clip-path="url(#p2ab037be3e)">
     <use xlink:href="#mf73b5be47d" x="621.256834" y="294.938182" style="fill: #2f7d4f; fill-opacity: 0.88; stroke: #ffffff; stroke-opacity: 0.88"/>
    </g>
   </g>
   <g id="PathCollection_3">
    <defs>
     <path id="m75181a190d" d="M 0 4.1833 
C 1.109424 4.1833 2.173559 3.742521 2.95804 2.95804 
C 3.742521 2.173559 4.1833 1.109424 4.1833 0 
C 4.1833 -1.109424 3.742521 -2.173559 2.95804 -2.95804 
C 2.173559 -3.742521 1.109424 -4.1833 0 -4.1833 
C -1.109424 -4.1833 -2.173559 -3.742521 -2.95804 -2.95804 
C -3.742521 -2.173559 -4.1833 -1.109424 -4.1833 0 
C -4.1833 1.109424 -3.742521 2.173559 -2.95804 2.95804 
C -2.173559 3.742521 -1.109424 4.1833 0 4.1833 
z
" style="stroke: #ffffff; stroke-opacity: 0.88"/>
    </defs>
    <g clip-path="url(#p2ab037be3e)">
     <use xlink:href="#m75181a190d" x="639.817521" y="294.938182" style="fill: #2f7d4f; fill-opacity: 0.88; stroke: #ffffff; stroke-opacity: 0.88"/>
    </g>
   </g>
   <g id="PathCollection_4">
    <defs>
     <path id="mfe8b415bca" d="M 0 5.068994 
C 1.344313 5.068994 2.633747 4.534893 3.58432 3.58432 
C 4.534893 2.633747 5.068994 1.344313 5.068994 0 
C 5.068994 -1.344313 4.534893 -2.633747 3.58432 -3.58432 
C 2.633747 -4.534893 1.344313 -5.068994 0 -5.068994 
C -1.344313 -5.068994 -2.633747 -4.534893 -3.58432 -3.58432 
C -4.534893 -2.633747 -5.068994 -1.344313 -5.068994 0 
C -5.068994 1.344313 -4.534893 2.633747 -3.58432 3.58432 
C -2.633747 4.534893 -1.344313 5.068994 0 5.068994 
z
" style="stroke: #ffffff; stroke-opacity: 0.88"/>
    </defs>
    <g clip-path="url(#p2ab037be3e)">
     <use xlink:href="#mfe8b415bca" x="519.173053" y="224.072727" style="fill: #2f7d4f; fill-opacity: 0.88; stroke: #ffffff; stroke-opacity: 0.88"/>
    </g>
   </g>
   <g id="PathCollection_5">
    <defs>
     <path id="m255cdf5065" d="M 0 5.075537 
C 1.346048 5.075537 2.637147 4.540746 3.588946 3.588946 
C 4.540746 2.637147 5.075537 1.346048 5.075537 0 
C 5.075537 -1.346048 4.540746 -2.637147 3.588946 -3.588946 
C 2.637147 -4.540746 1.346048 -5.075537 0 -5.075537 
C -1.346048 -5.075537 -2.637147 -4.540746 -3.588946 -3.588946 
C -4.540746 -2.637147 -5.075537 -1.346048 -5.075537 0 
C -5.075537 1.346048 -4.540746 2.637147 -3.588946 3.588946 
C -2.637147 4.540746 -1.346048 5.075537 0 5.075537 
z
" style="stroke: #ffffff; stroke-opacity: 0.88"/>
    </defs>
    <g clip-path="url(#p2ab037be3e)">
     <use xlink:href="#m255cdf5065" x="525.359948" y="224.072727" style="fill: #2f7d4f; fill-opacity: 0.88; stroke: #ffffff; stroke-opacity: 0.88"/>
    </g>
   </g>
   <g id="PathCollection_6">
    <defs>
     <path id="m8f13705fb6" d="M 0 4.256183 
C 1.128753 4.256183 2.211427 3.807724 3.009576 3.009576 
C 3.807724 2.211427 4.256183 1.128753 4.256183 0 
C 4.256183 -1.128753 3.807724 -2.211427 3.009576 -3.009576 
C 2.211427 -3.807724 1.128753 -4.256183 0 -4.256183 
C -1.128753 -4.256183 -2.211427 -3.807724 -3.009576 -3.009576 
C -3.807724 -2.211427 -4.256183 -1.128753 -4.256183 0 
C -4.256183 1.128753 -3.807724 2.211427 -3.009576 3.009576 
C -2.211427 3.807724 -1.128753 4.256183 0 4.256183 
z
" style="stroke: #ffffff; stroke-opacity: 0.88"/>
    </defs>
    <g clip-path="url(#p2ab037be3e)">
     <use xlink:href="#m8f13705fb6" x="543.920636" y="224.072727" style="fill: #2f7d4f; fill-opacity: 0.88; stroke: #ffffff; stroke-opacity: 0.88"/>
    </g>
   </g>
   <g id="PathCollection_7">
    <defs>
     <path id="mf04cdfc4ab" d="M 0 4.195596 
C 1.112685 4.195596 2.179947 3.753521 2.966734 2.966734 
C 3.753521 2.179947 4.195596 1.112685 4.195596 0 
C 4.195596 -1.112685 3.753521 -2.179947 2.966734 -2.966734 
C 2.179947 -3.753521 1.112685 -4.195596 0 -4.195596 
C -1.112685 -4.195596 -2.179947 -3.753521 -2.966734 -2.966734 
C -3.753521 -2.179947 -4.195596 -1.112685 -4.195596 0 
C -4.195596 1.112685 -3.753521 2.179947 -2.966734 2.966734 
C -2.179947 3.753521 -1.112685 4.195596 0 4.195596 
z
" style="stroke: #ffffff; stroke-opacity: 0.88"/>
    </defs>
    <g clip-path="url(#p2ab037be3e)">
     <use xlink:href="#mf04cdfc4ab" x="556.294427" y="224.072727" style="fill: #2f7d4f; fill-opacity: 0.88; stroke: #ffffff; stroke-opacity: 0.88"/>
    </g>
   </g>
   <g id="PathCollection_8">
    <defs>
     <path id="m7f80054d32" d="M -2.842778 5.685556 
L 0 2.842778 
L 2.842778 5.685556 
L 5.685556 2.842778 
L 2.842778 0 
L 5.685556 -2.842778 
L 2.842778 -5.685556 
L 0 -2.842778 
L -2.842778 -5.685556 
L -5.685556 -2.842778 
L -2.842778 0 
L -5.685556 2.842778 
z
" style="stroke: #ffffff; stroke-opacity: 0.88"/>
    </defs>
    <g clip-path="url(#p2ab037be3e)">
     <use xlink:href="#m7f80054d32" x="865.639218" y="153.207273" style="fill: #b73b3b; fill-opacity: 0.88; stroke: #ffffff; stroke-opacity: 0.88"/>
    </g>
   </g>
   <g id="PathCollection_9">
    <defs>
     <path id="m7a09ff6c10" d="M -2.704878 5.409755 
L 0 2.704878 
L 2.704878 5.409755 
L 5.409755 2.704878 
L 2.704878 0 
L 5.409755 -2.704878 
L 2.704878 -5.409755 
L 0 -2.704878 
L -2.704878 -5.409755 
L -5.409755 -2.704878 
L -2.704878 0 
L -5.409755 2.704878 
z
" style="stroke: #ffffff; stroke-opacity: 0.88"/>
    </defs>
    <g clip-path="url(#p2ab037be3e)">
     <use xlink:href="#m7a09ff6c10" x="869.970045" y="153.207273" style="fill: #b73b3b; fill-opacity: 0.88; stroke: #ffffff; stroke-opacity: 0.88"/>
    </g>
   </g>
   <g id="PathCollection_10">
    <defs>
     <path id="me4f0999b63" d="M -2.763512 5.527024 
L 0 2.763512 
L 2.763512 5.527024 
L 5.527024 2.763512 
L 2.763512 0 
L 5.527024 -2.763512 
L 2.763512 -5.527024 
L 0 -2.763512 
L -2.763512 -5.527024 
L -5.527024 -2.763512 
L -2.763512 0 
L -5.527024 2.763512 
z
" style="stroke: #ffffff; stroke-opacity: 0.88"/>
    </defs>
    <g clip-path="url(#p2ab037be3e)">
     <use xlink:href="#me4f0999b63" x="874.300872" y="153.207273" style="fill: #b73b3b; fill-opacity: 0.88; stroke: #ffffff; stroke-opacity: 0.88"/>
    </g>
   </g>
   <g id="PathCollection_11">
    <defs>
     <path id="m12b59997a7" d="M -2.743147 5.486293 
L 0 2.743147 
L 2.743147 5.486293 
L 5.486293 2.743147 
L 2.743147 0 
L 5.486293 -2.743147 
L 2.743147 -5.486293 
L 0 -2.743147 
L -2.743147 -5.486293 
L -5.486293 -2.743147 
L -2.743147 0 
L -5.486293 2.743147 
z
" style="stroke: #ffffff; stroke-opacity: 0.88"/>
    </defs>
    <g clip-path="url(#p2ab037be3e)">
     <use xlink:href="#m12b59997a7" x="878.631699" y="153.207273" style="fill: #b73b3b; fill-opacity: 0.88; stroke: #ffffff; stroke-opacity: 0.88"/>
    </g>
   </g>
   <g id="PathCollection_12">
    <defs>
     <path id="m33f8e77c40" d="M 0 4.840986 
C 1.283845 4.840986 2.515279 4.33091 3.423094 3.423094 
C 4.33091 2.515279 4.840986 1.283845 4.840986 0 
C 4.840986 -1.283845 4.33091 -2.515279 3.423094 -3.423094 
C 2.515279 -4.33091 1.283845 -4.840986 0 -4.840986 
C -1.283845 -4.840986 -2.515279 -4.33091 -3.423094 -3.423094 
C -4.33091 -2.515279 -4.840986 -1.283845 -4.840986 0 
C -4.840986 1.283845 -4.33091 2.515279 -3.423094 3.423094 
C -2.515279 4.33091 -1.283845 4.840986 0 4.840986 
z
" style="stroke: #ffffff; stroke-opacity: 0.88"/>
    </defs>
    <g clip-path="url(#p2ab037be3e)">
     <use xlink:href="#m33f8e77c40" x="881.106458" y="153.207273" style="fill: #2f7d4f; fill-opacity: 0.88; stroke: #ffffff; stroke-opacity: 0.88"/>
    </g>
   </g>
   <g id="PathCollection_13">
    <defs>
     <path id="m5c775a0146" d="M 0 4.945767 
C 1.311633 4.945767 2.569721 4.42465 3.497185 3.497185 
C 4.42465 2.569721 4.945767 1.311633 4.945767 0 
C 4.945767 -1.311633 4.42465 -2.569721 3.497185 -3.497185 
C 2.569721 -4.42465 1.311633 -4.945767 0 -4.945767 
C -1.311633 -4.945767 -2.569721 -4.42465 -3.497185 -3.497185 
C -4.42465 -2.569721 -4.945767 -1.311633 -4.945767 0 
C -4.945767 1.311633 -4.42465 2.569721 -3.497185 3.497185 
C -2.569721 4.42465 -1.311633 4.945767 0 4.945767 
z
" style="stroke: #ffffff; stroke-opacity: 0.88"/>
    </defs>
    <g clip-path="url(#p2ab037be3e)">
     <use xlink:href="#m5c775a0146" x="882.962526" y="153.207273" style="fill: #2f7d4f; fill-opacity: 0.88; stroke: #ffffff; stroke-opacity: 0.88"/>
    </g>
   </g>
   <g id="PathCollection_14">
    <defs>
     <path id="m1957d77d70" d="M 0 5.005086 
C 1.327364 5.005086 2.600542 4.477718 3.53913 3.53913 
C 4.477718 2.600542 5.005086 1.327364 5.005086 0 
C 5.005086 -1.327364 4.477718 -2.600542 3.53913 -3.53913 
C 2.600542 -4.477718 1.327364 -5.005086 0 -5.005086 
C -1.327364 -5.005086 -2.600542 -4.477718 -3.53913 -3.53913 
C -4.477718 -2.600542 -5.005086 -1.327364 -5.005086 0 
C -5.005086 1.327364 -4.477718 2.600542 -3.53913 3.53913 
C -2.600542 4.477718 -1.327364 5.005086 0 5.005086 
z
" style="stroke: #ffffff; stroke-opacity: 0.88"/>
    </defs>
    <g clip-path="url(#p2ab037be3e)">
     <use xlink:href="#m1957d77d70" x="723.340614" y="82.341818" style="fill: #2f7d4f; fill-opacity: 0.88; stroke: #ffffff; stroke-opacity: 0.88"/>
    </g>
   </g>
   <g id="PathCollection_15">
    <defs>
     <path id="m26b3c3b93f" d="M 0 5.043364 
C 1.337516 5.043364 2.62043 4.511963 3.566197 3.566197 
C 4.511963 2.62043 5.043364 1.337516 5.043364 0 
C 5.043364 -1.337516 4.511963 -2.62043 3.566197 -3.566197 
C 2.62043 -4.511963 1.337516 -5.043364 0 -5.043364 
C -1.337516 -5.043364 -2.62043 -4.511963 -3.566197 -3.566197 
C -4.511963 -2.62043 -5.043364 -1.337516 -5.043364 0 
C -5.043364 1.337516 -4.511963 2.62043 -3.566197 3.566197 
C -2.62043 4.511963 -1.337516 5.043364 0 5.043364 
z
" style="stroke: #ffffff; stroke-opacity: 0.88"/>
    </defs>
    <g clip-path="url(#p2ab037be3e)">
     <use xlink:href="#m26b3c3b93f" x="729.52751" y="82.341818" style="fill: #2f7d4f; fill-opacity: 0.88; stroke: #ffffff; stroke-opacity: 0.88"/>
    </g>
   </g>
   <g id="PathCollection_16">
    <defs>
     <path id="mc508946ba1" d="M 0 4.726202 
C 1.253403 4.726202 2.455639 4.228219 3.341929 3.341929 
C 4.228219 2.455639 4.726202 1.253403 4.726202 0 
C 4.726202 -1.253403 4.228219 -2.455639 3.341929 -3.341929 
C 2.455639 -4.228219 1.253403 -4.726202 0 -4.726202 
C -1.253403 -4.726202 -2.455639 -4.228219 -3.341929 -3.341929 
C -4.228219 -2.455639 -4.726202 -1.253403 -4.726202 0 
C -4.726202 1.253403 -4.228219 2.455639 -3.341929 3.341929 
C -2.455639 4.228219 -1.253403 4.726202 0 4.726202 
z
" style="stroke: #ffffff; stroke-opacity: 0.88"/>
    </defs>
    <g clip-path="url(#p2ab037be3e)">
     <use xlink:href="#mc508946ba1" x="744.99475" y="82.341818" style="fill: #2f7d4f; fill-opacity: 0.88; stroke: #ffffff; stroke-opacity: 0.88"/>
    </g>
   </g>
   <g id="patch_16">
    <path d="M 500.983579 305.568 
L 500.983579 71.712 
" style="fill: none; stroke: #cfd7e3; stroke-width: 0.8; stroke-linejoin: miter; stroke-linecap: square"/>
   </g>
   <g id="patch_17">
    <path d="M 500.983579 305.568 
L 901.152 305.568 
" style="fill: none; stroke: #cfd7e3; stroke-width: 0.8; stroke-linejoin: miter; stroke-linecap: square"/>
   </g>
   <g id="text_31">
    <text style="font: 700 13px 'DejaVu Sans'; text-anchor: middle" x="701.067789" y="65.712" transform="rotate(-0 701.067789 65.712)">Dónde quedó la evidencia fina</text>
   </g>
  </g>
  <g id="text_32">
   <text style="font: 700 16px 'DejaVu Sans'; text-anchor: middle" x="458.784" y="19.3575" transform="rotate(-0 458.784 19.3575)">Cierre de incertidumbre de resolución: 16 simulaciones finas</text>
  </g>
  <g id="text_33">
   <text style="fill: #5a6673; font: 9px 'DejaVu Sans'; text-anchor: start" x="7.2" y="398.304" transform="rotate(-0 7.2 398.304)">Lectura: hay bracket fino real en H=0.225, m*=1.00; los cortes adicionales quedan estables cerca del umbral. No conviene seguir ampliando dp=0.002 como campaña paralela.</text>
  </g>
 </g>
 <defs>
  <clipPath id="p9daf882938">
   <rect x="71.712" y="71.712" width="327.410526" height="233.856"/>
  </clipPath>
  <clipPath id="p2ab037be3e">
   <rect x="500.983579" y="71.712" width="400.168421" height="233.856"/>
  </clipPath>
 </defs>
</svg>
