<?xml version="1.0" encoding="utf-8" standalone="no"?>
<!DOCTYPE svg PUBLIC "-//W3C//DTD SVG 1.1//EN"
  "http://www.w3.org/Graphics/SVG/1.1/DTD/svg11.dtd">
<svg xmlns:xlink="http://www.w3.org/1999/xlink" width="757.760786pt" height="368.037375pt" viewBox="0 0 757.760786 368.037375" xmlns="http://www.w3.org/2000/svg" version="1.1">
 <metadata>
  <rdf:RDF xmlns:dc="http://purl.org/dc/elements/1.1/" xmlns:cc="http://creativecommons.org/ns#" xmlns:rdf="http://www.w3.org/1999/02/22-rdf-syntax-ns#">
   <cc:Work>
    <dc:type rdf:resource="http://purl.org/dc/dcmitype/StillImage"/>
    <dc:date>2026-06-04T19:54:30.806041</dc:date>
    <dc:format>image/svg+xml</dc:format>
    <dc:creator>
     <cc:Agent>
      <dc:title>Matplotlib v3.7.5, https://matplotlib.org/</dc:title>
     </cc:Agent>
    </dc:creator>
   </cc:Work>
  </rdf:RDF>
 </metadata>
 <defs>
  <style type="text/css">*{stroke-linejoin: round; stroke-linecap: butt}</style>
 </defs>
 <g id="figure_1">
  <g id="patch_1">
   <path d="M 0 368.037375
L 757.760786 368.037375
L 757.760786 0
L 0 0
z
" style="fill: #ffffff"/>
  </g>
  <g id="axes_1">
   <g id="patch_2">
    <path d="M 81.072 304.533656
L 745.92 304.533656
L 745.92 24.597656
L 81.072 24.597656
z
" style="fill: #ffffff"/>
   </g>
   <g id="matplotlib.axis_1">
    <g id="xtick_1">
     <g id="line2d_1">
      <path d="M 112.731429 304.533656
L 112.731429 24.597656
" clip-path="url(#pfbafc3d6c9)" style="fill: none; stroke: #e7ebf0; stroke-width: 0.8; stroke-linecap: square"/>
     </g>
     <g id="line2d_2">
      <defs>
       <path id="m439c81c3e1" d="M 0 0
L 0 3.5
" style="stroke: #17202a; stroke-width: 0.8"/>
      </defs>
      <g>
       <use xlink:href="#m439c81c3e1" x="112.731429" y="304.533656" style="fill: #17202a; stroke: #17202a; stroke-width: 0.8"/>
      </g>
     </g>
     <g id="text_1">
      <!-- 0.175 -->
      <g style="fill: #17202a" transform="translate(99.848772 318.37225) scale(0.09 -0.09)">
       <defs>
        <path id="DejaVuSans-30" d="M 2034 4250
Q 1547 4250 1301 3770
Q 1056 3291 1056 2328
Q 1056 1369 1301 889
Q 1547 409 2034 409
Q 2525 409 2770 889
Q 3016 1369 3016 2328
Q 3016 3291 2770 3770
Q 2525 4250 2034 4250
z
M 2034 4750
Q 2819 4750 3233 4129
Q 3647 3509 3647 2328
Q 3647 1150 3233 529
Q 2819 -91 2034 -91
Q 1250 -91 836 529
Q 422 1150 422 2328
Q 422 3509 836 4129
Q 1250 4750 2034 4750
z
" transform="scale(0.015625)"/>
        <path id="DejaVuSans-2e" d="M 684 794
L 1344 794
L 1344 0
L 684 0
L 684 794
z
" transform="scale(0.015625)"/>
        <path id="DejaVuSans-31" d="M 794 531
L 1825 531
L 1825 4091
L 703 3866
L 703 4441
L 1819 4666
L 2450 4666
L 2450 531
L 3481 531
L 3481 0
L 794 0
L 794 531
z
" transform="scale(0.015625)"/>
        <path id="DejaVuSans-37" d="M 525 4666
L 3525 4666
L 3525 4397
L 1831 0
L 1172 0
L 2766 4134
L 525 4134
L 525 4666
z
" transform="scale(0.015625)"/>
        <path id="DejaVuSans-35" d="M 691 4666
L 3169 4666
L 3169 4134
L 1269 4134
L 1269 2991
Q 1406 3038 1543 3061
Q 1681 3084 1819 3084
Q 2600 3084 3056 2656
Q 3513 2228 3513 1497
Q 3513 744 3044 326
Q 2575 -91 1722 -91
Q 1428 -91 1123 -41
Q 819 9 494 109
L 494 744
Q 775 591 1075 516
Q 1375 441 1709 441
Q 2250 441 2565 725
Q 2881 1009 2881 1497
Q 2881 1984 2565 2268
Q 2250 2553 1709 2553
Q 1456 2553 1204 2497
Q 953 2441 691 2322
L 691 4666
z
" transform="scale(0.015625)"/>
       </defs>
       <use xlink:href="#DejaVuSans-30"/>
       <use xlink:href="#DejaVuSans-2e" x="63.623047"/>
       <use xlink:href="#DejaVuSans-31" x="95.410156"/>
       <use xlink:href="#DejaVuSans-37" x="159.033203"/>
       <use xlink:href="#DejaVuSans-35" x="222.65625"/>
      </g>
     </g>
    </g>
    <g id="xtick_2">
     <g id="line2d_3">
      <path d="M 244.645714 304.533656
L 244.645714 24.597656
" clip-path="url(#pfbafc3d6c9)" style="fill: none; stroke: #e7ebf0; stroke-width: 0.8; stroke-linecap: square"/>
     </g>
     <g id="line2d_4">
      <g>
       <use xlink:href="#m439c81c3e1" x="244.645714" y="304.533656" style="fill: #17202a; stroke: #17202a; stroke-width: 0.8"/>
      </g>
     </g>
     <g id="text_2">
      <!-- 0.188 -->
      <g style="fill: #17202a" transform="translate(231.763058 318.37225) scale(0.09 -0.09)">
       <defs>
        <path id="DejaVuSans-38" d="M 2034 2216
Q 1584 2216 1326 1975
Q 1069 1734 1069 1313
Q 1069 891 1326 650
Q 1584 409 2034 409
Q 2484 409 2743 651
Q 3003 894 3003 1313
Q 3003 1734 2745 1975
Q 2488 2216 2034 2216
z
M 1403 2484
Q 997 2584 770 2862
Q 544 3141 544 3541
Q 544 4100 942 4425
Q 1341 4750 2034 4750
Q 2731 4750 3128 4425
Q 3525 4100 3525 3541
Q 3525 3141 3298 2862
Q 3072 2584 2669 2484
Q 3125 2378 3379 2068
Q 3634 1759 3634 1313
Q 3634 634 3220 271
Q 2806 -91 2034 -91
Q 1263 -91 848 271
Q 434 634 434 1313
Q 434 1759 690 2068
Q 947 2378 1403 2484
z
M 1172 3481
Q 1172 3119 1398 2916
Q 1625 2713 2034 2713
Q 2441 2713 2670 2916
Q 2900 3119 2900 3481
Q 2900 3844 2670 4047
Q 2441 4250 2034 4250
Q 1625 4250 1398 4047
Q 1172 3844 1172 3481
z
" transform="scale(0.015625)"/>
       </defs>
       <use xlink:href="#DejaVuSans-30"/>
       <use xlink:href="#DejaVuSans-2e" x="63.623047"/>
       <use xlink:href="#DejaVuSans-31" x="95.410156"/>
       <use xlink:href="#DejaVuSans-38" x="159.033203"/>
       <use xlink:href="#DejaVuSans-38" x="222.65625"/>
      </g>
     </g>
    </g>
    <g id="xtick_3">
     <g id="line2d_5">
      <path d="M 376.56 304.533656
L 376.56 24.597656
" clip-path="url(#pfbafc3d6c9)" style="fill: none; stroke: #e7ebf0; stroke-width: 0.8; stroke-linecap: square"/>
     </g>
     <g id="line2d_6">
      <g>
       <use xlink:href="#m439c81c3e1" x="376.56" y="304.533656" style="fill: #17202a; stroke: #17202a; stroke-width: 0.8"/>
      </g>
     </g>
     <g id="text_3">
      <!-- 0.200 -->
      <g style="fill: #17202a" transform="translate(363.677344 318.37225) scale(0.09 -0.09)">
       <defs>
        <path id="DejaVuSans-32" d="M 1228 531
L 3431 531
L 3431 0
L 469 0
L 469 531
Q 828 903 1448 1529
Q 2069 2156 2228 2338
Q 2531 2678 2651 2914
Q 2772 3150 2772 3378
Q 2772 3750 2511 3984
Q 2250 4219 1831 4219
Q 1534 4219 1204 4116
Q 875 4013 500 3803
L 500 4441
Q 881 4594 1212 4672
Q 1544 4750 1819 4750
Q 2544 4750 2975 4387
Q 3406 4025 3406 3419
Q 3406 3131 3298 2873
Q 3191 2616 2906 2266
Q 2828 2175 2409 1742
Q 1991 1309 1228 531
z
" transform="scale(0.015625)"/>
       </defs>
       <use xlink:href="#DejaVuSans-30"/>
       <use xlink:href="#DejaVuSans-2e" x="63.623047"/>
       <use xlink:href="#DejaVuSans-32" x="95.410156"/>
       <use xlink:href="#DejaVuSans-30" x="159.033203"/>
       <use xlink:href="#DejaVuSans-30" x="222.65625"/>
      </g>
     </g>
    </g>
    <g id="xtick_4">
     <g id="line2d_7">
      <path d="M 429.325714 304.533656
L 429.325714 24.597656
" clip-path="url(#pfbafc3d6c9)" style="fill: none; stroke: #e7ebf0; stroke-width: 0.8; stroke-linecap: square"/>
     </g>
     <g id="line2d_8">
      <g>
       <use xlink:href="#m439c81c3e1" x="429.325714" y="304.533656" style="fill: #17202a; stroke: #17202a; stroke-width: 0.8"/>
      </g>
     </g>
     <g id="text_4">
      <!-- 0.205 -->
      <g style="fill: #17202a" transform="translate(416.443058 318.37225) scale(0.09 -0.09)">
       <use xlink:href="#DejaVuSans-30"/>
       <use xlink:href="#DejaVuSans-2e" x="63.623047"/>
       <use xlink:href="#DejaVuSans-32" x="95.410156"/>
       <use xlink:href="#DejaVuSans-30" x="159.033203"/>
       <use xlink:href="#DejaVuSans-35" x="222.65625"/>
      </g>
     </g>
    </g>
    <g id="xtick_5">
     <g id="line2d_9">
      <path d="M 482.091429 304.533656
L 482.091429 24.597656
" clip-path="url(#pfbafc3d6c9)" style="fill: none; stroke: #e7ebf0; stroke-width: 0.8; stroke-linecap: square"/>
     </g>
     <g id="line2d_10">
      <g>
       <use xlink:href="#m439c81c3e1" x="482.091429" y="304.533656" style="fill: #17202a; stroke: #17202a; stroke-width: 0.8"/>
      </g>
     </g>
     <g id="text_5">
      <!-- 0.210 -->
      <g style="fill: #17202a" transform="translate(469.208772 318.37225) scale(0.09 -0.09)">
       <use xlink:href="#DejaVuSans-30"/>
       <use xlink:href="#DejaVuSans-2e" x="63.623047"/>
       <use xlink:href="#DejaVuSans-32" x="95.410156"/>
       <use xlink:href="#DejaVuSans-31" x="159.033203"/>
       <use xlink:href="#DejaVuSans-30" x="222.65625"/>
      </g>
     </g>
    </g>
    <g id="xtick_6">
     <g id="line2d_11">
      <path d="M 561.24 304.533656
L 561.24 24.597656
" clip-path="url(#pfbafc3d6c9)" style="fill: none; stroke: #e7ebf0; stroke-width: 0.8; stroke-linecap: square"/>
     </g>
     <g id="line2d_12">
      <g>
       <use xlink:href="#m439c81c3e1" x="561.24" y="304.533656" style="fill: #17202a; stroke: #17202a; stroke-width: 0.8"/>
      </g>
     </g>
     <g id="text_6">
      <!-- 0.217 -->
      <g style="fill: #17202a" transform="translate(548.357344 318.37225) scale(0.09 -0.09)">
       <use xlink:href="#DejaVuSans-30"/>
       <use xlink:href="#DejaVuSans-2e" x="63.623047"/>
       <use xlink:href="#DejaVuSans-32" x="95.410156"/>
       <use xlink:href="#DejaVuSans-31" x="159.033203"/>
       <use xlink:href="#DejaVuSans-37" x="222.65625"/>
      </g>
     </g>
    </g>
    <g id="xtick_7">
     <g id="line2d_13">
      <path d="M 640.388571 304.533656
L 640.388571 24.597656
" clip-path="url(#pfbafc3d6c9)" style="fill: none; stroke: #e7ebf0; stroke-width: 0.8; stroke-linecap: square"/>
     </g>
     <g id="line2d_14">
      <g>
       <use xlink:href="#m439c81c3e1" x="640.388571" y="304.533656" style="fill: #17202a; stroke: #17202a; stroke-width: 0.8"/>
      </g>
     </g>
     <g id="text_7">
      <!-- 0.225 -->
      <g style="fill: #17202a" transform="translate(627.505915 318.37225) scale(0.09 -0.09)">
       <use xlink:href="#DejaVuSans-30"/>
       <use xlink:href="#DejaVuSans-2e" x="63.623047"/>
       <use xlink:href="#DejaVuSans-32" x="95.410156"/>
       <use xlink:href="#DejaVuSans-32" x="159.033203"/>
       <use xlink:href="#DejaVuSans-35" x="222.65625"/>
      </g>
     </g>
    </g>
    <g id="text_8">
     <!-- H_dam (m) -->
     <g style="fill: #17202a" transform="translate(385.766313 331.842406) scale(0.1 -0.1)">
      <defs>
       <path id="DejaVuSans-48" d="M 628 4666
L 1259 4666
L 1259 2753
L 3553 2753
L 3553 4666
L 4184 4666
L 4184 0
L 3553 0
L 3553 2222
L 1259 2222
L 1259 0
L 628 0
L 628 4666
z
" transform="scale(0.015625)"/>
       <path id="DejaVuSans-5f" d="M 3263 -1063
L 3263 -1509
L -63 -1509
L -63 -1063
L 3263 -1063
z
" transform="scale(0.015625)"/>
       <path id="DejaVuSans-64" d="M 2906 2969
L 2906 4863
L 3481 4863
L 3481 0
L 2906 0
L 2906 525
Q 2725 213 2448 61
Q 2172 -91 1784 -91
Q 1150 -91 751 415
Q 353 922 353 1747
Q 353 2572 751 3078
Q 1150 3584 1784 3584
Q 2172 3584 2448 3432
Q 2725 3281 2906 2969
z
M 947 1747
Q 947 1113 1208 752
Q 1469 391 1925 391
Q 2381 391 2643 752
Q 2906 1113 2906 1747
Q 2906 2381 2643 2742
Q 2381 3103 1925 3103
Q 1469 3103 1208 2742
Q 947 2381 947 1747
z
" transform="scale(0.015625)"/>
       <path id="DejaVuSans-61" d="M 2194 1759
Q 1497 1759 1228 1600
Q 959 1441 959 1056
Q 959 750 1161 570
Q 1363 391 1709 391
Q 2188 391 2477 730
Q 2766 1069 2766 1631
L 2766 1759
L 2194 1759
z
M 3341 1997
L 3341 0
L 2766 0
L 2766 531
Q 2569 213 2275 61
Q 1981 -91 1556 -91
Q 1019 -91 701 211
Q 384 513 384 1019
Q 384 1609 779 1909
Q 1175 2209 1959 2209
L 2766 2209
L 2766 2266
Q 2766 2663 2505 2880
Q 2244 3097 1772 3097
Q 1472 3097 1187 3025
Q 903 2953 641 2809
L 641 3341
Q 956 3463 1253 3523
Q 1550 3584 1831 3584
Q 2591 3584 2966 3190
Q 3341 2797 3341 1997
z
" transform="scale(0.015625)"/>
       <path id="DejaVuSans-6d" d="M 3328 2828
Q 3544 3216 3844 3400
Q 4144 3584 4550 3584
Q 5097 3584 5394 3201
Q 5691 2819 5691 2113
L 5691 0
L 5113 0
L 5113 2094
Q 5113 2597 4934 2840
Q 4756 3084 4391 3084
Q 3944 3084 3684 2787
Q 3425 2491 3425 1978
L 3425 0
L 2847 0
L 2847 2094
Q 2847 2600 2669 2842
Q 2491 3084 2119 3084
Q 1678 3084 1418 2786
Q 1159 2488 1159 1978
L 1159 0
L 581 0
L 581 3500
L 1159 3500
L 1159 2956
Q 1356 3278 1631 3431
Q 1906 3584 2284 3584
Q 2666 3584 2933 3390
Q 3200 3197 3328 2828
z
" transform="scale(0.015625)"/>
       <path id="DejaVuSans-20" transform="scale(0.015625)"/>
       <path id="DejaVuSans-28" d="M 1984 4856
Q 1566 4138 1362 3434
Q 1159 2731 1159 2009
Q 1159 1288 1364 580
Q 1569 -128 1984 -844
L 1484 -844
Q 1016 -109 783 600
Q 550 1309 550 2009
Q 550 2706 781 3412
Q 1013 4119 1484 4856
L 1984 4856
z
" transform="scale(0.015625)"/>
       <path id="DejaVuSans-29" d="M 513 4856
L 1013 4856
Q 1481 4119 1714 3412
Q 1947 2706 1947 2009
Q 1947 1309 1714 600
Q 1481 -109 1013 -844
L 513 -844
Q 928 -128 1133 580
Q 1338 1288 1338 2009
Q 1338 2731 1133 3434
Q 928 4138 513 4856
z
" transform="scale(0.015625)"/>
      </defs>
      <use xlink:href="#DejaVuSans-48"/>
      <use xlink:href="#DejaVuSans-5f" x="75.195312"/>
      <use xlink:href="#DejaVuSans-64" x="125.195312"/>
      <use xlink:href="#DejaVuSans-61" x="188.671875"/>
      <use xlink:href="#DejaVuSans-6d" x="249.951172"/>
      <use xlink:href="#DejaVuSans-20" x="347.363281"/>
      <use xlink:href="#DejaVuSans-28" x="379.150391"/>
      <use xlink:href="#DejaVuSans-6d" x="418.164062"/>
      <use xlink:href="#DejaVuSans-29" x="515.576172"/>
     </g>
    </g>
   </g>
   <g id="matplotlib.axis_2">
    <g id="ytick_1">
     <g id="line2d_15">
      <path d="M 81.072 269.902399
L 745.92 269.902399
" clip-path="url(#pfbafc3d6c9)" style="fill: none; stroke: #e7ebf0; stroke-width: 0.8; stroke-linecap: square"/>
     </g>
     <g id="line2d_16">
      <defs>
       <path id="m1b0dfd8aae" d="M 0 0
L -3.5 0
" style="stroke: #17202a; stroke-width: 0.8"/>
      </defs>
      <g>
       <use xlink:href="#m1b0dfd8aae" x="81.072" y="269.902399" style="fill: #17202a; stroke: #17202a; stroke-width: 0.8"/>
      </g>
     </g>
     <g id="text_9">
      <!-- 0.6 -->
      <g style="fill: #17202a" transform="translate(59.759188 273.321695) scale(0.09 -0.09)">
       <defs>
        <path id="DejaVuSans-36" d="M 2113 2584
Q 1688 2584 1439 2293
Q 1191 2003 1191 1497
Q 1191 994 1439 701
Q 1688 409 2113 409
Q 2538 409 2786 701
Q 3034 994 3034 1497
Q 3034 2003 2786 2293
Q 2538 2584 2113 2584
z
M 3366 4563
L 3366 3988
Q 3128 4100 2886 4159
Q 2644 4219 2406 4219
Q 1781 4219 1451 3797
Q 1122 3375 1075 2522
Q 1259 2794 1537 2939
Q 1816 3084 2150 3084
Q 2853 3084 3261 2657
Q 3669 2231 3669 1497
Q 3669 778 3244 343
Q 2819 -91 2113 -91
Q 1303 -91 875 529
Q 447 1150 447 2328
Q 447 3434 972 4092
Q 1497 4750 2381 4750
Q 2619 4750 2861 4703
Q 3103 4656 3366 4563
z
" transform="scale(0.015625)"/>
       </defs>
       <use xlink:href="#DejaVuSans-30"/>
       <use xlink:href="#DejaVuSans-2e" x="63.623047"/>
       <use xlink:href="#DejaVuSans-36" x="95.410156"/>
      </g>
     </g>
    </g>
    <g id="ytick_2">
     <g id="line2d_17">
      <path d="M 81.072 212.183636
L 745.92 212.183636
" clip-path="url(#pfbafc3d6c9)" style="fill: none; stroke: #e7ebf0; stroke-width: 0.8; stroke-linecap: square"/>
     </g>
     <g id="line2d_18">
      <g>
       <use xlink:href="#m1b0dfd8aae" x="81.072" y="212.183636" style="fill: #17202a; stroke: #17202a; stroke-width: 0.8"/>
      </g>
     </g>
     <g id="text_10">
      <!-- 0.8 -->
      <g style="fill: #17202a" transform="translate(59.759188 215.602933) scale(0.09 -0.09)">
       <use xlink:href="#DejaVuSans-30"/>
       <use xlink:href="#DejaVuSans-2e" x="63.623047"/>
       <use xlink:href="#DejaVuSans-38" x="95.410156"/>
      </g>
     </g>
    </g>
    <g id="ytick_3">
     <g id="line2d_19">
      <path d="M 81.072 154.464873
L 745.92 154.464873
" clip-path="url(#pfbafc3d6c9)" style="fill: none; stroke: #e7ebf0; stroke-width: 0.8; stroke-linecap: square"/>
     </g>
     <g id="line2d_20">
      <g>
       <use xlink:href="#m1b0dfd8aae" x="81.072" y="154.464873" style="fill: #17202a; stroke: #17202a; stroke-width: 0.8"/>
      </g>
     </g>
     <g id="text_11">
      <!-- 1.0 -->
      <g style="fill: #17202a" transform="translate(59.759188 157.88417) scale(0.09 -0.09)">
       <use xlink:href="#DejaVuSans-31"/>
       <use xlink:href="#DejaVuSans-2e" x="63.623047"/>
       <use xlink:href="#DejaVuSans-30" x="95.410156"/>
      </g>
     </g>
    </g>
    <g id="ytick_4">
     <g id="line2d_21">
      <path d="M 81.072 96.74611
L 745.92 96.74611
" clip-path="url(#pfbafc3d6c9)" style="fill: none; stroke: #e7ebf0; stroke-width: 0.8; stroke-linecap: square"/>
     </g>
     <g id="line2d_22">
      <g>
       <use xlink:href="#m1b0dfd8aae" x="81.072" y="96.74611" style="fill: #17202a; stroke: #17202a; stroke-width: 0.8"/>
      </g>
     </g>
     <g id="text_12">
      <!-- 1.2 -->
      <g style="fill: #17202a" transform="translate(59.759188 100.165407) scale(0.09 -0.09)">
       <use xlink:href="#DejaVuSans-31"/>
       <use xlink:href="#DejaVuSans-2e" x="63.623047"/>
       <use xlink:href="#DejaVuSans-32" x="95.410156"/>
      </g>
     </g>
    </g>
    <g id="ytick_5">
     <g id="line2d_23">
      <path d="M 81.072 39.027347
L 745.92 39.027347
" clip-path="url(#pfbafc3d6c9)" style="fill: none; stroke: #e7ebf0; stroke-width: 0.8; stroke-linecap: square"/>
     </g>
     <g id="line2d_24">
      <g>
       <use xlink:href="#m1b0dfd8aae" x="81.072" y="39.027347" style="fill: #17202a; stroke: #17202a; stroke-width: 0.8"/>
      </g>
     </g>
     <g id="text_13">
      <!-- 1.4 -->
      <g style="fill: #17202a" transform="translate(59.759188 42.446644) scale(0.09 -0.09)">
       <defs>
        <path id="DejaVuSans-34" d="M 2419 4116
L 825 1625
L 2419 1625
L 2419 4116
z
M 2253 4666
L 3047 4666
L 3047 1625
L 3713 1625
L 3713 1100
L 3047 1100
L 3047 0
L 2419 0
L 2419 1100
L 313 1100
L 313 1709
L 2253 4666
z
" transform="scale(0.015625)"/>
       </defs>
       <use xlink:href="#DejaVuSans-31"/>
       <use xlink:href="#DejaVuSans-2e" x="63.623047"/>
       <use xlink:href="#DejaVuSans-34" x="95.410156"/>
      </g>
     </g>
    </g>
    <g id="text_14">
     <!-- razon con bloque ref. / sin bloque (-) -->
     <g style="fill: #17202a" transform="translate(53.6795 255.281281) rotate(-90) scale(0.1 -0.1)">
      <defs>
       <path id="DejaVuSans-72" d="M 2631 2963
Q 2534 3019 2420 3045
Q 2306 3072 2169 3072
Q 1681 3072 1420 2755
Q 1159 2438 1159 1844
L 1159 0
L 581 0
L 581 3500
L 1159 3500
L 1159 2956
Q 1341 3275 1631 3429
Q 1922 3584 2338 3584
Q 2397 3584 2469 3576
Q 2541 3569 2628 3553
L 2631 2963
z
" transform="scale(0.015625)"/>
       <path id="DejaVuSans-7a" d="M 353 3500
L 3084 3500
L 3084 2975
L 922 459
L 3084 459
L 3084 0
L 275 0
L 275 525
L 2438 3041
L 353 3041
L 353 3500
z
" transform="scale(0.015625)"/>
       <path id="DejaVuSans-6f" d="M 1959 3097
Q 1497 3097 1228 2736
Q 959 2375 959 1747
Q 959 1119 1226 758
Q 1494 397 1959 397
Q 2419 397 2687 759
Q 2956 1122 2956 1747
Q 2956 2369 2687 2733
Q 2419 3097 1959 3097
z
M 1959 3584
Q 2709 3584 3137 3096
Q 3566 2609 3566 1747
Q 3566 888 3137 398
Q 2709 -91 1959 -91
Q 1206 -91 779 398
Q 353 888 353 1747
Q 353 2609 779 3096
Q 1206 3584 1959 3584
z
" transform="scale(0.015625)"/>
       <path id="DejaVuSans-6e" d="M 3513 2113
L 3513 0
L 2938 0
L 2938 2094
Q 2938 2591 2744 2837
Q 2550 3084 2163 3084
Q 1697 3084 1428 2787
Q 1159 2491 1159 1978
L 1159 0
L 581 0
L 581 3500
L 1159 3500
L 1159 2956
Q 1366 3272 1645 3428
Q 1925 3584 2291 3584
Q 2894 3584 3203 3211
Q 3513 2838 3513 2113
z
" transform="scale(0.015625)"/>
       <path id="DejaVuSans-63" d="M 3122 3366
L 3122 2828
Q 2878 2963 2633 3030
Q 2388 3097 2138 3097
Q 1578 3097 1268 2742
Q 959 2388 959 1747
Q 959 1106 1268 751
Q 1578 397 2138 397
Q 2388 397 2633 464
Q 2878 531 3122 666
L 3122 134
Q 2881 22 2623 -34
Q 2366 -91 2075 -91
Q 1284 -91 818 406
Q 353 903 353 1747
Q 353 2603 823 3093
Q 1294 3584 2113 3584
Q 2378 3584 2631 3529
Q 2884 3475 3122 3366
z
" transform="scale(0.015625)"/>
       <path id="DejaVuSans-62" d="M 3116 1747
Q 3116 2381 2855 2742
Q 2594 3103 2138 3103
Q 1681 3103 1420 2742
Q 1159 2381 1159 1747
Q 1159 1113 1420 752
Q 1681 391 2138 391
Q 2594 391 2855 752
Q 3116 1113 3116 1747
z
M 1159 2969
Q 1341 3281 1617 3432
Q 1894 3584 2278 3584
Q 2916 3584 3314 3078
Q 3713 2572 3713 1747
Q 3713 922 3314 415
Q 2916 -91 2278 -91
Q 1894 -91 1617 61
Q 1341 213 1159 525
L 1159 0
L 581 0
L 581 4863
L 1159 4863
L 1159 2969
z
" transform="scale(0.015625)"/>
       <path id="DejaVuSans-6c" d="M 603 4863
L 1178 4863
L 1178 0
L 603 0
L 603 4863
z
" transform="scale(0.015625)"/>
       <path id="DejaVuSans-71" d="M 947 1747
Q 947 1113 1208 752
Q 1469 391 1925 391
Q 2381 391 2643 752
Q 2906 1113 2906 1747
Q 2906 2381 2643 2742
Q 2381 3103 1925 3103
Q 1469 3103 1208 2742
Q 947 2381 947 1747
z
M 2906 525
Q 2725 213 2448 61
Q 2172 -91 1784 -91
Q 1150 -91 751 415
Q 353 922 353 1747
Q 353 2572 751 3078
Q 1150 3584 1784 3584
Q 2172 3584 2448 3432
Q 2725 3281 2906 2969
L 2906 3500
L 3481 3500
L 3481 -1331
L 2906 -1331
L 2906 525
z
" transform="scale(0.015625)"/>
       <path id="DejaVuSans-75" d="M 544 1381
L 544 3500
L 1119 3500
L 1119 1403
Q 1119 906 1312 657
Q 1506 409 1894 409
Q 2359 409 2629 706
Q 2900 1003 2900 1516
L 2900 3500
L 3475 3500
L 3475 0
L 2900 0
L 2900 538
Q 2691 219 2414 64
Q 2138 -91 1772 -91
Q 1169 -91 856 284
Q 544 659 544 1381
z
M 1991 3584
L 1991 3584
z
" transform="scale(0.015625)"/>
       <path id="DejaVuSans-65" d="M 3597 1894
L 3597 1613
L 953 1613
Q 991 1019 1311 708
Q 1631 397 2203 397
Q 2534 397 2845 478
Q 3156 559 3463 722
L 3463 178
Q 3153 47 2828 -22
Q 2503 -91 2169 -91
Q 1331 -91 842 396
Q 353 884 353 1716
Q 353 2575 817 3079
Q 1281 3584 2069 3584
Q 2775 3584 3186 3129
Q 3597 2675 3597 1894
z
M 3022 2063
Q 3016 2534 2758 2815
Q 2500 3097 2075 3097
Q 1594 3097 1305 2825
Q 1016 2553 972 2059
L 3022 2063
z
" transform="scale(0.015625)"/>
       <path id="DejaVuSans-66" d="M 2375 4863
L 2375 4384
L 1825 4384
Q 1516 4384 1395 4259
Q 1275 4134 1275 3809
L 1275 3500
L 2222 3500
L 2222 3053
L 1275 3053
L 1275 0
L 697 0
L 697 3053
L 147 3053
L 147 3500
L 697 3500
L 697 3744
Q 697 4328 969 4595
Q 1241 4863 1831 4863
L 2375 4863
z
" transform="scale(0.015625)"/>
       <path id="DejaVuSans-2f" d="M 1625 4666
L 2156 4666
L 531 -594
L 0 -594
L 1625 4666
z
" transform="scale(0.015625)"/>
       <path id="DejaVuSans-73" d="M 2834 3397
L 2834 2853
Q 2591 2978 2328 3040
Q 2066 3103 1784 3103
Q 1356 3103 1142 2972
Q 928 2841 928 2578
Q 928 2378 1081 2264
Q 1234 2150 1697 2047
L 1894 2003
Q 2506 1872 2764 1633
Q 3022 1394 3022 966
Q 3022 478 2636 193
Q 2250 -91 1575 -91
Q 1294 -91 989 -36
Q 684 19 347 128
L 347 722
Q 666 556 975 473
Q 1284 391 1588 391
Q 1994 391 2212 530
Q 2431 669 2431 922
Q 2431 1156 2273 1281
Q 2116 1406 1581 1522
L 1381 1569
Q 847 1681 609 1914
Q 372 2147 372 2553
Q 372 3047 722 3315
Q 1072 3584 1716 3584
Q 2034 3584 2315 3537
Q 2597 3491 2834 3397
z
" transform="scale(0.015625)"/>
       <path id="DejaVuSans-69" d="M 603 3500
L 1178 3500
L 1178 0
L 603 0
L 603 3500
z
M 603 4863
L 1178 4863
L 1178 4134
L 603 4134
L 603 4863
z
" transform="scale(0.015625)"/>
       <path id="DejaVuSans-2d" d="M 313 2009
L 1997 2009
L 1997 1497
L 313 1497
L 313 2009
z
" transform="scale(0.015625)"/>
      </defs>
      <use xlink:href="#DejaVuSans-72"/>
      <use xlink:href="#DejaVuSans-61" x="41.113281"/>
      <use xlink:href="#DejaVuSans-7a" x="102.392578"/>
      <use xlink:href="#DejaVuSans-6f" x="154.882812"/>
      <use xlink:href="#DejaVuSans-6e" x="216.064453"/>
      <use xlink:href="#DejaVuSans-20" x="279.443359"/>
      <use xlink:href="#DejaVuSans-63" x="311.230469"/>
      <use xlink:href="#DejaVuSans-6f" x="366.210938"/>
      <use xlink:href="#DejaVuSans-6e" x="427.392578"/>
      <use xlink:href="#DejaVuSans-20" x="490.771484"/>
      <use xlink:href="#DejaVuSans-62" x="522.558594"/>
      <use xlink:href="#DejaVuSans-6c" x="586.035156"/>
      <use xlink:href="#DejaVuSans-6f" x="613.818359"/>
      <use xlink:href="#DejaVuSans-71" x="675"/>
      <use xlink:href="#DejaVuSans-75" x="738.476562"/>
      <use xlink:href="#DejaVuSans-65" x="801.855469"/>
      <use xlink:href="#DejaVuSans-20" x="863.378906"/>
      <use xlink:href="#DejaVuSans-72" x="895.166016"/>
      <use xlink:href="#DejaVuSans-65" x="934.029297"/>
      <use xlink:href="#DejaVuSans-66" x="995.552734"/>
      <use xlink:href="#DejaVuSans-2e" x="1023.507812"/>
      <use xlink:href="#DejaVuSans-20" x="1055.294922"/>
      <use xlink:href="#DejaVuSans-2f" x="1087.082031"/>
      <use xlink:href="#DejaVuSans-20" x="1120.773438"/>
      <use xlink:href="#DejaVuSans-73" x="1152.560547"/>
      <use xlink:href="#DejaVuSans-69" x="1204.660156"/>
      <use xlink:href="#DejaVuSans-6e" x="1232.443359"/>
      <use xlink:href="#DejaVuSans-20" x="1295.822266"/>
      <use xlink:href="#DejaVuSans-62" x="1327.609375"/>
      <use xlink:href="#DejaVuSans-6c" x="1391.085938"/>
      <use xlink:href="#DejaVuSans-6f" x="1418.869141"/>
      <use xlink:href="#DejaVuSans-71" x="1480.050781"/>
      <use xlink:href="#DejaVuSans-75" x="1543.527344"/>
      <use xlink:href="#DejaVuSans-65" x="1606.90625"/>
      <use xlink:href="#DejaVuSans-20" x="1668.429688"/>
      <use xlink:href="#DejaVuSans-28" x="1700.216797"/>
      <use xlink:href="#DejaVuSans-2d" x="1739.230469"/>
      <use xlink:href="#DejaVuSans-29" x="1775.314453"/>
     </g>
    </g>
   </g>
   <g id="line2d_25">
    <path d="M 112.731429 54.847634
L 244.645714 53.066935
L 376.56 78.267086
L 429.325714 80.884249
L 482.091429 70.819997
L 561.24 86.772693
L 640.388571 95.040643
" clip-path="url(#pfbafc3d6c9)" style="fill: none; stroke: #2b7bb9; stroke-width: 2.4; stroke-linecap: square"/>
    <defs>
     <path id="md6385882b0" d="M 0 3
C 0.795609 3 1.55874 2.683901 2.12132 2.12132
C 2.683901 1.55874 3 0.795609 3 0
C 3 -0.795609 2.683901 -1.55874 2.12132 -2.12132
C 1.55874 -2.683901 0.795609 -3 0 -3
C -0.795609 -3 -1.55874 -2.683901 -2.12132 -2.12132
C -2.683901 -1.55874 -3 -0.795609 -3 0
C -3 0.795609 -2.683901 1.55874 -2.12132 2.12132
C -1.55874 2.683901 -0.795609 3 0 3
z
" style="stroke: #2b7bb9"/>
    </defs>
    <g clip-path="url(#pfbafc3d6c9)">
     <use xlink:href="#md6385882b0" x="112.731429" y="54.847634" style="fill: #2b7bb9; stroke: #2b7bb9"/>
     <use xlink:href="#md6385882b0" x="244.645714" y="53.066935" style="fill: #2b7bb9; stroke: #2b7bb9"/>
     <use xlink:href="#md6385882b0" x="376.56" y="78.267086" style="fill: #2b7bb9; stroke: #2b7bb9"/>
     <use xlink:href="#md6385882b0" x="429.325714" y="80.884249" style="fill: #2b7bb9; stroke: #2b7bb9"/>
     <use xlink:href="#md6385882b0" x="482.091429" y="70.819997" style="fill: #2b7bb9; stroke: #2b7bb9"/>
     <use xlink:href="#md6385882b0" x="561.24" y="86.772693" style="fill: #2b7bb9; stroke: #2b7bb9"/>
     <use xlink:href="#md6385882b0" x="640.388571" y="95.040643" style="fill: #2b7bb9; stroke: #2b7bb9"/>
    </g>
   </g>
   <g id="line2d_26">
    <path d="M 112.731429 162.676052
L 244.645714 171.404917
L 376.56 175.521163
L 429.325714 159.534709
L 482.091429 153.190057
L 561.24 172.915618
L 640.388571 178.739013
" clip-path="url(#pfbafc3d6c9)" style="fill: none; stroke: #5e5042; stroke-width: 2.4; stroke-linecap: square"/>
    <defs>
     <path id="m52fc2f14f8" d="M 0 3
C 0.795609 3 1.55874 2.683901 2.12132 2.12132
C 2.683901 1.55874 3 0.795609 3 0
C 3 -0.795609 2.683901 -1.55874 2.12132 -2.12132
C 1.55874 -2.683901 0.795609 -3 0 -3
C -0.795609 -3 -1.55874 -2.683901 -2.12132 -2.12132
C -2.683901 -1.55874 -3 -0.795609 -3 0
C -3 0.795609 -2.683901 1.55874 -2.12132 2.12132
C -1.55874 2.683901 -0.795609 3 0 3
z
" style="stroke: #5e5042"/>
    </defs>
    <g clip-path="url(#pfbafc3d6c9)">
     <use xlink:href="#m52fc2f14f8" x="112.731429" y="162.676052" style="fill: #5e5042; stroke: #5e5042"/>
     <use xlink:href="#m52fc2f14f8" x="244.645714" y="171.404917" style="fill: #5e5042; stroke: #5e5042"/>
     <use xlink:href="#m52fc2f14f8" x="376.56" y="175.521163" style="fill: #5e5042; stroke: #5e5042"/>
     <use xlink:href="#m52fc2f14f8" x="429.325714" y="159.534709" style="fill: #5e5042; stroke: #5e5042"/>
     <use xlink:href="#m52fc2f14f8" x="482.091429" y="153.190057" style="fill: #5e5042; stroke: #5e5042"/>
     <use xlink:href="#m52fc2f14f8" x="561.24" y="172.915618" style="fill: #5e5042; stroke: #5e5042"/>
     <use xlink:href="#m52fc2f14f8" x="640.388571" y="178.739013" style="fill: #5e5042; stroke: #5e5042"/>
    </g>
   </g>
   <g id="line2d_27">
    <path d="M 112.731429 214.737406
L 244.645714 219.372159
L 376.56 266.379121
L 429.325714 250.043811
L 482.091429 278.685186
L 561.24 237.147033
L 640.388571 266.643419
" clip-path="url(#pfbafc3d6c9)" style="fill: none; stroke: #c77c02; stroke-width: 2.4; stroke-linecap: square"/>
    <defs>
     <path id="m8ed208fd4d" d="M 0 3
C 0.795609 3 1.55874 2.683901 2.12132 2.12132
C 2.683901 1.55874 3 0.795609 3 0
C 3 -0.795609 2.683901 -1.55874 2.12132 -2.12132
C 1.55874 -2.683901 0.795609 -3 0 -3
C -0.795609 -3 -1.55874 -2.683901 -2.12132 -2.12132
C -2.683901 -1.55874 -3 -0.795609 -3 0
C -3 0.795609 -2.683901 1.55874 -2.12132 2.12132
C -1.55874 2.683901 -0.795609 3 0 3
z
" style="stroke: #c77c02"/>
    </defs>
    <g clip-path="url(#pfbafc3d6c9)">
     <use xlink:href="#m8ed208fd4d" x="112.731429" y="214.737406" style="fill: #c77c02; stroke: #c77c02"/>
     <use xlink:href="#m8ed208fd4d" x="244.645714" y="219.372159" style="fill: #c77c02; stroke: #c77c02"/>
     <use xlink:href="#m8ed208fd4d" x="376.56" y="266.379121" style="fill: #c77c02; stroke: #c77c02"/>
     <use xlink:href="#m8ed208fd4d" x="429.325714" y="250.043811" style="fill: #c77c02; stroke: #c77c02"/>
     <use xlink:href="#m8ed208fd4d" x="482.091429" y="278.685186" style="fill: #c77c02; stroke: #c77c02"/>
     <use xlink:href="#m8ed208fd4d" x="561.24" y="237.147033" style="fill: #c77c02; stroke: #c77c02"/>
     <use xlink:href="#m8ed208fd4d" x="640.388571" y="266.643419" style="fill: #c77c02; stroke: #c77c02"/>
    </g>
   </g>
   <g id="line2d_28">
    <path d="M 81.072 154.464873
L 745.92 154.464873
" clip-path="url(#pfbafc3d6c9)" style="fill: none; stroke-dasharray: 4.44,1.92; stroke-dashoffset: 0; stroke: #7a7f87; stroke-width: 1.2"/>
   </g>
   <g id="patch_3">
    <path d="M 81.072 304.533656
L 81.072 24.597656
" style="fill: none; stroke: #d8dee8; stroke-width: 0.8; stroke-linejoin: miter; stroke-linecap: square"/>
   </g>
   <g id="patch_4">
    <path d="M 745.92 304.533656
L 745.92 24.597656
" style="fill: none; stroke: #d8dee8; stroke-width: 0.8; stroke-linejoin: miter; stroke-linecap: square"/>
   </g>
   <g id="patch_5">
    <path d="M 81.072 304.533656
L 745.92 304.533656
" style="fill: none; stroke: #d8dee8; stroke-width: 0.8; stroke-linejoin: miter; stroke-linecap: square"/>
   </g>
   <g id="patch_6">
    <path d="M 81.072 24.597656
L 745.92 24.597656
" style="fill: none; stroke: #d8dee8; stroke-width: 0.8; stroke-linejoin: miter; stroke-linecap: square"/>
   </g>
   <g id="text_15">
    <!-- profundidad local -->
    <g style="fill: #2b7bb9" transform="translate(656.218286 97.524081) scale(0.09 -0.09)">
     <defs>
      <path id="DejaVuSans-70" d="M 1159 525
L 1159 -1331
L 581 -1331
L 581 3500
L 1159 3500
L 1159 2969
Q 1341 3281 1617 3432
Q 1894 3584 2278 3584
Q 2916 3584 3314 3078
Q 3713 2572 3713 1747
Q 3713 922 3314 415
Q 2916 -91 2278 -91
Q 1894 -91 1617 61
Q 1341 213 1159 525
z
M 3116 1747
Q 3116 2381 2855 2742
Q 2594 3103 2138 3103
Q 1681 3103 1420 2742
Q 1159 2381 1159 1747
Q 1159 1113 1420 752
Q 1681 391 2138 391
Q 2594 391 2855 752
Q 3116 1113 3116 1747
z
" transform="scale(0.015625)"/>
     </defs>
     <use xlink:href="#DejaVuSans-70"/>
     <use xlink:href="#DejaVuSans-72" x="63.476562"/>
     <use xlink:href="#DejaVuSans-6f" x="102.339844"/>
     <use xlink:href="#DejaVuSans-66" x="163.521484"/>
     <use xlink:href="#DejaVuSans-75" x="198.726562"/>
     <use xlink:href="#DejaVuSans-6e" x="262.105469"/>
     <use xlink:href="#DejaVuSans-64" x="325.484375"/>
     <use xlink:href="#DejaVuSans-69" x="388.960938"/>
     <use xlink:href="#DejaVuSans-64" x="416.744141"/>
     <use xlink:href="#DejaVuSans-61" x="480.220703"/>
     <use xlink:href="#DejaVuSans-64" x="541.5"/>
     <use xlink:href="#DejaVuSans-20" x="604.976562"/>
     <use xlink:href="#DejaVuSans-6c" x="636.763672"/>
     <use xlink:href="#DejaVuSans-6f" x="664.546875"/>
     <use xlink:href="#DejaVuSans-63" x="725.728516"/>
     <use xlink:href="#DejaVuSans-61" x="780.708984"/>
     <use xlink:href="#DejaVuSans-6c" x="841.988281"/>
    </g>
   </g>
   <g id="text_16">
    <!-- velocidad local -->
    <g style="fill: #5e5042" transform="translate(656.218286 181.222451) scale(0.09 -0.09)">
     <defs>
      <path id="DejaVuSans-76" d="M 191 3500
L 800 3500
L 1894 563
L 2988 3500
L 3597 3500
L 2284 0
L 1503 0
L 191 3500
z
" transform="scale(0.015625)"/>
     </defs>
     <use xlink:href="#DejaVuSans-76"/>
     <use xlink:href="#DejaVuSans-65" x="59.179688"/>
     <use xlink:href="#DejaVuSans-6c" x="120.703125"/>
     <use xlink:href="#DejaVuSans-6f" x="148.486328"/>
     <use xlink:href="#DejaVuSans-63" x="209.667969"/>
     <use xlink:href="#DejaVuSans-69" x="264.648438"/>
     <use xlink:href="#DejaVuSans-64" x="292.431641"/>
     <use xlink:href="#DejaVuSans-61" x="355.908203"/>
     <use xlink:href="#DejaVuSans-64" x="417.1875"/>
     <use xlink:href="#DejaVuSans-20" x="480.664062"/>
     <use xlink:href="#DejaVuSans-6c" x="512.451172"/>
     <use xlink:href="#DejaVuSans-6f" x="540.234375"/>
     <use xlink:href="#DejaVuSans-63" x="601.416016"/>
     <use xlink:href="#DejaVuSans-61" x="656.396484"/>
     <use xlink:href="#DejaVuSans-6c" x="717.675781"/>
    </g>
   </g>
   <g id="text_17">
    <!-- proxy de momentum -->
    <g style="fill: #c77c02" transform="translate(656.218286 269.126856) scale(0.09 -0.09)">
     <defs>
      <path id="DejaVuSans-78" d="M 3513 3500
L 2247 1797
L 3578 0
L 2900 0
L 1881 1375
L 863 0
L 184 0
L 1544 1831
L 300 3500
L 978 3500
L 1906 2253
L 2834 3500
L 3513 3500
z
" transform="scale(0.015625)"/>
      <path id="DejaVuSans-79" d="M 2059 -325
Q 1816 -950 1584 -1140
Q 1353 -1331 966 -1331
L 506 -1331
L 506 -850
L 844 -850
Q 1081 -850 1212 -737
Q 1344 -625 1503 -206
L 1606 56
L 191 3500
L 800 3500
L 1894 763
L 2988 3500
L 3597 3500
L 2059 -325
z
" transform="scale(0.015625)"/>
      <path id="DejaVuSans-74" d="M 1172 4494
L 1172 3500
L 2356 3500
L 2356 3053
L 1172 3053
L 1172 1153
Q 1172 725 1289 603
Q 1406 481 1766 481
L 2356 481
L 2356 0
L 1766 0
Q 1100 0 847 248
Q 594 497 594 1153
L 594 3053
L 172 3053
L 172 3500
L 594 3500
L 594 4494
L 1172 4494
z
" transform="scale(0.015625)"/>
     </defs>
     <use xlink:href="#DejaVuSans-70"/>
     <use xlink:href="#DejaVuSans-72" x="63.476562"/>
     <use xlink:href="#DejaVuSans-6f" x="102.339844"/>
     <use xlink:href="#DejaVuSans-78" x="160.396484"/>
     <use xlink:href="#DejaVuSans-79" x="219.576172"/>
     <use xlink:href="#DejaVuSans-20" x="278.755859"/>
     <use xlink:href="#DejaVuSans-64" x="310.542969"/>
     <use xlink:href="#DejaVuSans-65" x="374.019531"/>
     <use xlink:href="#DejaVuSans-20" x="435.542969"/>
     <use xlink:href="#DejaVuSans-6d" x="467.330078"/>
     <use xlink:href="#DejaVuSans-6f" x="564.742188"/>
     <use xlink:href="#DejaVuSans-6d" x="625.923828"/>
     <use xlink:href="#DejaVuSans-65" x="723.335938"/>
     <use xlink:href="#DejaVuSans-6e" x="784.859375"/>
     <use xlink:href="#DejaVuSans-74" x="848.238281"/>
     <use xlink:href="#DejaVuSans-75" x="887.447266"/>
     <use xlink:href="#DejaVuSans-6d" x="950.826172"/>
    </g>
   </g>
   <g id="text_18">
    <!-- sin cambio -->
    <g style="fill: #7a7f87" transform="translate(112.731429 150.135966) scale(0.09 -0.09)">
     <use xlink:href="#DejaVuSans-73"/>
     <use xlink:href="#DejaVuSans-69" x="52.099609"/>
     <use xlink:href="#DejaVuSans-6e" x="79.882812"/>
     <use xlink:href="#DejaVuSans-20" x="143.261719"/>
     <use xlink:href="#DejaVuSans-63" x="175.048828"/>
     <use xlink:href="#DejaVuSans-61" x="230.029297"/>
     <use xlink:href="#DejaVuSans-6d" x="291.308594"/>
     <use xlink:href="#DejaVuSans-62" x="388.720703"/>
     <use xlink:href="#DejaVuSans-69" x="452.197266"/>
     <use xlink:href="#DejaVuSans-6f" x="479.980469"/>
    </g>
   </g>
   <g id="text_19">
    <!-- Perturbacion relativa causada por el bloque de referencia -->
    <g style="fill: #17202a" transform="translate(168.492094 18.597656) scale(0.15 -0.15)">
     <defs>
      <path id="DejaVuSans-Bold-50" d="M 588 4666
L 2584 4666
Q 3475 4666 3951 4270
Q 4428 3875 4428 3144
Q 4428 2409 3951 2014
Q 3475 1619 2584 1619
L 1791 1619
L 1791 0
L 588 0
L 588 4666
z
M 1791 3794
L 1791 2491
L 2456 2491
Q 2806 2491 2997 2661
Q 3188 2831 3188 3144
Q 3188 3456 2997 3625
Q 2806 3794 2456 3794
L 1791 3794
z
" transform="scale(0.015625)"/>
      <path id="DejaVuSans-Bold-65" d="M 4031 1759
L 4031 1441
L 1416 1441
Q 1456 1047 1700 850
Q 1944 653 2381 653
Q 2734 653 3104 758
Q 3475 863 3866 1075
L 3866 213
Q 3469 63 3072 -14
Q 2675 -91 2278 -91
Q 1328 -91 801 392
Q 275 875 275 1747
Q 275 2603 792 3093
Q 1309 3584 2216 3584
Q 3041 3584 3536 3087
Q 4031 2591 4031 1759
z
M 2881 2131
Q 2881 2450 2695 2645
Q 2509 2841 2209 2841
Q 1884 2841 1681 2658
Q 1478 2475 1428 2131
L 2881 2131
z
" transform="scale(0.015625)"/>
      <path id="DejaVuSans-Bold-72" d="M 3138 2547
Q 2991 2616 2845 2648
Q 2700 2681 2553 2681
Q 2122 2681 1889 2404
Q 1656 2128 1656 1613
L 1656 0
L 538 0
L 538 3500
L 1656 3500
L 1656 2925
Q 1872 3269 2151 3426
Q 2431 3584 2822 3584
Q 2878 3584 2943 3579
Q 3009 3575 3134 3559
L 3138 2547
z
" transform="scale(0.015625)"/>
      <path id="DejaVuSans-Bold-74" d="M 1759 4494
L 1759 3500
L 2913 3500
L 2913 2700
L 1759 2700
L 1759 1216
Q 1759 972 1856 886
Q 1953 800 2241 800
L 2816 800
L 2816 0
L 1856 0
Q 1194 0 917 276
Q 641 553 641 1216
L 641 2700
L 84 2700
L 84 3500
L 641 3500
L 641 4494
L 1759 4494
z
" transform="scale(0.015625)"/>
      <path id="DejaVuSans-Bold-75" d="M 500 1363
L 500 3500
L 1625 3500
L 1625 3150
Q 1625 2866 1622 2436
Q 1619 2006 1619 1863
Q 1619 1441 1641 1255
Q 1663 1069 1716 984
Q 1784 875 1895 815
Q 2006 756 2150 756
Q 2500 756 2700 1025
Q 2900 1294 2900 1772
L 2900 3500
L 4019 3500
L 4019 0
L 2900 0
L 2900 506
Q 2647 200 2364 54
Q 2081 -91 1741 -91
Q 1134 -91 817 281
Q 500 653 500 1363
z
" transform="scale(0.015625)"/>
      <path id="DejaVuSans-Bold-62" d="M 2400 722
Q 2759 722 2948 984
Q 3138 1247 3138 1747
Q 3138 2247 2948 2509
Q 2759 2772 2400 2772
Q 2041 2772 1848 2508
Q 1656 2244 1656 1747
Q 1656 1250 1848 986
Q 2041 722 2400 722
z
M 1656 2988
Q 1888 3294 2169 3439
Q 2450 3584 2816 3584
Q 3463 3584 3878 3070
Q 4294 2556 4294 1747
Q 4294 938 3878 423
Q 3463 -91 2816 -91
Q 2450 -91 2169 54
Q 1888 200 1656 506
L 1656 0
L 538 0
L 538 4863
L 1656 4863
L 1656 2988
z
" transform="scale(0.015625)"/>
      <path id="DejaVuSans-Bold-61" d="M 2106 1575
Q 1756 1575 1579 1456
Q 1403 1338 1403 1106
Q 1403 894 1545 773
Q 1688 653 1941 653
Q 2256 653 2472 879
Q 2688 1106 2688 1447
L 2688 1575
L 2106 1575
z
M 3816 1997
L 3816 0
L 2688 0
L 2688 519
Q 2463 200 2181 54
Q 1900 -91 1497 -91
Q 953 -91 614 226
Q 275 544 275 1050
Q 275 1666 698 1953
Q 1122 2241 2028 2241
L 2688 2241
L 2688 2328
Q 2688 2594 2478 2717
Q 2269 2841 1825 2841
Q 1466 2841 1156 2769
Q 847 2697 581 2553
L 581 3406
Q 941 3494 1303 3539
Q 1666 3584 2028 3584
Q 2975 3584 3395 3211
Q 3816 2838 3816 1997
z
" transform="scale(0.015625)"/>
      <path id="DejaVuSans-Bold-63" d="M 3366 3391
L 3366 2478
Q 3138 2634 2908 2709
Q 2678 2784 2431 2784
Q 1963 2784 1702 2511
Q 1441 2238 1441 1747
Q 1441 1256 1702 982
Q 1963 709 2431 709
Q 2694 709 2930 787
Q 3166 866 3366 1019
L 3366 103
Q 3103 6 2833 -42
Q 2563 -91 2291 -91
Q 1344 -91 809 395
Q 275 881 275 1747
Q 275 2613 809 3098
Q 1344 3584 2291 3584
Q 2566 3584 2833 3536
Q 3100 3488 3366 3391
z
" transform="scale(0.015625)"/>
      <path id="DejaVuSans-Bold-69" d="M 538 3500
L 1656 3500
L 1656 0
L 538 0
L 538 3500
z
M 538 4863
L 1656 4863
L 1656 3950
L 538 3950
L 538 4863
z
" transform="scale(0.015625)"/>
      <path id="DejaVuSans-Bold-6f" d="M 2203 2784
Q 1831 2784 1636 2517
Q 1441 2250 1441 1747
Q 1441 1244 1636 976
Q 1831 709 2203 709
Q 2569 709 2762 976
Q 2956 1244 2956 1747
Q 2956 2250 2762 2517
Q 2569 2784 2203 2784
z
M 2203 3584
Q 3106 3584 3614 3096
Q 4122 2609 4122 1747
Q 4122 884 3614 396
Q 3106 -91 2203 -91
Q 1297 -91 786 396
Q 275 884 275 1747
Q 275 2609 786 3096
Q 1297 3584 2203 3584
z
" transform="scale(0.015625)"/>
      <path id="DejaVuSans-Bold-6e" d="M 4056 2131
L 4056 0
L 2931 0
L 2931 347
L 2931 1631
Q 2931 2084 2911 2256
Q 2891 2428 2841 2509
Q 2775 2619 2662 2680
Q 2550 2741 2406 2741
Q 2056 2741 1856 2470
Q 1656 2200 1656 1722
L 1656 0
L 538 0
L 538 3500
L 1656 3500
L 1656 2988
Q 1909 3294 2193 3439
Q 2478 3584 2822 3584
Q 3428 3584 3742 3212
Q 4056 2841 4056 2131
z
" transform="scale(0.015625)"/>
      <path id="DejaVuSans-Bold-20" transform="scale(0.015625)"/>
      <path id="DejaVuSans-Bold-6c" d="M 538 4863
L 1656 4863
L 1656 0
L 538 0
L 538 4863
z
" transform="scale(0.015625)"/>
      <path id="DejaVuSans-Bold-76" d="M 97 3500
L 1216 3500
L 2088 1081
L 2956 3500
L 4078 3500
L 2700 0
L 1472 0
L 97 3500
z
" transform="scale(0.015625)"/>
      <path id="DejaVuSans-Bold-73" d="M 3272 3391
L 3272 2541
Q 2913 2691 2578 2766
Q 2244 2841 1947 2841
Q 1628 2841 1473 2761
Q 1319 2681 1319 2516
Q 1319 2381 1436 2309
Q 1553 2238 1856 2203
L 2053 2175
Q 2913 2066 3209 1816
Q 3506 1566 3506 1031
Q 3506 472 3093 190
Q 2681 -91 1863 -91
Q 1516 -91 1145 -36
Q 775 19 384 128
L 384 978
Q 719 816 1070 734
Q 1422 653 1784 653
Q 2113 653 2278 743
Q 2444 834 2444 1013
Q 2444 1163 2330 1236
Q 2216 1309 1875 1350
L 1678 1375
Q 931 1469 631 1722
Q 331 1975 331 2491
Q 331 3047 712 3315
Q 1094 3584 1881 3584
Q 2191 3584 2531 3537
Q 2872 3491 3272 3391
z
" transform="scale(0.015625)"/>
      <path id="DejaVuSans-Bold-64" d="M 2919 2988
L 2919 4863
L 4044 4863
L 4044 0
L 2919 0
L 2919 506
Q 2688 197 2409 53
Q 2131 -91 1766 -91
Q 1119 -91 703 423
Q 288 938 288 1747
Q 288 2556 703 3070
Q 1119 3584 1766 3584
Q 2128 3584 2408 3439
Q 2688 3294 2919 2988
z
M 2181 722
Q 2541 722 2730 984
Q 2919 1247 2919 1747
Q 2919 2247 2730 2509
Q 2541 2772 2181 2772
Q 1825 2772 1636 2509
Q 1447 2247 1447 1747
Q 1447 1247 1636 984
Q 1825 722 2181 722
z
" transform="scale(0.015625)"/>
      <path id="DejaVuSans-Bold-70" d="M 1656 506
L 1656 -1331
L 538 -1331
L 538 3500
L 1656 3500
L 1656 2988
Q 1888 3294 2169 3439
Q 2450 3584 2816 3584
Q 3463 3584 3878 3070
Q 4294 2556 4294 1747
Q 4294 938 3878 423
Q 3463 -91 2816 -91
Q 2450 -91 2169 54
Q 1888 200 1656 506
z
M 2400 2772
Q 2041 2772 1848 2508
Q 1656 2244 1656 1747
Q 1656 1250 1848 986
Q 2041 722 2400 722
Q 2759 722 2948 984
Q 3138 1247 3138 1747
Q 3138 2247 2948 2509
Q 2759 2772 2400 2772
z
" transform="scale(0.015625)"/>
      <path id="DejaVuSans-Bold-71" d="M 2181 2772
Q 1825 2772 1636 2509
Q 1447 2247 1447 1747
Q 1447 1247 1636 984
Q 1825 722 2181 722
Q 2541 722 2730 984
Q 2919 1247 2919 1747
Q 2919 2247 2730 2509
Q 2541 2772 2181 2772
z
M 2919 506
Q 2688 197 2409 53
Q 2131 -91 1766 -91
Q 1119 -91 703 423
Q 288 938 288 1747
Q 288 2556 703 3067
Q 1119 3578 1766 3578
Q 2131 3578 2409 3434
Q 2688 3291 2919 2981
L 2919 3500
L 4044 3500
L 4044 -1331
L 2919 -1331
L 2919 506
z
" transform="scale(0.015625)"/>
      <path id="DejaVuSans-Bold-66" d="M 2841 4863
L 2841 4128
L 2222 4128
Q 1984 4128 1890 4042
Q 1797 3956 1797 3744
L 1797 3500
L 2753 3500
L 2753 2700
L 1797 2700
L 1797 0
L 678 0
L 678 2700
L 122 2700
L 122 3500
L 678 3500
L 678 3744
Q 678 4316 997 4589
Q 1316 4863 1984 4863
L 2841 4863
z
" transform="scale(0.015625)"/>
     </defs>
     <use xlink:href="#DejaVuSans-Bold-50"/>
     <use xlink:href="#DejaVuSans-Bold-65" x="73.291016"/>
     <use xlink:href="#DejaVuSans-Bold-72" x="141.113281"/>
     <use xlink:href="#DejaVuSans-Bold-74" x="190.429688"/>
     <use xlink:href="#DejaVuSans-Bold-75" x="238.232422"/>
     <use xlink:href="#DejaVuSans-Bold-72" x="309.423828"/>
     <use xlink:href="#DejaVuSans-Bold-62" x="358.740234"/>
     <use xlink:href="#DejaVuSans-Bold-61" x="430.322266"/>
     <use xlink:href="#DejaVuSans-Bold-63" x="497.802734"/>
     <use xlink:href="#DejaVuSans-Bold-69" x="557.080078"/>
     <use xlink:href="#DejaVuSans-Bold-6f" x="591.357422"/>
     <use xlink:href="#DejaVuSans-Bold-6e" x="660.058594"/>
     <use xlink:href="#DejaVuSans-Bold-20" x="731.25"/>
     <use xlink:href="#DejaVuSans-Bold-72" x="766.064453"/>
     <use xlink:href="#DejaVuSans-Bold-65" x="815.380859"/>
     <use xlink:href="#DejaVuSans-Bold-6c" x="883.203125"/>
     <use xlink:href="#DejaVuSans-Bold-61" x="917.480469"/>
     <use xlink:href="#DejaVuSans-Bold-74" x="984.960938"/>
     <use xlink:href="#DejaVuSans-Bold-69" x="1032.763672"/>
     <use xlink:href="#DejaVuSans-Bold-76" x="1067.041016"/>
     <use xlink:href="#DejaVuSans-Bold-61" x="1132.226562"/>
     <use xlink:href="#DejaVuSans-Bold-20" x="1199.707031"/>
     <use xlink:href="#DejaVuSans-Bold-63" x="1234.521484"/>
     <use xlink:href="#DejaVuSans-Bold-61" x="1293.798828"/>
     <use xlink:href="#DejaVuSans-Bold-75" x="1361.279297"/>
     <use xlink:href="#DejaVuSans-Bold-73" x="1432.470703"/>
     <use xlink:href="#DejaVuSans-Bold-61" x="1491.992188"/>
     <use xlink:href="#DejaVuSans-Bold-64" x="1559.472656"/>
     <use xlink:href="#DejaVuSans-Bold-61" x="1631.054688"/>
     <use xlink:href="#DejaVuSans-Bold-20" x="1698.535156"/>
     <use xlink:href="#DejaVuSans-Bold-70" x="1733.349609"/>
     <use xlink:href="#DejaVuSans-Bold-6f" x="1804.931641"/>
     <use xlink:href="#DejaVuSans-Bold-72" x="1873.632812"/>
     <use xlink:href="#DejaVuSans-Bold-20" x="1922.949219"/>
     <use xlink:href="#DejaVuSans-Bold-65" x="1957.763672"/>
     <use xlink:href="#DejaVuSans-Bold-6c" x="2025.585938"/>
     <use xlink:href="#DejaVuSans-Bold-20" x="2059.863281"/>
     <use xlink:href="#DejaVuSans-Bold-62" x="2094.677734"/>
     <use xlink:href="#DejaVuSans-Bold-6c" x="2166.259766"/>
     <use xlink:href="#DejaVuSans-Bold-6f" x="2200.537109"/>
     <use xlink:href="#DejaVuSans-Bold-71" x="2269.238281"/>
     <use xlink:href="#DejaVuSans-Bold-75" x="2340.820312"/>
     <use xlink:href="#DejaVuSans-Bold-65" x="2412.011719"/>
     <use xlink:href="#DejaVuSans-Bold-20" x="2479.833984"/>
     <use xlink:href="#DejaVuSans-Bold-64" x="2514.648438"/>
     <use xlink:href="#DejaVuSans-Bold-65" x="2586.230469"/>
     <use xlink:href="#DejaVuSans-Bold-20" x="2654.052734"/>
     <use xlink:href="#DejaVuSans-Bold-72" x="2688.867188"/>
     <use xlink:href="#DejaVuSans-Bold-65" x="2738.183594"/>
     <use xlink:href="#DejaVuSans-Bold-66" x="2806.005859"/>
     <use xlink:href="#DejaVuSans-Bold-65" x="2849.511719"/>
     <use xlink:href="#DejaVuSans-Bold-72" x="2917.333984"/>
     <use xlink:href="#DejaVuSans-Bold-65" x="2966.650391"/>
     <use xlink:href="#DejaVuSans-Bold-6e" x="3034.472656"/>
     <use xlink:href="#DejaVuSans-Bold-63" x="3105.664062"/>
     <use xlink:href="#DejaVuSans-Bold-69" x="3164.941406"/>
     <use xlink:href="#DejaVuSans-Bold-61" x="3199.21875"/>
    </g>
   </g>
  </g>
  <g id="text_20">
   <!-- Lectura: valores sobre 1 aumentan con el bloque; valores bajo 1 disminuyen. La profundidad sube, pero la solicitacion M disponible baja. -->
   <g style="fill: #5b6770" transform="translate(7.2 358.965656) scale(0.09 -0.09)">
    <defs>
     <path id="DejaVuSans-4c" d="M 628 4666
L 1259 4666
L 1259 531
L 3531 531
L 3531 0
L 628 0
L 628 4666
z
" transform="scale(0.015625)"/>
     <path id="DejaVuSans-3a" d="M 750 794
L 1409 794
L 1409 0
L 750 0
L 750 794
z
M 750 3309
L 1409 3309
L 1409 2516
L 750 2516
L 750 3309
z
" transform="scale(0.015625)"/>
     <path id="DejaVuSans-3b" d="M 750 3309
L 1409 3309
L 1409 2516
L 750 2516
L 750 3309
z
M 750 794
L 1409 794
L 1409 256
L 897 -744
L 494 -744
L 750 256
L 750 794
z
" transform="scale(0.015625)"/>
     <path id="DejaVuSans-6a" d="M 603 3500
L 1178 3500
L 1178 -63
Q 1178 -731 923 -1031
Q 669 -1331 103 -1331
L -116 -1331
L -116 -844
L 38 -844
Q 366 -844 484 -692
Q 603 -541 603 -63
L 603 3500
z
M 603 4863
L 1178 4863
L 1178 4134
L 603 4134
L 603 4863
z
" transform="scale(0.015625)"/>
     <path id="DejaVuSans-2c" d="M 750 794
L 1409 794
L 1409 256
L 897 -744
L 494 -744
L 750 256
L 750 794
z
" transform="scale(0.015625)"/>
     <path id="DejaVuSans-4d" d="M 628 4666
L 1569 4666
L 2759 1491
L 3956 4666
L 4897 4666
L 4897 0
L 4281 0
L 4281 4097
L 3078 897
L 2444 897
L 1241 4097
L 1241 0
L 628 0
L 628 4666
z
" transform="scale(0.015625)"/>
    </defs>
    <use xlink:href="#DejaVuSans-4c"/>
    <use xlink:href="#DejaVuSans-65" x="53.962891"/>
    <use xlink:href="#DejaVuSans-63" x="115.486328"/>
    <use xlink:href="#DejaVuSans-74" x="170.466797"/>
    <use xlink:href="#DejaVuSans-75" x="209.675781"/>
    <use xlink:href="#DejaVuSans-72" x="273.054688"/>
    <use xlink:href="#DejaVuSans-61" x="314.167969"/>
    <use xlink:href="#DejaVuSans-3a" x="375.447266"/>
    <use xlink:href="#DejaVuSans-20" x="409.138672"/>
    <use xlink:href="#DejaVuSans-76" x="440.925781"/>
    <use xlink:href="#DejaVuSans-61" x="500.105469"/>
    <use xlink:href="#DejaVuSans-6c" x="561.384766"/>
    <use xlink:href="#DejaVuSans-6f" x="589.167969"/>
    <use xlink:href="#DejaVuSans-72" x="650.349609"/>
    <use xlink:href="#DejaVuSans-65" x="689.212891"/>
    <use xlink:href="#DejaVuSans-73" x="750.736328"/>
    <use xlink:href="#DejaVuSans-20" x="802.835938"/>
    <use xlink:href="#DejaVuSans-73" x="834.623047"/>
    <use xlink:href="#DejaVuSans-6f" x="886.722656"/>
    <use xlink:href="#DejaVuSans-62" x="947.904297"/>
    <use xlink:href="#DejaVuSans-72" x="1011.380859"/>
    <use xlink:href="#DejaVuSans-65" x="1050.244141"/>
    <use xlink:href="#DejaVuSans-20" x="1111.767578"/>
    <use xlink:href="#DejaVuSans-31" x="1143.554688"/>
    <use xlink:href="#DejaVuSans-20" x="1207.177734"/>
    <use xlink:href="#DejaVuSans-61" x="1238.964844"/>
    <use xlink:href="#DejaVuSans-75" x="1300.244141"/>
    <use xlink:href="#DejaVuSans-6d" x="1363.623047"/>
    <use xlink:href="#DejaVuSans-65" x="1461.035156"/>
    <use xlink:href="#DejaVuSans-6e" x="1522.558594"/>
    <use xlink:href="#DejaVuSans-74" x="1585.9375"/>
    <use xlink:href="#DejaVuSans-61" x="1625.146484"/>
    <use xlink:href="#DejaVuSans-6e" x="1686.425781"/>
    <use xlink:href="#DejaVuSans-20" x="1749.804688"/>
    <use xlink:href="#DejaVuSans-63" x="1781.591797"/>
    <use xlink:href="#DejaVuSans-6f" x="1836.572266"/>
    <use xlink:href="#DejaVuSans-6e" x="1897.753906"/>
    <use xlink:href="#DejaVuSans-20" x="1961.132812"/>
    <use xlink:href="#DejaVuSans-65" x="1992.919922"/>
    <use xlink:href="#DejaVuSans-6c" x="2054.443359"/>
    <use xlink:href="#DejaVuSans-20" x="2082.226562"/>
    <use xlink:href="#DejaVuSans-62" x="2114.013672"/>
    <use xlink:href="#DejaVuSans-6c" x="2177.490234"/>
    <use xlink:href="#DejaVuSans-6f" x="2205.273438"/>
    <use xlink:href="#DejaVuSans-71" x="2266.455078"/>
    <use xlink:href="#DejaVuSans-75" x="2329.931641"/>
    <use xlink:href="#DejaVuSans-65" x="2393.310547"/>
    <use xlink:href="#DejaVuSans-3b" x="2454.833984"/>
    <use xlink:href="#DejaVuSans-20" x="2488.525391"/>
    <use xlink:href="#DejaVuSans-76" x="2520.3125"/>
    <use xlink:href="#DejaVuSans-61" x="2579.492188"/>
    <use xlink:href="#DejaVuSans-6c" x="2640.771484"/>
    <use xlink:href="#DejaVuSans-6f" x="2668.554688"/>
    <use xlink:href="#DejaVuSans-72" x="2729.736328"/>
    <use xlink:href="#DejaVuSans-65" x="2768.599609"/>
    <use xlink:href="#DejaVuSans-73" x="2830.123047"/>
    <use xlink:href="#DejaVuSans-20" x="2882.222656"/>
    <use xlink:href="#DejaVuSans-62" x="2914.009766"/>
    <use xlink:href="#DejaVuSans-61" x="2977.486328"/>
    <use xlink:href="#DejaVuSans-6a" x="3038.765625"/>
    <use xlink:href="#DejaVuSans-6f" x="3066.548828"/>
    <use xlink:href="#DejaVuSans-20" x="3127.730469"/>
    <use xlink:href="#DejaVuSans-31" x="3159.517578"/>
    <use xlink:href="#DejaVuSans-20" x="3223.140625"/>
    <use xlink:href="#DejaVuSans-64" x="3254.927734"/>
    <use xlink:href="#DejaVuSans-69" x="3318.404297"/>
    <use xlink:href="#DejaVuSans-73" x="3346.1875"/>
    <use xlink:href="#DejaVuSans-6d" x="3398.287109"/>
    <use xlink:href="#DejaVuSans-69" x="3495.699219"/>
    <use xlink:href="#DejaVuSans-6e" x="3523.482422"/>
    <use xlink:href="#DejaVuSans-75" x="3586.861328"/>
    <use xlink:href="#DejaVuSans-79" x="3650.240234"/>
    <use xlink:href="#DejaVuSans-65" x="3709.419922"/>
    <use xlink:href="#DejaVuSans-6e" x="3770.943359"/>
    <use xlink:href="#DejaVuSans-2e" x="3834.322266"/>
    <use xlink:href="#DejaVuSans-20" x="3866.109375"/>
    <use xlink:href="#DejaVuSans-4c" x="3897.896484"/>
    <use xlink:href="#DejaVuSans-61" x="3953.609375"/>
    <use xlink:href="#DejaVuSans-20" x="4014.888672"/>
    <use xlink:href="#DejaVuSans-70" x="4046.675781"/>
    <use xlink:href="#DejaVuSans-72" x="4110.152344"/>
    <use xlink:href="#DejaVuSans-6f" x="4149.015625"/>
    <use xlink:href="#DejaVuSans-66" x="4210.197266"/>
    <use xlink:href="#DejaVuSans-75" x="4245.402344"/>
    <use xlink:href="#DejaVuSans-6e" x="4308.78125"/>
    <use xlink:href="#DejaVuSans-64" x="4372.160156"/>
    <use xlink:href="#DejaVuSans-69" x="4435.636719"/>
    <use xlink:href="#DejaVuSans-64" x="4463.419922"/>
    <use xlink:href="#DejaVuSans-61" x="4526.896484"/>
    <use xlink:href="#DejaVuSans-64" x="4588.175781"/>
    <use xlink:href="#DejaVuSans-20" x="4651.652344"/>
    <use xlink:href="#DejaVuSans-73" x="4683.439453"/>
    <use xlink:href="#DejaVuSans-75" x="4735.539062"/>
    <use xlink:href="#DejaVuSans-62" x="4798.917969"/>
    <use xlink:href="#DejaVuSans-65" x="4862.394531"/>
    <use xlink:href="#DejaVuSans-2c" x="4923.917969"/>
    <use xlink:href="#DejaVuSans-20" x="4955.705078"/>
    <use xlink:href="#DejaVuSans-70" x="4987.492188"/>
    <use xlink:href="#DejaVuSans-65" x="5050.96875"/>
    <use xlink:href="#DejaVuSans-72" x="5112.492188"/>
    <use xlink:href="#DejaVuSans-6f" x="5151.355469"/>
    <use xlink:href="#DejaVuSans-20" x="5212.537109"/>
    <use xlink:href="#DejaVuSans-6c" x="5244.324219"/>
    <use xlink:href="#DejaVuSans-61" x="5272.107422"/>
    <use xlink:href="#DejaVuSans-20" x="5333.386719"/>
    <use xlink:href="#DejaVuSans-73" x="5365.173828"/>
    <use xlink:href="#DejaVuSans-6f" x="5417.273438"/>
    <use xlink:href="#DejaVuSans-6c" x="5478.455078"/>
    <use xlink:href="#DejaVuSans-69" x="5506.238281"/>
    <use xlink:href="#DejaVuSans-63" x="5534.021484"/>
    <use xlink:href="#DejaVuSans-69" x="5589.001953"/>
    <use xlink:href="#DejaVuSans-74" x="5616.785156"/>
    <use xlink:href="#DejaVuSans-61" x="5655.994141"/>
    <use xlink:href="#DejaVuSans-63" x="5717.273438"/>
    <use xlink:href="#DejaVuSans-69" x="5772.253906"/>
    <use xlink:href="#DejaVuSans-6f" x="5800.037109"/>
    <use xlink:href="#DejaVuSans-6e" x="5861.21875"/>
    <use xlink:href="#DejaVuSans-20" x="5924.597656"/>
    <use xlink:href="#DejaVuSans-4d" x="5956.384766"/>
    <use xlink:href="#DejaVuSans-20" x="6042.664062"/>
    <use xlink:href="#DejaVuSans-64" x="6074.451172"/>
    <use xlink:href="#DejaVuSans-69" x="6137.927734"/>
    <use xlink:href="#DejaVuSans-73" x="6165.710938"/>
    <use xlink:href="#DejaVuSans-70" x="6217.810547"/>
    <use xlink:href="#DejaVuSans-6f" x="6281.287109"/>
    <use xlink:href="#DejaVuSans-6e" x="6342.46875"/>
    <use xlink:href="#DejaVuSans-69" x="6405.847656"/>
    <use xlink:href="#DejaVuSans-62" x="6433.630859"/>
    <use xlink:href="#DejaVuSans-6c" x="6497.107422"/>
    <use xlink:href="#DejaVuSans-65" x="6524.890625"/>
    <use xlink:href="#DejaVuSans-20" x="6586.414062"/>
    <use xlink:href="#DejaVuSans-62" x="6618.201172"/>
    <use xlink:href="#DejaVuSans-61" x="6681.677734"/>
    <use xlink:href="#DejaVuSans-6a" x="6742.957031"/>
    <use xlink:href="#DejaVuSans-61" x="6770.740234"/>
    <use xlink:href="#DejaVuSans-2e" x="6832.019531"/>
   </g>
  </g>
 </g>
 <defs>
  <clipPath id="pfbafc3d6c9">
   <rect x="81.072" y="24.597656" width="664.848" height="279.936"/>
  </clipPath>
 </defs>
</svg>
